<svg width="1000" height="120" viewBox="0 0 1000 120" fill="none" xmlns="http://www.w3.org/2000/svg">
<rect width="1000" height="120" fill="white"/>
<g filter="url(#filter0_d)">
<path d="M54 49C54 46.7909 55.7909 45 58 45H132C134.209 45 136 46.7909 136 49V77C136 79.2091 134.209 81 132 81H58C55.7909 81 54 79.2091 54 77V49Z" fill="#279FF6"/>
<path d="M77.399 58.469V59.575H72.583V62.907H76.482V63.971H72.583V67.394H77.399V68.5H71.218V58.469H77.399ZM79.1568 68.5V61.409H79.8988C80.0761 61.409 80.1881 61.4953 80.2348 61.668L80.3328 62.438C80.6408 62.0973 80.9838 61.822 81.3618 61.612C81.7444 61.402 82.1854 61.297 82.6848 61.297C83.0721 61.297 83.4128 61.3623 83.7068 61.493C84.0054 61.619 84.2528 61.801 84.4488 62.039C84.6494 62.2723 84.8011 62.5547 84.9038 62.886C85.0064 63.2173 85.0578 63.5837 85.0578 63.985V68.5H83.8118V63.985C83.8118 63.4483 83.6881 63.033 83.4408 62.739C83.1981 62.4403 82.8248 62.291 82.3208 62.291C81.9521 62.291 81.6068 62.3797 81.2848 62.557C80.9674 62.7343 80.6734 62.9747 80.4028 63.278V68.5H79.1568ZM92.1441 68.5H91.5911C91.4697 68.5 91.3717 68.4813 91.2971 68.444C91.2224 68.4067 91.1734 68.3273 91.1501 68.206L91.0101 67.548C90.8234 67.716 90.6414 67.8677 90.4641 68.003C90.2867 68.1337 90.1001 68.2457 89.9041 68.339C89.7081 68.4277 89.4981 68.4953 89.2741 68.542C89.0547 68.5887 88.8097 68.612 88.5391 68.612C88.2637 68.612 88.0047 68.5747 87.7621 68.5C87.5241 68.4207 87.3164 68.304 87.1391 68.15C86.9617 67.996 86.8194 67.8023 86.7121 67.569C86.6094 67.331 86.5581 67.051 86.5581 66.729C86.5581 66.449 86.6351 66.1807 86.7891 65.924C86.9431 65.6627 87.1904 65.4317 87.5311 65.231C87.8764 65.0303 88.3267 64.867 88.8821 64.741C89.4374 64.6103 90.1164 64.5357 90.9191 64.517V63.964C90.9191 63.4133 90.8001 62.998 90.5621 62.718C90.3287 62.4333 89.9811 62.291 89.5191 62.291C89.2157 62.291 88.9591 62.3307 88.7491 62.41C88.5437 62.4847 88.3641 62.571 88.2101 62.669C88.0607 62.7623 87.9301 62.8487 87.8181 62.928C87.7107 63.0027 87.6034 63.04 87.4961 63.04C87.4121 63.04 87.3374 63.019 87.2721 62.977C87.2114 62.9303 87.1624 62.8743 87.1251 62.809L86.9011 62.41C87.2931 62.032 87.7154 61.7497 88.1681 61.563C88.6207 61.3763 89.1224 61.283 89.6731 61.283C90.0697 61.283 90.4221 61.3483 90.7301 61.479C91.0381 61.6097 91.2971 61.7917 91.5071 62.025C91.7171 62.2583 91.8757 62.5407 91.9831 62.872C92.0904 63.2033 92.1441 63.5673 92.1441 63.964V68.5ZM88.9101 67.737C89.1294 67.737 89.3301 67.716 89.5121 67.674C89.6941 67.6273 89.8644 67.5643 90.0231 67.485C90.1864 67.401 90.3404 67.3007 90.4851 67.184C90.6344 67.0673 90.7791 66.9343 90.9191 66.785V65.308C90.3451 65.3267 89.8574 65.3733 89.4561 65.448C89.0547 65.518 88.7281 65.6113 88.4761 65.728C88.2241 65.8447 88.0397 65.9823 87.9231 66.141C87.8111 66.2997 87.7551 66.477 87.7551 66.673C87.7551 66.8597 87.7854 67.0207 87.8461 67.156C87.9067 67.2913 87.9884 67.4033 88.0911 67.492C88.1937 67.576 88.3151 67.639 88.4551 67.681C88.5951 67.7183 88.7467 67.737 88.9101 67.737ZM94.0738 68.5V58.189H95.3268V62.431C95.6208 62.0903 95.9568 61.8173 96.3348 61.612C96.7174 61.402 97.1538 61.297 97.6438 61.297C98.0544 61.297 98.4254 61.374 98.7568 61.528C99.0881 61.682 99.3704 61.913 99.6038 62.221C99.8371 62.5243 100.017 62.9023 100.143 63.355C100.269 63.803 100.332 64.321 100.332 64.909C100.332 65.4317 100.262 65.9193 100.122 66.372C99.9818 66.82 99.7788 67.2097 99.5128 67.541C99.2514 67.8677 98.9294 68.1267 98.5468 68.318C98.1688 68.5047 97.7418 68.598 97.2658 68.598C96.8084 68.598 96.4188 68.5093 96.0968 68.332C95.7794 68.1547 95.5018 67.9073 95.2638 67.59L95.2008 68.234C95.1634 68.4113 95.0561 68.5 94.8788 68.5H94.0738ZM97.2378 62.291C96.8318 62.291 96.4748 62.3843 96.1668 62.571C95.8634 62.7577 95.5834 63.0213 95.3268 63.362V66.792C95.5508 67.1 95.7981 67.317 96.0688 67.443C96.3441 67.569 96.6498 67.632 96.9858 67.632C97.6484 67.632 98.1571 67.3963 98.5118 66.925C98.8664 66.4537 99.0438 65.7817 99.0438 64.909C99.0438 64.447 99.0018 64.0503 98.9178 63.719C98.8384 63.3877 98.7218 63.117 98.5678 62.907C98.4138 62.6923 98.2248 62.536 98.0008 62.438C97.7768 62.34 97.5224 62.291 97.2378 62.291ZM103.238 58.189V68.5H101.992V58.189H103.238ZM108.241 61.297C108.666 61.297 109.058 61.3693 109.417 61.514C109.776 61.654 110.087 61.8593 110.348 62.13C110.609 62.396 110.812 62.7273 110.957 63.124C111.106 63.516 111.181 63.964 111.181 64.468C111.181 64.664 111.16 64.7947 111.118 64.86C111.076 64.9253 110.997 64.958 110.88 64.958H106.162C106.171 65.406 106.232 65.7957 106.344 66.127C106.456 66.4583 106.61 66.736 106.806 66.96C107.002 67.1793 107.235 67.345 107.506 67.457C107.777 67.5643 108.08 67.618 108.416 67.618C108.729 67.618 108.997 67.583 109.221 67.513C109.45 67.4383 109.646 67.359 109.809 67.275C109.972 67.191 110.108 67.114 110.215 67.044C110.327 66.9693 110.423 66.932 110.502 66.932C110.605 66.932 110.684 66.9717 110.74 67.051L111.09 67.506C110.936 67.6927 110.752 67.856 110.537 67.996C110.322 68.1313 110.091 68.2433 109.844 68.332C109.601 68.4207 109.349 68.486 109.088 68.528C108.827 68.5747 108.568 68.598 108.311 68.598C107.821 68.598 107.368 68.5163 106.953 68.353C106.542 68.185 106.185 67.9423 105.882 67.625C105.583 67.303 105.35 66.9063 105.182 66.435C105.014 65.9637 104.93 65.4223 104.93 64.811C104.93 64.3163 105.005 63.8543 105.154 63.425C105.308 62.9957 105.527 62.6247 105.812 62.312C106.097 61.9947 106.444 61.7473 106.855 61.57C107.266 61.388 107.728 61.297 108.241 61.297ZM108.269 62.214C107.667 62.214 107.193 62.389 106.848 62.739C106.503 63.0843 106.288 63.565 106.204 64.181H110.061C110.061 63.8917 110.021 63.628 109.942 63.39C109.863 63.1473 109.746 62.9397 109.592 62.767C109.438 62.5897 109.249 62.4543 109.025 62.361C108.806 62.263 108.554 62.214 108.269 62.214ZM117.767 68.5C117.59 68.5 117.478 68.4137 117.431 68.241L117.319 67.38C117.016 67.7487 116.668 68.045 116.276 68.269C115.889 68.4883 115.443 68.598 114.939 68.598C114.533 68.598 114.164 68.521 113.833 68.367C113.502 68.2083 113.219 67.9773 112.986 67.674C112.753 67.3707 112.573 66.9927 112.447 66.54C112.321 66.0873 112.258 65.567 112.258 64.979C112.258 64.4563 112.328 63.971 112.468 63.523C112.608 63.0703 112.809 62.6783 113.07 62.347C113.336 62.0157 113.658 61.7567 114.036 61.57C114.414 61.3787 114.843 61.283 115.324 61.283C115.758 61.283 116.129 61.3577 116.437 61.507C116.745 61.6517 117.02 61.857 117.263 62.123V58.189H118.509V68.5H117.767ZM115.352 67.59C115.758 67.59 116.113 67.4967 116.416 67.31C116.724 67.1233 117.006 66.8597 117.263 66.519V63.089C117.034 62.781 116.782 62.5663 116.507 62.445C116.236 62.319 115.935 62.256 115.604 62.256C114.941 62.256 114.433 62.4917 114.078 62.963C113.723 63.4343 113.546 64.1063 113.546 64.979C113.546 65.441 113.586 65.8377 113.665 66.169C113.744 66.4957 113.861 66.7663 114.015 66.981C114.169 67.191 114.358 67.345 114.582 67.443C114.806 67.541 115.063 67.59 115.352 67.59Z" fill="white"/>
</g>
<g filter="url(#filter1_d)">
<path d="M177 49C177 46.7909 178.791 45 181 45H244C246.209 45 248 46.7909 248 49V77C248 79.2091 246.209 81 244 81H181C178.791 81 177 79.2091 177 77V49Z" fill="#A9D9FB"/>
<path d="M202.352 68.5H200.987V63.936H195.583V68.5H194.218V58.469H195.583V62.942H200.987V58.469H202.352V68.5ZM207.474 61.297C207.992 61.297 208.459 61.3833 208.874 61.556C209.294 61.7287 209.649 61.9737 209.938 62.291C210.232 62.6083 210.456 62.9933 210.61 63.446C210.769 63.894 210.848 64.3957 210.848 64.951C210.848 65.511 210.769 66.015 210.61 66.463C210.456 66.911 210.232 67.2937 209.938 67.611C209.649 67.9283 209.294 68.1733 208.874 68.346C208.459 68.514 207.992 68.598 207.474 68.598C206.956 68.598 206.487 68.514 206.067 68.346C205.652 68.1733 205.297 67.9283 205.003 67.611C204.709 67.2937 204.483 66.911 204.324 66.463C204.165 66.015 204.086 65.511 204.086 64.951C204.086 64.3957 204.165 63.894 204.324 63.446C204.483 62.9933 204.709 62.6083 205.003 62.291C205.297 61.9737 205.652 61.7287 206.067 61.556C206.487 61.3833 206.956 61.297 207.474 61.297ZM207.474 67.625C208.174 67.625 208.697 67.3917 209.042 66.925C209.387 66.4537 209.56 65.798 209.56 64.958C209.56 64.1133 209.387 63.4553 209.042 62.984C208.697 62.5127 208.174 62.277 207.474 62.277C207.119 62.277 206.811 62.3377 206.55 62.459C206.289 62.5803 206.069 62.7553 205.892 62.984C205.719 63.2127 205.589 63.495 205.5 63.831C205.416 64.1623 205.374 64.538 205.374 64.958C205.374 65.378 205.416 65.7537 205.5 66.085C205.589 66.4163 205.719 66.6963 205.892 66.925C206.069 67.149 206.289 67.3217 206.55 67.443C206.811 67.5643 207.119 67.625 207.474 67.625ZM211.31 61.409H212.332C212.43 61.409 212.511 61.4347 212.577 61.486C212.642 61.5373 212.689 61.598 212.717 61.668L214.516 66.232C214.581 66.4 214.632 66.568 214.67 66.736C214.707 66.904 214.742 67.0697 214.775 67.233C214.812 67.0697 214.852 66.904 214.894 66.736C214.936 66.568 214.989 66.4 215.055 66.232L216.875 61.668C216.903 61.5933 216.947 61.5327 217.008 61.486C217.073 61.4347 217.152 61.409 217.246 61.409H218.219L215.328 68.5H214.201L211.31 61.409ZM221.999 61.297C222.424 61.297 222.816 61.3693 223.175 61.514C223.534 61.654 223.845 61.8593 224.106 62.13C224.367 62.396 224.57 62.7273 224.715 63.124C224.864 63.516 224.939 63.964 224.939 64.468C224.939 64.664 224.918 64.7947 224.876 64.86C224.834 64.9253 224.755 64.958 224.638 64.958H219.92C219.929 65.406 219.99 65.7957 220.102 66.127C220.214 66.4583 220.368 66.736 220.564 66.96C220.76 67.1793 220.993 67.345 221.264 67.457C221.535 67.5643 221.838 67.618 222.174 67.618C222.487 67.618 222.755 67.583 222.979 67.513C223.208 67.4383 223.404 67.359 223.567 67.275C223.73 67.191 223.866 67.114 223.973 67.044C224.085 66.9693 224.181 66.932 224.26 66.932C224.363 66.932 224.442 66.9717 224.498 67.051L224.848 67.506C224.694 67.6927 224.51 67.856 224.295 67.996C224.08 68.1313 223.849 68.2433 223.602 68.332C223.359 68.4207 223.107 68.486 222.846 68.528C222.585 68.5747 222.326 68.598 222.069 68.598C221.579 68.598 221.126 68.5163 220.711 68.353C220.3 68.185 219.943 67.9423 219.64 67.625C219.341 67.303 219.108 66.9063 218.94 66.435C218.772 65.9637 218.688 65.4223 218.688 64.811C218.688 64.3163 218.763 63.8543 218.912 63.425C219.066 62.9957 219.285 62.6247 219.57 62.312C219.855 61.9947 220.202 61.7473 220.613 61.57C221.024 61.388 221.486 61.297 221.999 61.297ZM222.027 62.214C221.425 62.214 220.951 62.389 220.606 62.739C220.261 63.0843 220.046 63.565 219.962 64.181H223.819C223.819 63.8917 223.779 63.628 223.7 63.39C223.621 63.1473 223.504 62.9397 223.35 62.767C223.196 62.5897 223.007 62.4543 222.783 62.361C222.564 62.263 222.312 62.214 222.027 62.214ZM226.534 68.5V61.409H227.248C227.383 61.409 227.476 61.4347 227.528 61.486C227.579 61.5373 227.614 61.626 227.633 61.752L227.717 62.858C227.959 62.3633 228.258 61.9783 228.613 61.703C228.972 61.423 229.392 61.283 229.873 61.283C230.069 61.283 230.246 61.3063 230.405 61.353C230.563 61.395 230.71 61.4557 230.846 61.535L230.685 62.466C230.652 62.5827 230.58 62.641 230.468 62.641C230.402 62.641 230.302 62.62 230.167 62.578C230.031 62.5313 229.842 62.508 229.6 62.508C229.166 62.508 228.802 62.634 228.508 62.886C228.218 63.138 227.976 63.5043 227.78 63.985V68.5H226.534Z" fill="white"/>
</g>
<path d="M300 49C300 46.7909 301.791 45 304 45H379C381.209 45 383 46.7909 383 49V77C383 79.2091 381.209 81 379 81H304C301.791 81 300 79.2091 300 77V49Z" fill="#228AD6"/>
<path d="M323.399 58.469V59.575H318.583V63.082H322.699V64.188H318.583V68.5H317.218V58.469H323.399ZM327.33 61.297C327.848 61.297 328.314 61.3833 328.73 61.556C329.15 61.7287 329.504 61.9737 329.794 62.291C330.088 62.6083 330.312 62.9933 330.466 63.446C330.624 63.894 330.704 64.3957 330.704 64.951C330.704 65.511 330.624 66.015 330.466 66.463C330.312 66.911 330.088 67.2937 329.794 67.611C329.504 67.9283 329.15 68.1733 328.73 68.346C328.314 68.514 327.848 68.598 327.33 68.598C326.812 68.598 326.343 68.514 325.923 68.346C325.507 68.1733 325.153 67.9283 324.859 67.611C324.565 67.2937 324.338 66.911 324.18 66.463C324.021 66.015 323.942 65.511 323.942 64.951C323.942 64.3957 324.021 63.894 324.18 63.446C324.338 62.9933 324.565 62.6083 324.859 62.291C325.153 61.9737 325.507 61.7287 325.923 61.556C326.343 61.3833 326.812 61.297 327.33 61.297ZM327.33 67.625C328.03 67.625 328.552 67.3917 328.898 66.925C329.243 66.4537 329.416 65.798 329.416 64.958C329.416 64.1133 329.243 63.4553 328.898 62.984C328.552 62.5127 328.03 62.277 327.33 62.277C326.975 62.277 326.667 62.3377 326.406 62.459C326.144 62.5803 325.925 62.7553 325.748 62.984C325.575 63.2127 325.444 63.495 325.356 63.831C325.272 64.1623 325.23 64.538 325.23 64.958C325.23 65.378 325.272 65.7537 325.356 66.085C325.444 66.4163 325.575 66.6963 325.748 66.925C325.925 67.149 326.144 67.3217 326.406 67.443C326.667 67.5643 326.975 67.625 327.33 67.625ZM337.076 62.669C337.038 62.7203 337.001 62.76 336.964 62.788C336.926 62.816 336.873 62.83 336.803 62.83C336.733 62.83 336.656 62.802 336.572 62.746C336.492 62.6853 336.39 62.62 336.264 62.55C336.138 62.48 335.984 62.417 335.802 62.361C335.624 62.3003 335.405 62.27 335.144 62.27C334.798 62.27 334.493 62.333 334.227 62.459C333.961 62.5803 333.737 62.7577 333.555 62.991C333.377 63.2243 333.242 63.5067 333.149 63.838C333.06 64.1693 333.016 64.5403 333.016 64.951C333.016 65.3803 333.065 65.763 333.163 66.099C333.261 66.4303 333.398 66.7103 333.576 66.939C333.753 67.163 333.968 67.3357 334.22 67.457C334.476 67.5737 334.763 67.632 335.081 67.632C335.384 67.632 335.634 67.597 335.83 67.527C336.026 67.4523 336.189 67.3707 336.32 67.282C336.45 67.1933 336.558 67.114 336.642 67.044C336.726 66.9693 336.81 66.932 336.894 66.932C337.001 66.932 337.08 66.9717 337.132 67.051L337.482 67.506C337.174 67.884 336.789 68.1617 336.327 68.339C335.865 68.5117 335.377 68.598 334.864 68.598C334.42 68.598 334.007 68.5163 333.625 68.353C333.247 68.1897 332.918 67.954 332.638 67.646C332.358 67.3333 332.136 66.9507 331.973 66.498C331.814 66.0453 331.735 65.5297 331.735 64.951C331.735 64.4237 331.807 63.936 331.952 63.488C332.101 63.04 332.316 62.655 332.596 62.333C332.88 62.0063 333.23 61.752 333.646 61.57C334.061 61.388 334.537 61.297 335.074 61.297C335.568 61.297 336.007 61.3787 336.39 61.542C336.772 61.7007 337.111 61.927 337.405 62.221L337.076 62.669ZM339.852 61.409V65.931C339.852 66.4677 339.976 66.883 340.223 67.177C340.47 67.471 340.844 67.618 341.343 67.618C341.707 67.618 342.05 67.5317 342.372 67.359C342.694 67.1863 342.99 66.946 343.261 66.638V61.409H344.507V68.5H343.765C343.588 68.5 343.476 68.4137 343.429 68.241L343.331 67.478C343.023 67.8187 342.678 68.094 342.295 68.304C341.912 68.5093 341.474 68.612 340.979 68.612C340.592 68.612 340.249 68.549 339.95 68.423C339.656 68.2923 339.409 68.1103 339.208 67.877C339.007 67.6437 338.856 67.3613 338.753 67.03C338.655 66.6987 338.606 66.3323 338.606 65.931V61.409H339.852ZM350.613 62.578C350.557 62.6807 350.471 62.732 350.354 62.732C350.284 62.732 350.205 62.7063 350.116 62.655C350.028 62.6037 349.918 62.5477 349.787 62.487C349.661 62.4217 349.51 62.3633 349.332 62.312C349.155 62.256 348.945 62.228 348.702 62.228C348.492 62.228 348.303 62.256 348.135 62.312C347.967 62.3633 347.823 62.4357 347.701 62.529C347.585 62.6223 347.494 62.732 347.428 62.858C347.368 62.9793 347.337 63.1123 347.337 63.257C347.337 63.439 347.389 63.5907 347.491 63.712C347.599 63.8333 347.739 63.9383 347.911 64.027C348.084 64.1157 348.28 64.195 348.499 64.265C348.719 64.3303 348.943 64.4027 349.171 64.482C349.405 64.5567 349.631 64.6407 349.85 64.734C350.07 64.8273 350.266 64.944 350.438 65.084C350.611 65.224 350.749 65.3967 350.851 65.602C350.959 65.8027 351.012 66.0453 351.012 66.33C351.012 66.6567 350.954 66.96 350.837 67.24C350.721 67.5153 350.548 67.7557 350.319 67.961C350.091 68.1617 349.811 68.3203 349.479 68.437C349.148 68.5537 348.765 68.612 348.331 68.612C347.837 68.612 347.389 68.5327 346.987 68.374C346.586 68.2107 346.245 68.003 345.965 67.751L346.259 67.275C346.297 67.2143 346.341 67.1677 346.392 67.135C346.444 67.1023 346.511 67.086 346.595 67.086C346.679 67.086 346.768 67.1187 346.861 67.184C346.955 67.2493 347.067 67.3217 347.197 67.401C347.333 67.4803 347.494 67.5527 347.68 67.618C347.872 67.6833 348.11 67.716 348.394 67.716C348.637 67.716 348.849 67.6857 349.031 67.625C349.213 67.5597 349.365 67.4733 349.486 67.366C349.608 67.2587 349.696 67.135 349.752 66.995C349.813 66.855 349.843 66.7057 349.843 66.547C349.843 66.351 349.79 66.19 349.682 66.064C349.58 65.9333 349.442 65.8237 349.269 65.735C349.097 65.6417 348.898 65.5623 348.674 65.497C348.455 65.427 348.229 65.3547 347.995 65.28C347.767 65.2053 347.54 65.1213 347.316 65.028C347.097 64.93 346.901 64.8087 346.728 64.664C346.556 64.5193 346.416 64.342 346.308 64.132C346.206 63.9173 346.154 63.6583 346.154 63.355C346.154 63.0843 346.21 62.8253 346.322 62.578C346.434 62.326 346.598 62.1067 346.812 61.92C347.027 61.7287 347.291 61.577 347.603 61.465C347.916 61.353 348.273 61.297 348.674 61.297C349.141 61.297 349.559 61.3717 349.927 61.521C350.301 61.6657 350.623 61.8663 350.893 62.123L350.613 62.578ZM355.431 61.297C355.855 61.297 356.247 61.3693 356.607 61.514C356.966 61.654 357.276 61.8593 357.538 62.13C357.799 62.396 358.002 62.7273 358.147 63.124C358.296 63.516 358.371 63.964 358.371 64.468C358.371 64.664 358.35 64.7947 358.308 64.86C358.266 64.9253 358.186 64.958 358.07 64.958H353.352C353.361 65.406 353.422 65.7957 353.534 66.127C353.646 66.4583 353.8 66.736 353.996 66.96C354.192 67.1793 354.425 67.345 354.696 67.457C354.966 67.5643 355.27 67.618 355.606 67.618C355.918 67.618 356.187 67.583 356.411 67.513C356.639 67.4383 356.835 67.359 356.999 67.275C357.162 67.191 357.297 67.114 357.405 67.044C357.517 66.9693 357.612 66.932 357.692 66.932C357.794 66.932 357.874 66.9717 357.93 67.051L358.28 67.506C358.126 67.6927 357.941 67.856 357.727 67.996C357.512 68.1313 357.281 68.2433 357.034 68.332C356.791 68.4207 356.539 68.486 356.278 68.528C356.016 68.5747 355.757 68.598 355.501 68.598C355.011 68.598 354.558 68.5163 354.143 68.353C353.732 68.185 353.375 67.9423 353.072 67.625C352.773 67.303 352.54 66.9063 352.372 66.435C352.204 65.9637 352.12 65.4223 352.12 64.811C352.12 64.3163 352.194 63.8543 352.344 63.425C352.498 62.9957 352.717 62.6247 353.002 62.312C353.286 61.9947 353.634 61.7473 354.045 61.57C354.455 61.388 354.917 61.297 355.431 61.297ZM355.459 62.214C354.857 62.214 354.383 62.389 354.038 62.739C353.692 63.0843 353.478 63.565 353.394 64.181H357.251C357.251 63.8917 357.211 63.628 357.132 63.39C357.052 63.1473 356.936 62.9397 356.782 62.767C356.628 62.5897 356.439 62.4543 356.215 62.361C355.995 62.263 355.743 62.214 355.459 62.214ZM364.956 68.5C364.779 68.5 364.667 68.4137 364.62 68.241L364.508 67.38C364.205 67.7487 363.857 68.045 363.465 68.269C363.078 68.4883 362.632 68.598 362.128 68.598C361.722 68.598 361.354 68.521 361.022 68.367C360.691 68.2083 360.409 67.9773 360.175 67.674C359.942 67.3707 359.762 66.9927 359.636 66.54C359.51 66.0873 359.447 65.567 359.447 64.979C359.447 64.4563 359.517 63.971 359.657 63.523C359.797 63.0703 359.998 62.6783 360.259 62.347C360.525 62.0157 360.847 61.7567 361.225 61.57C361.603 61.3787 362.033 61.283 362.513 61.283C362.947 61.283 363.318 61.3577 363.626 61.507C363.934 61.6517 364.21 61.857 364.452 62.123V58.189H365.698V68.5H364.956ZM362.541 67.59C362.947 67.59 363.302 67.4967 363.605 67.31C363.913 67.1233 364.196 66.8597 364.452 66.519V63.089C364.224 62.781 363.972 62.5663 363.696 62.445C363.426 62.319 363.125 62.256 362.793 62.256C362.131 62.256 361.622 62.4917 361.267 62.963C360.913 63.4343 360.735 64.1063 360.735 64.979C360.735 65.441 360.775 65.8377 360.854 66.169C360.934 66.4957 361.05 66.7663 361.204 66.981C361.358 67.191 361.547 67.345 361.771 67.443C361.995 67.541 362.252 67.59 362.541 67.59Z" fill="white"/>
<path d="M423 49C423 46.7909 424.791 45 427 45H505C507.209 45 509 46.7909 509 49V77C509 79.2091 507.209 81 505 81H427C424.791 81 423 79.2091 423 77V49Z" fill="#E9EAEB"/>
<path d="M448.912 63.488C448.912 64.2393 448.793 64.923 448.555 65.539C448.317 66.155 447.981 66.6823 447.547 67.121C447.113 67.5597 446.593 67.9003 445.986 68.143C445.379 68.381 444.707 68.5 443.97 68.5H440.218V58.469H443.97C444.707 58.469 445.379 58.5903 445.986 58.833C446.593 59.071 447.113 59.4117 447.547 59.855C447.981 60.2937 448.317 60.821 448.555 61.437C448.793 62.053 448.912 62.7367 448.912 63.488ZM447.519 63.488C447.519 62.872 447.435 62.3213 447.267 61.836C447.099 61.3507 446.861 60.94 446.553 60.604C446.245 60.268 445.872 60.0113 445.433 59.834C444.994 59.6567 444.507 59.568 443.97 59.568H441.583V67.401H443.97C444.507 67.401 444.994 67.3123 445.433 67.135C445.872 66.9577 446.245 66.7033 446.553 66.372C446.861 66.036 447.099 65.6253 447.267 65.14C447.435 64.6547 447.519 64.104 447.519 63.488ZM451.949 61.409V68.5H450.703V61.409H451.949ZM452.229 59.183C452.229 59.3043 452.203 59.4187 452.152 59.526C452.105 59.6287 452.04 59.722 451.956 59.806C451.877 59.8853 451.783 59.9483 451.676 59.995C451.569 60.0417 451.454 60.065 451.333 60.065C451.212 60.065 451.097 60.0417 450.99 59.995C450.887 59.9483 450.794 59.8853 450.71 59.806C450.631 59.722 450.568 59.6287 450.521 59.526C450.474 59.4187 450.451 59.3043 450.451 59.183C450.451 59.0617 450.474 58.9473 450.521 58.84C450.568 58.728 450.631 58.6323 450.71 58.553C450.794 58.469 450.887 58.4037 450.99 58.357C451.097 58.3103 451.212 58.287 451.333 58.287C451.454 58.287 451.569 58.3103 451.676 58.357C451.783 58.4037 451.877 58.469 451.956 58.553C452.04 58.6323 452.105 58.728 452.152 58.84C452.203 58.9473 452.229 59.0617 452.229 59.183ZM458.205 62.578C458.149 62.6807 458.063 62.732 457.946 62.732C457.876 62.732 457.797 62.7063 457.708 62.655C457.619 62.6037 457.51 62.5477 457.379 62.487C457.253 62.4217 457.101 62.3633 456.924 62.312C456.747 62.256 456.537 62.228 456.294 62.228C456.084 62.228 455.895 62.256 455.727 62.312C455.559 62.3633 455.414 62.4357 455.293 62.529C455.176 62.6223 455.085 62.732 455.02 62.858C454.959 62.9793 454.929 63.1123 454.929 63.257C454.929 63.439 454.98 63.5907 455.083 63.712C455.19 63.8333 455.33 63.9383 455.503 64.027C455.676 64.1157 455.872 64.195 456.091 64.265C456.31 64.3303 456.534 64.4027 456.763 64.482C456.996 64.5567 457.223 64.6407 457.442 64.734C457.661 64.8273 457.857 64.944 458.03 65.084C458.203 65.224 458.34 65.3967 458.443 65.602C458.55 65.8027 458.604 66.0453 458.604 66.33C458.604 66.6567 458.546 66.96 458.429 67.24C458.312 67.5153 458.14 67.7557 457.911 67.961C457.682 68.1617 457.402 68.3203 457.071 68.437C456.74 68.5537 456.357 68.612 455.923 68.612C455.428 68.612 454.98 68.5327 454.579 68.374C454.178 68.2107 453.837 68.003 453.557 67.751L453.851 67.275C453.888 67.2143 453.933 67.1677 453.984 67.135C454.035 67.1023 454.103 67.086 454.187 67.086C454.271 67.086 454.36 67.1187 454.453 67.184C454.546 67.2493 454.658 67.3217 454.789 67.401C454.924 67.4803 455.085 67.5527 455.272 67.618C455.463 67.6833 455.701 67.716 455.986 67.716C456.229 67.716 456.441 67.6857 456.623 67.625C456.805 67.5597 456.957 67.4733 457.078 67.366C457.199 67.2587 457.288 67.135 457.344 66.995C457.405 66.855 457.435 66.7057 457.435 66.547C457.435 66.351 457.381 66.19 457.274 66.064C457.171 65.9333 457.034 65.8237 456.861 65.735C456.688 65.6417 456.49 65.5623 456.266 65.497C456.047 65.427 455.82 65.3547 455.587 65.28C455.358 65.2053 455.132 65.1213 454.908 65.028C454.689 64.93 454.493 64.8087 454.32 64.664C454.147 64.5193 454.007 64.342 453.9 64.132C453.797 63.9173 453.746 63.6583 453.746 63.355C453.746 63.0843 453.802 62.8253 453.914 62.578C454.026 62.326 454.189 62.1067 454.404 61.92C454.619 61.7287 454.882 61.577 455.195 61.465C455.508 61.353 455.865 61.297 456.266 61.297C456.733 61.297 457.15 61.3717 457.519 61.521C457.892 61.6657 458.214 61.8663 458.485 62.123L458.205 62.578ZM465.423 68.5H464.87C464.749 68.5 464.651 68.4813 464.576 68.444C464.502 68.4067 464.453 68.3273 464.429 68.206L464.289 67.548C464.103 67.716 463.921 67.8677 463.743 68.003C463.566 68.1337 463.379 68.2457 463.183 68.339C462.987 68.4277 462.777 68.4953 462.553 68.542C462.334 68.5887 462.089 68.612 461.818 68.612C461.543 68.612 461.284 68.5747 461.041 68.5C460.803 68.4207 460.596 68.304 460.418 68.15C460.241 67.996 460.099 67.8023 459.991 67.569C459.889 67.331 459.837 67.051 459.837 66.729C459.837 66.449 459.914 66.1807 460.068 65.924C460.222 65.6627 460.47 65.4317 460.81 65.231C461.156 65.0303 461.606 64.867 462.161 64.741C462.717 64.6103 463.396 64.5357 464.198 64.517V63.964C464.198 63.4133 464.079 62.998 463.841 62.718C463.608 62.4333 463.26 62.291 462.798 62.291C462.495 62.291 462.238 62.3307 462.028 62.41C461.823 62.4847 461.643 62.571 461.489 62.669C461.34 62.7623 461.209 62.8487 461.097 62.928C460.99 63.0027 460.883 63.04 460.775 63.04C460.691 63.04 460.617 63.019 460.551 62.977C460.491 62.9303 460.442 62.8743 460.404 62.809L460.18 62.41C460.572 62.032 460.995 61.7497 461.447 61.563C461.9 61.3763 462.402 61.283 462.952 61.283C463.349 61.283 463.701 61.3483 464.009 61.479C464.317 61.6097 464.576 61.7917 464.786 62.025C464.996 62.2583 465.155 62.5407 465.262 62.872C465.37 63.2033 465.423 63.5673 465.423 63.964V68.5ZM462.189 67.737C462.409 67.737 462.609 67.716 462.791 67.674C462.973 67.6273 463.144 67.5643 463.302 67.485C463.466 67.401 463.62 67.3007 463.764 67.184C463.914 67.0673 464.058 66.9343 464.198 66.785V65.308C463.624 65.3267 463.137 65.3733 462.735 65.448C462.334 65.518 462.007 65.6113 461.755 65.728C461.503 65.8447 461.319 65.9823 461.202 66.141C461.09 66.2997 461.034 66.477 461.034 66.673C461.034 66.8597 461.065 67.0207 461.125 67.156C461.186 67.2913 461.268 67.4033 461.37 67.492C461.473 67.576 461.594 67.639 461.734 67.681C461.874 67.7183 462.026 67.737 462.189 67.737ZM467.353 68.5V58.189H468.606V62.431C468.9 62.0903 469.236 61.8173 469.614 61.612C469.997 61.402 470.433 61.297 470.923 61.297C471.334 61.297 471.705 61.374 472.036 61.528C472.367 61.682 472.65 61.913 472.883 62.221C473.116 62.5243 473.296 62.9023 473.422 63.355C473.548 63.803 473.611 64.321 473.611 64.909C473.611 65.4317 473.541 65.9193 473.401 66.372C473.261 66.82 473.058 67.2097 472.792 67.541C472.531 67.8677 472.209 68.1267 471.826 68.318C471.448 68.5047 471.021 68.598 470.545 68.598C470.088 68.598 469.698 68.5093 469.376 68.332C469.059 68.1547 468.781 67.9073 468.543 67.59L468.48 68.234C468.443 68.4113 468.335 68.5 468.158 68.5H467.353ZM470.517 62.291C470.111 62.291 469.754 62.3843 469.446 62.571C469.143 62.7577 468.863 63.0213 468.606 63.362V66.792C468.83 67.1 469.077 67.317 469.348 67.443C469.623 67.569 469.929 67.632 470.265 67.632C470.928 67.632 471.436 67.3963 471.791 66.925C472.146 66.4537 472.323 65.7817 472.323 64.909C472.323 64.447 472.281 64.0503 472.197 63.719C472.118 63.3877 472.001 63.117 471.847 62.907C471.693 62.6923 471.504 62.536 471.28 62.438C471.056 62.34 470.802 62.291 470.517 62.291ZM476.517 58.189V68.5H475.271V58.189H476.517ZM481.52 61.297C481.945 61.297 482.337 61.3693 482.696 61.514C483.056 61.654 483.366 61.8593 483.627 62.13C483.889 62.396 484.092 62.7273 484.236 63.124C484.386 63.516 484.46 63.964 484.46 64.468C484.46 64.664 484.439 64.7947 484.397 64.86C484.355 64.9253 484.276 64.958 484.159 64.958H479.441C479.451 65.406 479.511 65.7957 479.623 66.127C479.735 66.4583 479.889 66.736 480.085 66.96C480.281 67.1793 480.515 67.345 480.785 67.457C481.056 67.5643 481.359 67.618 481.695 67.618C482.008 67.618 482.276 67.583 482.5 67.513C482.729 67.4383 482.925 67.359 483.088 67.275C483.252 67.191 483.387 67.114 483.494 67.044C483.606 66.9693 483.702 66.932 483.781 66.932C483.884 66.932 483.963 66.9717 484.019 67.051L484.369 67.506C484.215 67.6927 484.031 67.856 483.816 67.996C483.602 68.1313 483.371 68.2433 483.123 68.332C482.881 68.4207 482.629 68.486 482.367 68.528C482.106 68.5747 481.847 68.598 481.59 68.598C481.1 68.598 480.648 68.5163 480.232 68.353C479.822 68.185 479.465 67.9423 479.161 67.625C478.863 67.303 478.629 66.9063 478.461 66.435C478.293 65.9637 478.209 65.4223 478.209 64.811C478.209 64.3163 478.284 63.8543 478.433 63.425C478.587 62.9957 478.807 62.6247 479.091 62.312C479.376 61.9947 479.724 61.7473 480.134 61.57C480.545 61.388 481.007 61.297 481.52 61.297ZM481.548 62.214C480.946 62.214 480.473 62.389 480.127 62.739C479.782 63.0843 479.567 63.565 479.483 64.181H483.34C483.34 63.8917 483.301 63.628 483.221 63.39C483.142 63.1473 483.025 62.9397 482.871 62.767C482.717 62.5897 482.528 62.4543 482.304 62.361C482.085 62.263 481.833 62.214 481.548 62.214ZM491.046 68.5C490.869 68.5 490.757 68.4137 490.71 68.241L490.598 67.38C490.295 67.7487 489.947 68.045 489.555 68.269C489.168 68.4883 488.722 68.598 488.218 68.598C487.812 68.598 487.444 68.521 487.112 68.367C486.781 68.2083 486.499 67.9773 486.265 67.674C486.032 67.3707 485.852 66.9927 485.726 66.54C485.6 66.0873 485.537 65.567 485.537 64.979C485.537 64.4563 485.607 63.971 485.747 63.523C485.887 63.0703 486.088 62.6783 486.349 62.347C486.615 62.0157 486.937 61.7567 487.315 61.57C487.693 61.3787 488.123 61.283 488.603 61.283C489.037 61.283 489.408 61.3577 489.716 61.507C490.024 61.6517 490.3 61.857 490.542 62.123V58.189H491.788V68.5H491.046ZM488.631 67.59C489.037 67.59 489.392 67.4967 489.695 67.31C490.003 67.1233 490.286 66.8597 490.542 66.519V63.089C490.314 62.781 490.062 62.5663 489.786 62.445C489.516 62.319 489.215 62.256 488.883 62.256C488.221 62.256 487.712 62.4917 487.357 62.963C487.003 63.4343 486.825 64.1063 486.825 64.979C486.825 65.441 486.865 65.8377 486.944 66.169C487.024 66.4957 487.14 66.7663 487.294 66.981C487.448 67.191 487.637 67.345 487.861 67.443C488.085 67.541 488.342 67.59 488.631 67.59Z" fill="#D8D8D8"/>
<defs>
<filter id="filter0_d" x="52" y="44" width="86" height="40" filterUnits="userSpaceOnUse" color-interpolation-filters="sRGB">
<feFlood flood-opacity="0" result="BackgroundImageFix"/>
<feColorMatrix in="SourceAlpha" type="matrix" values="0 0 0 0 0 0 0 0 0 0 0 0 0 0 0 0 0 0 127 0"/>
<feOffset dy="1"/>
<feGaussianBlur stdDeviation="1"/>
<feColorMatrix type="matrix" values="0 0 0 0 0 0 0 0 0 0 0 0 0 0 0 0 0 0 0.5 0"/>
<feBlend mode="normal" in2="BackgroundImageFix" result="effect1_dropShadow"/>
<feBlend mode="normal" in="SourceGraphic" in2="effect1_dropShadow" result="shape"/>
</filter>
<filter id="filter1_d" x="175" y="44" width="75" height="40" filterUnits="userSpaceOnUse" color-interpolation-filters="sRGB">
<feFlood flood-opacity="0" result="BackgroundImageFix"/>
<feColorMatrix in="SourceAlpha" type="matrix" values="0 0 0 0 0 0 0 0 0 0 0 0 0 0 0 0 0 0 127 0"/>
<feOffset dy="1"/>
<feGaussianBlur stdDeviation="1"/>
<feColorMatrix type="matrix" values="0 0 0 0 0 0 0 0 0 0 0 0 0 0 0 0 0 0 0.5 0"/>
<feBlend mode="normal" in2="BackgroundImageFix" result="effect1_dropShadow"/>
<feBlend mode="normal" in="SourceGraphic" in2="effect1_dropShadow" result="shape"/>
</filter>
</defs>
</svg>
