<svg width="1000" height="103" viewBox="0 0 1000 103" fill="none" xmlns="http://www.w3.org/2000/svg">
<rect width="1000" height="103" fill="white"/>
<path d="M75.399 45.969V47.075H70.583V50.407H74.482V51.471H70.583V54.894H75.399V56H69.218V45.969H75.399ZM77.1568 56V48.909H77.8988C78.0761 48.909 78.1881 48.9953 78.2348 49.168L78.3328 49.938C78.6408 49.5973 78.9838 49.322 79.3618 49.112C79.7444 48.902 80.1854 48.797 80.6848 48.797C81.0721 48.797 81.4128 48.8623 81.7068 48.993C82.0054 49.119 82.2528 49.301 82.4488 49.539C82.6494 49.7723 82.8011 50.0547 82.9038 50.386C83.0064 50.7173 83.0578 51.0837 83.0578 51.485V56H81.8118V51.485C81.8118 50.9483 81.6881 50.533 81.4408 50.239C81.1981 49.9403 80.8248 49.791 80.3208 49.791C79.9521 49.791 79.6068 49.8797 79.2848 50.057C78.9674 50.2343 78.6734 50.4747 78.4028 50.778V56H77.1568ZM90.1441 56H89.5911C89.4697 56 89.3717 55.9813 89.2971 55.944C89.2224 55.9067 89.1734 55.8273 89.1501 55.706L89.0101 55.048C88.8234 55.216 88.6414 55.3677 88.4641 55.503C88.2867 55.6337 88.1001 55.7457 87.9041 55.839C87.7081 55.9277 87.4981 55.9953 87.2741 56.042C87.0547 56.0887 86.8097 56.112 86.5391 56.112C86.2637 56.112 86.0047 56.0747 85.7621 56C85.5241 55.9207 85.3164 55.804 85.1391 55.65C84.9617 55.496 84.8194 55.3023 84.7121 55.069C84.6094 54.831 84.5581 54.551 84.5581 54.229C84.5581 53.949 84.6351 53.6807 84.7891 53.424C84.9431 53.1627 85.1904 52.9317 85.5311 52.731C85.8764 52.5303 86.3267 52.367 86.8821 52.241C87.4374 52.1103 88.1164 52.0357 88.9191 52.017V51.464C88.9191 50.9133 88.8001 50.498 88.5621 50.218C88.3287 49.9333 87.9811 49.791 87.5191 49.791C87.2157 49.791 86.9591 49.8307 86.7491 49.91C86.5437 49.9847 86.3641 50.071 86.2101 50.169C86.0607 50.2623 85.9301 50.3487 85.8181 50.428C85.7107 50.5027 85.6034 50.54 85.4961 50.54C85.4121 50.54 85.3374 50.519 85.2721 50.477C85.2114 50.4303 85.1624 50.3743 85.1251 50.309L84.9011 49.91C85.2931 49.532 85.7154 49.2497 86.1681 49.063C86.6207 48.8763 87.1224 48.783 87.6731 48.783C88.0697 48.783 88.4221 48.8483 88.7301 48.979C89.0381 49.1097 89.2971 49.2917 89.5071 49.525C89.7171 49.7583 89.8757 50.0407 89.9831 50.372C90.0904 50.7033 90.1441 51.0673 90.1441 51.464V56ZM86.9101 55.237C87.1294 55.237 87.3301 55.216 87.5121 55.174C87.6941 55.1273 87.8644 55.0643 88.0231 54.985C88.1864 54.901 88.3404 54.8007 88.4851 54.684C88.6344 54.5673 88.7791 54.4343 88.9191 54.285V52.808C88.3451 52.8267 87.8574 52.8733 87.4561 52.948C87.0547 53.018 86.7281 53.1113 86.4761 53.228C86.2241 53.3447 86.0397 53.4823 85.9231 53.641C85.8111 53.7997 85.7551 53.977 85.7551 54.173C85.7551 54.3597 85.7854 54.5207 85.8461 54.656C85.9067 54.7913 85.9884 54.9033 86.0911 54.992C86.1937 55.076 86.3151 55.139 86.4551 55.181C86.5951 55.2183 86.7467 55.237 86.9101 55.237ZM92.0738 56V45.689H93.3268V49.931C93.6208 49.5903 93.9568 49.3173 94.3348 49.112C94.7174 48.902 95.1538 48.797 95.6438 48.797C96.0544 48.797 96.4254 48.874 96.7568 49.028C97.0881 49.182 97.3704 49.413 97.6038 49.721C97.8371 50.0243 98.0168 50.4023 98.1428 50.855C98.2688 51.303 98.3318 51.821 98.3318 52.409C98.3318 52.9317 98.2618 53.4193 98.1218 53.872C97.9818 54.32 97.7788 54.7097 97.5128 55.041C97.2514 55.3677 96.9294 55.6267 96.5468 55.818C96.1688 56.0047 95.7418 56.098 95.2658 56.098C94.8084 56.098 94.4188 56.0093 94.0968 55.832C93.7794 55.6547 93.5018 55.4073 93.2638 55.09L93.2008 55.734C93.1634 55.9113 93.0561 56 92.8788 56H92.0738ZM95.2378 49.791C94.8318 49.791 94.4748 49.8843 94.1668 50.071C93.8634 50.2577 93.5834 50.5213 93.3268 50.862V54.292C93.5508 54.6 93.7981 54.817 94.0688 54.943C94.3441 55.069 94.6498 55.132 94.9858 55.132C95.6484 55.132 96.1571 54.8963 96.5118 54.425C96.8664 53.9537 97.0438 53.2817 97.0438 52.409C97.0438 51.947 97.0018 51.5503 96.9178 51.219C96.8384 50.8877 96.7218 50.617 96.5678 50.407C96.4138 50.1923 96.2248 50.036 96.0008 49.938C95.7768 49.84 95.5224 49.791 95.2378 49.791ZM101.238 45.689V56H99.9921V45.689H101.238ZM106.241 48.797C106.666 48.797 107.058 48.8693 107.417 49.014C107.776 49.154 108.087 49.3593 108.348 49.63C108.609 49.896 108.812 50.2273 108.957 50.624C109.106 51.016 109.181 51.464 109.181 51.968C109.181 52.164 109.16 52.2947 109.118 52.36C109.076 52.4253 108.997 52.458 108.88 52.458H104.162C104.171 52.906 104.232 53.2957 104.344 53.627C104.456 53.9583 104.61 54.236 104.806 54.46C105.002 54.6793 105.235 54.845 105.506 54.957C105.777 55.0643 106.08 55.118 106.416 55.118C106.729 55.118 106.997 55.083 107.221 55.013C107.45 54.9383 107.646 54.859 107.809 54.775C107.972 54.691 108.108 54.614 108.215 54.544C108.327 54.4693 108.423 54.432 108.502 54.432C108.605 54.432 108.684 54.4717 108.74 54.551L109.09 55.006C108.936 55.1927 108.752 55.356 108.537 55.496C108.322 55.6313 108.091 55.7433 107.844 55.832C107.601 55.9207 107.349 55.986 107.088 56.028C106.827 56.0747 106.568 56.098 106.311 56.098C105.821 56.098 105.368 56.0163 104.953 55.853C104.542 55.685 104.185 55.4423 103.882 55.125C103.583 54.803 103.35 54.4063 103.182 53.935C103.014 53.4637 102.93 52.9223 102.93 52.311C102.93 51.8163 103.005 51.3543 103.154 50.925C103.308 50.4957 103.527 50.1247 103.812 49.812C104.097 49.4947 104.444 49.2473 104.855 49.07C105.266 48.888 105.728 48.797 106.241 48.797ZM106.269 49.714C105.667 49.714 105.193 49.889 104.848 50.239C104.503 50.5843 104.288 51.065 104.204 51.681H108.061C108.061 51.3917 108.021 51.128 107.942 50.89C107.863 50.6473 107.746 50.4397 107.592 50.267C107.438 50.0897 107.249 49.9543 107.025 49.861C106.806 49.763 106.554 49.714 106.269 49.714ZM115.767 56C115.59 56 115.478 55.9137 115.431 55.741L115.319 54.88C115.016 55.2487 114.668 55.545 114.276 55.769C113.889 55.9883 113.443 56.098 112.939 56.098C112.533 56.098 112.164 56.021 111.833 55.867C111.502 55.7083 111.219 55.4773 110.986 55.174C110.753 54.8707 110.573 54.4927 110.447 54.04C110.321 53.5873 110.258 53.067 110.258 52.479C110.258 51.9563 110.328 51.471 110.468 51.023C110.608 50.5703 110.809 50.1783 111.07 49.847C111.336 49.5157 111.658 49.2567 112.036 49.07C112.414 48.8787 112.843 48.783 113.324 48.783C113.758 48.783 114.129 48.8577 114.437 49.007C114.745 49.1517 115.02 49.357 115.263 49.623V45.689H116.509V56H115.767ZM113.352 55.09C113.758 55.09 114.113 54.9967 114.416 54.81C114.724 54.6233 115.006 54.3597 115.263 54.019V50.589C115.034 50.281 114.782 50.0663 114.507 49.945C114.236 49.819 113.935 49.756 113.604 49.756C112.941 49.756 112.433 49.9917 112.078 50.463C111.723 50.9343 111.546 51.6063 111.546 52.479C111.546 52.941 111.586 53.3377 111.665 53.669C111.744 53.9957 111.861 54.2663 112.015 54.481C112.169 54.691 112.358 54.845 112.582 54.943C112.806 55.041 113.063 55.09 113.352 55.09Z" fill="#279FF6"/>
<path d="M200.352 56H198.987V51.436H193.583V56H192.218V45.969H193.583V50.442H198.987V45.969H200.352V56ZM205.474 48.797C205.992 48.797 206.459 48.8833 206.874 49.056C207.294 49.2287 207.649 49.4737 207.938 49.791C208.232 50.1083 208.456 50.4933 208.61 50.946C208.769 51.394 208.848 51.8957 208.848 52.451C208.848 53.011 208.769 53.515 208.61 53.963C208.456 54.411 208.232 54.7937 207.938 55.111C207.649 55.4283 207.294 55.6733 206.874 55.846C206.459 56.014 205.992 56.098 205.474 56.098C204.956 56.098 204.487 56.014 204.067 55.846C203.652 55.6733 203.297 55.4283 203.003 55.111C202.709 54.7937 202.483 54.411 202.324 53.963C202.165 53.515 202.086 53.011 202.086 52.451C202.086 51.8957 202.165 51.394 202.324 50.946C202.483 50.4933 202.709 50.1083 203.003 49.791C203.297 49.4737 203.652 49.2287 204.067 49.056C204.487 48.8833 204.956 48.797 205.474 48.797ZM205.474 55.125C206.174 55.125 206.697 54.8917 207.042 54.425C207.387 53.9537 207.56 53.298 207.56 52.458C207.56 51.6133 207.387 50.9553 207.042 50.484C206.697 50.0127 206.174 49.777 205.474 49.777C205.119 49.777 204.811 49.8377 204.55 49.959C204.289 50.0803 204.069 50.2553 203.892 50.484C203.719 50.7127 203.589 50.995 203.5 51.331C203.416 51.6623 203.374 52.038 203.374 52.458C203.374 52.878 203.416 53.2537 203.5 53.585C203.589 53.9163 203.719 54.1963 203.892 54.425C204.069 54.649 204.289 54.8217 204.55 54.943C204.811 55.0643 205.119 55.125 205.474 55.125ZM209.31 48.909H210.332C210.43 48.909 210.511 48.9347 210.577 48.986C210.642 49.0373 210.689 49.098 210.717 49.168L212.516 53.732C212.581 53.9 212.632 54.068 212.67 54.236C212.707 54.404 212.742 54.5697 212.775 54.733C212.812 54.5697 212.852 54.404 212.894 54.236C212.936 54.068 212.989 53.9 213.055 53.732L214.875 49.168C214.903 49.0933 214.947 49.0327 215.008 48.986C215.073 48.9347 215.152 48.909 215.246 48.909H216.219L213.328 56H212.201L209.31 48.909ZM219.999 48.797C220.424 48.797 220.816 48.8693 221.175 49.014C221.534 49.154 221.845 49.3593 222.106 49.63C222.367 49.896 222.57 50.2273 222.715 50.624C222.864 51.016 222.939 51.464 222.939 51.968C222.939 52.164 222.918 52.2947 222.876 52.36C222.834 52.4253 222.755 52.458 222.638 52.458H217.92C217.929 52.906 217.99 53.2957 218.102 53.627C218.214 53.9583 218.368 54.236 218.564 54.46C218.76 54.6793 218.993 54.845 219.264 54.957C219.535 55.0643 219.838 55.118 220.174 55.118C220.487 55.118 220.755 55.083 220.979 55.013C221.208 54.9383 221.404 54.859 221.567 54.775C221.73 54.691 221.866 54.614 221.973 54.544C222.085 54.4693 222.181 54.432 222.26 54.432C222.363 54.432 222.442 54.4717 222.498 54.551L222.848 55.006C222.694 55.1927 222.51 55.356 222.295 55.496C222.08 55.6313 221.849 55.7433 221.602 55.832C221.359 55.9207 221.107 55.986 220.846 56.028C220.585 56.0747 220.326 56.098 220.069 56.098C219.579 56.098 219.126 56.0163 218.711 55.853C218.3 55.685 217.943 55.4423 217.64 55.125C217.341 54.803 217.108 54.4063 216.94 53.935C216.772 53.4637 216.688 52.9223 216.688 52.311C216.688 51.8163 216.763 51.3543 216.912 50.925C217.066 50.4957 217.285 50.1247 217.57 49.812C217.855 49.4947 218.202 49.2473 218.613 49.07C219.024 48.888 219.486 48.797 219.999 48.797ZM220.027 49.714C219.425 49.714 218.951 49.889 218.606 50.239C218.261 50.5843 218.046 51.065 217.962 51.681H221.819C221.819 51.3917 221.779 51.128 221.7 50.89C221.621 50.6473 221.504 50.4397 221.35 50.267C221.196 50.0897 221.007 49.9543 220.783 49.861C220.564 49.763 220.312 49.714 220.027 49.714ZM224.534 56V48.909H225.248C225.383 48.909 225.476 48.9347 225.528 48.986C225.579 49.0373 225.614 49.126 225.633 49.252L225.717 50.358C225.959 49.8633 226.258 49.4783 226.613 49.203C226.972 48.923 227.392 48.783 227.873 48.783C228.069 48.783 228.246 48.8063 228.405 48.853C228.563 48.895 228.71 48.9557 228.846 49.035L228.685 49.966C228.652 50.0827 228.58 50.141 228.468 50.141C228.402 50.141 228.302 50.12 228.167 50.078C228.031 50.0313 227.842 50.008 227.6 50.008C227.166 50.008 226.802 50.134 226.508 50.386C226.218 50.638 225.976 51.0043 225.78 51.485V56H224.534Z" fill="#A9D9FB"/>
<path d="M324.399 45.969V47.075H319.583V50.582H323.699V51.688H319.583V56H318.218V45.969H324.399ZM328.33 48.797C328.848 48.797 329.314 48.8833 329.73 49.056C330.15 49.2287 330.504 49.4737 330.794 49.791C331.088 50.1083 331.312 50.4933 331.466 50.946C331.624 51.394 331.704 51.8957 331.704 52.451C331.704 53.011 331.624 53.515 331.466 53.963C331.312 54.411 331.088 54.7937 330.794 55.111C330.504 55.4283 330.15 55.6733 329.73 55.846C329.314 56.014 328.848 56.098 328.33 56.098C327.812 56.098 327.343 56.014 326.923 55.846C326.507 55.6733 326.153 55.4283 325.859 55.111C325.565 54.7937 325.338 54.411 325.18 53.963C325.021 53.515 324.942 53.011 324.942 52.451C324.942 51.8957 325.021 51.394 325.18 50.946C325.338 50.4933 325.565 50.1083 325.859 49.791C326.153 49.4737 326.507 49.2287 326.923 49.056C327.343 48.8833 327.812 48.797 328.33 48.797ZM328.33 55.125C329.03 55.125 329.552 54.8917 329.898 54.425C330.243 53.9537 330.416 53.298 330.416 52.458C330.416 51.6133 330.243 50.9553 329.898 50.484C329.552 50.0127 329.03 49.777 328.33 49.777C327.975 49.777 327.667 49.8377 327.406 49.959C327.144 50.0803 326.925 50.2553 326.748 50.484C326.575 50.7127 326.444 50.995 326.356 51.331C326.272 51.6623 326.23 52.038 326.23 52.458C326.23 52.878 326.272 53.2537 326.356 53.585C326.444 53.9163 326.575 54.1963 326.748 54.425C326.925 54.649 327.144 54.8217 327.406 54.943C327.667 55.0643 327.975 55.125 328.33 55.125ZM338.076 50.169C338.038 50.2203 338.001 50.26 337.964 50.288C337.926 50.316 337.873 50.33 337.803 50.33C337.733 50.33 337.656 50.302 337.572 50.246C337.492 50.1853 337.39 50.12 337.264 50.05C337.138 49.98 336.984 49.917 336.802 49.861C336.624 49.8003 336.405 49.77 336.144 49.77C335.798 49.77 335.493 49.833 335.227 49.959C334.961 50.0803 334.737 50.2577 334.555 50.491C334.377 50.7243 334.242 51.0067 334.149 51.338C334.06 51.6693 334.016 52.0403 334.016 52.451C334.016 52.8803 334.065 53.263 334.163 53.599C334.261 53.9303 334.398 54.2103 334.576 54.439C334.753 54.663 334.968 54.8357 335.22 54.957C335.476 55.0737 335.763 55.132 336.081 55.132C336.384 55.132 336.634 55.097 336.83 55.027C337.026 54.9523 337.189 54.8707 337.32 54.782C337.45 54.6933 337.558 54.614 337.642 54.544C337.726 54.4693 337.81 54.432 337.894 54.432C338.001 54.432 338.08 54.4717 338.132 54.551L338.482 55.006C338.174 55.384 337.789 55.6617 337.327 55.839C336.865 56.0117 336.377 56.098 335.864 56.098C335.42 56.098 335.007 56.0163 334.625 55.853C334.247 55.6897 333.918 55.454 333.638 55.146C333.358 54.8333 333.136 54.4507 332.973 53.998C332.814 53.5453 332.735 53.0297 332.735 52.451C332.735 51.9237 332.807 51.436 332.952 50.988C333.101 50.54 333.316 50.155 333.596 49.833C333.88 49.5063 334.23 49.252 334.646 49.07C335.061 48.888 335.537 48.797 336.074 48.797C336.568 48.797 337.007 48.8787 337.39 49.042C337.772 49.2007 338.111 49.427 338.405 49.721L338.076 50.169ZM340.852 48.909V53.431C340.852 53.9677 340.976 54.383 341.223 54.677C341.47 54.971 341.844 55.118 342.343 55.118C342.707 55.118 343.05 55.0317 343.372 54.859C343.694 54.6863 343.99 54.446 344.261 54.138V48.909H345.507V56H344.765C344.588 56 344.476 55.9137 344.429 55.741L344.331 54.978C344.023 55.3187 343.678 55.594 343.295 55.804C342.912 56.0093 342.474 56.112 341.979 56.112C341.592 56.112 341.249 56.049 340.95 55.923C340.656 55.7923 340.409 55.6103 340.208 55.377C340.007 55.1437 339.856 54.8613 339.753 54.53C339.655 54.1987 339.606 53.8323 339.606 53.431V48.909H340.852ZM351.613 50.078C351.557 50.1807 351.471 50.232 351.354 50.232C351.284 50.232 351.205 50.2063 351.116 50.155C351.028 50.1037 350.918 50.0477 350.787 49.987C350.661 49.9217 350.51 49.8633 350.332 49.812C350.155 49.756 349.945 49.728 349.702 49.728C349.492 49.728 349.303 49.756 349.135 49.812C348.967 49.8633 348.823 49.9357 348.701 50.029C348.585 50.1223 348.494 50.232 348.428 50.358C348.368 50.4793 348.337 50.6123 348.337 50.757C348.337 50.939 348.389 51.0907 348.491 51.212C348.599 51.3333 348.739 51.4383 348.911 51.527C349.084 51.6157 349.28 51.695 349.499 51.765C349.719 51.8303 349.943 51.9027 350.171 51.982C350.405 52.0567 350.631 52.1407 350.85 52.234C351.07 52.3273 351.266 52.444 351.438 52.584C351.611 52.724 351.749 52.8967 351.851 53.102C351.959 53.3027 352.012 53.5453 352.012 53.83C352.012 54.1567 351.954 54.46 351.837 54.74C351.721 55.0153 351.548 55.2557 351.319 55.461C351.091 55.6617 350.811 55.8203 350.479 55.937C350.148 56.0537 349.765 56.112 349.331 56.112C348.837 56.112 348.389 56.0327 347.987 55.874C347.586 55.7107 347.245 55.503 346.965 55.251L347.259 54.775C347.297 54.7143 347.341 54.6677 347.392 54.635C347.444 54.6023 347.511 54.586 347.595 54.586C347.679 54.586 347.768 54.6187 347.861 54.684C347.955 54.7493 348.067 54.8217 348.197 54.901C348.333 54.9803 348.494 55.0527 348.68 55.118C348.872 55.1833 349.11 55.216 349.394 55.216C349.637 55.216 349.849 55.1857 350.031 55.125C350.213 55.0597 350.365 54.9733 350.486 54.866C350.608 54.7587 350.696 54.635 350.752 54.495C350.813 54.355 350.843 54.2057 350.843 54.047C350.843 53.851 350.79 53.69 350.682 53.564C350.58 53.4333 350.442 53.3237 350.269 53.235C350.097 53.1417 349.898 53.0623 349.674 52.997C349.455 52.927 349.229 52.8547 348.995 52.78C348.767 52.7053 348.54 52.6213 348.316 52.528C348.097 52.43 347.901 52.3087 347.728 52.164C347.556 52.0193 347.416 51.842 347.308 51.632C347.206 51.4173 347.154 51.1583 347.154 50.855C347.154 50.5843 347.21 50.3253 347.322 50.078C347.434 49.826 347.598 49.6067 347.812 49.42C348.027 49.2287 348.291 49.077 348.603 48.965C348.916 48.853 349.273 48.797 349.674 48.797C350.141 48.797 350.559 48.8717 350.927 49.021C351.301 49.1657 351.623 49.3663 351.893 49.623L351.613 50.078ZM356.431 48.797C356.855 48.797 357.247 48.8693 357.607 49.014C357.966 49.154 358.276 49.3593 358.538 49.63C358.799 49.896 359.002 50.2273 359.147 50.624C359.296 51.016 359.371 51.464 359.371 51.968C359.371 52.164 359.35 52.2947 359.308 52.36C359.266 52.4253 359.186 52.458 359.07 52.458H354.352C354.361 52.906 354.422 53.2957 354.534 53.627C354.646 53.9583 354.8 54.236 354.996 54.46C355.192 54.6793 355.425 54.845 355.696 54.957C355.966 55.0643 356.27 55.118 356.606 55.118C356.918 55.118 357.187 55.083 357.411 55.013C357.639 54.9383 357.835 54.859 357.999 54.775C358.162 54.691 358.297 54.614 358.405 54.544C358.517 54.4693 358.612 54.432 358.692 54.432C358.794 54.432 358.874 54.4717 358.93 54.551L359.28 55.006C359.126 55.1927 358.941 55.356 358.727 55.496C358.512 55.6313 358.281 55.7433 358.034 55.832C357.791 55.9207 357.539 55.986 357.278 56.028C357.016 56.0747 356.757 56.098 356.501 56.098C356.011 56.098 355.558 56.0163 355.143 55.853C354.732 55.685 354.375 55.4423 354.072 55.125C353.773 54.803 353.54 54.4063 353.372 53.935C353.204 53.4637 353.12 52.9223 353.12 52.311C353.12 51.8163 353.194 51.3543 353.344 50.925C353.498 50.4957 353.717 50.1247 354.002 49.812C354.286 49.4947 354.634 49.2473 355.045 49.07C355.455 48.888 355.917 48.797 356.431 48.797ZM356.459 49.714C355.857 49.714 355.383 49.889 355.038 50.239C354.692 50.5843 354.478 51.065 354.394 51.681H358.251C358.251 51.3917 358.211 51.128 358.132 50.89C358.052 50.6473 357.936 50.4397 357.782 50.267C357.628 50.0897 357.439 49.9543 357.215 49.861C356.995 49.763 356.743 49.714 356.459 49.714ZM365.956 56C365.779 56 365.667 55.9137 365.62 55.741L365.508 54.88C365.205 55.2487 364.857 55.545 364.465 55.769C364.078 55.9883 363.632 56.098 363.128 56.098C362.722 56.098 362.354 56.021 362.022 55.867C361.691 55.7083 361.409 55.4773 361.175 55.174C360.942 54.8707 360.762 54.4927 360.636 54.04C360.51 53.5873 360.447 53.067 360.447 52.479C360.447 51.9563 360.517 51.471 360.657 51.023C360.797 50.5703 360.998 50.1783 361.259 49.847C361.525 49.5157 361.847 49.2567 362.225 49.07C362.603 48.8787 363.033 48.783 363.513 48.783C363.947 48.783 364.318 48.8577 364.626 49.007C364.934 49.1517 365.21 49.357 365.452 49.623V45.689H366.698V56H365.956ZM363.541 55.09C363.947 55.09 364.302 54.9967 364.605 54.81C364.913 54.6233 365.196 54.3597 365.452 54.019V50.589C365.224 50.281 364.972 50.0663 364.696 49.945C364.426 49.819 364.125 49.756 363.793 49.756C363.131 49.756 362.622 49.9917 362.267 50.463C361.913 50.9343 361.735 51.6063 361.735 52.479C361.735 52.941 361.775 53.3377 361.854 53.669C361.934 53.9957 362.05 54.2663 362.204 54.481C362.358 54.691 362.547 54.845 362.771 54.943C362.995 55.041 363.252 55.09 363.541 55.09Z" fill="#228AD6"/>
<path d="M451.912 50.988C451.912 51.7393 451.793 52.423 451.555 53.039C451.317 53.655 450.981 54.1823 450.547 54.621C450.113 55.0597 449.593 55.4003 448.986 55.643C448.379 55.881 447.707 56 446.97 56H443.218V45.969H446.97C447.707 45.969 448.379 46.0903 448.986 46.333C449.593 46.571 450.113 46.9117 450.547 47.355C450.981 47.7937 451.317 48.321 451.555 48.937C451.793 49.553 451.912 50.2367 451.912 50.988ZM450.519 50.988C450.519 50.372 450.435 49.8213 450.267 49.336C450.099 48.8507 449.861 48.44 449.553 48.104C449.245 47.768 448.872 47.5113 448.433 47.334C447.994 47.1567 447.507 47.068 446.97 47.068H444.583V54.901H446.97C447.507 54.901 447.994 54.8123 448.433 54.635C448.872 54.4577 449.245 54.2033 449.553 53.872C449.861 53.536 450.099 53.1253 450.267 52.64C450.435 52.1547 450.519 51.604 450.519 50.988ZM454.949 48.909V56H453.703V48.909H454.949ZM455.229 46.683C455.229 46.8043 455.203 46.9187 455.152 47.026C455.105 47.1287 455.04 47.222 454.956 47.306C454.877 47.3853 454.783 47.4483 454.676 47.495C454.569 47.5417 454.454 47.565 454.333 47.565C454.212 47.565 454.097 47.5417 453.99 47.495C453.887 47.4483 453.794 47.3853 453.71 47.306C453.631 47.222 453.568 47.1287 453.521 47.026C453.474 46.9187 453.451 46.8043 453.451 46.683C453.451 46.5617 453.474 46.4473 453.521 46.34C453.568 46.228 453.631 46.1323 453.71 46.053C453.794 45.969 453.887 45.9037 453.99 45.857C454.097 45.8103 454.212 45.787 454.333 45.787C454.454 45.787 454.569 45.8103 454.676 45.857C454.783 45.9037 454.877 45.969 454.956 46.053C455.04 46.1323 455.105 46.228 455.152 46.34C455.203 46.4473 455.229 46.5617 455.229 46.683ZM461.205 50.078C461.149 50.1807 461.063 50.232 460.946 50.232C460.876 50.232 460.797 50.2063 460.708 50.155C460.619 50.1037 460.51 50.0477 460.379 49.987C460.253 49.9217 460.101 49.8633 459.924 49.812C459.747 49.756 459.537 49.728 459.294 49.728C459.084 49.728 458.895 49.756 458.727 49.812C458.559 49.8633 458.414 49.9357 458.293 50.029C458.176 50.1223 458.085 50.232 458.02 50.358C457.959 50.4793 457.929 50.6123 457.929 50.757C457.929 50.939 457.98 51.0907 458.083 51.212C458.19 51.3333 458.33 51.4383 458.503 51.527C458.676 51.6157 458.872 51.695 459.091 51.765C459.31 51.8303 459.534 51.9027 459.763 51.982C459.996 52.0567 460.223 52.1407 460.442 52.234C460.661 52.3273 460.857 52.444 461.03 52.584C461.203 52.724 461.34 52.8967 461.443 53.102C461.55 53.3027 461.604 53.5453 461.604 53.83C461.604 54.1567 461.546 54.46 461.429 54.74C461.312 55.0153 461.14 55.2557 460.911 55.461C460.682 55.6617 460.402 55.8203 460.071 55.937C459.74 56.0537 459.357 56.112 458.923 56.112C458.428 56.112 457.98 56.0327 457.579 55.874C457.178 55.7107 456.837 55.503 456.557 55.251L456.851 54.775C456.888 54.7143 456.933 54.6677 456.984 54.635C457.035 54.6023 457.103 54.586 457.187 54.586C457.271 54.586 457.36 54.6187 457.453 54.684C457.546 54.7493 457.658 54.8217 457.789 54.901C457.924 54.9803 458.085 55.0527 458.272 55.118C458.463 55.1833 458.701 55.216 458.986 55.216C459.229 55.216 459.441 55.1857 459.623 55.125C459.805 55.0597 459.957 54.9733 460.078 54.866C460.199 54.7587 460.288 54.635 460.344 54.495C460.405 54.355 460.435 54.2057 460.435 54.047C460.435 53.851 460.381 53.69 460.274 53.564C460.171 53.4333 460.034 53.3237 459.861 53.235C459.688 53.1417 459.49 53.0623 459.266 52.997C459.047 52.927 458.82 52.8547 458.587 52.78C458.358 52.7053 458.132 52.6213 457.908 52.528C457.689 52.43 457.493 52.3087 457.32 52.164C457.147 52.0193 457.007 51.842 456.9 51.632C456.797 51.4173 456.746 51.1583 456.746 50.855C456.746 50.5843 456.802 50.3253 456.914 50.078C457.026 49.826 457.189 49.6067 457.404 49.42C457.619 49.2287 457.882 49.077 458.195 48.965C458.508 48.853 458.865 48.797 459.266 48.797C459.733 48.797 460.15 48.8717 460.519 49.021C460.892 49.1657 461.214 49.3663 461.485 49.623L461.205 50.078ZM468.423 56H467.87C467.749 56 467.651 55.9813 467.576 55.944C467.502 55.9067 467.453 55.8273 467.429 55.706L467.289 55.048C467.103 55.216 466.921 55.3677 466.743 55.503C466.566 55.6337 466.379 55.7457 466.183 55.839C465.987 55.9277 465.777 55.9953 465.553 56.042C465.334 56.0887 465.089 56.112 464.818 56.112C464.543 56.112 464.284 56.0747 464.041 56C463.803 55.9207 463.596 55.804 463.418 55.65C463.241 55.496 463.099 55.3023 462.991 55.069C462.889 54.831 462.837 54.551 462.837 54.229C462.837 53.949 462.914 53.6807 463.068 53.424C463.222 53.1627 463.47 52.9317 463.81 52.731C464.156 52.5303 464.606 52.367 465.161 52.241C465.717 52.1103 466.396 52.0357 467.198 52.017V51.464C467.198 50.9133 467.079 50.498 466.841 50.218C466.608 49.9333 466.26 49.791 465.798 49.791C465.495 49.791 465.238 49.8307 465.028 49.91C464.823 49.9847 464.643 50.071 464.489 50.169C464.34 50.2623 464.209 50.3487 464.097 50.428C463.99 50.5027 463.883 50.54 463.775 50.54C463.691 50.54 463.617 50.519 463.551 50.477C463.491 50.4303 463.442 50.3743 463.404 50.309L463.18 49.91C463.572 49.532 463.995 49.2497 464.447 49.063C464.9 48.8763 465.402 48.783 465.952 48.783C466.349 48.783 466.701 48.8483 467.009 48.979C467.317 49.1097 467.576 49.2917 467.786 49.525C467.996 49.7583 468.155 50.0407 468.262 50.372C468.37 50.7033 468.423 51.0673 468.423 51.464V56ZM465.189 55.237C465.409 55.237 465.609 55.216 465.791 55.174C465.973 55.1273 466.144 55.0643 466.302 54.985C466.466 54.901 466.62 54.8007 466.764 54.684C466.914 54.5673 467.058 54.4343 467.198 54.285V52.808C466.624 52.8267 466.137 52.8733 465.735 52.948C465.334 53.018 465.007 53.1113 464.755 53.228C464.503 53.3447 464.319 53.4823 464.202 53.641C464.09 53.7997 464.034 53.977 464.034 54.173C464.034 54.3597 464.065 54.5207 464.125 54.656C464.186 54.7913 464.268 54.9033 464.37 54.992C464.473 55.076 464.594 55.139 464.734 55.181C464.874 55.2183 465.026 55.237 465.189 55.237ZM470.353 56V45.689H471.606V49.931C471.9 49.5903 472.236 49.3173 472.614 49.112C472.997 48.902 473.433 48.797 473.923 48.797C474.334 48.797 474.705 48.874 475.036 49.028C475.367 49.182 475.65 49.413 475.883 49.721C476.116 50.0243 476.296 50.4023 476.422 50.855C476.548 51.303 476.611 51.821 476.611 52.409C476.611 52.9317 476.541 53.4193 476.401 53.872C476.261 54.32 476.058 54.7097 475.792 55.041C475.531 55.3677 475.209 55.6267 474.826 55.818C474.448 56.0047 474.021 56.098 473.545 56.098C473.088 56.098 472.698 56.0093 472.376 55.832C472.059 55.6547 471.781 55.4073 471.543 55.09L471.48 55.734C471.443 55.9113 471.335 56 471.158 56H470.353ZM473.517 49.791C473.111 49.791 472.754 49.8843 472.446 50.071C472.143 50.2577 471.863 50.5213 471.606 50.862V54.292C471.83 54.6 472.077 54.817 472.348 54.943C472.623 55.069 472.929 55.132 473.265 55.132C473.928 55.132 474.436 54.8963 474.791 54.425C475.146 53.9537 475.323 53.2817 475.323 52.409C475.323 51.947 475.281 51.5503 475.197 51.219C475.118 50.8877 475.001 50.617 474.847 50.407C474.693 50.1923 474.504 50.036 474.28 49.938C474.056 49.84 473.802 49.791 473.517 49.791ZM479.517 45.689V56H478.271V45.689H479.517ZM484.52 48.797C484.945 48.797 485.337 48.8693 485.696 49.014C486.056 49.154 486.366 49.3593 486.627 49.63C486.889 49.896 487.092 50.2273 487.236 50.624C487.386 51.016 487.46 51.464 487.46 51.968C487.46 52.164 487.439 52.2947 487.397 52.36C487.355 52.4253 487.276 52.458 487.159 52.458H482.441C482.451 52.906 482.511 53.2957 482.623 53.627C482.735 53.9583 482.889 54.236 483.085 54.46C483.281 54.6793 483.515 54.845 483.785 54.957C484.056 55.0643 484.359 55.118 484.695 55.118C485.008 55.118 485.276 55.083 485.5 55.013C485.729 54.9383 485.925 54.859 486.088 54.775C486.252 54.691 486.387 54.614 486.494 54.544C486.606 54.4693 486.702 54.432 486.781 54.432C486.884 54.432 486.963 54.4717 487.019 54.551L487.369 55.006C487.215 55.1927 487.031 55.356 486.816 55.496C486.602 55.6313 486.371 55.7433 486.123 55.832C485.881 55.9207 485.629 55.986 485.367 56.028C485.106 56.0747 484.847 56.098 484.59 56.098C484.1 56.098 483.648 56.0163 483.232 55.853C482.822 55.685 482.465 55.4423 482.161 55.125C481.863 54.803 481.629 54.4063 481.461 53.935C481.293 53.4637 481.209 52.9223 481.209 52.311C481.209 51.8163 481.284 51.3543 481.433 50.925C481.587 50.4957 481.807 50.1247 482.091 49.812C482.376 49.4947 482.724 49.2473 483.134 49.07C483.545 48.888 484.007 48.797 484.52 48.797ZM484.548 49.714C483.946 49.714 483.473 49.889 483.127 50.239C482.782 50.5843 482.567 51.065 482.483 51.681H486.34C486.34 51.3917 486.301 51.128 486.221 50.89C486.142 50.6473 486.025 50.4397 485.871 50.267C485.717 50.0897 485.528 49.9543 485.304 49.861C485.085 49.763 484.833 49.714 484.548 49.714ZM494.046 56C493.869 56 493.757 55.9137 493.71 55.741L493.598 54.88C493.295 55.2487 492.947 55.545 492.555 55.769C492.168 55.9883 491.722 56.098 491.218 56.098C490.812 56.098 490.444 56.021 490.112 55.867C489.781 55.7083 489.499 55.4773 489.265 55.174C489.032 54.8707 488.852 54.4927 488.726 54.04C488.6 53.5873 488.537 53.067 488.537 52.479C488.537 51.9563 488.607 51.471 488.747 51.023C488.887 50.5703 489.088 50.1783 489.349 49.847C489.615 49.5157 489.937 49.2567 490.315 49.07C490.693 48.8787 491.123 48.783 491.603 48.783C492.037 48.783 492.408 48.8577 492.716 49.007C493.024 49.1517 493.3 49.357 493.542 49.623V45.689H494.788V56H494.046ZM491.631 55.09C492.037 55.09 492.392 54.9967 492.695 54.81C493.003 54.6233 493.286 54.3597 493.542 54.019V50.589C493.314 50.281 493.062 50.0663 492.786 49.945C492.516 49.819 492.215 49.756 491.883 49.756C491.221 49.756 490.712 49.9917 490.357 50.463C490.003 50.9343 489.825 51.6063 489.825 52.479C489.825 52.941 489.865 53.3377 489.944 53.669C490.024 53.9957 490.14 54.2663 490.294 54.481C490.448 54.691 490.637 54.845 490.861 54.943C491.085 55.041 491.342 55.09 491.631 55.09Z" fill="#E9EAEB"/>
</svg>
