<svg width="1000" height="103" viewBox="0 0 1000 103" fill="none" xmlns="http://www.w3.org/2000/svg">
<rect width="1000" height="103" fill="white"/>
<rect x="700.5" y="38.5" width="50" height="27" rx="2.5" stroke="#DCDFE6"/>
<path d="M723.009 56.048H725.165V49.209C725.165 49.0037 725.172 48.796 725.186 48.586L723.394 50.119C723.347 50.1563 723.301 50.1843 723.254 50.203C723.207 50.217 723.163 50.224 723.121 50.224C723.051 50.224 722.988 50.21 722.932 50.182C722.876 50.1493 722.834 50.112 722.806 50.07L722.414 49.531L725.396 46.948H726.411V56.048H728.385V57H723.009V56.048Z" fill="#606266"/>
<path d="M665.691 56.013C665.962 56.013 666.209 56.0013 666.433 55.978C666.662 55.95 666.876 55.9103 667.077 55.859C667.278 55.8077 667.467 55.747 667.644 55.677C667.821 55.6023 667.999 55.5183 668.176 55.425V53.213H666.622C666.533 53.213 666.461 53.1873 666.405 53.136C666.354 53.0847 666.328 53.0217 666.328 52.947V52.177H669.408V56.027C669.156 56.209 668.892 56.3677 668.617 56.503C668.346 56.6383 668.055 56.7527 667.742 56.846C667.434 56.9347 667.103 57 666.748 57.042C666.393 57.0887 666.008 57.112 665.593 57.112C664.865 57.112 664.198 56.9883 663.591 56.741C662.984 56.489 662.462 56.139 662.023 55.691C661.584 55.2383 661.241 54.697 660.994 54.067C660.751 53.437 660.63 52.744 660.63 51.988C660.63 51.2227 660.749 50.525 660.987 49.895C661.23 49.265 661.573 48.726 662.016 48.278C662.464 47.8253 663.003 47.4753 663.633 47.228C664.268 46.9807 664.977 46.857 665.761 46.857C666.158 46.857 666.526 46.8873 666.867 46.948C667.208 47.004 667.523 47.088 667.812 47.2C668.106 47.3073 668.377 47.4403 668.624 47.599C668.871 47.753 669.102 47.928 669.317 48.124L668.932 48.74C668.853 48.866 668.75 48.929 668.624 48.929C668.549 48.929 668.468 48.9033 668.379 48.852C668.262 48.7867 668.132 48.7073 667.987 48.614C667.842 48.5207 667.665 48.432 667.455 48.348C667.25 48.2593 667.005 48.1847 666.72 48.124C666.44 48.0633 666.106 48.033 665.719 48.033C665.154 48.033 664.643 48.1263 664.186 48.313C663.729 48.495 663.339 48.7587 663.017 49.104C662.695 49.4447 662.448 49.86 662.275 50.35C662.102 50.8353 662.016 51.3813 662.016 51.988C662.016 52.6227 662.105 53.1897 662.282 53.689C662.464 54.1837 662.718 54.6037 663.045 54.949C663.372 55.2943 663.759 55.558 664.207 55.74C664.655 55.922 665.15 56.013 665.691 56.013ZM674.173 49.797C674.691 49.797 675.158 49.8833 675.573 50.056C675.993 50.2287 676.348 50.4737 676.637 50.791C676.931 51.1083 677.155 51.4933 677.309 51.946C677.468 52.394 677.547 52.8957 677.547 53.451C677.547 54.011 677.468 54.515 677.309 54.963C677.155 55.411 676.931 55.7937 676.637 56.111C676.348 56.4283 675.993 56.6733 675.573 56.846C675.158 57.014 674.691 57.098 674.173 57.098C673.655 57.098 673.186 57.014 672.766 56.846C672.351 56.6733 671.996 56.4283 671.702 56.111C671.408 55.7937 671.182 55.411 671.023 54.963C670.865 54.515 670.785 54.011 670.785 53.451C670.785 52.8957 670.865 52.394 671.023 51.946C671.182 51.4933 671.408 51.1083 671.702 50.791C671.996 50.4737 672.351 50.2287 672.766 50.056C673.186 49.8833 673.655 49.797 674.173 49.797ZM674.173 56.125C674.873 56.125 675.396 55.8917 675.741 55.425C676.087 54.9537 676.259 54.298 676.259 53.458C676.259 52.6133 676.087 51.9553 675.741 51.484C675.396 51.0127 674.873 50.777 674.173 50.777C673.819 50.777 673.511 50.8377 673.249 50.959C672.988 51.0803 672.769 51.2553 672.591 51.484C672.419 51.7127 672.288 51.995 672.199 52.331C672.115 52.6623 672.073 53.038 672.073 53.458C672.073 53.878 672.115 54.2537 672.199 54.585C672.288 54.9163 672.419 55.1963 672.591 55.425C672.769 55.649 672.988 55.8217 673.249 55.943C673.511 56.0643 673.819 56.125 674.173 56.125ZM683.939 57.112C683.379 57.112 682.947 56.9557 682.644 56.643C682.345 56.3303 682.196 55.88 682.196 55.292V50.952H681.342C681.267 50.952 681.204 50.931 681.153 50.889C681.101 50.8423 681.076 50.7723 681.076 50.679V50.182L682.238 50.035L682.525 47.844C682.534 47.774 682.564 47.718 682.616 47.676C682.667 47.6293 682.732 47.606 682.812 47.606H683.442V50.049H685.472V50.952H683.442V55.208C683.442 55.5067 683.514 55.7283 683.659 55.873C683.803 56.0177 683.99 56.09 684.219 56.09C684.349 56.09 684.461 56.0737 684.555 56.041C684.653 56.0037 684.737 55.964 684.807 55.922C684.877 55.88 684.935 55.8427 684.982 55.81C685.033 55.7727 685.077 55.754 685.115 55.754C685.18 55.754 685.238 55.7937 685.29 55.873L685.654 56.468C685.439 56.6687 685.18 56.8273 684.877 56.944C684.573 57.056 684.261 57.112 683.939 57.112ZM689.882 49.797C690.4 49.797 690.867 49.8833 691.282 50.056C691.702 50.2287 692.057 50.4737 692.346 50.791C692.64 51.1083 692.864 51.4933 693.018 51.946C693.177 52.394 693.256 52.8957 693.256 53.451C693.256 54.011 693.177 54.515 693.018 54.963C692.864 55.411 692.64 55.7937 692.346 56.111C692.057 56.4283 691.702 56.6733 691.282 56.846C690.867 57.014 690.4 57.098 689.882 57.098C689.364 57.098 688.895 57.014 688.475 56.846C688.06 56.6733 687.705 56.4283 687.411 56.111C687.117 55.7937 686.891 55.411 686.732 54.963C686.574 54.515 686.494 54.011 686.494 53.451C686.494 52.8957 686.574 52.394 686.732 51.946C686.891 51.4933 687.117 51.1083 687.411 50.791C687.705 50.4737 688.06 50.2287 688.475 50.056C688.895 49.8833 689.364 49.797 689.882 49.797ZM689.882 56.125C690.582 56.125 691.105 55.8917 691.45 55.425C691.796 54.9537 691.968 54.298 691.968 53.458C691.968 52.6133 691.796 51.9553 691.45 51.484C691.105 51.0127 690.582 50.777 689.882 50.777C689.528 50.777 689.22 50.8377 688.958 50.959C688.697 51.0803 688.478 51.2553 688.3 51.484C688.128 51.7127 687.997 51.995 687.908 52.331C687.824 52.6623 687.782 53.038 687.782 53.458C687.782 53.878 687.824 54.2537 687.908 54.585C687.997 54.9163 688.128 55.1963 688.3 55.425C688.478 55.649 688.697 55.8217 688.958 55.943C689.22 56.0643 689.528 56.125 689.882 56.125Z" fill="#606266"/>
<path fill-rule="evenodd" clip-rule="evenodd" d="M629 47.0611L633.598 51.6588L629 56.2565L630.061 57.3179L635.72 51.6588L634.659 50.5974L630.061 46.0002L629 47.0611Z" fill="#606266"/>
<path d="M585.207 46.857C585.632 46.857 586.028 46.92 586.397 47.046C586.766 47.172 587.083 47.3563 587.349 47.599C587.62 47.837 587.832 48.1287 587.986 48.474C588.14 48.8193 588.217 49.2113 588.217 49.65C588.217 50.0233 588.161 50.3687 588.049 50.686C587.937 51.0033 587.785 51.309 587.594 51.603C587.403 51.8923 587.181 52.1747 586.929 52.45C586.682 52.7207 586.418 52.9983 586.138 53.283L583.499 55.985C583.686 55.9337 583.875 55.894 584.066 55.866C584.257 55.8333 584.442 55.817 584.619 55.817H587.979C588.114 55.817 588.222 55.8567 588.301 55.936C588.38 56.0153 588.42 56.118 588.42 56.244V57H581.728V56.573C581.728 56.4843 581.744 56.3933 581.777 56.3C581.814 56.2067 581.873 56.1203 581.952 56.041L585.165 52.814C585.431 52.5433 585.674 52.2843 585.893 52.037C586.112 51.785 586.299 51.533 586.453 51.281C586.612 51.029 586.733 50.7747 586.817 50.518C586.901 50.2567 586.943 49.979 586.943 49.685C586.943 49.391 586.896 49.1343 586.803 48.915C586.71 48.691 586.581 48.5067 586.418 48.362C586.255 48.2173 586.063 48.11 585.844 48.04C585.625 47.9653 585.389 47.928 585.137 47.928C584.885 47.928 584.652 47.9653 584.437 48.04C584.222 48.1147 584.031 48.2197 583.863 48.355C583.7 48.4857 583.56 48.642 583.443 48.824C583.331 49.006 583.252 49.2067 583.205 49.426C583.168 49.5613 583.112 49.6593 583.037 49.72C582.962 49.7807 582.864 49.811 582.743 49.811C582.72 49.811 582.694 49.811 582.666 49.811C582.643 49.8063 582.615 49.8017 582.582 49.797L581.931 49.685C581.996 49.2277 582.122 48.824 582.309 48.474C582.496 48.1193 582.731 47.823 583.016 47.585C583.305 47.347 583.634 47.1673 584.003 47.046C584.376 46.92 584.778 46.857 585.207 46.857ZM593.461 46.857C593.886 46.857 594.278 46.9177 594.637 47.039C594.996 47.1603 595.304 47.333 595.561 47.557C595.822 47.781 596.025 48.0517 596.17 48.369C596.315 48.6863 596.387 49.0387 596.387 49.426C596.387 49.7433 596.345 50.028 596.261 50.28C596.182 50.5273 596.065 50.7467 595.911 50.938C595.762 51.1247 595.58 51.2833 595.365 51.414C595.15 51.5447 594.91 51.6497 594.644 51.729C595.297 51.9017 595.787 52.191 596.114 52.597C596.445 53.003 596.611 53.5117 596.611 54.123C596.611 54.585 596.522 55.0003 596.345 55.369C596.172 55.7377 595.934 56.0527 595.631 56.314C595.328 56.5707 594.973 56.769 594.567 56.909C594.166 57.0443 593.734 57.112 593.272 57.112C592.74 57.112 592.285 57.0467 591.907 56.916C591.529 56.7807 591.209 56.5963 590.948 56.363C590.687 56.1297 590.472 55.8543 590.304 55.537C590.136 55.215 589.994 54.8673 589.877 54.494L590.409 54.27C590.507 54.228 590.605 54.207 590.703 54.207C590.796 54.207 590.878 54.228 590.948 54.27C591.023 54.3073 591.079 54.368 591.116 54.452C591.125 54.4707 591.135 54.4917 591.144 54.515C591.153 54.5337 591.163 54.5547 591.172 54.578C591.237 54.7133 591.317 54.8673 591.41 55.04C591.503 55.208 591.629 55.3667 591.788 55.516C591.947 55.6653 592.143 55.7913 592.376 55.894C592.614 55.9967 592.908 56.048 593.258 56.048C593.608 56.048 593.914 55.992 594.175 55.88C594.441 55.7633 594.66 55.614 594.833 55.432C595.01 55.25 595.143 55.047 595.232 54.823C595.321 54.599 595.365 54.3773 595.365 54.158C595.365 53.8873 595.328 53.64 595.253 53.416C595.183 53.192 595.052 52.9983 594.861 52.835C594.674 52.6717 594.413 52.5433 594.077 52.45C593.746 52.3567 593.319 52.31 592.796 52.31V51.407C593.221 51.4023 593.582 51.3557 593.881 51.267C594.184 51.1783 594.432 51.057 594.623 50.903C594.814 50.749 594.952 50.5647 595.036 50.35C595.125 50.1353 595.169 49.8973 595.169 49.636C595.169 49.3467 595.122 49.0947 595.029 48.88C594.94 48.6653 594.817 48.488 594.658 48.348C594.499 48.208 594.31 48.103 594.091 48.033C593.876 47.963 593.643 47.928 593.391 47.928C593.139 47.928 592.906 47.9653 592.691 48.04C592.476 48.1147 592.285 48.2197 592.117 48.355C591.954 48.4857 591.816 48.6443 591.704 48.831C591.592 49.013 591.508 49.2113 591.452 49.426C591.415 49.5613 591.359 49.6593 591.284 49.72C591.209 49.7807 591.114 49.811 590.997 49.811C590.974 49.811 590.948 49.811 590.92 49.811C590.897 49.8063 590.869 49.8017 590.836 49.797L590.185 49.685C590.25 49.2277 590.376 48.824 590.563 48.474C590.75 48.1193 590.985 47.823 591.27 47.585C591.559 47.347 591.888 47.1673 592.257 47.046C592.63 46.92 593.032 46.857 593.461 46.857Z" fill="#606266"/>
<path d="M539.616 56.23C539.616 56.1087 539.637 55.9943 539.679 55.887C539.726 55.7797 539.786 55.6863 539.861 55.607C539.94 55.5277 540.034 55.4647 540.141 55.418C540.248 55.3713 540.363 55.348 540.484 55.348C540.605 55.348 540.72 55.3713 540.827 55.418C540.934 55.4647 541.028 55.5277 541.107 55.607C541.186 55.6863 541.247 55.7797 541.289 55.887C541.336 55.9943 541.359 56.1087 541.359 56.23C541.359 56.356 541.336 56.4727 541.289 56.58C541.247 56.6827 541.186 56.7737 541.107 56.853C541.028 56.9323 540.934 56.993 540.827 57.035C540.72 57.0817 540.605 57.105 540.484 57.105C540.363 57.105 540.248 57.0817 540.141 57.035C540.034 56.993 539.94 56.9323 539.861 56.853C539.786 56.7737 539.726 56.6827 539.679 56.58C539.637 56.4727 539.616 56.356 539.616 56.23ZM546.819 56.23C546.819 56.1087 546.84 55.9943 546.882 55.887C546.929 55.7797 546.989 55.6863 547.064 55.607C547.143 55.5277 547.237 55.4647 547.344 55.418C547.451 55.3713 547.566 55.348 547.687 55.348C547.808 55.348 547.923 55.3713 548.03 55.418C548.137 55.4647 548.231 55.5277 548.31 55.607C548.389 55.6863 548.45 55.7797 548.492 55.887C548.539 55.9943 548.562 56.1087 548.562 56.23C548.562 56.356 548.539 56.4727 548.492 56.58C548.45 56.6827 548.389 56.7737 548.31 56.853C548.231 56.9323 548.137 56.993 548.03 57.035C547.923 57.0817 547.808 57.105 547.687 57.105C547.566 57.105 547.451 57.0817 547.344 57.035C547.237 56.993 547.143 56.9323 547.064 56.853C546.989 56.7737 546.929 56.6827 546.882 56.58C546.84 56.4727 546.819 56.356 546.819 56.23ZM543.214 56.23C543.214 56.1087 543.235 55.9943 543.277 55.887C543.324 55.7797 543.384 55.6863 543.459 55.607C543.538 55.5277 543.632 55.4647 543.739 55.418C543.846 55.3713 543.961 55.348 544.082 55.348C544.203 55.348 544.318 55.3713 544.425 55.418C544.532 55.4647 544.626 55.5277 544.705 55.607C544.784 55.6863 544.845 55.7797 544.887 55.887C544.934 55.9943 544.957 56.1087 544.957 56.23C544.957 56.356 544.934 56.4727 544.887 56.58C544.845 56.6827 544.784 56.7737 544.705 56.853C544.626 56.9323 544.532 56.993 544.425 57.035C544.318 57.0817 544.203 57.105 544.082 57.105C543.961 57.105 543.846 57.0817 543.739 57.035C543.632 56.993 543.538 56.9323 543.459 56.853C543.384 56.7737 543.324 56.6827 543.277 56.58C543.235 56.4727 543.214 56.356 543.214 56.23Z" fill="#606266"/>
<path d="M506.846 47.515C506.846 47.6923 506.79 47.8393 506.678 47.956C506.566 48.068 506.377 48.124 506.111 48.124H502.961L502.499 50.756C503.022 50.644 503.505 50.588 503.948 50.588C504.471 50.588 504.93 50.665 505.327 50.819C505.728 50.973 506.064 51.1853 506.335 51.456C506.606 51.7267 506.809 52.0463 506.944 52.415C507.084 52.7837 507.154 53.185 507.154 53.619C507.154 54.151 507.061 54.6317 506.874 55.061C506.687 55.4903 506.431 55.859 506.104 56.167C505.782 56.4703 505.402 56.7037 504.963 56.867C504.524 57.0303 504.051 57.112 503.542 57.112C503.248 57.112 502.966 57.0817 502.695 57.021C502.424 56.965 502.172 56.888 501.939 56.79C501.706 56.692 501.489 56.58 501.288 56.454C501.087 56.328 500.91 56.195 500.756 56.055L501.134 55.523C501.218 55.4017 501.33 55.341 501.47 55.341C501.559 55.341 501.661 55.3783 501.778 55.453C501.899 55.523 502.044 55.6023 502.212 55.691C502.38 55.7797 502.576 55.8613 502.8 55.936C503.029 56.006 503.299 56.041 503.612 56.041C503.962 56.041 504.277 55.985 504.557 55.873C504.837 55.761 505.075 55.6023 505.271 55.397C505.472 55.187 505.626 54.9373 505.733 54.648C505.84 54.3587 505.894 54.0343 505.894 53.675C505.894 53.3623 505.847 53.08 505.754 52.828C505.665 52.576 505.528 52.3613 505.341 52.184C505.159 52.0067 504.93 51.869 504.655 51.771C504.38 51.673 504.058 51.624 503.689 51.624C503.437 51.624 503.176 51.645 502.905 51.687C502.634 51.729 502.354 51.7967 502.065 51.89L501.281 51.659L502.093 46.969H506.846V47.515Z" fill="#606266"/>
<path d="M466.321 53.381H467.84V54.095C467.84 54.1697 467.817 54.2327 467.77 54.284C467.728 54.3353 467.66 54.361 467.567 54.361H466.321V57H465.222V54.361H460.777C460.684 54.361 460.602 54.3353 460.532 54.284C460.467 54.228 460.425 54.1603 460.406 54.081L460.28 53.444L465.159 46.969H466.321V53.381ZM465.222 49.244C465.222 49.1227 465.224 48.992 465.229 48.852C465.238 48.712 465.255 48.5673 465.278 48.418L461.631 53.381H465.222V49.244Z" fill="#606266"/>
<path d="M425.34 46.857C425.765 46.857 426.157 46.9177 426.516 47.039C426.875 47.1603 427.183 47.333 427.44 47.557C427.701 47.781 427.904 48.0517 428.049 48.369C428.194 48.6863 428.266 49.0387 428.266 49.426C428.266 49.7433 428.224 50.028 428.14 50.28C428.061 50.5273 427.944 50.7467 427.79 50.938C427.641 51.1247 427.459 51.2833 427.244 51.414C427.029 51.5447 426.789 51.6497 426.523 51.729C427.176 51.9017 427.666 52.191 427.993 52.597C428.324 53.003 428.49 53.5117 428.49 54.123C428.49 54.585 428.401 55.0003 428.224 55.369C428.051 55.7377 427.813 56.0527 427.51 56.314C427.207 56.5707 426.852 56.769 426.446 56.909C426.045 57.0443 425.613 57.112 425.151 57.112C424.619 57.112 424.164 57.0467 423.786 56.916C423.408 56.7807 423.088 56.5963 422.827 56.363C422.566 56.1297 422.351 55.8543 422.183 55.537C422.015 55.215 421.873 54.8673 421.756 54.494L422.288 54.27C422.386 54.228 422.484 54.207 422.582 54.207C422.675 54.207 422.757 54.228 422.827 54.27C422.902 54.3073 422.958 54.368 422.995 54.452C423.004 54.4707 423.014 54.4917 423.023 54.515C423.032 54.5337 423.042 54.5547 423.051 54.578C423.116 54.7133 423.196 54.8673 423.289 55.04C423.382 55.208 423.508 55.3667 423.667 55.516C423.826 55.6653 424.022 55.7913 424.255 55.894C424.493 55.9967 424.787 56.048 425.137 56.048C425.487 56.048 425.793 55.992 426.054 55.88C426.32 55.7633 426.539 55.614 426.712 55.432C426.889 55.25 427.022 55.047 427.111 54.823C427.2 54.599 427.244 54.3773 427.244 54.158C427.244 53.8873 427.207 53.64 427.132 53.416C427.062 53.192 426.931 52.9983 426.74 52.835C426.553 52.6717 426.292 52.5433 425.956 52.45C425.625 52.3567 425.198 52.31 424.675 52.31V51.407C425.1 51.4023 425.461 51.3557 425.76 51.267C426.063 51.1783 426.311 51.057 426.502 50.903C426.693 50.749 426.831 50.5647 426.915 50.35C427.004 50.1353 427.048 49.8973 427.048 49.636C427.048 49.3467 427.001 49.0947 426.908 48.88C426.819 48.6653 426.696 48.488 426.537 48.348C426.378 48.208 426.189 48.103 425.97 48.033C425.755 47.963 425.522 47.928 425.27 47.928C425.018 47.928 424.785 47.9653 424.57 48.04C424.355 48.1147 424.164 48.2197 423.996 48.355C423.833 48.4857 423.695 48.6443 423.583 48.831C423.471 49.013 423.387 49.2113 423.331 49.426C423.294 49.5613 423.238 49.6593 423.163 49.72C423.088 49.7807 422.993 49.811 422.876 49.811C422.853 49.811 422.827 49.811 422.799 49.811C422.776 49.8063 422.748 49.8017 422.715 49.797L422.064 49.685C422.129 49.2277 422.255 48.824 422.442 48.474C422.629 48.1193 422.864 47.823 423.149 47.585C423.438 47.347 423.767 47.1673 424.136 47.046C424.509 46.92 424.911 46.857 425.34 46.857Z" fill="#606266"/>
<path d="M386.207 46.857C386.632 46.857 387.028 46.92 387.397 47.046C387.766 47.172 388.083 47.3563 388.349 47.599C388.62 47.837 388.832 48.1287 388.986 48.474C389.14 48.8193 389.217 49.2113 389.217 49.65C389.217 50.0233 389.161 50.3687 389.049 50.686C388.937 51.0033 388.785 51.309 388.594 51.603C388.403 51.8923 388.181 52.1747 387.929 52.45C387.682 52.7207 387.418 52.9983 387.138 53.283L384.499 55.985C384.686 55.9337 384.875 55.894 385.066 55.866C385.257 55.8333 385.442 55.817 385.619 55.817H388.979C389.114 55.817 389.222 55.8567 389.301 55.936C389.38 56.0153 389.42 56.118 389.42 56.244V57H382.728V56.573C382.728 56.4843 382.744 56.3933 382.777 56.3C382.814 56.2067 382.873 56.1203 382.952 56.041L386.165 52.814C386.431 52.5433 386.674 52.2843 386.893 52.037C387.112 51.785 387.299 51.533 387.453 51.281C387.612 51.029 387.733 50.7747 387.817 50.518C387.901 50.2567 387.943 49.979 387.943 49.685C387.943 49.391 387.896 49.1343 387.803 48.915C387.71 48.691 387.581 48.5067 387.418 48.362C387.255 48.2173 387.063 48.11 386.844 48.04C386.625 47.9653 386.389 47.928 386.137 47.928C385.885 47.928 385.652 47.9653 385.437 48.04C385.222 48.1147 385.031 48.2197 384.863 48.355C384.7 48.4857 384.56 48.642 384.443 48.824C384.331 49.006 384.252 49.2067 384.205 49.426C384.168 49.5613 384.112 49.6593 384.037 49.72C383.962 49.7807 383.864 49.811 383.743 49.811C383.72 49.811 383.694 49.811 383.666 49.811C383.643 49.8063 383.615 49.8017 383.582 49.797L382.931 49.685C382.996 49.2277 383.122 48.824 383.309 48.474C383.496 48.1193 383.731 47.823 384.016 47.585C384.305 47.347 384.634 47.1673 385.003 47.046C385.376 46.92 385.778 46.857 386.207 46.857Z" fill="#606266"/>
<path d="M347.009 56.048H349.165V49.209C349.165 49.0037 349.172 48.796 349.186 48.586L347.394 50.119C347.347 50.1563 347.301 50.1843 347.254 50.203C347.207 50.217 347.163 50.224 347.121 50.224C347.051 50.224 346.988 50.21 346.932 50.182C346.876 50.1493 346.834 50.112 346.806 50.07L346.414 49.531L349.396 46.948H350.411V56.048H352.385V57H347.009V56.048Z" fill="#1989FA"/>
<path fill-rule="evenodd" clip-rule="evenodd" d="M316.061 50.5979L315 51.6588L316.061 52.7202L320.659 57.3179L321.72 56.257L317.122 51.6588L321.72 47.0616L320.659 46.0002L316.061 50.5979Z" fill="#C0C4CC"/>
<rect x="186.5" y="38.5" width="97" height="27" rx="2.5" stroke="#DCDFE6"/>
<path d="M204.009 56.048H206.165V49.209C206.165 49.0037 206.172 48.796 206.186 48.586L204.394 50.119C204.347 50.1563 204.301 50.1843 204.254 50.203C204.207 50.217 204.163 50.224 204.121 50.224C204.051 50.224 203.988 50.21 203.932 50.182C203.876 50.1493 203.834 50.112 203.806 50.07L203.414 49.531L206.396 46.948H207.411V56.048H209.385V57H204.009V56.048ZM217.821 51.988C217.821 52.8653 217.725 53.626 217.534 54.27C217.347 54.9093 217.091 55.439 216.764 55.859C216.437 56.279 216.05 56.5917 215.602 56.797C215.159 57.0023 214.683 57.105 214.174 57.105C213.661 57.105 213.182 57.0023 212.739 56.797C212.3 56.5917 211.918 56.279 211.591 55.859C211.264 55.439 211.008 54.9093 210.821 54.27C210.634 53.626 210.541 52.8653 210.541 51.988C210.541 51.1107 210.634 50.35 210.821 49.706C211.008 49.062 211.264 48.53 211.591 48.11C211.918 47.6853 212.3 47.3703 212.739 47.165C213.182 46.9597 213.661 46.857 214.174 46.857C214.683 46.857 215.159 46.9597 215.602 47.165C216.05 47.3703 216.437 47.6853 216.764 48.11C217.091 48.53 217.347 49.062 217.534 49.706C217.725 50.35 217.821 51.1107 217.821 51.988ZM216.526 51.988C216.526 51.2227 216.461 50.581 216.33 50.063C216.204 49.5403 216.031 49.1203 215.812 48.803C215.597 48.4857 215.348 48.2593 215.063 48.124C214.778 47.984 214.482 47.914 214.174 47.914C213.866 47.914 213.57 47.984 213.285 48.124C213 48.2593 212.751 48.4857 212.536 48.803C212.321 49.1203 212.149 49.5403 212.018 50.063C211.892 50.581 211.829 51.2227 211.829 51.988C211.829 52.7533 211.892 53.395 212.018 53.913C212.149 54.431 212.321 54.8487 212.536 55.166C212.751 55.4833 213 55.712 213.285 55.852C213.57 55.9873 213.866 56.055 214.174 56.055C214.482 56.055 214.778 55.9873 215.063 55.852C215.348 55.712 215.597 55.4833 215.812 55.166C216.031 54.8487 216.204 54.431 216.33 53.913C216.461 53.395 216.526 52.7533 216.526 51.988ZM219.369 57.147C219.304 57.3103 219.206 57.4317 219.075 57.511C218.949 57.5903 218.819 57.63 218.683 57.63H218.158L222.365 47.151C222.426 47.0017 222.512 46.8873 222.624 46.808C222.736 46.7287 222.869 46.689 223.023 46.689H223.548L219.369 57.147ZM223.872 59.401V49.909H224.614C224.791 49.909 224.903 49.9953 224.95 50.168L225.055 51.008C225.358 50.6393 225.703 50.343 226.091 50.119C226.483 49.895 226.933 49.783 227.442 49.783C227.848 49.783 228.216 49.8623 228.548 50.021C228.879 50.175 229.161 50.406 229.395 50.714C229.628 51.0173 229.808 51.3953 229.934 51.848C230.06 52.3007 230.123 52.821 230.123 53.409C230.123 53.9317 230.053 54.4193 229.913 54.872C229.773 55.32 229.572 55.7097 229.311 56.041C229.049 56.3677 228.727 56.6267 228.345 56.818C227.967 57.0047 227.54 57.098 227.064 57.098C226.625 57.098 226.249 57.0257 225.937 56.881C225.629 56.7363 225.356 56.531 225.118 56.265V59.401H223.872ZM227.029 50.791C226.623 50.791 226.266 50.8843 225.958 51.071C225.654 51.2577 225.374 51.5213 225.118 51.862V55.292C225.346 55.6 225.596 55.817 225.867 55.943C226.142 56.069 226.448 56.132 226.784 56.132C227.442 56.132 227.948 55.8963 228.303 55.425C228.657 54.9537 228.835 54.2817 228.835 53.409C228.835 52.947 228.793 52.5503 228.709 52.219C228.629 51.8877 228.513 51.617 228.359 51.407C228.205 51.1923 228.016 51.036 227.792 50.938C227.568 50.84 227.313 50.791 227.029 50.791ZM236.804 57H236.251C236.13 57 236.032 56.9813 235.957 56.944C235.883 56.9067 235.834 56.8273 235.81 56.706L235.67 56.048C235.484 56.216 235.302 56.3677 235.124 56.503C234.947 56.6337 234.76 56.7457 234.564 56.839C234.368 56.9277 234.158 56.9953 233.934 57.042C233.715 57.0887 233.47 57.112 233.199 57.112C232.924 57.112 232.665 57.0747 232.422 57C232.184 56.9207 231.977 56.804 231.799 56.65C231.622 56.496 231.48 56.3023 231.372 56.069C231.27 55.831 231.218 55.551 231.218 55.229C231.218 54.949 231.295 54.6807 231.449 54.424C231.603 54.1627 231.851 53.9317 232.191 53.731C232.537 53.5303 232.987 53.367 233.542 53.241C234.098 53.1103 234.777 53.0357 235.579 53.017V52.464C235.579 51.9133 235.46 51.498 235.222 51.218C234.989 50.9333 234.641 50.791 234.179 50.791C233.876 50.791 233.619 50.8307 233.409 50.91C233.204 50.9847 233.024 51.071 232.87 51.169C232.721 51.2623 232.59 51.3487 232.478 51.428C232.371 51.5027 232.264 51.54 232.156 51.54C232.072 51.54 231.998 51.519 231.932 51.477C231.872 51.4303 231.823 51.3743 231.785 51.309L231.561 50.91C231.953 50.532 232.376 50.2497 232.828 50.063C233.281 49.8763 233.783 49.783 234.333 49.783C234.73 49.783 235.082 49.8483 235.39 49.979C235.698 50.1097 235.957 50.2917 236.167 50.525C236.377 50.7583 236.536 51.0407 236.643 51.372C236.751 51.7033 236.804 52.0673 236.804 52.464V57ZM233.57 56.237C233.79 56.237 233.99 56.216 234.172 56.174C234.354 56.1273 234.525 56.0643 234.683 55.985C234.847 55.901 235.001 55.8007 235.145 55.684C235.295 55.5673 235.439 55.4343 235.579 55.285V53.808C235.005 53.8267 234.518 53.8733 234.116 53.948C233.715 54.018 233.388 54.1113 233.136 54.228C232.884 54.3447 232.7 54.4823 232.583 54.641C232.471 54.7997 232.415 54.977 232.415 55.173C232.415 55.3597 232.446 55.5207 232.506 55.656C232.567 55.7913 232.649 55.9033 232.751 55.992C232.854 56.076 232.975 56.139 233.115 56.181C233.255 56.2183 233.407 56.237 233.57 56.237ZM241.079 49.79C241.387 49.79 241.674 49.825 241.94 49.895C242.211 49.9603 242.456 50.0583 242.675 50.189H244.6V50.651C244.6 50.805 244.502 50.903 244.306 50.945L243.501 51.057C243.66 51.3603 243.739 51.6987 243.739 52.072C243.739 52.4173 243.671 52.7323 243.536 53.017C243.405 53.297 243.221 53.5373 242.983 53.738C242.75 53.9387 242.47 54.0927 242.143 54.2C241.821 54.3073 241.466 54.361 241.079 54.361C240.748 54.361 240.435 54.3213 240.141 54.242C239.992 54.3353 239.877 54.4357 239.798 54.543C239.723 54.6503 239.686 54.7553 239.686 54.858C239.686 55.026 239.754 55.1543 239.889 55.243C240.024 55.327 240.204 55.3877 240.428 55.425C240.652 55.4623 240.906 55.4857 241.191 55.495C241.476 55.5043 241.765 55.5207 242.059 55.544C242.358 55.5627 242.649 55.5977 242.934 55.649C243.219 55.7003 243.473 55.7843 243.697 55.901C243.921 56.0177 244.101 56.1787 244.236 56.384C244.371 56.5893 244.439 56.8553 244.439 57.182C244.439 57.4853 244.362 57.7793 244.208 58.064C244.059 58.3487 243.842 58.6007 243.557 58.82C243.272 59.044 242.925 59.2213 242.514 59.352C242.103 59.4873 241.639 59.555 241.121 59.555C240.603 59.555 240.148 59.5037 239.756 59.401C239.369 59.2983 239.047 59.1607 238.79 58.988C238.533 58.8153 238.34 58.6147 238.209 58.386C238.083 58.162 238.02 57.9263 238.02 57.679C238.02 57.329 238.13 57.0327 238.349 56.79C238.573 56.5427 238.879 56.3467 239.266 56.202C239.065 56.1087 238.904 55.985 238.783 55.831C238.666 55.6723 238.608 55.4623 238.608 55.201C238.608 55.0983 238.627 54.9933 238.664 54.886C238.701 54.774 238.757 54.6643 238.832 54.557C238.911 54.4497 239.007 54.347 239.119 54.249C239.231 54.151 239.362 54.0647 239.511 53.99C239.161 53.794 238.886 53.535 238.685 53.213C238.489 52.8863 238.391 52.506 238.391 52.072C238.391 51.7267 238.456 51.414 238.587 51.134C238.722 50.8493 238.909 50.609 239.147 50.413C239.385 50.2123 239.667 50.0583 239.994 49.951C240.325 49.8437 240.687 49.79 241.079 49.79ZM243.291 57.385C243.291 57.2077 243.242 57.0653 243.144 56.958C243.046 56.8507 242.913 56.769 242.745 56.713C242.577 56.6523 242.383 56.608 242.164 56.58C241.945 56.552 241.714 56.5333 241.471 56.524C241.228 56.51 240.981 56.496 240.729 56.482C240.477 56.468 240.237 56.4423 240.008 56.405C239.742 56.531 239.525 56.685 239.357 56.867C239.194 57.049 239.112 57.266 239.112 57.518C239.112 57.6767 239.152 57.8237 239.231 57.959C239.315 58.099 239.441 58.218 239.609 58.316C239.777 58.4187 239.987 58.498 240.239 58.554C240.496 58.6147 240.797 58.645 241.142 58.645C241.478 58.645 241.779 58.6147 242.045 58.554C242.311 58.4933 242.535 58.407 242.717 58.295C242.904 58.183 243.046 58.05 243.144 57.896C243.242 57.742 243.291 57.5717 243.291 57.385ZM241.079 53.535C241.331 53.535 241.553 53.5 241.744 53.43C241.94 53.36 242.103 53.262 242.234 53.136C242.365 53.01 242.463 52.8607 242.528 52.688C242.593 52.5107 242.626 52.317 242.626 52.107C242.626 51.673 242.493 51.3277 242.227 51.071C241.966 50.8143 241.583 50.686 241.079 50.686C240.58 50.686 240.197 50.8143 239.931 51.071C239.67 51.3277 239.539 51.673 239.539 52.107C239.539 52.317 239.572 52.5107 239.637 52.688C239.707 52.8607 239.807 53.01 239.938 53.136C240.069 53.262 240.23 53.36 240.421 53.43C240.612 53.5 240.832 53.535 241.079 53.535ZM248.649 49.797C249.074 49.797 249.466 49.8693 249.825 50.014C250.185 50.154 250.495 50.3593 250.756 50.63C251.018 50.896 251.221 51.2273 251.365 51.624C251.515 52.016 251.589 52.464 251.589 52.968C251.589 53.164 251.568 53.2947 251.526 53.36C251.484 53.4253 251.405 53.458 251.288 53.458H246.57C246.58 53.906 246.64 54.2957 246.752 54.627C246.864 54.9583 247.018 55.236 247.214 55.46C247.41 55.6793 247.644 55.845 247.914 55.957C248.185 56.0643 248.488 56.118 248.824 56.118C249.137 56.118 249.405 56.083 249.629 56.013C249.858 55.9383 250.054 55.859 250.217 55.775C250.381 55.691 250.516 55.614 250.623 55.544C250.735 55.4693 250.831 55.432 250.91 55.432C251.013 55.432 251.092 55.4717 251.148 55.551L251.498 56.006C251.344 56.1927 251.16 56.356 250.945 56.496C250.731 56.6313 250.5 56.7433 250.252 56.832C250.01 56.9207 249.758 56.986 249.496 57.028C249.235 57.0747 248.976 57.098 248.719 57.098C248.229 57.098 247.777 57.0163 247.361 56.853C246.951 56.685 246.594 56.4423 246.29 56.125C245.992 55.803 245.758 55.4063 245.59 54.935C245.422 54.4637 245.338 53.9223 245.338 53.311C245.338 52.8163 245.413 52.3543 245.562 51.925C245.716 51.4957 245.936 51.1247 246.22 50.812C246.505 50.4947 246.853 50.2473 247.263 50.07C247.674 49.888 248.136 49.797 248.649 49.797ZM248.677 50.714C248.075 50.714 247.602 50.889 247.256 51.239C246.911 51.5843 246.696 52.065 246.612 52.681H250.469C250.469 52.3917 250.43 52.128 250.35 51.89C250.271 51.6473 250.154 51.4397 250 51.267C249.846 51.0897 249.657 50.9543 249.433 50.861C249.214 50.763 248.962 50.714 248.677 50.714Z" fill="#606266"/>
<path d="M55.296 57.912H57.76V50.096C57.76 49.8613 57.768 49.624 57.784 49.384L55.736 51.136C55.6827 51.1787 55.6293 51.2107 55.576 51.232C55.5227 51.248 55.472 51.256 55.424 51.256C55.344 51.256 55.272 51.24 55.208 51.208C55.144 51.1707 55.096 51.128 55.064 51.08L54.616 50.464L58.024 47.512H59.184V57.912H61.44V59H55.296V57.912ZM71.2812 53.272C71.2812 54.2747 71.1719 55.144 70.9532 55.88C70.7399 56.6107 70.4466 57.216 70.0733 57.696C69.6999 58.176 69.2573 58.5333 68.7453 58.768C68.2386 59.0027 67.6946 59.12 67.1133 59.12C66.5266 59.12 65.9799 59.0027 65.4732 58.768C64.9719 58.5333 64.5346 58.176 64.1612 57.696C63.7879 57.216 63.4946 56.6107 63.2812 55.88C63.0679 55.144 62.9612 54.2747 62.9612 53.272C62.9612 52.2693 63.0679 51.4 63.2812 50.664C63.4946 49.928 63.7879 49.32 64.1612 48.84C64.5346 48.3547 64.9719 47.9947 65.4732 47.76C65.9799 47.5253 66.5266 47.408 67.1133 47.408C67.6946 47.408 68.2386 47.5253 68.7453 47.76C69.2573 47.9947 69.6999 48.3547 70.0733 48.84C70.4466 49.32 70.7399 49.928 70.9532 50.664C71.1719 51.4 71.2812 52.2693 71.2812 53.272ZM69.8012 53.272C69.8012 52.3973 69.7266 51.664 69.5773 51.072C69.4332 50.4747 69.2359 49.9947 68.9852 49.632C68.7399 49.2693 68.4546 49.0107 68.1293 48.856C67.8039 48.696 67.4653 48.616 67.1133 48.616C66.7613 48.616 66.4226 48.696 66.0972 48.856C65.7719 49.0107 65.4866 49.2693 65.2413 49.632C64.9959 49.9947 64.7986 50.4747 64.6493 51.072C64.5052 51.664 64.4332 52.3973 64.4332 53.272C64.4332 54.1467 64.5052 54.88 64.6493 55.472C64.7986 56.064 64.9959 56.5413 65.2413 56.904C65.4866 57.2667 65.7719 57.528 66.0972 57.688C66.4226 57.8427 66.7613 57.92 67.1133 57.92C67.4653 57.92 67.8039 57.8427 68.1293 57.688C68.4546 57.528 68.7399 57.2667 68.9852 56.904C69.2359 56.5413 69.4332 56.064 69.5773 55.472C69.7266 54.88 69.8012 54.1467 69.8012 53.272ZM79.7043 50.768C80.2963 50.768 80.8296 50.8667 81.3043 51.064C81.7843 51.2613 82.1896 51.5413 82.5203 51.904C82.8563 52.2667 83.1123 52.7067 83.2883 53.224C83.4696 53.736 83.5603 54.3093 83.5603 54.944C83.5603 55.584 83.4696 56.16 83.2883 56.672C83.1123 57.184 82.8563 57.6213 82.5203 57.984C82.1896 58.3467 81.7843 58.6267 81.3043 58.824C80.8296 59.016 80.2963 59.112 79.7043 59.112C79.1123 59.112 78.5763 59.016 78.0963 58.824C77.6216 58.6267 77.2163 58.3467 76.8803 57.984C76.5443 57.6213 76.2856 57.184 76.1043 56.672C75.9229 56.16 75.8323 55.584 75.8323 54.944C75.8323 54.3093 75.9229 53.736 76.1043 53.224C76.2856 52.7067 76.5443 52.2667 76.8803 51.904C77.2163 51.5413 77.6216 51.2613 78.0963 51.064C78.5763 50.8667 79.1123 50.768 79.7043 50.768ZM79.7043 58C80.5043 58 81.1016 57.7333 81.4963 57.2C81.8909 56.6613 82.0883 55.912 82.0883 54.952C82.0883 53.9867 81.8909 53.2347 81.4963 52.696C81.1016 52.1573 80.5043 51.888 79.7043 51.888C79.2989 51.888 78.9469 51.9573 78.6483 52.096C78.3496 52.2347 78.0989 52.4347 77.8963 52.696C77.6989 52.9573 77.5496 53.28 77.4483 53.664C77.3523 54.0427 77.3043 54.472 77.3043 54.952C77.3043 55.432 77.3523 55.8613 77.4483 56.24C77.5496 56.6187 77.6989 56.9387 77.8963 57.2C78.0989 57.456 78.3496 57.6533 78.6483 57.792C78.9469 57.9307 79.2989 58 79.7043 58ZM85.8349 59V52.112L84.9389 52.008C84.8269 51.9813 84.7335 51.9413 84.6589 51.888C84.5895 51.8293 84.5549 51.7467 84.5549 51.64V51.056H85.8349V50.272C85.8349 49.808 85.8989 49.3973 86.0269 49.04C86.1602 48.6773 86.3469 48.3733 86.5869 48.128C86.8322 47.8773 87.1255 47.688 87.4669 47.56C87.8082 47.432 88.1922 47.368 88.6189 47.368C88.9815 47.368 89.3175 47.4213 89.6269 47.528L89.5949 48.24C89.5895 48.3467 89.5442 48.4107 89.4589 48.432C89.3735 48.4533 89.2535 48.464 89.0989 48.464H88.8509C88.6055 48.464 88.3815 48.496 88.1789 48.56C87.9815 48.624 87.8109 48.728 87.6669 48.872C87.5229 49.016 87.4109 49.2053 87.3309 49.44C87.2562 49.6747 87.2189 49.9653 87.2189 50.312V51.056H89.5629V52.088H87.2669V59H85.8349ZM98.0393 47.408C98.5246 47.408 98.9779 47.48 99.3993 47.624C99.8206 47.768 100.183 47.9787 100.487 48.256C100.797 48.528 101.039 48.8613 101.215 49.256C101.391 49.6507 101.479 50.0987 101.479 50.6C101.479 51.0267 101.415 51.4213 101.287 51.784C101.159 52.1467 100.986 52.496 100.767 52.832C100.549 53.1627 100.295 53.4853 100.007 53.8C99.7246 54.1093 99.4233 54.4267 99.1033 54.752L96.0873 57.84C96.3006 57.7813 96.5166 57.736 96.7353 57.704C96.9539 57.6667 97.1646 57.648 97.3673 57.648H101.207C101.362 57.648 101.485 57.6933 101.575 57.784C101.666 57.8747 101.711 57.992 101.711 58.136V59H94.0633V58.512C94.0633 58.4107 94.0819 58.3067 94.1193 58.2C94.1619 58.0933 94.2286 57.9947 94.3193 57.904L97.9913 54.216C98.2953 53.9067 98.5726 53.6107 98.8233 53.328C99.0739 53.04 99.2873 52.752 99.4633 52.464C99.6446 52.176 99.7833 51.8853 99.8793 51.592C99.9753 51.2933 100.023 50.976 100.023 50.64C100.023 50.304 99.9699 50.0107 99.8633 49.76C99.7566 49.504 99.6099 49.2933 99.4233 49.128C99.2366 48.9627 99.0179 48.84 98.7673 48.76C98.5166 48.6747 98.2473 48.632 97.9593 48.632C97.6713 48.632 97.4046 48.6747 97.1593 48.76C96.9139 48.8453 96.6953 48.9653 96.5033 49.12C96.3166 49.2693 96.1566 49.448 96.0233 49.656C95.8953 49.864 95.8046 50.0933 95.7513 50.344C95.7086 50.4987 95.6446 50.6107 95.5593 50.68C95.4739 50.7493 95.3619 50.784 95.2233 50.784C95.1966 50.784 95.1673 50.784 95.1353 50.784C95.1086 50.7787 95.0766 50.7733 95.0393 50.768L94.2953 50.64C94.3699 50.1173 94.5139 49.656 94.7273 49.256C94.9406 48.8507 95.2099 48.512 95.5353 48.24C95.8659 47.968 96.2419 47.7627 96.6633 47.624C97.0899 47.48 97.5486 47.408 98.0393 47.408ZM111.513 53.272C111.513 54.2747 111.403 55.144 111.185 55.88C110.971 56.6107 110.678 57.216 110.305 57.696C109.931 58.176 109.489 58.5333 108.977 58.768C108.47 59.0027 107.926 59.12 107.345 59.12C106.758 59.12 106.211 59.0027 105.705 58.768C105.203 58.5333 104.766 58.176 104.393 57.696C104.019 57.216 103.726 56.6107 103.513 55.88C103.299 55.144 103.193 54.2747 103.193 53.272C103.193 52.2693 103.299 51.4 103.513 50.664C103.726 49.928 104.019 49.32 104.393 48.84C104.766 48.3547 105.203 47.9947 105.705 47.76C106.211 47.5253 106.758 47.408 107.345 47.408C107.926 47.408 108.47 47.5253 108.977 47.76C109.489 47.9947 109.931 48.3547 110.305 48.84C110.678 49.32 110.971 49.928 111.185 50.664C111.403 51.4 111.513 52.2693 111.513 53.272ZM110.033 53.272C110.033 52.3973 109.958 51.664 109.809 51.072C109.665 50.4747 109.467 49.9947 109.217 49.632C108.971 49.2693 108.686 49.0107 108.361 48.856C108.035 48.696 107.697 48.616 107.345 48.616C106.993 48.616 106.654 48.696 106.329 48.856C106.003 49.0107 105.718 49.2693 105.473 49.632C105.227 49.9947 105.03 50.4747 104.881 51.072C104.737 51.664 104.665 52.3973 104.665 53.272C104.665 54.1467 104.737 54.88 104.881 55.472C105.03 56.064 105.227 56.5413 105.473 56.904C105.718 57.2667 106.003 57.528 106.329 57.688C106.654 57.8427 106.993 57.92 107.345 57.92C107.697 57.92 108.035 57.8427 108.361 57.688C108.686 57.528 108.971 57.2667 109.217 56.904C109.467 56.5413 109.665 56.064 109.809 55.472C109.958 54.88 110.033 54.1467 110.033 53.272ZM120.994 53.272C120.994 54.2747 120.884 55.144 120.666 55.88C120.452 56.6107 120.159 57.216 119.786 57.696C119.412 58.176 118.97 58.5333 118.458 58.768C117.951 59.0027 117.407 59.12 116.826 59.12C116.239 59.12 115.692 59.0027 115.186 58.768C114.684 58.5333 114.247 58.176 113.874 57.696C113.5 57.216 113.207 56.6107 112.994 55.88C112.78 55.144 112.674 54.2747 112.674 53.272C112.674 52.2693 112.78 51.4 112.994 50.664C113.207 49.928 113.5 49.32 113.874 48.84C114.247 48.3547 114.684 47.9947 115.186 47.76C115.692 47.5253 116.239 47.408 116.826 47.408C117.407 47.408 117.951 47.5253 118.458 47.76C118.97 47.9947 119.412 48.3547 119.786 48.84C120.159 49.32 120.452 49.928 120.666 50.664C120.884 51.4 120.994 52.2693 120.994 53.272ZM119.514 53.272C119.514 52.3973 119.439 51.664 119.29 51.072C119.146 50.4747 118.948 49.9947 118.698 49.632C118.452 49.2693 118.167 49.0107 117.842 48.856C117.516 48.696 117.178 48.616 116.826 48.616C116.474 48.616 116.135 48.696 115.81 48.856C115.484 49.0107 115.199 49.2693 114.954 49.632C114.708 49.9947 114.511 50.4747 114.362 51.072C114.218 51.664 114.146 52.3973 114.146 53.272C114.146 54.1467 114.218 54.88 114.362 55.472C114.511 56.064 114.708 56.5413 114.954 56.904C115.199 57.2667 115.484 57.528 115.81 57.688C116.135 57.8427 116.474 57.92 116.826 57.92C117.178 57.92 117.516 57.8427 117.842 57.688C118.167 57.528 118.452 57.2667 118.698 56.904C118.948 56.5413 119.146 56.064 119.29 55.472C119.439 54.88 119.514 54.1467 119.514 53.272ZM130.475 53.272C130.475 54.2747 130.366 55.144 130.147 55.88C129.934 56.6107 129.64 57.216 129.267 57.696C128.894 58.176 128.451 58.5333 127.939 58.768C127.432 59.0027 126.888 59.12 126.307 59.12C125.72 59.12 125.174 59.0027 124.667 58.768C124.166 58.5333 123.728 58.176 123.355 57.696C122.982 57.216 122.688 56.6107 122.475 55.88C122.262 55.144 122.155 54.2747 122.155 53.272C122.155 52.2693 122.262 51.4 122.475 50.664C122.688 49.928 122.982 49.32 123.355 48.84C123.728 48.3547 124.166 47.9947 124.667 47.76C125.174 47.5253 125.72 47.408 126.307 47.408C126.888 47.408 127.432 47.5253 127.939 47.76C128.451 47.9947 128.894 48.3547 129.267 48.84C129.64 49.32 129.934 49.928 130.147 50.664C130.366 51.4 130.475 52.2693 130.475 53.272ZM128.995 53.272C128.995 52.3973 128.92 51.664 128.771 51.072C128.627 50.4747 128.43 49.9947 128.179 49.632C127.934 49.2693 127.648 49.0107 127.323 48.856C126.998 48.696 126.659 48.616 126.307 48.616C125.955 48.616 125.616 48.696 125.291 48.856C124.966 49.0107 124.68 49.2693 124.435 49.632C124.19 49.9947 123.992 50.4747 123.843 51.072C123.699 51.664 123.627 52.3973 123.627 53.272C123.627 54.1467 123.699 54.88 123.843 55.472C123.992 56.064 124.19 56.5413 124.435 56.904C124.68 57.2667 124.966 57.528 125.291 57.688C125.616 57.8427 125.955 57.92 126.307 57.92C126.659 57.92 126.998 57.8427 127.323 57.688C127.648 57.528 127.934 57.2667 128.179 56.904C128.43 56.5413 128.627 56.064 128.771 55.472C128.92 54.88 128.995 54.1467 128.995 53.272ZM137.202 50.896V59H135.778V50.896H137.202ZM137.522 48.352C137.522 48.4907 137.493 48.6213 137.434 48.744C137.381 48.8613 137.306 48.968 137.21 49.064C137.119 49.1547 137.013 49.2267 136.89 49.28C136.767 49.3333 136.637 49.36 136.498 49.36C136.359 49.36 136.229 49.3333 136.106 49.28C135.989 49.2267 135.882 49.1547 135.786 49.064C135.695 48.968 135.623 48.8613 135.57 48.744C135.517 48.6213 135.49 48.4907 135.49 48.352C135.49 48.2133 135.517 48.0827 135.57 47.96C135.623 47.832 135.695 47.7227 135.786 47.632C135.882 47.536 135.989 47.4613 136.106 47.408C136.229 47.3547 136.359 47.328 136.498 47.328C136.637 47.328 136.767 47.3547 136.89 47.408C137.013 47.4613 137.119 47.536 137.21 47.632C137.306 47.7227 137.381 47.832 137.434 47.96C137.493 48.0827 137.522 48.2133 137.522 48.352ZM142.368 59.128C141.728 59.128 141.234 58.9493 140.888 58.592C140.546 58.2347 140.376 57.72 140.376 57.048V52.088H139.4C139.314 52.088 139.242 52.064 139.184 52.016C139.125 51.9627 139.096 51.8827 139.096 51.776V51.208L140.424 51.04L140.752 48.536C140.762 48.456 140.797 48.392 140.856 48.344C140.914 48.2907 140.989 48.264 141.08 48.264H141.8V51.056H144.12V52.088H141.8V56.952C141.8 57.2933 141.882 57.5467 142.048 57.712C142.213 57.8773 142.426 57.96 142.688 57.96C142.837 57.96 142.965 57.9413 143.072 57.904C143.184 57.8613 143.28 57.816 143.36 57.768C143.44 57.72 143.506 57.6773 143.56 57.64C143.618 57.5973 143.669 57.576 143.712 57.576C143.786 57.576 143.853 57.6213 143.912 57.712L144.328 58.392C144.082 58.6213 143.786 58.8027 143.44 58.936C143.093 59.064 142.736 59.128 142.368 59.128ZM149.288 50.768C149.774 50.768 150.222 50.8507 150.632 51.016C151.043 51.176 151.398 51.4107 151.696 51.72C151.995 52.024 152.227 52.4027 152.392 52.856C152.563 53.304 152.648 53.816 152.648 54.392C152.648 54.616 152.624 54.7653 152.576 54.84C152.528 54.9147 152.438 54.952 152.304 54.952H146.912C146.923 55.464 146.992 55.9093 147.12 56.288C147.248 56.6667 147.424 56.984 147.648 57.24C147.872 57.4907 148.139 57.68 148.448 57.808C148.758 57.9307 149.104 57.992 149.488 57.992C149.846 57.992 150.152 57.952 150.408 57.872C150.67 57.7867 150.894 57.696 151.08 57.6C151.267 57.504 151.422 57.416 151.544 57.336C151.672 57.2507 151.782 57.208 151.872 57.208C151.99 57.208 152.08 57.2533 152.144 57.344L152.544 57.864C152.368 58.0773 152.158 58.264 151.912 58.424C151.667 58.5787 151.403 58.7067 151.12 58.808C150.843 58.9093 150.555 58.984 150.256 59.032C149.958 59.0853 149.662 59.112 149.368 59.112C148.808 59.112 148.291 59.0187 147.816 58.832C147.347 58.64 146.939 58.3627 146.592 58C146.251 57.632 145.984 57.1787 145.792 56.64C145.6 56.1013 145.504 55.4827 145.504 54.784C145.504 54.2187 145.59 53.6907 145.76 53.2C145.936 52.7093 146.187 52.2853 146.512 51.928C146.838 51.5653 147.235 51.2827 147.704 51.08C148.174 50.872 148.702 50.768 149.288 50.768ZM149.32 51.816C148.632 51.816 148.091 52.016 147.696 52.416C147.302 52.8107 147.056 53.36 146.96 54.064H151.368C151.368 53.7333 151.323 53.432 151.232 53.16C151.142 52.8827 151.008 52.6453 150.832 52.448C150.656 52.2453 150.44 52.0907 150.184 51.984C149.934 51.872 149.646 51.816 149.32 51.816ZM154.671 59V50.896H155.519C155.722 50.896 155.85 50.9947 155.903 51.192L156.007 52.024C156.306 51.656 156.639 51.3547 157.007 51.12C157.38 50.8853 157.812 50.768 158.303 50.768C158.852 50.768 159.295 50.92 159.631 51.224C159.972 51.528 160.218 51.9387 160.367 52.456C160.479 52.1627 160.626 51.9093 160.807 51.696C160.994 51.4827 161.202 51.3067 161.431 51.168C161.66 51.0293 161.903 50.928 162.159 50.864C162.42 50.8 162.684 50.768 162.951 50.768C163.378 50.768 163.756 50.8373 164.087 50.976C164.423 51.1093 164.706 51.3067 164.935 51.568C165.17 51.8293 165.348 52.152 165.471 52.536C165.594 52.9147 165.655 53.3493 165.655 53.84V59H164.231V53.84C164.231 53.2053 164.092 52.7253 163.815 52.4C163.538 52.0693 163.135 51.904 162.607 51.904C162.372 51.904 162.148 51.9467 161.935 52.032C161.727 52.112 161.543 52.232 161.383 52.392C161.223 52.552 161.095 52.7547 160.999 53C160.908 53.24 160.863 53.52 160.863 53.84V59H159.439V53.84C159.439 53.1893 159.308 52.704 159.047 52.384C158.786 52.064 158.404 51.904 157.903 51.904C157.551 51.904 157.223 52 156.919 52.192C156.62 52.3787 156.346 52.6347 156.095 52.96V59H154.671ZM172.652 52.232C172.588 52.3493 172.489 52.408 172.356 52.408C172.276 52.408 172.185 52.3787 172.084 52.32C171.982 52.2613 171.857 52.1973 171.708 52.128C171.564 52.0533 171.39 51.9867 171.188 51.928C170.985 51.864 170.745 51.832 170.468 51.832C170.228 51.832 170.012 51.864 169.82 51.928C169.628 51.9867 169.462 52.0693 169.324 52.176C169.19 52.2827 169.086 52.408 169.012 52.552C168.942 52.6907 168.908 52.8427 168.908 53.008C168.908 53.216 168.966 53.3893 169.084 53.528C169.206 53.6667 169.366 53.7867 169.564 53.888C169.761 53.9893 169.985 54.08 170.236 54.16C170.486 54.2347 170.742 54.3173 171.004 54.408C171.27 54.4933 171.529 54.5893 171.78 54.696C172.03 54.8027 172.254 54.936 172.452 55.096C172.649 55.256 172.806 55.4533 172.924 55.688C173.046 55.9173 173.108 56.1947 173.108 56.52C173.108 56.8933 173.041 57.24 172.908 57.56C172.774 57.8747 172.577 58.1493 172.316 58.384C172.054 58.6133 171.734 58.7947 171.356 58.928C170.977 59.0613 170.54 59.128 170.044 59.128C169.478 59.128 168.966 59.0373 168.508 58.856C168.049 58.6693 167.66 58.432 167.34 58.144L167.676 57.6C167.718 57.5307 167.769 57.4773 167.828 57.44C167.886 57.4027 167.964 57.384 168.06 57.384C168.156 57.384 168.257 57.4213 168.364 57.496C168.47 57.5707 168.598 57.6533 168.748 57.744C168.902 57.8347 169.086 57.9173 169.3 57.992C169.518 58.0667 169.79 58.104 170.116 58.104C170.393 58.104 170.636 58.0693 170.844 58C171.052 57.9253 171.225 57.8267 171.364 57.704C171.502 57.5813 171.604 57.44 171.668 57.28C171.737 57.12 171.772 56.9493 171.772 56.768C171.772 56.544 171.71 56.36 171.588 56.216C171.47 56.0667 171.313 55.9413 171.116 55.84C170.918 55.7333 170.692 55.6427 170.436 55.568C170.185 55.488 169.926 55.4053 169.66 55.32C169.398 55.2347 169.14 55.1387 168.884 55.032C168.633 54.92 168.409 54.7813 168.212 54.616C168.014 54.4507 167.854 54.248 167.732 54.008C167.614 53.7627 167.556 53.4667 167.556 53.12C167.556 52.8107 167.62 52.5147 167.748 52.232C167.876 51.944 168.062 51.6933 168.308 51.48C168.553 51.2613 168.854 51.088 169.212 50.96C169.569 50.832 169.977 50.768 170.436 50.768C170.969 50.768 171.446 50.8533 171.868 51.024C172.294 51.1893 172.662 51.4187 172.972 51.712L172.652 52.232Z" fill="black"/>
</svg>
