<svg width="1000" height="103" viewBox="0 0 1000 103" fill="none" xmlns="http://www.w3.org/2000/svg">
<rect width="1000" height="103" fill="white"/>
<rect x="66" y="36" width="4" height="24" fill="#32B5A5" fill-opacity="0.3"/>
<rect x="90" y="36" width="4" height="24" transform="rotate(90 90 36)" fill="#32B5A5" fill-opacity="0.3"/>
<rect x="90" y="56" width="4" height="24" transform="rotate(90 90 56)" fill="#32B5A5" fill-opacity="0.3"/>
<rect x="86" y="36" width="4" height="24" fill="#32B5A5" fill-opacity="0.3"/>
<line x1="66" y1="65.5" x2="90" y2="65.5" stroke="#979797"/>
<line x1="97.5" y1="36" x2="97.5" y2="60" stroke="#979797"/>
<path d="M69.005 75.755C69.3083 75.755 69.5917 75.8 69.855 75.89C70.1183 75.98 70.345 76.1117 70.535 76.285C70.7283 76.455 70.88 76.6633 70.99 76.91C71.1 77.1567 71.155 77.4367 71.155 77.75C71.155 78.0167 71.115 78.2633 71.035 78.49C70.955 78.7167 70.8467 78.935 70.71 79.145C70.5733 79.3517 70.415 79.5533 70.235 79.75C70.0583 79.9433 69.87 80.1417 69.67 80.345L67.785 82.275C67.9183 82.2383 68.0533 82.21 68.19 82.19C68.3267 82.1667 68.4583 82.155 68.585 82.155H70.985C71.0817 82.155 71.1583 82.1833 71.215 82.24C71.2717 82.2967 71.3 82.37 71.3 82.46V83H66.52V82.695C66.52 82.6317 66.5317 82.5667 66.555 82.5C66.5817 82.4333 66.6233 82.3717 66.68 82.315L68.975 80.01C69.165 79.8167 69.3383 79.6317 69.495 79.455C69.6517 79.275 69.785 79.095 69.895 78.915C70.0083 78.735 70.095 78.5533 70.155 78.37C70.215 78.1833 70.245 77.985 70.245 77.775C70.245 77.565 70.2117 77.3817 70.145 77.225C70.0783 77.065 69.9867 76.9333 69.87 76.83C69.7533 76.7267 69.6167 76.65 69.46 76.6C69.3033 76.5467 69.135 76.52 68.955 76.52C68.775 76.52 68.6083 76.5467 68.455 76.6C68.3017 76.6533 68.165 76.7283 68.045 76.825C67.9283 76.9183 67.8283 77.03 67.745 77.16C67.665 77.29 67.6083 77.4333 67.575 77.59C67.5483 77.6867 67.5083 77.7567 67.455 77.8C67.4017 77.8433 67.3317 77.865 67.245 77.865C67.2283 77.865 67.21 77.865 67.19 77.865C67.1733 77.8617 67.1533 77.8583 67.13 77.855L66.665 77.775C66.7117 77.4483 66.8017 77.16 66.935 76.91C67.0683 76.6567 67.2367 76.445 67.44 76.275C67.6467 76.105 67.8817 75.9767 68.145 75.89C68.4117 75.8 68.6983 75.755 69.005 75.755ZM76.3158 80.415H77.4008V80.925C77.4008 80.9783 77.3841 81.0233 77.3508 81.06C77.3208 81.0967 77.2724 81.115 77.2058 81.115H76.3158V83H75.5308V81.115H72.3558C72.2891 81.115 72.2308 81.0967 72.1808 81.06C72.1341 81.02 72.1041 80.9717 72.0908 80.915L72.0008 80.46L75.4858 75.835H76.3158V80.415ZM75.5308 77.46C75.5308 77.3733 75.5324 77.28 75.5358 77.18C75.5424 77.08 75.5541 76.9767 75.5708 76.87L72.9658 80.415H75.5308V77.46ZM78.3316 84.715V77.935H78.8616C78.9882 77.935 79.0682 77.9967 79.1016 78.12L79.1766 78.72C79.3932 78.4567 79.6399 78.245 79.9166 78.085C80.1966 77.925 80.5182 77.845 80.8816 77.845C81.1716 77.845 81.4349 77.9017 81.6716 78.015C81.9082 78.125 82.1099 78.29 82.2766 78.51C82.4432 78.7267 82.5716 78.9967 82.6616 79.32C82.7516 79.6433 82.7966 80.015 82.7966 80.435C82.7966 80.8083 82.7466 81.1567 82.6466 81.48C82.5466 81.8 82.4032 82.0783 82.2166 82.315C82.0299 82.5483 81.7999 82.7333 81.5266 82.87C81.2566 83.0033 80.9516 83.07 80.6116 83.07C80.2982 83.07 80.0299 83.0183 79.8066 82.915C79.5866 82.8117 79.3916 82.665 79.2216 82.475V84.715H78.3316ZM80.5866 78.565C80.2966 78.565 80.0416 78.6317 79.8216 78.765C79.6049 78.8983 79.4049 79.0867 79.2216 79.33V81.78C79.3849 82 79.5632 82.155 79.7566 82.245C79.9532 82.335 80.1716 82.38 80.4116 82.38C80.8816 82.38 81.2432 82.2117 81.4966 81.875C81.7499 81.5383 81.8766 81.0583 81.8766 80.435C81.8766 80.105 81.8466 79.8217 81.7866 79.585C81.7299 79.3483 81.6466 79.155 81.5366 79.005C81.4266 78.8517 81.2916 78.74 81.1316 78.67C80.9716 78.6 80.7899 78.565 80.5866 78.565ZM84.7314 80.405L83.0264 77.935H83.8814C83.9547 77.935 84.0081 77.9467 84.0414 77.97C84.0747 77.9933 84.1047 78.0267 84.1314 78.07L85.3714 79.97C85.4014 79.8767 85.4447 79.7833 85.5014 79.69L86.5914 78.09C86.6247 78.0433 86.6581 78.0067 86.6914 77.98C86.7247 77.95 86.7664 77.935 86.8164 77.935H87.6364L85.9314 80.355L87.7064 83H86.8514C86.7781 83 86.7197 82.9817 86.6764 82.945C86.6364 82.905 86.6031 82.8617 86.5764 82.815L85.3014 80.83C85.2781 80.9267 85.2431 81.0133 85.1964 81.09L84.0164 82.815C83.9831 82.8617 83.9464 82.905 83.9064 82.945C83.8697 82.9817 83.8181 83 83.7514 83H82.9564L84.7314 80.405Z" fill="#979797"/>
<path d="M110.005 42.755C110.308 42.755 110.592 42.8 110.855 42.89C111.118 42.98 111.345 43.1117 111.535 43.285C111.728 43.455 111.88 43.6633 111.99 43.91C112.1 44.1567 112.155 44.4367 112.155 44.75C112.155 45.0167 112.115 45.2633 112.035 45.49C111.955 45.7167 111.847 45.935 111.71 46.145C111.573 46.3517 111.415 46.5533 111.235 46.75C111.058 46.9433 110.87 47.1417 110.67 47.345L108.785 49.275C108.918 49.2383 109.053 49.21 109.19 49.19C109.327 49.1667 109.458 49.155 109.585 49.155H111.985C112.082 49.155 112.158 49.1833 112.215 49.24C112.272 49.2967 112.3 49.37 112.3 49.46V50H107.52V49.695C107.52 49.6317 107.532 49.5667 107.555 49.5C107.582 49.4333 107.623 49.3717 107.68 49.315L109.975 47.01C110.165 46.8167 110.338 46.6317 110.495 46.455C110.652 46.275 110.785 46.095 110.895 45.915C111.008 45.735 111.095 45.5533 111.155 45.37C111.215 45.1833 111.245 44.985 111.245 44.775C111.245 44.565 111.212 44.3817 111.145 44.225C111.078 44.065 110.987 43.9333 110.87 43.83C110.753 43.7267 110.617 43.65 110.46 43.6C110.303 43.5467 110.135 43.52 109.955 43.52C109.775 43.52 109.608 43.5467 109.455 43.6C109.302 43.6533 109.165 43.7283 109.045 43.825C108.928 43.9183 108.828 44.03 108.745 44.16C108.665 44.29 108.608 44.4333 108.575 44.59C108.548 44.6867 108.508 44.7567 108.455 44.8C108.402 44.8433 108.332 44.865 108.245 44.865C108.228 44.865 108.21 44.865 108.19 44.865C108.173 44.8617 108.153 44.8583 108.13 44.855L107.665 44.775C107.712 44.4483 107.802 44.16 107.935 43.91C108.068 43.6567 108.237 43.445 108.44 43.275C108.647 43.105 108.882 42.9767 109.145 42.89C109.412 42.8 109.698 42.755 110.005 42.755ZM117.316 47.415H118.401V47.925C118.401 47.9783 118.384 48.0233 118.351 48.06C118.321 48.0967 118.272 48.115 118.206 48.115H117.316V50H116.531V48.115H113.356C113.289 48.115 113.231 48.0967 113.181 48.06C113.134 48.02 113.104 47.9717 113.091 47.915L113.001 47.46L116.486 42.835H117.316V47.415ZM116.531 44.46C116.531 44.3733 116.532 44.28 116.536 44.18C116.542 44.08 116.554 43.9767 116.571 43.87L113.966 47.415H116.531V44.46ZM119.332 51.715V44.935H119.862C119.988 44.935 120.068 44.9967 120.102 45.12L120.177 45.72C120.393 45.4567 120.64 45.245 120.917 45.085C121.197 44.925 121.518 44.845 121.882 44.845C122.172 44.845 122.435 44.9017 122.672 45.015C122.908 45.125 123.11 45.29 123.277 45.51C123.443 45.7267 123.572 45.9967 123.662 46.32C123.752 46.6433 123.797 47.015 123.797 47.435C123.797 47.8083 123.747 48.1567 123.647 48.48C123.547 48.8 123.403 49.0783 123.217 49.315C123.03 49.5483 122.8 49.7333 122.527 49.87C122.257 50.0033 121.952 50.07 121.612 50.07C121.298 50.07 121.03 50.0183 120.807 49.915C120.587 49.8117 120.392 49.665 120.222 49.475V51.715H119.332ZM121.587 45.565C121.297 45.565 121.042 45.6317 120.822 45.765C120.605 45.8983 120.405 46.0867 120.222 46.33V48.78C120.385 49 120.563 49.155 120.757 49.245C120.953 49.335 121.172 49.38 121.412 49.38C121.882 49.38 122.243 49.2117 122.497 48.875C122.75 48.5383 122.877 48.0583 122.877 47.435C122.877 47.105 122.847 46.8217 122.787 46.585C122.73 46.3483 122.647 46.155 122.537 46.005C122.427 45.8517 122.292 45.74 122.132 45.67C121.972 45.6 121.79 45.565 121.587 45.565ZM125.731 47.405L124.026 44.935H124.881C124.955 44.935 125.008 44.9467 125.041 44.97C125.075 44.9933 125.105 45.0267 125.131 45.07L126.371 46.97C126.401 46.8767 126.445 46.7833 126.501 46.69L127.591 45.09C127.625 45.0433 127.658 45.0067 127.691 44.98C127.725 44.95 127.766 44.935 127.816 44.935H128.636L126.931 47.355L128.706 50H127.851C127.778 50 127.72 49.9817 127.676 49.945C127.636 49.905 127.603 49.8617 127.576 49.815L126.301 47.83C126.278 47.9267 126.243 48.0133 126.196 48.09L125.016 49.815C124.983 49.8617 124.946 49.905 124.906 49.945C124.87 49.9817 124.818 50 124.751 50H123.956L125.731 47.405Z" fill="#979797"/>
<rect x="69" y="40" width="17" height="17" fill="#32B5A5" fill-opacity="0.8"/>
<path d="M81.5 51H80.71L80.43 50.73C81.41 49.59 82 48.11 82 46.5C82 42.91 79.09 40 75.5 40C71.91 40 69 42.91 69 46.5C69 50.09 71.91 53 75.5 53C77.11 53 78.59 52.41 79.73 51.43L80 51.71V52.5L85 57.49L86.49 56L81.5 51ZM75.5 51C73.01 51 71 48.99 71 46.5C71 44.01 73.01 42 75.5 42C77.99 42 80 44.01 80 46.5C80 48.99 77.99 51 75.5 51Z" fill="black"/>
</svg>
