<svg width="1000" height="595" viewBox="0 0 1000 595" fill="none" xmlns="http://www.w3.org/2000/svg">
<rect width="1000" height="595" fill="white"/>
<rect x="98.5" y="496.5" width="239" height="39" rx="3.5" fill="#F5F7FA" stroke="#DCDFE6"/>
<rect x="100.5" y="387.5" width="239" height="39" rx="3.5" fill="white" stroke="#FA5555"/>
<path d="M116.022 412V404.909H116.764C116.941 404.909 117.053 404.995 117.1 405.168L117.191 405.896C117.452 405.574 117.744 405.31 118.066 405.105C118.393 404.9 118.771 404.797 119.2 404.797C119.681 404.797 120.068 404.93 120.362 405.196C120.661 405.462 120.875 405.821 121.006 406.274C121.104 406.017 121.232 405.796 121.391 405.609C121.554 405.422 121.736 405.268 121.937 405.147C122.138 405.026 122.35 404.937 122.574 404.881C122.803 404.825 123.034 404.797 123.267 404.797C123.64 404.797 123.972 404.858 124.261 404.979C124.555 405.096 124.802 405.268 125.003 405.497C125.208 405.726 125.365 406.008 125.472 406.344C125.579 406.675 125.633 407.056 125.633 407.485V412H124.387V407.485C124.387 406.93 124.266 406.51 124.023 406.225C123.78 405.936 123.428 405.791 122.966 405.791C122.761 405.791 122.565 405.828 122.378 405.903C122.196 405.973 122.035 406.078 121.895 406.218C121.755 406.358 121.643 406.535 121.559 406.75C121.48 406.96 121.44 407.205 121.44 407.485V412H120.194V407.485C120.194 406.916 120.08 406.491 119.851 406.211C119.622 405.931 119.289 405.791 118.85 405.791C118.542 405.791 118.255 405.875 117.989 406.043C117.728 406.206 117.487 406.43 117.268 406.715V412H116.022ZM130.327 404.797C130.752 404.797 131.144 404.869 131.503 405.014C131.862 405.154 132.173 405.359 132.434 405.63C132.695 405.896 132.898 406.227 133.043 406.624C133.192 407.016 133.267 407.464 133.267 407.968C133.267 408.164 133.246 408.295 133.204 408.36C133.162 408.425 133.083 408.458 132.966 408.458H128.248C128.257 408.906 128.318 409.296 128.43 409.627C128.542 409.958 128.696 410.236 128.892 410.46C129.088 410.679 129.321 410.845 129.592 410.957C129.863 411.064 130.166 411.118 130.502 411.118C130.815 411.118 131.083 411.083 131.307 411.013C131.536 410.938 131.732 410.859 131.895 410.775C132.058 410.691 132.194 410.614 132.301 410.544C132.413 410.469 132.509 410.432 132.588 410.432C132.691 410.432 132.77 410.472 132.826 410.551L133.176 411.006C133.022 411.193 132.838 411.356 132.623 411.496C132.408 411.631 132.177 411.743 131.93 411.832C131.687 411.921 131.435 411.986 131.174 412.028C130.913 412.075 130.654 412.098 130.397 412.098C129.907 412.098 129.454 412.016 129.039 411.853C128.628 411.685 128.271 411.442 127.968 411.125C127.669 410.803 127.436 410.406 127.268 409.935C127.1 409.464 127.016 408.922 127.016 408.311C127.016 407.816 127.091 407.354 127.24 406.925C127.394 406.496 127.613 406.125 127.898 405.812C128.183 405.495 128.53 405.247 128.941 405.07C129.352 404.888 129.814 404.797 130.327 404.797ZM130.355 405.714C129.753 405.714 129.279 405.889 128.934 406.239C128.589 406.584 128.374 407.065 128.29 407.681H132.147C132.147 407.392 132.107 407.128 132.028 406.89C131.949 406.647 131.832 406.44 131.678 406.267C131.524 406.09 131.335 405.954 131.111 405.861C130.892 405.763 130.64 405.714 130.355 405.714ZM139.37 409.039L138.782 412H138.215C138.108 412 138.017 411.96 137.942 411.881C137.867 411.802 137.83 411.699 137.83 411.573C137.83 411.554 137.83 411.538 137.83 411.524C137.835 411.505 137.839 411.484 137.844 411.461L138.341 409.039H136.612L136.115 411.524C136.078 411.697 136.005 411.82 135.898 411.895C135.795 411.965 135.676 412 135.541 412H134.988L135.583 409.039H134.561C134.454 409.039 134.37 409.013 134.309 408.962C134.248 408.906 134.218 408.813 134.218 408.682C134.218 408.659 134.218 408.633 134.218 408.605C134.223 408.577 134.227 408.549 134.232 408.521L134.288 408.122H135.716L136.171 405.84H134.547L134.638 405.322C134.661 405.187 134.715 405.086 134.799 405.021C134.883 404.956 135.016 404.923 135.198 404.923H136.304L136.808 402.417C136.836 402.277 136.899 402.167 136.997 402.088C137.1 402.009 137.221 401.969 137.361 401.969H137.921L137.333 404.923H139.062L139.65 401.969H140.203C140.32 401.969 140.415 402.004 140.49 402.074C140.569 402.144 140.609 402.235 140.609 402.347C140.609 402.384 140.607 402.415 140.602 402.438L140.091 404.923H141.575L141.484 405.448C141.461 405.583 141.405 405.684 141.316 405.749C141.232 405.81 141.101 405.84 140.924 405.84H139.958L139.503 408.122H140.756C140.868 408.122 140.954 408.15 141.015 408.206C141.076 408.257 141.106 408.351 141.106 408.486C141.106 408.509 141.104 408.535 141.099 408.563C141.099 408.586 141.097 408.612 141.092 408.64L141.029 409.039H139.37ZM136.745 408.122H138.474L138.929 405.84H137.2L136.745 408.122ZM145.132 412.112C144.572 412.112 144.14 411.956 143.837 411.643C143.538 411.33 143.389 410.88 143.389 410.292V405.952H142.535C142.46 405.952 142.397 405.931 142.346 405.889C142.295 405.842 142.269 405.772 142.269 405.679V405.182L143.431 405.035L143.718 402.844C143.727 402.774 143.758 402.718 143.809 402.676C143.86 402.629 143.926 402.606 144.005 402.606H144.635V405.049H146.665V405.952H144.635V410.208C144.635 410.507 144.707 410.728 144.852 410.873C144.997 411.018 145.183 411.09 145.412 411.09C145.543 411.09 145.655 411.074 145.748 411.041C145.846 411.004 145.93 410.964 146 410.922C146.07 410.88 146.128 410.843 146.175 410.81C146.226 410.773 146.271 410.754 146.308 410.754C146.373 410.754 146.432 410.794 146.483 410.873L146.847 411.468C146.632 411.669 146.373 411.827 146.07 411.944C145.767 412.056 145.454 412.112 145.132 412.112ZM149.592 404.909V412H148.346V404.909H149.592ZM149.872 402.683C149.872 402.804 149.846 402.919 149.795 403.026C149.748 403.129 149.683 403.222 149.599 403.306C149.519 403.385 149.426 403.448 149.319 403.495C149.211 403.542 149.097 403.565 148.976 403.565C148.854 403.565 148.74 403.542 148.633 403.495C148.53 403.448 148.437 403.385 148.353 403.306C148.273 403.222 148.21 403.129 148.164 403.026C148.117 402.919 148.094 402.804 148.094 402.683C148.094 402.562 148.117 402.447 148.164 402.34C148.21 402.228 148.273 402.132 148.353 402.053C148.437 401.969 148.53 401.904 148.633 401.857C148.74 401.81 148.854 401.787 148.976 401.787C149.097 401.787 149.211 401.81 149.319 401.857C149.426 401.904 149.519 401.969 149.599 402.053C149.683 402.132 149.748 402.228 149.795 402.34C149.846 402.447 149.872 402.562 149.872 402.683ZM153.174 401.689V412H151.928V401.689H153.174ZM156.756 401.689V412H155.51V401.689H156.756ZM158.952 412V401.689H160.198V405.861C160.501 405.539 160.837 405.282 161.206 405.091C161.574 404.895 161.999 404.797 162.48 404.797C162.867 404.797 163.208 404.862 163.502 404.993C163.8 405.119 164.048 405.301 164.244 405.539C164.444 405.772 164.596 406.055 164.699 406.386C164.801 406.717 164.853 407.084 164.853 407.485V412H163.607V407.485C163.607 406.948 163.483 406.533 163.236 406.239C162.993 405.94 162.62 405.791 162.116 405.791C161.747 405.791 161.402 405.88 161.08 406.057C160.762 406.234 160.468 406.475 160.198 406.778V412H158.952ZM167.809 404.909V409.431C167.809 409.968 167.933 410.383 168.18 410.677C168.427 410.971 168.801 411.118 169.3 411.118C169.664 411.118 170.007 411.032 170.329 410.859C170.651 410.686 170.947 410.446 171.218 410.138V404.909H172.464V412H171.722C171.545 412 171.433 411.914 171.386 411.741L171.288 410.978C170.98 411.319 170.635 411.594 170.252 411.804C169.869 412.009 169.431 412.112 168.936 412.112C168.549 412.112 168.206 412.049 167.907 411.923C167.613 411.792 167.366 411.61 167.165 411.377C166.964 411.144 166.813 410.861 166.71 410.53C166.612 410.199 166.563 409.832 166.563 409.431V404.909H167.809ZM174.552 412V401.689H175.805V405.931C176.099 405.59 176.435 405.317 176.813 405.112C177.196 404.902 177.632 404.797 178.122 404.797C178.533 404.797 178.904 404.874 179.235 405.028C179.567 405.182 179.849 405.413 180.082 405.721C180.316 406.024 180.495 406.402 180.621 406.855C180.747 407.303 180.81 407.821 180.81 408.409C180.81 408.932 180.74 409.419 180.6 409.872C180.46 410.32 180.257 410.71 179.991 411.041C179.73 411.368 179.408 411.627 179.025 411.818C178.647 412.005 178.22 412.098 177.744 412.098C177.287 412.098 176.897 412.009 176.575 411.832C176.258 411.655 175.98 411.407 175.742 411.09L175.679 411.734C175.642 411.911 175.535 412 175.357 412H174.552ZM177.716 405.791C177.31 405.791 176.953 405.884 176.645 406.071C176.342 406.258 176.062 406.521 175.805 406.862V410.292C176.029 410.6 176.277 410.817 176.547 410.943C176.823 411.069 177.128 411.132 177.464 411.132C178.127 411.132 178.636 410.896 178.99 410.425C179.345 409.954 179.522 409.282 179.522 408.409C179.522 407.947 179.48 407.55 179.396 407.219C179.317 406.888 179.2 406.617 179.046 406.407C178.892 406.192 178.703 406.036 178.479 405.938C178.255 405.84 178.001 405.791 177.716 405.791ZM181.925 411.23C181.925 411.109 181.946 410.994 181.988 410.887C182.034 410.78 182.095 410.686 182.17 410.607C182.249 410.528 182.342 410.465 182.45 410.418C182.557 410.371 182.671 410.348 182.793 410.348C182.914 410.348 183.028 410.371 183.136 410.418C183.243 410.465 183.336 410.528 183.416 410.607C183.495 410.686 183.556 410.78 183.598 410.887C183.644 410.994 183.668 411.109 183.668 411.23C183.668 411.356 183.644 411.473 183.598 411.58C183.556 411.683 183.495 411.774 183.416 411.853C183.336 411.932 183.243 411.993 183.136 412.035C183.028 412.082 182.914 412.105 182.793 412.105C182.671 412.105 182.557 412.082 182.45 412.035C182.342 411.993 182.249 411.932 182.17 411.853C182.095 411.774 182.034 411.683 181.988 411.58C181.946 411.473 181.925 411.356 181.925 411.23ZM190.288 412C190.111 412 189.999 411.914 189.952 411.741L189.84 410.88C189.537 411.249 189.189 411.545 188.797 411.769C188.41 411.988 187.964 412.098 187.46 412.098C187.054 412.098 186.686 412.021 186.354 411.867C186.023 411.708 185.741 411.477 185.507 411.174C185.274 410.871 185.094 410.493 184.968 410.04C184.842 409.587 184.779 409.067 184.779 408.479C184.779 407.956 184.849 407.471 184.989 407.023C185.129 406.57 185.33 406.178 185.591 405.847C185.857 405.516 186.179 405.257 186.557 405.07C186.935 404.879 187.365 404.783 187.845 404.783C188.279 404.783 188.65 404.858 188.958 405.007C189.266 405.152 189.542 405.357 189.784 405.623V401.689H191.03V412H190.288ZM187.873 411.09C188.279 411.09 188.634 410.997 188.937 410.81C189.245 410.623 189.528 410.36 189.784 410.019V406.589C189.556 406.281 189.304 406.066 189.028 405.945C188.758 405.819 188.457 405.756 188.125 405.756C187.463 405.756 186.954 405.992 186.599 406.463C186.245 406.934 186.067 407.606 186.067 408.479C186.067 408.941 186.107 409.338 186.186 409.669C186.266 409.996 186.382 410.266 186.536 410.481C186.69 410.691 186.879 410.845 187.103 410.943C187.327 411.041 187.584 411.09 187.873 411.09ZM195.925 404.797C196.349 404.797 196.741 404.869 197.101 405.014C197.46 405.154 197.77 405.359 198.032 405.63C198.293 405.896 198.496 406.227 198.641 406.624C198.79 407.016 198.865 407.464 198.865 407.968C198.865 408.164 198.844 408.295 198.802 408.36C198.76 408.425 198.68 408.458 198.564 408.458H193.846C193.855 408.906 193.916 409.296 194.028 409.627C194.14 409.958 194.294 410.236 194.49 410.46C194.686 410.679 194.919 410.845 195.19 410.957C195.46 411.064 195.764 411.118 196.1 411.118C196.412 411.118 196.681 411.083 196.905 411.013C197.133 410.938 197.329 410.859 197.493 410.775C197.656 410.691 197.791 410.614 197.899 410.544C198.011 410.469 198.106 410.432 198.186 410.432C198.288 410.432 198.368 410.472 198.424 410.551L198.774 411.006C198.62 411.193 198.435 411.356 198.221 411.496C198.006 411.631 197.775 411.743 197.528 411.832C197.285 411.921 197.033 411.986 196.772 412.028C196.51 412.075 196.251 412.098 195.995 412.098C195.505 412.098 195.052 412.016 194.637 411.853C194.226 411.685 193.869 411.442 193.566 411.125C193.267 410.803 193.034 410.406 192.866 409.935C192.698 409.464 192.614 408.922 192.614 408.311C192.614 407.816 192.688 407.354 192.838 406.925C192.992 406.496 193.211 406.125 193.496 405.812C193.78 405.495 194.128 405.247 194.539 405.07C194.949 404.888 195.411 404.797 195.925 404.797ZM195.953 405.714C195.351 405.714 194.877 405.889 194.532 406.239C194.186 406.584 193.972 407.065 193.888 407.681H197.745C197.745 407.392 197.705 407.128 197.626 406.89C197.546 406.647 197.43 406.44 197.276 406.267C197.122 406.09 196.933 405.954 196.709 405.861C196.489 405.763 196.237 405.714 195.953 405.714Z" fill="#5A5E66"/>
<rect x="98.5" y="283.5" width="239" height="39" rx="3.5" stroke="#67C23A"/>
<path d="M114.022 308V300.909H114.764C114.941 300.909 115.053 300.995 115.1 301.168L115.191 301.896C115.452 301.574 115.744 301.31 116.066 301.105C116.393 300.9 116.771 300.797 117.2 300.797C117.681 300.797 118.068 300.93 118.362 301.196C118.661 301.462 118.875 301.821 119.006 302.274C119.104 302.017 119.232 301.796 119.391 301.609C119.554 301.422 119.736 301.268 119.937 301.147C120.138 301.026 120.35 300.937 120.574 300.881C120.803 300.825 121.034 300.797 121.267 300.797C121.64 300.797 121.972 300.858 122.261 300.979C122.555 301.096 122.802 301.268 123.003 301.497C123.208 301.726 123.365 302.008 123.472 302.344C123.579 302.675 123.633 303.056 123.633 303.485V308H122.387V303.485C122.387 302.93 122.266 302.51 122.023 302.225C121.78 301.936 121.428 301.791 120.966 301.791C120.761 301.791 120.565 301.828 120.378 301.903C120.196 301.973 120.035 302.078 119.895 302.218C119.755 302.358 119.643 302.535 119.559 302.75C119.48 302.96 119.44 303.205 119.44 303.485V308H118.194V303.485C118.194 302.916 118.08 302.491 117.851 302.211C117.622 301.931 117.289 301.791 116.85 301.791C116.542 301.791 116.255 301.875 115.989 302.043C115.728 302.206 115.487 302.43 115.268 302.715V308H114.022ZM128.327 300.797C128.752 300.797 129.144 300.869 129.503 301.014C129.862 301.154 130.173 301.359 130.434 301.63C130.695 301.896 130.898 302.227 131.043 302.624C131.192 303.016 131.267 303.464 131.267 303.968C131.267 304.164 131.246 304.295 131.204 304.36C131.162 304.425 131.083 304.458 130.966 304.458H126.248C126.257 304.906 126.318 305.296 126.43 305.627C126.542 305.958 126.696 306.236 126.892 306.46C127.088 306.679 127.321 306.845 127.592 306.957C127.863 307.064 128.166 307.118 128.502 307.118C128.815 307.118 129.083 307.083 129.307 307.013C129.536 306.938 129.732 306.859 129.895 306.775C130.058 306.691 130.194 306.614 130.301 306.544C130.413 306.469 130.509 306.432 130.588 306.432C130.691 306.432 130.77 306.472 130.826 306.551L131.176 307.006C131.022 307.193 130.838 307.356 130.623 307.496C130.408 307.631 130.177 307.743 129.93 307.832C129.687 307.921 129.435 307.986 129.174 308.028C128.913 308.075 128.654 308.098 128.397 308.098C127.907 308.098 127.454 308.016 127.039 307.853C126.628 307.685 126.271 307.442 125.968 307.125C125.669 306.803 125.436 306.406 125.268 305.935C125.1 305.464 125.016 304.922 125.016 304.311C125.016 303.816 125.091 303.354 125.24 302.925C125.394 302.496 125.613 302.125 125.898 301.812C126.183 301.495 126.53 301.247 126.941 301.07C127.352 300.888 127.814 300.797 128.327 300.797ZM128.355 301.714C127.753 301.714 127.279 301.889 126.934 302.239C126.589 302.584 126.374 303.065 126.29 303.681H130.147C130.147 303.392 130.107 303.128 130.028 302.89C129.949 302.647 129.832 302.44 129.678 302.267C129.524 302.09 129.335 301.954 129.111 301.861C128.892 301.763 128.64 301.714 128.355 301.714ZM140.009 306.698C139.645 306.698 139.349 306.612 139.12 306.439C138.891 306.262 138.747 305.991 138.686 305.627C138.415 306.005 138.121 306.276 137.804 306.439C137.487 306.602 137.146 306.684 136.782 306.684C136.502 306.684 136.259 306.637 136.054 306.544C135.849 306.446 135.676 306.313 135.536 306.145C135.401 305.972 135.298 305.769 135.228 305.536C135.163 305.303 135.13 305.051 135.13 304.78C135.13 304.383 135.205 303.984 135.354 303.583C135.508 303.177 135.734 302.813 136.033 302.491C136.332 302.164 136.703 301.898 137.146 301.693C137.594 301.488 138.11 301.385 138.693 301.385C139.006 301.385 139.279 301.411 139.512 301.462C139.75 301.509 139.974 301.579 140.184 301.672L139.533 304.199C139.444 304.549 139.4 304.838 139.4 305.067C139.4 305.235 139.421 305.375 139.463 305.487C139.505 305.594 139.561 305.681 139.631 305.746C139.706 305.807 139.79 305.849 139.883 305.872C139.981 305.895 140.084 305.907 140.191 305.907C140.42 305.907 140.637 305.842 140.842 305.711C141.047 305.58 141.227 305.396 141.381 305.158C141.54 304.92 141.663 304.635 141.752 304.304C141.845 303.968 141.892 303.597 141.892 303.191C141.892 302.547 141.787 301.982 141.577 301.497C141.372 301.012 141.087 300.608 140.723 300.286C140.364 299.959 139.937 299.717 139.442 299.558C138.952 299.395 138.422 299.313 137.853 299.313C137.228 299.313 136.642 299.432 136.096 299.67C135.55 299.908 135.074 300.237 134.668 300.657C134.262 301.077 133.942 301.574 133.709 302.148C133.476 302.722 133.359 303.347 133.359 304.024C133.359 304.817 133.483 305.515 133.73 306.117C133.982 306.714 134.323 307.216 134.752 307.622C135.186 308.028 135.692 308.334 136.271 308.539C136.854 308.744 137.48 308.847 138.147 308.847C138.856 308.847 139.482 308.77 140.023 308.616C140.569 308.462 141.04 308.266 141.437 308.028C141.507 307.986 141.57 307.965 141.626 307.965C141.724 307.965 141.796 308.021 141.843 308.133L142.018 308.595C141.519 308.931 140.949 309.195 140.31 309.386C139.675 309.577 138.954 309.673 138.147 309.673C137.34 309.673 136.588 309.545 135.893 309.288C135.198 309.031 134.593 308.66 134.08 308.175C133.571 307.694 133.17 307.104 132.876 306.404C132.587 305.704 132.442 304.911 132.442 304.024C132.442 303.515 132.505 303.025 132.631 302.554C132.762 302.083 132.944 301.644 133.177 301.238C133.41 300.827 133.69 300.454 134.017 300.118C134.344 299.777 134.708 299.488 135.109 299.25C135.51 299.007 135.942 298.821 136.404 298.69C136.866 298.555 137.349 298.487 137.853 298.487C138.282 298.487 138.702 298.534 139.113 298.627C139.524 298.72 139.911 298.858 140.275 299.04C140.644 299.222 140.982 299.448 141.29 299.719C141.598 299.985 141.862 300.293 142.081 300.643C142.305 300.988 142.478 301.376 142.599 301.805C142.725 302.23 142.788 302.692 142.788 303.191C142.788 303.695 142.716 304.162 142.571 304.591C142.431 305.016 142.235 305.384 141.983 305.697C141.736 306.01 141.442 306.255 141.101 306.432C140.765 306.609 140.401 306.698 140.009 306.698ZM137.027 305.858C137.172 305.858 137.316 305.835 137.461 305.788C137.61 305.741 137.753 305.66 137.888 305.543C138.028 305.426 138.154 305.268 138.266 305.067C138.383 304.866 138.481 304.614 138.56 304.311L139.092 302.246C138.91 302.204 138.712 302.183 138.497 302.183C138.147 302.183 137.825 302.258 137.531 302.407C137.242 302.552 136.992 302.743 136.782 302.981C136.572 303.219 136.406 303.492 136.285 303.8C136.168 304.108 136.11 304.423 136.11 304.745C136.11 305.081 136.187 305.352 136.341 305.557C136.495 305.758 136.724 305.858 137.027 305.858ZM146.523 308.112C145.963 308.112 145.531 307.956 145.228 307.643C144.929 307.33 144.78 306.88 144.78 306.292V301.952H143.926C143.851 301.952 143.788 301.931 143.737 301.889C143.685 301.842 143.66 301.772 143.66 301.679V301.182L144.822 301.035L145.109 298.844C145.118 298.774 145.148 298.718 145.2 298.676C145.251 298.629 145.316 298.606 145.396 298.606H146.026V301.049H148.056V301.952H146.026V306.208C146.026 306.507 146.098 306.728 146.243 306.873C146.387 307.018 146.574 307.09 146.803 307.09C146.933 307.09 147.045 307.074 147.139 307.041C147.237 307.004 147.321 306.964 147.391 306.922C147.461 306.88 147.519 306.843 147.566 306.81C147.617 306.773 147.661 306.754 147.699 306.754C147.764 306.754 147.822 306.794 147.874 306.873L148.238 307.468C148.023 307.669 147.764 307.827 147.461 307.944C147.157 308.056 146.845 308.112 146.523 308.112ZM150.982 300.909V308H149.736V300.909H150.982ZM151.262 298.683C151.262 298.804 151.237 298.919 151.185 299.026C151.139 299.129 151.073 299.222 150.989 299.306C150.91 299.385 150.817 299.448 150.709 299.495C150.602 299.542 150.488 299.565 150.366 299.565C150.245 299.565 150.131 299.542 150.023 299.495C149.921 299.448 149.827 299.385 149.743 299.306C149.664 299.222 149.601 299.129 149.554 299.026C149.508 298.919 149.484 298.804 149.484 298.683C149.484 298.562 149.508 298.447 149.554 298.34C149.601 298.228 149.664 298.132 149.743 298.053C149.827 297.969 149.921 297.904 150.023 297.857C150.131 297.81 150.245 297.787 150.366 297.787C150.488 297.787 150.602 297.81 150.709 297.857C150.817 297.904 150.91 297.969 150.989 298.053C151.073 298.132 151.139 298.228 151.185 298.34C151.237 298.447 151.262 298.562 151.262 298.683ZM154.564 297.689V308H153.318V297.689H154.564ZM158.146 297.689V308H156.9V297.689H158.146ZM160.342 308V297.689H161.588V301.861C161.892 301.539 162.228 301.282 162.596 301.091C162.965 300.895 163.39 300.797 163.87 300.797C164.258 300.797 164.598 300.862 164.892 300.993C165.191 301.119 165.438 301.301 165.634 301.539C165.835 301.772 165.987 302.055 166.089 302.386C166.192 302.717 166.243 303.084 166.243 303.485V308H164.997V303.485C164.997 302.948 164.874 302.533 164.626 302.239C164.384 301.94 164.01 301.791 163.506 301.791C163.138 301.791 162.792 301.88 162.47 302.057C162.153 302.234 161.859 302.475 161.588 302.778V308H160.342ZM169.2 300.909V305.431C169.2 305.968 169.323 306.383 169.571 306.677C169.818 306.971 170.191 307.118 170.691 307.118C171.055 307.118 171.398 307.032 171.72 306.859C172.042 306.686 172.338 306.446 172.609 306.138V300.909H173.855V308H173.113C172.935 308 172.823 307.914 172.777 307.741L172.679 306.978C172.371 307.319 172.025 307.594 171.643 307.804C171.26 308.009 170.821 308.112 170.327 308.112C169.939 308.112 169.596 308.049 169.298 307.923C169.004 307.792 168.756 307.61 168.556 307.377C168.355 307.144 168.203 306.861 168.101 306.53C168.003 306.199 167.954 305.832 167.954 305.431V300.909H169.2ZM175.943 308V297.689H177.196V301.931C177.49 301.59 177.826 301.317 178.204 301.112C178.587 300.902 179.023 300.797 179.513 300.797C179.924 300.797 180.295 300.874 180.626 301.028C180.957 301.182 181.24 301.413 181.473 301.721C181.706 302.024 181.886 302.402 182.012 302.855C182.138 303.303 182.201 303.821 182.201 304.409C182.201 304.932 182.131 305.419 181.991 305.872C181.851 306.32 181.648 306.71 181.382 307.041C181.121 307.368 180.799 307.627 180.416 307.818C180.038 308.005 179.611 308.098 179.135 308.098C178.678 308.098 178.288 308.009 177.966 307.832C177.649 307.655 177.371 307.407 177.133 307.09L177.07 307.734C177.033 307.911 176.925 308 176.748 308H175.943ZM179.107 301.791C178.701 301.791 178.344 301.884 178.036 302.071C177.733 302.258 177.453 302.521 177.196 302.862V306.292C177.42 306.6 177.667 306.817 177.938 306.943C178.213 307.069 178.519 307.132 178.855 307.132C179.518 307.132 180.026 306.896 180.381 306.425C180.736 305.954 180.913 305.282 180.913 304.409C180.913 303.947 180.871 303.55 180.787 303.219C180.708 302.888 180.591 302.617 180.437 302.407C180.283 302.192 180.094 302.036 179.87 301.938C179.646 301.84 179.392 301.791 179.107 301.791ZM183.315 307.23C183.315 307.109 183.336 306.994 183.378 306.887C183.425 306.78 183.486 306.686 183.56 306.607C183.64 306.528 183.733 306.465 183.84 306.418C183.948 306.371 184.062 306.348 184.183 306.348C184.305 306.348 184.419 306.371 184.526 306.418C184.634 306.465 184.727 306.528 184.806 306.607C184.886 306.686 184.946 306.78 184.988 306.887C185.035 306.994 185.058 307.109 185.058 307.23C185.058 307.356 185.035 307.473 184.988 307.58C184.946 307.683 184.886 307.774 184.806 307.853C184.727 307.932 184.634 307.993 184.526 308.035C184.419 308.082 184.305 308.105 184.183 308.105C184.062 308.105 183.948 308.082 183.84 308.035C183.733 307.993 183.64 307.932 183.56 307.853C183.486 307.774 183.425 307.683 183.378 307.58C183.336 307.473 183.315 307.356 183.315 307.23ZM191.679 308C191.502 308 191.39 307.914 191.343 307.741L191.231 306.88C190.928 307.249 190.58 307.545 190.188 307.769C189.801 307.988 189.355 308.098 188.851 308.098C188.445 308.098 188.076 308.021 187.745 307.867C187.414 307.708 187.131 307.477 186.898 307.174C186.665 306.871 186.485 306.493 186.359 306.04C186.233 305.587 186.17 305.067 186.17 304.479C186.17 303.956 186.24 303.471 186.38 303.023C186.52 302.57 186.721 302.178 186.982 301.847C187.248 301.516 187.57 301.257 187.948 301.07C188.326 300.879 188.755 300.783 189.236 300.783C189.67 300.783 190.041 300.858 190.349 301.007C190.657 301.152 190.932 301.357 191.175 301.623V297.689H192.421V308H191.679ZM189.264 307.09C189.67 307.09 190.025 306.997 190.328 306.81C190.636 306.623 190.918 306.36 191.175 306.019V302.589C190.946 302.281 190.694 302.066 190.419 301.945C190.148 301.819 189.847 301.756 189.516 301.756C188.853 301.756 188.345 301.992 187.99 302.463C187.635 302.934 187.458 303.606 187.458 304.479C187.458 304.941 187.498 305.338 187.577 305.669C187.656 305.996 187.773 306.266 187.927 306.481C188.081 306.691 188.27 306.845 188.494 306.943C188.718 307.041 188.975 307.09 189.264 307.09ZM197.315 300.797C197.74 300.797 198.132 300.869 198.491 301.014C198.851 301.154 199.161 301.359 199.422 301.63C199.684 301.896 199.887 302.227 200.031 302.624C200.181 303.016 200.255 303.464 200.255 303.968C200.255 304.164 200.234 304.295 200.192 304.36C200.15 304.425 200.071 304.458 199.954 304.458H195.236C195.246 304.906 195.306 305.296 195.418 305.627C195.53 305.958 195.684 306.236 195.88 306.46C196.076 306.679 196.31 306.845 196.58 306.957C196.851 307.064 197.154 307.118 197.49 307.118C197.803 307.118 198.071 307.083 198.295 307.013C198.524 306.938 198.72 306.859 198.883 306.775C199.047 306.691 199.182 306.614 199.289 306.544C199.401 306.469 199.497 306.432 199.576 306.432C199.679 306.432 199.758 306.472 199.814 306.551L200.164 307.006C200.01 307.193 199.826 307.356 199.611 307.496C199.397 307.631 199.166 307.743 198.918 307.832C198.676 307.921 198.424 307.986 198.162 308.028C197.901 308.075 197.642 308.098 197.385 308.098C196.895 308.098 196.443 308.016 196.027 307.853C195.617 307.685 195.26 307.442 194.956 307.125C194.658 306.803 194.424 306.406 194.256 305.935C194.088 305.464 194.004 304.922 194.004 304.311C194.004 303.816 194.079 303.354 194.228 302.925C194.382 302.496 194.602 302.125 194.886 301.812C195.171 301.495 195.519 301.247 195.929 301.07C196.34 300.888 196.802 300.797 197.315 300.797ZM197.343 301.714C196.741 301.714 196.268 301.889 195.922 302.239C195.577 302.584 195.362 303.065 195.278 303.681H199.135C199.135 303.392 199.096 303.128 199.016 302.89C198.937 302.647 198.82 302.44 198.666 302.267C198.512 302.09 198.323 301.954 198.099 301.861C197.88 301.763 197.628 301.714 197.343 301.714Z" fill="#303133"/>
<rect x="98.5" y="179.5" width="239" height="39" rx="3.5" stroke="#C0C4CC"/>
<rect x="98.5" y="77.5" width="239" height="39" rx="3.5" stroke="#DCDFE6"/>
<path d="M99.507 44.1185C99.6023 44.1185 99.672 44.1313 99.716 44.157C99.7637 44.179 99.8168 44.2267 99.8755 44.3L104.441 50.24C104.43 50.1447 104.422 50.053 104.419 49.965C104.415 49.8733 104.413 49.7853 104.413 49.701V44.1185H105.348V52H104.809C104.725 52 104.653 51.9853 104.595 51.956C104.54 51.9267 104.485 51.8772 104.43 51.8075L99.87 45.873C99.8773 45.9647 99.8828 46.0545 99.8865 46.1425C99.8902 46.2305 99.892 46.3112 99.892 46.3845V52H98.957V44.1185H99.507ZM109.372 46.3405C109.779 46.3405 110.146 46.4083 110.472 46.544C110.802 46.6797 111.081 46.8722 111.308 47.1215C111.539 47.3708 111.715 47.6733 111.836 48.029C111.961 48.381 112.023 48.7752 112.023 49.2115C112.023 49.6515 111.961 50.0475 111.836 50.3995C111.715 50.7515 111.539 51.0522 111.308 51.3015C111.081 51.5508 110.802 51.7433 110.472 51.879C110.146 52.011 109.779 52.077 109.372 52.077C108.965 52.077 108.597 52.011 108.267 51.879C107.941 51.7433 107.662 51.5508 107.431 51.3015C107.2 51.0522 107.022 50.7515 106.897 50.3995C106.773 50.0475 106.71 49.6515 106.71 49.2115C106.71 48.7752 106.773 48.381 106.897 48.029C107.022 47.6733 107.2 47.3708 107.431 47.1215C107.662 46.8722 107.941 46.6797 108.267 46.544C108.597 46.4083 108.965 46.3405 109.372 46.3405ZM109.372 51.3125C109.922 51.3125 110.333 51.1292 110.604 50.7625C110.876 50.3922 111.011 49.877 111.011 49.217C111.011 48.5533 110.876 48.0363 110.604 47.666C110.333 47.2957 109.922 47.1105 109.372 47.1105C109.094 47.1105 108.852 47.1582 108.646 47.2535C108.441 47.3488 108.269 47.4863 108.129 47.666C107.994 47.8457 107.891 48.0675 107.821 48.3315C107.755 48.5918 107.722 48.887 107.722 49.217C107.722 49.547 107.755 49.8422 107.821 50.1025C107.891 50.3628 107.994 50.5828 108.129 50.7625C108.269 50.9385 108.441 51.0742 108.646 51.1695C108.852 51.2648 109.094 51.3125 109.372 51.3125ZM113.23 52V46.4285H113.791C113.897 46.4285 113.97 46.4487 114.011 46.489C114.051 46.5293 114.079 46.599 114.093 46.698L114.159 47.567C114.35 47.1783 114.585 46.8758 114.863 46.6595C115.146 46.4395 115.476 46.3295 115.853 46.3295C116.007 46.3295 116.147 46.3478 116.271 46.3845C116.396 46.4175 116.511 46.4652 116.618 46.5275L116.491 47.259C116.466 47.3507 116.409 47.3965 116.321 47.3965C116.269 47.3965 116.191 47.38 116.084 47.347C115.978 47.3103 115.829 47.292 115.639 47.292C115.298 47.292 115.012 47.391 114.781 47.589C114.553 47.787 114.363 48.0748 114.209 48.4525V52H113.23ZM117.666 52V46.4285H118.249C118.389 46.4285 118.477 46.4963 118.513 46.632L118.585 47.204C118.79 46.951 119.019 46.7438 119.272 46.5825C119.529 46.4212 119.826 46.3405 120.163 46.3405C120.541 46.3405 120.845 46.445 121.076 46.654C121.311 46.863 121.48 47.1453 121.582 47.501C121.659 47.2993 121.76 47.1252 121.885 46.9785C122.013 46.8318 122.156 46.7108 122.314 46.6155C122.471 46.5202 122.638 46.4505 122.814 46.4065C122.994 46.3625 123.175 46.3405 123.359 46.3405C123.652 46.3405 123.912 46.3882 124.14 46.4835C124.371 46.5752 124.565 46.7108 124.723 46.8905C124.884 47.0702 125.007 47.292 125.091 47.556C125.176 47.8163 125.218 48.1152 125.218 48.4525V52H124.239V48.4525C124.239 48.0162 124.143 47.6862 123.953 47.4625C123.762 47.2352 123.485 47.1215 123.122 47.1215C122.961 47.1215 122.807 47.1508 122.66 47.2095C122.517 47.2645 122.391 47.347 122.281 47.457C122.171 47.567 122.083 47.7063 122.017 47.875C121.954 48.04 121.923 48.2325 121.923 48.4525V52H120.944V48.4525C120.944 48.0052 120.854 47.6715 120.675 47.4515C120.495 47.2315 120.233 47.1215 119.888 47.1215C119.646 47.1215 119.421 47.1875 119.212 47.3195C119.006 47.4478 118.818 47.6238 118.645 47.8475V52H117.666ZM130.792 52H130.358C130.263 52 130.186 51.9853 130.127 51.956C130.068 51.9267 130.03 51.8643 130.011 51.769L129.901 51.252C129.755 51.384 129.612 51.5032 129.472 51.6095C129.333 51.7122 129.186 51.8002 129.032 51.8735C128.878 51.9432 128.713 51.9963 128.537 52.033C128.365 52.0697 128.173 52.088 127.96 52.088C127.744 52.088 127.54 52.0587 127.349 52C127.162 51.9377 126.999 51.846 126.86 51.725C126.721 51.604 126.609 51.4518 126.524 51.2685C126.444 51.0815 126.403 50.8615 126.403 50.6085C126.403 50.3885 126.464 50.1777 126.585 49.976C126.706 49.7707 126.9 49.5892 127.168 49.4315C127.439 49.2738 127.793 49.1455 128.229 49.0465C128.666 48.9438 129.199 48.8852 129.83 48.8705V48.436C129.83 48.0033 129.736 47.677 129.549 47.457C129.366 47.2333 129.093 47.1215 128.73 47.1215C128.492 47.1215 128.29 47.1527 128.125 47.215C127.964 47.2737 127.822 47.3415 127.701 47.4185C127.584 47.4918 127.481 47.5597 127.393 47.622C127.309 47.6807 127.225 47.71 127.14 47.71C127.074 47.71 127.016 47.6935 126.964 47.6605C126.917 47.6238 126.878 47.5798 126.849 47.5285L126.673 47.215C126.981 46.918 127.313 46.6962 127.668 46.5495C128.024 46.4028 128.418 46.3295 128.851 46.3295C129.163 46.3295 129.439 46.3808 129.681 46.4835C129.923 46.5862 130.127 46.7292 130.292 46.9125C130.457 47.0958 130.582 47.3177 130.666 47.578C130.75 47.8383 130.792 48.1243 130.792 48.436V52ZM128.251 51.4005C128.424 51.4005 128.581 51.384 128.724 51.351C128.867 51.3143 129.001 51.2648 129.126 51.2025C129.254 51.1365 129.375 51.0577 129.489 50.966C129.606 50.8743 129.72 50.7698 129.83 50.6525V49.492C129.379 49.5067 128.996 49.5433 128.68 49.602C128.365 49.657 128.108 49.7303 127.91 49.822C127.712 49.9137 127.568 50.0218 127.476 50.1465C127.388 50.2712 127.344 50.4105 127.344 50.5645C127.344 50.7112 127.368 50.8377 127.415 50.944C127.463 51.0503 127.527 51.1383 127.608 51.208C127.689 51.274 127.784 51.3235 127.894 51.3565C128.004 51.3858 128.123 51.4005 128.251 51.4005ZM133.365 43.8985V52H132.386V43.8985H133.365Z" fill="#979797"/>
<path d="M107.348 154H106.276V150.414H102.03V154H100.957V146.118H102.03V149.633H106.276V146.118H107.348V154ZM111.372 148.34C111.779 148.34 112.146 148.408 112.472 148.544C112.802 148.68 113.081 148.872 113.308 149.121C113.539 149.371 113.715 149.673 113.836 150.029C113.961 150.381 114.023 150.775 114.023 151.211C114.023 151.651 113.961 152.047 113.836 152.399C113.715 152.751 113.539 153.052 113.308 153.301C113.081 153.551 112.802 153.743 112.472 153.879C112.146 154.011 111.779 154.077 111.372 154.077C110.965 154.077 110.597 154.011 110.267 153.879C109.941 153.743 109.662 153.551 109.431 153.301C109.2 153.052 109.022 152.751 108.897 152.399C108.773 152.047 108.71 151.651 108.71 151.211C108.71 150.775 108.773 150.381 108.897 150.029C109.022 149.673 109.2 149.371 109.431 149.121C109.662 148.872 109.941 148.68 110.267 148.544C110.597 148.408 110.965 148.34 111.372 148.34ZM111.372 153.312C111.922 153.312 112.333 153.129 112.604 152.762C112.876 152.392 113.011 151.877 113.011 151.217C113.011 150.553 112.876 150.036 112.604 149.666C112.333 149.296 111.922 149.11 111.372 149.11C111.094 149.11 110.852 149.158 110.646 149.253C110.441 149.349 110.269 149.486 110.129 149.666C109.994 149.846 109.891 150.067 109.821 150.331C109.755 150.592 109.722 150.887 109.722 151.217C109.722 151.547 109.755 151.842 109.821 152.102C109.891 152.363 109.994 152.583 110.129 152.762C110.269 152.938 110.441 153.074 110.646 153.169C110.852 153.265 111.094 153.312 111.372 153.312ZM114.386 148.428H115.189C115.266 148.428 115.33 148.449 115.382 148.489C115.433 148.529 115.47 148.577 115.492 148.632L116.905 152.218C116.956 152.35 116.997 152.482 117.026 152.614C117.055 152.746 117.083 152.876 117.109 153.004C117.138 152.876 117.169 152.746 117.202 152.614C117.235 152.482 117.277 152.35 117.329 152.218L118.759 148.632C118.781 148.573 118.815 148.526 118.863 148.489C118.914 148.449 118.977 148.428 119.05 148.428H119.815L117.543 154H116.658L114.386 148.428ZM122.785 148.34C123.119 148.34 123.427 148.397 123.709 148.511C123.991 148.621 124.235 148.782 124.44 148.995C124.646 149.204 124.805 149.464 124.919 149.776C125.036 150.084 125.095 150.436 125.095 150.832C125.095 150.986 125.078 151.089 125.045 151.14C125.012 151.191 124.95 151.217 124.858 151.217H121.151C121.159 151.569 121.206 151.875 121.294 152.135C121.382 152.396 121.503 152.614 121.657 152.79C121.811 152.962 121.995 153.092 122.207 153.18C122.42 153.265 122.658 153.307 122.922 153.307C123.168 153.307 123.379 153.279 123.555 153.224C123.735 153.166 123.889 153.103 124.017 153.037C124.145 152.971 124.252 152.911 124.336 152.856C124.424 152.797 124.499 152.768 124.561 152.768C124.642 152.768 124.704 152.799 124.748 152.861L125.023 153.219C124.902 153.366 124.758 153.494 124.589 153.604C124.42 153.71 124.239 153.798 124.044 153.868C123.854 153.938 123.656 153.989 123.45 154.022C123.245 154.059 123.042 154.077 122.84 154.077C122.455 154.077 122.099 154.013 121.773 153.884C121.45 153.752 121.17 153.562 120.931 153.312C120.697 153.059 120.513 152.748 120.381 152.377C120.249 152.007 120.183 151.582 120.183 151.101C120.183 150.713 120.242 150.35 120.359 150.012C120.48 149.675 120.653 149.384 120.876 149.138C121.1 148.889 121.373 148.694 121.696 148.555C122.019 148.412 122.382 148.34 122.785 148.34ZM122.807 149.061C122.334 149.061 121.962 149.198 121.69 149.473C121.419 149.745 121.25 150.122 121.184 150.606H124.215C124.215 150.379 124.184 150.172 124.121 149.985C124.059 149.794 123.967 149.631 123.846 149.495C123.725 149.356 123.577 149.25 123.401 149.176C123.229 149.099 123.031 149.061 122.807 149.061ZM126.348 154V148.428H126.909C127.015 148.428 127.089 148.449 127.129 148.489C127.169 148.529 127.197 148.599 127.211 148.698L127.277 149.567C127.468 149.178 127.703 148.876 127.981 148.659C128.264 148.439 128.594 148.329 128.971 148.329C129.125 148.329 129.265 148.348 129.389 148.384C129.514 148.417 129.63 148.465 129.736 148.527L129.609 149.259C129.584 149.351 129.527 149.396 129.439 149.396C129.388 149.396 129.309 149.38 129.202 149.347C129.096 149.31 128.948 149.292 128.757 149.292C128.416 149.292 128.13 149.391 127.899 149.589C127.672 149.787 127.481 150.075 127.327 150.452V154H126.348Z" fill="#979797"/>
<path d="M104.994 249.35C104.961 249.405 104.926 249.448 104.89 249.477C104.853 249.503 104.805 249.515 104.747 249.515C104.684 249.515 104.611 249.484 104.527 249.422C104.446 249.36 104.341 249.292 104.213 249.218C104.088 249.141 103.936 249.072 103.757 249.009C103.581 248.947 103.366 248.916 103.113 248.916C102.875 248.916 102.664 248.949 102.481 249.015C102.297 249.077 102.143 249.163 102.019 249.273C101.898 249.383 101.806 249.514 101.744 249.664C101.681 249.811 101.65 249.97 101.65 250.142C101.65 250.362 101.703 250.546 101.81 250.692C101.92 250.835 102.063 250.958 102.239 251.061C102.418 251.164 102.62 251.253 102.844 251.33C103.071 251.404 103.302 251.481 103.537 251.561C103.775 251.642 104.006 251.734 104.23 251.836C104.457 251.935 104.659 252.062 104.835 252.216C105.014 252.37 105.157 252.559 105.264 252.782C105.374 253.006 105.429 253.281 105.429 253.607C105.429 253.952 105.37 254.277 105.253 254.581C105.135 254.882 104.963 255.144 104.736 255.367C104.512 255.591 104.235 255.767 103.905 255.895C103.579 256.024 103.207 256.088 102.789 256.088C102.279 256.088 101.813 255.996 101.392 255.813C100.974 255.626 100.616 255.375 100.319 255.059L100.627 254.553C100.656 254.513 100.691 254.48 100.732 254.454C100.776 254.425 100.823 254.41 100.875 254.41C100.952 254.41 101.04 254.453 101.139 254.537C101.238 254.618 101.36 254.707 101.507 254.806C101.657 254.905 101.837 254.997 102.046 255.081C102.259 255.162 102.517 255.202 102.822 255.202C103.075 255.202 103.3 255.168 103.498 255.098C103.696 255.028 103.863 254.931 103.999 254.806C104.138 254.678 104.244 254.526 104.318 254.35C104.391 254.174 104.428 253.978 104.428 253.761C104.428 253.523 104.373 253.329 104.263 253.178C104.156 253.024 104.015 252.896 103.839 252.793C103.663 252.691 103.461 252.605 103.234 252.535C103.01 252.462 102.779 252.388 102.541 252.315C102.306 252.238 102.075 252.15 101.848 252.051C101.624 251.952 101.425 251.824 101.249 251.666C101.073 251.508 100.93 251.312 100.82 251.077C100.713 250.839 100.66 250.546 100.66 250.197C100.66 249.919 100.713 249.649 100.82 249.389C100.93 249.129 101.087 248.898 101.293 248.696C101.498 248.494 101.751 248.333 102.052 248.212C102.356 248.091 102.704 248.03 103.097 248.03C103.537 248.03 103.938 248.1 104.301 248.239C104.664 248.379 104.981 248.58 105.253 248.844L104.994 249.35ZM107.483 250.428V253.981C107.483 254.403 107.58 254.729 107.775 254.96C107.969 255.191 108.262 255.307 108.655 255.307C108.941 255.307 109.21 255.239 109.463 255.103C109.716 254.968 109.949 254.779 110.162 254.537V250.428H111.141V256H110.558C110.418 256 110.33 255.932 110.294 255.796L110.217 255.197C109.975 255.465 109.703 255.681 109.403 255.846C109.102 256.007 108.757 256.088 108.369 256.088C108.064 256.088 107.795 256.039 107.56 255.939C107.329 255.837 107.135 255.694 106.977 255.51C106.819 255.327 106.7 255.105 106.62 254.845C106.543 254.585 106.504 254.297 106.504 253.981V250.428H107.483ZM116.549 251.418C116.519 251.459 116.49 251.49 116.461 251.512C116.431 251.534 116.389 251.545 116.334 251.545C116.279 251.545 116.219 251.523 116.153 251.479C116.09 251.431 116.01 251.38 115.911 251.325C115.812 251.27 115.691 251.22 115.548 251.176C115.408 251.129 115.236 251.105 115.031 251.105C114.759 251.105 114.519 251.154 114.31 251.253C114.101 251.349 113.925 251.488 113.782 251.671C113.643 251.855 113.537 252.077 113.463 252.337C113.394 252.597 113.359 252.889 113.359 253.211C113.359 253.549 113.397 253.849 113.474 254.113C113.551 254.374 113.659 254.594 113.799 254.773C113.938 254.949 114.107 255.085 114.305 255.18C114.506 255.272 114.732 255.318 114.981 255.318C115.22 255.318 115.416 255.29 115.57 255.235C115.724 255.177 115.852 255.113 115.955 255.043C116.057 254.973 116.142 254.911 116.208 254.856C116.274 254.797 116.34 254.768 116.406 254.768C116.49 254.768 116.552 254.799 116.593 254.861L116.868 255.219C116.626 255.516 116.323 255.734 115.96 255.873C115.597 256.009 115.214 256.077 114.811 256.077C114.462 256.077 114.138 256.013 113.837 255.884C113.54 255.756 113.282 255.571 113.062 255.329C112.842 255.083 112.668 254.783 112.539 254.427C112.415 254.071 112.352 253.666 112.352 253.211C112.352 252.797 112.409 252.414 112.523 252.062C112.64 251.71 112.809 251.407 113.029 251.154C113.252 250.898 113.527 250.698 113.854 250.555C114.18 250.412 114.554 250.34 114.976 250.34C115.364 250.34 115.709 250.405 116.01 250.533C116.31 250.658 116.576 250.835 116.807 251.066L116.549 251.418ZM121.684 251.418C121.654 251.459 121.625 251.49 121.596 251.512C121.566 251.534 121.524 251.545 121.469 251.545C121.414 251.545 121.354 251.523 121.288 251.479C121.225 251.431 121.145 251.38 121.046 251.325C120.947 251.27 120.826 251.22 120.683 251.176C120.543 251.129 120.371 251.105 120.166 251.105C119.894 251.105 119.654 251.154 119.445 251.253C119.236 251.349 119.06 251.488 118.917 251.671C118.778 251.855 118.671 252.077 118.598 252.337C118.528 252.597 118.494 252.889 118.494 253.211C118.494 253.549 118.532 253.849 118.609 254.113C118.686 254.374 118.794 254.594 118.934 254.773C119.073 254.949 119.242 255.085 119.44 255.18C119.641 255.272 119.867 255.318 120.116 255.318C120.354 255.318 120.551 255.29 120.705 255.235C120.859 255.177 120.987 255.113 121.09 255.043C121.192 254.973 121.277 254.911 121.343 254.856C121.409 254.797 121.475 254.768 121.541 254.768C121.625 254.768 121.687 254.799 121.728 254.861L122.003 255.219C121.761 255.516 121.458 255.734 121.095 255.873C120.732 256.009 120.349 256.077 119.946 256.077C119.597 256.077 119.273 256.013 118.972 255.884C118.675 255.756 118.417 255.571 118.197 255.329C117.977 255.083 117.802 254.783 117.674 254.427C117.549 254.071 117.487 253.666 117.487 253.211C117.487 252.797 117.544 252.414 117.658 252.062C117.775 251.71 117.944 251.407 118.164 251.154C118.387 250.898 118.662 250.698 118.989 250.555C119.315 250.412 119.689 250.34 120.111 250.34C120.499 250.34 120.844 250.405 121.145 250.533C121.445 250.658 121.711 250.835 121.942 251.066L121.684 251.418ZM125.223 250.34C125.557 250.34 125.865 250.397 126.147 250.511C126.43 250.621 126.674 250.782 126.879 250.995C127.084 251.204 127.244 251.464 127.357 251.776C127.475 252.084 127.533 252.436 127.533 252.832C127.533 252.986 127.517 253.089 127.484 253.14C127.451 253.191 127.389 253.217 127.297 253.217H123.59C123.597 253.569 123.645 253.875 123.733 254.135C123.821 254.396 123.942 254.614 124.096 254.79C124.25 254.962 124.433 255.092 124.646 255.18C124.859 255.265 125.097 255.307 125.361 255.307C125.607 255.307 125.817 255.279 125.993 255.224C126.173 255.166 126.327 255.103 126.455 255.037C126.584 254.971 126.69 254.911 126.774 254.856C126.862 254.797 126.938 254.768 127 254.768C127.081 254.768 127.143 254.799 127.187 254.861L127.462 255.219C127.341 255.366 127.196 255.494 127.027 255.604C126.859 255.71 126.677 255.798 126.483 255.868C126.292 255.938 126.094 255.989 125.889 256.022C125.684 256.059 125.48 256.077 125.278 256.077C124.893 256.077 124.538 256.013 124.211 255.884C123.889 255.752 123.608 255.562 123.37 255.312C123.135 255.059 122.952 254.748 122.82 254.377C122.688 254.007 122.622 253.582 122.622 253.101C122.622 252.713 122.681 252.35 122.798 252.012C122.919 251.675 123.091 251.384 123.315 251.138C123.539 250.889 123.812 250.694 124.134 250.555C124.457 250.412 124.82 250.34 125.223 250.34ZM125.245 251.061C124.772 251.061 124.4 251.198 124.129 251.473C123.858 251.745 123.689 252.122 123.623 252.606H126.653C126.653 252.379 126.622 252.172 126.56 251.985C126.498 251.794 126.406 251.631 126.285 251.495C126.164 251.356 126.015 251.25 125.839 251.176C125.667 251.099 125.469 251.061 125.245 251.061ZM131.976 251.347C131.932 251.428 131.865 251.468 131.773 251.468C131.718 251.468 131.656 251.448 131.586 251.407C131.516 251.367 131.43 251.323 131.327 251.275C131.228 251.224 131.109 251.178 130.97 251.138C130.831 251.094 130.666 251.072 130.475 251.072C130.31 251.072 130.161 251.094 130.029 251.138C129.897 251.178 129.784 251.235 129.688 251.308C129.597 251.382 129.525 251.468 129.474 251.567C129.426 251.662 129.402 251.767 129.402 251.88C129.402 252.023 129.443 252.143 129.523 252.238C129.608 252.333 129.718 252.416 129.853 252.485C129.989 252.555 130.143 252.617 130.315 252.672C130.488 252.724 130.664 252.781 130.843 252.843C131.027 252.902 131.205 252.968 131.377 253.041C131.549 253.114 131.703 253.206 131.839 253.316C131.975 253.426 132.083 253.562 132.163 253.723C132.248 253.881 132.29 254.071 132.29 254.295C132.29 254.552 132.244 254.79 132.152 255.01C132.061 255.226 131.925 255.415 131.745 255.576C131.566 255.734 131.346 255.859 131.085 255.95C130.825 256.042 130.524 256.088 130.183 256.088C129.795 256.088 129.443 256.026 129.127 255.901C128.812 255.773 128.544 255.609 128.324 255.411L128.555 255.037C128.585 254.99 128.62 254.953 128.66 254.927C128.7 254.902 128.753 254.889 128.819 254.889C128.885 254.889 128.955 254.915 129.028 254.966C129.102 255.017 129.19 255.074 129.292 255.136C129.399 255.199 129.525 255.256 129.672 255.307C129.822 255.358 130.009 255.384 130.233 255.384C130.424 255.384 130.59 255.36 130.733 255.312C130.876 255.261 130.996 255.193 131.091 255.109C131.186 255.025 131.256 254.927 131.3 254.817C131.348 254.707 131.371 254.59 131.371 254.465C131.371 254.311 131.329 254.185 131.245 254.086C131.164 253.983 131.056 253.897 130.92 253.827C130.785 253.754 130.629 253.692 130.453 253.64C130.281 253.585 130.103 253.529 129.919 253.47C129.74 253.411 129.562 253.345 129.386 253.272C129.214 253.195 129.06 253.1 128.924 252.986C128.788 252.872 128.678 252.733 128.594 252.568C128.513 252.399 128.473 252.196 128.473 251.957C128.473 251.745 128.517 251.541 128.605 251.347C128.693 251.149 128.821 250.977 128.99 250.83C129.159 250.68 129.366 250.56 129.611 250.473C129.857 250.384 130.138 250.34 130.453 250.34C130.82 250.34 131.148 250.399 131.437 250.516C131.731 250.63 131.984 250.788 132.196 250.989L131.976 251.347ZM136.746 251.347C136.702 251.428 136.634 251.468 136.542 251.468C136.487 251.468 136.425 251.448 136.355 251.407C136.286 251.367 136.2 251.323 136.097 251.275C135.998 251.224 135.879 251.178 135.739 251.138C135.6 251.094 135.435 251.072 135.244 251.072C135.079 251.072 134.931 251.094 134.799 251.138C134.667 251.178 134.553 251.235 134.458 251.308C134.366 251.382 134.295 251.468 134.243 251.567C134.196 251.662 134.172 251.767 134.172 251.88C134.172 252.023 134.212 252.143 134.293 252.238C134.377 252.333 134.487 252.416 134.623 252.485C134.759 252.555 134.913 252.617 135.085 252.672C135.257 252.724 135.433 252.781 135.613 252.843C135.796 252.902 135.974 252.968 136.146 253.041C136.319 253.114 136.473 253.206 136.608 253.316C136.744 253.426 136.852 253.562 136.933 253.723C137.017 253.881 137.059 254.071 137.059 254.295C137.059 254.552 137.014 254.79 136.922 255.01C136.83 255.226 136.695 255.415 136.515 255.576C136.335 255.734 136.115 255.859 135.855 255.95C135.595 256.042 135.294 256.088 134.953 256.088C134.564 256.088 134.212 256.026 133.897 255.901C133.582 255.773 133.314 255.609 133.094 255.411L133.325 255.037C133.354 254.99 133.389 254.953 133.429 254.927C133.47 254.902 133.523 254.889 133.589 254.889C133.655 254.889 133.725 254.915 133.798 254.966C133.871 255.017 133.959 255.074 134.062 255.136C134.168 255.199 134.295 255.256 134.441 255.307C134.592 255.358 134.779 255.384 135.002 255.384C135.193 255.384 135.36 255.36 135.503 255.312C135.646 255.261 135.765 255.193 135.86 255.109C135.956 255.025 136.025 254.927 136.069 254.817C136.117 254.707 136.141 254.59 136.141 254.465C136.141 254.311 136.099 254.185 136.014 254.086C135.934 253.983 135.826 253.897 135.69 253.827C135.554 253.754 135.398 253.692 135.222 253.64C135.05 253.585 134.872 253.529 134.689 253.47C134.509 253.411 134.331 253.345 134.155 253.272C133.983 253.195 133.829 253.1 133.693 252.986C133.558 252.872 133.448 252.733 133.363 252.568C133.283 252.399 133.242 252.196 133.242 251.957C133.242 251.745 133.286 251.541 133.374 251.347C133.462 251.149 133.591 250.977 133.759 250.83C133.928 250.68 134.135 250.56 134.381 250.473C134.627 250.384 134.907 250.34 135.222 250.34C135.589 250.34 135.917 250.399 136.207 250.516C136.5 250.63 136.753 250.788 136.966 250.989L136.746 251.347Z" fill="#979797"/>
<path d="M105.814 352.118V352.987H102.03V355.605H105.093V356.441H102.03V359.131H105.814V360H100.957V352.118H105.814ZM107.195 360V354.428H107.756C107.862 354.428 107.935 354.449 107.976 354.489C108.016 354.529 108.043 354.599 108.058 354.698L108.124 355.567C108.315 355.178 108.549 354.876 108.828 354.659C109.11 354.439 109.44 354.329 109.818 354.329C109.972 354.329 110.111 354.348 110.236 354.384C110.361 354.417 110.476 354.465 110.583 354.527L110.456 355.259C110.43 355.351 110.374 355.396 110.286 355.396C110.234 355.396 110.155 355.38 110.049 355.347C109.943 355.31 109.794 355.292 109.604 355.292C109.263 355.292 108.977 355.391 108.746 355.589C108.518 355.787 108.328 356.075 108.174 356.452V360H107.195ZM111.631 360V354.428H112.192C112.298 354.428 112.372 354.449 112.412 354.489C112.452 354.529 112.48 354.599 112.495 354.698L112.561 355.567C112.751 355.178 112.986 354.876 113.265 354.659C113.547 354.439 113.877 354.329 114.255 354.329C114.409 354.329 114.548 354.348 114.673 354.384C114.797 354.417 114.913 354.465 115.019 354.527L114.893 355.259C114.867 355.351 114.81 355.396 114.722 355.396C114.671 355.396 114.592 355.38 114.486 355.347C114.379 355.31 114.231 355.292 114.04 355.292C113.699 355.292 113.413 355.391 113.182 355.589C112.955 355.787 112.764 356.075 112.61 356.452V360H111.631ZM118.323 354.34C118.73 354.34 119.096 354.408 119.423 354.544C119.753 354.68 120.031 354.872 120.259 355.121C120.49 355.371 120.666 355.673 120.787 356.029C120.911 356.381 120.974 356.775 120.974 357.211C120.974 357.651 120.911 358.047 120.787 358.399C120.666 358.751 120.49 359.052 120.259 359.301C120.031 359.551 119.753 359.743 119.423 359.879C119.096 360.011 118.73 360.077 118.323 360.077C117.916 360.077 117.547 360.011 117.217 359.879C116.891 359.743 116.612 359.551 116.381 359.301C116.15 359.052 115.972 358.751 115.848 358.399C115.723 358.047 115.661 357.651 115.661 357.211C115.661 356.775 115.723 356.381 115.848 356.029C115.972 355.673 116.15 355.371 116.381 355.121C116.612 354.872 116.891 354.68 117.217 354.544C117.547 354.408 117.916 354.34 118.323 354.34ZM118.323 359.312C118.873 359.312 119.283 359.129 119.555 358.762C119.826 358.392 119.962 357.877 119.962 357.217C119.962 356.553 119.826 356.036 119.555 355.666C119.283 355.296 118.873 355.11 118.323 355.11C118.044 355.11 117.802 355.158 117.597 355.253C117.391 355.349 117.219 355.486 117.08 355.666C116.944 355.846 116.841 356.067 116.772 356.331C116.706 356.592 116.673 356.887 116.673 357.217C116.673 357.547 116.706 357.842 116.772 358.102C116.841 358.363 116.944 358.583 117.08 358.762C117.219 358.938 117.391 359.074 117.597 359.169C117.802 359.265 118.044 359.312 118.323 359.312ZM122.18 360V354.428H122.741C122.847 354.428 122.921 354.449 122.961 354.489C123.001 354.529 123.029 354.599 123.043 354.698L123.109 355.567C123.3 355.178 123.535 354.876 123.813 354.659C124.096 354.439 124.426 354.329 124.803 354.329C124.957 354.329 125.097 354.348 125.221 354.384C125.346 354.417 125.462 354.465 125.568 354.527L125.441 355.259C125.416 355.351 125.359 355.396 125.271 355.396C125.22 355.396 125.141 355.38 125.034 355.347C124.928 355.31 124.78 355.292 124.589 355.292C124.248 355.292 123.962 355.391 123.731 355.589C123.504 355.787 123.313 356.075 123.159 356.452V360H122.18Z" fill="#979797"/>
<path d="M107.788 465.062C107.788 465.652 107.695 466.189 107.508 466.673C107.321 467.157 107.057 467.572 106.716 467.916C106.375 468.261 105.966 468.529 105.489 468.719C105.012 468.906 104.484 469 103.905 469H100.957V461.118H103.905C104.484 461.118 105.012 461.214 105.489 461.404C105.966 461.591 106.375 461.859 106.716 462.207C107.057 462.552 107.321 462.966 107.508 463.45C107.695 463.934 107.788 464.472 107.788 465.062ZM106.694 465.062C106.694 464.578 106.628 464.145 106.496 463.764C106.364 463.383 106.177 463.06 105.934 462.796C105.693 462.532 105.399 462.33 105.055 462.191C104.71 462.052 104.327 461.982 103.905 461.982H102.03V468.136H103.905C104.327 468.136 104.71 468.067 105.055 467.927C105.399 467.788 105.693 467.588 105.934 467.328C106.177 467.064 106.364 466.741 106.496 466.36C106.628 465.979 106.694 465.546 106.694 465.062ZM110.174 463.428V469H109.195V463.428H110.174ZM110.394 461.679C110.394 461.775 110.374 461.865 110.334 461.949C110.297 462.03 110.246 462.103 110.18 462.169C110.117 462.231 110.044 462.281 109.96 462.317C109.875 462.354 109.786 462.372 109.69 462.372C109.595 462.372 109.505 462.354 109.421 462.317C109.34 462.281 109.267 462.231 109.201 462.169C109.138 462.103 109.089 462.03 109.052 461.949C109.016 461.865 108.997 461.775 108.997 461.679C108.997 461.584 109.016 461.494 109.052 461.41C109.089 461.322 109.138 461.247 109.201 461.184C109.267 461.118 109.34 461.067 109.421 461.03C109.505 460.994 109.595 460.975 109.69 460.975C109.786 460.975 109.875 460.994 109.96 461.03C110.044 461.067 110.117 461.118 110.18 461.184C110.246 461.247 110.297 461.322 110.334 461.41C110.374 461.494 110.394 461.584 110.394 461.679ZM115.09 464.347C115.046 464.428 114.978 464.468 114.886 464.468C114.831 464.468 114.769 464.448 114.699 464.407C114.63 464.367 114.543 464.323 114.441 464.275C114.342 464.224 114.223 464.178 114.083 464.138C113.944 464.094 113.779 464.072 113.588 464.072C113.423 464.072 113.275 464.094 113.143 464.138C113.011 464.178 112.897 464.235 112.802 464.308C112.71 464.382 112.639 464.468 112.587 464.567C112.54 464.662 112.516 464.767 112.516 464.88C112.516 465.023 112.556 465.143 112.637 465.238C112.721 465.333 112.831 465.416 112.967 465.485C113.102 465.555 113.256 465.617 113.429 465.672C113.601 465.724 113.777 465.781 113.957 465.843C114.14 465.902 114.318 465.968 114.49 466.041C114.663 466.114 114.817 466.206 114.952 466.316C115.088 466.426 115.196 466.562 115.277 466.723C115.361 466.881 115.403 467.071 115.403 467.295C115.403 467.552 115.357 467.79 115.266 468.01C115.174 468.226 115.038 468.415 114.859 468.576C114.679 468.734 114.459 468.859 114.199 468.95C113.938 469.042 113.638 469.088 113.297 469.088C112.908 469.088 112.556 469.026 112.241 468.901C111.925 468.773 111.658 468.609 111.438 468.411L111.669 468.037C111.698 467.99 111.733 467.953 111.773 467.927C111.814 467.902 111.867 467.889 111.933 467.889C111.999 467.889 112.068 467.915 112.142 467.966C112.215 468.017 112.303 468.074 112.406 468.136C112.512 468.199 112.639 468.256 112.785 468.307C112.936 468.358 113.123 468.384 113.346 468.384C113.537 468.384 113.704 468.36 113.847 468.312C113.99 468.261 114.109 468.193 114.204 468.109C114.3 468.025 114.369 467.927 114.413 467.817C114.461 467.707 114.485 467.59 114.485 467.465C114.485 467.311 114.443 467.185 114.358 467.086C114.278 466.983 114.169 466.897 114.034 466.827C113.898 466.754 113.742 466.692 113.566 466.64C113.394 466.585 113.216 466.529 113.033 466.47C112.853 466.411 112.675 466.345 112.499 466.272C112.327 466.195 112.173 466.1 112.037 465.986C111.902 465.872 111.792 465.733 111.707 465.568C111.627 465.399 111.586 465.196 111.586 464.957C111.586 464.745 111.63 464.541 111.718 464.347C111.806 464.149 111.935 463.977 112.103 463.83C112.272 463.68 112.479 463.56 112.725 463.473C112.97 463.384 113.251 463.34 113.566 463.34C113.933 463.34 114.261 463.399 114.551 463.516C114.844 463.63 115.097 463.788 115.31 463.989L115.09 464.347ZM120.761 469H120.327C120.231 469 120.154 468.985 120.096 468.956C120.037 468.927 119.999 468.864 119.98 468.769L119.87 468.252C119.724 468.384 119.581 468.503 119.441 468.609C119.302 468.712 119.155 468.8 119.001 468.873C118.847 468.943 118.682 468.996 118.506 469.033C118.334 469.07 118.141 469.088 117.929 469.088C117.712 469.088 117.509 469.059 117.318 469C117.131 468.938 116.968 468.846 116.829 468.725C116.689 468.604 116.578 468.452 116.493 468.268C116.413 468.081 116.372 467.861 116.372 467.608C116.372 467.388 116.433 467.178 116.554 466.976C116.675 466.771 116.869 466.589 117.137 466.431C117.408 466.274 117.762 466.145 118.198 466.046C118.635 465.944 119.168 465.885 119.799 465.87V465.436C119.799 465.003 119.705 464.677 119.518 464.457C119.335 464.233 119.062 464.121 118.699 464.121C118.46 464.121 118.259 464.153 118.094 464.215C117.932 464.274 117.791 464.341 117.67 464.418C117.553 464.492 117.45 464.56 117.362 464.622C117.278 464.681 117.194 464.71 117.109 464.71C117.043 464.71 116.985 464.693 116.933 464.66C116.886 464.624 116.847 464.58 116.818 464.528L116.642 464.215C116.95 463.918 117.282 463.696 117.637 463.549C117.993 463.403 118.387 463.329 118.82 463.329C119.131 463.329 119.408 463.381 119.65 463.483C119.892 463.586 120.096 463.729 120.261 463.912C120.426 464.096 120.55 464.318 120.635 464.578C120.719 464.838 120.761 465.124 120.761 465.436V469ZM118.22 468.4C118.393 468.4 118.55 468.384 118.693 468.351C118.836 468.314 118.97 468.265 119.095 468.202C119.223 468.136 119.344 468.058 119.458 467.966C119.575 467.874 119.689 467.77 119.799 467.652V466.492C119.348 466.507 118.965 466.543 118.649 466.602C118.334 466.657 118.077 466.73 117.879 466.822C117.681 466.914 117.536 467.022 117.445 467.146C117.357 467.271 117.313 467.41 117.313 467.564C117.313 467.711 117.337 467.838 117.384 467.944C117.432 468.05 117.496 468.138 117.577 468.208C117.657 468.274 117.753 468.323 117.863 468.356C117.973 468.386 118.092 468.4 118.22 468.4ZM122.277 469V460.898H123.262V464.231C123.493 463.964 123.757 463.749 124.054 463.588C124.355 463.423 124.697 463.34 125.082 463.34C125.405 463.34 125.697 463.401 125.957 463.522C126.217 463.643 126.439 463.824 126.622 464.066C126.806 464.305 126.947 464.602 127.046 464.957C127.145 465.309 127.194 465.716 127.194 466.178C127.194 466.589 127.139 466.972 127.029 467.328C126.919 467.68 126.76 467.986 126.551 468.246C126.346 468.503 126.093 468.707 125.792 468.857C125.495 469.004 125.159 469.077 124.785 469.077C124.426 469.077 124.12 469.007 123.867 468.868C123.618 468.729 123.399 468.534 123.212 468.285L123.163 468.791C123.134 468.93 123.049 469 122.91 469H122.277ZM124.763 464.121C124.444 464.121 124.164 464.195 123.922 464.341C123.684 464.488 123.464 464.695 123.262 464.963V467.658C123.438 467.9 123.632 468.07 123.845 468.169C124.061 468.268 124.301 468.318 124.565 468.318C125.086 468.318 125.486 468.133 125.764 467.762C126.043 467.392 126.182 466.864 126.182 466.178C126.182 465.815 126.149 465.504 126.083 465.243C126.021 464.983 125.929 464.77 125.808 464.605C125.687 464.437 125.539 464.314 125.363 464.237C125.187 464.16 124.987 464.121 124.763 464.121ZM129.478 460.898V469H128.499V460.898H129.478ZM133.409 463.34C133.743 463.34 134.051 463.397 134.333 463.511C134.615 463.621 134.859 463.782 135.064 463.995C135.27 464.204 135.429 464.464 135.543 464.776C135.66 465.084 135.719 465.436 135.719 465.832C135.719 465.986 135.702 466.089 135.669 466.14C135.636 466.191 135.574 466.217 135.482 466.217H131.775C131.783 466.569 131.83 466.875 131.918 467.135C132.006 467.396 132.127 467.614 132.281 467.79C132.435 467.962 132.619 468.092 132.831 468.18C133.044 468.265 133.282 468.307 133.546 468.307C133.792 468.307 134.003 468.279 134.179 468.224C134.359 468.166 134.513 468.103 134.641 468.037C134.769 467.971 134.876 467.911 134.96 467.856C135.048 467.797 135.123 467.768 135.185 467.768C135.266 467.768 135.328 467.799 135.372 467.861L135.647 468.219C135.526 468.366 135.382 468.494 135.213 468.604C135.044 468.71 134.863 468.798 134.668 468.868C134.478 468.938 134.28 468.989 134.074 469.022C133.869 469.059 133.666 469.077 133.464 469.077C133.079 469.077 132.723 469.013 132.397 468.884C132.074 468.752 131.794 468.562 131.555 468.312C131.321 468.059 131.137 467.748 131.005 467.377C130.873 467.007 130.807 466.582 130.807 466.101C130.807 465.713 130.866 465.35 130.983 465.012C131.104 464.675 131.277 464.384 131.5 464.138C131.724 463.889 131.997 463.694 132.32 463.555C132.643 463.412 133.006 463.34 133.409 463.34ZM133.431 464.061C132.958 464.061 132.586 464.198 132.314 464.473C132.043 464.745 131.874 465.122 131.808 465.606H134.839C134.839 465.379 134.808 465.172 134.745 464.985C134.683 464.794 134.591 464.631 134.47 464.495C134.349 464.356 134.201 464.25 134.025 464.176C133.853 464.099 133.655 464.061 133.431 464.061ZM140.893 469C140.754 469 140.666 468.932 140.629 468.796L140.541 468.12C140.303 468.41 140.03 468.642 139.722 468.819C139.418 468.991 139.067 469.077 138.671 469.077C138.352 469.077 138.063 469.016 137.802 468.895C137.542 468.771 137.32 468.589 137.137 468.351C136.954 468.113 136.812 467.816 136.713 467.46C136.614 467.104 136.565 466.695 136.565 466.233C136.565 465.823 136.62 465.441 136.73 465.089C136.84 464.734 136.998 464.426 137.203 464.165C137.412 463.905 137.665 463.702 137.962 463.555C138.259 463.405 138.596 463.329 138.974 463.329C139.315 463.329 139.606 463.388 139.848 463.505C140.09 463.619 140.307 463.78 140.497 463.989V460.898H141.476V469H140.893ZM138.996 468.285C139.315 468.285 139.594 468.212 139.832 468.065C140.074 467.918 140.296 467.711 140.497 467.443V464.748C140.318 464.506 140.12 464.338 139.903 464.242C139.691 464.143 139.454 464.094 139.194 464.094C138.673 464.094 138.274 464.279 137.995 464.649C137.716 465.02 137.577 465.548 137.577 466.233C137.577 466.596 137.608 466.908 137.67 467.168C137.733 467.425 137.824 467.638 137.945 467.806C138.066 467.971 138.215 468.092 138.391 468.169C138.567 468.246 138.769 468.285 138.996 468.285Z" fill="#979797"/>
</svg>
