<svg width="1000" height="595" viewBox="0 0 1000 595" fill="none" xmlns="http://www.w3.org/2000/svg">
<rect width="1000" height="595" fill="white"/>
<g clip-path="url(#clip0)">
<path d="M167.302 568V561.973L166.518 561.882C166.42 561.859 166.338 561.824 166.273 561.777C166.212 561.726 166.182 561.653 166.182 561.56V561.049H167.302V560.363C167.302 559.957 167.358 559.598 167.47 559.285C167.587 558.968 167.75 558.702 167.96 558.487C168.175 558.268 168.431 558.102 168.73 557.99C169.029 557.878 169.365 557.822 169.738 557.822C170.055 557.822 170.349 557.869 170.62 557.962L170.592 558.585C170.587 558.678 170.548 558.734 170.473 558.753C170.398 558.772 170.293 558.781 170.158 558.781H169.941C169.726 558.781 169.53 558.809 169.353 558.865C169.18 558.921 169.031 559.012 168.905 559.138C168.779 559.264 168.681 559.43 168.611 559.635C168.546 559.84 168.513 560.095 168.513 560.398V561.049H170.564V561.952H168.555V568H167.302ZM174.609 560.797C175.127 560.797 175.593 560.883 176.009 561.056C176.429 561.229 176.783 561.474 177.073 561.791C177.367 562.108 177.591 562.493 177.745 562.946C177.903 563.394 177.983 563.896 177.983 564.451C177.983 565.011 177.903 565.515 177.745 565.963C177.591 566.411 177.367 566.794 177.073 567.111C176.783 567.428 176.429 567.673 176.009 567.846C175.593 568.014 175.127 568.098 174.609 568.098C174.091 568.098 173.622 568.014 173.202 567.846C172.786 567.673 172.432 567.428 172.138 567.111C171.844 566.794 171.617 566.411 171.459 565.963C171.3 565.515 171.221 565.011 171.221 564.451C171.221 563.896 171.3 563.394 171.459 562.946C171.617 562.493 171.844 562.108 172.138 561.791C172.432 561.474 172.786 561.229 173.202 561.056C173.622 560.883 174.091 560.797 174.609 560.797ZM174.609 567.125C175.309 567.125 175.831 566.892 176.177 566.425C176.522 565.954 176.695 565.298 176.695 564.458C176.695 563.613 176.522 562.955 176.177 562.484C175.831 562.013 175.309 561.777 174.609 561.777C174.254 561.777 173.946 561.838 173.685 561.959C173.423 562.08 173.204 562.255 173.027 562.484C172.854 562.713 172.723 562.995 172.635 563.331C172.551 563.662 172.509 564.038 172.509 564.458C172.509 564.878 172.551 565.254 172.635 565.585C172.723 565.916 172.854 566.196 173.027 566.425C173.204 566.649 173.423 566.822 173.685 566.943C173.946 567.064 174.254 567.125 174.609 567.125ZM179.518 568V560.909H180.26C180.437 560.909 180.549 560.995 180.596 561.168L180.694 561.938C181.002 561.597 181.345 561.322 181.723 561.112C182.106 560.902 182.547 560.797 183.046 560.797C183.433 560.797 183.774 560.862 184.068 560.993C184.367 561.119 184.614 561.301 184.81 561.539C185.011 561.772 185.162 562.055 185.265 562.386C185.368 562.717 185.419 563.084 185.419 563.485V568H184.173V563.485C184.173 562.948 184.049 562.533 183.802 562.239C183.559 561.94 183.186 561.791 182.682 561.791C182.313 561.791 181.968 561.88 181.646 562.057C181.329 562.234 181.035 562.475 180.764 562.778V568H179.518ZM189.446 568.112C188.886 568.112 188.455 567.956 188.151 567.643C187.853 567.33 187.703 566.88 187.703 566.292V561.952H186.849C186.775 561.952 186.712 561.931 186.66 561.889C186.609 561.842 186.583 561.772 186.583 561.679V561.182L187.745 561.035L188.032 558.844C188.042 558.774 188.072 558.718 188.123 558.676C188.175 558.629 188.24 558.606 188.319 558.606H188.949V561.049H190.979V561.952H188.949V566.208C188.949 566.507 189.022 566.728 189.166 566.873C189.311 567.018 189.498 567.09 189.726 567.09C189.857 567.09 189.969 567.074 190.062 567.041C190.16 567.004 190.244 566.964 190.314 566.922C190.384 566.88 190.443 566.843 190.489 566.81C190.541 566.773 190.585 566.754 190.622 566.754C190.688 566.754 190.746 566.794 190.797 566.873L191.161 567.468C190.947 567.669 190.688 567.827 190.384 567.944C190.081 568.056 189.768 568.112 189.446 568.112ZM192.198 563.275H195.656V564.332H192.198V563.275ZM201.434 562.078C201.378 562.181 201.291 562.232 201.175 562.232C201.105 562.232 201.025 562.206 200.937 562.155C200.848 562.104 200.738 562.048 200.608 561.987C200.482 561.922 200.33 561.863 200.153 561.812C199.975 561.756 199.765 561.728 199.523 561.728C199.313 561.728 199.124 561.756 198.956 561.812C198.788 561.863 198.643 561.936 198.522 562.029C198.405 562.122 198.314 562.232 198.249 562.358C198.188 562.479 198.158 562.612 198.158 562.757C198.158 562.939 198.209 563.091 198.312 563.212C198.419 563.333 198.559 563.438 198.732 563.527C198.904 563.616 199.1 563.695 199.32 563.765C199.539 563.83 199.763 563.903 199.992 563.982C200.225 564.057 200.451 564.141 200.671 564.234C200.89 564.327 201.086 564.444 201.259 564.584C201.431 564.724 201.569 564.897 201.672 565.102C201.779 565.303 201.833 565.545 201.833 565.83C201.833 566.157 201.774 566.46 201.658 566.74C201.541 567.015 201.368 567.256 201.14 567.461C200.911 567.662 200.631 567.82 200.3 567.937C199.968 568.054 199.586 568.112 199.152 568.112C198.657 568.112 198.209 568.033 197.808 567.874C197.406 567.711 197.066 567.503 196.786 567.251L197.08 566.775C197.117 566.714 197.161 566.668 197.213 566.635C197.264 566.602 197.332 566.586 197.416 566.586C197.5 566.586 197.588 566.619 197.682 566.684C197.775 566.749 197.887 566.822 198.018 566.901C198.153 566.98 198.314 567.053 198.501 567.118C198.692 567.183 198.93 567.216 199.215 567.216C199.457 567.216 199.67 567.186 199.852 567.125C200.034 567.06 200.185 566.973 200.307 566.866C200.428 566.759 200.517 566.635 200.573 566.495C200.633 566.355 200.664 566.206 200.664 566.047C200.664 565.851 200.61 565.69 200.503 565.564C200.4 565.433 200.262 565.324 200.09 565.235C199.917 565.142 199.719 565.062 199.495 564.997C199.275 564.927 199.049 564.855 198.816 564.78C198.587 564.705 198.361 564.621 198.137 564.528C197.917 564.43 197.721 564.309 197.549 564.164C197.376 564.019 197.236 563.842 197.129 563.632C197.026 563.417 196.975 563.158 196.975 562.855C196.975 562.584 197.031 562.325 197.143 562.078C197.255 561.826 197.418 561.607 197.633 561.42C197.847 561.229 198.111 561.077 198.424 560.965C198.736 560.853 199.093 560.797 199.495 560.797C199.961 560.797 200.379 560.872 200.748 561.021C201.121 561.166 201.443 561.366 201.714 561.623L201.434 562.078ZM204.83 560.909V568H203.584V560.909H204.83ZM205.11 558.683C205.11 558.804 205.084 558.919 205.033 559.026C204.986 559.129 204.921 559.222 204.837 559.306C204.758 559.385 204.664 559.448 204.557 559.495C204.45 559.542 204.335 559.565 204.214 559.565C204.093 559.565 203.978 559.542 203.871 559.495C203.768 559.448 203.675 559.385 203.591 559.306C203.512 559.222 203.449 559.129 203.402 559.026C203.355 558.919 203.332 558.804 203.332 558.683C203.332 558.562 203.355 558.447 203.402 558.34C203.449 558.228 203.512 558.132 203.591 558.053C203.675 557.969 203.768 557.904 203.871 557.857C203.978 557.81 204.093 557.787 204.214 557.787C204.335 557.787 204.45 557.81 204.557 557.857C204.664 557.904 204.758 557.969 204.837 558.053C204.921 558.132 204.986 558.228 205.033 558.34C205.084 558.447 205.11 558.562 205.11 558.683ZM211.975 561.441C211.975 561.53 211.959 561.616 211.926 561.7C211.893 561.779 211.851 561.852 211.8 561.917L207.964 567.027H211.835V568H206.494V567.482C206.494 567.421 206.508 567.351 206.536 567.272C206.569 567.188 206.613 567.109 206.669 567.034L210.526 561.889H206.711V560.909H211.975V561.441ZM216.3 560.797C216.724 560.797 217.116 560.869 217.476 561.014C217.835 561.154 218.145 561.359 218.407 561.63C218.668 561.896 218.871 562.227 219.016 562.624C219.165 563.016 219.24 563.464 219.24 563.968C219.24 564.164 219.219 564.295 219.177 564.36C219.135 564.425 219.055 564.458 218.939 564.458H214.221C214.23 564.906 214.291 565.296 214.403 565.627C214.515 565.958 214.669 566.236 214.865 566.46C215.061 566.679 215.294 566.845 215.565 566.957C215.835 567.064 216.139 567.118 216.475 567.118C216.787 567.118 217.056 567.083 217.28 567.013C217.508 566.938 217.704 566.859 217.868 566.775C218.031 566.691 218.166 566.614 218.274 566.544C218.386 566.469 218.481 566.432 218.561 566.432C218.663 566.432 218.743 566.472 218.799 566.551L219.149 567.006C218.995 567.193 218.81 567.356 218.596 567.496C218.381 567.631 218.15 567.743 217.903 567.832C217.66 567.921 217.408 567.986 217.147 568.028C216.885 568.075 216.626 568.098 216.37 568.098C215.88 568.098 215.427 568.016 215.012 567.853C214.601 567.685 214.244 567.442 213.941 567.125C213.642 566.803 213.409 566.406 213.241 565.935C213.073 565.464 212.989 564.922 212.989 564.311C212.989 563.816 213.063 563.354 213.213 562.925C213.367 562.496 213.586 562.125 213.871 561.812C214.155 561.495 214.503 561.247 214.914 561.07C215.324 560.888 215.786 560.797 216.3 560.797ZM216.328 561.714C215.726 561.714 215.252 561.889 214.907 562.239C214.561 562.584 214.347 563.065 214.263 563.681H218.12C218.12 563.392 218.08 563.128 218.001 562.89C217.921 562.647 217.805 562.44 217.651 562.267C217.497 562.09 217.308 561.954 217.084 561.861C216.864 561.763 216.612 561.714 216.328 561.714ZM220.709 567.23C220.709 567.109 220.73 566.994 220.772 566.887C220.818 566.78 220.879 566.686 220.954 566.607C221.033 566.528 221.126 566.465 221.234 566.418C221.341 566.371 221.455 566.348 221.577 566.348C221.698 566.348 221.812 566.371 221.92 566.418C222.027 566.465 222.12 566.528 222.2 566.607C222.279 566.686 222.34 566.78 222.382 566.887C222.428 566.994 222.452 567.109 222.452 567.23C222.452 567.356 222.428 567.473 222.382 567.58C222.34 567.683 222.279 567.774 222.2 567.853C222.12 567.932 222.027 567.993 221.92 568.035C221.812 568.082 221.698 568.105 221.577 568.105C221.455 568.105 221.341 568.082 221.234 568.035C221.126 567.993 221.033 567.932 220.954 567.853C220.879 567.774 220.818 567.683 220.772 567.58C220.73 567.473 220.709 567.356 220.709 567.23ZM220.709 561.98C220.709 561.859 220.73 561.744 220.772 561.637C220.818 561.53 220.879 561.436 220.954 561.357C221.033 561.278 221.126 561.215 221.234 561.168C221.341 561.121 221.455 561.098 221.577 561.098C221.698 561.098 221.812 561.121 221.92 561.168C222.027 561.215 222.12 561.278 222.2 561.357C222.279 561.436 222.34 561.53 222.382 561.637C222.428 561.744 222.452 561.859 222.452 561.98C222.452 562.106 222.428 562.223 222.382 562.33C222.34 562.433 222.279 562.524 222.2 562.603C222.12 562.682 222.027 562.745 221.92 562.792C221.812 562.834 221.698 562.855 221.577 562.855C221.455 562.855 221.341 562.834 221.234 562.792C221.126 562.745 221.033 562.682 220.954 562.603C220.879 562.524 220.818 562.433 220.772 562.33C220.73 562.223 220.709 562.106 220.709 561.98ZM228.056 567.048H230.212V560.209C230.212 560.004 230.219 559.796 230.233 559.586L228.441 561.119C228.394 561.156 228.348 561.184 228.301 561.203C228.254 561.217 228.21 561.224 228.168 561.224C228.098 561.224 228.035 561.21 227.979 561.182C227.923 561.149 227.881 561.112 227.853 561.07L227.461 560.531L230.443 557.948H231.458V567.048H233.432V568H228.056V567.048ZM238.375 557.857C238.8 557.857 239.196 557.92 239.565 558.046C239.934 558.172 240.251 558.356 240.517 558.599C240.788 558.837 241 559.129 241.154 559.474C241.308 559.819 241.385 560.211 241.385 560.65C241.385 561.023 241.329 561.369 241.217 561.686C241.105 562.003 240.953 562.309 240.762 562.603C240.571 562.892 240.349 563.175 240.097 563.45C239.85 563.721 239.586 563.998 239.306 564.283L236.667 566.985C236.854 566.934 237.043 566.894 237.234 566.866C237.425 566.833 237.61 566.817 237.787 566.817H241.147C241.282 566.817 241.39 566.857 241.469 566.936C241.548 567.015 241.588 567.118 241.588 567.244V568H234.896V567.573C234.896 567.484 234.912 567.393 234.945 567.3C234.982 567.207 235.041 567.12 235.12 567.041L238.333 563.814C238.599 563.543 238.842 563.284 239.061 563.037C239.28 562.785 239.467 562.533 239.621 562.281C239.78 562.029 239.901 561.775 239.985 561.518C240.069 561.257 240.111 560.979 240.111 560.685C240.111 560.391 240.064 560.134 239.971 559.915C239.878 559.691 239.749 559.507 239.586 559.362C239.423 559.217 239.231 559.11 239.012 559.04C238.793 558.965 238.557 558.928 238.305 558.928C238.053 558.928 237.82 558.965 237.605 559.04C237.39 559.115 237.199 559.22 237.031 559.355C236.868 559.486 236.728 559.642 236.611 559.824C236.499 560.006 236.42 560.207 236.373 560.426C236.336 560.561 236.28 560.659 236.205 560.72C236.13 560.781 236.032 560.811 235.911 560.811C235.888 560.811 235.862 560.811 235.834 560.811C235.811 560.806 235.783 560.802 235.75 560.797L235.099 560.685C235.164 560.228 235.29 559.824 235.477 559.474C235.664 559.119 235.899 558.823 236.184 558.585C236.473 558.347 236.802 558.167 237.171 558.046C237.544 557.92 237.946 557.857 238.375 557.857ZM243.311 570.401V560.909H244.053C244.23 560.909 244.342 560.995 244.389 561.168L244.494 562.008C244.797 561.639 245.143 561.343 245.53 561.119C245.922 560.895 246.372 560.783 246.881 560.783C247.287 560.783 247.656 560.862 247.987 561.021C248.318 561.175 248.601 561.406 248.834 561.714C249.067 562.017 249.247 562.395 249.373 562.848C249.499 563.301 249.562 563.821 249.562 564.409C249.562 564.932 249.492 565.419 249.352 565.872C249.212 566.32 249.011 566.71 248.75 567.041C248.489 567.368 248.167 567.627 247.784 567.818C247.406 568.005 246.979 568.098 246.503 568.098C246.064 568.098 245.689 568.026 245.376 567.881C245.068 567.736 244.795 567.531 244.557 567.265V570.401H243.311ZM246.468 561.791C246.062 561.791 245.705 561.884 245.397 562.071C245.094 562.258 244.814 562.521 244.557 562.862V566.292C244.786 566.6 245.035 566.817 245.306 566.943C245.581 567.069 245.887 567.132 246.223 567.132C246.881 567.132 247.387 566.896 247.742 566.425C248.097 565.954 248.274 565.282 248.274 564.409C248.274 563.947 248.232 563.55 248.148 563.219C248.069 562.888 247.952 562.617 247.798 562.407C247.644 562.192 247.455 562.036 247.231 561.938C247.007 561.84 246.753 561.791 246.468 561.791ZM252.271 564.367L249.884 560.909H251.081C251.184 560.909 251.258 560.925 251.305 560.958C251.352 560.991 251.394 561.037 251.431 561.098L253.167 563.758C253.209 563.627 253.27 563.497 253.349 563.366L254.875 561.126C254.922 561.061 254.968 561.009 255.015 560.972C255.062 560.93 255.12 560.909 255.19 560.909H256.338L253.951 564.297L256.436 568H255.239C255.136 568 255.055 567.974 254.994 567.923C254.938 567.867 254.891 567.806 254.854 567.741L253.069 564.962C253.036 565.097 252.987 565.219 252.922 565.326L251.27 567.741C251.223 567.806 251.172 567.867 251.116 567.923C251.065 567.974 250.992 568 250.899 568H249.786L252.271 564.367ZM257.583 567.139C257.583 567.032 257.601 566.931 257.639 566.838C257.681 566.74 257.737 566.656 257.807 566.586C257.881 566.511 257.97 566.453 258.073 566.411C258.175 566.369 258.287 566.348 258.409 566.348C258.549 566.348 258.672 566.374 258.78 566.425C258.892 566.476 258.983 566.549 259.053 566.642C259.127 566.731 259.183 566.836 259.221 566.957C259.258 567.074 259.277 567.202 259.277 567.342C259.277 567.552 259.246 567.771 259.186 568C259.125 568.224 259.039 568.446 258.927 568.665C258.815 568.889 258.675 569.106 258.507 569.316C258.343 569.526 258.157 569.72 257.947 569.897L257.737 569.694C257.676 569.638 257.646 569.573 257.646 569.498C257.646 569.437 257.678 569.374 257.744 569.309C257.79 569.258 257.849 569.188 257.919 569.099C257.993 569.015 258.068 568.917 258.143 568.805C258.217 568.693 258.285 568.569 258.346 568.434C258.411 568.299 258.458 568.154 258.486 568H258.395C258.273 568 258.164 567.979 258.066 567.937C257.968 567.895 257.881 567.837 257.807 567.762C257.737 567.683 257.681 567.592 257.639 567.489C257.601 567.382 257.583 567.265 257.583 567.139ZM257.541 561.98C257.541 561.859 257.562 561.744 257.604 561.637C257.65 561.53 257.711 561.436 257.786 561.357C257.865 561.278 257.958 561.215 258.066 561.168C258.173 561.121 258.287 561.098 258.409 561.098C258.53 561.098 258.644 561.121 258.752 561.168C258.859 561.215 258.952 561.278 259.032 561.357C259.111 561.436 259.172 561.53 259.214 561.637C259.26 561.744 259.284 561.859 259.284 561.98C259.284 562.106 259.26 562.223 259.214 562.33C259.172 562.433 259.111 562.524 259.032 562.603C258.952 562.682 258.859 562.745 258.752 562.792C258.644 562.834 258.53 562.855 258.409 562.855C258.287 562.855 258.173 562.834 258.066 562.792C257.958 562.745 257.865 562.682 257.786 562.603C257.711 562.524 257.65 562.433 257.604 562.33C257.562 562.223 257.541 562.106 257.541 561.98ZM265.455 566.859H269.795V568H264.097V557.969H265.455V566.859ZM276.3 568H275.747C275.626 568 275.528 567.981 275.453 567.944C275.379 567.907 275.33 567.827 275.306 567.706L275.166 567.048C274.98 567.216 274.798 567.368 274.62 567.503C274.443 567.634 274.256 567.746 274.06 567.839C273.864 567.928 273.654 567.995 273.43 568.042C273.211 568.089 272.966 568.112 272.695 568.112C272.42 568.112 272.161 568.075 271.918 568C271.68 567.921 271.473 567.804 271.295 567.65C271.118 567.496 270.976 567.302 270.868 567.069C270.766 566.831 270.714 566.551 270.714 566.229C270.714 565.949 270.791 565.681 270.945 565.424C271.099 565.163 271.347 564.932 271.687 564.731C272.033 564.53 272.483 564.367 273.038 564.241C273.594 564.11 274.273 564.036 275.075 564.017V563.464C275.075 562.913 274.956 562.498 274.718 562.218C274.485 561.933 274.137 561.791 273.675 561.791C273.372 561.791 273.115 561.831 272.905 561.91C272.7 561.985 272.52 562.071 272.366 562.169C272.217 562.262 272.086 562.349 271.974 562.428C271.867 562.503 271.76 562.54 271.652 562.54C271.568 562.54 271.494 562.519 271.428 562.477C271.368 562.43 271.319 562.374 271.281 562.309L271.057 561.91C271.449 561.532 271.872 561.25 272.324 561.063C272.777 560.876 273.279 560.783 273.829 560.783C274.226 560.783 274.578 560.848 274.886 560.979C275.194 561.11 275.453 561.292 275.663 561.525C275.873 561.758 276.032 562.041 276.139 562.372C276.247 562.703 276.3 563.067 276.3 563.464V568ZM273.066 567.237C273.286 567.237 273.486 567.216 273.668 567.174C273.85 567.127 274.021 567.064 274.179 566.985C274.343 566.901 274.497 566.801 274.641 566.684C274.791 566.567 274.935 566.434 275.075 566.285V564.808C274.501 564.827 274.014 564.873 273.612 564.948C273.211 565.018 272.884 565.111 272.632 565.228C272.38 565.345 272.196 565.482 272.079 565.641C271.967 565.8 271.911 565.977 271.911 566.173C271.911 566.36 271.942 566.521 272.002 566.656C272.063 566.791 272.145 566.903 272.247 566.992C272.35 567.076 272.471 567.139 272.611 567.181C272.751 567.218 272.903 567.237 273.066 567.237ZM280.337 568.112C279.777 568.112 279.345 567.956 279.042 567.643C278.743 567.33 278.594 566.88 278.594 566.292V561.952H277.74C277.665 561.952 277.602 561.931 277.551 561.889C277.5 561.842 277.474 561.772 277.474 561.679V561.182L278.636 561.035L278.923 558.844C278.932 558.774 278.963 558.718 279.014 558.676C279.065 558.629 279.131 558.606 279.21 558.606H279.84V561.049H281.87V561.952H279.84V566.208C279.84 566.507 279.912 566.728 280.057 566.873C280.202 567.018 280.388 567.09 280.617 567.09C280.748 567.09 280.86 567.074 280.953 567.041C281.051 567.004 281.135 566.964 281.205 566.922C281.275 566.88 281.333 566.843 281.38 566.81C281.431 566.773 281.476 566.754 281.513 566.754C281.578 566.754 281.637 566.794 281.688 566.873L282.052 567.468C281.837 567.669 281.578 567.827 281.275 567.944C280.972 568.056 280.659 568.112 280.337 568.112ZM286.281 560.797C286.799 560.797 287.265 560.883 287.681 561.056C288.101 561.229 288.455 561.474 288.745 561.791C289.039 562.108 289.263 562.493 289.417 562.946C289.575 563.394 289.655 563.896 289.655 564.451C289.655 565.011 289.575 565.515 289.417 565.963C289.263 566.411 289.039 566.794 288.745 567.111C288.455 567.428 288.101 567.673 287.681 567.846C287.265 568.014 286.799 568.098 286.281 568.098C285.763 568.098 285.294 568.014 284.874 567.846C284.458 567.673 284.104 567.428 283.81 567.111C283.516 566.794 283.289 566.411 283.131 565.963C282.972 565.515 282.893 565.011 282.893 564.451C282.893 563.896 282.972 563.394 283.131 562.946C283.289 562.493 283.516 562.108 283.81 561.791C284.104 561.474 284.458 561.229 284.874 561.056C285.294 560.883 285.763 560.797 286.281 560.797ZM286.281 567.125C286.981 567.125 287.503 566.892 287.849 566.425C288.194 565.954 288.367 565.298 288.367 564.458C288.367 563.613 288.194 562.955 287.849 562.484C287.503 562.013 286.981 561.777 286.281 561.777C285.926 561.777 285.618 561.838 285.357 561.959C285.095 562.08 284.876 562.255 284.699 562.484C284.526 562.713 284.395 562.995 284.307 563.331C284.223 563.662 284.181 564.038 284.181 564.458C284.181 564.878 284.223 565.254 284.307 565.585C284.395 565.916 284.526 566.196 284.699 566.425C284.876 566.649 285.095 566.822 285.357 566.943C285.618 567.064 285.926 567.125 286.281 567.125ZM291.064 567.23C291.064 567.109 291.085 566.994 291.127 566.887C291.174 566.78 291.234 566.686 291.309 566.607C291.388 566.528 291.482 566.465 291.589 566.418C291.696 566.371 291.811 566.348 291.932 566.348C292.053 566.348 292.168 566.371 292.275 566.418C292.382 566.465 292.476 566.528 292.555 566.607C292.634 566.686 292.695 566.78 292.737 566.887C292.784 566.994 292.807 567.109 292.807 567.23C292.807 567.356 292.784 567.473 292.737 567.58C292.695 567.683 292.634 567.774 292.555 567.853C292.476 567.932 292.382 567.993 292.275 568.035C292.168 568.082 292.053 568.105 291.932 568.105C291.811 568.105 291.696 568.082 291.589 568.035C291.482 567.993 291.388 567.932 291.309 567.853C291.234 567.774 291.174 567.683 291.127 567.58C291.085 567.473 291.064 567.356 291.064 567.23ZM291.064 561.98C291.064 561.859 291.085 561.744 291.127 561.637C291.174 561.53 291.234 561.436 291.309 561.357C291.388 561.278 291.482 561.215 291.589 561.168C291.696 561.121 291.811 561.098 291.932 561.098C292.053 561.098 292.168 561.121 292.275 561.168C292.382 561.215 292.476 561.278 292.555 561.357C292.634 561.436 292.695 561.53 292.737 561.637C292.784 561.744 292.807 561.859 292.807 561.98C292.807 562.106 292.784 562.223 292.737 562.33C292.695 562.433 292.634 562.524 292.555 562.603C292.476 562.682 292.382 562.745 292.275 562.792C292.168 562.834 292.053 562.855 291.932 562.855C291.811 562.855 291.696 562.834 291.589 562.792C291.482 562.745 291.388 562.682 291.309 562.603C291.234 562.524 291.174 562.433 291.127 562.33C291.085 562.223 291.064 562.106 291.064 561.98ZM300.742 557.857C301.167 557.857 301.559 557.918 301.918 558.039C302.278 558.16 302.586 558.333 302.842 558.557C303.104 558.781 303.307 559.052 303.451 559.369C303.596 559.686 303.668 560.039 303.668 560.426C303.668 560.743 303.626 561.028 303.542 561.28C303.463 561.527 303.346 561.747 303.192 561.938C303.043 562.125 302.861 562.283 302.646 562.414C302.432 562.545 302.191 562.65 301.925 562.729C302.579 562.902 303.069 563.191 303.395 563.597C303.727 564.003 303.892 564.512 303.892 565.123C303.892 565.585 303.804 566 303.626 566.369C303.454 566.738 303.216 567.053 302.912 567.314C302.609 567.571 302.254 567.769 301.848 567.909C301.447 568.044 301.015 568.112 300.553 568.112C300.021 568.112 299.566 568.047 299.188 567.916C298.81 567.781 298.491 567.596 298.229 567.363C297.968 567.13 297.753 566.854 297.585 566.537C297.417 566.215 297.275 565.867 297.158 565.494L297.69 565.27C297.788 565.228 297.886 565.207 297.984 565.207C298.078 565.207 298.159 565.228 298.229 565.27C298.304 565.307 298.36 565.368 298.397 565.452C298.407 565.471 298.416 565.492 298.425 565.515C298.435 565.534 298.444 565.555 298.453 565.578C298.519 565.713 298.598 565.867 298.691 566.04C298.785 566.208 298.911 566.367 299.069 566.516C299.228 566.665 299.424 566.791 299.657 566.894C299.895 566.997 300.189 567.048 300.539 567.048C300.889 567.048 301.195 566.992 301.456 566.88C301.722 566.763 301.942 566.614 302.114 566.432C302.292 566.25 302.425 566.047 302.513 565.823C302.602 565.599 302.646 565.377 302.646 565.158C302.646 564.887 302.609 564.64 302.534 564.416C302.464 564.192 302.334 563.998 302.142 563.835C301.956 563.672 301.694 563.543 301.358 563.45C301.027 563.357 300.6 563.31 300.077 563.31V562.407C300.502 562.402 300.864 562.356 301.162 562.267C301.466 562.178 301.713 562.057 301.904 561.903C302.096 561.749 302.233 561.565 302.317 561.35C302.406 561.135 302.45 560.897 302.45 560.636C302.45 560.347 302.404 560.095 302.31 559.88C302.222 559.665 302.098 559.488 301.939 559.348C301.781 559.208 301.592 559.103 301.372 559.033C301.158 558.963 300.924 558.928 300.672 558.928C300.42 558.928 300.187 558.965 299.972 559.04C299.758 559.115 299.566 559.22 299.398 559.355C299.235 559.486 299.097 559.644 298.985 559.831C298.873 560.013 298.789 560.211 298.733 560.426C298.696 560.561 298.64 560.659 298.565 560.72C298.491 560.781 298.395 560.811 298.278 560.811C298.255 560.811 298.229 560.811 298.201 560.811C298.178 560.806 298.15 560.802 298.117 560.797L297.466 560.685C297.532 560.228 297.658 559.824 297.844 559.474C298.031 559.119 298.267 558.823 298.551 558.585C298.841 558.347 299.17 558.167 299.538 558.046C299.912 557.92 300.313 557.857 300.742 557.857ZM305.545 570.401V560.909H306.287C306.465 560.909 306.577 560.995 306.623 561.168L306.728 562.008C307.032 561.639 307.377 561.343 307.764 561.119C308.156 560.895 308.607 560.783 309.115 560.783C309.521 560.783 309.89 560.862 310.221 561.021C310.553 561.175 310.835 561.406 311.068 561.714C311.302 562.017 311.481 562.395 311.607 562.848C311.733 563.301 311.796 563.821 311.796 564.409C311.796 564.932 311.726 565.419 311.586 565.872C311.446 566.32 311.246 566.71 310.984 567.041C310.723 567.368 310.401 567.627 310.018 567.818C309.64 568.005 309.213 568.098 308.737 568.098C308.299 568.098 307.923 568.026 307.61 567.881C307.302 567.736 307.029 567.531 306.791 567.265V570.401H305.545ZM308.702 561.791C308.296 561.791 307.939 561.884 307.631 562.071C307.328 562.258 307.048 562.521 306.791 562.862V566.292C307.02 566.6 307.27 566.817 307.54 566.943C307.816 567.069 308.121 567.132 308.457 567.132C309.115 567.132 309.622 566.896 309.976 566.425C310.331 565.954 310.508 565.282 310.508 564.409C310.508 563.947 310.466 563.55 310.382 563.219C310.303 562.888 310.186 562.617 310.032 562.407C309.878 562.192 309.689 562.036 309.465 561.938C309.241 561.84 308.987 561.791 308.702 561.791ZM314.505 564.367L312.118 560.909H313.315C313.418 560.909 313.493 560.925 313.539 560.958C313.586 560.991 313.628 561.037 313.665 561.098L315.401 563.758C315.443 563.627 315.504 563.497 315.583 563.366L317.109 561.126C317.156 561.061 317.203 561.009 317.249 560.972C317.296 560.93 317.354 560.909 317.424 560.909H318.572L316.185 564.297L318.67 568H317.473C317.371 568 317.289 567.974 317.228 567.923C317.172 567.867 317.126 567.806 317.088 567.741L315.303 564.962C315.271 565.097 315.222 565.219 315.156 565.326L313.504 567.741C313.458 567.806 313.406 567.867 313.35 567.923C313.299 567.974 313.227 568 313.133 568H312.02L314.505 564.367Z" fill="#999999"/>
<path d="M357.34 474.857C357.765 474.857 358.157 474.918 358.516 475.039C358.875 475.16 359.183 475.333 359.44 475.557C359.701 475.781 359.904 476.052 360.049 476.369C360.194 476.686 360.266 477.039 360.266 477.426C360.266 477.743 360.224 478.028 360.14 478.28C360.061 478.527 359.944 478.747 359.79 478.938C359.641 479.125 359.459 479.283 359.244 479.414C359.029 479.545 358.789 479.65 358.523 479.729C359.176 479.902 359.666 480.191 359.993 480.597C360.324 481.003 360.49 481.512 360.49 482.123C360.49 482.585 360.401 483 360.224 483.369C360.051 483.738 359.813 484.053 359.51 484.314C359.207 484.571 358.852 484.769 358.446 484.909C358.045 485.044 357.613 485.112 357.151 485.112C356.619 485.112 356.164 485.047 355.786 484.916C355.408 484.781 355.088 484.596 354.827 484.363C354.566 484.13 354.351 483.854 354.183 483.537C354.015 483.215 353.873 482.867 353.756 482.494L354.288 482.27C354.386 482.228 354.484 482.207 354.582 482.207C354.675 482.207 354.757 482.228 354.827 482.27C354.902 482.307 354.958 482.368 354.995 482.452C355.004 482.471 355.014 482.492 355.023 482.515C355.032 482.534 355.042 482.555 355.051 482.578C355.116 482.713 355.196 482.867 355.289 483.04C355.382 483.208 355.508 483.367 355.667 483.516C355.826 483.665 356.022 483.791 356.255 483.894C356.493 483.997 356.787 484.048 357.137 484.048C357.487 484.048 357.793 483.992 358.054 483.88C358.32 483.763 358.539 483.614 358.712 483.432C358.889 483.25 359.022 483.047 359.111 482.823C359.2 482.599 359.244 482.377 359.244 482.158C359.244 481.887 359.207 481.64 359.132 481.416C359.062 481.192 358.931 480.998 358.74 480.835C358.553 480.672 358.292 480.543 357.956 480.45C357.625 480.357 357.198 480.31 356.675 480.31V479.407C357.1 479.402 357.461 479.356 357.76 479.267C358.063 479.178 358.311 479.057 358.502 478.903C358.693 478.749 358.831 478.565 358.915 478.35C359.004 478.135 359.048 477.897 359.048 477.636C359.048 477.347 359.001 477.095 358.908 476.88C358.819 476.665 358.696 476.488 358.537 476.348C358.378 476.208 358.189 476.103 357.97 476.033C357.755 475.963 357.522 475.928 357.27 475.928C357.018 475.928 356.785 475.965 356.57 476.04C356.355 476.115 356.164 476.22 355.996 476.355C355.833 476.486 355.695 476.644 355.583 476.831C355.471 477.013 355.387 477.211 355.331 477.426C355.294 477.561 355.238 477.659 355.163 477.72C355.088 477.781 354.993 477.811 354.876 477.811C354.853 477.811 354.827 477.811 354.799 477.811C354.776 477.806 354.748 477.802 354.715 477.797L354.064 477.685C354.129 477.228 354.255 476.824 354.442 476.474C354.629 476.119 354.864 475.823 355.149 475.585C355.438 475.347 355.767 475.167 356.136 475.046C356.509 474.92 356.911 474.857 357.34 474.857ZM365.328 474.857C365.753 474.857 366.149 474.92 366.518 475.046C366.887 475.172 367.204 475.356 367.47 475.599C367.741 475.837 367.953 476.129 368.107 476.474C368.261 476.819 368.338 477.211 368.338 477.65C368.338 478.023 368.282 478.369 368.17 478.686C368.058 479.003 367.906 479.309 367.715 479.603C367.524 479.892 367.302 480.175 367.05 480.45C366.803 480.721 366.539 480.998 366.259 481.283L363.62 483.985C363.807 483.934 363.996 483.894 364.187 483.866C364.378 483.833 364.563 483.817 364.74 483.817H368.1C368.235 483.817 368.343 483.857 368.422 483.936C368.501 484.015 368.541 484.118 368.541 484.244V485H361.849V484.573C361.849 484.484 361.865 484.393 361.898 484.3C361.935 484.207 361.994 484.12 362.073 484.041L365.286 480.814C365.552 480.543 365.795 480.284 366.014 480.037C366.233 479.785 366.42 479.533 366.574 479.281C366.733 479.029 366.854 478.775 366.938 478.518C367.022 478.257 367.064 477.979 367.064 477.685C367.064 477.391 367.017 477.134 366.924 476.915C366.831 476.691 366.702 476.507 366.539 476.362C366.376 476.217 366.184 476.11 365.965 476.04C365.746 475.965 365.51 475.928 365.258 475.928C365.006 475.928 364.773 475.965 364.558 476.04C364.343 476.115 364.152 476.22 363.984 476.355C363.821 476.486 363.681 476.642 363.564 476.824C363.452 477.006 363.373 477.207 363.326 477.426C363.289 477.561 363.233 477.659 363.158 477.72C363.083 477.781 362.985 477.811 362.864 477.811C362.841 477.811 362.815 477.811 362.787 477.811C362.764 477.806 362.736 477.802 362.703 477.797L362.052 477.685C362.117 477.228 362.243 476.824 362.43 476.474C362.617 476.119 362.852 475.823 363.137 475.585C363.426 475.347 363.755 475.167 364.124 475.046C364.497 474.92 364.899 474.857 365.328 474.857Z" fill="#979797"/>
<rect x="344" y="464" width="1" height="32" fill="#909399"/>
<path d="M82.009 532.048H84.165V525.209C84.165 525.004 84.172 524.796 84.186 524.586L82.394 526.119C82.3473 526.156 82.3007 526.184 82.254 526.203C82.2073 526.217 82.163 526.224 82.121 526.224C82.051 526.224 81.988 526.21 81.932 526.182C81.876 526.149 81.834 526.112 81.806 526.07L81.414 525.531L84.396 522.948H85.411V532.048H87.385V533H82.009V532.048ZM92.3281 522.857C92.7528 522.857 93.1494 522.92 93.5181 523.046C93.8868 523.172 94.2041 523.356 94.4701 523.599C94.7408 523.837 94.9531 524.129 95.1071 524.474C95.2611 524.819 95.3381 525.211 95.3381 525.65C95.3381 526.023 95.2821 526.369 95.1701 526.686C95.0581 527.003 94.9064 527.309 94.7151 527.603C94.5238 527.892 94.3021 528.175 94.0501 528.45C93.8028 528.721 93.5391 528.998 93.2591 529.283L90.6201 531.985C90.8068 531.934 90.9958 531.894 91.1871 531.866C91.3784 531.833 91.5628 531.817 91.7401 531.817H95.1001C95.2354 531.817 95.3428 531.857 95.4221 531.936C95.5014 532.015 95.5411 532.118 95.5411 532.244V533H88.8491V532.573C88.8491 532.484 88.8654 532.393 88.8981 532.3C88.9354 532.207 88.9938 532.12 89.0731 532.041L92.2861 528.814C92.5521 528.543 92.7948 528.284 93.0141 528.037C93.2334 527.785 93.4201 527.533 93.5741 527.281C93.7328 527.029 93.8541 526.775 93.9381 526.518C94.0221 526.257 94.0641 525.979 94.0641 525.685C94.0641 525.391 94.0174 525.134 93.9241 524.915C93.8308 524.691 93.7024 524.507 93.5391 524.362C93.3758 524.217 93.1844 524.11 92.9651 524.04C92.7458 523.965 92.5101 523.928 92.2581 523.928C92.0061 523.928 91.7728 523.965 91.5581 524.04C91.3434 524.115 91.1521 524.22 90.9841 524.355C90.8208 524.486 90.6808 524.642 90.5641 524.824C90.4521 525.006 90.3728 525.207 90.3261 525.426C90.2888 525.561 90.2328 525.659 90.1581 525.72C90.0834 525.781 89.9854 525.811 89.8641 525.811C89.8408 525.811 89.8151 525.811 89.7871 525.811C89.7638 525.806 89.7358 525.802 89.7031 525.797L89.0521 525.685C89.1174 525.228 89.2434 524.824 89.4301 524.474C89.6168 524.119 89.8524 523.823 90.1371 523.585C90.4264 523.347 90.7554 523.167 91.1241 523.046C91.4974 522.92 91.8988 522.857 92.3281 522.857Z" fill="#909399"/>
<rect x="80" y="512" width="12" height="1" fill="#909399"/>
<rect x="80.5" y="464.5" width="239" height="31" rx="2.5" stroke="#DCDFE6"/>
</g>
<g clip-path="url(#clip1)">
<path d="M167.302 366V359.973L166.518 359.882C166.42 359.859 166.338 359.824 166.273 359.777C166.212 359.726 166.182 359.653 166.182 359.56V359.049H167.302V358.363C167.302 357.957 167.358 357.598 167.47 357.285C167.587 356.968 167.75 356.702 167.96 356.487C168.175 356.268 168.431 356.102 168.73 355.99C169.029 355.878 169.365 355.822 169.738 355.822C170.055 355.822 170.349 355.869 170.62 355.962L170.592 356.585C170.587 356.678 170.548 356.734 170.473 356.753C170.398 356.772 170.293 356.781 170.158 356.781H169.941C169.726 356.781 169.53 356.809 169.353 356.865C169.18 356.921 169.031 357.012 168.905 357.138C168.779 357.264 168.681 357.43 168.611 357.635C168.546 357.84 168.513 358.095 168.513 358.398V359.049H170.564V359.952H168.555V366H167.302ZM174.609 358.797C175.127 358.797 175.593 358.883 176.009 359.056C176.429 359.229 176.783 359.474 177.073 359.791C177.367 360.108 177.591 360.493 177.745 360.946C177.903 361.394 177.983 361.896 177.983 362.451C177.983 363.011 177.903 363.515 177.745 363.963C177.591 364.411 177.367 364.794 177.073 365.111C176.783 365.428 176.429 365.673 176.009 365.846C175.593 366.014 175.127 366.098 174.609 366.098C174.091 366.098 173.622 366.014 173.202 365.846C172.786 365.673 172.432 365.428 172.138 365.111C171.844 364.794 171.617 364.411 171.459 363.963C171.3 363.515 171.221 363.011 171.221 362.451C171.221 361.896 171.3 361.394 171.459 360.946C171.617 360.493 171.844 360.108 172.138 359.791C172.432 359.474 172.786 359.229 173.202 359.056C173.622 358.883 174.091 358.797 174.609 358.797ZM174.609 365.125C175.309 365.125 175.831 364.892 176.177 364.425C176.522 363.954 176.695 363.298 176.695 362.458C176.695 361.613 176.522 360.955 176.177 360.484C175.831 360.013 175.309 359.777 174.609 359.777C174.254 359.777 173.946 359.838 173.685 359.959C173.423 360.08 173.204 360.255 173.027 360.484C172.854 360.713 172.723 360.995 172.635 361.331C172.551 361.662 172.509 362.038 172.509 362.458C172.509 362.878 172.551 363.254 172.635 363.585C172.723 363.916 172.854 364.196 173.027 364.425C173.204 364.649 173.423 364.822 173.685 364.943C173.946 365.064 174.254 365.125 174.609 365.125ZM179.518 366V358.909H180.26C180.437 358.909 180.549 358.995 180.596 359.168L180.694 359.938C181.002 359.597 181.345 359.322 181.723 359.112C182.106 358.902 182.547 358.797 183.046 358.797C183.433 358.797 183.774 358.862 184.068 358.993C184.367 359.119 184.614 359.301 184.81 359.539C185.011 359.772 185.162 360.055 185.265 360.386C185.368 360.717 185.419 361.084 185.419 361.485V366H184.173V361.485C184.173 360.948 184.049 360.533 183.802 360.239C183.559 359.94 183.186 359.791 182.682 359.791C182.313 359.791 181.968 359.88 181.646 360.057C181.329 360.234 181.035 360.475 180.764 360.778V366H179.518ZM189.446 366.112C188.886 366.112 188.455 365.956 188.151 365.643C187.853 365.33 187.703 364.88 187.703 364.292V359.952H186.849C186.775 359.952 186.712 359.931 186.66 359.889C186.609 359.842 186.583 359.772 186.583 359.679V359.182L187.745 359.035L188.032 356.844C188.042 356.774 188.072 356.718 188.123 356.676C188.175 356.629 188.24 356.606 188.319 356.606H188.949V359.049H190.979V359.952H188.949V364.208C188.949 364.507 189.022 364.728 189.166 364.873C189.311 365.018 189.498 365.09 189.726 365.09C189.857 365.09 189.969 365.074 190.062 365.041C190.16 365.004 190.244 364.964 190.314 364.922C190.384 364.88 190.443 364.843 190.489 364.81C190.541 364.773 190.585 364.754 190.622 364.754C190.688 364.754 190.746 364.794 190.797 364.873L191.161 365.468C190.947 365.669 190.688 365.827 190.384 365.944C190.081 366.056 189.768 366.112 189.446 366.112ZM192.198 361.275H195.656V362.332H192.198V361.275ZM201.434 360.078C201.378 360.181 201.291 360.232 201.175 360.232C201.105 360.232 201.025 360.206 200.937 360.155C200.848 360.104 200.738 360.048 200.608 359.987C200.482 359.922 200.33 359.863 200.153 359.812C199.975 359.756 199.765 359.728 199.523 359.728C199.313 359.728 199.124 359.756 198.956 359.812C198.788 359.863 198.643 359.936 198.522 360.029C198.405 360.122 198.314 360.232 198.249 360.358C198.188 360.479 198.158 360.612 198.158 360.757C198.158 360.939 198.209 361.091 198.312 361.212C198.419 361.333 198.559 361.438 198.732 361.527C198.904 361.616 199.1 361.695 199.32 361.765C199.539 361.83 199.763 361.903 199.992 361.982C200.225 362.057 200.451 362.141 200.671 362.234C200.89 362.327 201.086 362.444 201.259 362.584C201.431 362.724 201.569 362.897 201.672 363.102C201.779 363.303 201.833 363.545 201.833 363.83C201.833 364.157 201.774 364.46 201.658 364.74C201.541 365.015 201.368 365.256 201.14 365.461C200.911 365.662 200.631 365.82 200.3 365.937C199.968 366.054 199.586 366.112 199.152 366.112C198.657 366.112 198.209 366.033 197.808 365.874C197.406 365.711 197.066 365.503 196.786 365.251L197.08 364.775C197.117 364.714 197.161 364.668 197.213 364.635C197.264 364.602 197.332 364.586 197.416 364.586C197.5 364.586 197.588 364.619 197.682 364.684C197.775 364.749 197.887 364.822 198.018 364.901C198.153 364.98 198.314 365.053 198.501 365.118C198.692 365.183 198.93 365.216 199.215 365.216C199.457 365.216 199.67 365.186 199.852 365.125C200.034 365.06 200.185 364.973 200.307 364.866C200.428 364.759 200.517 364.635 200.573 364.495C200.633 364.355 200.664 364.206 200.664 364.047C200.664 363.851 200.61 363.69 200.503 363.564C200.4 363.433 200.262 363.324 200.09 363.235C199.917 363.142 199.719 363.062 199.495 362.997C199.275 362.927 199.049 362.855 198.816 362.78C198.587 362.705 198.361 362.621 198.137 362.528C197.917 362.43 197.721 362.309 197.549 362.164C197.376 362.019 197.236 361.842 197.129 361.632C197.026 361.417 196.975 361.158 196.975 360.855C196.975 360.584 197.031 360.325 197.143 360.078C197.255 359.826 197.418 359.607 197.633 359.42C197.847 359.229 198.111 359.077 198.424 358.965C198.736 358.853 199.093 358.797 199.495 358.797C199.961 358.797 200.379 358.872 200.748 359.021C201.121 359.166 201.443 359.366 201.714 359.623L201.434 360.078ZM204.83 358.909V366H203.584V358.909H204.83ZM205.11 356.683C205.11 356.804 205.084 356.919 205.033 357.026C204.986 357.129 204.921 357.222 204.837 357.306C204.758 357.385 204.664 357.448 204.557 357.495C204.45 357.542 204.335 357.565 204.214 357.565C204.093 357.565 203.978 357.542 203.871 357.495C203.768 357.448 203.675 357.385 203.591 357.306C203.512 357.222 203.449 357.129 203.402 357.026C203.355 356.919 203.332 356.804 203.332 356.683C203.332 356.562 203.355 356.447 203.402 356.34C203.449 356.228 203.512 356.132 203.591 356.053C203.675 355.969 203.768 355.904 203.871 355.857C203.978 355.81 204.093 355.787 204.214 355.787C204.335 355.787 204.45 355.81 204.557 355.857C204.664 355.904 204.758 355.969 204.837 356.053C204.921 356.132 204.986 356.228 205.033 356.34C205.084 356.447 205.11 356.562 205.11 356.683ZM211.975 359.441C211.975 359.53 211.959 359.616 211.926 359.7C211.893 359.779 211.851 359.852 211.8 359.917L207.964 365.027H211.835V366H206.494V365.482C206.494 365.421 206.508 365.351 206.536 365.272C206.569 365.188 206.613 365.109 206.669 365.034L210.526 359.889H206.711V358.909H211.975V359.441ZM216.3 358.797C216.724 358.797 217.116 358.869 217.476 359.014C217.835 359.154 218.145 359.359 218.407 359.63C218.668 359.896 218.871 360.227 219.016 360.624C219.165 361.016 219.24 361.464 219.24 361.968C219.24 362.164 219.219 362.295 219.177 362.36C219.135 362.425 219.055 362.458 218.939 362.458H214.221C214.23 362.906 214.291 363.296 214.403 363.627C214.515 363.958 214.669 364.236 214.865 364.46C215.061 364.679 215.294 364.845 215.565 364.957C215.835 365.064 216.139 365.118 216.475 365.118C216.787 365.118 217.056 365.083 217.28 365.013C217.508 364.938 217.704 364.859 217.868 364.775C218.031 364.691 218.166 364.614 218.274 364.544C218.386 364.469 218.481 364.432 218.561 364.432C218.663 364.432 218.743 364.472 218.799 364.551L219.149 365.006C218.995 365.193 218.81 365.356 218.596 365.496C218.381 365.631 218.15 365.743 217.903 365.832C217.66 365.921 217.408 365.986 217.147 366.028C216.885 366.075 216.626 366.098 216.37 366.098C215.88 366.098 215.427 366.016 215.012 365.853C214.601 365.685 214.244 365.442 213.941 365.125C213.642 364.803 213.409 364.406 213.241 363.935C213.073 363.464 212.989 362.922 212.989 362.311C212.989 361.816 213.063 361.354 213.213 360.925C213.367 360.496 213.586 360.125 213.871 359.812C214.155 359.495 214.503 359.247 214.914 359.07C215.324 358.888 215.786 358.797 216.3 358.797ZM216.328 359.714C215.726 359.714 215.252 359.889 214.907 360.239C214.561 360.584 214.347 361.065 214.263 361.681H218.12C218.12 361.392 218.08 361.128 218.001 360.89C217.921 360.647 217.805 360.44 217.651 360.267C217.497 360.09 217.308 359.954 217.084 359.861C216.864 359.763 216.612 359.714 216.328 359.714ZM220.709 365.23C220.709 365.109 220.73 364.994 220.772 364.887C220.818 364.78 220.879 364.686 220.954 364.607C221.033 364.528 221.126 364.465 221.234 364.418C221.341 364.371 221.455 364.348 221.577 364.348C221.698 364.348 221.812 364.371 221.92 364.418C222.027 364.465 222.12 364.528 222.2 364.607C222.279 364.686 222.34 364.78 222.382 364.887C222.428 364.994 222.452 365.109 222.452 365.23C222.452 365.356 222.428 365.473 222.382 365.58C222.34 365.683 222.279 365.774 222.2 365.853C222.12 365.932 222.027 365.993 221.92 366.035C221.812 366.082 221.698 366.105 221.577 366.105C221.455 366.105 221.341 366.082 221.234 366.035C221.126 365.993 221.033 365.932 220.954 365.853C220.879 365.774 220.818 365.683 220.772 365.58C220.73 365.473 220.709 365.356 220.709 365.23ZM220.709 359.98C220.709 359.859 220.73 359.744 220.772 359.637C220.818 359.53 220.879 359.436 220.954 359.357C221.033 359.278 221.126 359.215 221.234 359.168C221.341 359.121 221.455 359.098 221.577 359.098C221.698 359.098 221.812 359.121 221.92 359.168C222.027 359.215 222.12 359.278 222.2 359.357C222.279 359.436 222.34 359.53 222.382 359.637C222.428 359.744 222.452 359.859 222.452 359.98C222.452 360.106 222.428 360.223 222.382 360.33C222.34 360.433 222.279 360.524 222.2 360.603C222.12 360.682 222.027 360.745 221.92 360.792C221.812 360.834 221.698 360.855 221.577 360.855C221.455 360.855 221.341 360.834 221.234 360.792C221.126 360.745 221.033 360.682 220.954 360.603C220.879 360.524 220.818 360.433 220.772 360.33C220.73 360.223 220.709 360.106 220.709 359.98ZM228.056 365.048H230.212V358.209C230.212 358.004 230.219 357.796 230.233 357.586L228.441 359.119C228.394 359.156 228.348 359.184 228.301 359.203C228.254 359.217 228.21 359.224 228.168 359.224C228.098 359.224 228.035 359.21 227.979 359.182C227.923 359.149 227.881 359.112 227.853 359.07L227.461 358.531L230.443 355.948H231.458V365.048H233.432V366H228.056V365.048ZM240.489 362.381H242.008V363.095C242.008 363.17 241.985 363.233 241.938 363.284C241.896 363.335 241.828 363.361 241.735 363.361H240.489V366H239.39V363.361H234.945C234.852 363.361 234.77 363.335 234.7 363.284C234.635 363.228 234.593 363.16 234.574 363.081L234.448 362.444L239.327 355.969H240.489V362.381ZM239.39 358.244C239.39 358.123 239.392 357.992 239.397 357.852C239.406 357.712 239.423 357.567 239.446 357.418L235.799 362.381H239.39V358.244ZM243.311 368.401V358.909H244.053C244.23 358.909 244.342 358.995 244.389 359.168L244.494 360.008C244.797 359.639 245.143 359.343 245.53 359.119C245.922 358.895 246.372 358.783 246.881 358.783C247.287 358.783 247.656 358.862 247.987 359.021C248.318 359.175 248.601 359.406 248.834 359.714C249.067 360.017 249.247 360.395 249.373 360.848C249.499 361.301 249.562 361.821 249.562 362.409C249.562 362.932 249.492 363.419 249.352 363.872C249.212 364.32 249.011 364.71 248.75 365.041C248.489 365.368 248.167 365.627 247.784 365.818C247.406 366.005 246.979 366.098 246.503 366.098C246.064 366.098 245.689 366.026 245.376 365.881C245.068 365.736 244.795 365.531 244.557 365.265V368.401H243.311ZM246.468 359.791C246.062 359.791 245.705 359.884 245.397 360.071C245.094 360.258 244.814 360.521 244.557 360.862V364.292C244.786 364.6 245.035 364.817 245.306 364.943C245.581 365.069 245.887 365.132 246.223 365.132C246.881 365.132 247.387 364.896 247.742 364.425C248.097 363.954 248.274 363.282 248.274 362.409C248.274 361.947 248.232 361.55 248.148 361.219C248.069 360.888 247.952 360.617 247.798 360.407C247.644 360.192 247.455 360.036 247.231 359.938C247.007 359.84 246.753 359.791 246.468 359.791ZM252.271 362.367L249.884 358.909H251.081C251.184 358.909 251.258 358.925 251.305 358.958C251.352 358.991 251.394 359.037 251.431 359.098L253.167 361.758C253.209 361.627 253.27 361.497 253.349 361.366L254.875 359.126C254.922 359.061 254.968 359.009 255.015 358.972C255.062 358.93 255.12 358.909 255.19 358.909H256.338L253.951 362.297L256.436 366H255.239C255.136 366 255.055 365.974 254.994 365.923C254.938 365.867 254.891 365.806 254.854 365.741L253.069 362.962C253.036 363.097 252.987 363.219 252.922 363.326L251.27 365.741C251.223 365.806 251.172 365.867 251.116 365.923C251.065 365.974 250.992 366 250.899 366H249.786L252.271 362.367ZM257.583 365.139C257.583 365.032 257.601 364.931 257.639 364.838C257.681 364.74 257.737 364.656 257.807 364.586C257.881 364.511 257.97 364.453 258.073 364.411C258.175 364.369 258.287 364.348 258.409 364.348C258.549 364.348 258.672 364.374 258.78 364.425C258.892 364.476 258.983 364.549 259.053 364.642C259.127 364.731 259.183 364.836 259.221 364.957C259.258 365.074 259.277 365.202 259.277 365.342C259.277 365.552 259.246 365.771 259.186 366C259.125 366.224 259.039 366.446 258.927 366.665C258.815 366.889 258.675 367.106 258.507 367.316C258.343 367.526 258.157 367.72 257.947 367.897L257.737 367.694C257.676 367.638 257.646 367.573 257.646 367.498C257.646 367.437 257.678 367.374 257.744 367.309C257.79 367.258 257.849 367.188 257.919 367.099C257.993 367.015 258.068 366.917 258.143 366.805C258.217 366.693 258.285 366.569 258.346 366.434C258.411 366.299 258.458 366.154 258.486 366H258.395C258.273 366 258.164 365.979 258.066 365.937C257.968 365.895 257.881 365.837 257.807 365.762C257.737 365.683 257.681 365.592 257.639 365.489C257.601 365.382 257.583 365.265 257.583 365.139ZM257.541 359.98C257.541 359.859 257.562 359.744 257.604 359.637C257.65 359.53 257.711 359.436 257.786 359.357C257.865 359.278 257.958 359.215 258.066 359.168C258.173 359.121 258.287 359.098 258.409 359.098C258.53 359.098 258.644 359.121 258.752 359.168C258.859 359.215 258.952 359.278 259.032 359.357C259.111 359.436 259.172 359.53 259.214 359.637C259.26 359.744 259.284 359.859 259.284 359.98C259.284 360.106 259.26 360.223 259.214 360.33C259.172 360.433 259.111 360.524 259.032 360.603C258.952 360.682 258.859 360.745 258.752 360.792C258.644 360.834 258.53 360.855 258.409 360.855C258.287 360.855 258.173 360.834 258.066 360.792C257.958 360.745 257.865 360.682 257.786 360.603C257.711 360.524 257.65 360.433 257.604 360.33C257.562 360.223 257.541 360.106 257.541 359.98ZM265.455 364.859H269.795V366H264.097V355.969H265.455V364.859ZM276.3 366H275.747C275.626 366 275.528 365.981 275.453 365.944C275.379 365.907 275.33 365.827 275.306 365.706L275.166 365.048C274.98 365.216 274.798 365.368 274.62 365.503C274.443 365.634 274.256 365.746 274.06 365.839C273.864 365.928 273.654 365.995 273.43 366.042C273.211 366.089 272.966 366.112 272.695 366.112C272.42 366.112 272.161 366.075 271.918 366C271.68 365.921 271.473 365.804 271.295 365.65C271.118 365.496 270.976 365.302 270.868 365.069C270.766 364.831 270.714 364.551 270.714 364.229C270.714 363.949 270.791 363.681 270.945 363.424C271.099 363.163 271.347 362.932 271.687 362.731C272.033 362.53 272.483 362.367 273.038 362.241C273.594 362.11 274.273 362.036 275.075 362.017V361.464C275.075 360.913 274.956 360.498 274.718 360.218C274.485 359.933 274.137 359.791 273.675 359.791C273.372 359.791 273.115 359.831 272.905 359.91C272.7 359.985 272.52 360.071 272.366 360.169C272.217 360.262 272.086 360.349 271.974 360.428C271.867 360.503 271.76 360.54 271.652 360.54C271.568 360.54 271.494 360.519 271.428 360.477C271.368 360.43 271.319 360.374 271.281 360.309L271.057 359.91C271.449 359.532 271.872 359.25 272.324 359.063C272.777 358.876 273.279 358.783 273.829 358.783C274.226 358.783 274.578 358.848 274.886 358.979C275.194 359.11 275.453 359.292 275.663 359.525C275.873 359.758 276.032 360.041 276.139 360.372C276.247 360.703 276.3 361.067 276.3 361.464V366ZM273.066 365.237C273.286 365.237 273.486 365.216 273.668 365.174C273.85 365.127 274.021 365.064 274.179 364.985C274.343 364.901 274.497 364.801 274.641 364.684C274.791 364.567 274.935 364.434 275.075 364.285V362.808C274.501 362.827 274.014 362.873 273.612 362.948C273.211 363.018 272.884 363.111 272.632 363.228C272.38 363.345 272.196 363.482 272.079 363.641C271.967 363.8 271.911 363.977 271.911 364.173C271.911 364.36 271.942 364.521 272.002 364.656C272.063 364.791 272.145 364.903 272.247 364.992C272.35 365.076 272.471 365.139 272.611 365.181C272.751 365.218 272.903 365.237 273.066 365.237ZM280.337 366.112C279.777 366.112 279.345 365.956 279.042 365.643C278.743 365.33 278.594 364.88 278.594 364.292V359.952H277.74C277.665 359.952 277.602 359.931 277.551 359.889C277.5 359.842 277.474 359.772 277.474 359.679V359.182L278.636 359.035L278.923 356.844C278.932 356.774 278.963 356.718 279.014 356.676C279.065 356.629 279.131 356.606 279.21 356.606H279.84V359.049H281.87V359.952H279.84V364.208C279.84 364.507 279.912 364.728 280.057 364.873C280.202 365.018 280.388 365.09 280.617 365.09C280.748 365.09 280.86 365.074 280.953 365.041C281.051 365.004 281.135 364.964 281.205 364.922C281.275 364.88 281.333 364.843 281.38 364.81C281.431 364.773 281.476 364.754 281.513 364.754C281.578 364.754 281.637 364.794 281.688 364.873L282.052 365.468C281.837 365.669 281.578 365.827 281.275 365.944C280.972 366.056 280.659 366.112 280.337 366.112ZM286.281 358.797C286.799 358.797 287.265 358.883 287.681 359.056C288.101 359.229 288.455 359.474 288.745 359.791C289.039 360.108 289.263 360.493 289.417 360.946C289.575 361.394 289.655 361.896 289.655 362.451C289.655 363.011 289.575 363.515 289.417 363.963C289.263 364.411 289.039 364.794 288.745 365.111C288.455 365.428 288.101 365.673 287.681 365.846C287.265 366.014 286.799 366.098 286.281 366.098C285.763 366.098 285.294 366.014 284.874 365.846C284.458 365.673 284.104 365.428 283.81 365.111C283.516 364.794 283.289 364.411 283.131 363.963C282.972 363.515 282.893 363.011 282.893 362.451C282.893 361.896 282.972 361.394 283.131 360.946C283.289 360.493 283.516 360.108 283.81 359.791C284.104 359.474 284.458 359.229 284.874 359.056C285.294 358.883 285.763 358.797 286.281 358.797ZM286.281 365.125C286.981 365.125 287.503 364.892 287.849 364.425C288.194 363.954 288.367 363.298 288.367 362.458C288.367 361.613 288.194 360.955 287.849 360.484C287.503 360.013 286.981 359.777 286.281 359.777C285.926 359.777 285.618 359.838 285.357 359.959C285.095 360.08 284.876 360.255 284.699 360.484C284.526 360.713 284.395 360.995 284.307 361.331C284.223 361.662 284.181 362.038 284.181 362.458C284.181 362.878 284.223 363.254 284.307 363.585C284.395 363.916 284.526 364.196 284.699 364.425C284.876 364.649 285.095 364.822 285.357 364.943C285.618 365.064 285.926 365.125 286.281 365.125ZM291.064 365.23C291.064 365.109 291.085 364.994 291.127 364.887C291.174 364.78 291.234 364.686 291.309 364.607C291.388 364.528 291.482 364.465 291.589 364.418C291.696 364.371 291.811 364.348 291.932 364.348C292.053 364.348 292.168 364.371 292.275 364.418C292.382 364.465 292.476 364.528 292.555 364.607C292.634 364.686 292.695 364.78 292.737 364.887C292.784 364.994 292.807 365.109 292.807 365.23C292.807 365.356 292.784 365.473 292.737 365.58C292.695 365.683 292.634 365.774 292.555 365.853C292.476 365.932 292.382 365.993 292.275 366.035C292.168 366.082 292.053 366.105 291.932 366.105C291.811 366.105 291.696 366.082 291.589 366.035C291.482 365.993 291.388 365.932 291.309 365.853C291.234 365.774 291.174 365.683 291.127 365.58C291.085 365.473 291.064 365.356 291.064 365.23ZM291.064 359.98C291.064 359.859 291.085 359.744 291.127 359.637C291.174 359.53 291.234 359.436 291.309 359.357C291.388 359.278 291.482 359.215 291.589 359.168C291.696 359.121 291.811 359.098 291.932 359.098C292.053 359.098 292.168 359.121 292.275 359.168C292.382 359.215 292.476 359.278 292.555 359.357C292.634 359.436 292.695 359.53 292.737 359.637C292.784 359.744 292.807 359.859 292.807 359.98C292.807 360.106 292.784 360.223 292.737 360.33C292.695 360.433 292.634 360.524 292.555 360.603C292.476 360.682 292.382 360.745 292.275 360.792C292.168 360.834 292.053 360.855 291.932 360.855C291.811 360.855 291.696 360.834 291.589 360.792C291.482 360.745 291.388 360.682 291.309 360.603C291.234 360.524 291.174 360.433 291.127 360.33C291.085 360.223 291.064 360.106 291.064 359.98ZM302.723 362.381H304.242V363.095C304.242 363.17 304.219 363.233 304.172 363.284C304.13 363.335 304.063 363.361 303.969 363.361H302.723V366H301.624V363.361H297.179C297.086 363.361 297.004 363.335 296.934 363.284C296.869 363.228 296.827 363.16 296.808 363.081L296.682 362.444L301.561 355.969H302.723V362.381ZM301.624 358.244C301.624 358.123 301.627 357.992 301.631 357.852C301.641 357.712 301.657 357.567 301.68 357.418L298.033 362.381H301.624V358.244ZM305.545 368.401V358.909H306.287C306.465 358.909 306.577 358.995 306.623 359.168L306.728 360.008C307.032 359.639 307.377 359.343 307.764 359.119C308.156 358.895 308.607 358.783 309.115 358.783C309.521 358.783 309.89 358.862 310.221 359.021C310.553 359.175 310.835 359.406 311.068 359.714C311.302 360.017 311.481 360.395 311.607 360.848C311.733 361.301 311.796 361.821 311.796 362.409C311.796 362.932 311.726 363.419 311.586 363.872C311.446 364.32 311.246 364.71 310.984 365.041C310.723 365.368 310.401 365.627 310.018 365.818C309.64 366.005 309.213 366.098 308.737 366.098C308.299 366.098 307.923 366.026 307.61 365.881C307.302 365.736 307.029 365.531 306.791 365.265V368.401H305.545ZM308.702 359.791C308.296 359.791 307.939 359.884 307.631 360.071C307.328 360.258 307.048 360.521 306.791 360.862V364.292C307.02 364.6 307.27 364.817 307.54 364.943C307.816 365.069 308.121 365.132 308.457 365.132C309.115 365.132 309.622 364.896 309.976 364.425C310.331 363.954 310.508 363.282 310.508 362.409C310.508 361.947 310.466 361.55 310.382 361.219C310.303 360.888 310.186 360.617 310.032 360.407C309.878 360.192 309.689 360.036 309.465 359.938C309.241 359.84 308.987 359.791 308.702 359.791ZM314.505 362.367L312.118 358.909H313.315C313.418 358.909 313.493 358.925 313.539 358.958C313.586 358.991 313.628 359.037 313.665 359.098L315.401 361.758C315.443 361.627 315.504 361.497 315.583 361.366L317.109 359.126C317.156 359.061 317.203 359.009 317.249 358.972C317.296 358.93 317.354 358.909 317.424 358.909H318.572L316.185 362.297L318.67 366H317.473C317.371 366 317.289 365.974 317.228 365.923C317.172 365.867 317.126 365.806 317.088 365.741L315.303 362.962C315.271 363.097 315.222 363.219 315.156 363.326L313.504 365.741C313.458 365.806 313.406 365.867 313.35 365.923C313.299 365.974 313.227 366 313.133 366H312.02L314.505 362.367Z" fill="#999999"/>
<rect x="344" y="263" width="1" height="36" fill="#9E9E9E"/>
<rect x="80" y="315" width="15" height="1" fill="#9E9E9E"/>
<rect x="80.5" y="263.5" width="239" height="35" rx="3.5" stroke="#DCDFE6"/>
</g>
<g clip-path="url(#clip2)">
<path d="M168.302 189V182.973L167.518 182.882C167.42 182.859 167.338 182.824 167.273 182.777C167.212 182.726 167.182 182.653 167.182 182.56V182.049H168.302V181.363C168.302 180.957 168.358 180.598 168.47 180.285C168.587 179.968 168.75 179.702 168.96 179.487C169.175 179.268 169.431 179.102 169.73 178.99C170.029 178.878 170.365 178.822 170.738 178.822C171.055 178.822 171.349 178.869 171.62 178.962L171.592 179.585C171.587 179.678 171.548 179.734 171.473 179.753C171.398 179.772 171.293 179.781 171.158 179.781H170.941C170.726 179.781 170.53 179.809 170.353 179.865C170.18 179.921 170.031 180.012 169.905 180.138C169.779 180.264 169.681 180.43 169.611 180.635C169.546 180.84 169.513 181.095 169.513 181.398V182.049H171.564V182.952H169.555V189H168.302ZM175.609 181.797C176.127 181.797 176.593 181.883 177.009 182.056C177.429 182.229 177.783 182.474 178.073 182.791C178.367 183.108 178.591 183.493 178.745 183.946C178.903 184.394 178.983 184.896 178.983 185.451C178.983 186.011 178.903 186.515 178.745 186.963C178.591 187.411 178.367 187.794 178.073 188.111C177.783 188.428 177.429 188.673 177.009 188.846C176.593 189.014 176.127 189.098 175.609 189.098C175.091 189.098 174.622 189.014 174.202 188.846C173.786 188.673 173.432 188.428 173.138 188.111C172.844 187.794 172.617 187.411 172.459 186.963C172.3 186.515 172.221 186.011 172.221 185.451C172.221 184.896 172.3 184.394 172.459 183.946C172.617 183.493 172.844 183.108 173.138 182.791C173.432 182.474 173.786 182.229 174.202 182.056C174.622 181.883 175.091 181.797 175.609 181.797ZM175.609 188.125C176.309 188.125 176.831 187.892 177.177 187.425C177.522 186.954 177.695 186.298 177.695 185.458C177.695 184.613 177.522 183.955 177.177 183.484C176.831 183.013 176.309 182.777 175.609 182.777C175.254 182.777 174.946 182.838 174.685 182.959C174.423 183.08 174.204 183.255 174.027 183.484C173.854 183.713 173.723 183.995 173.635 184.331C173.551 184.662 173.509 185.038 173.509 185.458C173.509 185.878 173.551 186.254 173.635 186.585C173.723 186.916 173.854 187.196 174.027 187.425C174.204 187.649 174.423 187.822 174.685 187.943C174.946 188.064 175.254 188.125 175.609 188.125ZM180.518 189V181.909H181.26C181.437 181.909 181.549 181.995 181.596 182.168L181.694 182.938C182.002 182.597 182.345 182.322 182.723 182.112C183.106 181.902 183.547 181.797 184.046 181.797C184.433 181.797 184.774 181.862 185.068 181.993C185.367 182.119 185.614 182.301 185.81 182.539C186.011 182.772 186.162 183.055 186.265 183.386C186.368 183.717 186.419 184.084 186.419 184.485V189H185.173V184.485C185.173 183.948 185.049 183.533 184.802 183.239C184.559 182.94 184.186 182.791 183.682 182.791C183.313 182.791 182.968 182.88 182.646 183.057C182.329 183.234 182.035 183.475 181.764 183.778V189H180.518ZM190.446 189.112C189.886 189.112 189.455 188.956 189.151 188.643C188.853 188.33 188.703 187.88 188.703 187.292V182.952H187.849C187.775 182.952 187.712 182.931 187.66 182.889C187.609 182.842 187.583 182.772 187.583 182.679V182.182L188.745 182.035L189.032 179.844C189.042 179.774 189.072 179.718 189.123 179.676C189.175 179.629 189.24 179.606 189.319 179.606H189.949V182.049H191.979V182.952H189.949V187.208C189.949 187.507 190.022 187.728 190.166 187.873C190.311 188.018 190.498 188.09 190.726 188.09C190.857 188.09 190.969 188.074 191.062 188.041C191.16 188.004 191.244 187.964 191.314 187.922C191.384 187.88 191.443 187.843 191.489 187.81C191.541 187.773 191.585 187.754 191.622 187.754C191.688 187.754 191.746 187.794 191.797 187.873L192.161 188.468C191.947 188.669 191.688 188.827 191.384 188.944C191.081 189.056 190.768 189.112 190.446 189.112ZM193.198 184.275H196.656V185.332H193.198V184.275ZM202.434 183.078C202.378 183.181 202.291 183.232 202.175 183.232C202.105 183.232 202.025 183.206 201.937 183.155C201.848 183.104 201.738 183.048 201.608 182.987C201.482 182.922 201.33 182.863 201.153 182.812C200.975 182.756 200.765 182.728 200.523 182.728C200.313 182.728 200.124 182.756 199.956 182.812C199.788 182.863 199.643 182.936 199.522 183.029C199.405 183.122 199.314 183.232 199.249 183.358C199.188 183.479 199.158 183.612 199.158 183.757C199.158 183.939 199.209 184.091 199.312 184.212C199.419 184.333 199.559 184.438 199.732 184.527C199.904 184.616 200.1 184.695 200.32 184.765C200.539 184.83 200.763 184.903 200.992 184.982C201.225 185.057 201.451 185.141 201.671 185.234C201.89 185.327 202.086 185.444 202.259 185.584C202.431 185.724 202.569 185.897 202.672 186.102C202.779 186.303 202.833 186.545 202.833 186.83C202.833 187.157 202.774 187.46 202.658 187.74C202.541 188.015 202.368 188.256 202.14 188.461C201.911 188.662 201.631 188.82 201.3 188.937C200.968 189.054 200.586 189.112 200.152 189.112C199.657 189.112 199.209 189.033 198.808 188.874C198.406 188.711 198.066 188.503 197.786 188.251L198.08 187.775C198.117 187.714 198.161 187.668 198.213 187.635C198.264 187.602 198.332 187.586 198.416 187.586C198.5 187.586 198.588 187.619 198.682 187.684C198.775 187.749 198.887 187.822 199.018 187.901C199.153 187.98 199.314 188.053 199.501 188.118C199.692 188.183 199.93 188.216 200.215 188.216C200.457 188.216 200.67 188.186 200.852 188.125C201.034 188.06 201.185 187.973 201.307 187.866C201.428 187.759 201.517 187.635 201.573 187.495C201.633 187.355 201.664 187.206 201.664 187.047C201.664 186.851 201.61 186.69 201.503 186.564C201.4 186.433 201.262 186.324 201.09 186.235C200.917 186.142 200.719 186.062 200.495 185.997C200.275 185.927 200.049 185.855 199.816 185.78C199.587 185.705 199.361 185.621 199.137 185.528C198.917 185.43 198.721 185.309 198.549 185.164C198.376 185.019 198.236 184.842 198.129 184.632C198.026 184.417 197.975 184.158 197.975 183.855C197.975 183.584 198.031 183.325 198.143 183.078C198.255 182.826 198.418 182.607 198.633 182.42C198.847 182.229 199.111 182.077 199.424 181.965C199.736 181.853 200.093 181.797 200.495 181.797C200.961 181.797 201.379 181.872 201.748 182.021C202.121 182.166 202.443 182.366 202.714 182.623L202.434 183.078ZM205.83 181.909V189H204.584V181.909H205.83ZM206.11 179.683C206.11 179.804 206.084 179.919 206.033 180.026C205.986 180.129 205.921 180.222 205.837 180.306C205.758 180.385 205.664 180.448 205.557 180.495C205.45 180.542 205.335 180.565 205.214 180.565C205.093 180.565 204.978 180.542 204.871 180.495C204.768 180.448 204.675 180.385 204.591 180.306C204.512 180.222 204.449 180.129 204.402 180.026C204.355 179.919 204.332 179.804 204.332 179.683C204.332 179.562 204.355 179.447 204.402 179.34C204.449 179.228 204.512 179.132 204.591 179.053C204.675 178.969 204.768 178.904 204.871 178.857C204.978 178.81 205.093 178.787 205.214 178.787C205.335 178.787 205.45 178.81 205.557 178.857C205.664 178.904 205.758 178.969 205.837 179.053C205.921 179.132 205.986 179.228 206.033 179.34C206.084 179.447 206.11 179.562 206.11 179.683ZM212.975 182.441C212.975 182.53 212.959 182.616 212.926 182.7C212.893 182.779 212.851 182.852 212.8 182.917L208.964 188.027H212.835V189H207.494V188.482C207.494 188.421 207.508 188.351 207.536 188.272C207.569 188.188 207.613 188.109 207.669 188.034L211.526 182.889H207.711V181.909H212.975V182.441ZM217.3 181.797C217.724 181.797 218.116 181.869 218.476 182.014C218.835 182.154 219.145 182.359 219.407 182.63C219.668 182.896 219.871 183.227 220.016 183.624C220.165 184.016 220.24 184.464 220.24 184.968C220.24 185.164 220.219 185.295 220.177 185.36C220.135 185.425 220.055 185.458 219.939 185.458H215.221C215.23 185.906 215.291 186.296 215.403 186.627C215.515 186.958 215.669 187.236 215.865 187.46C216.061 187.679 216.294 187.845 216.565 187.957C216.835 188.064 217.139 188.118 217.475 188.118C217.787 188.118 218.056 188.083 218.28 188.013C218.508 187.938 218.704 187.859 218.868 187.775C219.031 187.691 219.166 187.614 219.274 187.544C219.386 187.469 219.481 187.432 219.561 187.432C219.663 187.432 219.743 187.472 219.799 187.551L220.149 188.006C219.995 188.193 219.81 188.356 219.596 188.496C219.381 188.631 219.15 188.743 218.903 188.832C218.66 188.921 218.408 188.986 218.147 189.028C217.885 189.075 217.626 189.098 217.37 189.098C216.88 189.098 216.427 189.016 216.012 188.853C215.601 188.685 215.244 188.442 214.941 188.125C214.642 187.803 214.409 187.406 214.241 186.935C214.073 186.464 213.989 185.922 213.989 185.311C213.989 184.816 214.063 184.354 214.213 183.925C214.367 183.496 214.586 183.125 214.871 182.812C215.155 182.495 215.503 182.247 215.914 182.07C216.324 181.888 216.786 181.797 217.3 181.797ZM217.328 182.714C216.726 182.714 216.252 182.889 215.907 183.239C215.561 183.584 215.347 184.065 215.263 184.681H219.12C219.12 184.392 219.08 184.128 219.001 183.89C218.921 183.647 218.805 183.44 218.651 183.267C218.497 183.09 218.308 182.954 218.084 182.861C217.864 182.763 217.612 182.714 217.328 182.714ZM221.709 188.23C221.709 188.109 221.73 187.994 221.772 187.887C221.818 187.78 221.879 187.686 221.954 187.607C222.033 187.528 222.126 187.465 222.234 187.418C222.341 187.371 222.455 187.348 222.577 187.348C222.698 187.348 222.812 187.371 222.92 187.418C223.027 187.465 223.12 187.528 223.2 187.607C223.279 187.686 223.34 187.78 223.382 187.887C223.428 187.994 223.452 188.109 223.452 188.23C223.452 188.356 223.428 188.473 223.382 188.58C223.34 188.683 223.279 188.774 223.2 188.853C223.12 188.932 223.027 188.993 222.92 189.035C222.812 189.082 222.698 189.105 222.577 189.105C222.455 189.105 222.341 189.082 222.234 189.035C222.126 188.993 222.033 188.932 221.954 188.853C221.879 188.774 221.818 188.683 221.772 188.58C221.73 188.473 221.709 188.356 221.709 188.23ZM221.709 182.98C221.709 182.859 221.73 182.744 221.772 182.637C221.818 182.53 221.879 182.436 221.954 182.357C222.033 182.278 222.126 182.215 222.234 182.168C222.341 182.121 222.455 182.098 222.577 182.098C222.698 182.098 222.812 182.121 222.92 182.168C223.027 182.215 223.12 182.278 223.2 182.357C223.279 182.436 223.34 182.53 223.382 182.637C223.428 182.744 223.452 182.859 223.452 182.98C223.452 183.106 223.428 183.223 223.382 183.33C223.34 183.433 223.279 183.524 223.2 183.603C223.12 183.682 223.027 183.745 222.92 183.792C222.812 183.834 222.698 183.855 222.577 183.855C222.455 183.855 222.341 183.834 222.234 183.792C222.126 183.745 222.033 183.682 221.954 183.603C221.879 183.524 221.818 183.433 221.772 183.33C221.73 183.223 221.709 183.106 221.709 182.98ZM229.056 188.048H231.212V181.209C231.212 181.004 231.219 180.796 231.233 180.586L229.441 182.119C229.394 182.156 229.348 182.184 229.301 182.203C229.254 182.217 229.21 182.224 229.168 182.224C229.098 182.224 229.035 182.21 228.979 182.182C228.923 182.149 228.881 182.112 228.853 182.07L228.461 181.531L231.443 178.948H232.458V188.048H234.432V189H229.056V188.048ZM241.489 185.381H243.008V186.095C243.008 186.17 242.985 186.233 242.938 186.284C242.896 186.335 242.828 186.361 242.735 186.361H241.489V189H240.39V186.361H235.945C235.852 186.361 235.77 186.335 235.7 186.284C235.635 186.228 235.593 186.16 235.574 186.081L235.448 185.444L240.327 178.969H241.489V185.381ZM240.39 181.244C240.39 181.123 240.392 180.992 240.397 180.852C240.406 180.712 240.423 180.567 240.446 180.418L236.799 185.381H240.39V181.244ZM244.311 191.401V181.909H245.053C245.23 181.909 245.342 181.995 245.389 182.168L245.494 183.008C245.797 182.639 246.143 182.343 246.53 182.119C246.922 181.895 247.372 181.783 247.881 181.783C248.287 181.783 248.656 181.862 248.987 182.021C249.318 182.175 249.601 182.406 249.834 182.714C250.067 183.017 250.247 183.395 250.373 183.848C250.499 184.301 250.562 184.821 250.562 185.409C250.562 185.932 250.492 186.419 250.352 186.872C250.212 187.32 250.011 187.71 249.75 188.041C249.489 188.368 249.167 188.627 248.784 188.818C248.406 189.005 247.979 189.098 247.503 189.098C247.064 189.098 246.689 189.026 246.376 188.881C246.068 188.736 245.795 188.531 245.557 188.265V191.401H244.311ZM247.468 182.791C247.062 182.791 246.705 182.884 246.397 183.071C246.094 183.258 245.814 183.521 245.557 183.862V187.292C245.786 187.6 246.035 187.817 246.306 187.943C246.581 188.069 246.887 188.132 247.223 188.132C247.881 188.132 248.387 187.896 248.742 187.425C249.097 186.954 249.274 186.282 249.274 185.409C249.274 184.947 249.232 184.55 249.148 184.219C249.069 183.888 248.952 183.617 248.798 183.407C248.644 183.192 248.455 183.036 248.231 182.938C248.007 182.84 247.753 182.791 247.468 182.791ZM253.271 185.367L250.884 181.909H252.081C252.184 181.909 252.258 181.925 252.305 181.958C252.352 181.991 252.394 182.037 252.431 182.098L254.167 184.758C254.209 184.627 254.27 184.497 254.349 184.366L255.875 182.126C255.922 182.061 255.968 182.009 256.015 181.972C256.062 181.93 256.12 181.909 256.19 181.909H257.338L254.951 185.297L257.436 189H256.239C256.136 189 256.055 188.974 255.994 188.923C255.938 188.867 255.891 188.806 255.854 188.741L254.069 185.962C254.036 186.097 253.987 186.219 253.922 186.326L252.27 188.741C252.223 188.806 252.172 188.867 252.116 188.923C252.065 188.974 251.992 189 251.899 189H250.786L253.271 185.367ZM258.583 188.139C258.583 188.032 258.601 187.931 258.639 187.838C258.681 187.74 258.737 187.656 258.807 187.586C258.881 187.511 258.97 187.453 259.073 187.411C259.175 187.369 259.287 187.348 259.409 187.348C259.549 187.348 259.672 187.374 259.78 187.425C259.892 187.476 259.983 187.549 260.053 187.642C260.127 187.731 260.183 187.836 260.221 187.957C260.258 188.074 260.277 188.202 260.277 188.342C260.277 188.552 260.246 188.771 260.186 189C260.125 189.224 260.039 189.446 259.927 189.665C259.815 189.889 259.675 190.106 259.507 190.316C259.343 190.526 259.157 190.72 258.947 190.897L258.737 190.694C258.676 190.638 258.646 190.573 258.646 190.498C258.646 190.437 258.678 190.374 258.744 190.309C258.79 190.258 258.849 190.188 258.919 190.099C258.993 190.015 259.068 189.917 259.143 189.805C259.217 189.693 259.285 189.569 259.346 189.434C259.411 189.299 259.458 189.154 259.486 189H259.395C259.273 189 259.164 188.979 259.066 188.937C258.968 188.895 258.881 188.837 258.807 188.762C258.737 188.683 258.681 188.592 258.639 188.489C258.601 188.382 258.583 188.265 258.583 188.139ZM258.541 182.98C258.541 182.859 258.562 182.744 258.604 182.637C258.65 182.53 258.711 182.436 258.786 182.357C258.865 182.278 258.958 182.215 259.066 182.168C259.173 182.121 259.287 182.098 259.409 182.098C259.53 182.098 259.644 182.121 259.752 182.168C259.859 182.215 259.952 182.278 260.032 182.357C260.111 182.436 260.172 182.53 260.214 182.637C260.26 182.744 260.284 182.859 260.284 182.98C260.284 183.106 260.26 183.223 260.214 183.33C260.172 183.433 260.111 183.524 260.032 183.603C259.952 183.682 259.859 183.745 259.752 183.792C259.644 183.834 259.53 183.855 259.409 183.855C259.287 183.855 259.173 183.834 259.066 183.792C258.958 183.745 258.865 183.682 258.786 183.603C258.711 183.524 258.65 183.433 258.604 183.33C258.562 183.223 258.541 183.106 258.541 182.98ZM266.455 187.859H270.795V189H265.097V178.969H266.455V187.859ZM277.3 189H276.747C276.626 189 276.528 188.981 276.453 188.944C276.379 188.907 276.33 188.827 276.306 188.706L276.166 188.048C275.98 188.216 275.798 188.368 275.62 188.503C275.443 188.634 275.256 188.746 275.06 188.839C274.864 188.928 274.654 188.995 274.43 189.042C274.211 189.089 273.966 189.112 273.695 189.112C273.42 189.112 273.161 189.075 272.918 189C272.68 188.921 272.473 188.804 272.295 188.65C272.118 188.496 271.976 188.302 271.868 188.069C271.766 187.831 271.714 187.551 271.714 187.229C271.714 186.949 271.791 186.681 271.945 186.424C272.099 186.163 272.347 185.932 272.687 185.731C273.033 185.53 273.483 185.367 274.038 185.241C274.594 185.11 275.273 185.036 276.075 185.017V184.464C276.075 183.913 275.956 183.498 275.718 183.218C275.485 182.933 275.137 182.791 274.675 182.791C274.372 182.791 274.115 182.831 273.905 182.91C273.7 182.985 273.52 183.071 273.366 183.169C273.217 183.262 273.086 183.349 272.974 183.428C272.867 183.503 272.76 183.54 272.652 183.54C272.568 183.54 272.494 183.519 272.428 183.477C272.368 183.43 272.319 183.374 272.281 183.309L272.057 182.91C272.449 182.532 272.872 182.25 273.324 182.063C273.777 181.876 274.279 181.783 274.829 181.783C275.226 181.783 275.578 181.848 275.886 181.979C276.194 182.11 276.453 182.292 276.663 182.525C276.873 182.758 277.032 183.041 277.139 183.372C277.247 183.703 277.3 184.067 277.3 184.464V189ZM274.066 188.237C274.286 188.237 274.486 188.216 274.668 188.174C274.85 188.127 275.021 188.064 275.179 187.985C275.343 187.901 275.497 187.801 275.641 187.684C275.791 187.567 275.935 187.434 276.075 187.285V185.808C275.501 185.827 275.014 185.873 274.612 185.948C274.211 186.018 273.884 186.111 273.632 186.228C273.38 186.345 273.196 186.482 273.079 186.641C272.967 186.8 272.911 186.977 272.911 187.173C272.911 187.36 272.942 187.521 273.002 187.656C273.063 187.791 273.145 187.903 273.247 187.992C273.35 188.076 273.471 188.139 273.611 188.181C273.751 188.218 273.903 188.237 274.066 188.237ZM281.337 189.112C280.777 189.112 280.345 188.956 280.042 188.643C279.743 188.33 279.594 187.88 279.594 187.292V182.952H278.74C278.665 182.952 278.602 182.931 278.551 182.889C278.5 182.842 278.474 182.772 278.474 182.679V182.182L279.636 182.035L279.923 179.844C279.932 179.774 279.963 179.718 280.014 179.676C280.065 179.629 280.131 179.606 280.21 179.606H280.84V182.049H282.87V182.952H280.84V187.208C280.84 187.507 280.912 187.728 281.057 187.873C281.202 188.018 281.388 188.09 281.617 188.09C281.748 188.09 281.86 188.074 281.953 188.041C282.051 188.004 282.135 187.964 282.205 187.922C282.275 187.88 282.333 187.843 282.38 187.81C282.431 187.773 282.476 187.754 282.513 187.754C282.578 187.754 282.637 187.794 282.688 187.873L283.052 188.468C282.837 188.669 282.578 188.827 282.275 188.944C281.972 189.056 281.659 189.112 281.337 189.112ZM287.281 181.797C287.799 181.797 288.265 181.883 288.681 182.056C289.101 182.229 289.455 182.474 289.745 182.791C290.039 183.108 290.263 183.493 290.417 183.946C290.575 184.394 290.655 184.896 290.655 185.451C290.655 186.011 290.575 186.515 290.417 186.963C290.263 187.411 290.039 187.794 289.745 188.111C289.455 188.428 289.101 188.673 288.681 188.846C288.265 189.014 287.799 189.098 287.281 189.098C286.763 189.098 286.294 189.014 285.874 188.846C285.458 188.673 285.104 188.428 284.81 188.111C284.516 187.794 284.289 187.411 284.131 186.963C283.972 186.515 283.893 186.011 283.893 185.451C283.893 184.896 283.972 184.394 284.131 183.946C284.289 183.493 284.516 183.108 284.81 182.791C285.104 182.474 285.458 182.229 285.874 182.056C286.294 181.883 286.763 181.797 287.281 181.797ZM287.281 188.125C287.981 188.125 288.503 187.892 288.849 187.425C289.194 186.954 289.367 186.298 289.367 185.458C289.367 184.613 289.194 183.955 288.849 183.484C288.503 183.013 287.981 182.777 287.281 182.777C286.926 182.777 286.618 182.838 286.357 182.959C286.095 183.08 285.876 183.255 285.699 183.484C285.526 183.713 285.395 183.995 285.307 184.331C285.223 184.662 285.181 185.038 285.181 185.458C285.181 185.878 285.223 186.254 285.307 186.585C285.395 186.916 285.526 187.196 285.699 187.425C285.876 187.649 286.095 187.822 286.357 187.943C286.618 188.064 286.926 188.125 287.281 188.125ZM292.064 188.23C292.064 188.109 292.085 187.994 292.127 187.887C292.174 187.78 292.234 187.686 292.309 187.607C292.388 187.528 292.482 187.465 292.589 187.418C292.696 187.371 292.811 187.348 292.932 187.348C293.053 187.348 293.168 187.371 293.275 187.418C293.382 187.465 293.476 187.528 293.555 187.607C293.634 187.686 293.695 187.78 293.737 187.887C293.784 187.994 293.807 188.109 293.807 188.23C293.807 188.356 293.784 188.473 293.737 188.58C293.695 188.683 293.634 188.774 293.555 188.853C293.476 188.932 293.382 188.993 293.275 189.035C293.168 189.082 293.053 189.105 292.932 189.105C292.811 189.105 292.696 189.082 292.589 189.035C292.482 188.993 292.388 188.932 292.309 188.853C292.234 188.774 292.174 188.683 292.127 188.58C292.085 188.473 292.064 188.356 292.064 188.23ZM292.064 182.98C292.064 182.859 292.085 182.744 292.127 182.637C292.174 182.53 292.234 182.436 292.309 182.357C292.388 182.278 292.482 182.215 292.589 182.168C292.696 182.121 292.811 182.098 292.932 182.098C293.053 182.098 293.168 182.121 293.275 182.168C293.382 182.215 293.476 182.278 293.555 182.357C293.634 182.436 293.695 182.53 293.737 182.637C293.784 182.744 293.807 182.859 293.807 182.98C293.807 183.106 293.784 183.223 293.737 183.33C293.695 183.433 293.634 183.524 293.555 183.603C293.476 183.682 293.382 183.745 293.275 183.792C293.168 183.834 293.053 183.855 292.932 183.855C292.811 183.855 292.696 183.834 292.589 183.792C292.482 183.745 292.388 183.682 292.309 183.603C292.234 183.524 292.174 183.433 292.127 183.33C292.085 183.223 292.064 183.106 292.064 182.98ZM303.723 185.381H305.242V186.095C305.242 186.17 305.219 186.233 305.172 186.284C305.13 186.335 305.063 186.361 304.969 186.361H303.723V189H302.624V186.361H298.179C298.086 186.361 298.004 186.335 297.934 186.284C297.869 186.228 297.827 186.16 297.808 186.081L297.682 185.444L302.561 178.969H303.723V185.381ZM302.624 181.244C302.624 181.123 302.627 180.992 302.631 180.852C302.641 180.712 302.657 180.567 302.68 180.418L299.033 185.381H302.624V181.244ZM306.545 191.401V181.909H307.287C307.465 181.909 307.577 181.995 307.623 182.168L307.728 183.008C308.032 182.639 308.377 182.343 308.764 182.119C309.156 181.895 309.607 181.783 310.115 181.783C310.521 181.783 310.89 181.862 311.221 182.021C311.553 182.175 311.835 182.406 312.068 182.714C312.302 183.017 312.481 183.395 312.607 183.848C312.733 184.301 312.796 184.821 312.796 185.409C312.796 185.932 312.726 186.419 312.586 186.872C312.446 187.32 312.246 187.71 311.984 188.041C311.723 188.368 311.401 188.627 311.018 188.818C310.64 189.005 310.213 189.098 309.737 189.098C309.299 189.098 308.923 189.026 308.61 188.881C308.302 188.736 308.029 188.531 307.791 188.265V191.401H306.545ZM309.702 182.791C309.296 182.791 308.939 182.884 308.631 183.071C308.328 183.258 308.048 183.521 307.791 183.862V187.292C308.02 187.6 308.27 187.817 308.54 187.943C308.816 188.069 309.121 188.132 309.457 188.132C310.115 188.132 310.622 187.896 310.976 187.425C311.331 186.954 311.508 186.282 311.508 185.409C311.508 184.947 311.466 184.55 311.382 184.219C311.303 183.888 311.186 183.617 311.032 183.407C310.878 183.192 310.689 183.036 310.465 182.938C310.241 182.84 309.987 182.791 309.702 182.791ZM315.505 185.367L313.118 181.909H314.315C314.418 181.909 314.493 181.925 314.539 181.958C314.586 181.991 314.628 182.037 314.665 182.098L316.401 184.758C316.443 184.627 316.504 184.497 316.583 184.366L318.109 182.126C318.156 182.061 318.203 182.009 318.249 181.972C318.296 181.93 318.354 181.909 318.424 181.909H319.572L317.185 185.297L319.67 189H318.473C318.371 189 318.289 188.974 318.228 188.923C318.172 188.867 318.126 188.806 318.088 188.741L316.303 185.962C316.271 186.097 316.222 186.219 316.156 186.326L314.504 188.741C314.458 188.806 314.406 188.867 314.35 188.923C314.299 188.974 314.227 189 314.133 189H313.02L315.505 185.367Z" fill="#999999"/>
<rect x="345" y="87" width="1" height="40" fill="#9E9E9E"/>
<rect x="81" y="143" width="15" height="1" fill="#9E9E9E"/>
<rect x="81.5" y="87.5" width="239" height="39" rx="3.5" stroke="#DCDFE6"/>
</g>
<path d="M82.024 54.1035H85.434V55H80.957V47.1185H82.024V54.1035ZM90.5454 55H90.1109C90.0156 55 89.9386 54.9853 89.8799 54.956C89.8212 54.9267 89.7827 54.8643 89.7644 54.769L89.6544 54.252C89.5077 54.384 89.3647 54.5032 89.2254 54.6095C89.0861 54.7122 88.9394 54.8002 88.7854 54.8735C88.6314 54.9432 88.4664 54.9963 88.2904 55.033C88.1181 55.0697 87.9256 55.088 87.7129 55.088C87.4966 55.088 87.2931 55.0587 87.1024 55C86.9154 54.9377 86.7522 54.846 86.6129 54.725C86.4736 54.604 86.3617 54.4518 86.2774 54.2685C86.1967 54.0815 86.1564 53.8615 86.1564 53.6085C86.1564 53.3885 86.2169 53.1777 86.3379 52.976C86.4589 52.7707 86.6532 52.5892 86.9209 52.4315C87.1922 52.2738 87.5461 52.1455 87.9824 52.0465C88.4187 51.9438 88.9522 51.8852 89.5829 51.8705V51.436C89.5829 51.0033 89.4894 50.677 89.3024 50.457C89.1191 50.2333 88.8459 50.1215 88.4829 50.1215C88.2446 50.1215 88.0429 50.1527 87.8779 50.215C87.7166 50.2737 87.5754 50.3415 87.4544 50.4185C87.3371 50.4918 87.2344 50.5597 87.1464 50.622C87.0621 50.6807 86.9777 50.71 86.8934 50.71C86.8274 50.71 86.7687 50.6935 86.7174 50.6605C86.6697 50.6238 86.6312 50.5798 86.6019 50.5285L86.4259 50.215C86.7339 49.918 87.0657 49.6962 87.4214 49.5495C87.7771 49.4028 88.1712 49.3295 88.6039 49.3295C88.9156 49.3295 89.1924 49.3808 89.4344 49.4835C89.6764 49.5862 89.8799 49.7292 90.0449 49.9125C90.2099 50.0958 90.3346 50.3177 90.4189 50.578C90.5032 50.8383 90.5454 51.1243 90.5454 51.436V55ZM88.0044 54.4005C88.1767 54.4005 88.3344 54.384 88.4774 54.351C88.6204 54.3143 88.7542 54.2648 88.8789 54.2025C89.0072 54.1365 89.1282 54.0577 89.2419 53.966C89.3592 53.8743 89.4729 53.7698 89.5829 53.6525V52.492C89.1319 52.5067 88.7487 52.5433 88.4334 52.602C88.1181 52.657 87.8614 52.7303 87.6634 52.822C87.4654 52.9137 87.3206 53.0218 87.2289 53.1465C87.1409 53.2712 87.0969 53.4105 87.0969 53.5645C87.0969 53.7112 87.1207 53.8377 87.1684 53.944C87.2161 54.0503 87.2802 54.1383 87.3609 54.208C87.4416 54.274 87.5369 54.3235 87.6469 54.3565C87.7569 54.3858 87.8761 54.4005 88.0044 54.4005ZM92.0286 55V49.4285H92.5896C92.6959 49.4285 92.7693 49.4487 92.8096 49.489C92.8499 49.5293 92.8774 49.599 92.8921 49.698L92.9581 50.567C93.1488 50.1783 93.3834 49.8758 93.6621 49.6595C93.9444 49.4395 94.2744 49.3295 94.6521 49.3295C94.8061 49.3295 94.9454 49.3478 95.0701 49.3845C95.1948 49.4175 95.3103 49.4652 95.4166 49.5275L95.2901 50.259C95.2644 50.3507 95.2076 50.3965 95.1196 50.3965C95.0683 50.3965 94.9894 50.38 94.8831 50.347C94.7768 50.3103 94.6283 50.292 94.4376 50.292C94.0966 50.292 93.8106 50.391 93.5796 50.589C93.3523 50.787 93.1616 51.0748 93.0076 51.4525V55H92.0286ZM98.3406 49.335C98.5826 49.335 98.8081 49.3625 99.0171 49.4175C99.2298 49.4688 99.4223 49.5458 99.5946 49.6485H101.107V50.0115C101.107 50.1325 101.03 50.2095 100.876 50.2425L100.244 50.3305C100.368 50.5688 100.431 50.8347 100.431 51.128C100.431 51.3993 100.377 51.6468 100.271 51.8705C100.168 52.0905 100.024 52.2793 99.8366 52.437C99.6533 52.5947 99.4333 52.7157 99.1766 52.8C98.9236 52.8843 98.6449 52.9265 98.3406 52.9265C98.0803 52.9265 97.8346 52.8953 97.6036 52.833C97.4863 52.9063 97.3964 52.9852 97.3341 53.0695C97.2754 53.1538 97.2461 53.2363 97.2461 53.317C97.2461 53.449 97.2993 53.5498 97.4056 53.6195C97.5119 53.6855 97.6531 53.7332 97.8291 53.7625C98.0051 53.7918 98.2049 53.8102 98.4286 53.8175C98.6523 53.8248 98.8796 53.8377 99.1106 53.856C99.3453 53.8707 99.5744 53.8982 99.7981 53.9385C100.022 53.9788 100.222 54.0448 100.398 54.1365C100.574 54.2282 100.715 54.3547 100.821 54.516C100.927 54.6773 100.981 54.8863 100.981 55.143C100.981 55.3813 100.92 55.6123 100.799 55.836C100.682 56.0597 100.511 56.2577 100.288 56.43C100.064 56.606 99.7908 56.7453 99.4681 56.848C99.1454 56.9543 98.7806 57.0075 98.3736 57.0075C97.9666 57.0075 97.6091 56.9672 97.3011 56.8865C96.9968 56.8058 96.7438 56.6977 96.5421 56.562C96.3404 56.4263 96.1883 56.2687 96.0856 56.089C95.9866 55.913 95.9371 55.7278 95.9371 55.5335C95.9371 55.2585 96.0233 55.0257 96.1956 54.835C96.3716 54.6407 96.6118 54.4867 96.9161 54.373C96.7584 54.2997 96.6319 54.2025 96.5366 54.0815C96.4449 53.9568 96.3991 53.7918 96.3991 53.5865C96.3991 53.5058 96.4138 53.4233 96.4431 53.339C96.4724 53.251 96.5164 53.1648 96.5751 53.0805C96.6374 52.9962 96.7126 52.9155 96.8006 52.8385C96.8886 52.7615 96.9913 52.6937 97.1086 52.635C96.8336 52.481 96.6173 52.2775 96.4596 52.0245C96.3056 51.7678 96.2286 51.469 96.2286 51.128C96.2286 50.8567 96.2799 50.611 96.3826 50.391C96.4889 50.1673 96.6356 49.9785 96.8226 49.8245C97.0096 49.6668 97.2314 49.5458 97.4881 49.4615C97.7484 49.3772 98.0326 49.335 98.3406 49.335ZM100.079 55.3025C100.079 55.1632 100.04 55.0513 99.9631 54.967C99.8861 54.8827 99.7816 54.8185 99.6496 54.7745C99.5176 54.7268 99.3654 54.692 99.1931 54.67C99.0208 54.648 98.8393 54.6333 98.6486 54.626C98.4579 54.615 98.2636 54.604 98.0656 54.593C97.8676 54.582 97.6788 54.5618 97.4991 54.5325C97.2901 54.6315 97.1196 54.7525 96.9876 54.8955C96.8593 55.0385 96.7951 55.209 96.7951 55.407C96.7951 55.5317 96.8263 55.6472 96.8886 55.7535C96.9546 55.8635 97.0536 55.957 97.1856 56.034C97.3176 56.1147 97.4826 56.177 97.6806 56.221C97.8823 56.2687 98.1188 56.2925 98.3901 56.2925C98.6541 56.2925 98.8906 56.2687 99.0996 56.221C99.3086 56.1733 99.4846 56.1055 99.6276 56.0175C99.7743 55.9295 99.8861 55.825 99.9631 55.704C100.04 55.583 100.079 55.4492 100.079 55.3025ZM98.3406 52.2775C98.5386 52.2775 98.7128 52.25 98.8631 52.195C99.0171 52.14 99.1454 52.063 99.2481 51.964C99.3508 51.865 99.4278 51.7477 99.4791 51.612C99.5304 51.4727 99.5561 51.3205 99.5561 51.1555C99.5561 50.8145 99.4516 50.5432 99.2426 50.3415C99.0373 50.1398 98.7366 50.039 98.3406 50.039C97.9483 50.039 97.6476 50.1398 97.4386 50.3415C97.2333 50.5432 97.1306 50.8145 97.1306 51.1555C97.1306 51.3205 97.1563 51.4727 97.2076 51.612C97.2626 51.7477 97.3414 51.865 97.4441 51.964C97.5468 52.063 97.6733 52.14 97.8236 52.195C97.9739 52.25 98.1463 52.2775 98.3406 52.2775ZM104.289 49.3405C104.622 49.3405 104.93 49.3973 105.213 49.511C105.495 49.621 105.739 49.7823 105.944 49.995C106.15 50.204 106.309 50.4643 106.423 50.776C106.54 51.084 106.599 51.436 106.599 51.832C106.599 51.986 106.582 52.0887 106.549 52.14C106.516 52.1913 106.454 52.217 106.362 52.217H102.655C102.663 52.569 102.71 52.8752 102.798 53.1355C102.886 53.3958 103.007 53.614 103.161 53.79C103.315 53.9623 103.499 54.0925 103.711 54.1805C103.924 54.2648 104.162 54.307 104.426 54.307C104.672 54.307 104.883 54.2795 105.059 54.2245C105.238 54.1658 105.392 54.1035 105.521 54.0375C105.649 53.9715 105.755 53.911 105.84 53.856C105.928 53.7973 106.003 53.768 106.065 53.768C106.146 53.768 106.208 53.7992 106.252 53.8615L106.527 54.219C106.406 54.3657 106.261 54.494 106.093 54.604C105.924 54.7103 105.743 54.7983 105.548 54.868C105.358 54.9377 105.16 54.989 104.954 55.022C104.749 55.0587 104.545 55.077 104.344 55.077C103.959 55.077 103.603 55.0128 103.277 54.8845C102.954 54.7525 102.674 54.5618 102.435 54.3125C102.201 54.0595 102.017 53.7478 101.885 53.3775C101.753 53.0072 101.687 52.5818 101.687 52.1015C101.687 51.7128 101.746 51.3498 101.863 51.0125C101.984 50.6752 102.157 50.3837 102.38 50.138C102.604 49.8887 102.877 49.6943 103.2 49.555C103.522 49.412 103.885 49.3405 104.289 49.3405ZM104.311 50.061C103.838 50.061 103.466 50.1985 103.194 50.4735C102.923 50.7448 102.754 51.1225 102.688 51.6065H105.719C105.719 51.3792 105.688 51.172 105.625 50.985C105.563 50.7943 105.471 50.6312 105.35 50.4955C105.229 50.3562 105.081 50.2498 104.905 50.1765C104.732 50.0995 104.534 50.061 104.311 50.061Z" fill="#979797"/>
<path d="M85.8345 226.151C85.8858 226.239 85.9298 226.332 85.9665 226.431C86.0068 226.527 86.0453 226.624 86.082 226.723C86.1187 226.62 86.1572 226.523 86.1975 226.431C86.2378 226.336 86.2837 226.241 86.335 226.145L89.0025 221.3C89.0502 221.216 89.0997 221.164 89.151 221.146C89.2023 221.128 89.2757 221.118 89.371 221.118H90.1575V229H89.2225V223.208C89.2225 223.131 89.2243 223.049 89.228 222.961C89.2317 222.873 89.2372 222.783 89.2445 222.691L86.544 227.619C86.4523 227.784 86.324 227.867 86.159 227.867H86.005C85.84 227.867 85.7117 227.784 85.62 227.619L82.859 222.675C82.87 222.77 82.8773 222.864 82.881 222.955C82.8883 223.047 82.892 223.131 82.892 223.208V229H81.957V221.118H82.7435C82.8388 221.118 82.9122 221.128 82.9635 221.146C83.0148 221.164 83.0643 221.216 83.112 221.3L85.8345 226.151ZM94.1276 223.34C94.4613 223.34 94.7693 223.397 95.0516 223.511C95.334 223.621 95.5778 223.782 95.7831 223.995C95.9885 224.204 96.148 224.464 96.2616 224.776C96.379 225.084 96.4376 225.436 96.4376 225.832C96.4376 225.986 96.4211 226.089 96.3881 226.14C96.3551 226.191 96.2928 226.217 96.2011 226.217H92.4941C92.5015 226.569 92.5491 226.875 92.6371 227.135C92.7251 227.396 92.8461 227.614 93.0001 227.79C93.1541 227.962 93.3375 228.092 93.5501 228.18C93.7628 228.265 94.0011 228.307 94.2651 228.307C94.5108 228.307 94.7216 228.279 94.8976 228.224C95.0773 228.166 95.2313 228.103 95.3596 228.037C95.488 227.971 95.5943 227.911 95.6786 227.856C95.7666 227.797 95.8418 227.768 95.9041 227.768C95.9848 227.768 96.0471 227.799 96.0911 227.861L96.3661 228.219C96.2451 228.366 96.1003 228.494 95.9316 228.604C95.763 228.71 95.5815 228.798 95.3871 228.868C95.1965 228.938 94.9985 228.989 94.7931 229.022C94.5878 229.059 94.3843 229.077 94.1826 229.077C93.7976 229.077 93.442 229.013 93.1156 228.884C92.793 228.752 92.5125 228.562 92.2741 228.312C92.0395 228.059 91.8561 227.748 91.7241 227.377C91.5921 227.007 91.5261 226.582 91.5261 226.101C91.5261 225.713 91.5848 225.35 91.7021 225.012C91.8231 224.675 91.9955 224.384 92.2191 224.138C92.4428 223.889 92.716 223.694 93.0386 223.555C93.3613 223.412 93.7243 223.34 94.1276 223.34ZM94.1496 224.061C93.6766 224.061 93.3045 224.198 93.0331 224.473C92.7618 224.745 92.5931 225.122 92.5271 225.606H95.5576C95.5576 225.379 95.5265 225.172 95.4641 224.985C95.4018 224.794 95.3101 224.631 95.1891 224.495C95.0681 224.356 94.9196 224.25 94.7436 224.176C94.5713 224.099 94.3733 224.061 94.1496 224.061ZM101.612 229C101.473 229 101.385 228.932 101.348 228.796L101.26 228.12C101.022 228.41 100.749 228.642 100.441 228.819C100.136 228.991 99.7862 229.077 99.3902 229.077C99.0712 229.077 98.7815 229.016 98.5212 228.895C98.2609 228.771 98.039 228.589 97.8557 228.351C97.6724 228.113 97.5312 227.816 97.4322 227.46C97.3332 227.104 97.2837 226.695 97.2837 226.233C97.2837 225.823 97.3387 225.441 97.4487 225.089C97.5587 224.734 97.7164 224.426 97.9217 224.165C98.1307 223.905 98.3837 223.702 98.6807 223.555C98.9777 223.405 99.315 223.329 99.6927 223.329C100.034 223.329 100.325 223.388 100.567 223.505C100.809 223.619 101.026 223.78 101.216 223.989V220.898H102.195V229H101.612ZM99.7147 228.285C100.034 228.285 100.312 228.212 100.551 228.065C100.793 227.918 101.015 227.711 101.216 227.443V224.748C101.037 224.506 100.839 224.338 100.622 224.242C100.41 224.143 100.173 224.094 99.9127 224.094C99.392 224.094 98.9924 224.279 98.7137 224.649C98.435 225.02 98.2957 225.548 98.2957 226.233C98.2957 226.596 98.3269 226.908 98.3892 227.168C98.4515 227.425 98.5432 227.638 98.6642 227.806C98.7852 227.971 98.9337 228.092 99.1097 228.169C99.2857 228.246 99.4874 228.285 99.7147 228.285ZM104.924 223.428V229H103.945V223.428H104.924ZM105.144 221.679C105.144 221.775 105.124 221.865 105.084 221.949C105.047 222.03 104.996 222.103 104.93 222.169C104.867 222.231 104.794 222.281 104.71 222.317C104.625 222.354 104.536 222.372 104.44 222.372C104.345 222.372 104.255 222.354 104.171 222.317C104.09 222.281 104.017 222.231 103.951 222.169C103.888 222.103 103.839 222.03 103.802 221.949C103.766 221.865 103.747 221.775 103.747 221.679C103.747 221.584 103.766 221.494 103.802 221.41C103.839 221.322 103.888 221.247 103.951 221.184C104.017 221.118 104.09 221.067 104.171 221.03C104.255 220.994 104.345 220.975 104.44 220.975C104.536 220.975 104.625 220.994 104.71 221.03C104.794 221.067 104.867 221.118 104.93 221.184C104.996 221.247 105.047 221.322 105.084 221.41C105.124 221.494 105.144 221.584 105.144 221.679ZM107.497 223.428V226.981C107.497 227.403 107.594 227.729 107.788 227.96C107.983 228.191 108.276 228.307 108.668 228.307C108.954 228.307 109.224 228.239 109.477 228.103C109.73 227.968 109.963 227.779 110.175 227.537V223.428H111.154V229H110.571C110.432 229 110.344 228.932 110.307 228.796L110.23 228.197C109.988 228.465 109.717 228.681 109.416 228.846C109.116 229.007 108.771 229.088 108.382 229.088C108.078 229.088 107.808 229.039 107.574 228.939C107.343 228.837 107.148 228.694 106.991 228.51C106.833 228.327 106.714 228.105 106.633 227.845C106.556 227.585 106.518 227.297 106.518 226.981V223.428H107.497ZM112.762 229V223.428H113.345C113.484 223.428 113.572 223.496 113.609 223.632L113.68 224.204C113.886 223.951 114.115 223.744 114.368 223.582C114.625 223.421 114.922 223.34 115.259 223.34C115.637 223.34 115.941 223.445 116.172 223.654C116.407 223.863 116.575 224.145 116.678 224.501C116.755 224.299 116.856 224.125 116.98 223.978C117.109 223.832 117.252 223.711 117.409 223.615C117.567 223.52 117.734 223.45 117.91 223.406C118.09 223.362 118.271 223.34 118.454 223.34C118.748 223.34 119.008 223.388 119.235 223.483C119.466 223.575 119.661 223.711 119.818 223.89C119.98 224.07 120.103 224.292 120.187 224.556C120.271 224.816 120.313 225.115 120.313 225.452V229H119.334V225.452C119.334 225.016 119.239 224.686 119.048 224.462C118.858 224.235 118.581 224.121 118.218 224.121C118.057 224.121 117.903 224.151 117.756 224.209C117.613 224.264 117.486 224.347 117.376 224.457C117.266 224.567 117.178 224.706 117.112 224.875C117.05 225.04 117.019 225.232 117.019 225.452V229H116.04V225.452C116.04 225.005 115.95 224.671 115.77 224.451C115.591 224.231 115.329 224.121 114.984 224.121C114.742 224.121 114.516 224.187 114.307 224.319C114.102 224.448 113.913 224.624 113.741 224.847V229H112.762Z" fill="#979797"/>
<path d="M84.994 423.35C84.961 423.405 84.9262 423.448 84.8895 423.477C84.8528 423.503 84.8052 423.515 84.7465 423.515C84.6842 423.515 84.6108 423.484 84.5265 423.422C84.4458 423.36 84.3413 423.292 84.213 423.218C84.0883 423.141 83.9362 423.072 83.7565 423.009C83.5805 422.947 83.366 422.916 83.113 422.916C82.8747 422.916 82.6638 422.949 82.4805 423.015C82.2972 423.077 82.1432 423.163 82.0185 423.273C81.8975 423.383 81.8058 423.514 81.7435 423.664C81.6812 423.811 81.65 423.97 81.65 424.142C81.65 424.362 81.7032 424.546 81.8095 424.692C81.9195 424.835 82.0625 424.958 82.2385 425.061C82.4182 425.164 82.6198 425.253 82.8435 425.33C83.0708 425.404 83.3018 425.481 83.5365 425.561C83.7748 425.642 84.0058 425.734 84.2295 425.836C84.4568 425.935 84.6585 426.062 84.8345 426.216C85.0142 426.37 85.1572 426.559 85.2635 426.782C85.3735 427.006 85.4285 427.281 85.4285 427.607C85.4285 427.952 85.3698 428.277 85.2525 428.581C85.1352 428.882 84.9628 429.144 84.7355 429.367C84.5118 429.591 84.235 429.767 83.905 429.895C83.5787 430.024 83.2065 430.088 82.7885 430.088C82.2788 430.088 81.8132 429.996 81.3915 429.813C80.9735 429.626 80.616 429.375 80.319 429.059L80.627 428.553C80.6563 428.513 80.6912 428.48 80.7315 428.454C80.7755 428.425 80.8232 428.41 80.8745 428.41C80.9515 428.41 81.0395 428.453 81.1385 428.537C81.2375 428.618 81.3603 428.707 81.507 428.806C81.6573 428.905 81.837 428.997 82.046 429.081C82.2587 429.162 82.5172 429.202 82.8215 429.202C83.0745 429.202 83.3 429.168 83.498 429.098C83.696 429.028 83.8628 428.931 83.9985 428.806C84.1378 428.678 84.2442 428.526 84.3175 428.35C84.3908 428.174 84.4275 427.978 84.4275 427.761C84.4275 427.523 84.3725 427.329 84.2625 427.178C84.1562 427.024 84.015 426.896 83.839 426.793C83.663 426.691 83.4613 426.605 83.234 426.535C83.0103 426.462 82.7793 426.388 82.541 426.315C82.3063 426.238 82.0753 426.15 81.848 426.051C81.6243 425.952 81.4245 425.824 81.2485 425.666C81.0725 425.508 80.9295 425.312 80.8195 425.077C80.7132 424.839 80.66 424.546 80.66 424.197C80.66 423.919 80.7132 423.649 80.8195 423.389C80.9295 423.129 81.0872 422.898 81.2925 422.696C81.4978 422.494 81.7508 422.333 82.0515 422.212C82.3558 422.091 82.7042 422.03 83.0965 422.03C83.5365 422.03 83.938 422.1 84.301 422.239C84.664 422.379 84.9812 422.58 85.2525 422.844L84.994 423.35ZM86.636 430V424.428H87.219C87.3583 424.428 87.4463 424.496 87.483 424.632L87.5545 425.204C87.7598 424.951 87.989 424.744 88.242 424.582C88.4987 424.421 88.7957 424.34 89.133 424.34C89.5107 424.34 89.815 424.445 90.046 424.654C90.2807 424.863 90.4493 425.145 90.552 425.501C90.629 425.299 90.7298 425.125 90.8545 424.978C90.9828 424.832 91.1258 424.711 91.2835 424.615C91.4412 424.52 91.608 424.45 91.784 424.406C91.9637 424.362 92.1452 424.34 92.3285 424.34C92.6218 424.34 92.8822 424.388 93.1095 424.483C93.3405 424.575 93.5348 424.711 93.6925 424.89C93.8538 425.07 93.9767 425.292 94.061 425.556C94.1453 425.816 94.1875 426.115 94.1875 426.452V430H93.2085V426.452C93.2085 426.016 93.1132 425.686 92.9225 425.462C92.7318 425.235 92.455 425.121 92.092 425.121C91.9307 425.121 91.7767 425.151 91.63 425.209C91.487 425.264 91.3605 425.347 91.2505 425.457C91.1405 425.567 91.0525 425.706 90.9865 425.875C90.9242 426.04 90.893 426.232 90.893 426.452V430H89.914V426.452C89.914 426.005 89.8242 425.671 89.6445 425.451C89.4648 425.231 89.2027 425.121 88.858 425.121C88.616 425.121 88.3905 425.187 88.1815 425.319C87.9762 425.448 87.7873 425.624 87.615 425.847V430H86.636ZM99.7622 430H99.3277C99.2324 430 99.1554 429.985 99.0967 429.956C99.038 429.927 98.9995 429.864 98.9812 429.769L98.8712 429.252C98.7245 429.384 98.5815 429.503 98.4422 429.609C98.3029 429.712 98.1562 429.8 98.0022 429.873C97.8482 429.943 97.6832 429.996 97.5072 430.033C97.3349 430.07 97.1424 430.088 96.9297 430.088C96.7134 430.088 96.5099 430.059 96.3192 430C96.1322 429.938 95.969 429.846 95.8297 429.725C95.6904 429.604 95.5785 429.452 95.4942 429.268C95.4135 429.081 95.3732 428.861 95.3732 428.608C95.3732 428.388 95.4337 428.178 95.5547 427.976C95.6757 427.771 95.87 427.589 96.1377 427.431C96.409 427.274 96.7629 427.145 97.1992 427.046C97.6355 426.944 98.169 426.885 98.7997 426.87V426.436C98.7997 426.003 98.7062 425.677 98.5192 425.457C98.3359 425.233 98.0627 425.121 97.6997 425.121C97.4614 425.121 97.2597 425.153 97.0947 425.215C96.9334 425.274 96.7922 425.341 96.6712 425.418C96.5539 425.492 96.4512 425.56 96.3632 425.622C96.2789 425.681 96.1945 425.71 96.1102 425.71C96.0442 425.71 95.9855 425.693 95.9342 425.66C95.8865 425.624 95.848 425.58 95.8187 425.528L95.6427 425.215C95.9507 424.918 96.2825 424.696 96.6382 424.549C96.9939 424.403 97.388 424.329 97.8207 424.329C98.1324 424.329 98.4092 424.381 98.6512 424.483C98.8932 424.586 99.0967 424.729 99.2617 424.912C99.4267 425.096 99.5514 425.318 99.6357 425.578C99.72 425.838 99.7622 426.124 99.7622 426.436V430ZM97.2212 429.4C97.3935 429.4 97.5512 429.384 97.6942 429.351C97.8372 429.314 97.971 429.265 98.0957 429.202C98.224 429.136 98.345 429.058 98.4587 428.966C98.576 428.874 98.6897 428.77 98.7997 428.652V427.492C98.3487 427.507 97.9655 427.543 97.6502 427.602C97.3349 427.657 97.0782 427.73 96.8802 427.822C96.6822 427.914 96.5374 428.022 96.4457 428.146C96.3577 428.271 96.3137 428.41 96.3137 428.564C96.3137 428.711 96.3375 428.838 96.3852 428.944C96.4329 429.05 96.497 429.138 96.5777 429.208C96.6584 429.274 96.7537 429.323 96.8637 429.356C96.9737 429.386 97.0929 429.4 97.2212 429.4ZM102.334 421.898V430H101.355V421.898H102.334ZM105.149 421.898V430H104.17V421.898H105.149Z" fill="#979797"/>
<defs>
<clipPath id="clip0">
<rect x="80" y="464" width="290" height="106" fill="white"/>
</clipPath>
<clipPath id="clip1">
<rect x="80" y="263" width="288" height="105" fill="white"/>
</clipPath>
<clipPath id="clip2">
<rect x="81" y="87" width="289" height="104" fill="white"/>
</clipPath>
</defs>
</svg>
