<svg width="1000" height="378" viewBox="0 0 1000 378" fill="none" xmlns="http://www.w3.org/2000/svg">
<rect width="1000" height="378" fill="white"/>
<rect x="547.5" y="44.5" width="13" height="13" rx="1.5" fill="#F0F2F5" stroke="#D5D8DE"/>
<path fill-rule="evenodd" clip-rule="evenodd" d="M362 46C362 44.8954 362.895 44 364 44H374C375.105 44 376 44.8954 376 46V56C376 57.1046 375.105 58 374 58H364C362.895 58 362 57.1046 362 56V46ZM372.778 48.1213L374.192 49.5355L368.536 55.1924L367.828 54.4853L367.121 53.7782L365 51.6569L366.414 50.2426L368.536 52.364L372.778 48.1213Z" fill="#C0C4CC"/>
<rect x="203.5" y="44.5" width="13" height="13" rx="1.5" fill="white" stroke="#D5D8DE"/>
<path d="M580.386 55.076C580.742 55.076 581.06 55.016 581.34 54.896C581.62 54.776 581.856 54.608 582.048 54.392C582.244 54.176 582.392 53.918 582.492 53.618C582.596 53.318 582.648 52.988 582.648 52.628V47.402H583.806V52.628C583.806 53.124 583.726 53.584 583.566 54.008C583.41 54.432 583.184 54.8 582.888 55.112C582.596 55.42 582.238 55.662 581.814 55.838C581.39 56.014 580.914 56.102 580.386 56.102C579.858 56.102 579.382 56.014 578.958 55.838C578.534 55.662 578.174 55.42 577.878 55.112C577.582 54.8 577.354 54.432 577.194 54.008C577.038 53.584 576.96 53.124 576.96 52.628V47.402H578.118V52.622C578.118 52.982 578.168 53.312 578.268 53.612C578.372 53.912 578.52 54.17 578.712 54.386C578.908 54.602 579.146 54.772 579.426 54.896C579.71 55.016 580.03 55.076 580.386 55.076ZM585.642 56V49.922H586.278C586.43 49.922 586.526 49.996 586.566 50.144L586.65 50.804C586.914 50.512 587.208 50.276 587.532 50.096C587.86 49.916 588.238 49.826 588.666 49.826C588.998 49.826 589.29 49.882 589.542 49.994C589.798 50.102 590.01 50.258 590.178 50.462C590.35 50.662 590.48 50.904 590.568 51.188C590.656 51.472 590.7 51.786 590.7 52.13V56H589.632V52.13C589.632 51.67 589.526 51.314 589.314 51.062C589.106 50.806 588.786 50.678 588.354 50.678C588.038 50.678 587.742 50.754 587.466 50.906C587.194 51.058 586.942 51.264 586.71 51.524V56H585.642ZM596.456 51.002C596.424 51.046 596.392 51.08 596.36 51.104C596.328 51.128 596.282 51.14 596.222 51.14C596.162 51.14 596.096 51.116 596.024 51.068C595.956 51.016 595.868 50.96 595.76 50.9C595.652 50.84 595.52 50.786 595.364 50.738C595.212 50.686 595.024 50.66 594.8 50.66C594.504 50.66 594.242 50.714 594.014 50.822C593.786 50.926 593.594 51.078 593.438 51.278C593.286 51.478 593.17 51.72 593.09 52.004C593.014 52.288 592.976 52.606 592.976 52.958C592.976 53.326 593.018 53.654 593.102 53.942C593.186 54.226 593.304 54.466 593.456 54.662C593.608 54.854 593.792 55.002 594.008 55.106C594.228 55.206 594.474 55.256 594.746 55.256C595.006 55.256 595.22 55.226 595.388 55.166C595.556 55.102 595.696 55.032 595.808 54.956C595.92 54.88 596.012 54.812 596.084 54.752C596.156 54.688 596.228 54.656 596.3 54.656C596.392 54.656 596.46 54.69 596.504 54.758L596.804 55.148C596.54 55.472 596.21 55.71 595.814 55.862C595.418 56.01 595 56.084 594.56 56.084C594.18 56.084 593.826 56.014 593.498 55.874C593.174 55.734 592.892 55.532 592.652 55.268C592.412 55 592.222 54.672 592.082 54.284C591.946 53.896 591.878 53.454 591.878 52.958C591.878 52.506 591.94 52.088 592.064 51.704C592.192 51.32 592.376 50.99 592.616 50.714C592.86 50.434 593.16 50.216 593.516 50.06C593.872 49.904 594.28 49.826 594.74 49.826C595.164 49.826 595.54 49.896 595.868 50.036C596.196 50.172 596.486 50.366 596.738 50.618L596.456 51.002ZM597.911 56V47.162H598.979V50.738C599.239 50.462 599.527 50.242 599.843 50.078C600.159 49.91 600.523 49.826 600.935 49.826C601.267 49.826 601.559 49.882 601.811 49.994C602.067 50.102 602.279 50.258 602.447 50.462C602.619 50.662 602.749 50.904 602.837 51.188C602.925 51.472 602.969 51.786 602.969 52.13V56H601.901V52.13C601.901 51.67 601.795 51.314 601.583 51.062C601.375 50.806 601.055 50.678 600.623 50.678C600.307 50.678 600.011 50.754 599.735 50.906C599.463 51.058 599.211 51.264 598.979 51.524V56H597.911ZM606.985 49.826C607.349 49.826 607.685 49.888 607.993 50.012C608.301 50.132 608.567 50.308 608.791 50.54C609.015 50.768 609.189 51.052 609.313 51.392C609.441 51.728 609.505 52.112 609.505 52.544C609.505 52.712 609.487 52.824 609.451 52.88C609.415 52.936 609.347 52.964 609.247 52.964H605.203C605.211 53.348 605.263 53.682 605.359 53.966C605.455 54.25 605.587 54.488 605.755 54.68C605.923 54.868 606.123 55.01 606.355 55.106C606.587 55.198 606.847 55.244 607.135 55.244C607.403 55.244 607.633 55.214 607.825 55.154C608.021 55.09 608.189 55.022 608.329 54.95C608.469 54.878 608.585 54.812 608.677 54.752C608.773 54.688 608.855 54.656 608.923 54.656C609.011 54.656 609.079 54.69 609.127 54.758L609.427 55.148C609.295 55.308 609.137 55.448 608.953 55.568C608.769 55.684 608.571 55.78 608.359 55.856C608.151 55.932 607.935 55.988 607.711 56.024C607.487 56.064 607.265 56.084 607.045 56.084C606.625 56.084 606.237 56.014 605.881 55.874C605.529 55.73 605.223 55.522 604.963 55.25C604.707 54.974 604.507 54.634 604.363 54.23C604.219 53.826 604.147 53.362 604.147 52.838C604.147 52.414 604.211 52.018 604.339 51.65C604.471 51.282 604.659 50.964 604.903 50.696C605.147 50.424 605.445 50.212 605.797 50.06C606.149 49.904 606.545 49.826 606.985 49.826ZM607.009 50.612C606.493 50.612 606.087 50.762 605.791 51.062C605.495 51.358 605.311 51.77 605.239 52.298H608.545C608.545 52.05 608.511 51.824 608.443 51.62C608.375 51.412 608.275 51.234 608.143 51.086C608.011 50.934 607.849 50.818 607.657 50.738C607.469 50.654 607.253 50.612 607.009 50.612ZM615.018 51.002C614.986 51.046 614.954 51.08 614.922 51.104C614.89 51.128 614.844 51.14 614.784 51.14C614.724 51.14 614.658 51.116 614.586 51.068C614.518 51.016 614.43 50.96 614.322 50.9C614.214 50.84 614.082 50.786 613.926 50.738C613.774 50.686 613.586 50.66 613.362 50.66C613.066 50.66 612.804 50.714 612.576 50.822C612.348 50.926 612.156 51.078 612 51.278C611.848 51.478 611.732 51.72 611.652 52.004C611.576 52.288 611.538 52.606 611.538 52.958C611.538 53.326 611.58 53.654 611.664 53.942C611.748 54.226 611.866 54.466 612.018 54.662C612.17 54.854 612.354 55.002 612.57 55.106C612.79 55.206 613.036 55.256 613.308 55.256C613.568 55.256 613.782 55.226 613.95 55.166C614.118 55.102 614.258 55.032 614.37 54.956C614.482 54.88 614.574 54.812 614.646 54.752C614.718 54.688 614.79 54.656 614.862 54.656C614.954 54.656 615.022 54.69 615.066 54.758L615.366 55.148C615.102 55.472 614.772 55.71 614.376 55.862C613.98 56.01 613.562 56.084 613.122 56.084C612.742 56.084 612.388 56.014 612.06 55.874C611.736 55.734 611.454 55.532 611.214 55.268C610.974 55 610.784 54.672 610.644 54.284C610.508 53.896 610.44 53.454 610.44 52.958C610.44 52.506 610.502 52.088 610.626 51.704C610.754 51.32 610.938 50.99 611.178 50.714C611.422 50.434 611.722 50.216 612.078 50.06C612.434 49.904 612.842 49.826 613.302 49.826C613.726 49.826 614.102 49.896 614.43 50.036C614.758 50.172 615.048 50.366 615.3 50.618L615.018 51.002ZM617.584 47.162V52.364H617.86C617.94 52.364 618.006 52.354 618.058 52.334C618.11 52.31 618.168 52.264 618.232 52.196L620.152 50.138C620.212 50.074 620.272 50.022 620.332 49.982C620.392 49.942 620.472 49.922 620.572 49.922H621.544L619.306 52.304C619.25 52.372 619.194 52.432 619.138 52.484C619.086 52.536 619.026 52.582 618.958 52.622C619.03 52.67 619.094 52.726 619.15 52.79C619.21 52.85 619.266 52.92 619.318 53L621.694 56H620.734C620.646 56 620.57 55.984 620.506 55.952C620.446 55.916 620.388 55.862 620.332 55.79L618.334 53.3C618.274 53.216 618.214 53.162 618.154 53.138C618.094 53.11 618.004 53.096 617.884 53.096H617.584V56H616.51V47.162H617.584ZM624.809 49.826C625.173 49.826 625.509 49.888 625.817 50.012C626.125 50.132 626.391 50.308 626.615 50.54C626.839 50.768 627.013 51.052 627.137 51.392C627.265 51.728 627.329 52.112 627.329 52.544C627.329 52.712 627.311 52.824 627.275 52.88C627.239 52.936 627.171 52.964 627.071 52.964H623.027C623.035 53.348 623.087 53.682 623.183 53.966C623.279 54.25 623.411 54.488 623.579 54.68C623.747 54.868 623.947 55.01 624.179 55.106C624.411 55.198 624.671 55.244 624.959 55.244C625.227 55.244 625.457 55.214 625.649 55.154C625.845 55.09 626.013 55.022 626.153 54.95C626.293 54.878 626.409 54.812 626.501 54.752C626.597 54.688 626.679 54.656 626.747 54.656C626.835 54.656 626.903 54.69 626.951 54.758L627.251 55.148C627.119 55.308 626.961 55.448 626.777 55.568C626.593 55.684 626.395 55.78 626.183 55.856C625.975 55.932 625.759 55.988 625.535 56.024C625.311 56.064 625.089 56.084 624.869 56.084C624.449 56.084 624.061 56.014 623.705 55.874C623.353 55.73 623.047 55.522 622.787 55.25C622.531 54.974 622.331 54.634 622.187 54.23C622.043 53.826 621.971 53.362 621.971 52.838C621.971 52.414 622.035 52.018 622.163 51.65C622.295 51.282 622.483 50.964 622.727 50.696C622.971 50.424 623.269 50.212 623.621 50.06C623.973 49.904 624.369 49.826 624.809 49.826ZM624.833 50.612C624.317 50.612 623.911 50.762 623.615 51.062C623.319 51.358 623.135 51.77 623.063 52.298H626.369C626.369 52.05 626.335 51.824 626.267 51.62C626.199 51.412 626.099 51.234 625.967 51.086C625.835 50.934 625.673 50.818 625.481 50.738C625.293 50.654 625.077 50.612 624.833 50.612ZM632.974 56C632.822 56 632.726 55.926 632.686 55.778L632.59 55.04C632.33 55.356 632.032 55.61 631.696 55.802C631.364 55.99 630.982 56.084 630.55 56.084C630.202 56.084 629.886 56.018 629.602 55.886C629.318 55.75 629.076 55.552 628.876 55.292C628.676 55.032 628.522 54.708 628.414 54.32C628.306 53.932 628.252 53.486 628.252 52.982C628.252 52.534 628.312 52.118 628.432 51.734C628.552 51.346 628.724 51.01 628.948 50.726C629.176 50.442 629.452 50.22 629.776 50.06C630.1 49.896 630.468 49.814 630.88 49.814C631.252 49.814 631.57 49.878 631.834 50.006C632.098 50.13 632.334 50.306 632.542 50.534V47.162H633.61V56H632.974ZM630.904 55.22C631.252 55.22 631.556 55.14 631.816 54.98C632.08 54.82 632.322 54.594 632.542 54.302V51.362C632.346 51.098 632.13 50.914 631.894 50.81C631.662 50.702 631.404 50.648 631.12 50.648C630.552 50.648 630.116 50.85 629.812 51.254C629.508 51.658 629.356 52.234 629.356 52.982C629.356 53.378 629.39 53.718 629.458 54.002C629.526 54.282 629.626 54.514 629.758 54.698C629.89 54.878 630.052 55.01 630.244 55.094C630.436 55.178 630.656 55.22 630.904 55.22ZM645.34 51.704C645.34 52.348 645.238 52.934 645.034 53.462C644.83 53.99 644.542 54.442 644.17 54.818C643.798 55.194 643.352 55.486 642.832 55.694C642.312 55.898 641.736 56 641.104 56H637.888V47.402H641.104C641.736 47.402 642.312 47.506 642.832 47.714C643.352 47.918 643.798 48.21 644.17 48.59C644.542 48.966 644.83 49.418 645.034 49.946C645.238 50.474 645.34 51.06 645.34 51.704ZM644.146 51.704C644.146 51.176 644.074 50.704 643.93 50.288C643.786 49.872 643.582 49.52 643.318 49.232C643.054 48.944 642.734 48.724 642.358 48.572C641.982 48.42 641.564 48.344 641.104 48.344H639.058V55.058H641.104C641.564 55.058 641.982 54.982 642.358 54.83C642.734 54.678 643.054 54.46 643.318 54.176C643.582 53.888 643.786 53.536 643.93 53.12C644.074 52.704 644.146 52.232 644.146 51.704ZM647.943 49.922V56H646.875V49.922H647.943ZM648.183 48.014C648.183 48.118 648.161 48.216 648.117 48.308C648.077 48.396 648.021 48.476 647.949 48.548C647.881 48.616 647.801 48.67 647.709 48.71C647.617 48.75 647.519 48.77 647.415 48.77C647.311 48.77 647.213 48.75 647.121 48.71C647.033 48.67 646.953 48.616 646.881 48.548C646.813 48.476 646.759 48.396 646.719 48.308C646.679 48.216 646.659 48.118 646.659 48.014C646.659 47.91 646.679 47.812 646.719 47.72C646.759 47.624 646.813 47.542 646.881 47.474C646.953 47.402 647.033 47.346 647.121 47.306C647.213 47.266 647.311 47.246 647.415 47.246C647.519 47.246 647.617 47.266 647.709 47.306C647.801 47.346 647.881 47.402 647.949 47.474C648.021 47.542 648.077 47.624 648.117 47.72C648.161 47.812 648.183 47.91 648.183 48.014ZM653.305 50.924C653.257 51.012 653.183 51.056 653.083 51.056C653.023 51.056 652.955 51.034 652.879 50.99C652.803 50.946 652.709 50.898 652.597 50.846C652.489 50.79 652.359 50.74 652.207 50.696C652.055 50.648 651.875 50.624 651.667 50.624C651.487 50.624 651.325 50.648 651.181 50.696C651.037 50.74 650.913 50.802 650.809 50.882C650.709 50.962 650.631 51.056 650.575 51.164C650.523 51.268 650.497 51.382 650.497 51.506C650.497 51.662 650.541 51.792 650.629 51.896C650.721 52 650.841 52.09 650.989 52.166C651.137 52.242 651.305 52.31 651.493 52.37C651.681 52.426 651.873 52.488 652.069 52.556C652.269 52.62 652.463 52.692 652.651 52.772C652.839 52.852 653.007 52.952 653.155 53.072C653.303 53.192 653.421 53.34 653.509 53.516C653.601 53.688 653.647 53.896 653.647 54.14C653.647 54.42 653.597 54.68 653.497 54.92C653.397 55.156 653.249 55.362 653.053 55.538C652.857 55.71 652.617 55.846 652.333 55.946C652.049 56.046 651.721 56.096 651.349 56.096C650.925 56.096 650.541 56.028 650.197 55.892C649.853 55.752 649.561 55.574 649.321 55.358L649.573 54.95C649.605 54.898 649.643 54.858 649.687 54.83C649.731 54.802 649.789 54.788 649.861 54.788C649.933 54.788 650.009 54.816 650.089 54.872C650.169 54.928 650.265 54.99 650.377 55.058C650.493 55.126 650.631 55.188 650.791 55.244C650.955 55.3 651.159 55.328 651.403 55.328C651.611 55.328 651.793 55.302 651.949 55.25C652.105 55.194 652.235 55.12 652.339 55.028C652.443 54.936 652.519 54.83 652.567 54.71C652.619 54.59 652.645 54.462 652.645 54.326C652.645 54.158 652.599 54.02 652.507 53.912C652.419 53.8 652.301 53.706 652.153 53.63C652.005 53.55 651.835 53.482 651.643 53.426C651.455 53.366 651.261 53.304 651.061 53.24C650.865 53.176 650.671 53.104 650.479 53.024C650.291 52.94 650.123 52.836 649.975 52.712C649.827 52.588 649.707 52.436 649.615 52.256C649.527 52.072 649.483 51.85 649.483 51.59C649.483 51.358 649.531 51.136 649.627 50.924C649.723 50.708 649.863 50.52 650.047 50.36C650.231 50.196 650.457 50.066 650.725 49.97C650.993 49.874 651.299 49.826 651.643 49.826C652.043 49.826 652.401 49.89 652.717 50.018C653.037 50.142 653.313 50.314 653.545 50.534L653.305 50.924ZM659.492 56H659.018C658.914 56 658.83 55.984 658.766 55.952C658.702 55.92 658.66 55.852 658.64 55.748L658.52 55.184C658.36 55.328 658.204 55.458 658.052 55.574C657.9 55.686 657.74 55.782 657.572 55.862C657.404 55.938 657.224 55.996 657.032 56.036C656.844 56.076 656.634 56.096 656.402 56.096C656.166 56.096 655.944 56.064 655.736 56C655.532 55.932 655.354 55.832 655.202 55.7C655.05 55.568 654.928 55.402 654.836 55.202C654.748 54.998 654.704 54.758 654.704 54.482C654.704 54.242 654.77 54.012 654.902 53.792C655.034 53.568 655.246 53.37 655.538 53.198C655.834 53.026 656.22 52.886 656.696 52.778C657.172 52.666 657.754 52.602 658.442 52.586V52.112C658.442 51.64 658.34 51.284 658.136 51.044C657.936 50.8 657.638 50.678 657.242 50.678C656.982 50.678 656.762 50.712 656.582 50.78C656.406 50.844 656.252 50.918 656.12 51.002C655.992 51.082 655.88 51.156 655.784 51.224C655.692 51.288 655.6 51.32 655.508 51.32C655.436 51.32 655.372 51.302 655.316 51.266C655.264 51.226 655.222 51.178 655.19 51.122L654.998 50.78C655.334 50.456 655.696 50.214 656.084 50.054C656.472 49.894 656.902 49.814 657.374 49.814C657.714 49.814 658.016 49.87 658.28 49.982C658.544 50.094 658.766 50.25 658.946 50.45C659.126 50.65 659.262 50.892 659.354 51.176C659.446 51.46 659.492 51.772 659.492 52.112V56ZM656.72 55.346C656.908 55.346 657.08 55.328 657.236 55.292C657.392 55.252 657.538 55.198 657.674 55.13C657.814 55.058 657.946 54.972 658.07 54.872C658.198 54.772 658.322 54.658 658.442 54.53V53.264C657.95 53.28 657.532 53.32 657.188 53.384C656.844 53.444 656.564 53.524 656.348 53.624C656.132 53.724 655.974 53.842 655.874 53.978C655.778 54.114 655.73 54.266 655.73 54.434C655.73 54.594 655.756 54.732 655.808 54.848C655.86 54.964 655.93 55.06 656.018 55.136C656.106 55.208 656.21 55.262 656.33 55.298C656.45 55.33 656.58 55.346 656.72 55.346ZM661.146 56V47.162H662.22V50.798C662.472 50.506 662.76 50.272 663.084 50.096C663.412 49.916 663.786 49.826 664.206 49.826C664.558 49.826 664.876 49.892 665.16 50.024C665.444 50.156 665.686 50.354 665.886 50.618C666.086 50.878 666.24 51.202 666.348 51.59C666.456 51.974 666.51 52.418 666.51 52.922C666.51 53.37 666.45 53.788 666.33 54.176C666.21 54.56 666.036 54.894 665.808 55.178C665.584 55.458 665.308 55.68 664.98 55.844C664.656 56.004 664.29 56.084 663.882 56.084C663.49 56.084 663.156 56.008 662.88 55.856C662.608 55.704 662.37 55.492 662.166 55.22L662.112 55.772C662.08 55.924 661.988 56 661.836 56H661.146ZM663.858 50.678C663.51 50.678 663.204 50.758 662.94 50.918C662.68 51.078 662.44 51.304 662.22 51.596V54.536C662.412 54.8 662.624 54.986 662.856 55.094C663.092 55.202 663.354 55.256 663.642 55.256C664.21 55.256 664.646 55.054 664.95 54.65C665.254 54.246 665.406 53.67 665.406 52.922C665.406 52.526 665.37 52.186 665.298 51.902C665.23 51.618 665.13 51.386 664.998 51.206C664.866 51.022 664.704 50.888 664.512 50.804C664.32 50.72 664.102 50.678 663.858 50.678ZM669.002 47.162V56H667.934V47.162H669.002ZM673.29 49.826C673.654 49.826 673.99 49.888 674.298 50.012C674.606 50.132 674.872 50.308 675.096 50.54C675.32 50.768 675.494 51.052 675.618 51.392C675.746 51.728 675.81 52.112 675.81 52.544C675.81 52.712 675.792 52.824 675.756 52.88C675.72 52.936 675.652 52.964 675.552 52.964H671.508C671.516 53.348 671.568 53.682 671.664 53.966C671.76 54.25 671.892 54.488 672.06 54.68C672.228 54.868 672.428 55.01 672.66 55.106C672.892 55.198 673.152 55.244 673.44 55.244C673.708 55.244 673.938 55.214 674.13 55.154C674.326 55.09 674.494 55.022 674.634 54.95C674.774 54.878 674.89 54.812 674.982 54.752C675.078 54.688 675.16 54.656 675.228 54.656C675.316 54.656 675.384 54.69 675.432 54.758L675.732 55.148C675.6 55.308 675.442 55.448 675.258 55.568C675.074 55.684 674.876 55.78 674.664 55.856C674.456 55.932 674.24 55.988 674.016 56.024C673.792 56.064 673.57 56.084 673.35 56.084C672.93 56.084 672.542 56.014 672.186 55.874C671.834 55.73 671.528 55.522 671.268 55.25C671.012 54.974 670.812 54.634 670.668 54.23C670.524 53.826 670.452 53.362 670.452 52.838C670.452 52.414 670.516 52.018 670.644 51.65C670.776 51.282 670.964 50.964 671.208 50.696C671.452 50.424 671.75 50.212 672.102 50.06C672.454 49.904 672.85 49.826 673.29 49.826ZM673.314 50.612C672.798 50.612 672.392 50.762 672.096 51.062C671.8 51.358 671.616 51.77 671.544 52.298H674.85C674.85 52.05 674.816 51.824 674.748 51.62C674.68 51.412 674.58 51.234 674.448 51.086C674.316 50.934 674.154 50.818 673.962 50.738C673.774 50.654 673.558 50.612 673.314 50.612Z" fill="#E9EAEB"/>
<path fill-rule="evenodd" clip-rule="evenodd" d="M59 46C59 44.8954 59.8954 44 61 44H71C72.1046 44 73 44.8954 73 46V56C73 57.1046 72.1046 58 71 58H61C59.8954 58 59 57.1046 59 56V46ZM69.7782 48.1213L71.1924 49.5355L65.5355 55.1924L64.8284 54.4853L64.1213 53.7782L62 51.6569L63.4142 50.2426L65.5355 52.364L69.7782 48.1213Z" fill="#279FF6"/>
<path d="M88.104 54.224C88.168 54.224 88.226 54.25 88.278 54.302L88.734 54.8C88.382 55.208 87.954 55.526 87.45 55.754C86.95 55.982 86.346 56.096 85.638 56.096C85.018 56.096 84.456 55.99 83.952 55.778C83.448 55.562 83.018 55.262 82.662 54.878C82.306 54.49 82.03 54.026 81.834 53.486C81.638 52.946 81.54 52.352 81.54 51.704C81.54 51.056 81.644 50.462 81.852 49.922C82.064 49.382 82.36 48.918 82.74 48.53C83.12 48.142 83.574 47.842 84.102 47.63C84.634 47.414 85.22 47.306 85.86 47.306C86.492 47.306 87.036 47.404 87.492 47.6C87.952 47.796 88.36 48.062 88.716 48.398L88.338 48.932C88.31 48.972 88.278 49.006 88.242 49.034C88.206 49.058 88.154 49.07 88.086 49.07C88.034 49.07 87.978 49.052 87.918 49.016C87.862 48.976 87.794 48.928 87.714 48.872C87.634 48.816 87.54 48.756 87.432 48.692C87.324 48.628 87.196 48.568 87.048 48.512C86.9 48.456 86.728 48.41 86.532 48.374C86.336 48.334 86.11 48.314 85.854 48.314C85.394 48.314 84.972 48.394 84.588 48.554C84.208 48.71 83.88 48.934 83.604 49.226C83.328 49.518 83.112 49.874 82.956 50.294C82.804 50.714 82.728 51.184 82.728 51.704C82.728 52.24 82.804 52.718 82.956 53.138C83.112 53.558 83.322 53.914 83.586 54.206C83.854 54.494 84.17 54.714 84.534 54.866C84.898 55.018 85.29 55.094 85.71 55.094C85.966 55.094 86.196 55.08 86.4 55.052C86.604 55.02 86.792 54.972 86.964 54.908C87.14 54.844 87.302 54.764 87.45 54.668C87.602 54.568 87.754 54.45 87.906 54.314C87.974 54.254 88.04 54.224 88.104 54.224ZM90.0908 56V47.162H91.1588V50.738C91.4188 50.462 91.7068 50.242 92.0228 50.078C92.3388 49.91 92.7028 49.826 93.1148 49.826C93.4468 49.826 93.7388 49.882 93.9908 49.994C94.2468 50.102 94.4588 50.258 94.6268 50.462C94.7988 50.662 94.9288 50.904 95.0168 51.188C95.1048 51.472 95.1488 51.786 95.1488 52.13V56H94.0808V52.13C94.0808 51.67 93.9748 51.314 93.7628 51.062C93.5548 50.806 93.2348 50.678 92.8028 50.678C92.4868 50.678 92.1908 50.754 91.9148 50.906C91.6428 51.058 91.3908 51.264 91.1588 51.524V56H90.0908ZM99.1648 49.826C99.5288 49.826 99.8648 49.888 100.173 50.012C100.481 50.132 100.747 50.308 100.971 50.54C101.195 50.768 101.369 51.052 101.493 51.392C101.621 51.728 101.685 52.112 101.685 52.544C101.685 52.712 101.667 52.824 101.631 52.88C101.595 52.936 101.527 52.964 101.427 52.964H97.3828C97.3908 53.348 97.4428 53.682 97.5388 53.966C97.6348 54.25 97.7668 54.488 97.9348 54.68C98.1028 54.868 98.3028 55.01 98.5348 55.106C98.7668 55.198 99.0268 55.244 99.3148 55.244C99.5828 55.244 99.8128 55.214 100.005 55.154C100.201 55.09 100.369 55.022 100.509 54.95C100.649 54.878 100.765 54.812 100.857 54.752C100.953 54.688 101.035 54.656 101.103 54.656C101.191 54.656 101.259 54.69 101.307 54.758L101.607 55.148C101.475 55.308 101.317 55.448 101.133 55.568C100.949 55.684 100.751 55.78 100.539 55.856C100.331 55.932 100.115 55.988 99.8908 56.024C99.6668 56.064 99.4448 56.084 99.2248 56.084C98.8048 56.084 98.4168 56.014 98.0608 55.874C97.7088 55.73 97.4028 55.522 97.1428 55.25C96.8868 54.974 96.6868 54.634 96.5428 54.23C96.3988 53.826 96.3268 53.362 96.3268 52.838C96.3268 52.414 96.3908 52.018 96.5188 51.65C96.6508 51.282 96.8388 50.964 97.0828 50.696C97.3268 50.424 97.6248 50.212 97.9768 50.06C98.3288 49.904 98.7248 49.826 99.1648 49.826ZM99.1888 50.612C98.6728 50.612 98.2668 50.762 97.9708 51.062C97.6748 51.358 97.4908 51.77 97.4188 52.298H100.725C100.725 52.05 100.691 51.824 100.623 51.62C100.555 51.412 100.455 51.234 100.323 51.086C100.191 50.934 100.029 50.818 99.8368 50.738C99.6488 50.654 99.4328 50.612 99.1888 50.612ZM107.198 51.002C107.166 51.046 107.134 51.08 107.102 51.104C107.07 51.128 107.024 51.14 106.964 51.14C106.904 51.14 106.838 51.116 106.766 51.068C106.698 51.016 106.61 50.96 106.502 50.9C106.394 50.84 106.262 50.786 106.106 50.738C105.954 50.686 105.766 50.66 105.542 50.66C105.246 50.66 104.984 50.714 104.756 50.822C104.528 50.926 104.336 51.078 104.18 51.278C104.028 51.478 103.912 51.72 103.832 52.004C103.756 52.288 103.718 52.606 103.718 52.958C103.718 53.326 103.76 53.654 103.844 53.942C103.928 54.226 104.046 54.466 104.198 54.662C104.35 54.854 104.534 55.002 104.75 55.106C104.97 55.206 105.216 55.256 105.488 55.256C105.748 55.256 105.962 55.226 106.13 55.166C106.298 55.102 106.438 55.032 106.55 54.956C106.662 54.88 106.754 54.812 106.826 54.752C106.898 54.688 106.97 54.656 107.042 54.656C107.134 54.656 107.202 54.69 107.246 54.758L107.546 55.148C107.282 55.472 106.952 55.71 106.556 55.862C106.16 56.01 105.742 56.084 105.302 56.084C104.922 56.084 104.568 56.014 104.24 55.874C103.916 55.734 103.634 55.532 103.394 55.268C103.154 55 102.964 54.672 102.824 54.284C102.688 53.896 102.62 53.454 102.62 52.958C102.62 52.506 102.682 52.088 102.806 51.704C102.934 51.32 103.118 50.99 103.358 50.714C103.602 50.434 103.902 50.216 104.258 50.06C104.614 49.904 105.022 49.826 105.482 49.826C105.906 49.826 106.282 49.896 106.61 50.036C106.938 50.172 107.228 50.366 107.48 50.618L107.198 51.002ZM109.763 47.162V52.364H110.039C110.119 52.364 110.185 52.354 110.237 52.334C110.289 52.31 110.347 52.264 110.411 52.196L112.331 50.138C112.391 50.074 112.451 50.022 112.511 49.982C112.571 49.942 112.651 49.922 112.751 49.922H113.723L111.485 52.304C111.429 52.372 111.373 52.432 111.317 52.484C111.265 52.536 111.205 52.582 111.137 52.622C111.209 52.67 111.273 52.726 111.329 52.79C111.389 52.85 111.445 52.92 111.497 53L113.873 56H112.913C112.825 56 112.749 55.984 112.685 55.952C112.625 55.916 112.567 55.862 112.511 55.79L110.513 53.3C110.453 53.216 110.393 53.162 110.333 53.138C110.273 53.11 110.183 53.096 110.063 53.096H109.763V56H108.689V47.162H109.763ZM116.989 49.826C117.353 49.826 117.689 49.888 117.997 50.012C118.305 50.132 118.571 50.308 118.795 50.54C119.019 50.768 119.193 51.052 119.317 51.392C119.445 51.728 119.509 52.112 119.509 52.544C119.509 52.712 119.491 52.824 119.455 52.88C119.419 52.936 119.351 52.964 119.251 52.964H115.207C115.215 53.348 115.267 53.682 115.363 53.966C115.459 54.25 115.591 54.488 115.759 54.68C115.927 54.868 116.127 55.01 116.359 55.106C116.591 55.198 116.851 55.244 117.139 55.244C117.407 55.244 117.637 55.214 117.829 55.154C118.025 55.09 118.193 55.022 118.333 54.95C118.473 54.878 118.589 54.812 118.681 54.752C118.777 54.688 118.859 54.656 118.927 54.656C119.015 54.656 119.083 54.69 119.131 54.758L119.431 55.148C119.299 55.308 119.141 55.448 118.957 55.568C118.773 55.684 118.575 55.78 118.363 55.856C118.155 55.932 117.939 55.988 117.715 56.024C117.491 56.064 117.269 56.084 117.049 56.084C116.629 56.084 116.241 56.014 115.885 55.874C115.533 55.73 115.227 55.522 114.967 55.25C114.711 54.974 114.511 54.634 114.367 54.23C114.223 53.826 114.151 53.362 114.151 52.838C114.151 52.414 114.215 52.018 114.343 51.65C114.475 51.282 114.663 50.964 114.907 50.696C115.151 50.424 115.449 50.212 115.801 50.06C116.153 49.904 116.549 49.826 116.989 49.826ZM117.013 50.612C116.497 50.612 116.091 50.762 115.795 51.062C115.499 51.358 115.315 51.77 115.243 52.298H118.549C118.549 52.05 118.515 51.824 118.447 51.62C118.379 51.412 118.279 51.234 118.147 51.086C118.015 50.934 117.853 50.818 117.661 50.738C117.473 50.654 117.257 50.612 117.013 50.612ZM125.154 56C125.002 56 124.906 55.926 124.866 55.778L124.77 55.04C124.51 55.356 124.212 55.61 123.876 55.802C123.544 55.99 123.162 56.084 122.73 56.084C122.382 56.084 122.066 56.018 121.782 55.886C121.498 55.75 121.256 55.552 121.056 55.292C120.856 55.032 120.702 54.708 120.594 54.32C120.486 53.932 120.432 53.486 120.432 52.982C120.432 52.534 120.492 52.118 120.612 51.734C120.732 51.346 120.904 51.01 121.128 50.726C121.356 50.442 121.632 50.22 121.956 50.06C122.28 49.896 122.648 49.814 123.06 49.814C123.432 49.814 123.75 49.878 124.014 50.006C124.278 50.13 124.514 50.306 124.722 50.534V47.162H125.79V56H125.154ZM123.084 55.22C123.432 55.22 123.736 55.14 123.996 54.98C124.26 54.82 124.502 54.594 124.722 54.302V51.362C124.526 51.098 124.31 50.914 124.074 50.81C123.842 50.702 123.584 50.648 123.3 50.648C122.732 50.648 122.296 50.85 121.992 51.254C121.688 51.658 121.536 52.234 121.536 52.982C121.536 53.378 121.57 53.718 121.638 54.002C121.706 54.282 121.806 54.514 121.938 54.698C122.07 54.878 122.232 55.01 122.424 55.094C122.616 55.178 122.836 55.22 123.084 55.22Z" fill="#279FF6"/>
<path d="M234.386 55.076C234.742 55.076 235.06 55.016 235.34 54.896C235.62 54.776 235.856 54.608 236.048 54.392C236.244 54.176 236.392 53.918 236.492 53.618C236.596 53.318 236.648 52.988 236.648 52.628V47.402H237.806V52.628C237.806 53.124 237.726 53.584 237.566 54.008C237.41 54.432 237.184 54.8 236.888 55.112C236.596 55.42 236.238 55.662 235.814 55.838C235.39 56.014 234.914 56.102 234.386 56.102C233.858 56.102 233.382 56.014 232.958 55.838C232.534 55.662 232.174 55.42 231.878 55.112C231.582 54.8 231.354 54.432 231.194 54.008C231.038 53.584 230.96 53.124 230.96 52.628V47.402H232.118V52.622C232.118 52.982 232.168 53.312 232.268 53.612C232.372 53.912 232.52 54.17 232.712 54.386C232.908 54.602 233.146 54.772 233.426 54.896C233.71 55.016 234.03 55.076 234.386 55.076ZM239.642 56V49.922H240.278C240.43 49.922 240.526 49.996 240.566 50.144L240.65 50.804C240.914 50.512 241.208 50.276 241.532 50.096C241.86 49.916 242.238 49.826 242.666 49.826C242.998 49.826 243.29 49.882 243.542 49.994C243.798 50.102 244.01 50.258 244.178 50.462C244.35 50.662 244.48 50.904 244.568 51.188C244.656 51.472 244.7 51.786 244.7 52.13V56H243.632V52.13C243.632 51.67 243.526 51.314 243.314 51.062C243.106 50.806 242.786 50.678 242.354 50.678C242.038 50.678 241.742 50.754 241.466 50.906C241.194 51.058 240.942 51.264 240.71 51.524V56H239.642ZM250.456 51.002C250.424 51.046 250.392 51.08 250.36 51.104C250.328 51.128 250.282 51.14 250.222 51.14C250.162 51.14 250.096 51.116 250.024 51.068C249.956 51.016 249.868 50.96 249.76 50.9C249.652 50.84 249.52 50.786 249.364 50.738C249.212 50.686 249.024 50.66 248.8 50.66C248.504 50.66 248.242 50.714 248.014 50.822C247.786 50.926 247.594 51.078 247.438 51.278C247.286 51.478 247.17 51.72 247.09 52.004C247.014 52.288 246.976 52.606 246.976 52.958C246.976 53.326 247.018 53.654 247.102 53.942C247.186 54.226 247.304 54.466 247.456 54.662C247.608 54.854 247.792 55.002 248.008 55.106C248.228 55.206 248.474 55.256 248.746 55.256C249.006 55.256 249.22 55.226 249.388 55.166C249.556 55.102 249.696 55.032 249.808 54.956C249.92 54.88 250.012 54.812 250.084 54.752C250.156 54.688 250.228 54.656 250.3 54.656C250.392 54.656 250.46 54.69 250.504 54.758L250.804 55.148C250.54 55.472 250.21 55.71 249.814 55.862C249.418 56.01 249 56.084 248.56 56.084C248.18 56.084 247.826 56.014 247.498 55.874C247.174 55.734 246.892 55.532 246.652 55.268C246.412 55 246.222 54.672 246.082 54.284C245.946 53.896 245.878 53.454 245.878 52.958C245.878 52.506 245.94 52.088 246.064 51.704C246.192 51.32 246.376 50.99 246.616 50.714C246.86 50.434 247.16 50.216 247.516 50.06C247.872 49.904 248.28 49.826 248.74 49.826C249.164 49.826 249.54 49.896 249.868 50.036C250.196 50.172 250.486 50.366 250.738 50.618L250.456 51.002ZM251.911 56V47.162H252.979V50.738C253.239 50.462 253.527 50.242 253.843 50.078C254.159 49.91 254.523 49.826 254.935 49.826C255.267 49.826 255.559 49.882 255.811 49.994C256.067 50.102 256.279 50.258 256.447 50.462C256.619 50.662 256.749 50.904 256.837 51.188C256.925 51.472 256.969 51.786 256.969 52.13V56H255.901V52.13C255.901 51.67 255.795 51.314 255.583 51.062C255.375 50.806 255.055 50.678 254.623 50.678C254.307 50.678 254.011 50.754 253.735 50.906C253.463 51.058 253.211 51.264 252.979 51.524V56H251.911ZM260.985 49.826C261.349 49.826 261.685 49.888 261.993 50.012C262.301 50.132 262.567 50.308 262.791 50.54C263.015 50.768 263.189 51.052 263.313 51.392C263.441 51.728 263.505 52.112 263.505 52.544C263.505 52.712 263.487 52.824 263.451 52.88C263.415 52.936 263.347 52.964 263.247 52.964H259.203C259.211 53.348 259.263 53.682 259.359 53.966C259.455 54.25 259.587 54.488 259.755 54.68C259.923 54.868 260.123 55.01 260.355 55.106C260.587 55.198 260.847 55.244 261.135 55.244C261.403 55.244 261.633 55.214 261.825 55.154C262.021 55.09 262.189 55.022 262.329 54.95C262.469 54.878 262.585 54.812 262.677 54.752C262.773 54.688 262.855 54.656 262.923 54.656C263.011 54.656 263.079 54.69 263.127 54.758L263.427 55.148C263.295 55.308 263.137 55.448 262.953 55.568C262.769 55.684 262.571 55.78 262.359 55.856C262.151 55.932 261.935 55.988 261.711 56.024C261.487 56.064 261.265 56.084 261.045 56.084C260.625 56.084 260.237 56.014 259.881 55.874C259.529 55.73 259.223 55.522 258.963 55.25C258.707 54.974 258.507 54.634 258.363 54.23C258.219 53.826 258.147 53.362 258.147 52.838C258.147 52.414 258.211 52.018 258.339 51.65C258.471 51.282 258.659 50.964 258.903 50.696C259.147 50.424 259.445 50.212 259.797 50.06C260.149 49.904 260.545 49.826 260.985 49.826ZM261.009 50.612C260.493 50.612 260.087 50.762 259.791 51.062C259.495 51.358 259.311 51.77 259.239 52.298H262.545C262.545 52.05 262.511 51.824 262.443 51.62C262.375 51.412 262.275 51.234 262.143 51.086C262.011 50.934 261.849 50.818 261.657 50.738C261.469 50.654 261.253 50.612 261.009 50.612ZM269.018 51.002C268.986 51.046 268.954 51.08 268.922 51.104C268.89 51.128 268.844 51.14 268.784 51.14C268.724 51.14 268.658 51.116 268.586 51.068C268.518 51.016 268.43 50.96 268.322 50.9C268.214 50.84 268.082 50.786 267.926 50.738C267.774 50.686 267.586 50.66 267.362 50.66C267.066 50.66 266.804 50.714 266.576 50.822C266.348 50.926 266.156 51.078 266 51.278C265.848 51.478 265.732 51.72 265.652 52.004C265.576 52.288 265.538 52.606 265.538 52.958C265.538 53.326 265.58 53.654 265.664 53.942C265.748 54.226 265.866 54.466 266.018 54.662C266.17 54.854 266.354 55.002 266.57 55.106C266.79 55.206 267.036 55.256 267.308 55.256C267.568 55.256 267.782 55.226 267.95 55.166C268.118 55.102 268.258 55.032 268.37 54.956C268.482 54.88 268.574 54.812 268.646 54.752C268.718 54.688 268.79 54.656 268.862 54.656C268.954 54.656 269.022 54.69 269.066 54.758L269.366 55.148C269.102 55.472 268.772 55.71 268.376 55.862C267.98 56.01 267.562 56.084 267.122 56.084C266.742 56.084 266.388 56.014 266.06 55.874C265.736 55.734 265.454 55.532 265.214 55.268C264.974 55 264.784 54.672 264.644 54.284C264.508 53.896 264.44 53.454 264.44 52.958C264.44 52.506 264.502 52.088 264.626 51.704C264.754 51.32 264.938 50.99 265.178 50.714C265.422 50.434 265.722 50.216 266.078 50.06C266.434 49.904 266.842 49.826 267.302 49.826C267.726 49.826 268.102 49.896 268.43 50.036C268.758 50.172 269.048 50.366 269.3 50.618L269.018 51.002ZM271.584 47.162V52.364H271.86C271.94 52.364 272.006 52.354 272.058 52.334C272.11 52.31 272.168 52.264 272.232 52.196L274.152 50.138C274.212 50.074 274.272 50.022 274.332 49.982C274.392 49.942 274.472 49.922 274.572 49.922H275.544L273.306 52.304C273.25 52.372 273.194 52.432 273.138 52.484C273.086 52.536 273.026 52.582 272.958 52.622C273.03 52.67 273.094 52.726 273.15 52.79C273.21 52.85 273.266 52.92 273.318 53L275.694 56H274.734C274.646 56 274.57 55.984 274.506 55.952C274.446 55.916 274.388 55.862 274.332 55.79L272.334 53.3C272.274 53.216 272.214 53.162 272.154 53.138C272.094 53.11 272.004 53.096 271.884 53.096H271.584V56H270.51V47.162H271.584ZM278.809 49.826C279.173 49.826 279.509 49.888 279.817 50.012C280.125 50.132 280.391 50.308 280.615 50.54C280.839 50.768 281.013 51.052 281.137 51.392C281.265 51.728 281.329 52.112 281.329 52.544C281.329 52.712 281.311 52.824 281.275 52.88C281.239 52.936 281.171 52.964 281.071 52.964H277.027C277.035 53.348 277.087 53.682 277.183 53.966C277.279 54.25 277.411 54.488 277.579 54.68C277.747 54.868 277.947 55.01 278.179 55.106C278.411 55.198 278.671 55.244 278.959 55.244C279.227 55.244 279.457 55.214 279.649 55.154C279.845 55.09 280.013 55.022 280.153 54.95C280.293 54.878 280.409 54.812 280.501 54.752C280.597 54.688 280.679 54.656 280.747 54.656C280.835 54.656 280.903 54.69 280.951 54.758L281.251 55.148C281.119 55.308 280.961 55.448 280.777 55.568C280.593 55.684 280.395 55.78 280.183 55.856C279.975 55.932 279.759 55.988 279.535 56.024C279.311 56.064 279.089 56.084 278.869 56.084C278.449 56.084 278.061 56.014 277.705 55.874C277.353 55.73 277.047 55.522 276.787 55.25C276.531 54.974 276.331 54.634 276.187 54.23C276.043 53.826 275.971 53.362 275.971 52.838C275.971 52.414 276.035 52.018 276.163 51.65C276.295 51.282 276.483 50.964 276.727 50.696C276.971 50.424 277.269 50.212 277.621 50.06C277.973 49.904 278.369 49.826 278.809 49.826ZM278.833 50.612C278.317 50.612 277.911 50.762 277.615 51.062C277.319 51.358 277.135 51.77 277.063 52.298H280.369C280.369 52.05 280.335 51.824 280.267 51.62C280.199 51.412 280.099 51.234 279.967 51.086C279.835 50.934 279.673 50.818 279.481 50.738C279.293 50.654 279.077 50.612 278.833 50.612ZM286.974 56C286.822 56 286.726 55.926 286.686 55.778L286.59 55.04C286.33 55.356 286.032 55.61 285.696 55.802C285.364 55.99 284.982 56.084 284.55 56.084C284.202 56.084 283.886 56.018 283.602 55.886C283.318 55.75 283.076 55.552 282.876 55.292C282.676 55.032 282.522 54.708 282.414 54.32C282.306 53.932 282.252 53.486 282.252 52.982C282.252 52.534 282.312 52.118 282.432 51.734C282.552 51.346 282.724 51.01 282.948 50.726C283.176 50.442 283.452 50.22 283.776 50.06C284.1 49.896 284.468 49.814 284.88 49.814C285.252 49.814 285.57 49.878 285.834 50.006C286.098 50.13 286.334 50.306 286.542 50.534V47.162H287.61V56H286.974ZM284.904 55.22C285.252 55.22 285.556 55.14 285.816 54.98C286.08 54.82 286.322 54.594 286.542 54.302V51.362C286.346 51.098 286.13 50.914 285.894 50.81C285.662 50.702 285.404 50.648 285.12 50.648C284.552 50.648 284.116 50.85 283.812 51.254C283.508 51.658 283.356 52.234 283.356 52.982C283.356 53.378 283.39 53.718 283.458 54.002C283.526 54.282 283.626 54.514 283.758 54.698C283.89 54.878 284.052 55.01 284.244 55.094C284.436 55.178 284.656 55.22 284.904 55.22Z" fill="#6E737A"/>
<path d="M398.104 54.224C398.168 54.224 398.226 54.25 398.278 54.302L398.734 54.8C398.382 55.208 397.954 55.526 397.45 55.754C396.95 55.982 396.346 56.096 395.638 56.096C395.018 56.096 394.456 55.99 393.952 55.778C393.448 55.562 393.018 55.262 392.662 54.878C392.306 54.49 392.03 54.026 391.834 53.486C391.638 52.946 391.54 52.352 391.54 51.704C391.54 51.056 391.644 50.462 391.852 49.922C392.064 49.382 392.36 48.918 392.74 48.53C393.12 48.142 393.574 47.842 394.102 47.63C394.634 47.414 395.22 47.306 395.86 47.306C396.492 47.306 397.036 47.404 397.492 47.6C397.952 47.796 398.36 48.062 398.716 48.398L398.338 48.932C398.31 48.972 398.278 49.006 398.242 49.034C398.206 49.058 398.154 49.07 398.086 49.07C398.034 49.07 397.978 49.052 397.918 49.016C397.862 48.976 397.794 48.928 397.714 48.872C397.634 48.816 397.54 48.756 397.432 48.692C397.324 48.628 397.196 48.568 397.048 48.512C396.9 48.456 396.728 48.41 396.532 48.374C396.336 48.334 396.11 48.314 395.854 48.314C395.394 48.314 394.972 48.394 394.588 48.554C394.208 48.71 393.88 48.934 393.604 49.226C393.328 49.518 393.112 49.874 392.956 50.294C392.804 50.714 392.728 51.184 392.728 51.704C392.728 52.24 392.804 52.718 392.956 53.138C393.112 53.558 393.322 53.914 393.586 54.206C393.854 54.494 394.17 54.714 394.534 54.866C394.898 55.018 395.29 55.094 395.71 55.094C395.966 55.094 396.196 55.08 396.4 55.052C396.604 55.02 396.792 54.972 396.964 54.908C397.14 54.844 397.302 54.764 397.45 54.668C397.602 54.568 397.754 54.45 397.906 54.314C397.974 54.254 398.04 54.224 398.104 54.224ZM400.091 56V47.162H401.159V50.738C401.419 50.462 401.707 50.242 402.023 50.078C402.339 49.91 402.703 49.826 403.115 49.826C403.447 49.826 403.739 49.882 403.991 49.994C404.247 50.102 404.459 50.258 404.627 50.462C404.799 50.662 404.929 50.904 405.017 51.188C405.105 51.472 405.149 51.786 405.149 52.13V56H404.081V52.13C404.081 51.67 403.975 51.314 403.763 51.062C403.555 50.806 403.235 50.678 402.803 50.678C402.487 50.678 402.191 50.754 401.915 50.906C401.643 51.058 401.391 51.264 401.159 51.524V56H400.091ZM409.165 49.826C409.529 49.826 409.865 49.888 410.173 50.012C410.481 50.132 410.747 50.308 410.971 50.54C411.195 50.768 411.369 51.052 411.493 51.392C411.621 51.728 411.685 52.112 411.685 52.544C411.685 52.712 411.667 52.824 411.631 52.88C411.595 52.936 411.527 52.964 411.427 52.964H407.383C407.391 53.348 407.443 53.682 407.539 53.966C407.635 54.25 407.767 54.488 407.935 54.68C408.103 54.868 408.303 55.01 408.535 55.106C408.767 55.198 409.027 55.244 409.315 55.244C409.583 55.244 409.813 55.214 410.005 55.154C410.201 55.09 410.369 55.022 410.509 54.95C410.649 54.878 410.765 54.812 410.857 54.752C410.953 54.688 411.035 54.656 411.103 54.656C411.191 54.656 411.259 54.69 411.307 54.758L411.607 55.148C411.475 55.308 411.317 55.448 411.133 55.568C410.949 55.684 410.751 55.78 410.539 55.856C410.331 55.932 410.115 55.988 409.891 56.024C409.667 56.064 409.445 56.084 409.225 56.084C408.805 56.084 408.417 56.014 408.061 55.874C407.709 55.73 407.403 55.522 407.143 55.25C406.887 54.974 406.687 54.634 406.543 54.23C406.399 53.826 406.327 53.362 406.327 52.838C406.327 52.414 406.391 52.018 406.519 51.65C406.651 51.282 406.839 50.964 407.083 50.696C407.327 50.424 407.625 50.212 407.977 50.06C408.329 49.904 408.725 49.826 409.165 49.826ZM409.189 50.612C408.673 50.612 408.267 50.762 407.971 51.062C407.675 51.358 407.491 51.77 407.419 52.298H410.725C410.725 52.05 410.691 51.824 410.623 51.62C410.555 51.412 410.455 51.234 410.323 51.086C410.191 50.934 410.029 50.818 409.837 50.738C409.649 50.654 409.433 50.612 409.189 50.612ZM417.198 51.002C417.166 51.046 417.134 51.08 417.102 51.104C417.07 51.128 417.024 51.14 416.964 51.14C416.904 51.14 416.838 51.116 416.766 51.068C416.698 51.016 416.61 50.96 416.502 50.9C416.394 50.84 416.262 50.786 416.106 50.738C415.954 50.686 415.766 50.66 415.542 50.66C415.246 50.66 414.984 50.714 414.756 50.822C414.528 50.926 414.336 51.078 414.18 51.278C414.028 51.478 413.912 51.72 413.832 52.004C413.756 52.288 413.718 52.606 413.718 52.958C413.718 53.326 413.76 53.654 413.844 53.942C413.928 54.226 414.046 54.466 414.198 54.662C414.35 54.854 414.534 55.002 414.75 55.106C414.97 55.206 415.216 55.256 415.488 55.256C415.748 55.256 415.962 55.226 416.13 55.166C416.298 55.102 416.438 55.032 416.55 54.956C416.662 54.88 416.754 54.812 416.826 54.752C416.898 54.688 416.97 54.656 417.042 54.656C417.134 54.656 417.202 54.69 417.246 54.758L417.546 55.148C417.282 55.472 416.952 55.71 416.556 55.862C416.16 56.01 415.742 56.084 415.302 56.084C414.922 56.084 414.568 56.014 414.24 55.874C413.916 55.734 413.634 55.532 413.394 55.268C413.154 55 412.964 54.672 412.824 54.284C412.688 53.896 412.62 53.454 412.62 52.958C412.62 52.506 412.682 52.088 412.806 51.704C412.934 51.32 413.118 50.99 413.358 50.714C413.602 50.434 413.902 50.216 414.258 50.06C414.614 49.904 415.022 49.826 415.482 49.826C415.906 49.826 416.282 49.896 416.61 50.036C416.938 50.172 417.228 50.366 417.48 50.618L417.198 51.002ZM419.763 47.162V52.364H420.039C420.119 52.364 420.185 52.354 420.237 52.334C420.289 52.31 420.347 52.264 420.411 52.196L422.331 50.138C422.391 50.074 422.451 50.022 422.511 49.982C422.571 49.942 422.651 49.922 422.751 49.922H423.723L421.485 52.304C421.429 52.372 421.373 52.432 421.317 52.484C421.265 52.536 421.205 52.582 421.137 52.622C421.209 52.67 421.273 52.726 421.329 52.79C421.389 52.85 421.445 52.92 421.497 53L423.873 56H422.913C422.825 56 422.749 55.984 422.685 55.952C422.625 55.916 422.567 55.862 422.511 55.79L420.513 53.3C420.453 53.216 420.393 53.162 420.333 53.138C420.273 53.11 420.183 53.096 420.063 53.096H419.763V56H418.689V47.162H419.763ZM426.989 49.826C427.353 49.826 427.689 49.888 427.997 50.012C428.305 50.132 428.571 50.308 428.795 50.54C429.019 50.768 429.193 51.052 429.317 51.392C429.445 51.728 429.509 52.112 429.509 52.544C429.509 52.712 429.491 52.824 429.455 52.88C429.419 52.936 429.351 52.964 429.251 52.964H425.207C425.215 53.348 425.267 53.682 425.363 53.966C425.459 54.25 425.591 54.488 425.759 54.68C425.927 54.868 426.127 55.01 426.359 55.106C426.591 55.198 426.851 55.244 427.139 55.244C427.407 55.244 427.637 55.214 427.829 55.154C428.025 55.09 428.193 55.022 428.333 54.95C428.473 54.878 428.589 54.812 428.681 54.752C428.777 54.688 428.859 54.656 428.927 54.656C429.015 54.656 429.083 54.69 429.131 54.758L429.431 55.148C429.299 55.308 429.141 55.448 428.957 55.568C428.773 55.684 428.575 55.78 428.363 55.856C428.155 55.932 427.939 55.988 427.715 56.024C427.491 56.064 427.269 56.084 427.049 56.084C426.629 56.084 426.241 56.014 425.885 55.874C425.533 55.73 425.227 55.522 424.967 55.25C424.711 54.974 424.511 54.634 424.367 54.23C424.223 53.826 424.151 53.362 424.151 52.838C424.151 52.414 424.215 52.018 424.343 51.65C424.475 51.282 424.663 50.964 424.907 50.696C425.151 50.424 425.449 50.212 425.801 50.06C426.153 49.904 426.549 49.826 426.989 49.826ZM427.013 50.612C426.497 50.612 426.091 50.762 425.795 51.062C425.499 51.358 425.315 51.77 425.243 52.298H428.549C428.549 52.05 428.515 51.824 428.447 51.62C428.379 51.412 428.279 51.234 428.147 51.086C428.015 50.934 427.853 50.818 427.661 50.738C427.473 50.654 427.257 50.612 427.013 50.612ZM435.154 56C435.002 56 434.906 55.926 434.866 55.778L434.77 55.04C434.51 55.356 434.212 55.61 433.876 55.802C433.544 55.99 433.162 56.084 432.73 56.084C432.382 56.084 432.066 56.018 431.782 55.886C431.498 55.75 431.256 55.552 431.056 55.292C430.856 55.032 430.702 54.708 430.594 54.32C430.486 53.932 430.432 53.486 430.432 52.982C430.432 52.534 430.492 52.118 430.612 51.734C430.732 51.346 430.904 51.01 431.128 50.726C431.356 50.442 431.632 50.22 431.956 50.06C432.28 49.896 432.648 49.814 433.06 49.814C433.432 49.814 433.75 49.878 434.014 50.006C434.278 50.13 434.514 50.306 434.722 50.534V47.162H435.79V56H435.154ZM433.084 55.22C433.432 55.22 433.736 55.14 433.996 54.98C434.26 54.82 434.502 54.594 434.722 54.302V51.362C434.526 51.098 434.31 50.914 434.074 50.81C433.842 50.702 433.584 50.648 433.3 50.648C432.732 50.648 432.296 50.85 431.992 51.254C431.688 51.658 431.536 52.234 431.536 52.982C431.536 53.378 431.57 53.718 431.638 54.002C431.706 54.282 431.806 54.514 431.938 54.698C432.07 54.878 432.232 55.01 432.424 55.094C432.616 55.178 432.836 55.22 433.084 55.22ZM447.519 51.704C447.519 52.348 447.417 52.934 447.213 53.462C447.009 53.99 446.721 54.442 446.349 54.818C445.977 55.194 445.531 55.486 445.011 55.694C444.491 55.898 443.915 56 443.283 56H440.067V47.402H443.283C443.915 47.402 444.491 47.506 445.011 47.714C445.531 47.918 445.977 48.21 446.349 48.59C446.721 48.966 447.009 49.418 447.213 49.946C447.417 50.474 447.519 51.06 447.519 51.704ZM446.325 51.704C446.325 51.176 446.253 50.704 446.109 50.288C445.965 49.872 445.761 49.52 445.497 49.232C445.233 48.944 444.913 48.724 444.537 48.572C444.161 48.42 443.743 48.344 443.283 48.344H441.237V55.058H443.283C443.743 55.058 444.161 54.982 444.537 54.83C444.913 54.678 445.233 54.46 445.497 54.176C445.761 53.888 445.965 53.536 446.109 53.12C446.253 52.704 446.325 52.232 446.325 51.704ZM450.123 49.922V56H449.055V49.922H450.123ZM450.363 48.014C450.363 48.118 450.341 48.216 450.297 48.308C450.257 48.396 450.201 48.476 450.129 48.548C450.061 48.616 449.981 48.67 449.889 48.71C449.797 48.75 449.699 48.77 449.595 48.77C449.491 48.77 449.393 48.75 449.301 48.71C449.213 48.67 449.133 48.616 449.061 48.548C448.993 48.476 448.939 48.396 448.899 48.308C448.859 48.216 448.839 48.118 448.839 48.014C448.839 47.91 448.859 47.812 448.899 47.72C448.939 47.624 448.993 47.542 449.061 47.474C449.133 47.402 449.213 47.346 449.301 47.306C449.393 47.266 449.491 47.246 449.595 47.246C449.699 47.246 449.797 47.266 449.889 47.306C449.981 47.346 450.061 47.402 450.129 47.474C450.201 47.542 450.257 47.624 450.297 47.72C450.341 47.812 450.363 47.91 450.363 48.014ZM455.485 50.924C455.437 51.012 455.363 51.056 455.263 51.056C455.203 51.056 455.135 51.034 455.059 50.99C454.983 50.946 454.889 50.898 454.777 50.846C454.669 50.79 454.539 50.74 454.387 50.696C454.235 50.648 454.055 50.624 453.847 50.624C453.667 50.624 453.505 50.648 453.361 50.696C453.217 50.74 453.093 50.802 452.989 50.882C452.889 50.962 452.811 51.056 452.755 51.164C452.703 51.268 452.677 51.382 452.677 51.506C452.677 51.662 452.721 51.792 452.809 51.896C452.901 52 453.021 52.09 453.169 52.166C453.317 52.242 453.485 52.31 453.673 52.37C453.861 52.426 454.053 52.488 454.249 52.556C454.449 52.62 454.643 52.692 454.831 52.772C455.019 52.852 455.187 52.952 455.335 53.072C455.483 53.192 455.601 53.34 455.689 53.516C455.781 53.688 455.827 53.896 455.827 54.14C455.827 54.42 455.777 54.68 455.677 54.92C455.577 55.156 455.429 55.362 455.233 55.538C455.037 55.71 454.797 55.846 454.513 55.946C454.229 56.046 453.901 56.096 453.529 56.096C453.105 56.096 452.721 56.028 452.377 55.892C452.033 55.752 451.741 55.574 451.501 55.358L451.753 54.95C451.785 54.898 451.823 54.858 451.867 54.83C451.911 54.802 451.969 54.788 452.041 54.788C452.113 54.788 452.189 54.816 452.269 54.872C452.349 54.928 452.445 54.99 452.557 55.058C452.673 55.126 452.811 55.188 452.971 55.244C453.135 55.3 453.339 55.328 453.583 55.328C453.791 55.328 453.973 55.302 454.129 55.25C454.285 55.194 454.415 55.12 454.519 55.028C454.623 54.936 454.699 54.83 454.747 54.71C454.799 54.59 454.825 54.462 454.825 54.326C454.825 54.158 454.779 54.02 454.687 53.912C454.599 53.8 454.481 53.706 454.333 53.63C454.185 53.55 454.015 53.482 453.823 53.426C453.635 53.366 453.441 53.304 453.241 53.24C453.045 53.176 452.851 53.104 452.659 53.024C452.471 52.94 452.303 52.836 452.155 52.712C452.007 52.588 451.887 52.436 451.795 52.256C451.707 52.072 451.663 51.85 451.663 51.59C451.663 51.358 451.711 51.136 451.807 50.924C451.903 50.708 452.043 50.52 452.227 50.36C452.411 50.196 452.637 50.066 452.905 49.97C453.173 49.874 453.479 49.826 453.823 49.826C454.223 49.826 454.581 49.89 454.897 50.018C455.217 50.142 455.493 50.314 455.725 50.534L455.485 50.924ZM461.672 56H461.198C461.094 56 461.01 55.984 460.946 55.952C460.882 55.92 460.84 55.852 460.82 55.748L460.7 55.184C460.54 55.328 460.384 55.458 460.232 55.574C460.08 55.686 459.92 55.782 459.752 55.862C459.584 55.938 459.404 55.996 459.212 56.036C459.024 56.076 458.814 56.096 458.582 56.096C458.346 56.096 458.124 56.064 457.916 56C457.712 55.932 457.534 55.832 457.382 55.7C457.23 55.568 457.108 55.402 457.016 55.202C456.928 54.998 456.884 54.758 456.884 54.482C456.884 54.242 456.95 54.012 457.082 53.792C457.214 53.568 457.426 53.37 457.718 53.198C458.014 53.026 458.4 52.886 458.876 52.778C459.352 52.666 459.934 52.602 460.622 52.586V52.112C460.622 51.64 460.52 51.284 460.316 51.044C460.116 50.8 459.818 50.678 459.422 50.678C459.162 50.678 458.942 50.712 458.762 50.78C458.586 50.844 458.432 50.918 458.3 51.002C458.172 51.082 458.06 51.156 457.964 51.224C457.872 51.288 457.78 51.32 457.688 51.32C457.616 51.32 457.552 51.302 457.496 51.266C457.444 51.226 457.402 51.178 457.37 51.122L457.178 50.78C457.514 50.456 457.876 50.214 458.264 50.054C458.652 49.894 459.082 49.814 459.554 49.814C459.894 49.814 460.196 49.87 460.46 49.982C460.724 50.094 460.946 50.25 461.126 50.45C461.306 50.65 461.442 50.892 461.534 51.176C461.626 51.46 461.672 51.772 461.672 52.112V56ZM458.9 55.346C459.088 55.346 459.26 55.328 459.416 55.292C459.572 55.252 459.718 55.198 459.854 55.13C459.994 55.058 460.126 54.972 460.25 54.872C460.378 54.772 460.502 54.658 460.622 54.53V53.264C460.13 53.28 459.712 53.32 459.368 53.384C459.024 53.444 458.744 53.524 458.528 53.624C458.312 53.724 458.154 53.842 458.054 53.978C457.958 54.114 457.91 54.266 457.91 54.434C457.91 54.594 457.936 54.732 457.988 54.848C458.04 54.964 458.11 55.06 458.198 55.136C458.286 55.208 458.39 55.262 458.51 55.298C458.63 55.33 458.76 55.346 458.9 55.346ZM463.326 56V47.162H464.4V50.798C464.652 50.506 464.94 50.272 465.264 50.096C465.592 49.916 465.966 49.826 466.386 49.826C466.738 49.826 467.056 49.892 467.34 50.024C467.624 50.156 467.866 50.354 468.066 50.618C468.266 50.878 468.42 51.202 468.528 51.59C468.636 51.974 468.69 52.418 468.69 52.922C468.69 53.37 468.63 53.788 468.51 54.176C468.39 54.56 468.216 54.894 467.988 55.178C467.764 55.458 467.488 55.68 467.16 55.844C466.836 56.004 466.47 56.084 466.062 56.084C465.67 56.084 465.336 56.008 465.06 55.856C464.788 55.704 464.55 55.492 464.346 55.22L464.292 55.772C464.26 55.924 464.168 56 464.016 56H463.326ZM466.038 50.678C465.69 50.678 465.384 50.758 465.12 50.918C464.86 51.078 464.62 51.304 464.4 51.596V54.536C464.592 54.8 464.804 54.986 465.036 55.094C465.272 55.202 465.534 55.256 465.822 55.256C466.39 55.256 466.826 55.054 467.13 54.65C467.434 54.246 467.586 53.67 467.586 52.922C467.586 52.526 467.55 52.186 467.478 51.902C467.41 51.618 467.31 51.386 467.178 51.206C467.046 51.022 466.884 50.888 466.692 50.804C466.5 50.72 466.282 50.678 466.038 50.678ZM471.181 47.162V56H470.113V47.162H471.181ZM475.47 49.826C475.834 49.826 476.17 49.888 476.478 50.012C476.786 50.132 477.052 50.308 477.276 50.54C477.5 50.768 477.674 51.052 477.798 51.392C477.926 51.728 477.99 52.112 477.99 52.544C477.99 52.712 477.972 52.824 477.936 52.88C477.9 52.936 477.832 52.964 477.732 52.964H473.688C473.696 53.348 473.748 53.682 473.844 53.966C473.94 54.25 474.072 54.488 474.24 54.68C474.408 54.868 474.608 55.01 474.84 55.106C475.072 55.198 475.332 55.244 475.62 55.244C475.888 55.244 476.118 55.214 476.31 55.154C476.506 55.09 476.674 55.022 476.814 54.95C476.954 54.878 477.07 54.812 477.162 54.752C477.258 54.688 477.34 54.656 477.408 54.656C477.496 54.656 477.564 54.69 477.612 54.758L477.912 55.148C477.78 55.308 477.622 55.448 477.438 55.568C477.254 55.684 477.056 55.78 476.844 55.856C476.636 55.932 476.42 55.988 476.196 56.024C475.972 56.064 475.75 56.084 475.53 56.084C475.11 56.084 474.722 56.014 474.366 55.874C474.014 55.73 473.708 55.522 473.448 55.25C473.192 54.974 472.992 54.634 472.848 54.23C472.704 53.826 472.632 53.362 472.632 52.838C472.632 52.414 472.696 52.018 472.824 51.65C472.956 51.282 473.144 50.964 473.388 50.696C473.632 50.424 473.93 50.212 474.282 50.06C474.634 49.904 475.03 49.826 475.47 49.826ZM475.493 50.612C474.978 50.612 474.572 50.762 474.276 51.062C473.98 51.358 473.796 51.77 473.724 52.298H477.03C477.03 52.05 476.996 51.824 476.928 51.62C476.86 51.412 476.76 51.234 476.628 51.086C476.496 50.934 476.334 50.818 476.142 50.738C475.954 50.654 475.738 50.612 475.493 50.612Z" fill="#E9EAEB"/>
<path fill-rule="evenodd" clip-rule="evenodd" d="M60 235C60 233.895 60.8954 233 62 233H72C73.1046 233 74 233.895 74 235V245C74 246.105 73.1046 247 72 247H62C60.8954 247 60 246.105 60 245V235ZM70.7782 237.121L72.1924 238.536L66.5355 244.192L65.8284 243.485L65.1213 242.778L63 240.657L64.4142 239.243L66.5355 241.364L70.7782 237.121Z" fill="#E8F4FE"/>
<g clip-path="url(#clip0)">
<path d="M85.022 179V168.878H88.515C89.1777 168.878 89.7423 168.941 90.209 169.067C90.6803 169.193 91.0653 169.373 91.364 169.606C91.6673 169.839 91.889 170.122 92.029 170.453C92.169 170.784 92.239 171.158 92.239 171.573C92.239 171.811 92.204 172.04 92.134 172.259C92.064 172.474 91.9543 172.677 91.805 172.868C91.6603 173.055 91.4737 173.225 91.245 173.379C91.021 173.533 90.7527 173.664 90.44 173.771C91.8307 174.084 92.526 174.835 92.526 176.025C92.526 176.454 92.4443 176.851 92.281 177.215C92.1177 177.579 91.8797 177.894 91.567 178.16C91.2543 178.421 90.8693 178.627 90.412 178.776C89.9547 178.925 89.432 179 88.844 179H85.022ZM86.905 174.562V177.53H88.816C89.166 177.53 89.4577 177.488 89.691 177.404C89.929 177.32 90.118 177.208 90.258 177.068C90.4027 176.928 90.5053 176.765 90.566 176.578C90.6313 176.391 90.664 176.193 90.664 175.983C90.664 175.764 90.629 175.568 90.559 175.395C90.489 175.218 90.3793 175.068 90.23 174.947C90.0807 174.821 89.8893 174.725 89.656 174.66C89.4227 174.595 89.1403 174.562 88.809 174.562H86.905ZM86.905 173.26H88.41C89.0493 173.26 89.5347 173.143 89.866 172.91C90.1973 172.677 90.363 172.306 90.363 171.797C90.363 171.27 90.2137 170.894 89.915 170.67C89.6163 170.446 89.1497 170.334 88.515 170.334H86.905V173.26ZM95.6251 171.818V176.382C95.6251 176.821 95.7255 177.161 95.9261 177.404C96.1315 177.642 96.4371 177.761 96.8431 177.761C97.1418 177.761 97.4218 177.696 97.6831 177.565C97.9445 177.43 98.1918 177.245 98.4251 177.012V171.818H100.154V179H99.0971C98.8731 179 98.7261 178.895 98.6561 178.685L98.5371 178.111C98.3878 178.26 98.2338 178.398 98.0751 178.524C97.9165 178.645 97.7461 178.75 97.5641 178.839C97.3868 178.923 97.1931 178.988 96.9831 179.035C96.7778 179.086 96.5561 179.112 96.3181 179.112C95.9261 179.112 95.5785 179.047 95.2751 178.916C94.9765 178.781 94.7245 178.592 94.5191 178.349C94.3138 178.106 94.1575 177.819 94.0501 177.488C93.9475 177.152 93.8961 176.783 93.8961 176.382V171.818H95.6251ZM103.841 168.598V179H102.112V168.598H103.841ZM107.551 168.598V174.555H107.873C107.99 174.555 108.081 174.539 108.146 174.506C108.211 174.473 108.281 174.413 108.356 174.324L110.141 172.119C110.22 172.026 110.304 171.953 110.393 171.902C110.482 171.846 110.598 171.818 110.743 171.818H112.325L110.092 174.485C110.013 174.583 109.931 174.674 109.847 174.758C109.763 174.837 109.672 174.907 109.574 174.968C109.672 175.038 109.758 175.12 109.833 175.213C109.908 175.306 109.982 175.407 110.057 175.514L112.451 179H110.89C110.755 179 110.64 178.977 110.547 178.93C110.454 178.883 110.37 178.804 110.295 178.692L108.468 175.969C108.398 175.862 108.328 175.792 108.258 175.759C108.188 175.726 108.083 175.71 107.943 175.71H107.551V179H105.822V168.598H107.551ZM125.228 179H123.772C123.608 179 123.473 178.96 123.366 178.881C123.263 178.797 123.188 178.694 123.142 178.573L122.386 176.508H118.193L117.437 178.573C117.399 178.68 117.325 178.778 117.213 178.867C117.105 178.956 116.972 179 116.814 179H115.351L119.327 168.878H121.252L125.228 179ZM118.676 175.178H121.903L120.671 171.811C120.615 171.662 120.552 171.487 120.482 171.286C120.416 171.081 120.351 170.859 120.286 170.621C120.22 170.859 120.155 171.081 120.09 171.286C120.029 171.491 119.968 171.671 119.908 171.825L118.676 175.178ZM131.219 173.337C131.168 173.402 131.116 173.454 131.065 173.491C131.018 173.528 130.948 173.547 130.855 173.547C130.766 173.547 130.68 173.521 130.596 173.47C130.512 173.414 130.412 173.353 130.295 173.288C130.178 173.218 130.038 173.157 129.875 173.106C129.716 173.05 129.518 173.022 129.28 173.022C128.977 173.022 128.711 173.078 128.482 173.19C128.253 173.297 128.062 173.454 127.908 173.659C127.759 173.864 127.647 174.114 127.572 174.408C127.497 174.697 127.46 175.026 127.46 175.395C127.46 175.778 127.5 176.118 127.579 176.417C127.663 176.716 127.782 176.968 127.936 177.173C128.09 177.374 128.277 177.528 128.496 177.635C128.715 177.738 128.963 177.789 129.238 177.789C129.513 177.789 129.735 177.756 129.903 177.691C130.076 177.621 130.22 177.546 130.337 177.467C130.454 177.383 130.554 177.308 130.638 177.243C130.727 177.173 130.825 177.138 130.932 177.138C131.072 177.138 131.177 177.192 131.247 177.299L131.744 177.929C131.553 178.153 131.345 178.342 131.121 178.496C130.897 178.645 130.664 178.767 130.421 178.86C130.183 178.949 129.936 179.012 129.679 179.049C129.422 179.086 129.168 179.105 128.916 179.105C128.473 179.105 128.055 179.023 127.663 178.86C127.271 178.692 126.928 178.449 126.634 178.132C126.345 177.815 126.114 177.427 125.941 176.97C125.773 176.508 125.689 175.983 125.689 175.395C125.689 174.868 125.764 174.38 125.913 173.932C126.067 173.479 126.291 173.09 126.585 172.763C126.879 172.432 127.243 172.173 127.677 171.986C128.111 171.799 128.61 171.706 129.175 171.706C129.712 171.706 130.181 171.792 130.582 171.965C130.988 172.138 131.352 172.385 131.674 172.707L131.219 173.337ZM135.203 179.112C134.582 179.112 134.104 178.937 133.768 178.587C133.432 178.232 133.264 177.745 133.264 177.124V173.113H132.536C132.443 173.113 132.361 173.083 132.291 173.022C132.226 172.961 132.193 172.87 132.193 172.749V172.063L133.348 171.874L133.712 169.914C133.731 169.821 133.773 169.748 133.838 169.697C133.908 169.646 133.994 169.62 134.097 169.62H134.993V171.881H136.883V173.113H134.993V177.005C134.993 177.229 135.049 177.404 135.161 177.53C135.273 177.656 135.422 177.719 135.609 177.719C135.716 177.719 135.805 177.707 135.875 177.684C135.95 177.656 136.013 177.628 136.064 177.6C136.12 177.572 136.169 177.546 136.211 177.523C136.253 177.495 136.295 177.481 136.337 177.481C136.388 177.481 136.43 177.495 136.463 177.523C136.496 177.546 136.531 177.584 136.568 177.635L137.086 178.475C136.834 178.685 136.545 178.844 136.218 178.951C135.891 179.058 135.553 179.112 135.203 179.112ZM140.099 171.818V179H138.37V171.818H140.099ZM140.358 169.725C140.358 169.874 140.328 170.014 140.267 170.145C140.206 170.276 140.125 170.39 140.022 170.488C139.924 170.586 139.807 170.665 139.672 170.726C139.537 170.782 139.392 170.81 139.238 170.81C139.089 170.81 138.946 170.782 138.811 170.726C138.68 170.665 138.566 170.586 138.468 170.488C138.37 170.39 138.291 170.276 138.23 170.145C138.174 170.014 138.146 169.874 138.146 169.725C138.146 169.571 138.174 169.426 138.23 169.291C138.291 169.156 138.37 169.039 138.468 168.941C138.566 168.843 138.68 168.766 138.811 168.71C138.946 168.649 139.089 168.619 139.238 168.619C139.392 168.619 139.537 168.649 139.672 168.71C139.807 168.766 139.924 168.843 140.022 168.941C140.125 169.039 140.206 169.156 140.267 169.291C140.328 169.426 140.358 169.571 140.358 169.725ZM145.125 171.706C145.661 171.706 146.147 171.792 146.581 171.965C147.019 172.138 147.393 172.383 147.701 172.7C148.009 173.017 148.247 173.405 148.415 173.862C148.583 174.319 148.667 174.83 148.667 175.395C148.667 175.964 148.583 176.478 148.415 176.935C148.247 177.392 148.009 177.782 147.701 178.104C147.393 178.426 147.019 178.673 146.581 178.846C146.147 179.019 145.661 179.105 145.125 179.105C144.588 179.105 144.1 179.019 143.662 178.846C143.223 178.673 142.847 178.426 142.535 178.104C142.227 177.782 141.986 177.392 141.814 176.935C141.646 176.478 141.562 175.964 141.562 175.395C141.562 174.83 141.646 174.319 141.814 173.862C141.986 173.405 142.227 173.017 142.535 172.7C142.847 172.383 143.223 172.138 143.662 171.965C144.1 171.792 144.588 171.706 145.125 171.706ZM145.125 177.775C145.722 177.775 146.163 177.574 146.448 177.173C146.737 176.772 146.882 176.184 146.882 175.409C146.882 174.634 146.737 174.044 146.448 173.638C146.163 173.232 145.722 173.029 145.125 173.029C144.518 173.029 144.07 173.234 143.781 173.645C143.491 174.051 143.347 174.639 143.347 175.409C143.347 176.179 143.491 176.767 143.781 177.173C144.07 177.574 144.518 177.775 145.125 177.775ZM150.016 179V171.818H151.073C151.297 171.818 151.444 171.923 151.514 172.133L151.633 172.7C151.777 172.551 151.929 172.415 152.088 172.294C152.251 172.173 152.421 172.068 152.599 171.979C152.781 171.89 152.974 171.823 153.18 171.776C153.385 171.729 153.609 171.706 153.852 171.706C154.244 171.706 154.591 171.774 154.895 171.909C155.198 172.04 155.45 172.226 155.651 172.469C155.856 172.707 156.01 172.994 156.113 173.33C156.22 173.661 156.274 174.028 156.274 174.429V179H154.545V174.429C154.545 173.99 154.442 173.652 154.237 173.414C154.036 173.171 153.733 173.05 153.327 173.05C153.028 173.05 152.748 173.118 152.487 173.253C152.225 173.388 151.978 173.573 151.745 173.806V179H150.016Z" fill="#606266"/>
<rect x="59.5" y="166.5" width="13" height="13" rx="1.5" fill="#279FF6" stroke="#279FF6"/>
</g>
<rect x="59.5" y="201.5" width="13" height="13" rx="1.5" fill="white" stroke="#D5D8DE"/>
<path fill-rule="evenodd" clip-rule="evenodd" d="M59 269C59 267.895 59.8954 267 61 267H71C72.1046 267 73 267.895 73 269V279C73 280.105 72.1046 281 71 281H61C59.8954 281 59 280.105 59 279V269ZM69.7782 271.121L71.1924 272.536L65.5355 278.192L64.8284 277.485L64.1213 276.778L62 274.657L63.4142 273.243L65.5355 275.364L69.7782 271.121Z" fill="#279FF6"/>
<path fill-rule="evenodd" clip-rule="evenodd" d="M59 235C59 233.895 59.8954 233 61 233H71C72.1046 233 73 233.895 73 235V245C73 246.105 72.1046 247 71 247H61C59.8954 247 59 246.105 59 245V235ZM69.7782 237.121L71.1924 238.536L65.5355 244.192L64.8284 243.485L64.1213 242.778L62 240.657L63.4142 239.243L65.5355 241.364L69.7782 237.121Z" fill="#279FF6"/>
<path d="M88.386 211.076C88.742 211.076 89.06 211.016 89.34 210.896C89.62 210.776 89.856 210.608 90.048 210.392C90.244 210.176 90.392 209.918 90.492 209.618C90.596 209.318 90.648 208.988 90.648 208.628V203.402H91.806V208.628C91.806 209.124 91.726 209.584 91.566 210.008C91.41 210.432 91.184 210.8 90.888 211.112C90.596 211.42 90.238 211.662 89.814 211.838C89.39 212.014 88.914 212.102 88.386 212.102C87.858 212.102 87.382 212.014 86.958 211.838C86.534 211.662 86.174 211.42 85.878 211.112C85.582 210.8 85.354 210.432 85.194 210.008C85.038 209.584 84.96 209.124 84.96 208.628V203.402H86.118V208.622C86.118 208.982 86.168 209.312 86.268 209.612C86.372 209.912 86.52 210.17 86.712 210.386C86.908 210.602 87.146 210.772 87.426 210.896C87.71 211.016 88.03 211.076 88.386 211.076ZM93.6416 212V205.922H94.2776C94.4296 205.922 94.5256 205.996 94.5656 206.144L94.6496 206.804C94.9136 206.512 95.2076 206.276 95.5316 206.096C95.8596 205.916 96.2376 205.826 96.6656 205.826C96.9976 205.826 97.2896 205.882 97.5416 205.994C97.7976 206.102 98.0096 206.258 98.1776 206.462C98.3496 206.662 98.4796 206.904 98.5676 207.188C98.6556 207.472 98.6996 207.786 98.6996 208.13V212H97.6316V208.13C97.6316 207.67 97.5256 207.314 97.3136 207.062C97.1056 206.806 96.7856 206.678 96.3536 206.678C96.0376 206.678 95.7416 206.754 95.4656 206.906C95.1936 207.058 94.9416 207.264 94.7096 207.524V212H93.6416ZM104.456 207.002C104.424 207.046 104.392 207.08 104.36 207.104C104.328 207.128 104.282 207.14 104.222 207.14C104.162 207.14 104.096 207.116 104.024 207.068C103.956 207.016 103.868 206.96 103.76 206.9C103.652 206.84 103.52 206.786 103.364 206.738C103.212 206.686 103.024 206.66 102.8 206.66C102.504 206.66 102.242 206.714 102.014 206.822C101.786 206.926 101.594 207.078 101.438 207.278C101.286 207.478 101.17 207.72 101.09 208.004C101.014 208.288 100.976 208.606 100.976 208.958C100.976 209.326 101.018 209.654 101.102 209.942C101.186 210.226 101.304 210.466 101.456 210.662C101.608 210.854 101.792 211.002 102.008 211.106C102.228 211.206 102.474 211.256 102.746 211.256C103.006 211.256 103.22 211.226 103.388 211.166C103.556 211.102 103.696 211.032 103.808 210.956C103.92 210.88 104.012 210.812 104.084 210.752C104.156 210.688 104.228 210.656 104.3 210.656C104.392 210.656 104.46 210.69 104.504 210.758L104.804 211.148C104.54 211.472 104.21 211.71 103.814 211.862C103.418 212.01 103 212.084 102.56 212.084C102.18 212.084 101.826 212.014 101.498 211.874C101.174 211.734 100.892 211.532 100.652 211.268C100.412 211 100.222 210.672 100.082 210.284C99.9456 209.896 99.8776 209.454 99.8776 208.958C99.8776 208.506 99.9396 208.088 100.064 207.704C100.192 207.32 100.376 206.99 100.616 206.714C100.86 206.434 101.16 206.216 101.516 206.06C101.872 205.904 102.28 205.826 102.74 205.826C103.164 205.826 103.54 205.896 103.868 206.036C104.196 206.172 104.486 206.366 104.738 206.618L104.456 207.002ZM105.911 212V203.162H106.979V206.738C107.239 206.462 107.527 206.242 107.843 206.078C108.159 205.91 108.523 205.826 108.935 205.826C109.267 205.826 109.559 205.882 109.811 205.994C110.067 206.102 110.279 206.258 110.447 206.462C110.619 206.662 110.749 206.904 110.837 207.188C110.925 207.472 110.969 207.786 110.969 208.13V212H109.901V208.13C109.901 207.67 109.795 207.314 109.583 207.062C109.375 206.806 109.055 206.678 108.623 206.678C108.307 206.678 108.011 206.754 107.735 206.906C107.463 207.058 107.211 207.264 106.979 207.524V212H105.911ZM114.985 205.826C115.349 205.826 115.685 205.888 115.993 206.012C116.301 206.132 116.567 206.308 116.791 206.54C117.015 206.768 117.189 207.052 117.313 207.392C117.441 207.728 117.505 208.112 117.505 208.544C117.505 208.712 117.487 208.824 117.451 208.88C117.415 208.936 117.347 208.964 117.247 208.964H113.203C113.211 209.348 113.263 209.682 113.359 209.966C113.455 210.25 113.587 210.488 113.755 210.68C113.923 210.868 114.123 211.01 114.355 211.106C114.587 211.198 114.847 211.244 115.135 211.244C115.403 211.244 115.633 211.214 115.825 211.154C116.021 211.09 116.189 211.022 116.329 210.95C116.469 210.878 116.585 210.812 116.677 210.752C116.773 210.688 116.855 210.656 116.923 210.656C117.011 210.656 117.079 210.69 117.127 210.758L117.427 211.148C117.295 211.308 117.137 211.448 116.953 211.568C116.769 211.684 116.571 211.78 116.359 211.856C116.151 211.932 115.935 211.988 115.711 212.024C115.487 212.064 115.265 212.084 115.045 212.084C114.625 212.084 114.237 212.014 113.881 211.874C113.529 211.73 113.223 211.522 112.963 211.25C112.707 210.974 112.507 210.634 112.363 210.23C112.219 209.826 112.147 209.362 112.147 208.838C112.147 208.414 112.211 208.018 112.339 207.65C112.471 207.282 112.659 206.964 112.903 206.696C113.147 206.424 113.445 206.212 113.797 206.06C114.149 205.904 114.545 205.826 114.985 205.826ZM115.009 206.612C114.493 206.612 114.087 206.762 113.791 207.062C113.495 207.358 113.311 207.77 113.239 208.298H116.545C116.545 208.05 116.511 207.824 116.443 207.62C116.375 207.412 116.275 207.234 116.143 207.086C116.011 206.934 115.849 206.818 115.657 206.738C115.469 206.654 115.253 206.612 115.009 206.612ZM123.018 207.002C122.986 207.046 122.954 207.08 122.922 207.104C122.89 207.128 122.844 207.14 122.784 207.14C122.724 207.14 122.658 207.116 122.586 207.068C122.518 207.016 122.43 206.96 122.322 206.9C122.214 206.84 122.082 206.786 121.926 206.738C121.774 206.686 121.586 206.66 121.362 206.66C121.066 206.66 120.804 206.714 120.576 206.822C120.348 206.926 120.156 207.078 120 207.278C119.848 207.478 119.732 207.72 119.652 208.004C119.576 208.288 119.538 208.606 119.538 208.958C119.538 209.326 119.58 209.654 119.664 209.942C119.748 210.226 119.866 210.466 120.018 210.662C120.17 210.854 120.354 211.002 120.57 211.106C120.79 211.206 121.036 211.256 121.308 211.256C121.568 211.256 121.782 211.226 121.95 211.166C122.118 211.102 122.258 211.032 122.37 210.956C122.482 210.88 122.574 210.812 122.646 210.752C122.718 210.688 122.79 210.656 122.862 210.656C122.954 210.656 123.022 210.69 123.066 210.758L123.366 211.148C123.102 211.472 122.772 211.71 122.376 211.862C121.98 212.01 121.562 212.084 121.122 212.084C120.742 212.084 120.388 212.014 120.06 211.874C119.736 211.734 119.454 211.532 119.214 211.268C118.974 211 118.784 210.672 118.644 210.284C118.508 209.896 118.44 209.454 118.44 208.958C118.44 208.506 118.502 208.088 118.626 207.704C118.754 207.32 118.938 206.99 119.178 206.714C119.422 206.434 119.722 206.216 120.078 206.06C120.434 205.904 120.842 205.826 121.302 205.826C121.726 205.826 122.102 205.896 122.43 206.036C122.758 206.172 123.048 206.366 123.3 206.618L123.018 207.002ZM125.584 203.162V208.364H125.86C125.94 208.364 126.006 208.354 126.058 208.334C126.11 208.31 126.168 208.264 126.232 208.196L128.152 206.138C128.212 206.074 128.272 206.022 128.332 205.982C128.392 205.942 128.472 205.922 128.572 205.922H129.544L127.306 208.304C127.25 208.372 127.194 208.432 127.138 208.484C127.086 208.536 127.026 208.582 126.958 208.622C127.03 208.67 127.094 208.726 127.15 208.79C127.21 208.85 127.266 208.92 127.318 209L129.694 212H128.734C128.646 212 128.57 211.984 128.506 211.952C128.446 211.916 128.388 211.862 128.332 211.79L126.334 209.3C126.274 209.216 126.214 209.162 126.154 209.138C126.094 209.11 126.004 209.096 125.884 209.096H125.584V212H124.51V203.162H125.584ZM132.809 205.826C133.173 205.826 133.509 205.888 133.817 206.012C134.125 206.132 134.391 206.308 134.615 206.54C134.839 206.768 135.013 207.052 135.137 207.392C135.265 207.728 135.329 208.112 135.329 208.544C135.329 208.712 135.311 208.824 135.275 208.88C135.239 208.936 135.171 208.964 135.071 208.964H131.027C131.035 209.348 131.087 209.682 131.183 209.966C131.279 210.25 131.411 210.488 131.579 210.68C131.747 210.868 131.947 211.01 132.179 211.106C132.411 211.198 132.671 211.244 132.959 211.244C133.227 211.244 133.457 211.214 133.649 211.154C133.845 211.09 134.013 211.022 134.153 210.95C134.293 210.878 134.409 210.812 134.501 210.752C134.597 210.688 134.679 210.656 134.747 210.656C134.835 210.656 134.903 210.69 134.951 210.758L135.251 211.148C135.119 211.308 134.961 211.448 134.777 211.568C134.593 211.684 134.395 211.78 134.183 211.856C133.975 211.932 133.759 211.988 133.535 212.024C133.311 212.064 133.089 212.084 132.869 212.084C132.449 212.084 132.061 212.014 131.705 211.874C131.353 211.73 131.047 211.522 130.787 211.25C130.531 210.974 130.331 210.634 130.187 210.23C130.043 209.826 129.971 209.362 129.971 208.838C129.971 208.414 130.035 208.018 130.163 207.65C130.295 207.282 130.483 206.964 130.727 206.696C130.971 206.424 131.269 206.212 131.621 206.06C131.973 205.904 132.369 205.826 132.809 205.826ZM132.833 206.612C132.317 206.612 131.911 206.762 131.615 207.062C131.319 207.358 131.135 207.77 131.063 208.298H134.369C134.369 208.05 134.335 207.824 134.267 207.62C134.199 207.412 134.099 207.234 133.967 207.086C133.835 206.934 133.673 206.818 133.481 206.738C133.293 206.654 133.077 206.612 132.833 206.612ZM140.974 212C140.822 212 140.726 211.926 140.686 211.778L140.59 211.04C140.33 211.356 140.032 211.61 139.696 211.802C139.364 211.99 138.982 212.084 138.55 212.084C138.202 212.084 137.886 212.018 137.602 211.886C137.318 211.75 137.076 211.552 136.876 211.292C136.676 211.032 136.522 210.708 136.414 210.32C136.306 209.932 136.252 209.486 136.252 208.982C136.252 208.534 136.312 208.118 136.432 207.734C136.552 207.346 136.724 207.01 136.948 206.726C137.176 206.442 137.452 206.22 137.776 206.06C138.1 205.896 138.468 205.814 138.88 205.814C139.252 205.814 139.57 205.878 139.834 206.006C140.098 206.13 140.334 206.306 140.542 206.534V203.162H141.61V212H140.974ZM138.904 211.22C139.252 211.22 139.556 211.14 139.816 210.98C140.08 210.82 140.322 210.594 140.542 210.302V207.362C140.346 207.098 140.13 206.914 139.894 206.81C139.662 206.702 139.404 206.648 139.12 206.648C138.552 206.648 138.116 206.85 137.812 207.254C137.508 207.658 137.356 208.234 137.356 208.982C137.356 209.378 137.39 209.718 137.458 210.002C137.526 210.282 137.626 210.514 137.758 210.698C137.89 210.878 138.052 211.01 138.244 211.094C138.436 211.178 138.656 211.22 138.904 211.22Z" fill="#6E737A"/>
<path d="M91.104 243.224C91.168 243.224 91.226 243.25 91.278 243.302L91.734 243.8C91.382 244.208 90.954 244.526 90.45 244.754C89.95 244.982 89.346 245.096 88.638 245.096C88.018 245.096 87.456 244.99 86.952 244.778C86.448 244.562 86.018 244.262 85.662 243.878C85.306 243.49 85.03 243.026 84.834 242.486C84.638 241.946 84.54 241.352 84.54 240.704C84.54 240.056 84.644 239.462 84.852 238.922C85.064 238.382 85.36 237.918 85.74 237.53C86.12 237.142 86.574 236.842 87.102 236.63C87.634 236.414 88.22 236.306 88.86 236.306C89.492 236.306 90.036 236.404 90.492 236.6C90.952 236.796 91.36 237.062 91.716 237.398L91.338 237.932C91.31 237.972 91.278 238.006 91.242 238.034C91.206 238.058 91.154 238.07 91.086 238.07C91.034 238.07 90.978 238.052 90.918 238.016C90.862 237.976 90.794 237.928 90.714 237.872C90.634 237.816 90.54 237.756 90.432 237.692C90.324 237.628 90.196 237.568 90.048 237.512C89.9 237.456 89.728 237.41 89.532 237.374C89.336 237.334 89.11 237.314 88.854 237.314C88.394 237.314 87.972 237.394 87.588 237.554C87.208 237.71 86.88 237.934 86.604 238.226C86.328 238.518 86.112 238.874 85.956 239.294C85.804 239.714 85.728 240.184 85.728 240.704C85.728 241.24 85.804 241.718 85.956 242.138C86.112 242.558 86.322 242.914 86.586 243.206C86.854 243.494 87.17 243.714 87.534 243.866C87.898 244.018 88.29 244.094 88.71 244.094C88.966 244.094 89.196 244.08 89.4 244.052C89.604 244.02 89.792 243.972 89.964 243.908C90.14 243.844 90.302 243.764 90.45 243.668C90.602 243.568 90.754 243.45 90.906 243.314C90.974 243.254 91.04 243.224 91.104 243.224ZM93.0908 245V236.162H94.1588V239.738C94.4188 239.462 94.7068 239.242 95.0228 239.078C95.3388 238.91 95.7028 238.826 96.1148 238.826C96.4468 238.826 96.7388 238.882 96.9908 238.994C97.2468 239.102 97.4588 239.258 97.6268 239.462C97.7988 239.662 97.9288 239.904 98.0168 240.188C98.1048 240.472 98.1488 240.786 98.1488 241.13V245H97.0808V241.13C97.0808 240.67 96.9748 240.314 96.7628 240.062C96.5548 239.806 96.2348 239.678 95.8028 239.678C95.4868 239.678 95.1908 239.754 94.9148 239.906C94.6428 240.058 94.3908 240.264 94.1588 240.524V245H93.0908ZM102.165 238.826C102.529 238.826 102.865 238.888 103.173 239.012C103.481 239.132 103.747 239.308 103.971 239.54C104.195 239.768 104.369 240.052 104.493 240.392C104.621 240.728 104.685 241.112 104.685 241.544C104.685 241.712 104.667 241.824 104.631 241.88C104.595 241.936 104.527 241.964 104.427 241.964H100.383C100.391 242.348 100.443 242.682 100.539 242.966C100.635 243.25 100.767 243.488 100.935 243.68C101.103 243.868 101.303 244.01 101.535 244.106C101.767 244.198 102.027 244.244 102.315 244.244C102.583 244.244 102.813 244.214 103.005 244.154C103.201 244.09 103.369 244.022 103.509 243.95C103.649 243.878 103.765 243.812 103.857 243.752C103.953 243.688 104.035 243.656 104.103 243.656C104.191 243.656 104.259 243.69 104.307 243.758L104.607 244.148C104.475 244.308 104.317 244.448 104.133 244.568C103.949 244.684 103.751 244.78 103.539 244.856C103.331 244.932 103.115 244.988 102.891 245.024C102.667 245.064 102.445 245.084 102.225 245.084C101.805 245.084 101.417 245.014 101.061 244.874C100.709 244.73 100.403 244.522 100.143 244.25C99.8868 243.974 99.6868 243.634 99.5428 243.23C99.3988 242.826 99.3268 242.362 99.3268 241.838C99.3268 241.414 99.3908 241.018 99.5188 240.65C99.6508 240.282 99.8388 239.964 100.083 239.696C100.327 239.424 100.625 239.212 100.977 239.06C101.329 238.904 101.725 238.826 102.165 238.826ZM102.189 239.612C101.673 239.612 101.267 239.762 100.971 240.062C100.675 240.358 100.491 240.77 100.419 241.298H103.725C103.725 241.05 103.691 240.824 103.623 240.62C103.555 240.412 103.455 240.234 103.323 240.086C103.191 239.934 103.029 239.818 102.837 239.738C102.649 239.654 102.433 239.612 102.189 239.612ZM110.198 240.002C110.166 240.046 110.134 240.08 110.102 240.104C110.07 240.128 110.024 240.14 109.964 240.14C109.904 240.14 109.838 240.116 109.766 240.068C109.698 240.016 109.61 239.96 109.502 239.9C109.394 239.84 109.262 239.786 109.106 239.738C108.954 239.686 108.766 239.66 108.542 239.66C108.246 239.66 107.984 239.714 107.756 239.822C107.528 239.926 107.336 240.078 107.18 240.278C107.028 240.478 106.912 240.72 106.832 241.004C106.756 241.288 106.718 241.606 106.718 241.958C106.718 242.326 106.76 242.654 106.844 242.942C106.928 243.226 107.046 243.466 107.198 243.662C107.35 243.854 107.534 244.002 107.75 244.106C107.97 244.206 108.216 244.256 108.488 244.256C108.748 244.256 108.962 244.226 109.13 244.166C109.298 244.102 109.438 244.032 109.55 243.956C109.662 243.88 109.754 243.812 109.826 243.752C109.898 243.688 109.97 243.656 110.042 243.656C110.134 243.656 110.202 243.69 110.246 243.758L110.546 244.148C110.282 244.472 109.952 244.71 109.556 244.862C109.16 245.01 108.742 245.084 108.302 245.084C107.922 245.084 107.568 245.014 107.24 244.874C106.916 244.734 106.634 244.532 106.394 244.268C106.154 244 105.964 243.672 105.824 243.284C105.688 242.896 105.62 242.454 105.62 241.958C105.62 241.506 105.682 241.088 105.806 240.704C105.934 240.32 106.118 239.99 106.358 239.714C106.602 239.434 106.902 239.216 107.258 239.06C107.614 238.904 108.022 238.826 108.482 238.826C108.906 238.826 109.282 238.896 109.61 239.036C109.938 239.172 110.228 239.366 110.48 239.618L110.198 240.002ZM112.763 236.162V241.364H113.039C113.119 241.364 113.185 241.354 113.237 241.334C113.289 241.31 113.347 241.264 113.411 241.196L115.331 239.138C115.391 239.074 115.451 239.022 115.511 238.982C115.571 238.942 115.651 238.922 115.751 238.922H116.723L114.485 241.304C114.429 241.372 114.373 241.432 114.317 241.484C114.265 241.536 114.205 241.582 114.137 241.622C114.209 241.67 114.273 241.726 114.329 241.79C114.389 241.85 114.445 241.92 114.497 242L116.873 245H115.913C115.825 245 115.749 244.984 115.685 244.952C115.625 244.916 115.567 244.862 115.511 244.79L113.513 242.3C113.453 242.216 113.393 242.162 113.333 242.138C113.273 242.11 113.183 242.096 113.063 242.096H112.763V245H111.689V236.162H112.763ZM119.989 238.826C120.353 238.826 120.689 238.888 120.997 239.012C121.305 239.132 121.571 239.308 121.795 239.54C122.019 239.768 122.193 240.052 122.317 240.392C122.445 240.728 122.509 241.112 122.509 241.544C122.509 241.712 122.491 241.824 122.455 241.88C122.419 241.936 122.351 241.964 122.251 241.964H118.207C118.215 242.348 118.267 242.682 118.363 242.966C118.459 243.25 118.591 243.488 118.759 243.68C118.927 243.868 119.127 244.01 119.359 244.106C119.591 244.198 119.851 244.244 120.139 244.244C120.407 244.244 120.637 244.214 120.829 244.154C121.025 244.09 121.193 244.022 121.333 243.95C121.473 243.878 121.589 243.812 121.681 243.752C121.777 243.688 121.859 243.656 121.927 243.656C122.015 243.656 122.083 243.69 122.131 243.758L122.431 244.148C122.299 244.308 122.141 244.448 121.957 244.568C121.773 244.684 121.575 244.78 121.363 244.856C121.155 244.932 120.939 244.988 120.715 245.024C120.491 245.064 120.269 245.084 120.049 245.084C119.629 245.084 119.241 245.014 118.885 244.874C118.533 244.73 118.227 244.522 117.967 244.25C117.711 243.974 117.511 243.634 117.367 243.23C117.223 242.826 117.151 242.362 117.151 241.838C117.151 241.414 117.215 241.018 117.343 240.65C117.475 240.282 117.663 239.964 117.907 239.696C118.151 239.424 118.449 239.212 118.801 239.06C119.153 238.904 119.549 238.826 119.989 238.826ZM120.013 239.612C119.497 239.612 119.091 239.762 118.795 240.062C118.499 240.358 118.315 240.77 118.243 241.298H121.549C121.549 241.05 121.515 240.824 121.447 240.62C121.379 240.412 121.279 240.234 121.147 240.086C121.015 239.934 120.853 239.818 120.661 239.738C120.473 239.654 120.257 239.612 120.013 239.612ZM128.154 245C128.002 245 127.906 244.926 127.866 244.778L127.77 244.04C127.51 244.356 127.212 244.61 126.876 244.802C126.544 244.99 126.162 245.084 125.73 245.084C125.382 245.084 125.066 245.018 124.782 244.886C124.498 244.75 124.256 244.552 124.056 244.292C123.856 244.032 123.702 243.708 123.594 243.32C123.486 242.932 123.432 242.486 123.432 241.982C123.432 241.534 123.492 241.118 123.612 240.734C123.732 240.346 123.904 240.01 124.128 239.726C124.356 239.442 124.632 239.22 124.956 239.06C125.28 238.896 125.648 238.814 126.06 238.814C126.432 238.814 126.75 238.878 127.014 239.006C127.278 239.13 127.514 239.306 127.722 239.534V236.162H128.79V245H128.154ZM126.084 244.22C126.432 244.22 126.736 244.14 126.996 243.98C127.26 243.82 127.502 243.594 127.722 243.302V240.362C127.526 240.098 127.31 239.914 127.074 239.81C126.842 239.702 126.584 239.648 126.3 239.648C125.732 239.648 125.296 239.85 124.992 240.254C124.688 240.658 124.536 241.234 124.536 241.982C124.536 242.378 124.57 242.718 124.638 243.002C124.706 243.282 124.806 243.514 124.938 243.698C125.07 243.878 125.232 244.01 125.424 244.094C125.616 244.178 125.836 244.22 126.084 244.22Z" fill="#279FF6"/>
<path d="M91.104 276.224C91.168 276.224 91.226 276.25 91.278 276.302L91.734 276.8C91.382 277.208 90.954 277.526 90.45 277.754C89.95 277.982 89.346 278.096 88.638 278.096C88.018 278.096 87.456 277.99 86.952 277.778C86.448 277.562 86.018 277.262 85.662 276.878C85.306 276.49 85.03 276.026 84.834 275.486C84.638 274.946 84.54 274.352 84.54 273.704C84.54 273.056 84.644 272.462 84.852 271.922C85.064 271.382 85.36 270.918 85.74 270.53C86.12 270.142 86.574 269.842 87.102 269.63C87.634 269.414 88.22 269.306 88.86 269.306C89.492 269.306 90.036 269.404 90.492 269.6C90.952 269.796 91.36 270.062 91.716 270.398L91.338 270.932C91.31 270.972 91.278 271.006 91.242 271.034C91.206 271.058 91.154 271.07 91.086 271.07C91.034 271.07 90.978 271.052 90.918 271.016C90.862 270.976 90.794 270.928 90.714 270.872C90.634 270.816 90.54 270.756 90.432 270.692C90.324 270.628 90.196 270.568 90.048 270.512C89.9 270.456 89.728 270.41 89.532 270.374C89.336 270.334 89.11 270.314 88.854 270.314C88.394 270.314 87.972 270.394 87.588 270.554C87.208 270.71 86.88 270.934 86.604 271.226C86.328 271.518 86.112 271.874 85.956 272.294C85.804 272.714 85.728 273.184 85.728 273.704C85.728 274.24 85.804 274.718 85.956 275.138C86.112 275.558 86.322 275.914 86.586 276.206C86.854 276.494 87.17 276.714 87.534 276.866C87.898 277.018 88.29 277.094 88.71 277.094C88.966 277.094 89.196 277.08 89.4 277.052C89.604 277.02 89.792 276.972 89.964 276.908C90.14 276.844 90.302 276.764 90.45 276.668C90.602 276.568 90.754 276.45 90.906 276.314C90.974 276.254 91.04 276.224 91.104 276.224ZM93.0908 278V269.162H94.1588V272.738C94.4188 272.462 94.7068 272.242 95.0228 272.078C95.3388 271.91 95.7028 271.826 96.1148 271.826C96.4468 271.826 96.7388 271.882 96.9908 271.994C97.2468 272.102 97.4588 272.258 97.6268 272.462C97.7988 272.662 97.9288 272.904 98.0168 273.188C98.1048 273.472 98.1488 273.786 98.1488 274.13V278H97.0808V274.13C97.0808 273.67 96.9748 273.314 96.7628 273.062C96.5548 272.806 96.2348 272.678 95.8028 272.678C95.4868 272.678 95.1908 272.754 94.9148 272.906C94.6428 273.058 94.3908 273.264 94.1588 273.524V278H93.0908ZM102.165 271.826C102.529 271.826 102.865 271.888 103.173 272.012C103.481 272.132 103.747 272.308 103.971 272.54C104.195 272.768 104.369 273.052 104.493 273.392C104.621 273.728 104.685 274.112 104.685 274.544C104.685 274.712 104.667 274.824 104.631 274.88C104.595 274.936 104.527 274.964 104.427 274.964H100.383C100.391 275.348 100.443 275.682 100.539 275.966C100.635 276.25 100.767 276.488 100.935 276.68C101.103 276.868 101.303 277.01 101.535 277.106C101.767 277.198 102.027 277.244 102.315 277.244C102.583 277.244 102.813 277.214 103.005 277.154C103.201 277.09 103.369 277.022 103.509 276.95C103.649 276.878 103.765 276.812 103.857 276.752C103.953 276.688 104.035 276.656 104.103 276.656C104.191 276.656 104.259 276.69 104.307 276.758L104.607 277.148C104.475 277.308 104.317 277.448 104.133 277.568C103.949 277.684 103.751 277.78 103.539 277.856C103.331 277.932 103.115 277.988 102.891 278.024C102.667 278.064 102.445 278.084 102.225 278.084C101.805 278.084 101.417 278.014 101.061 277.874C100.709 277.73 100.403 277.522 100.143 277.25C99.8868 276.974 99.6868 276.634 99.5428 276.23C99.3988 275.826 99.3268 275.362 99.3268 274.838C99.3268 274.414 99.3908 274.018 99.5188 273.65C99.6508 273.282 99.8388 272.964 100.083 272.696C100.327 272.424 100.625 272.212 100.977 272.06C101.329 271.904 101.725 271.826 102.165 271.826ZM102.189 272.612C101.673 272.612 101.267 272.762 100.971 273.062C100.675 273.358 100.491 273.77 100.419 274.298H103.725C103.725 274.05 103.691 273.824 103.623 273.62C103.555 273.412 103.455 273.234 103.323 273.086C103.191 272.934 103.029 272.818 102.837 272.738C102.649 272.654 102.433 272.612 102.189 272.612ZM110.198 273.002C110.166 273.046 110.134 273.08 110.102 273.104C110.07 273.128 110.024 273.14 109.964 273.14C109.904 273.14 109.838 273.116 109.766 273.068C109.698 273.016 109.61 272.96 109.502 272.9C109.394 272.84 109.262 272.786 109.106 272.738C108.954 272.686 108.766 272.66 108.542 272.66C108.246 272.66 107.984 272.714 107.756 272.822C107.528 272.926 107.336 273.078 107.18 273.278C107.028 273.478 106.912 273.72 106.832 274.004C106.756 274.288 106.718 274.606 106.718 274.958C106.718 275.326 106.76 275.654 106.844 275.942C106.928 276.226 107.046 276.466 107.198 276.662C107.35 276.854 107.534 277.002 107.75 277.106C107.97 277.206 108.216 277.256 108.488 277.256C108.748 277.256 108.962 277.226 109.13 277.166C109.298 277.102 109.438 277.032 109.55 276.956C109.662 276.88 109.754 276.812 109.826 276.752C109.898 276.688 109.97 276.656 110.042 276.656C110.134 276.656 110.202 276.69 110.246 276.758L110.546 277.148C110.282 277.472 109.952 277.71 109.556 277.862C109.16 278.01 108.742 278.084 108.302 278.084C107.922 278.084 107.568 278.014 107.24 277.874C106.916 277.734 106.634 277.532 106.394 277.268C106.154 277 105.964 276.672 105.824 276.284C105.688 275.896 105.62 275.454 105.62 274.958C105.62 274.506 105.682 274.088 105.806 273.704C105.934 273.32 106.118 272.99 106.358 272.714C106.602 272.434 106.902 272.216 107.258 272.06C107.614 271.904 108.022 271.826 108.482 271.826C108.906 271.826 109.282 271.896 109.61 272.036C109.938 272.172 110.228 272.366 110.48 272.618L110.198 273.002ZM112.763 269.162V274.364H113.039C113.119 274.364 113.185 274.354 113.237 274.334C113.289 274.31 113.347 274.264 113.411 274.196L115.331 272.138C115.391 272.074 115.451 272.022 115.511 271.982C115.571 271.942 115.651 271.922 115.751 271.922H116.723L114.485 274.304C114.429 274.372 114.373 274.432 114.317 274.484C114.265 274.536 114.205 274.582 114.137 274.622C114.209 274.67 114.273 274.726 114.329 274.79C114.389 274.85 114.445 274.92 114.497 275L116.873 278H115.913C115.825 278 115.749 277.984 115.685 277.952C115.625 277.916 115.567 277.862 115.511 277.79L113.513 275.3C113.453 275.216 113.393 275.162 113.333 275.138C113.273 275.11 113.183 275.096 113.063 275.096H112.763V278H111.689V269.162H112.763ZM119.989 271.826C120.353 271.826 120.689 271.888 120.997 272.012C121.305 272.132 121.571 272.308 121.795 272.54C122.019 272.768 122.193 273.052 122.317 273.392C122.445 273.728 122.509 274.112 122.509 274.544C122.509 274.712 122.491 274.824 122.455 274.88C122.419 274.936 122.351 274.964 122.251 274.964H118.207C118.215 275.348 118.267 275.682 118.363 275.966C118.459 276.25 118.591 276.488 118.759 276.68C118.927 276.868 119.127 277.01 119.359 277.106C119.591 277.198 119.851 277.244 120.139 277.244C120.407 277.244 120.637 277.214 120.829 277.154C121.025 277.09 121.193 277.022 121.333 276.95C121.473 276.878 121.589 276.812 121.681 276.752C121.777 276.688 121.859 276.656 121.927 276.656C122.015 276.656 122.083 276.69 122.131 276.758L122.431 277.148C122.299 277.308 122.141 277.448 121.957 277.568C121.773 277.684 121.575 277.78 121.363 277.856C121.155 277.932 120.939 277.988 120.715 278.024C120.491 278.064 120.269 278.084 120.049 278.084C119.629 278.084 119.241 278.014 118.885 277.874C118.533 277.73 118.227 277.522 117.967 277.25C117.711 276.974 117.511 276.634 117.367 276.23C117.223 275.826 117.151 275.362 117.151 274.838C117.151 274.414 117.215 274.018 117.343 273.65C117.475 273.282 117.663 272.964 117.907 272.696C118.151 272.424 118.449 272.212 118.801 272.06C119.153 271.904 119.549 271.826 119.989 271.826ZM120.013 272.612C119.497 272.612 119.091 272.762 118.795 273.062C118.499 273.358 118.315 273.77 118.243 274.298H121.549C121.549 274.05 121.515 273.824 121.447 273.62C121.379 273.412 121.279 273.234 121.147 273.086C121.015 272.934 120.853 272.818 120.661 272.738C120.473 272.654 120.257 272.612 120.013 272.612ZM128.154 278C128.002 278 127.906 277.926 127.866 277.778L127.77 277.04C127.51 277.356 127.212 277.61 126.876 277.802C126.544 277.99 126.162 278.084 125.73 278.084C125.382 278.084 125.066 278.018 124.782 277.886C124.498 277.75 124.256 277.552 124.056 277.292C123.856 277.032 123.702 276.708 123.594 276.32C123.486 275.932 123.432 275.486 123.432 274.982C123.432 274.534 123.492 274.118 123.612 273.734C123.732 273.346 123.904 273.01 124.128 272.726C124.356 272.442 124.632 272.22 124.956 272.06C125.28 271.896 125.648 271.814 126.06 271.814C126.432 271.814 126.75 271.878 127.014 272.006C127.278 272.13 127.514 272.306 127.722 272.534V269.162H128.79V278H128.154ZM126.084 277.22C126.432 277.22 126.736 277.14 126.996 276.98C127.26 276.82 127.502 276.594 127.722 276.302V273.362C127.526 273.098 127.31 272.914 127.074 272.81C126.842 272.702 126.584 272.648 126.3 272.648C125.732 272.648 125.296 272.85 124.992 273.254C124.688 273.658 124.536 274.234 124.536 274.982C124.536 275.378 124.57 275.718 124.638 276.002C124.706 276.282 124.806 276.514 124.938 276.698C125.07 276.878 125.232 277.01 125.424 277.094C125.616 277.178 125.836 277.22 126.084 277.22Z" fill="#279FF6"/>
<path d="M63.5 173H68" stroke="white" stroke-width="2" stroke-linecap="square"/>
<defs>
<clipPath id="clip0">
<rect x="59" y="166" width="98" height="15" fill="white"/>
</clipPath>
</defs>
</svg>
