<svg width="1000" height="143" viewBox="0 0 1000 143" fill="none" xmlns="http://www.w3.org/2000/svg">
<rect width="1000" height="143" fill="white"/>
<path d="M563.5 70C563.5 73.5899 560.59 76.5 557 76.5C553.41 76.5 550.5 73.5899 550.5 70C550.5 66.4101 553.41 63.5 557 63.5C560.59 63.5 563.5 66.4101 563.5 70Z" fill="#F0F2F5" stroke="#D5D8DE"/>
<path fill-rule="evenodd" clip-rule="evenodd" d="M376 71C376 74.866 372.866 78 369 78C365.134 78 362 74.866 362 71C362 67.134 365.134 64 369 64C372.866 64 376 67.134 376 71ZM371 71C371 72.1046 370.105 73 369 73C367.895 73 367 72.1046 367 71C367 69.8954 367.895 69 369 69C370.105 69 371 69.8954 371 71Z" fill="#C0C4CC"/>
<path d="M216.5 71C216.5 74.5899 213.59 77.5 210 77.5C206.41 77.5 203.5 74.5899 203.5 71C203.5 67.4101 206.41 64.5 210 64.5C213.59 64.5 216.5 67.4101 216.5 71Z" fill="white" stroke="#D5D8DE"/>
<path fill-rule="evenodd" clip-rule="evenodd" d="M73 71C73 74.866 69.866 78 66 78C62.134 78 59 74.866 59 71C59 67.134 62.134 64 66 64C69.866 64 73 67.134 73 71ZM68 71C68 72.1046 67.1046 73 66 73C64.8954 73 64 72.1046 64 71C64 69.8954 64.8954 69 66 69C67.1046 69 68 69.8954 68 71Z" fill="#1989FA"/>
<path d="M580.386 74.076C580.742 74.076 581.06 74.016 581.34 73.896C581.62 73.776 581.856 73.608 582.048 73.392C582.244 73.176 582.392 72.918 582.492 72.618C582.596 72.318 582.648 71.988 582.648 71.628V66.402H583.806V71.628C583.806 72.124 583.726 72.584 583.566 73.008C583.41 73.432 583.184 73.8 582.888 74.112C582.596 74.42 582.238 74.662 581.814 74.838C581.39 75.014 580.914 75.102 580.386 75.102C579.858 75.102 579.382 75.014 578.958 74.838C578.534 74.662 578.174 74.42 577.878 74.112C577.582 73.8 577.354 73.432 577.194 73.008C577.038 72.584 576.96 72.124 576.96 71.628V66.402H578.118V71.622C578.118 71.982 578.168 72.312 578.268 72.612C578.372 72.912 578.52 73.17 578.712 73.386C578.908 73.602 579.146 73.772 579.426 73.896C579.71 74.016 580.03 74.076 580.386 74.076ZM585.642 75V68.922H586.278C586.43 68.922 586.526 68.996 586.566 69.144L586.65 69.804C586.914 69.512 587.208 69.276 587.532 69.096C587.86 68.916 588.238 68.826 588.666 68.826C588.998 68.826 589.29 68.882 589.542 68.994C589.798 69.102 590.01 69.258 590.178 69.462C590.35 69.662 590.48 69.904 590.568 70.188C590.656 70.472 590.7 70.786 590.7 71.13V75H589.632V71.13C589.632 70.67 589.526 70.314 589.314 70.062C589.106 69.806 588.786 69.678 588.354 69.678C588.038 69.678 587.742 69.754 587.466 69.906C587.194 70.058 586.942 70.264 586.71 70.524V75H585.642ZM596.456 70.002C596.424 70.046 596.392 70.08 596.36 70.104C596.328 70.128 596.282 70.14 596.222 70.14C596.162 70.14 596.096 70.116 596.024 70.068C595.956 70.016 595.868 69.96 595.76 69.9C595.652 69.84 595.52 69.786 595.364 69.738C595.212 69.686 595.024 69.66 594.8 69.66C594.504 69.66 594.242 69.714 594.014 69.822C593.786 69.926 593.594 70.078 593.438 70.278C593.286 70.478 593.17 70.72 593.09 71.004C593.014 71.288 592.976 71.606 592.976 71.958C592.976 72.326 593.018 72.654 593.102 72.942C593.186 73.226 593.304 73.466 593.456 73.662C593.608 73.854 593.792 74.002 594.008 74.106C594.228 74.206 594.474 74.256 594.746 74.256C595.006 74.256 595.22 74.226 595.388 74.166C595.556 74.102 595.696 74.032 595.808 73.956C595.92 73.88 596.012 73.812 596.084 73.752C596.156 73.688 596.228 73.656 596.3 73.656C596.392 73.656 596.46 73.69 596.504 73.758L596.804 74.148C596.54 74.472 596.21 74.71 595.814 74.862C595.418 75.01 595 75.084 594.56 75.084C594.18 75.084 593.826 75.014 593.498 74.874C593.174 74.734 592.892 74.532 592.652 74.268C592.412 74 592.222 73.672 592.082 73.284C591.946 72.896 591.878 72.454 591.878 71.958C591.878 71.506 591.94 71.088 592.064 70.704C592.192 70.32 592.376 69.99 592.616 69.714C592.86 69.434 593.16 69.216 593.516 69.06C593.872 68.904 594.28 68.826 594.74 68.826C595.164 68.826 595.54 68.896 595.868 69.036C596.196 69.172 596.486 69.366 596.738 69.618L596.456 70.002ZM597.911 75V66.162H598.979V69.738C599.239 69.462 599.527 69.242 599.843 69.078C600.159 68.91 600.523 68.826 600.935 68.826C601.267 68.826 601.559 68.882 601.811 68.994C602.067 69.102 602.279 69.258 602.447 69.462C602.619 69.662 602.749 69.904 602.837 70.188C602.925 70.472 602.969 70.786 602.969 71.13V75H601.901V71.13C601.901 70.67 601.795 70.314 601.583 70.062C601.375 69.806 601.055 69.678 600.623 69.678C600.307 69.678 600.011 69.754 599.735 69.906C599.463 70.058 599.211 70.264 598.979 70.524V75H597.911ZM606.985 68.826C607.349 68.826 607.685 68.888 607.993 69.012C608.301 69.132 608.567 69.308 608.791 69.54C609.015 69.768 609.189 70.052 609.313 70.392C609.441 70.728 609.505 71.112 609.505 71.544C609.505 71.712 609.487 71.824 609.451 71.88C609.415 71.936 609.347 71.964 609.247 71.964H605.203C605.211 72.348 605.263 72.682 605.359 72.966C605.455 73.25 605.587 73.488 605.755 73.68C605.923 73.868 606.123 74.01 606.355 74.106C606.587 74.198 606.847 74.244 607.135 74.244C607.403 74.244 607.633 74.214 607.825 74.154C608.021 74.09 608.189 74.022 608.329 73.95C608.469 73.878 608.585 73.812 608.677 73.752C608.773 73.688 608.855 73.656 608.923 73.656C609.011 73.656 609.079 73.69 609.127 73.758L609.427 74.148C609.295 74.308 609.137 74.448 608.953 74.568C608.769 74.684 608.571 74.78 608.359 74.856C608.151 74.932 607.935 74.988 607.711 75.024C607.487 75.064 607.265 75.084 607.045 75.084C606.625 75.084 606.237 75.014 605.881 74.874C605.529 74.73 605.223 74.522 604.963 74.25C604.707 73.974 604.507 73.634 604.363 73.23C604.219 72.826 604.147 72.362 604.147 71.838C604.147 71.414 604.211 71.018 604.339 70.65C604.471 70.282 604.659 69.964 604.903 69.696C605.147 69.424 605.445 69.212 605.797 69.06C606.149 68.904 606.545 68.826 606.985 68.826ZM607.009 69.612C606.493 69.612 606.087 69.762 605.791 70.062C605.495 70.358 605.311 70.77 605.239 71.298H608.545C608.545 71.05 608.511 70.824 608.443 70.62C608.375 70.412 608.275 70.234 608.143 70.086C608.011 69.934 607.849 69.818 607.657 69.738C607.469 69.654 607.253 69.612 607.009 69.612ZM615.018 70.002C614.986 70.046 614.954 70.08 614.922 70.104C614.89 70.128 614.844 70.14 614.784 70.14C614.724 70.14 614.658 70.116 614.586 70.068C614.518 70.016 614.43 69.96 614.322 69.9C614.214 69.84 614.082 69.786 613.926 69.738C613.774 69.686 613.586 69.66 613.362 69.66C613.066 69.66 612.804 69.714 612.576 69.822C612.348 69.926 612.156 70.078 612 70.278C611.848 70.478 611.732 70.72 611.652 71.004C611.576 71.288 611.538 71.606 611.538 71.958C611.538 72.326 611.58 72.654 611.664 72.942C611.748 73.226 611.866 73.466 612.018 73.662C612.17 73.854 612.354 74.002 612.57 74.106C612.79 74.206 613.036 74.256 613.308 74.256C613.568 74.256 613.782 74.226 613.95 74.166C614.118 74.102 614.258 74.032 614.37 73.956C614.482 73.88 614.574 73.812 614.646 73.752C614.718 73.688 614.79 73.656 614.862 73.656C614.954 73.656 615.022 73.69 615.066 73.758L615.366 74.148C615.102 74.472 614.772 74.71 614.376 74.862C613.98 75.01 613.562 75.084 613.122 75.084C612.742 75.084 612.388 75.014 612.06 74.874C611.736 74.734 611.454 74.532 611.214 74.268C610.974 74 610.784 73.672 610.644 73.284C610.508 72.896 610.44 72.454 610.44 71.958C610.44 71.506 610.502 71.088 610.626 70.704C610.754 70.32 610.938 69.99 611.178 69.714C611.422 69.434 611.722 69.216 612.078 69.06C612.434 68.904 612.842 68.826 613.302 68.826C613.726 68.826 614.102 68.896 614.43 69.036C614.758 69.172 615.048 69.366 615.3 69.618L615.018 70.002ZM617.584 66.162V71.364H617.86C617.94 71.364 618.006 71.354 618.058 71.334C618.11 71.31 618.168 71.264 618.232 71.196L620.152 69.138C620.212 69.074 620.272 69.022 620.332 68.982C620.392 68.942 620.472 68.922 620.572 68.922H621.544L619.306 71.304C619.25 71.372 619.194 71.432 619.138 71.484C619.086 71.536 619.026 71.582 618.958 71.622C619.03 71.67 619.094 71.726 619.15 71.79C619.21 71.85 619.266 71.92 619.318 72L621.694 75H620.734C620.646 75 620.57 74.984 620.506 74.952C620.446 74.916 620.388 74.862 620.332 74.79L618.334 72.3C618.274 72.216 618.214 72.162 618.154 72.138C618.094 72.11 618.004 72.096 617.884 72.096H617.584V75H616.51V66.162H617.584ZM624.809 68.826C625.173 68.826 625.509 68.888 625.817 69.012C626.125 69.132 626.391 69.308 626.615 69.54C626.839 69.768 627.013 70.052 627.137 70.392C627.265 70.728 627.329 71.112 627.329 71.544C627.329 71.712 627.311 71.824 627.275 71.88C627.239 71.936 627.171 71.964 627.071 71.964H623.027C623.035 72.348 623.087 72.682 623.183 72.966C623.279 73.25 623.411 73.488 623.579 73.68C623.747 73.868 623.947 74.01 624.179 74.106C624.411 74.198 624.671 74.244 624.959 74.244C625.227 74.244 625.457 74.214 625.649 74.154C625.845 74.09 626.013 74.022 626.153 73.95C626.293 73.878 626.409 73.812 626.501 73.752C626.597 73.688 626.679 73.656 626.747 73.656C626.835 73.656 626.903 73.69 626.951 73.758L627.251 74.148C627.119 74.308 626.961 74.448 626.777 74.568C626.593 74.684 626.395 74.78 626.183 74.856C625.975 74.932 625.759 74.988 625.535 75.024C625.311 75.064 625.089 75.084 624.869 75.084C624.449 75.084 624.061 75.014 623.705 74.874C623.353 74.73 623.047 74.522 622.787 74.25C622.531 73.974 622.331 73.634 622.187 73.23C622.043 72.826 621.971 72.362 621.971 71.838C621.971 71.414 622.035 71.018 622.163 70.65C622.295 70.282 622.483 69.964 622.727 69.696C622.971 69.424 623.269 69.212 623.621 69.06C623.973 68.904 624.369 68.826 624.809 68.826ZM624.833 69.612C624.317 69.612 623.911 69.762 623.615 70.062C623.319 70.358 623.135 70.77 623.063 71.298H626.369C626.369 71.05 626.335 70.824 626.267 70.62C626.199 70.412 626.099 70.234 625.967 70.086C625.835 69.934 625.673 69.818 625.481 69.738C625.293 69.654 625.077 69.612 624.833 69.612ZM632.974 75C632.822 75 632.726 74.926 632.686 74.778L632.59 74.04C632.33 74.356 632.032 74.61 631.696 74.802C631.364 74.99 630.982 75.084 630.55 75.084C630.202 75.084 629.886 75.018 629.602 74.886C629.318 74.75 629.076 74.552 628.876 74.292C628.676 74.032 628.522 73.708 628.414 73.32C628.306 72.932 628.252 72.486 628.252 71.982C628.252 71.534 628.312 71.118 628.432 70.734C628.552 70.346 628.724 70.01 628.948 69.726C629.176 69.442 629.452 69.22 629.776 69.06C630.1 68.896 630.468 68.814 630.88 68.814C631.252 68.814 631.57 68.878 631.834 69.006C632.098 69.13 632.334 69.306 632.542 69.534V66.162H633.61V75H632.974ZM630.904 74.22C631.252 74.22 631.556 74.14 631.816 73.98C632.08 73.82 632.322 73.594 632.542 73.302V70.362C632.346 70.098 632.13 69.914 631.894 69.81C631.662 69.702 631.404 69.648 631.12 69.648C630.552 69.648 630.116 69.85 629.812 70.254C629.508 70.658 629.356 71.234 629.356 71.982C629.356 72.378 629.39 72.718 629.458 73.002C629.526 73.282 629.626 73.514 629.758 73.698C629.89 73.878 630.052 74.01 630.244 74.094C630.436 74.178 630.656 74.22 630.904 74.22ZM645.34 70.704C645.34 71.348 645.238 71.934 645.034 72.462C644.83 72.99 644.542 73.442 644.17 73.818C643.798 74.194 643.352 74.486 642.832 74.694C642.312 74.898 641.736 75 641.104 75H637.888V66.402H641.104C641.736 66.402 642.312 66.506 642.832 66.714C643.352 66.918 643.798 67.21 644.17 67.59C644.542 67.966 644.83 68.418 645.034 68.946C645.238 69.474 645.34 70.06 645.34 70.704ZM644.146 70.704C644.146 70.176 644.074 69.704 643.93 69.288C643.786 68.872 643.582 68.52 643.318 68.232C643.054 67.944 642.734 67.724 642.358 67.572C641.982 67.42 641.564 67.344 641.104 67.344H639.058V74.058H641.104C641.564 74.058 641.982 73.982 642.358 73.83C642.734 73.678 643.054 73.46 643.318 73.176C643.582 72.888 643.786 72.536 643.93 72.12C644.074 71.704 644.146 71.232 644.146 70.704ZM647.943 68.922V75H646.875V68.922H647.943ZM648.183 67.014C648.183 67.118 648.161 67.216 648.117 67.308C648.077 67.396 648.021 67.476 647.949 67.548C647.881 67.616 647.801 67.67 647.709 67.71C647.617 67.75 647.519 67.77 647.415 67.77C647.311 67.77 647.213 67.75 647.121 67.71C647.033 67.67 646.953 67.616 646.881 67.548C646.813 67.476 646.759 67.396 646.719 67.308C646.679 67.216 646.659 67.118 646.659 67.014C646.659 66.91 646.679 66.812 646.719 66.72C646.759 66.624 646.813 66.542 646.881 66.474C646.953 66.402 647.033 66.346 647.121 66.306C647.213 66.266 647.311 66.246 647.415 66.246C647.519 66.246 647.617 66.266 647.709 66.306C647.801 66.346 647.881 66.402 647.949 66.474C648.021 66.542 648.077 66.624 648.117 66.72C648.161 66.812 648.183 66.91 648.183 67.014ZM653.305 69.924C653.257 70.012 653.183 70.056 653.083 70.056C653.023 70.056 652.955 70.034 652.879 69.99C652.803 69.946 652.709 69.898 652.597 69.846C652.489 69.79 652.359 69.74 652.207 69.696C652.055 69.648 651.875 69.624 651.667 69.624C651.487 69.624 651.325 69.648 651.181 69.696C651.037 69.74 650.913 69.802 650.809 69.882C650.709 69.962 650.631 70.056 650.575 70.164C650.523 70.268 650.497 70.382 650.497 70.506C650.497 70.662 650.541 70.792 650.629 70.896C650.721 71 650.841 71.09 650.989 71.166C651.137 71.242 651.305 71.31 651.493 71.37C651.681 71.426 651.873 71.488 652.069 71.556C652.269 71.62 652.463 71.692 652.651 71.772C652.839 71.852 653.007 71.952 653.155 72.072C653.303 72.192 653.421 72.34 653.509 72.516C653.601 72.688 653.647 72.896 653.647 73.14C653.647 73.42 653.597 73.68 653.497 73.92C653.397 74.156 653.249 74.362 653.053 74.538C652.857 74.71 652.617 74.846 652.333 74.946C652.049 75.046 651.721 75.096 651.349 75.096C650.925 75.096 650.541 75.028 650.197 74.892C649.853 74.752 649.561 74.574 649.321 74.358L649.573 73.95C649.605 73.898 649.643 73.858 649.687 73.83C649.731 73.802 649.789 73.788 649.861 73.788C649.933 73.788 650.009 73.816 650.089 73.872C650.169 73.928 650.265 73.99 650.377 74.058C650.493 74.126 650.631 74.188 650.791 74.244C650.955 74.3 651.159 74.328 651.403 74.328C651.611 74.328 651.793 74.302 651.949 74.25C652.105 74.194 652.235 74.12 652.339 74.028C652.443 73.936 652.519 73.83 652.567 73.71C652.619 73.59 652.645 73.462 652.645 73.326C652.645 73.158 652.599 73.02 652.507 72.912C652.419 72.8 652.301 72.706 652.153 72.63C652.005 72.55 651.835 72.482 651.643 72.426C651.455 72.366 651.261 72.304 651.061 72.24C650.865 72.176 650.671 72.104 650.479 72.024C650.291 71.94 650.123 71.836 649.975 71.712C649.827 71.588 649.707 71.436 649.615 71.256C649.527 71.072 649.483 70.85 649.483 70.59C649.483 70.358 649.531 70.136 649.627 69.924C649.723 69.708 649.863 69.52 650.047 69.36C650.231 69.196 650.457 69.066 650.725 68.97C650.993 68.874 651.299 68.826 651.643 68.826C652.043 68.826 652.401 68.89 652.717 69.018C653.037 69.142 653.313 69.314 653.545 69.534L653.305 69.924ZM659.492 75H659.018C658.914 75 658.83 74.984 658.766 74.952C658.702 74.92 658.66 74.852 658.64 74.748L658.52 74.184C658.36 74.328 658.204 74.458 658.052 74.574C657.9 74.686 657.74 74.782 657.572 74.862C657.404 74.938 657.224 74.996 657.032 75.036C656.844 75.076 656.634 75.096 656.402 75.096C656.166 75.096 655.944 75.064 655.736 75C655.532 74.932 655.354 74.832 655.202 74.7C655.05 74.568 654.928 74.402 654.836 74.202C654.748 73.998 654.704 73.758 654.704 73.482C654.704 73.242 654.77 73.012 654.902 72.792C655.034 72.568 655.246 72.37 655.538 72.198C655.834 72.026 656.22 71.886 656.696 71.778C657.172 71.666 657.754 71.602 658.442 71.586V71.112C658.442 70.64 658.34 70.284 658.136 70.044C657.936 69.8 657.638 69.678 657.242 69.678C656.982 69.678 656.762 69.712 656.582 69.78C656.406 69.844 656.252 69.918 656.12 70.002C655.992 70.082 655.88 70.156 655.784 70.224C655.692 70.288 655.6 70.32 655.508 70.32C655.436 70.32 655.372 70.302 655.316 70.266C655.264 70.226 655.222 70.178 655.19 70.122L654.998 69.78C655.334 69.456 655.696 69.214 656.084 69.054C656.472 68.894 656.902 68.814 657.374 68.814C657.714 68.814 658.016 68.87 658.28 68.982C658.544 69.094 658.766 69.25 658.946 69.45C659.126 69.65 659.262 69.892 659.354 70.176C659.446 70.46 659.492 70.772 659.492 71.112V75ZM656.72 74.346C656.908 74.346 657.08 74.328 657.236 74.292C657.392 74.252 657.538 74.198 657.674 74.13C657.814 74.058 657.946 73.972 658.07 73.872C658.198 73.772 658.322 73.658 658.442 73.53V72.264C657.95 72.28 657.532 72.32 657.188 72.384C656.844 72.444 656.564 72.524 656.348 72.624C656.132 72.724 655.974 72.842 655.874 72.978C655.778 73.114 655.73 73.266 655.73 73.434C655.73 73.594 655.756 73.732 655.808 73.848C655.86 73.964 655.93 74.06 656.018 74.136C656.106 74.208 656.21 74.262 656.33 74.298C656.45 74.33 656.58 74.346 656.72 74.346ZM661.146 75V66.162H662.22V69.798C662.472 69.506 662.76 69.272 663.084 69.096C663.412 68.916 663.786 68.826 664.206 68.826C664.558 68.826 664.876 68.892 665.16 69.024C665.444 69.156 665.686 69.354 665.886 69.618C666.086 69.878 666.24 70.202 666.348 70.59C666.456 70.974 666.51 71.418 666.51 71.922C666.51 72.37 666.45 72.788 666.33 73.176C666.21 73.56 666.036 73.894 665.808 74.178C665.584 74.458 665.308 74.68 664.98 74.844C664.656 75.004 664.29 75.084 663.882 75.084C663.49 75.084 663.156 75.008 662.88 74.856C662.608 74.704 662.37 74.492 662.166 74.22L662.112 74.772C662.08 74.924 661.988 75 661.836 75H661.146ZM663.858 69.678C663.51 69.678 663.204 69.758 662.94 69.918C662.68 70.078 662.44 70.304 662.22 70.596V73.536C662.412 73.8 662.624 73.986 662.856 74.094C663.092 74.202 663.354 74.256 663.642 74.256C664.21 74.256 664.646 74.054 664.95 73.65C665.254 73.246 665.406 72.67 665.406 71.922C665.406 71.526 665.37 71.186 665.298 70.902C665.23 70.618 665.13 70.386 664.998 70.206C664.866 70.022 664.704 69.888 664.512 69.804C664.32 69.72 664.102 69.678 663.858 69.678ZM669.002 66.162V75H667.934V66.162H669.002ZM673.29 68.826C673.654 68.826 673.99 68.888 674.298 69.012C674.606 69.132 674.872 69.308 675.096 69.54C675.32 69.768 675.494 70.052 675.618 70.392C675.746 70.728 675.81 71.112 675.81 71.544C675.81 71.712 675.792 71.824 675.756 71.88C675.72 71.936 675.652 71.964 675.552 71.964H671.508C671.516 72.348 671.568 72.682 671.664 72.966C671.76 73.25 671.892 73.488 672.06 73.68C672.228 73.868 672.428 74.01 672.66 74.106C672.892 74.198 673.152 74.244 673.44 74.244C673.708 74.244 673.938 74.214 674.13 74.154C674.326 74.09 674.494 74.022 674.634 73.95C674.774 73.878 674.89 73.812 674.982 73.752C675.078 73.688 675.16 73.656 675.228 73.656C675.316 73.656 675.384 73.69 675.432 73.758L675.732 74.148C675.6 74.308 675.442 74.448 675.258 74.568C675.074 74.684 674.876 74.78 674.664 74.856C674.456 74.932 674.24 74.988 674.016 75.024C673.792 75.064 673.57 75.084 673.35 75.084C672.93 75.084 672.542 75.014 672.186 74.874C671.834 74.73 671.528 74.522 671.268 74.25C671.012 73.974 670.812 73.634 670.668 73.23C670.524 72.826 670.452 72.362 670.452 71.838C670.452 71.414 670.516 71.018 670.644 70.65C670.776 70.282 670.964 69.964 671.208 69.696C671.452 69.424 671.75 69.212 672.102 69.06C672.454 68.904 672.85 68.826 673.29 68.826ZM673.314 69.612C672.798 69.612 672.392 69.762 672.096 70.062C671.8 70.358 671.616 70.77 671.544 71.298H674.85C674.85 71.05 674.816 70.824 674.748 70.62C674.68 70.412 674.58 70.234 674.448 70.086C674.316 69.934 674.154 69.818 673.962 69.738C673.774 69.654 673.558 69.612 673.314 69.612Z" fill="#E9EAEB"/>
<path d="M88.104 73.224C88.168 73.224 88.226 73.25 88.278 73.302L88.734 73.8C88.382 74.208 87.954 74.526 87.45 74.754C86.95 74.982 86.346 75.096 85.638 75.096C85.018 75.096 84.456 74.99 83.952 74.778C83.448 74.562 83.018 74.262 82.662 73.878C82.306 73.49 82.03 73.026 81.834 72.486C81.638 71.946 81.54 71.352 81.54 70.704C81.54 70.056 81.644 69.462 81.852 68.922C82.064 68.382 82.36 67.918 82.74 67.53C83.12 67.142 83.574 66.842 84.102 66.63C84.634 66.414 85.22 66.306 85.86 66.306C86.492 66.306 87.036 66.404 87.492 66.6C87.952 66.796 88.36 67.062 88.716 67.398L88.338 67.932C88.31 67.972 88.278 68.006 88.242 68.034C88.206 68.058 88.154 68.07 88.086 68.07C88.034 68.07 87.978 68.052 87.918 68.016C87.862 67.976 87.794 67.928 87.714 67.872C87.634 67.816 87.54 67.756 87.432 67.692C87.324 67.628 87.196 67.568 87.048 67.512C86.9 67.456 86.728 67.41 86.532 67.374C86.336 67.334 86.11 67.314 85.854 67.314C85.394 67.314 84.972 67.394 84.588 67.554C84.208 67.71 83.88 67.934 83.604 68.226C83.328 68.518 83.112 68.874 82.956 69.294C82.804 69.714 82.728 70.184 82.728 70.704C82.728 71.24 82.804 71.718 82.956 72.138C83.112 72.558 83.322 72.914 83.586 73.206C83.854 73.494 84.17 73.714 84.534 73.866C84.898 74.018 85.29 74.094 85.71 74.094C85.966 74.094 86.196 74.08 86.4 74.052C86.604 74.02 86.792 73.972 86.964 73.908C87.14 73.844 87.302 73.764 87.45 73.668C87.602 73.568 87.754 73.45 87.906 73.314C87.974 73.254 88.04 73.224 88.104 73.224ZM90.0908 75V66.162H91.1588V69.738C91.4188 69.462 91.7068 69.242 92.0228 69.078C92.3388 68.91 92.7028 68.826 93.1148 68.826C93.4468 68.826 93.7388 68.882 93.9908 68.994C94.2468 69.102 94.4588 69.258 94.6268 69.462C94.7988 69.662 94.9288 69.904 95.0168 70.188C95.1048 70.472 95.1488 70.786 95.1488 71.13V75H94.0808V71.13C94.0808 70.67 93.9748 70.314 93.7628 70.062C93.5548 69.806 93.2348 69.678 92.8028 69.678C92.4868 69.678 92.1908 69.754 91.9148 69.906C91.6428 70.058 91.3908 70.264 91.1588 70.524V75H90.0908ZM99.1648 68.826C99.5288 68.826 99.8648 68.888 100.173 69.012C100.481 69.132 100.747 69.308 100.971 69.54C101.195 69.768 101.369 70.052 101.493 70.392C101.621 70.728 101.685 71.112 101.685 71.544C101.685 71.712 101.667 71.824 101.631 71.88C101.595 71.936 101.527 71.964 101.427 71.964H97.3828C97.3908 72.348 97.4428 72.682 97.5388 72.966C97.6348 73.25 97.7668 73.488 97.9348 73.68C98.1028 73.868 98.3028 74.01 98.5348 74.106C98.7668 74.198 99.0268 74.244 99.3148 74.244C99.5828 74.244 99.8128 74.214 100.005 74.154C100.201 74.09 100.369 74.022 100.509 73.95C100.649 73.878 100.765 73.812 100.857 73.752C100.953 73.688 101.035 73.656 101.103 73.656C101.191 73.656 101.259 73.69 101.307 73.758L101.607 74.148C101.475 74.308 101.317 74.448 101.133 74.568C100.949 74.684 100.751 74.78 100.539 74.856C100.331 74.932 100.115 74.988 99.8908 75.024C99.6668 75.064 99.4448 75.084 99.2248 75.084C98.8048 75.084 98.4168 75.014 98.0608 74.874C97.7088 74.73 97.4028 74.522 97.1428 74.25C96.8868 73.974 96.6868 73.634 96.5428 73.23C96.3988 72.826 96.3268 72.362 96.3268 71.838C96.3268 71.414 96.3908 71.018 96.5188 70.65C96.6508 70.282 96.8388 69.964 97.0828 69.696C97.3268 69.424 97.6248 69.212 97.9768 69.06C98.3288 68.904 98.7248 68.826 99.1648 68.826ZM99.1888 69.612C98.6728 69.612 98.2668 69.762 97.9708 70.062C97.6748 70.358 97.4908 70.77 97.4188 71.298H100.725C100.725 71.05 100.691 70.824 100.623 70.62C100.555 70.412 100.455 70.234 100.323 70.086C100.191 69.934 100.029 69.818 99.8368 69.738C99.6488 69.654 99.4328 69.612 99.1888 69.612ZM107.198 70.002C107.166 70.046 107.134 70.08 107.102 70.104C107.07 70.128 107.024 70.14 106.964 70.14C106.904 70.14 106.838 70.116 106.766 70.068C106.698 70.016 106.61 69.96 106.502 69.9C106.394 69.84 106.262 69.786 106.106 69.738C105.954 69.686 105.766 69.66 105.542 69.66C105.246 69.66 104.984 69.714 104.756 69.822C104.528 69.926 104.336 70.078 104.18 70.278C104.028 70.478 103.912 70.72 103.832 71.004C103.756 71.288 103.718 71.606 103.718 71.958C103.718 72.326 103.76 72.654 103.844 72.942C103.928 73.226 104.046 73.466 104.198 73.662C104.35 73.854 104.534 74.002 104.75 74.106C104.97 74.206 105.216 74.256 105.488 74.256C105.748 74.256 105.962 74.226 106.13 74.166C106.298 74.102 106.438 74.032 106.55 73.956C106.662 73.88 106.754 73.812 106.826 73.752C106.898 73.688 106.97 73.656 107.042 73.656C107.134 73.656 107.202 73.69 107.246 73.758L107.546 74.148C107.282 74.472 106.952 74.71 106.556 74.862C106.16 75.01 105.742 75.084 105.302 75.084C104.922 75.084 104.568 75.014 104.24 74.874C103.916 74.734 103.634 74.532 103.394 74.268C103.154 74 102.964 73.672 102.824 73.284C102.688 72.896 102.62 72.454 102.62 71.958C102.62 71.506 102.682 71.088 102.806 70.704C102.934 70.32 103.118 69.99 103.358 69.714C103.602 69.434 103.902 69.216 104.258 69.06C104.614 68.904 105.022 68.826 105.482 68.826C105.906 68.826 106.282 68.896 106.61 69.036C106.938 69.172 107.228 69.366 107.48 69.618L107.198 70.002ZM109.763 66.162V71.364H110.039C110.119 71.364 110.185 71.354 110.237 71.334C110.289 71.31 110.347 71.264 110.411 71.196L112.331 69.138C112.391 69.074 112.451 69.022 112.511 68.982C112.571 68.942 112.651 68.922 112.751 68.922H113.723L111.485 71.304C111.429 71.372 111.373 71.432 111.317 71.484C111.265 71.536 111.205 71.582 111.137 71.622C111.209 71.67 111.273 71.726 111.329 71.79C111.389 71.85 111.445 71.92 111.497 72L113.873 75H112.913C112.825 75 112.749 74.984 112.685 74.952C112.625 74.916 112.567 74.862 112.511 74.79L110.513 72.3C110.453 72.216 110.393 72.162 110.333 72.138C110.273 72.11 110.183 72.096 110.063 72.096H109.763V75H108.689V66.162H109.763ZM116.989 68.826C117.353 68.826 117.689 68.888 117.997 69.012C118.305 69.132 118.571 69.308 118.795 69.54C119.019 69.768 119.193 70.052 119.317 70.392C119.445 70.728 119.509 71.112 119.509 71.544C119.509 71.712 119.491 71.824 119.455 71.88C119.419 71.936 119.351 71.964 119.251 71.964H115.207C115.215 72.348 115.267 72.682 115.363 72.966C115.459 73.25 115.591 73.488 115.759 73.68C115.927 73.868 116.127 74.01 116.359 74.106C116.591 74.198 116.851 74.244 117.139 74.244C117.407 74.244 117.637 74.214 117.829 74.154C118.025 74.09 118.193 74.022 118.333 73.95C118.473 73.878 118.589 73.812 118.681 73.752C118.777 73.688 118.859 73.656 118.927 73.656C119.015 73.656 119.083 73.69 119.131 73.758L119.431 74.148C119.299 74.308 119.141 74.448 118.957 74.568C118.773 74.684 118.575 74.78 118.363 74.856C118.155 74.932 117.939 74.988 117.715 75.024C117.491 75.064 117.269 75.084 117.049 75.084C116.629 75.084 116.241 75.014 115.885 74.874C115.533 74.73 115.227 74.522 114.967 74.25C114.711 73.974 114.511 73.634 114.367 73.23C114.223 72.826 114.151 72.362 114.151 71.838C114.151 71.414 114.215 71.018 114.343 70.65C114.475 70.282 114.663 69.964 114.907 69.696C115.151 69.424 115.449 69.212 115.801 69.06C116.153 68.904 116.549 68.826 116.989 68.826ZM117.013 69.612C116.497 69.612 116.091 69.762 115.795 70.062C115.499 70.358 115.315 70.77 115.243 71.298H118.549C118.549 71.05 118.515 70.824 118.447 70.62C118.379 70.412 118.279 70.234 118.147 70.086C118.015 69.934 117.853 69.818 117.661 69.738C117.473 69.654 117.257 69.612 117.013 69.612ZM125.154 75C125.002 75 124.906 74.926 124.866 74.778L124.77 74.04C124.51 74.356 124.212 74.61 123.876 74.802C123.544 74.99 123.162 75.084 122.73 75.084C122.382 75.084 122.066 75.018 121.782 74.886C121.498 74.75 121.256 74.552 121.056 74.292C120.856 74.032 120.702 73.708 120.594 73.32C120.486 72.932 120.432 72.486 120.432 71.982C120.432 71.534 120.492 71.118 120.612 70.734C120.732 70.346 120.904 70.01 121.128 69.726C121.356 69.442 121.632 69.22 121.956 69.06C122.28 68.896 122.648 68.814 123.06 68.814C123.432 68.814 123.75 68.878 124.014 69.006C124.278 69.13 124.514 69.306 124.722 69.534V66.162H125.79V75H125.154ZM123.084 74.22C123.432 74.22 123.736 74.14 123.996 73.98C124.26 73.82 124.502 73.594 124.722 73.302V70.362C124.526 70.098 124.31 69.914 124.074 69.81C123.842 69.702 123.584 69.648 123.3 69.648C122.732 69.648 122.296 69.85 121.992 70.254C121.688 70.658 121.536 71.234 121.536 71.982C121.536 72.378 121.57 72.718 121.638 73.002C121.706 73.282 121.806 73.514 121.938 73.698C122.07 73.878 122.232 74.01 122.424 74.094C122.616 74.178 122.836 74.22 123.084 74.22Z" fill="#279FF6"/>
<path d="M231.386 74.076C231.742 74.076 232.06 74.016 232.34 73.896C232.62 73.776 232.856 73.608 233.048 73.392C233.244 73.176 233.392 72.918 233.492 72.618C233.596 72.318 233.648 71.988 233.648 71.628V66.402H234.806V71.628C234.806 72.124 234.726 72.584 234.566 73.008C234.41 73.432 234.184 73.8 233.888 74.112C233.596 74.42 233.238 74.662 232.814 74.838C232.39 75.014 231.914 75.102 231.386 75.102C230.858 75.102 230.382 75.014 229.958 74.838C229.534 74.662 229.174 74.42 228.878 74.112C228.582 73.8 228.354 73.432 228.194 73.008C228.038 72.584 227.96 72.124 227.96 71.628V66.402H229.118V71.622C229.118 71.982 229.168 72.312 229.268 72.612C229.372 72.912 229.52 73.17 229.712 73.386C229.908 73.602 230.146 73.772 230.426 73.896C230.71 74.016 231.03 74.076 231.386 74.076ZM236.642 75V68.922H237.278C237.43 68.922 237.526 68.996 237.566 69.144L237.65 69.804C237.914 69.512 238.208 69.276 238.532 69.096C238.86 68.916 239.238 68.826 239.666 68.826C239.998 68.826 240.29 68.882 240.542 68.994C240.798 69.102 241.01 69.258 241.178 69.462C241.35 69.662 241.48 69.904 241.568 70.188C241.656 70.472 241.7 70.786 241.7 71.13V75H240.632V71.13C240.632 70.67 240.526 70.314 240.314 70.062C240.106 69.806 239.786 69.678 239.354 69.678C239.038 69.678 238.742 69.754 238.466 69.906C238.194 70.058 237.942 70.264 237.71 70.524V75H236.642ZM247.456 70.002C247.424 70.046 247.392 70.08 247.36 70.104C247.328 70.128 247.282 70.14 247.222 70.14C247.162 70.14 247.096 70.116 247.024 70.068C246.956 70.016 246.868 69.96 246.76 69.9C246.652 69.84 246.52 69.786 246.364 69.738C246.212 69.686 246.024 69.66 245.8 69.66C245.504 69.66 245.242 69.714 245.014 69.822C244.786 69.926 244.594 70.078 244.438 70.278C244.286 70.478 244.17 70.72 244.09 71.004C244.014 71.288 243.976 71.606 243.976 71.958C243.976 72.326 244.018 72.654 244.102 72.942C244.186 73.226 244.304 73.466 244.456 73.662C244.608 73.854 244.792 74.002 245.008 74.106C245.228 74.206 245.474 74.256 245.746 74.256C246.006 74.256 246.22 74.226 246.388 74.166C246.556 74.102 246.696 74.032 246.808 73.956C246.92 73.88 247.012 73.812 247.084 73.752C247.156 73.688 247.228 73.656 247.3 73.656C247.392 73.656 247.46 73.69 247.504 73.758L247.804 74.148C247.54 74.472 247.21 74.71 246.814 74.862C246.418 75.01 246 75.084 245.56 75.084C245.18 75.084 244.826 75.014 244.498 74.874C244.174 74.734 243.892 74.532 243.652 74.268C243.412 74 243.222 73.672 243.082 73.284C242.946 72.896 242.878 72.454 242.878 71.958C242.878 71.506 242.94 71.088 243.064 70.704C243.192 70.32 243.376 69.99 243.616 69.714C243.86 69.434 244.16 69.216 244.516 69.06C244.872 68.904 245.28 68.826 245.74 68.826C246.164 68.826 246.54 68.896 246.868 69.036C247.196 69.172 247.486 69.366 247.738 69.618L247.456 70.002ZM248.911 75V66.162H249.979V69.738C250.239 69.462 250.527 69.242 250.843 69.078C251.159 68.91 251.523 68.826 251.935 68.826C252.267 68.826 252.559 68.882 252.811 68.994C253.067 69.102 253.279 69.258 253.447 69.462C253.619 69.662 253.749 69.904 253.837 70.188C253.925 70.472 253.969 70.786 253.969 71.13V75H252.901V71.13C252.901 70.67 252.795 70.314 252.583 70.062C252.375 69.806 252.055 69.678 251.623 69.678C251.307 69.678 251.011 69.754 250.735 69.906C250.463 70.058 250.211 70.264 249.979 70.524V75H248.911ZM257.985 68.826C258.349 68.826 258.685 68.888 258.993 69.012C259.301 69.132 259.567 69.308 259.791 69.54C260.015 69.768 260.189 70.052 260.313 70.392C260.441 70.728 260.505 71.112 260.505 71.544C260.505 71.712 260.487 71.824 260.451 71.88C260.415 71.936 260.347 71.964 260.247 71.964H256.203C256.211 72.348 256.263 72.682 256.359 72.966C256.455 73.25 256.587 73.488 256.755 73.68C256.923 73.868 257.123 74.01 257.355 74.106C257.587 74.198 257.847 74.244 258.135 74.244C258.403 74.244 258.633 74.214 258.825 74.154C259.021 74.09 259.189 74.022 259.329 73.95C259.469 73.878 259.585 73.812 259.677 73.752C259.773 73.688 259.855 73.656 259.923 73.656C260.011 73.656 260.079 73.69 260.127 73.758L260.427 74.148C260.295 74.308 260.137 74.448 259.953 74.568C259.769 74.684 259.571 74.78 259.359 74.856C259.151 74.932 258.935 74.988 258.711 75.024C258.487 75.064 258.265 75.084 258.045 75.084C257.625 75.084 257.237 75.014 256.881 74.874C256.529 74.73 256.223 74.522 255.963 74.25C255.707 73.974 255.507 73.634 255.363 73.23C255.219 72.826 255.147 72.362 255.147 71.838C255.147 71.414 255.211 71.018 255.339 70.65C255.471 70.282 255.659 69.964 255.903 69.696C256.147 69.424 256.445 69.212 256.797 69.06C257.149 68.904 257.545 68.826 257.985 68.826ZM258.009 69.612C257.493 69.612 257.087 69.762 256.791 70.062C256.495 70.358 256.311 70.77 256.239 71.298H259.545C259.545 71.05 259.511 70.824 259.443 70.62C259.375 70.412 259.275 70.234 259.143 70.086C259.011 69.934 258.849 69.818 258.657 69.738C258.469 69.654 258.253 69.612 258.009 69.612ZM266.018 70.002C265.986 70.046 265.954 70.08 265.922 70.104C265.89 70.128 265.844 70.14 265.784 70.14C265.724 70.14 265.658 70.116 265.586 70.068C265.518 70.016 265.43 69.96 265.322 69.9C265.214 69.84 265.082 69.786 264.926 69.738C264.774 69.686 264.586 69.66 264.362 69.66C264.066 69.66 263.804 69.714 263.576 69.822C263.348 69.926 263.156 70.078 263 70.278C262.848 70.478 262.732 70.72 262.652 71.004C262.576 71.288 262.538 71.606 262.538 71.958C262.538 72.326 262.58 72.654 262.664 72.942C262.748 73.226 262.866 73.466 263.018 73.662C263.17 73.854 263.354 74.002 263.57 74.106C263.79 74.206 264.036 74.256 264.308 74.256C264.568 74.256 264.782 74.226 264.95 74.166C265.118 74.102 265.258 74.032 265.37 73.956C265.482 73.88 265.574 73.812 265.646 73.752C265.718 73.688 265.79 73.656 265.862 73.656C265.954 73.656 266.022 73.69 266.066 73.758L266.366 74.148C266.102 74.472 265.772 74.71 265.376 74.862C264.98 75.01 264.562 75.084 264.122 75.084C263.742 75.084 263.388 75.014 263.06 74.874C262.736 74.734 262.454 74.532 262.214 74.268C261.974 74 261.784 73.672 261.644 73.284C261.508 72.896 261.44 72.454 261.44 71.958C261.44 71.506 261.502 71.088 261.626 70.704C261.754 70.32 261.938 69.99 262.178 69.714C262.422 69.434 262.722 69.216 263.078 69.06C263.434 68.904 263.842 68.826 264.302 68.826C264.726 68.826 265.102 68.896 265.43 69.036C265.758 69.172 266.048 69.366 266.3 69.618L266.018 70.002ZM268.584 66.162V71.364H268.86C268.94 71.364 269.006 71.354 269.058 71.334C269.11 71.31 269.168 71.264 269.232 71.196L271.152 69.138C271.212 69.074 271.272 69.022 271.332 68.982C271.392 68.942 271.472 68.922 271.572 68.922H272.544L270.306 71.304C270.25 71.372 270.194 71.432 270.138 71.484C270.086 71.536 270.026 71.582 269.958 71.622C270.03 71.67 270.094 71.726 270.15 71.79C270.21 71.85 270.266 71.92 270.318 72L272.694 75H271.734C271.646 75 271.57 74.984 271.506 74.952C271.446 74.916 271.388 74.862 271.332 74.79L269.334 72.3C269.274 72.216 269.214 72.162 269.154 72.138C269.094 72.11 269.004 72.096 268.884 72.096H268.584V75H267.51V66.162H268.584ZM275.809 68.826C276.173 68.826 276.509 68.888 276.817 69.012C277.125 69.132 277.391 69.308 277.615 69.54C277.839 69.768 278.013 70.052 278.137 70.392C278.265 70.728 278.329 71.112 278.329 71.544C278.329 71.712 278.311 71.824 278.275 71.88C278.239 71.936 278.171 71.964 278.071 71.964H274.027C274.035 72.348 274.087 72.682 274.183 72.966C274.279 73.25 274.411 73.488 274.579 73.68C274.747 73.868 274.947 74.01 275.179 74.106C275.411 74.198 275.671 74.244 275.959 74.244C276.227 74.244 276.457 74.214 276.649 74.154C276.845 74.09 277.013 74.022 277.153 73.95C277.293 73.878 277.409 73.812 277.501 73.752C277.597 73.688 277.679 73.656 277.747 73.656C277.835 73.656 277.903 73.69 277.951 73.758L278.251 74.148C278.119 74.308 277.961 74.448 277.777 74.568C277.593 74.684 277.395 74.78 277.183 74.856C276.975 74.932 276.759 74.988 276.535 75.024C276.311 75.064 276.089 75.084 275.869 75.084C275.449 75.084 275.061 75.014 274.705 74.874C274.353 74.73 274.047 74.522 273.787 74.25C273.531 73.974 273.331 73.634 273.187 73.23C273.043 72.826 272.971 72.362 272.971 71.838C272.971 71.414 273.035 71.018 273.163 70.65C273.295 70.282 273.483 69.964 273.727 69.696C273.971 69.424 274.269 69.212 274.621 69.06C274.973 68.904 275.369 68.826 275.809 68.826ZM275.833 69.612C275.317 69.612 274.911 69.762 274.615 70.062C274.319 70.358 274.135 70.77 274.063 71.298H277.369C277.369 71.05 277.335 70.824 277.267 70.62C277.199 70.412 277.099 70.234 276.967 70.086C276.835 69.934 276.673 69.818 276.481 69.738C276.293 69.654 276.077 69.612 275.833 69.612ZM283.974 75C283.822 75 283.726 74.926 283.686 74.778L283.59 74.04C283.33 74.356 283.032 74.61 282.696 74.802C282.364 74.99 281.982 75.084 281.55 75.084C281.202 75.084 280.886 75.018 280.602 74.886C280.318 74.75 280.076 74.552 279.876 74.292C279.676 74.032 279.522 73.708 279.414 73.32C279.306 72.932 279.252 72.486 279.252 71.982C279.252 71.534 279.312 71.118 279.432 70.734C279.552 70.346 279.724 70.01 279.948 69.726C280.176 69.442 280.452 69.22 280.776 69.06C281.1 68.896 281.468 68.814 281.88 68.814C282.252 68.814 282.57 68.878 282.834 69.006C283.098 69.13 283.334 69.306 283.542 69.534V66.162H284.61V75H283.974ZM281.904 74.22C282.252 74.22 282.556 74.14 282.816 73.98C283.08 73.82 283.322 73.594 283.542 73.302V70.362C283.346 70.098 283.13 69.914 282.894 69.81C282.662 69.702 282.404 69.648 282.12 69.648C281.552 69.648 281.116 69.85 280.812 70.254C280.508 70.658 280.356 71.234 280.356 71.982C280.356 72.378 280.39 72.718 280.458 73.002C280.526 73.282 280.626 73.514 280.758 73.698C280.89 73.878 281.052 74.01 281.244 74.094C281.436 74.178 281.656 74.22 281.904 74.22Z" fill="#6E737A"/>
<path d="M394.104 73.224C394.168 73.224 394.226 73.25 394.278 73.302L394.734 73.8C394.382 74.208 393.954 74.526 393.45 74.754C392.95 74.982 392.346 75.096 391.638 75.096C391.018 75.096 390.456 74.99 389.952 74.778C389.448 74.562 389.018 74.262 388.662 73.878C388.306 73.49 388.03 73.026 387.834 72.486C387.638 71.946 387.54 71.352 387.54 70.704C387.54 70.056 387.644 69.462 387.852 68.922C388.064 68.382 388.36 67.918 388.74 67.53C389.12 67.142 389.574 66.842 390.102 66.63C390.634 66.414 391.22 66.306 391.86 66.306C392.492 66.306 393.036 66.404 393.492 66.6C393.952 66.796 394.36 67.062 394.716 67.398L394.338 67.932C394.31 67.972 394.278 68.006 394.242 68.034C394.206 68.058 394.154 68.07 394.086 68.07C394.034 68.07 393.978 68.052 393.918 68.016C393.862 67.976 393.794 67.928 393.714 67.872C393.634 67.816 393.54 67.756 393.432 67.692C393.324 67.628 393.196 67.568 393.048 67.512C392.9 67.456 392.728 67.41 392.532 67.374C392.336 67.334 392.11 67.314 391.854 67.314C391.394 67.314 390.972 67.394 390.588 67.554C390.208 67.71 389.88 67.934 389.604 68.226C389.328 68.518 389.112 68.874 388.956 69.294C388.804 69.714 388.728 70.184 388.728 70.704C388.728 71.24 388.804 71.718 388.956 72.138C389.112 72.558 389.322 72.914 389.586 73.206C389.854 73.494 390.17 73.714 390.534 73.866C390.898 74.018 391.29 74.094 391.71 74.094C391.966 74.094 392.196 74.08 392.4 74.052C392.604 74.02 392.792 73.972 392.964 73.908C393.14 73.844 393.302 73.764 393.45 73.668C393.602 73.568 393.754 73.45 393.906 73.314C393.974 73.254 394.04 73.224 394.104 73.224ZM396.091 75V66.162H397.159V69.738C397.419 69.462 397.707 69.242 398.023 69.078C398.339 68.91 398.703 68.826 399.115 68.826C399.447 68.826 399.739 68.882 399.991 68.994C400.247 69.102 400.459 69.258 400.627 69.462C400.799 69.662 400.929 69.904 401.017 70.188C401.105 70.472 401.149 70.786 401.149 71.13V75H400.081V71.13C400.081 70.67 399.975 70.314 399.763 70.062C399.555 69.806 399.235 69.678 398.803 69.678C398.487 69.678 398.191 69.754 397.915 69.906C397.643 70.058 397.391 70.264 397.159 70.524V75H396.091ZM405.165 68.826C405.529 68.826 405.865 68.888 406.173 69.012C406.481 69.132 406.747 69.308 406.971 69.54C407.195 69.768 407.369 70.052 407.493 70.392C407.621 70.728 407.685 71.112 407.685 71.544C407.685 71.712 407.667 71.824 407.631 71.88C407.595 71.936 407.527 71.964 407.427 71.964H403.383C403.391 72.348 403.443 72.682 403.539 72.966C403.635 73.25 403.767 73.488 403.935 73.68C404.103 73.868 404.303 74.01 404.535 74.106C404.767 74.198 405.027 74.244 405.315 74.244C405.583 74.244 405.813 74.214 406.005 74.154C406.201 74.09 406.369 74.022 406.509 73.95C406.649 73.878 406.765 73.812 406.857 73.752C406.953 73.688 407.035 73.656 407.103 73.656C407.191 73.656 407.259 73.69 407.307 73.758L407.607 74.148C407.475 74.308 407.317 74.448 407.133 74.568C406.949 74.684 406.751 74.78 406.539 74.856C406.331 74.932 406.115 74.988 405.891 75.024C405.667 75.064 405.445 75.084 405.225 75.084C404.805 75.084 404.417 75.014 404.061 74.874C403.709 74.73 403.403 74.522 403.143 74.25C402.887 73.974 402.687 73.634 402.543 73.23C402.399 72.826 402.327 72.362 402.327 71.838C402.327 71.414 402.391 71.018 402.519 70.65C402.651 70.282 402.839 69.964 403.083 69.696C403.327 69.424 403.625 69.212 403.977 69.06C404.329 68.904 404.725 68.826 405.165 68.826ZM405.189 69.612C404.673 69.612 404.267 69.762 403.971 70.062C403.675 70.358 403.491 70.77 403.419 71.298H406.725C406.725 71.05 406.691 70.824 406.623 70.62C406.555 70.412 406.455 70.234 406.323 70.086C406.191 69.934 406.029 69.818 405.837 69.738C405.649 69.654 405.433 69.612 405.189 69.612ZM413.198 70.002C413.166 70.046 413.134 70.08 413.102 70.104C413.07 70.128 413.024 70.14 412.964 70.14C412.904 70.14 412.838 70.116 412.766 70.068C412.698 70.016 412.61 69.96 412.502 69.9C412.394 69.84 412.262 69.786 412.106 69.738C411.954 69.686 411.766 69.66 411.542 69.66C411.246 69.66 410.984 69.714 410.756 69.822C410.528 69.926 410.336 70.078 410.18 70.278C410.028 70.478 409.912 70.72 409.832 71.004C409.756 71.288 409.718 71.606 409.718 71.958C409.718 72.326 409.76 72.654 409.844 72.942C409.928 73.226 410.046 73.466 410.198 73.662C410.35 73.854 410.534 74.002 410.75 74.106C410.97 74.206 411.216 74.256 411.488 74.256C411.748 74.256 411.962 74.226 412.13 74.166C412.298 74.102 412.438 74.032 412.55 73.956C412.662 73.88 412.754 73.812 412.826 73.752C412.898 73.688 412.97 73.656 413.042 73.656C413.134 73.656 413.202 73.69 413.246 73.758L413.546 74.148C413.282 74.472 412.952 74.71 412.556 74.862C412.16 75.01 411.742 75.084 411.302 75.084C410.922 75.084 410.568 75.014 410.24 74.874C409.916 74.734 409.634 74.532 409.394 74.268C409.154 74 408.964 73.672 408.824 73.284C408.688 72.896 408.62 72.454 408.62 71.958C408.62 71.506 408.682 71.088 408.806 70.704C408.934 70.32 409.118 69.99 409.358 69.714C409.602 69.434 409.902 69.216 410.258 69.06C410.614 68.904 411.022 68.826 411.482 68.826C411.906 68.826 412.282 68.896 412.61 69.036C412.938 69.172 413.228 69.366 413.48 69.618L413.198 70.002ZM415.763 66.162V71.364H416.039C416.119 71.364 416.185 71.354 416.237 71.334C416.289 71.31 416.347 71.264 416.411 71.196L418.331 69.138C418.391 69.074 418.451 69.022 418.511 68.982C418.571 68.942 418.651 68.922 418.751 68.922H419.723L417.485 71.304C417.429 71.372 417.373 71.432 417.317 71.484C417.265 71.536 417.205 71.582 417.137 71.622C417.209 71.67 417.273 71.726 417.329 71.79C417.389 71.85 417.445 71.92 417.497 72L419.873 75H418.913C418.825 75 418.749 74.984 418.685 74.952C418.625 74.916 418.567 74.862 418.511 74.79L416.513 72.3C416.453 72.216 416.393 72.162 416.333 72.138C416.273 72.11 416.183 72.096 416.063 72.096H415.763V75H414.689V66.162H415.763ZM422.989 68.826C423.353 68.826 423.689 68.888 423.997 69.012C424.305 69.132 424.571 69.308 424.795 69.54C425.019 69.768 425.193 70.052 425.317 70.392C425.445 70.728 425.509 71.112 425.509 71.544C425.509 71.712 425.491 71.824 425.455 71.88C425.419 71.936 425.351 71.964 425.251 71.964H421.207C421.215 72.348 421.267 72.682 421.363 72.966C421.459 73.25 421.591 73.488 421.759 73.68C421.927 73.868 422.127 74.01 422.359 74.106C422.591 74.198 422.851 74.244 423.139 74.244C423.407 74.244 423.637 74.214 423.829 74.154C424.025 74.09 424.193 74.022 424.333 73.95C424.473 73.878 424.589 73.812 424.681 73.752C424.777 73.688 424.859 73.656 424.927 73.656C425.015 73.656 425.083 73.69 425.131 73.758L425.431 74.148C425.299 74.308 425.141 74.448 424.957 74.568C424.773 74.684 424.575 74.78 424.363 74.856C424.155 74.932 423.939 74.988 423.715 75.024C423.491 75.064 423.269 75.084 423.049 75.084C422.629 75.084 422.241 75.014 421.885 74.874C421.533 74.73 421.227 74.522 420.967 74.25C420.711 73.974 420.511 73.634 420.367 73.23C420.223 72.826 420.151 72.362 420.151 71.838C420.151 71.414 420.215 71.018 420.343 70.65C420.475 70.282 420.663 69.964 420.907 69.696C421.151 69.424 421.449 69.212 421.801 69.06C422.153 68.904 422.549 68.826 422.989 68.826ZM423.013 69.612C422.497 69.612 422.091 69.762 421.795 70.062C421.499 70.358 421.315 70.77 421.243 71.298H424.549C424.549 71.05 424.515 70.824 424.447 70.62C424.379 70.412 424.279 70.234 424.147 70.086C424.015 69.934 423.853 69.818 423.661 69.738C423.473 69.654 423.257 69.612 423.013 69.612ZM431.154 75C431.002 75 430.906 74.926 430.866 74.778L430.77 74.04C430.51 74.356 430.212 74.61 429.876 74.802C429.544 74.99 429.162 75.084 428.73 75.084C428.382 75.084 428.066 75.018 427.782 74.886C427.498 74.75 427.256 74.552 427.056 74.292C426.856 74.032 426.702 73.708 426.594 73.32C426.486 72.932 426.432 72.486 426.432 71.982C426.432 71.534 426.492 71.118 426.612 70.734C426.732 70.346 426.904 70.01 427.128 69.726C427.356 69.442 427.632 69.22 427.956 69.06C428.28 68.896 428.648 68.814 429.06 68.814C429.432 68.814 429.75 68.878 430.014 69.006C430.278 69.13 430.514 69.306 430.722 69.534V66.162H431.79V75H431.154ZM429.084 74.22C429.432 74.22 429.736 74.14 429.996 73.98C430.26 73.82 430.502 73.594 430.722 73.302V70.362C430.526 70.098 430.31 69.914 430.074 69.81C429.842 69.702 429.584 69.648 429.3 69.648C428.732 69.648 428.296 69.85 427.992 70.254C427.688 70.658 427.536 71.234 427.536 71.982C427.536 72.378 427.57 72.718 427.638 73.002C427.706 73.282 427.806 73.514 427.938 73.698C428.07 73.878 428.232 74.01 428.424 74.094C428.616 74.178 428.836 74.22 429.084 74.22ZM443.519 70.704C443.519 71.348 443.417 71.934 443.213 72.462C443.009 72.99 442.721 73.442 442.349 73.818C441.977 74.194 441.531 74.486 441.011 74.694C440.491 74.898 439.915 75 439.283 75H436.067V66.402H439.283C439.915 66.402 440.491 66.506 441.011 66.714C441.531 66.918 441.977 67.21 442.349 67.59C442.721 67.966 443.009 68.418 443.213 68.946C443.417 69.474 443.519 70.06 443.519 70.704ZM442.325 70.704C442.325 70.176 442.253 69.704 442.109 69.288C441.965 68.872 441.761 68.52 441.497 68.232C441.233 67.944 440.913 67.724 440.537 67.572C440.161 67.42 439.743 67.344 439.283 67.344H437.237V74.058H439.283C439.743 74.058 440.161 73.982 440.537 73.83C440.913 73.678 441.233 73.46 441.497 73.176C441.761 72.888 441.965 72.536 442.109 72.12C442.253 71.704 442.325 71.232 442.325 70.704ZM446.123 68.922V75H445.055V68.922H446.123ZM446.363 67.014C446.363 67.118 446.341 67.216 446.297 67.308C446.257 67.396 446.201 67.476 446.129 67.548C446.061 67.616 445.981 67.67 445.889 67.71C445.797 67.75 445.699 67.77 445.595 67.77C445.491 67.77 445.393 67.75 445.301 67.71C445.213 67.67 445.133 67.616 445.061 67.548C444.993 67.476 444.939 67.396 444.899 67.308C444.859 67.216 444.839 67.118 444.839 67.014C444.839 66.91 444.859 66.812 444.899 66.72C444.939 66.624 444.993 66.542 445.061 66.474C445.133 66.402 445.213 66.346 445.301 66.306C445.393 66.266 445.491 66.246 445.595 66.246C445.699 66.246 445.797 66.266 445.889 66.306C445.981 66.346 446.061 66.402 446.129 66.474C446.201 66.542 446.257 66.624 446.297 66.72C446.341 66.812 446.363 66.91 446.363 67.014ZM451.485 69.924C451.437 70.012 451.363 70.056 451.263 70.056C451.203 70.056 451.135 70.034 451.059 69.99C450.983 69.946 450.889 69.898 450.777 69.846C450.669 69.79 450.539 69.74 450.387 69.696C450.235 69.648 450.055 69.624 449.847 69.624C449.667 69.624 449.505 69.648 449.361 69.696C449.217 69.74 449.093 69.802 448.989 69.882C448.889 69.962 448.811 70.056 448.755 70.164C448.703 70.268 448.677 70.382 448.677 70.506C448.677 70.662 448.721 70.792 448.809 70.896C448.901 71 449.021 71.09 449.169 71.166C449.317 71.242 449.485 71.31 449.673 71.37C449.861 71.426 450.053 71.488 450.249 71.556C450.449 71.62 450.643 71.692 450.831 71.772C451.019 71.852 451.187 71.952 451.335 72.072C451.483 72.192 451.601 72.34 451.689 72.516C451.781 72.688 451.827 72.896 451.827 73.14C451.827 73.42 451.777 73.68 451.677 73.92C451.577 74.156 451.429 74.362 451.233 74.538C451.037 74.71 450.797 74.846 450.513 74.946C450.229 75.046 449.901 75.096 449.529 75.096C449.105 75.096 448.721 75.028 448.377 74.892C448.033 74.752 447.741 74.574 447.501 74.358L447.753 73.95C447.785 73.898 447.823 73.858 447.867 73.83C447.911 73.802 447.969 73.788 448.041 73.788C448.113 73.788 448.189 73.816 448.269 73.872C448.349 73.928 448.445 73.99 448.557 74.058C448.673 74.126 448.811 74.188 448.971 74.244C449.135 74.3 449.339 74.328 449.583 74.328C449.791 74.328 449.973 74.302 450.129 74.25C450.285 74.194 450.415 74.12 450.519 74.028C450.623 73.936 450.699 73.83 450.747 73.71C450.799 73.59 450.825 73.462 450.825 73.326C450.825 73.158 450.779 73.02 450.687 72.912C450.599 72.8 450.481 72.706 450.333 72.63C450.185 72.55 450.015 72.482 449.823 72.426C449.635 72.366 449.441 72.304 449.241 72.24C449.045 72.176 448.851 72.104 448.659 72.024C448.471 71.94 448.303 71.836 448.155 71.712C448.007 71.588 447.887 71.436 447.795 71.256C447.707 71.072 447.663 70.85 447.663 70.59C447.663 70.358 447.711 70.136 447.807 69.924C447.903 69.708 448.043 69.52 448.227 69.36C448.411 69.196 448.637 69.066 448.905 68.97C449.173 68.874 449.479 68.826 449.823 68.826C450.223 68.826 450.581 68.89 450.897 69.018C451.217 69.142 451.493 69.314 451.725 69.534L451.485 69.924ZM457.672 75H457.198C457.094 75 457.01 74.984 456.946 74.952C456.882 74.92 456.84 74.852 456.82 74.748L456.7 74.184C456.54 74.328 456.384 74.458 456.232 74.574C456.08 74.686 455.92 74.782 455.752 74.862C455.584 74.938 455.404 74.996 455.212 75.036C455.024 75.076 454.814 75.096 454.582 75.096C454.346 75.096 454.124 75.064 453.916 75C453.712 74.932 453.534 74.832 453.382 74.7C453.23 74.568 453.108 74.402 453.016 74.202C452.928 73.998 452.884 73.758 452.884 73.482C452.884 73.242 452.95 73.012 453.082 72.792C453.214 72.568 453.426 72.37 453.718 72.198C454.014 72.026 454.4 71.886 454.876 71.778C455.352 71.666 455.934 71.602 456.622 71.586V71.112C456.622 70.64 456.52 70.284 456.316 70.044C456.116 69.8 455.818 69.678 455.422 69.678C455.162 69.678 454.942 69.712 454.762 69.78C454.586 69.844 454.432 69.918 454.3 70.002C454.172 70.082 454.06 70.156 453.964 70.224C453.872 70.288 453.78 70.32 453.688 70.32C453.616 70.32 453.552 70.302 453.496 70.266C453.444 70.226 453.402 70.178 453.37 70.122L453.178 69.78C453.514 69.456 453.876 69.214 454.264 69.054C454.652 68.894 455.082 68.814 455.554 68.814C455.894 68.814 456.196 68.87 456.46 68.982C456.724 69.094 456.946 69.25 457.126 69.45C457.306 69.65 457.442 69.892 457.534 70.176C457.626 70.46 457.672 70.772 457.672 71.112V75ZM454.9 74.346C455.088 74.346 455.26 74.328 455.416 74.292C455.572 74.252 455.718 74.198 455.854 74.13C455.994 74.058 456.126 73.972 456.25 73.872C456.378 73.772 456.502 73.658 456.622 73.53V72.264C456.13 72.28 455.712 72.32 455.368 72.384C455.024 72.444 454.744 72.524 454.528 72.624C454.312 72.724 454.154 72.842 454.054 72.978C453.958 73.114 453.91 73.266 453.91 73.434C453.91 73.594 453.936 73.732 453.988 73.848C454.04 73.964 454.11 74.06 454.198 74.136C454.286 74.208 454.39 74.262 454.51 74.298C454.63 74.33 454.76 74.346 454.9 74.346ZM459.326 75V66.162H460.4V69.798C460.652 69.506 460.94 69.272 461.264 69.096C461.592 68.916 461.966 68.826 462.386 68.826C462.738 68.826 463.056 68.892 463.34 69.024C463.624 69.156 463.866 69.354 464.066 69.618C464.266 69.878 464.42 70.202 464.528 70.59C464.636 70.974 464.69 71.418 464.69 71.922C464.69 72.37 464.63 72.788 464.51 73.176C464.39 73.56 464.216 73.894 463.988 74.178C463.764 74.458 463.488 74.68 463.16 74.844C462.836 75.004 462.47 75.084 462.062 75.084C461.67 75.084 461.336 75.008 461.06 74.856C460.788 74.704 460.55 74.492 460.346 74.22L460.292 74.772C460.26 74.924 460.168 75 460.016 75H459.326ZM462.038 69.678C461.69 69.678 461.384 69.758 461.12 69.918C460.86 70.078 460.62 70.304 460.4 70.596V73.536C460.592 73.8 460.804 73.986 461.036 74.094C461.272 74.202 461.534 74.256 461.822 74.256C462.39 74.256 462.826 74.054 463.13 73.65C463.434 73.246 463.586 72.67 463.586 71.922C463.586 71.526 463.55 71.186 463.478 70.902C463.41 70.618 463.31 70.386 463.178 70.206C463.046 70.022 462.884 69.888 462.692 69.804C462.5 69.72 462.282 69.678 462.038 69.678ZM467.181 66.162V75H466.113V66.162H467.181ZM471.47 68.826C471.834 68.826 472.17 68.888 472.478 69.012C472.786 69.132 473.052 69.308 473.276 69.54C473.5 69.768 473.674 70.052 473.798 70.392C473.926 70.728 473.99 71.112 473.99 71.544C473.99 71.712 473.972 71.824 473.936 71.88C473.9 71.936 473.832 71.964 473.732 71.964H469.688C469.696 72.348 469.748 72.682 469.844 72.966C469.94 73.25 470.072 73.488 470.24 73.68C470.408 73.868 470.608 74.01 470.84 74.106C471.072 74.198 471.332 74.244 471.62 74.244C471.888 74.244 472.118 74.214 472.31 74.154C472.506 74.09 472.674 74.022 472.814 73.95C472.954 73.878 473.07 73.812 473.162 73.752C473.258 73.688 473.34 73.656 473.408 73.656C473.496 73.656 473.564 73.69 473.612 73.758L473.912 74.148C473.78 74.308 473.622 74.448 473.438 74.568C473.254 74.684 473.056 74.78 472.844 74.856C472.636 74.932 472.42 74.988 472.196 75.024C471.972 75.064 471.75 75.084 471.53 75.084C471.11 75.084 470.722 75.014 470.366 74.874C470.014 74.73 469.708 74.522 469.448 74.25C469.192 73.974 468.992 73.634 468.848 73.23C468.704 72.826 468.632 72.362 468.632 71.838C468.632 71.414 468.696 71.018 468.824 70.65C468.956 70.282 469.144 69.964 469.388 69.696C469.632 69.424 469.93 69.212 470.282 69.06C470.634 68.904 471.03 68.826 471.47 68.826ZM471.493 69.612C470.978 69.612 470.572 69.762 470.276 70.062C469.98 70.358 469.796 70.77 469.724 71.298H473.03C473.03 71.05 472.996 70.824 472.928 70.62C472.86 70.412 472.76 70.234 472.628 70.086C472.496 69.934 472.334 69.818 472.142 69.738C471.954 69.654 471.738 69.612 471.493 69.612Z" fill="#E9EAEB"/>
</svg>
