<svg width="1000" height="163" viewBox="0 0 1000 163" fill="none" xmlns="http://www.w3.org/2000/svg">
<rect width="1000" height="163" fill="white"/>
<rect x="59.5" y="66.5" width="67" height="31" rx="2.5" fill="#E9F5FE" stroke="#A9D9FB"/>
<path d="M69.1043 87V76.969H72.3033C72.9193 76.969 73.449 77.0297 73.8923 77.151C74.3403 77.2723 74.7067 77.445 74.9913 77.669C75.2807 77.893 75.493 78.1683 75.6283 78.495C75.7683 78.817 75.8383 79.181 75.8383 79.587C75.8383 79.8343 75.7987 80.0723 75.7193 80.301C75.6447 80.5297 75.528 80.742 75.3693 80.938C75.2153 81.134 75.0193 81.309 74.7813 81.463C74.548 81.617 74.2727 81.743 73.9553 81.841C74.688 81.9857 75.241 82.2493 75.6143 82.632C75.9877 83.0147 76.1743 83.5187 76.1743 84.144C76.1743 84.5687 76.095 84.956 75.9363 85.306C75.7823 85.656 75.5537 85.957 75.2503 86.209C74.9517 86.461 74.583 86.657 74.1443 86.797C73.7103 86.9323 73.2133 87 72.6533 87H69.1043ZM70.4623 82.429V85.922H72.6323C73.0197 85.922 73.351 85.8777 73.6263 85.789C73.9063 85.7003 74.135 85.5767 74.3123 85.418C74.4943 85.2547 74.6273 85.0633 74.7113 84.844C74.7953 84.62 74.8373 84.375 74.8373 84.109C74.8373 83.591 74.653 83.1827 74.2843 82.884C73.9203 82.5807 73.3673 82.429 72.6253 82.429H70.4623ZM70.4623 81.463H72.2543C72.637 81.463 72.9683 81.421 73.2483 81.337C73.5283 81.253 73.7593 81.1363 73.9413 80.987C74.128 80.8377 74.2657 80.658 74.3543 80.448C74.443 80.2333 74.4873 80 74.4873 79.748C74.4873 79.16 74.31 78.7283 73.9553 78.453C73.6007 78.1777 73.05 78.04 72.3033 78.04H70.4623V81.463ZM79.0228 76.689V87H77.7768V76.689H79.0228ZM81.9608 79.909V84.431C81.9608 84.9677 82.0845 85.383 82.3318 85.677C82.5791 85.971 82.9525 86.118 83.4518 86.118C83.8158 86.118 84.1588 86.0317 84.4808 85.859C84.8028 85.6863 85.0991 85.446 85.3698 85.138V79.909H86.6158V87H85.8738C85.6965 87 85.5845 86.9137 85.5378 86.741L85.4398 85.978C85.1318 86.3187 84.7865 86.594 84.4038 86.804C84.0211 87.0093 83.5825 87.112 83.0878 87.112C82.7005 87.112 82.3575 87.049 82.0588 86.923C81.7648 86.7923 81.5175 86.6103 81.3168 86.377C81.1161 86.1437 80.9645 85.8613 80.8618 85.53C80.7638 85.1987 80.7148 84.8323 80.7148 84.431V79.909H81.9608ZM91.1331 79.797C91.5578 79.797 91.9498 79.8693 92.3091 80.014C92.6684 80.154 92.9788 80.3593 93.2401 80.63C93.5014 80.896 93.7044 81.2273 93.8491 81.624C93.9984 82.016 94.0731 82.464 94.0731 82.968C94.0731 83.164 94.0521 83.2947 94.0101 83.36C93.9681 83.4253 93.8888 83.458 93.7721 83.458H89.0541C89.0634 83.906 89.1241 84.2957 89.2361 84.627C89.3481 84.9583 89.5021 85.236 89.6981 85.46C89.8941 85.6793 90.1274 85.845 90.3981 85.957C90.6688 86.0643 90.9721 86.118 91.3081 86.118C91.6208 86.118 91.8891 86.083 92.1131 86.013C92.3418 85.9383 92.5378 85.859 92.7011 85.775C92.8644 85.691 92.9998 85.614 93.1071 85.544C93.2191 85.4693 93.3148 85.432 93.3941 85.432C93.4968 85.432 93.5761 85.4717 93.6321 85.551L93.9821 86.006C93.8281 86.1927 93.6438 86.356 93.4291 86.496C93.2144 86.6313 92.9834 86.7433 92.7361 86.832C92.4934 86.9207 92.2414 86.986 91.9801 87.028C91.7188 87.0747 91.4598 87.098 91.2031 87.098C90.7131 87.098 90.2604 87.0163 89.8451 86.853C89.4344 86.685 89.0774 86.4423 88.7741 86.125C88.4754 85.803 88.2421 85.4063 88.0741 84.935C87.9061 84.4637 87.8221 83.9223 87.8221 83.311C87.8221 82.8163 87.8968 82.3543 88.0461 81.925C88.2001 81.4957 88.4194 81.1247 88.7041 80.812C88.9888 80.4947 89.3364 80.2473 89.7471 80.07C90.1578 79.888 90.6198 79.797 91.1331 79.797ZM91.1611 80.714C90.5591 80.714 90.0854 80.889 89.7401 81.239C89.3948 81.5843 89.1801 82.065 89.0961 82.681H92.9531C92.9531 82.3917 92.9134 82.128 92.8341 81.89C92.7548 81.6473 92.6381 81.4397 92.4841 81.267C92.3301 81.0897 92.1411 80.9543 91.9171 80.861C91.6978 80.763 91.4458 80.714 91.1611 80.714Z" fill="#6E737A"/>
<path d="M115.214 78L123.786 86" stroke="#979797" stroke-linecap="square"/>
<path d="M115.214 86L123.786 78" stroke="#979797" stroke-linecap="square"/>
<rect x="59.5" y="66.5" width="67" height="31" rx="2.5" fill="#E9F5FE" stroke="#A9D9FB"/>
<rect x="147.5" y="66.5" width="84" height="31" rx="2.5" fill="#E9F5FE" stroke="#A9D9FB"/>
<rect x="255.5" y="66.5" width="158" height="31" rx="2.5" fill="#E9F5FE" stroke="#A9D9FB"/>
<path d="M76.7062 78.537C76.6642 78.607 76.6198 78.6607 76.5732 78.698C76.5265 78.7307 76.4658 78.747 76.3912 78.747C76.3118 78.747 76.2185 78.7073 76.1112 78.628C76.0085 78.5487 75.8755 78.4623 75.7122 78.369C75.5535 78.271 75.3598 78.1823 75.1312 78.103C74.9072 78.0237 74.6342 77.984 74.3122 77.984C74.0088 77.984 73.7405 78.026 73.5072 78.11C73.2738 78.1893 73.0778 78.299 72.9192 78.439C72.7652 78.579 72.6485 78.7447 72.5692 78.936C72.4898 79.1227 72.4502 79.3257 72.4502 79.545C72.4502 79.825 72.5178 80.0583 72.6532 80.245C72.7932 80.427 72.9752 80.5833 73.1992 80.714C73.4278 80.8447 73.6845 80.959 73.9692 81.057C74.2585 81.1503 74.5525 81.2483 74.8512 81.351C75.1545 81.4537 75.4485 81.5703 75.7332 81.701C76.0225 81.827 76.2792 81.988 76.5032 82.184C76.7318 82.38 76.9138 82.6203 77.0492 82.905C77.1892 83.1897 77.2592 83.5397 77.2592 83.955C77.2592 84.3937 77.1845 84.8067 77.0352 85.194C76.8858 85.5767 76.6665 85.9103 76.3772 86.195C76.0925 86.4797 75.7402 86.7037 75.3202 86.867C74.9048 87.0303 74.4312 87.112 73.8992 87.112C73.2505 87.112 72.6578 86.9953 72.1212 86.762C71.5892 86.524 71.1342 86.2043 70.7562 85.803L71.1482 85.159C71.1855 85.1077 71.2298 85.0657 71.2812 85.033C71.3372 84.9957 71.3978 84.977 71.4632 84.977C71.5612 84.977 71.6732 85.0307 71.7992 85.138C71.9252 85.2407 72.0815 85.355 72.2682 85.481C72.4595 85.607 72.6882 85.7237 72.9542 85.831C73.2248 85.9337 73.5538 85.985 73.9412 85.985C74.2632 85.985 74.5502 85.9407 74.8022 85.852C75.0542 85.7633 75.2665 85.6397 75.4392 85.481C75.6165 85.3177 75.7518 85.124 75.8452 84.9C75.9385 84.676 75.9852 84.4263 75.9852 84.151C75.9852 83.8477 75.9152 83.6003 75.7752 83.409C75.6398 83.213 75.4602 83.0497 75.2362 82.919C75.0122 82.7883 74.7555 82.6787 74.4662 82.59C74.1815 82.4967 73.8875 82.4033 73.5842 82.31C73.2855 82.212 72.9915 82.1 72.7022 81.974C72.4175 81.848 72.1632 81.6847 71.9392 81.484C71.7152 81.2833 71.5332 81.0337 71.3932 80.735C71.2578 80.4317 71.1902 80.0583 71.1902 79.615C71.1902 79.2603 71.2578 78.9173 71.3932 78.586C71.5332 78.2547 71.7338 77.9607 71.9952 77.704C72.2565 77.4473 72.5785 77.242 72.9612 77.088C73.3485 76.934 73.7918 76.857 74.2912 76.857C74.8512 76.857 75.3622 76.9457 75.8242 77.123C76.2862 77.3003 76.6898 77.557 77.0352 77.893L76.7062 78.537ZM78.46 87V79.909H79.202C79.3793 79.909 79.4913 79.9953 79.538 80.168L79.629 80.896C79.8903 80.574 80.182 80.3103 80.504 80.105C80.8307 79.8997 81.2087 79.797 81.638 79.797C82.1187 79.797 82.506 79.93 82.8 80.196C83.0987 80.462 83.3133 80.8213 83.444 81.274C83.542 81.0173 83.6703 80.7957 83.829 80.609C83.9923 80.4223 84.1743 80.2683 84.375 80.147C84.5757 80.0257 84.788 79.937 85.012 79.881C85.2407 79.825 85.4717 79.797 85.705 79.797C86.0783 79.797 86.4097 79.8577 86.699 79.979C86.993 80.0957 87.2403 80.2683 87.441 80.497C87.6463 80.7257 87.8027 81.008 87.91 81.344C88.0173 81.6753 88.071 82.0557 88.071 82.485V87H86.825V82.485C86.825 81.9297 86.7037 81.5097 86.461 81.225C86.2183 80.9357 85.866 80.791 85.404 80.791C85.1987 80.791 85.0027 80.8283 84.816 80.903C84.634 80.973 84.473 81.078 84.333 81.218C84.193 81.358 84.081 81.5353 83.997 81.75C83.9177 81.96 83.878 82.205 83.878 82.485V87H82.632V82.485C82.632 81.9157 82.5177 81.491 82.289 81.211C82.0603 80.931 81.7267 80.791 81.288 80.791C80.98 80.791 80.693 80.875 80.427 81.043C80.1657 81.2063 79.9253 81.4303 79.706 81.715V87H78.46ZM91.008 76.689V87H89.762V76.689H91.008Z" fill="#6E737A"/>
<path d="M163.043 83.374C163.108 83.486 163.164 83.605 163.211 83.731C163.262 83.8523 163.311 83.976 163.358 84.102C163.404 83.9713 163.453 83.8477 163.505 83.731C163.556 83.6097 163.614 83.4883 163.68 83.367L167.075 77.2C167.135 77.0927 167.198 77.0273 167.264 77.004C167.329 76.9807 167.422 76.969 167.544 76.969H168.545V87H167.355V79.629C167.355 79.531 167.357 79.426 167.362 79.314C167.366 79.202 167.373 79.0877 167.383 78.971L163.946 85.243C163.829 85.453 163.666 85.558 163.456 85.558H163.26C163.05 85.558 162.886 85.453 162.77 85.243L159.256 78.95C159.27 79.0713 159.279 79.1903 159.284 79.307C159.293 79.4237 159.298 79.531 159.298 79.629V87H158.108V76.969H159.109C159.23 76.969 159.323 76.9807 159.389 77.004C159.454 77.0273 159.517 77.0927 159.578 77.2L163.043 83.374ZM173.262 79.797C173.686 79.797 174.078 79.8693 174.438 80.014C174.797 80.154 175.107 80.3593 175.369 80.63C175.63 80.896 175.833 81.2273 175.978 81.624C176.127 82.016 176.202 82.464 176.202 82.968C176.202 83.164 176.181 83.2947 176.139 83.36C176.097 83.4253 176.017 83.458 175.901 83.458H171.183C171.192 83.906 171.253 84.2957 171.365 84.627C171.477 84.9583 171.631 85.236 171.827 85.46C172.023 85.6793 172.256 85.845 172.527 85.957C172.797 86.0643 173.101 86.118 173.437 86.118C173.749 86.118 174.018 86.083 174.242 86.013C174.47 85.9383 174.666 85.859 174.83 85.775C174.993 85.691 175.128 85.614 175.236 85.544C175.348 85.4693 175.443 85.432 175.523 85.432C175.625 85.432 175.705 85.4717 175.761 85.551L176.111 86.006C175.957 86.1927 175.772 86.356 175.558 86.496C175.343 86.6313 175.112 86.7433 174.865 86.832C174.622 86.9207 174.37 86.986 174.109 87.028C173.847 87.0747 173.588 87.098 173.332 87.098C172.842 87.098 172.389 87.0163 171.974 86.853C171.563 86.685 171.206 86.4423 170.903 86.125C170.604 85.803 170.371 85.4063 170.203 84.935C170.035 84.4637 169.951 83.9223 169.951 83.311C169.951 82.8163 170.025 82.3543 170.175 81.925C170.329 81.4957 170.548 81.1247 170.833 80.812C171.117 80.4947 171.465 80.2473 171.876 80.07C172.286 79.888 172.748 79.797 173.262 79.797ZM173.29 80.714C172.688 80.714 172.214 80.889 171.869 81.239C171.523 81.5843 171.309 82.065 171.225 82.681H175.082C175.082 82.3917 175.042 82.128 174.963 81.89C174.883 81.6473 174.767 81.4397 174.613 81.267C174.459 81.0897 174.27 80.9543 174.046 80.861C173.826 80.763 173.574 80.714 173.29 80.714ZM182.452 87C182.274 87 182.162 86.9137 182.116 86.741L182.004 85.88C181.7 86.2487 181.353 86.545 180.961 86.769C180.573 86.9883 180.128 87.098 179.624 87.098C179.218 87.098 178.849 87.021 178.518 86.867C178.186 86.7083 177.904 86.4773 177.671 86.174C177.437 85.8707 177.258 85.4927 177.132 85.04C177.006 84.5873 176.943 84.067 176.943 83.479C176.943 82.9563 177.013 82.471 177.153 82.023C177.293 81.5703 177.493 81.1783 177.755 80.847C178.021 80.5157 178.343 80.2567 178.721 80.07C179.099 79.8787 179.528 79.783 180.009 79.783C180.443 79.783 180.814 79.8577 181.122 80.007C181.43 80.1517 181.705 80.357 181.948 80.623V76.689H183.194V87H182.452ZM180.037 86.09C180.443 86.09 180.797 85.9967 181.101 85.81C181.409 85.6233 181.691 85.3597 181.948 85.019V81.589C181.719 81.281 181.467 81.0663 181.192 80.945C180.921 80.819 180.62 80.756 180.289 80.756C179.626 80.756 179.117 80.9917 178.763 81.463C178.408 81.9343 178.231 82.6063 178.231 83.479C178.231 83.941 178.27 84.3377 178.35 84.669C178.429 84.9957 178.546 85.2663 178.7 85.481C178.854 85.691 179.043 85.845 179.267 85.943C179.491 86.041 179.747 86.09 180.037 86.09ZM186.331 79.909V87H185.085V79.909H186.331ZM186.611 77.683C186.611 77.8043 186.585 77.9187 186.534 78.026C186.487 78.1287 186.422 78.222 186.338 78.306C186.258 78.3853 186.165 78.4483 186.058 78.495C185.95 78.5417 185.836 78.565 185.715 78.565C185.593 78.565 185.479 78.5417 185.372 78.495C185.269 78.4483 185.176 78.3853 185.092 78.306C185.012 78.222 184.949 78.1287 184.903 78.026C184.856 77.9187 184.833 77.8043 184.833 77.683C184.833 77.5617 184.856 77.4473 184.903 77.34C184.949 77.228 185.012 77.1323 185.092 77.053C185.176 76.969 185.269 76.9037 185.372 76.857C185.479 76.8103 185.593 76.787 185.715 76.787C185.836 76.787 185.95 76.8103 186.058 76.857C186.165 76.9037 186.258 76.969 186.338 77.053C186.422 77.1323 186.487 77.228 186.534 77.34C186.585 77.4473 186.611 77.5617 186.611 77.683ZM189.269 79.909V84.431C189.269 84.9677 189.393 85.383 189.64 85.677C189.887 85.971 190.261 86.118 190.76 86.118C191.124 86.118 191.467 86.0317 191.789 85.859C192.111 85.6863 192.407 85.446 192.678 85.138V79.909H193.924V87H193.182C193.005 87 192.893 86.9137 192.846 86.741L192.748 85.978C192.44 86.3187 192.095 86.594 191.712 86.804C191.329 87.0093 190.891 87.112 190.396 87.112C190.009 87.112 189.666 87.049 189.367 86.923C189.073 86.7923 188.826 86.6103 188.625 86.377C188.424 86.1437 188.273 85.8613 188.17 85.53C188.072 85.1987 188.023 84.8323 188.023 84.431V79.909H189.269ZM195.634 87V79.909H196.376C196.553 79.909 196.665 79.9953 196.712 80.168L196.803 80.896C197.064 80.574 197.356 80.3103 197.678 80.105C198.005 79.8997 198.383 79.797 198.812 79.797C199.293 79.797 199.68 79.93 199.974 80.196C200.273 80.462 200.487 80.8213 200.618 81.274C200.716 81.0173 200.844 80.7957 201.003 80.609C201.166 80.4223 201.348 80.2683 201.549 80.147C201.75 80.0257 201.962 79.937 202.186 79.881C202.415 79.825 202.646 79.797 202.879 79.797C203.252 79.797 203.584 79.8577 203.873 79.979C204.167 80.0957 204.414 80.2683 204.615 80.497C204.82 80.7257 204.977 81.008 205.084 81.344C205.191 81.6753 205.245 82.0557 205.245 82.485V87H203.999V82.485C203.999 81.9297 203.878 81.5097 203.635 81.225C203.392 80.9357 203.04 80.791 202.578 80.791C202.373 80.791 202.177 80.8283 201.99 80.903C201.808 80.973 201.647 81.078 201.507 81.218C201.367 81.358 201.255 81.5353 201.171 81.75C201.092 81.96 201.052 82.205 201.052 82.485V87H199.806V82.485C199.806 81.9157 199.692 81.491 199.463 81.211C199.234 80.931 198.901 80.791 198.462 80.791C198.154 80.791 197.867 80.875 197.601 81.043C197.34 81.2063 197.099 81.4303 196.88 81.715V87H195.634Z" fill="#6E737A"/>
<path d="M264.79 76.969H265.875C265.996 76.969 266.094 76.9993 266.169 77.06C266.244 77.1207 266.3 77.1977 266.337 77.291L269.172 84.368C269.237 84.5267 269.296 84.6993 269.347 84.886C269.403 85.0727 269.457 85.2663 269.508 85.467C269.55 85.2663 269.594 85.0727 269.641 84.886C269.692 84.6993 269.751 84.5267 269.816 84.368L272.637 77.291C272.67 77.2117 272.726 77.1393 272.805 77.074C272.884 77.004 272.982 76.969 273.099 76.969H274.191L270.103 87H268.878L264.79 76.969ZM276.936 79.797C277.361 79.797 277.753 79.8693 278.112 80.014C278.471 80.154 278.782 80.3593 279.043 80.63C279.304 80.896 279.507 81.2273 279.652 81.624C279.801 82.016 279.876 82.464 279.876 82.968C279.876 83.164 279.855 83.2947 279.813 83.36C279.771 83.4253 279.692 83.458 279.575 83.458H274.857C274.866 83.906 274.927 84.2957 275.039 84.627C275.151 84.9583 275.305 85.236 275.501 85.46C275.697 85.6793 275.93 85.845 276.201 85.957C276.472 86.0643 276.775 86.118 277.111 86.118C277.424 86.118 277.692 86.083 277.916 86.013C278.145 85.9383 278.341 85.859 278.504 85.775C278.667 85.691 278.803 85.614 278.91 85.544C279.022 85.4693 279.118 85.432 279.197 85.432C279.3 85.432 279.379 85.4717 279.435 85.551L279.785 86.006C279.631 86.1927 279.447 86.356 279.232 86.496C279.017 86.6313 278.786 86.7433 278.539 86.832C278.296 86.9207 278.044 86.986 277.783 87.028C277.522 87.0747 277.263 87.098 277.006 87.098C276.516 87.098 276.063 87.0163 275.648 86.853C275.237 86.685 274.88 86.4423 274.577 86.125C274.278 85.803 274.045 85.4063 273.877 84.935C273.709 84.4637 273.625 83.9223 273.625 83.311C273.625 82.8163 273.7 82.3543 273.849 81.925C274.003 81.4957 274.222 81.1247 274.507 80.812C274.792 80.4947 275.139 80.2473 275.55 80.07C275.961 79.888 276.423 79.797 276.936 79.797ZM276.964 80.714C276.362 80.714 275.888 80.889 275.543 81.239C275.198 81.5843 274.983 82.065 274.899 82.681H278.756C278.756 82.3917 278.716 82.128 278.637 81.89C278.558 81.6473 278.441 81.4397 278.287 81.267C278.133 81.0897 277.944 80.9543 277.72 80.861C277.501 80.763 277.249 80.714 276.964 80.714ZM281.135 87V79.909H281.849C281.984 79.909 282.077 79.9347 282.129 79.986C282.18 80.0373 282.215 80.126 282.234 80.252L282.318 81.358C282.56 80.8633 282.859 80.4783 283.214 80.203C283.573 79.923 283.993 79.783 284.474 79.783C284.67 79.783 284.847 79.8063 285.006 79.853C285.164 79.895 285.311 79.9557 285.447 80.035L285.286 80.966C285.253 81.0827 285.181 81.141 285.069 81.141C285.003 81.141 284.903 81.12 284.768 81.078C284.632 81.0313 284.443 81.008 284.201 81.008C283.767 81.008 283.403 81.134 283.109 81.386C282.819 81.638 282.577 82.0043 282.381 82.485V87H281.135ZM288.524 89.093C288.482 89.1863 288.429 89.261 288.363 89.317C288.303 89.373 288.207 89.401 288.076 89.401H287.152L288.447 86.587L285.521 79.909H286.599C286.707 79.909 286.791 79.937 286.851 79.993C286.912 80.0443 286.956 80.1027 286.984 80.168L288.881 84.634C288.923 84.7367 288.958 84.8393 288.986 84.942C289.019 85.0447 289.047 85.1497 289.07 85.257C289.103 85.1497 289.136 85.0447 289.168 84.942C289.201 84.8393 289.238 84.7343 289.28 84.627L291.121 80.168C291.149 80.0933 291.196 80.0327 291.261 79.986C291.331 79.9347 291.406 79.909 291.485 79.909H292.479L288.524 89.093ZM298.451 79.797C298.876 79.797 299.268 79.8693 299.627 80.014C299.987 80.154 300.297 80.3593 300.558 80.63C300.82 80.896 301.023 81.2273 301.167 81.624C301.317 82.016 301.391 82.464 301.391 82.968C301.391 83.164 301.37 83.2947 301.328 83.36C301.286 83.4253 301.207 83.458 301.09 83.458H296.372C296.382 83.906 296.442 84.2957 296.554 84.627C296.666 84.9583 296.82 85.236 297.016 85.46C297.212 85.6793 297.446 85.845 297.716 85.957C297.987 86.0643 298.29 86.118 298.626 86.118C298.939 86.118 299.207 86.083 299.431 86.013C299.66 85.9383 299.856 85.859 300.019 85.775C300.183 85.691 300.318 85.614 300.425 85.544C300.537 85.4693 300.633 85.432 300.712 85.432C300.815 85.432 300.894 85.4717 300.95 85.551L301.3 86.006C301.146 86.1927 300.962 86.356 300.747 86.496C300.533 86.6313 300.302 86.7433 300.054 86.832C299.812 86.9207 299.56 86.986 299.298 87.028C299.037 87.0747 298.778 87.098 298.521 87.098C298.031 87.098 297.579 87.0163 297.163 86.853C296.753 86.685 296.396 86.4423 296.092 86.125C295.794 85.803 295.56 85.4063 295.392 84.935C295.224 84.4637 295.14 83.9223 295.14 83.311C295.14 82.8163 295.215 82.3543 295.364 81.925C295.518 81.4957 295.738 81.1247 296.022 80.812C296.307 80.4947 296.655 80.2473 297.065 80.07C297.476 79.888 297.938 79.797 298.451 79.797ZM298.479 80.714C297.877 80.714 297.404 80.889 297.058 81.239C296.713 81.5843 296.498 82.065 296.414 82.681H300.271C300.271 82.3917 300.232 82.128 300.152 81.89C300.073 81.6473 299.956 81.4397 299.802 81.267C299.648 81.0897 299.459 80.9543 299.235 80.861C299.016 80.763 298.764 80.714 298.479 80.714ZM303.885 83.367L301.498 79.909H302.695C302.798 79.909 302.873 79.9253 302.919 79.958C302.966 79.9907 303.008 80.0373 303.045 80.098L304.781 82.758C304.823 82.6273 304.884 82.4967 304.963 82.366L306.489 80.126C306.536 80.0607 306.583 80.0093 306.629 79.972C306.676 79.93 306.734 79.909 306.804 79.909H307.952L305.565 83.297L308.05 87H306.853C306.751 87 306.669 86.9743 306.608 86.923C306.552 86.867 306.506 86.8063 306.468 86.741L304.683 83.962C304.651 84.0973 304.602 84.2187 304.536 84.326L302.884 86.741C302.838 86.8063 302.786 86.867 302.73 86.923C302.679 86.9743 302.607 87 302.513 87H301.4L303.885 83.367ZM311.094 87.112C310.534 87.112 310.102 86.9557 309.799 86.643C309.5 86.3303 309.351 85.88 309.351 85.292V80.952H308.497C308.422 80.952 308.359 80.931 308.308 80.889C308.257 80.8423 308.231 80.7723 308.231 80.679V80.182L309.393 80.035L309.68 77.844C309.689 77.774 309.72 77.718 309.771 77.676C309.822 77.6293 309.888 77.606 309.967 77.606H310.597V80.049H312.627V80.952H310.597V85.208C310.597 85.5067 310.669 85.7283 310.814 85.873C310.959 86.0177 311.145 86.09 311.374 86.09C311.505 86.09 311.617 86.0737 311.71 86.041C311.808 86.0037 311.892 85.964 311.962 85.922C312.032 85.88 312.09 85.8427 312.137 85.81C312.188 85.7727 312.233 85.754 312.27 85.754C312.335 85.754 312.394 85.7937 312.445 85.873L312.809 86.468C312.594 86.6687 312.335 86.8273 312.032 86.944C311.729 87.056 311.416 87.112 311.094 87.112ZM313.832 87V79.909H314.546C314.681 79.909 314.774 79.9347 314.826 79.986C314.877 80.0373 314.912 80.126 314.931 80.252L315.015 81.358C315.257 80.8633 315.556 80.4783 315.911 80.203C316.27 79.923 316.69 79.783 317.171 79.783C317.367 79.783 317.544 79.8063 317.703 79.853C317.861 79.895 318.008 79.9557 318.144 80.035L317.983 80.966C317.95 81.0827 317.878 81.141 317.766 81.141C317.7 81.141 317.6 81.12 317.465 81.078C317.329 81.0313 317.14 81.008 316.898 81.008C316.464 81.008 316.1 81.134 315.806 81.386C315.516 81.638 315.274 82.0043 315.078 82.485V87H313.832ZM324.09 87H323.537C323.416 87 323.318 86.9813 323.243 86.944C323.169 86.9067 323.12 86.8273 323.096 86.706L322.956 86.048C322.77 86.216 322.588 86.3677 322.41 86.503C322.233 86.6337 322.046 86.7457 321.85 86.839C321.654 86.9277 321.444 86.9953 321.22 87.042C321.001 87.0887 320.756 87.112 320.485 87.112C320.21 87.112 319.951 87.0747 319.708 87C319.47 86.9207 319.263 86.804 319.085 86.65C318.908 86.496 318.766 86.3023 318.658 86.069C318.556 85.831 318.504 85.551 318.504 85.229C318.504 84.949 318.581 84.6807 318.735 84.424C318.889 84.1627 319.137 83.9317 319.477 83.731C319.823 83.5303 320.273 83.367 320.828 83.241C321.384 83.1103 322.063 83.0357 322.865 83.017V82.464C322.865 81.9133 322.746 81.498 322.508 81.218C322.275 80.9333 321.927 80.791 321.465 80.791C321.162 80.791 320.905 80.8307 320.695 80.91C320.49 80.9847 320.31 81.071 320.156 81.169C320.007 81.2623 319.876 81.3487 319.764 81.428C319.657 81.5027 319.55 81.54 319.442 81.54C319.358 81.54 319.284 81.519 319.218 81.477C319.158 81.4303 319.109 81.3743 319.071 81.309L318.847 80.91C319.239 80.532 319.662 80.2497 320.114 80.063C320.567 79.8763 321.069 79.783 321.619 79.783C322.016 79.783 322.368 79.8483 322.676 79.979C322.984 80.1097 323.243 80.2917 323.453 80.525C323.663 80.7583 323.822 81.0407 323.929 81.372C324.037 81.7033 324.09 82.0673 324.09 82.464V87ZM320.856 86.237C321.076 86.237 321.276 86.216 321.458 86.174C321.64 86.1273 321.811 86.0643 321.969 85.985C322.133 85.901 322.287 85.8007 322.431 85.684C322.581 85.5673 322.725 85.4343 322.865 85.285V83.808C322.291 83.8267 321.804 83.8733 321.402 83.948C321.001 84.018 320.674 84.1113 320.422 84.228C320.17 84.3447 319.986 84.4823 319.869 84.641C319.757 84.7997 319.701 84.977 319.701 85.173C319.701 85.3597 319.732 85.5207 319.792 85.656C319.853 85.7913 319.935 85.9033 320.037 85.992C320.14 86.076 320.261 86.139 320.401 86.181C320.541 86.2183 320.693 86.237 320.856 86.237ZM329.399 76.689V87H328.153V76.689H329.399ZM334.129 79.797C334.647 79.797 335.114 79.8833 335.529 80.056C335.949 80.2287 336.304 80.4737 336.593 80.791C336.887 81.1083 337.111 81.4933 337.265 81.946C337.424 82.394 337.503 82.8957 337.503 83.451C337.503 84.011 337.424 84.515 337.265 84.963C337.111 85.411 336.887 85.7937 336.593 86.111C336.304 86.4283 335.949 86.6733 335.529 86.846C335.114 87.014 334.647 87.098 334.129 87.098C333.611 87.098 333.142 87.014 332.722 86.846C332.307 86.6733 331.952 86.4283 331.658 86.111C331.364 85.7937 331.138 85.411 330.979 84.963C330.82 84.515 330.741 84.011 330.741 83.451C330.741 82.8957 330.82 82.394 330.979 81.946C331.138 81.4933 331.364 81.1083 331.658 80.791C331.952 80.4737 332.307 80.2287 332.722 80.056C333.142 79.8833 333.611 79.797 334.129 79.797ZM334.129 86.125C334.829 86.125 335.352 85.8917 335.697 85.425C336.042 84.9537 336.215 84.298 336.215 83.458C336.215 82.6133 336.042 81.9553 335.697 81.484C335.352 81.0127 334.829 80.777 334.129 80.777C333.774 80.777 333.466 80.8377 333.205 80.959C332.944 81.0803 332.724 81.2553 332.547 81.484C332.374 81.7127 332.244 81.995 332.155 82.331C332.071 82.6623 332.029 83.038 332.029 83.458C332.029 83.878 332.071 84.2537 332.155 84.585C332.244 84.9163 332.374 85.1963 332.547 85.425C332.724 85.649 332.944 85.8217 333.205 85.943C333.466 86.0643 333.774 86.125 334.129 86.125ZM338.702 87V79.909H339.444C339.622 79.909 339.734 79.9953 339.78 80.168L339.878 80.938C340.186 80.5973 340.529 80.322 340.907 80.112C341.29 79.902 341.731 79.797 342.23 79.797C342.618 79.797 342.958 79.8623 343.252 79.993C343.551 80.119 343.798 80.301 343.994 80.539C344.195 80.7723 344.347 81.0547 344.449 81.386C344.552 81.7173 344.603 82.0837 344.603 82.485V87H343.357V82.485C343.357 81.9483 343.234 81.533 342.986 81.239C342.744 80.9403 342.37 80.791 341.866 80.791C341.498 80.791 341.152 80.8797 340.83 81.057C340.513 81.2343 340.219 81.4747 339.948 81.778V87H338.702ZM348.533 79.79C348.841 79.79 349.128 79.825 349.394 79.895C349.664 79.9603 349.909 80.0583 350.129 80.189H352.054V80.651C352.054 80.805 351.956 80.903 351.76 80.945L350.955 81.057C351.113 81.3603 351.193 81.6987 351.193 82.072C351.193 82.4173 351.125 82.7323 350.99 83.017C350.859 83.297 350.675 83.5373 350.437 83.738C350.203 83.9387 349.923 84.0927 349.597 84.2C349.275 84.3073 348.92 84.361 348.533 84.361C348.201 84.361 347.889 84.3213 347.595 84.242C347.445 84.3353 347.331 84.4357 347.252 84.543C347.177 84.6503 347.14 84.7553 347.14 84.858C347.14 85.026 347.207 85.1543 347.343 85.243C347.478 85.327 347.658 85.3877 347.882 85.425C348.106 85.4623 348.36 85.4857 348.645 85.495C348.929 85.5043 349.219 85.5207 349.513 85.544C349.811 85.5627 350.103 85.5977 350.388 85.649C350.672 85.7003 350.927 85.7843 351.151 85.901C351.375 86.0177 351.554 86.1787 351.69 86.384C351.825 86.5893 351.893 86.8553 351.893 87.182C351.893 87.4853 351.816 87.7793 351.662 88.064C351.512 88.3487 351.295 88.6007 351.011 88.82C350.726 89.044 350.378 89.2213 349.968 89.352C349.557 89.4873 349.093 89.555 348.575 89.555C348.057 89.555 347.602 89.5037 347.21 89.401C346.822 89.2983 346.5 89.1607 346.244 88.988C345.987 88.8153 345.793 88.6147 345.663 88.386C345.537 88.162 345.474 87.9263 345.474 87.679C345.474 87.329 345.583 87.0327 345.803 86.79C346.027 86.5427 346.332 86.3467 346.72 86.202C346.519 86.1087 346.358 85.985 346.237 85.831C346.12 85.6723 346.062 85.4623 346.062 85.201C346.062 85.0983 346.08 84.9933 346.118 84.886C346.155 84.774 346.211 84.6643 346.286 84.557C346.365 84.4497 346.461 84.347 346.573 84.249C346.685 84.151 346.815 84.0647 346.965 83.99C346.615 83.794 346.339 83.535 346.139 83.213C345.943 82.8863 345.845 82.506 345.845 82.072C345.845 81.7267 345.91 81.414 346.041 81.134C346.176 80.8493 346.363 80.609 346.601 80.413C346.839 80.2123 347.121 80.0583 347.448 79.951C347.779 79.8437 348.141 79.79 348.533 79.79ZM350.745 87.385C350.745 87.2077 350.696 87.0653 350.598 86.958C350.5 86.8507 350.367 86.769 350.199 86.713C350.031 86.6523 349.837 86.608 349.618 86.58C349.398 86.552 349.167 86.5333 348.925 86.524C348.682 86.51 348.435 86.496 348.183 86.482C347.931 86.468 347.69 86.4423 347.462 86.405C347.196 86.531 346.979 86.685 346.811 86.867C346.647 87.049 346.566 87.266 346.566 87.518C346.566 87.6767 346.605 87.8237 346.685 87.959C346.769 88.099 346.895 88.218 347.063 88.316C347.231 88.4187 347.441 88.498 347.693 88.554C347.949 88.6147 348.25 88.645 348.596 88.645C348.932 88.645 349.233 88.6147 349.499 88.554C349.765 88.4933 349.989 88.407 350.171 88.295C350.357 88.183 350.5 88.05 350.598 87.896C350.696 87.742 350.745 87.5717 350.745 87.385ZM348.533 83.535C348.785 83.535 349.006 83.5 349.198 83.43C349.394 83.36 349.557 83.262 349.688 83.136C349.818 83.01 349.916 82.8607 349.982 82.688C350.047 82.5107 350.08 82.317 350.08 82.107C350.08 81.673 349.947 81.3277 349.681 81.071C349.419 80.8143 349.037 80.686 348.533 80.686C348.033 80.686 347.651 80.8143 347.385 81.071C347.123 81.3277 346.993 81.673 346.993 82.107C346.993 82.317 347.025 82.5107 347.091 82.688C347.161 82.8607 347.261 83.01 347.392 83.136C347.522 83.262 347.683 83.36 347.875 83.43C348.066 83.5 348.285 83.535 348.533 83.535ZM354.407 79.909H355.387C355.49 79.909 355.574 79.9347 355.639 79.986C355.704 80.0373 355.749 80.098 355.772 80.168L357.13 84.732C357.167 84.9 357.202 85.0633 357.235 85.222C357.268 85.376 357.296 85.5323 357.319 85.691C357.356 85.5323 357.398 85.376 357.445 85.222C357.492 85.0633 357.541 84.9 357.592 84.732L359.09 80.14C359.113 80.07 359.153 80.0117 359.209 79.965C359.27 79.9183 359.344 79.895 359.433 79.895H359.972C360.065 79.895 360.142 79.9183 360.203 79.965C360.264 80.0117 360.306 80.07 360.329 80.14L361.792 84.732C361.843 84.8953 361.888 85.0563 361.925 85.215C361.967 85.3737 362.007 85.53 362.044 85.684C362.067 85.53 362.098 85.369 362.135 85.201C362.172 85.033 362.212 84.8767 362.254 84.732L363.64 80.168C363.663 80.0933 363.708 80.0327 363.773 79.986C363.838 79.9347 363.915 79.909 364.004 79.909H364.942L362.646 87H361.659C361.538 87 361.454 86.9207 361.407 86.762L359.839 81.953C359.802 81.8457 359.771 81.7383 359.748 81.631C359.725 81.519 359.701 81.4093 359.678 81.302C359.655 81.4093 359.631 81.519 359.608 81.631C359.585 81.743 359.554 81.8527 359.517 81.96L357.928 86.762C357.877 86.9207 357.781 87 357.641 87H356.703L354.407 79.909ZM368.584 79.797C369.102 79.797 369.569 79.8833 369.984 80.056C370.404 80.2287 370.759 80.4737 371.048 80.791C371.342 81.1083 371.566 81.4933 371.72 81.946C371.879 82.394 371.958 82.8957 371.958 83.451C371.958 84.011 371.879 84.515 371.72 84.963C371.566 85.411 371.342 85.7937 371.048 86.111C370.759 86.4283 370.404 86.6733 369.984 86.846C369.569 87.014 369.102 87.098 368.584 87.098C368.066 87.098 367.597 87.014 367.177 86.846C366.762 86.6733 366.407 86.4283 366.113 86.111C365.819 85.7937 365.593 85.411 365.434 84.963C365.275 84.515 365.196 84.011 365.196 83.451C365.196 82.8957 365.275 82.394 365.434 81.946C365.593 81.4933 365.819 81.1083 366.113 80.791C366.407 80.4737 366.762 80.2287 367.177 80.056C367.597 79.8833 368.066 79.797 368.584 79.797ZM368.584 86.125C369.284 86.125 369.807 85.8917 370.152 85.425C370.497 84.9537 370.67 84.298 370.67 83.458C370.67 82.6133 370.497 81.9553 370.152 81.484C369.807 81.0127 369.284 80.777 368.584 80.777C368.229 80.777 367.921 80.8377 367.66 80.959C367.399 81.0803 367.179 81.2553 367.002 81.484C366.829 81.7127 366.699 81.995 366.61 82.331C366.526 82.6623 366.484 83.038 366.484 83.458C366.484 83.878 366.526 84.2537 366.61 84.585C366.699 84.9163 366.829 85.1963 367.002 85.425C367.179 85.649 367.399 85.8217 367.66 85.943C367.921 86.0643 368.229 86.125 368.584 86.125ZM373.157 87V79.909H373.871C374.007 79.909 374.1 79.9347 374.151 79.986C374.203 80.0373 374.238 80.126 374.256 80.252L374.34 81.358C374.583 80.8633 374.882 80.4783 375.236 80.203C375.596 79.923 376.016 79.783 376.496 79.783C376.692 79.783 376.87 79.8063 377.028 79.853C377.187 79.895 377.334 79.9557 377.469 80.035L377.308 80.966C377.276 81.0827 377.203 81.141 377.091 81.141C377.026 81.141 376.926 81.12 376.79 81.078C376.655 81.0313 376.466 81.008 376.223 81.008C375.789 81.008 375.425 81.134 375.131 81.386C374.842 81.638 374.599 82.0043 374.403 82.485V87H373.157ZM383.459 87C383.281 87 383.169 86.9137 383.123 86.741L383.011 85.88C382.707 86.2487 382.36 86.545 381.968 86.769C381.58 86.9883 381.135 87.098 380.631 87.098C380.225 87.098 379.856 87.021 379.525 86.867C379.193 86.7083 378.911 86.4773 378.678 86.174C378.444 85.8707 378.265 85.4927 378.139 85.04C378.013 84.5873 377.95 84.067 377.95 83.479C377.95 82.9563 378.02 82.471 378.16 82.023C378.3 81.5703 378.5 81.1783 378.762 80.847C379.028 80.5157 379.35 80.2567 379.728 80.07C380.106 79.8787 380.535 79.783 381.016 79.783C381.45 79.783 381.821 79.8577 382.129 80.007C382.437 80.1517 382.712 80.357 382.955 80.623V76.689H384.201V87H383.459ZM381.044 86.09C381.45 86.09 381.804 85.9967 382.108 85.81C382.416 85.6233 382.698 85.3597 382.955 85.019V81.589C382.726 81.281 382.474 81.0663 382.199 80.945C381.928 80.819 381.627 80.756 381.296 80.756C380.633 80.756 380.124 80.9917 379.77 81.463C379.415 81.9343 379.238 82.6063 379.238 83.479C379.238 83.941 379.277 84.3377 379.357 84.669C379.436 84.9957 379.553 85.2663 379.707 85.481C379.861 85.691 380.05 85.845 380.274 85.943C380.498 86.041 380.754 86.09 381.044 86.09Z" fill="#6E737A"/>
<path d="M111.214 78L119.786 86" stroke="#979797" stroke-linecap="square"/>
<path d="M111.214 86L119.786 78" stroke="#979797" stroke-linecap="square"/>
<path d="M212.214 78L220.786 86" stroke="#979797" stroke-linecap="square"/>
<path d="M212.214 86L220.786 78" stroke="#979797" stroke-linecap="square"/>
<path d="M399.214 78L407.786 86" stroke="#979797" stroke-linecap="square"/>
<path d="M399.214 86L407.786 78" stroke="#979797" stroke-linecap="square"/>
</svg>
