<svg width="1000" height="532" viewBox="0 0 1000 532" fill="none" xmlns="http://www.w3.org/2000/svg">
<rect width="1000" height="532" fill="white"/>
<g filter="url(#filter0_d)">
<rect x="53" y="25" width="423" height="421" rx="2" fill="white"/>
</g>
<path d="M439.333 45L452.667 58" stroke="#979797" stroke-linecap="square"/>
<path d="M439.333 58L452.667 45" stroke="#979797" stroke-linecap="square"/>
<g filter="url(#filter1_d)">
<path d="M373 396C373 393.791 374.791 392 377 392H430C432.209 392 434 393.791 434 396V424C434 426.209 432.209 428 430 428H377C374.791 428 373 426.209 373 424V396Z" fill="#279FF6"/>
<path d="M395.356 407.037C395.314 407.107 395.27 407.161 395.223 407.198C395.176 407.231 395.116 407.247 395.041 407.247C394.962 407.247 394.868 407.207 394.761 407.128C394.658 407.049 394.525 406.962 394.362 406.869C394.203 406.771 394.01 406.682 393.781 406.603C393.557 406.524 393.284 406.484 392.962 406.484C392.659 406.484 392.39 406.526 392.157 406.61C391.924 406.689 391.728 406.799 391.569 406.939C391.415 407.079 391.298 407.245 391.219 407.436C391.14 407.623 391.1 407.826 391.1 408.045C391.1 408.325 391.168 408.558 391.303 408.745C391.443 408.927 391.625 409.083 391.849 409.214C392.078 409.345 392.334 409.459 392.619 409.557C392.908 409.65 393.202 409.748 393.501 409.851C393.804 409.954 394.098 410.07 394.383 410.201C394.672 410.327 394.929 410.488 395.153 410.684C395.382 410.88 395.564 411.12 395.699 411.405C395.839 411.69 395.909 412.04 395.909 412.455C395.909 412.894 395.834 413.307 395.685 413.694C395.536 414.077 395.316 414.41 395.027 414.695C394.742 414.98 394.39 415.204 393.97 415.367C393.555 415.53 393.081 415.612 392.549 415.612C391.9 415.612 391.308 415.495 390.771 415.262C390.239 415.024 389.784 414.704 389.406 414.303L389.798 413.659C389.835 413.608 389.88 413.566 389.931 413.533C389.987 413.496 390.048 413.477 390.113 413.477C390.211 413.477 390.323 413.531 390.449 413.638C390.575 413.741 390.731 413.855 390.918 413.981C391.109 414.107 391.338 414.224 391.604 414.331C391.875 414.434 392.204 414.485 392.591 414.485C392.913 414.485 393.2 414.441 393.452 414.352C393.704 414.263 393.916 414.14 394.089 413.981C394.266 413.818 394.402 413.624 394.495 413.4C394.588 413.176 394.635 412.926 394.635 412.651C394.635 412.348 394.565 412.1 394.425 411.909C394.29 411.713 394.11 411.55 393.886 411.419C393.662 411.288 393.405 411.179 393.116 411.09C392.831 410.997 392.537 410.903 392.234 410.81C391.935 410.712 391.641 410.6 391.352 410.474C391.067 410.348 390.813 410.185 390.589 409.984C390.365 409.783 390.183 409.534 390.043 409.235C389.908 408.932 389.84 408.558 389.84 408.115C389.84 407.76 389.908 407.417 390.043 407.086C390.183 406.755 390.384 406.461 390.645 406.204C390.906 405.947 391.228 405.742 391.611 405.588C391.998 405.434 392.442 405.357 392.941 405.357C393.501 405.357 394.012 405.446 394.474 405.623C394.936 405.8 395.34 406.057 395.685 406.393L395.356 407.037ZM402.654 415.5H402.101C401.979 415.5 401.881 415.481 401.807 415.444C401.732 415.407 401.683 415.327 401.66 415.206L401.52 414.548C401.333 414.716 401.151 414.868 400.974 415.003C400.796 415.134 400.61 415.246 400.414 415.339C400.218 415.428 400.008 415.495 399.784 415.542C399.564 415.589 399.319 415.612 399.049 415.612C398.773 415.612 398.514 415.575 398.272 415.5C398.034 415.421 397.826 415.304 397.649 415.15C397.471 414.996 397.329 414.802 397.222 414.569C397.119 414.331 397.068 414.051 397.068 413.729C397.068 413.449 397.145 413.181 397.299 412.924C397.453 412.663 397.7 412.432 398.041 412.231C398.386 412.03 398.836 411.867 399.392 411.741C399.947 411.61 400.626 411.536 401.429 411.517V410.964C401.429 410.413 401.31 409.998 401.072 409.718C400.838 409.433 400.491 409.291 400.029 409.291C399.725 409.291 399.469 409.331 399.259 409.41C399.053 409.485 398.874 409.571 398.72 409.669C398.57 409.762 398.44 409.849 398.328 409.928C398.22 410.003 398.113 410.04 398.006 410.04C397.922 410.04 397.847 410.019 397.782 409.977C397.721 409.93 397.672 409.874 397.635 409.809L397.411 409.41C397.803 409.032 398.225 408.75 398.678 408.563C399.13 408.376 399.632 408.283 400.183 408.283C400.579 408.283 400.932 408.348 401.24 408.479C401.548 408.61 401.807 408.792 402.017 409.025C402.227 409.258 402.385 409.541 402.493 409.872C402.6 410.203 402.654 410.567 402.654 410.964V415.5ZM399.42 414.737C399.639 414.737 399.84 414.716 400.022 414.674C400.204 414.627 400.374 414.564 400.533 414.485C400.696 414.401 400.85 414.301 400.995 414.184C401.144 414.067 401.289 413.934 401.429 413.785V412.308C400.855 412.327 400.367 412.373 399.966 412.448C399.564 412.518 399.238 412.611 398.986 412.728C398.734 412.845 398.549 412.982 398.433 413.141C398.321 413.3 398.265 413.477 398.265 413.673C398.265 413.86 398.295 414.021 398.356 414.156C398.416 414.291 398.498 414.403 398.601 414.492C398.703 414.576 398.825 414.639 398.965 414.681C399.105 414.718 399.256 414.737 399.42 414.737ZM403.427 408.409H404.449C404.547 408.409 404.628 408.435 404.694 408.486C404.759 408.537 404.806 408.598 404.834 408.668L406.633 413.232C406.698 413.4 406.749 413.568 406.787 413.736C406.824 413.904 406.859 414.07 406.892 414.233C406.929 414.07 406.969 413.904 407.011 413.736C407.053 413.568 407.106 413.4 407.172 413.232L408.992 408.668C409.02 408.593 409.064 408.533 409.125 408.486C409.19 408.435 409.269 408.409 409.363 408.409H410.336L407.445 415.5H406.318L403.427 408.409ZM414.116 408.297C414.541 408.297 414.933 408.369 415.292 408.514C415.651 408.654 415.962 408.859 416.223 409.13C416.484 409.396 416.687 409.727 416.832 410.124C416.981 410.516 417.056 410.964 417.056 411.468C417.056 411.664 417.035 411.795 416.993 411.86C416.951 411.925 416.872 411.958 416.755 411.958H412.037C412.046 412.406 412.107 412.796 412.219 413.127C412.331 413.458 412.485 413.736 412.681 413.96C412.877 414.179 413.11 414.345 413.381 414.457C413.652 414.564 413.955 414.618 414.291 414.618C414.604 414.618 414.872 414.583 415.096 414.513C415.325 414.438 415.521 414.359 415.684 414.275C415.847 414.191 415.983 414.114 416.09 414.044C416.202 413.969 416.298 413.932 416.377 413.932C416.48 413.932 416.559 413.972 416.615 414.051L416.965 414.506C416.811 414.693 416.627 414.856 416.412 414.996C416.197 415.131 415.966 415.243 415.719 415.332C415.476 415.421 415.224 415.486 414.963 415.528C414.702 415.575 414.443 415.598 414.186 415.598C413.696 415.598 413.243 415.516 412.828 415.353C412.417 415.185 412.06 414.942 411.757 414.625C411.458 414.303 411.225 413.906 411.057 413.435C410.889 412.964 410.805 412.422 410.805 411.811C410.805 411.316 410.88 410.854 411.029 410.425C411.183 409.996 411.402 409.625 411.687 409.312C411.972 408.995 412.319 408.747 412.73 408.57C413.141 408.388 413.603 408.297 414.116 408.297ZM414.144 409.214C413.542 409.214 413.068 409.389 412.723 409.739C412.378 410.084 412.163 410.565 412.079 411.181H415.936C415.936 410.892 415.896 410.628 415.817 410.39C415.738 410.147 415.621 409.94 415.467 409.767C415.313 409.59 415.124 409.454 414.9 409.361C414.681 409.263 414.429 409.214 414.144 409.214Z" fill="white"/>
</g>
<path d="M308.288 413.428C308.363 413.428 308.43 413.458 308.491 413.519L309.023 414.1C308.612 414.576 308.113 414.947 307.525 415.213C306.942 415.479 306.237 415.612 305.411 415.612C304.688 415.612 304.032 415.488 303.444 415.241C302.856 414.989 302.354 414.639 301.939 414.191C301.524 413.738 301.202 413.197 300.973 412.567C300.744 411.937 300.63 411.244 300.63 410.488C300.63 409.732 300.751 409.039 300.994 408.409C301.241 407.779 301.587 407.238 302.03 406.785C302.473 406.332 303.003 405.982 303.619 405.735C304.24 405.483 304.923 405.357 305.67 405.357C306.407 405.357 307.042 405.471 307.574 405.7C308.111 405.929 308.587 406.239 309.002 406.631L308.561 407.254C308.528 407.301 308.491 407.34 308.449 407.373C308.407 407.401 308.346 407.415 308.267 407.415C308.206 407.415 308.141 407.394 308.071 407.352C308.006 407.305 307.926 407.249 307.833 407.184C307.74 407.119 307.63 407.049 307.504 406.974C307.378 406.899 307.229 406.829 307.056 406.764C306.883 406.699 306.683 406.645 306.454 406.603C306.225 406.556 305.962 406.533 305.663 406.533C305.126 406.533 304.634 406.626 304.186 406.813C303.743 406.995 303.36 407.256 303.038 407.597C302.716 407.938 302.464 408.353 302.282 408.843C302.105 409.333 302.016 409.881 302.016 410.488C302.016 411.113 302.105 411.671 302.282 412.161C302.464 412.651 302.709 413.066 303.017 413.407C303.33 413.743 303.698 414 304.123 414.177C304.548 414.354 305.005 414.443 305.495 414.443C305.794 414.443 306.062 414.427 306.3 414.394C306.538 414.357 306.757 414.301 306.958 414.226C307.163 414.151 307.352 414.058 307.525 413.946C307.702 413.829 307.88 413.692 308.057 413.533C308.136 413.463 308.213 413.428 308.288 413.428ZM315.814 415.5H315.261C315.14 415.5 315.042 415.481 314.967 415.444C314.892 415.407 314.843 415.327 314.82 415.206L314.68 414.548C314.493 414.716 314.311 414.868 314.134 415.003C313.957 415.134 313.77 415.246 313.574 415.339C313.378 415.428 313.168 415.495 312.944 415.542C312.725 415.589 312.48 415.612 312.209 415.612C311.934 415.612 311.675 415.575 311.432 415.5C311.194 415.421 310.986 415.304 310.809 415.15C310.632 414.996 310.489 414.802 310.382 414.569C310.279 414.331 310.228 414.051 310.228 413.729C310.228 413.449 310.305 413.181 310.459 412.924C310.613 412.663 310.86 412.432 311.201 412.231C311.546 412.03 311.997 411.867 312.552 411.741C313.107 411.61 313.786 411.536 314.589 411.517V410.964C314.589 410.413 314.47 409.998 314.232 409.718C313.999 409.433 313.651 409.291 313.189 409.291C312.886 409.291 312.629 409.331 312.419 409.41C312.214 409.485 312.034 409.571 311.88 409.669C311.731 409.762 311.6 409.849 311.488 409.928C311.381 410.003 311.273 410.04 311.166 410.04C311.082 410.04 311.007 410.019 310.942 409.977C310.881 409.93 310.832 409.874 310.795 409.809L310.571 409.41C310.963 409.032 311.385 408.75 311.838 408.563C312.291 408.376 312.792 408.283 313.343 408.283C313.74 408.283 314.092 408.348 314.4 408.479C314.708 408.61 314.967 408.792 315.177 409.025C315.387 409.258 315.546 409.541 315.653 409.872C315.76 410.203 315.814 410.567 315.814 410.964V415.5ZM312.58 414.737C312.799 414.737 313 414.716 313.182 414.674C313.364 414.627 313.534 414.564 313.693 414.485C313.856 414.401 314.01 414.301 314.155 414.184C314.304 414.067 314.449 413.934 314.589 413.785V412.308C314.015 412.327 313.527 412.373 313.126 412.448C312.725 412.518 312.398 412.611 312.146 412.728C311.894 412.845 311.71 412.982 311.593 413.141C311.481 413.3 311.425 413.477 311.425 413.673C311.425 413.86 311.455 414.021 311.516 414.156C311.577 414.291 311.658 414.403 311.761 414.492C311.864 414.576 311.985 414.639 312.125 414.681C312.265 414.718 312.417 414.737 312.58 414.737ZM317.702 415.5V408.409H318.444C318.621 408.409 318.733 408.495 318.78 408.668L318.878 409.438C319.186 409.097 319.529 408.822 319.907 408.612C320.289 408.402 320.73 408.297 321.23 408.297C321.617 408.297 321.958 408.362 322.252 408.493C322.55 408.619 322.798 408.801 322.994 409.039C323.194 409.272 323.346 409.555 323.449 409.886C323.551 410.217 323.603 410.584 323.603 410.985V415.5H322.357V410.985C322.357 410.448 322.233 410.033 321.986 409.739C321.743 409.44 321.37 409.291 320.866 409.291C320.497 409.291 320.152 409.38 319.83 409.557C319.512 409.734 319.218 409.975 318.948 410.278V415.5H317.702ZM330.318 409.669C330.281 409.72 330.243 409.76 330.206 409.788C330.169 409.816 330.115 409.83 330.045 409.83C329.975 409.83 329.898 409.802 329.814 409.746C329.735 409.685 329.632 409.62 329.506 409.55C329.38 409.48 329.226 409.417 329.044 409.361C328.867 409.3 328.647 409.27 328.386 409.27C328.041 409.27 327.735 409.333 327.469 409.459C327.203 409.58 326.979 409.758 326.797 409.991C326.62 410.224 326.484 410.507 326.391 410.838C326.302 411.169 326.258 411.54 326.258 411.951C326.258 412.38 326.307 412.763 326.405 413.099C326.503 413.43 326.641 413.71 326.818 413.939C326.995 414.163 327.21 414.336 327.462 414.457C327.719 414.574 328.006 414.632 328.323 414.632C328.626 414.632 328.876 414.597 329.072 414.527C329.268 414.452 329.431 414.371 329.562 414.282C329.693 414.193 329.8 414.114 329.884 414.044C329.968 413.969 330.052 413.932 330.136 413.932C330.243 413.932 330.323 413.972 330.374 414.051L330.724 414.506C330.416 414.884 330.031 415.162 329.569 415.339C329.107 415.512 328.619 415.598 328.106 415.598C327.663 415.598 327.25 415.516 326.867 415.353C326.489 415.19 326.16 414.954 325.88 414.646C325.6 414.333 325.378 413.951 325.215 413.498C325.056 413.045 324.977 412.53 324.977 411.951C324.977 411.424 325.049 410.936 325.194 410.488C325.343 410.04 325.558 409.655 325.838 409.333C326.123 409.006 326.473 408.752 326.888 408.57C327.303 408.388 327.779 408.297 328.316 408.297C328.811 408.297 329.249 408.379 329.632 408.542C330.015 408.701 330.353 408.927 330.647 409.221L330.318 409.669ZM334.823 408.297C335.248 408.297 335.64 408.369 335.999 408.514C336.358 408.654 336.669 408.859 336.93 409.13C337.191 409.396 337.394 409.727 337.539 410.124C337.688 410.516 337.763 410.964 337.763 411.468C337.763 411.664 337.742 411.795 337.7 411.86C337.658 411.925 337.579 411.958 337.462 411.958H332.744C332.753 412.406 332.814 412.796 332.926 413.127C333.038 413.458 333.192 413.736 333.388 413.96C333.584 414.179 333.817 414.345 334.088 414.457C334.359 414.564 334.662 414.618 334.998 414.618C335.311 414.618 335.579 414.583 335.803 414.513C336.032 414.438 336.228 414.359 336.391 414.275C336.554 414.191 336.69 414.114 336.797 414.044C336.909 413.969 337.005 413.932 337.084 413.932C337.187 413.932 337.266 413.972 337.322 414.051L337.672 414.506C337.518 414.693 337.334 414.856 337.119 414.996C336.904 415.131 336.673 415.243 336.426 415.332C336.183 415.421 335.931 415.486 335.67 415.528C335.409 415.575 335.15 415.598 334.893 415.598C334.403 415.598 333.95 415.516 333.535 415.353C333.124 415.185 332.767 414.942 332.464 414.625C332.165 414.303 331.932 413.906 331.764 413.435C331.596 412.964 331.512 412.422 331.512 411.811C331.512 411.316 331.587 410.854 331.736 410.425C331.89 409.996 332.109 409.625 332.394 409.312C332.679 408.995 333.026 408.747 333.437 408.57C333.848 408.388 334.31 408.297 334.823 408.297ZM334.851 409.214C334.249 409.214 333.775 409.389 333.43 409.739C333.085 410.084 332.87 410.565 332.786 411.181H336.643C336.643 410.892 336.603 410.628 336.524 410.39C336.445 410.147 336.328 409.94 336.174 409.767C336.02 409.59 335.831 409.454 335.607 409.361C335.388 409.263 335.136 409.214 334.851 409.214ZM340.744 405.189V415.5H339.498V405.189H340.744Z" fill="#279FF6"/>
<path d="M288 393H354V391H288V393ZM357 396V424H359V396H357ZM354 427H288V429H354V427ZM285 424V396H283V424H285ZM288 427C286.343 427 285 425.657 285 424H283C283 426.761 285.239 429 288 429V427ZM357 424C357 425.657 355.657 427 354 427V429C356.761 429 359 426.761 359 424H357ZM354 393C355.657 393 357 394.343 357 396H359C359 393.239 356.761 391 354 391V393ZM288 391C285.239 391 283 393.239 283 396H285C285 394.343 286.343 393 288 393V391Z" fill="#279FF6"/>
<rect x="111.5" y="131.5" width="255" height="35" rx="3.5" stroke="#A7ABB1"/>
<rect x="111.5" y="199.5" width="255" height="35" rx="3.5" stroke="#A7ABB1"/>
<path d="M134.399 283.969V285.075H129.583V288.407H133.482V289.471H129.583V292.894H134.399V294H128.218V283.969H134.399ZM137.816 290.367L135.429 286.909H136.626C136.728 286.909 136.803 286.925 136.85 286.958C136.896 286.991 136.938 287.037 136.976 287.098L138.712 289.758C138.754 289.627 138.814 289.497 138.894 289.366L140.42 287.126C140.466 287.061 140.513 287.009 140.56 286.972C140.606 286.93 140.665 286.909 140.735 286.909H141.883L139.496 290.297L141.981 294H140.784C140.681 294 140.599 293.974 140.539 293.923C140.483 293.867 140.436 293.806 140.399 293.741L138.614 290.962C138.581 291.097 138.532 291.219 138.467 291.326L136.815 293.741C136.768 293.806 136.717 293.867 136.661 293.923C136.609 293.974 136.537 294 136.444 294H135.331L137.816 290.367ZM143.211 296.401V286.909H143.953C144.131 286.909 144.243 286.995 144.289 287.168L144.394 288.008C144.698 287.639 145.043 287.343 145.43 287.119C145.822 286.895 146.273 286.783 146.781 286.783C147.187 286.783 147.556 286.862 147.887 287.021C148.219 287.175 148.501 287.406 148.734 287.714C148.968 288.017 149.147 288.395 149.273 288.848C149.399 289.301 149.462 289.821 149.462 290.409C149.462 290.932 149.392 291.419 149.252 291.872C149.112 292.32 148.912 292.71 148.65 293.041C148.389 293.368 148.067 293.627 147.684 293.818C147.306 294.005 146.879 294.098 146.403 294.098C145.965 294.098 145.589 294.026 145.276 293.881C144.968 293.736 144.695 293.531 144.457 293.265V296.401H143.211ZM146.368 287.791C145.962 287.791 145.605 287.884 145.297 288.071C144.994 288.258 144.714 288.521 144.457 288.862V292.292C144.686 292.6 144.936 292.817 145.206 292.943C145.482 293.069 145.787 293.132 146.123 293.132C146.781 293.132 147.288 292.896 147.642 292.425C147.997 291.954 148.174 291.282 148.174 290.409C148.174 289.947 148.132 289.55 148.048 289.219C147.969 288.888 147.852 288.617 147.698 288.407C147.544 288.192 147.355 288.036 147.131 287.938C146.907 287.84 146.653 287.791 146.368 287.791ZM153.743 286.797C154.168 286.797 154.56 286.869 154.919 287.014C155.278 287.154 155.589 287.359 155.85 287.63C156.111 287.896 156.314 288.227 156.459 288.624C156.608 289.016 156.683 289.464 156.683 289.968C156.683 290.164 156.662 290.295 156.62 290.36C156.578 290.425 156.499 290.458 156.382 290.458H151.664C151.673 290.906 151.734 291.296 151.846 291.627C151.958 291.958 152.112 292.236 152.308 292.46C152.504 292.679 152.737 292.845 153.008 292.957C153.279 293.064 153.582 293.118 153.918 293.118C154.231 293.118 154.499 293.083 154.723 293.013C154.952 292.938 155.148 292.859 155.311 292.775C155.474 292.691 155.61 292.614 155.717 292.544C155.829 292.469 155.925 292.432 156.004 292.432C156.107 292.432 156.186 292.472 156.242 292.551L156.592 293.006C156.438 293.193 156.254 293.356 156.039 293.496C155.824 293.631 155.593 293.743 155.346 293.832C155.103 293.921 154.851 293.986 154.59 294.028C154.329 294.075 154.07 294.098 153.813 294.098C153.323 294.098 152.87 294.016 152.455 293.853C152.044 293.685 151.687 293.442 151.384 293.125C151.085 292.803 150.852 292.406 150.684 291.935C150.516 291.464 150.432 290.922 150.432 290.311C150.432 289.816 150.507 289.354 150.656 288.925C150.81 288.496 151.029 288.125 151.314 287.812C151.599 287.495 151.946 287.247 152.357 287.07C152.768 286.888 153.23 286.797 153.743 286.797ZM153.771 287.714C153.169 287.714 152.695 287.889 152.35 288.239C152.005 288.584 151.79 289.065 151.706 289.681H155.563C155.563 289.392 155.523 289.128 155.444 288.89C155.365 288.647 155.248 288.44 155.094 288.267C154.94 288.09 154.751 287.954 154.527 287.861C154.308 287.763 154.056 287.714 153.771 287.714ZM158.278 294V286.909H159.02C159.197 286.909 159.309 286.995 159.356 287.168L159.454 287.938C159.762 287.597 160.105 287.322 160.483 287.112C160.866 286.902 161.307 286.797 161.806 286.797C162.193 286.797 162.534 286.862 162.828 286.993C163.127 287.119 163.374 287.301 163.57 287.539C163.771 287.772 163.922 288.055 164.025 288.386C164.128 288.717 164.179 289.084 164.179 289.485V294H162.933V289.485C162.933 288.948 162.809 288.533 162.562 288.239C162.319 287.94 161.946 287.791 161.442 287.791C161.073 287.791 160.728 287.88 160.406 288.057C160.089 288.234 159.795 288.475 159.524 288.778V294H158.278ZM170.117 288.078C170.061 288.181 169.975 288.232 169.858 288.232C169.788 288.232 169.709 288.206 169.62 288.155C169.531 288.104 169.422 288.048 169.291 287.987C169.165 287.922 169.013 287.863 168.836 287.812C168.659 287.756 168.449 287.728 168.206 287.728C167.996 287.728 167.807 287.756 167.639 287.812C167.471 287.863 167.326 287.936 167.205 288.029C167.088 288.122 166.997 288.232 166.932 288.358C166.871 288.479 166.841 288.612 166.841 288.757C166.841 288.939 166.892 289.091 166.995 289.212C167.102 289.333 167.242 289.438 167.415 289.527C167.588 289.616 167.784 289.695 168.003 289.765C168.222 289.83 168.446 289.903 168.675 289.982C168.908 290.057 169.135 290.141 169.354 290.234C169.573 290.327 169.769 290.444 169.942 290.584C170.115 290.724 170.252 290.897 170.355 291.102C170.462 291.303 170.516 291.545 170.516 291.83C170.516 292.157 170.458 292.46 170.341 292.74C170.224 293.015 170.052 293.256 169.823 293.461C169.594 293.662 169.314 293.82 168.983 293.937C168.652 294.054 168.269 294.112 167.835 294.112C167.34 294.112 166.892 294.033 166.491 293.874C166.09 293.711 165.749 293.503 165.469 293.251L165.763 292.775C165.8 292.714 165.845 292.668 165.896 292.635C165.947 292.602 166.015 292.586 166.099 292.586C166.183 292.586 166.272 292.619 166.365 292.684C166.458 292.749 166.57 292.822 166.701 292.901C166.836 292.98 166.997 293.053 167.184 293.118C167.375 293.183 167.613 293.216 167.898 293.216C168.141 293.216 168.353 293.186 168.535 293.125C168.717 293.06 168.869 292.973 168.99 292.866C169.111 292.759 169.2 292.635 169.256 292.495C169.317 292.355 169.347 292.206 169.347 292.047C169.347 291.851 169.293 291.69 169.186 291.564C169.083 291.433 168.946 291.324 168.773 291.235C168.6 291.142 168.402 291.062 168.178 290.997C167.959 290.927 167.732 290.855 167.499 290.78C167.27 290.705 167.044 290.621 166.82 290.528C166.601 290.43 166.405 290.309 166.232 290.164C166.059 290.019 165.919 289.842 165.812 289.632C165.709 289.417 165.658 289.158 165.658 288.855C165.658 288.584 165.714 288.325 165.826 288.078C165.938 287.826 166.101 287.607 166.316 287.42C166.531 287.229 166.794 287.077 167.107 286.965C167.42 286.853 167.777 286.797 168.178 286.797C168.645 286.797 169.062 286.872 169.431 287.021C169.804 287.166 170.126 287.366 170.397 287.623L170.117 288.078ZM174.934 286.797C175.359 286.797 175.751 286.869 176.11 287.014C176.47 287.154 176.78 287.359 177.041 287.63C177.303 287.896 177.506 288.227 177.65 288.624C177.8 289.016 177.874 289.464 177.874 289.968C177.874 290.164 177.853 290.295 177.811 290.36C177.769 290.425 177.69 290.458 177.573 290.458H172.855C172.865 290.906 172.925 291.296 173.037 291.627C173.149 291.958 173.303 292.236 173.499 292.46C173.695 292.679 173.929 292.845 174.199 292.957C174.47 293.064 174.773 293.118 175.109 293.118C175.422 293.118 175.69 293.083 175.914 293.013C176.143 292.938 176.339 292.859 176.502 292.775C176.666 292.691 176.801 292.614 176.908 292.544C177.02 292.469 177.116 292.432 177.195 292.432C177.298 292.432 177.377 292.472 177.433 292.551L177.783 293.006C177.629 293.193 177.445 293.356 177.23 293.496C177.016 293.631 176.785 293.743 176.537 293.832C176.295 293.921 176.043 293.986 175.781 294.028C175.52 294.075 175.261 294.098 175.004 294.098C174.514 294.098 174.062 294.016 173.646 293.853C173.236 293.685 172.879 293.442 172.575 293.125C172.277 292.803 172.043 292.406 171.875 291.935C171.707 291.464 171.623 290.922 171.623 290.311C171.623 289.816 171.698 289.354 171.847 288.925C172.001 288.496 172.221 288.125 172.505 287.812C172.79 287.495 173.138 287.247 173.548 287.07C173.959 286.888 174.421 286.797 174.934 286.797ZM174.962 287.714C174.36 287.714 173.887 287.889 173.541 288.239C173.196 288.584 172.981 289.065 172.897 289.681H176.754C176.754 289.392 176.715 289.128 176.635 288.89C176.556 288.647 176.439 288.44 176.285 288.267C176.131 288.09 175.942 287.954 175.718 287.861C175.499 287.763 175.247 287.714 174.962 287.714Z" fill="#6E737A"/>
<path d="M262.41 284.59L267 289.17L271.59 284.59L273 286L267 292L261 286L262.41 284.59Z" fill="#9B9B9B"/>
<rect x="111.5" y="270.5" width="175" height="35" rx="3.5" stroke="#A7ABB1"/>
<rect x="112" y="332" width="40" height="20" rx="10" fill="#279FF6"/>
<path fill-rule="evenodd" clip-rule="evenodd" d="M142 351C146.971 351 151 346.971 151 342C151 337.029 146.971 333 142 333C137.029 333 133 337.029 133 342C133 346.971 137.029 351 142 351Z" fill="white"/>
<path d="M112.918 111.969C113.039 111.969 113.128 111.985 113.184 112.018C113.245 112.046 113.312 112.107 113.387 112.2L119.197 119.76C119.183 119.639 119.174 119.522 119.169 119.41C119.164 119.293 119.162 119.181 119.162 119.074V111.969H120.352V122H119.666C119.559 122 119.468 121.981 119.393 121.944C119.323 121.907 119.253 121.844 119.183 121.755L113.38 114.202C113.389 114.319 113.396 114.433 113.401 114.545C113.406 114.657 113.408 114.76 113.408 114.853V122H112.218V111.969H112.918ZM127.812 122H127.259C127.138 122 127.04 121.981 126.965 121.944C126.89 121.907 126.841 121.827 126.818 121.706L126.678 121.048C126.491 121.216 126.309 121.368 126.132 121.503C125.955 121.634 125.768 121.746 125.572 121.839C125.376 121.928 125.166 121.995 124.942 122.042C124.723 122.089 124.478 122.112 124.207 122.112C123.932 122.112 123.673 122.075 123.43 122C123.192 121.921 122.984 121.804 122.807 121.65C122.63 121.496 122.487 121.302 122.38 121.069C122.277 120.831 122.226 120.551 122.226 120.229C122.226 119.949 122.303 119.681 122.457 119.424C122.611 119.163 122.858 118.932 123.199 118.731C123.544 118.53 123.995 118.367 124.55 118.241C125.105 118.11 125.784 118.036 126.587 118.017V117.464C126.587 116.913 126.468 116.498 126.23 116.218C125.997 115.933 125.649 115.791 125.187 115.791C124.884 115.791 124.627 115.831 124.417 115.91C124.212 115.985 124.032 116.071 123.878 116.169C123.729 116.262 123.598 116.349 123.486 116.428C123.379 116.503 123.271 116.54 123.164 116.54C123.08 116.54 123.005 116.519 122.94 116.477C122.879 116.43 122.83 116.374 122.793 116.309L122.569 115.91C122.961 115.532 123.383 115.25 123.836 115.063C124.289 114.876 124.79 114.783 125.341 114.783C125.738 114.783 126.09 114.848 126.398 114.979C126.706 115.11 126.965 115.292 127.175 115.525C127.385 115.758 127.544 116.041 127.651 116.372C127.758 116.703 127.812 117.067 127.812 117.464V122ZM124.578 121.237C124.797 121.237 124.998 121.216 125.18 121.174C125.362 121.127 125.532 121.064 125.691 120.985C125.854 120.901 126.008 120.801 126.153 120.684C126.302 120.567 126.447 120.434 126.587 120.285V118.808C126.013 118.827 125.525 118.873 125.124 118.948C124.723 119.018 124.396 119.111 124.144 119.228C123.892 119.345 123.708 119.482 123.591 119.641C123.479 119.8 123.423 119.977 123.423 120.173C123.423 120.36 123.453 120.521 123.514 120.656C123.575 120.791 123.656 120.903 123.759 120.992C123.862 121.076 123.983 121.139 124.123 121.181C124.263 121.218 124.415 121.237 124.578 121.237ZM129.7 122V114.909H130.442C130.619 114.909 130.731 114.995 130.778 115.168L130.869 115.896C131.13 115.574 131.422 115.31 131.744 115.105C132.07 114.9 132.448 114.797 132.878 114.797C133.358 114.797 133.746 114.93 134.04 115.196C134.338 115.462 134.553 115.821 134.684 116.274C134.782 116.017 134.91 115.796 135.069 115.609C135.232 115.422 135.414 115.268 135.615 115.147C135.815 115.026 136.028 114.937 136.252 114.881C136.48 114.825 136.711 114.797 136.945 114.797C137.318 114.797 137.649 114.858 137.939 114.979C138.233 115.096 138.48 115.268 138.681 115.497C138.886 115.726 139.042 116.008 139.15 116.344C139.257 116.675 139.311 117.056 139.311 117.485V122H138.065V117.485C138.065 116.93 137.943 116.51 137.701 116.225C137.458 115.936 137.106 115.791 136.644 115.791C136.438 115.791 136.242 115.828 136.056 115.903C135.874 115.973 135.713 116.078 135.573 116.218C135.433 116.358 135.321 116.535 135.237 116.75C135.157 116.96 135.118 117.205 135.118 117.485V122H133.872V117.485C133.872 116.916 133.757 116.491 133.529 116.211C133.3 115.931 132.966 115.791 132.528 115.791C132.22 115.791 131.933 115.875 131.667 116.043C131.405 116.206 131.165 116.43 130.946 116.715V122H129.7ZM144.005 114.797C144.429 114.797 144.821 114.869 145.181 115.014C145.54 115.154 145.85 115.359 146.112 115.63C146.373 115.896 146.576 116.227 146.721 116.624C146.87 117.016 146.945 117.464 146.945 117.968C146.945 118.164 146.924 118.295 146.882 118.36C146.84 118.425 146.76 118.458 146.644 118.458H141.926C141.935 118.906 141.996 119.296 142.108 119.627C142.22 119.958 142.374 120.236 142.57 120.46C142.766 120.679 142.999 120.845 143.27 120.957C143.54 121.064 143.844 121.118 144.18 121.118C144.492 121.118 144.761 121.083 144.985 121.013C145.213 120.938 145.409 120.859 145.573 120.775C145.736 120.691 145.871 120.614 145.979 120.544C146.091 120.469 146.186 120.432 146.266 120.432C146.368 120.432 146.448 120.472 146.504 120.551L146.854 121.006C146.7 121.193 146.515 121.356 146.301 121.496C146.086 121.631 145.855 121.743 145.608 121.832C145.365 121.921 145.113 121.986 144.852 122.028C144.59 122.075 144.331 122.098 144.075 122.098C143.585 122.098 143.132 122.016 142.717 121.853C142.306 121.685 141.949 121.442 141.646 121.125C141.347 120.803 141.114 120.406 140.946 119.935C140.778 119.464 140.694 118.922 140.694 118.311C140.694 117.816 140.768 117.354 140.918 116.925C141.072 116.496 141.291 116.125 141.576 115.812C141.86 115.495 142.208 115.247 142.619 115.07C143.029 114.888 143.491 114.797 144.005 114.797ZM144.033 115.714C143.431 115.714 142.957 115.889 142.612 116.239C142.266 116.584 142.052 117.065 141.968 117.681H145.825C145.825 117.392 145.785 117.128 145.706 116.89C145.626 116.647 145.51 116.44 145.356 116.267C145.202 116.09 145.013 115.954 144.789 115.861C144.569 115.763 144.317 115.714 144.033 115.714Z" fill="black"/>
<path d="M120.471 190H119.421C119.3 190 119.202 189.97 119.127 189.909C119.052 189.848 118.996 189.771 118.959 189.678L118.021 187.256H113.52L112.582 189.678C112.549 189.762 112.493 189.837 112.414 189.902C112.335 189.967 112.237 190 112.12 190H111.07L115.081 179.969H116.46L120.471 190ZM113.898 186.276H117.643L116.068 182.195C115.965 181.943 115.865 181.628 115.767 181.25C115.716 181.441 115.664 181.619 115.613 181.782C115.566 181.941 115.52 182.081 115.473 182.202L113.898 186.276ZM126.375 184.169C126.337 184.22 126.3 184.26 126.263 184.288C126.225 184.316 126.172 184.33 126.102 184.33C126.032 184.33 125.955 184.302 125.871 184.246C125.791 184.185 125.689 184.12 125.563 184.05C125.437 183.98 125.283 183.917 125.101 183.861C124.923 183.8 124.704 183.77 124.443 183.77C124.097 183.77 123.792 183.833 123.526 183.959C123.26 184.08 123.036 184.258 122.854 184.491C122.676 184.724 122.541 185.007 122.448 185.338C122.359 185.669 122.315 186.04 122.315 186.451C122.315 186.88 122.364 187.263 122.462 187.599C122.56 187.93 122.697 188.21 122.875 188.439C123.052 188.663 123.267 188.836 123.519 188.957C123.775 189.074 124.062 189.132 124.38 189.132C124.683 189.132 124.933 189.097 125.129 189.027C125.325 188.952 125.488 188.871 125.619 188.782C125.749 188.693 125.857 188.614 125.941 188.544C126.025 188.469 126.109 188.432 126.193 188.432C126.3 188.432 126.379 188.472 126.431 188.551L126.781 189.006C126.473 189.384 126.088 189.662 125.626 189.839C125.164 190.012 124.676 190.098 124.163 190.098C123.719 190.098 123.306 190.016 122.924 189.853C122.546 189.69 122.217 189.454 121.937 189.146C121.657 188.833 121.435 188.451 121.272 187.998C121.113 187.545 121.034 187.03 121.034 186.451C121.034 185.924 121.106 185.436 121.251 184.988C121.4 184.54 121.615 184.155 121.895 183.833C122.179 183.506 122.529 183.252 122.945 183.07C123.36 182.888 123.836 182.797 124.373 182.797C124.867 182.797 125.306 182.879 125.689 183.042C126.071 183.201 126.41 183.427 126.704 183.721L126.375 184.169ZM132.91 184.169C132.872 184.22 132.835 184.26 132.798 184.288C132.76 184.316 132.707 184.33 132.637 184.33C132.567 184.33 132.49 184.302 132.406 184.246C132.326 184.185 132.224 184.12 132.098 184.05C131.972 183.98 131.818 183.917 131.636 183.861C131.458 183.8 131.239 183.77 130.978 183.77C130.632 183.77 130.327 183.833 130.061 183.959C129.795 184.08 129.571 184.258 129.389 184.491C129.211 184.724 129.076 185.007 128.983 185.338C128.894 185.669 128.85 186.04 128.85 186.451C128.85 186.88 128.899 187.263 128.997 187.599C129.095 187.93 129.232 188.21 129.41 188.439C129.587 188.663 129.802 188.836 130.054 188.957C130.31 189.074 130.597 189.132 130.915 189.132C131.218 189.132 131.468 189.097 131.664 189.027C131.86 188.952 132.023 188.871 132.154 188.782C132.284 188.693 132.392 188.614 132.476 188.544C132.56 188.469 132.644 188.432 132.728 188.432C132.835 188.432 132.914 188.472 132.966 188.551L133.316 189.006C133.008 189.384 132.623 189.662 132.161 189.839C131.699 190.012 131.211 190.098 130.698 190.098C130.254 190.098 129.841 190.016 129.459 189.853C129.081 189.69 128.752 189.454 128.472 189.146C128.192 188.833 127.97 188.451 127.807 187.998C127.648 187.545 127.569 187.03 127.569 186.451C127.569 185.924 127.641 185.436 127.786 184.988C127.935 184.54 128.15 184.155 128.43 183.833C128.714 183.506 129.064 183.252 129.48 183.07C129.895 182.888 130.371 182.797 130.908 182.797C131.402 182.797 131.841 182.879 132.224 183.042C132.606 183.201 132.945 183.427 133.239 183.721L132.91 184.169ZM137.478 182.797C137.996 182.797 138.463 182.883 138.878 183.056C139.298 183.229 139.653 183.474 139.942 183.791C140.236 184.108 140.46 184.493 140.614 184.946C140.773 185.394 140.852 185.896 140.852 186.451C140.852 187.011 140.773 187.515 140.614 187.963C140.46 188.411 140.236 188.794 139.942 189.111C139.653 189.428 139.298 189.673 138.878 189.846C138.463 190.014 137.996 190.098 137.478 190.098C136.96 190.098 136.491 190.014 136.071 189.846C135.656 189.673 135.301 189.428 135.007 189.111C134.713 188.794 134.487 188.411 134.328 187.963C134.169 187.515 134.09 187.011 134.09 186.451C134.09 185.896 134.169 185.394 134.328 184.946C134.487 184.493 134.713 184.108 135.007 183.791C135.301 183.474 135.656 183.229 136.071 183.056C136.491 182.883 136.96 182.797 137.478 182.797ZM137.478 189.125C138.178 189.125 138.701 188.892 139.046 188.425C139.391 187.954 139.564 187.298 139.564 186.458C139.564 185.613 139.391 184.955 139.046 184.484C138.701 184.013 138.178 183.777 137.478 183.777C137.123 183.777 136.815 183.838 136.554 183.959C136.293 184.08 136.073 184.255 135.896 184.484C135.723 184.713 135.593 184.995 135.504 185.331C135.42 185.662 135.378 186.038 135.378 186.458C135.378 186.878 135.42 187.254 135.504 187.585C135.593 187.916 135.723 188.196 135.896 188.425C136.073 188.649 136.293 188.822 136.554 188.943C136.815 189.064 137.123 189.125 137.478 189.125ZM143.465 182.909V187.431C143.465 187.968 143.589 188.383 143.836 188.677C144.084 188.971 144.457 189.118 144.956 189.118C145.32 189.118 145.663 189.032 145.985 188.859C146.307 188.686 146.604 188.446 146.874 188.138V182.909H148.12V190H147.378C147.201 190 147.089 189.914 147.042 189.741L146.944 188.978C146.636 189.319 146.291 189.594 145.908 189.804C145.526 190.009 145.087 190.112 144.592 190.112C144.205 190.112 143.862 190.049 143.563 189.923C143.269 189.792 143.022 189.61 142.821 189.377C142.621 189.144 142.469 188.861 142.366 188.53C142.268 188.199 142.219 187.832 142.219 187.431V182.909H143.465ZM150.167 190V182.909H150.909C151.086 182.909 151.198 182.995 151.245 183.168L151.343 183.938C151.651 183.597 151.994 183.322 152.372 183.112C152.754 182.902 153.195 182.797 153.695 182.797C154.082 182.797 154.423 182.862 154.717 182.993C155.015 183.119 155.263 183.301 155.459 183.539C155.659 183.772 155.811 184.055 155.914 184.386C156.016 184.717 156.068 185.084 156.068 185.485V190H154.822V185.485C154.822 184.948 154.698 184.533 154.451 184.239C154.208 183.94 153.835 183.791 153.331 183.791C152.962 183.791 152.617 183.88 152.295 184.057C151.977 184.234 151.683 184.475 151.413 184.778V190H150.167ZM160.095 190.112C159.535 190.112 159.103 189.956 158.8 189.643C158.501 189.33 158.352 188.88 158.352 188.292V183.952H157.498C157.423 183.952 157.36 183.931 157.309 183.889C157.257 183.842 157.232 183.772 157.232 183.679V183.182L158.394 183.035L158.681 180.844C158.69 180.774 158.72 180.718 158.772 180.676C158.823 180.629 158.888 180.606 158.968 180.606H159.598V183.049H161.628V183.952H159.598V188.208C159.598 188.507 159.67 188.728 159.815 188.873C159.959 189.018 160.146 189.09 160.375 189.09C160.505 189.09 160.617 189.074 160.711 189.041C160.809 189.004 160.893 188.964 160.963 188.922C161.033 188.88 161.091 188.843 161.138 188.81C161.189 188.773 161.233 188.754 161.271 188.754C161.336 188.754 161.394 188.794 161.446 188.873L161.81 189.468C161.595 189.669 161.336 189.827 161.033 189.944C160.729 190.056 160.417 190.112 160.095 190.112ZM167.43 188.859H171.77V190H166.072V179.969H167.43V188.859ZM178.275 190H177.722C177.601 190 177.503 189.981 177.428 189.944C177.353 189.907 177.304 189.827 177.281 189.706L177.141 189.048C176.954 189.216 176.772 189.368 176.595 189.503C176.418 189.634 176.231 189.746 176.035 189.839C175.839 189.928 175.629 189.995 175.405 190.042C175.186 190.089 174.941 190.112 174.67 190.112C174.395 190.112 174.136 190.075 173.893 190C173.655 189.921 173.447 189.804 173.27 189.65C173.093 189.496 172.95 189.302 172.843 189.069C172.74 188.831 172.689 188.551 172.689 188.229C172.689 187.949 172.766 187.681 172.92 187.424C173.074 187.163 173.321 186.932 173.662 186.731C174.007 186.53 174.458 186.367 175.013 186.241C175.568 186.11 176.247 186.036 177.05 186.017V185.464C177.05 184.913 176.931 184.498 176.693 184.218C176.46 183.933 176.112 183.791 175.65 183.791C175.347 183.791 175.09 183.831 174.88 183.91C174.675 183.985 174.495 184.071 174.341 184.169C174.192 184.262 174.061 184.349 173.949 184.428C173.842 184.503 173.734 184.54 173.627 184.54C173.543 184.54 173.468 184.519 173.403 184.477C173.342 184.43 173.293 184.374 173.256 184.309L173.032 183.91C173.424 183.532 173.846 183.25 174.299 183.063C174.752 182.876 175.253 182.783 175.804 182.783C176.201 182.783 176.553 182.848 176.861 182.979C177.169 183.11 177.428 183.292 177.638 183.525C177.848 183.758 178.007 184.041 178.114 184.372C178.221 184.703 178.275 185.067 178.275 185.464V190ZM175.041 189.237C175.26 189.237 175.461 189.216 175.643 189.174C175.825 189.127 175.995 189.064 176.154 188.985C176.317 188.901 176.471 188.801 176.616 188.684C176.765 188.567 176.91 188.434 177.05 188.285V186.808C176.476 186.827 175.988 186.873 175.587 186.948C175.186 187.018 174.859 187.111 174.607 187.228C174.355 187.345 174.171 187.482 174.054 187.641C173.942 187.8 173.886 187.977 173.886 188.173C173.886 188.36 173.916 188.521 173.977 188.656C174.038 188.791 174.119 188.903 174.222 188.992C174.325 189.076 174.446 189.139 174.586 189.181C174.726 189.218 174.878 189.237 175.041 189.237ZM180.205 190V179.689H181.458V183.931C181.752 183.59 182.088 183.317 182.466 183.112C182.848 182.902 183.285 182.797 183.775 182.797C184.185 182.797 184.556 182.874 184.888 183.028C185.219 183.182 185.501 183.413 185.735 183.721C185.968 184.024 186.148 184.402 186.274 184.855C186.4 185.303 186.463 185.821 186.463 186.409C186.463 186.932 186.393 187.419 186.253 187.872C186.113 188.32 185.91 188.71 185.644 189.041C185.382 189.368 185.06 189.627 184.678 189.818C184.3 190.005 183.873 190.098 183.397 190.098C182.939 190.098 182.55 190.009 182.228 189.832C181.91 189.655 181.633 189.407 181.395 189.09L181.332 189.734C181.294 189.911 181.187 190 181.01 190H180.205ZM183.369 183.791C182.963 183.791 182.606 183.884 182.298 184.071C181.994 184.258 181.714 184.521 181.458 184.862V188.292C181.682 188.6 181.929 188.817 182.2 188.943C182.475 189.069 182.781 189.132 183.117 189.132C183.779 189.132 184.288 188.896 184.643 188.425C184.997 187.954 185.175 187.282 185.175 186.409C185.175 185.947 185.133 185.55 185.049 185.219C184.969 184.888 184.853 184.617 184.699 184.407C184.545 184.192 184.356 184.036 184.132 183.938C183.908 183.84 183.653 183.791 183.369 183.791ZM190.79 182.797C191.215 182.797 191.607 182.869 191.966 183.014C192.325 183.154 192.636 183.359 192.897 183.63C193.158 183.896 193.361 184.227 193.506 184.624C193.655 185.016 193.73 185.464 193.73 185.968C193.73 186.164 193.709 186.295 193.667 186.36C193.625 186.425 193.546 186.458 193.429 186.458H188.711C188.72 186.906 188.781 187.296 188.893 187.627C189.005 187.958 189.159 188.236 189.355 188.46C189.551 188.679 189.784 188.845 190.055 188.957C190.326 189.064 190.629 189.118 190.965 189.118C191.278 189.118 191.546 189.083 191.77 189.013C191.999 188.938 192.195 188.859 192.358 188.775C192.521 188.691 192.657 188.614 192.764 188.544C192.876 188.469 192.972 188.432 193.051 188.432C193.154 188.432 193.233 188.472 193.289 188.551L193.639 189.006C193.485 189.193 193.301 189.356 193.086 189.496C192.871 189.631 192.64 189.743 192.393 189.832C192.15 189.921 191.898 189.986 191.637 190.028C191.376 190.075 191.117 190.098 190.86 190.098C190.37 190.098 189.917 190.016 189.502 189.853C189.091 189.685 188.734 189.442 188.431 189.125C188.132 188.803 187.899 188.406 187.731 187.935C187.563 187.464 187.479 186.922 187.479 186.311C187.479 185.816 187.554 185.354 187.703 184.925C187.857 184.496 188.076 184.125 188.361 183.812C188.646 183.495 188.993 183.247 189.404 183.07C189.815 182.888 190.277 182.797 190.79 182.797ZM190.818 183.714C190.216 183.714 189.742 183.889 189.397 184.239C189.052 184.584 188.837 185.065 188.753 185.681H192.61C192.61 185.392 192.57 185.128 192.491 184.89C192.412 184.647 192.295 184.44 192.141 184.267C191.987 184.09 191.798 183.954 191.574 183.861C191.355 183.763 191.103 183.714 190.818 183.714ZM196.711 179.689V190H195.465V179.689H196.711Z" fill="black"/>
<path d="M118.05 248.969V250.11H114.809V259H113.451V250.11H110.196V248.969H118.05ZM120.101 261.093C120.059 261.186 120.005 261.261 119.94 261.317C119.879 261.373 119.784 261.401 119.653 261.401H118.729L120.024 258.587L117.098 251.909H118.176C118.283 251.909 118.367 251.937 118.428 251.993C118.489 252.044 118.533 252.103 118.561 252.168L120.458 256.634C120.5 256.737 120.535 256.839 120.563 256.942C120.596 257.045 120.624 257.15 120.647 257.257C120.68 257.15 120.712 257.045 120.745 256.942C120.778 256.839 120.815 256.734 120.857 256.627L122.698 252.168C122.726 252.093 122.773 252.033 122.838 251.986C122.908 251.935 122.983 251.909 123.062 251.909H124.056L120.101 261.093ZM125.186 261.401V251.909H125.928C126.105 251.909 126.217 251.995 126.264 252.168L126.369 253.008C126.672 252.639 127.018 252.343 127.405 252.119C127.797 251.895 128.247 251.783 128.756 251.783C129.162 251.783 129.531 251.862 129.862 252.021C130.193 252.175 130.476 252.406 130.709 252.714C130.942 253.017 131.122 253.395 131.248 253.848C131.374 254.301 131.437 254.821 131.437 255.409C131.437 255.932 131.367 256.419 131.227 256.872C131.087 257.32 130.886 257.71 130.625 258.041C130.364 258.368 130.042 258.627 129.659 258.818C129.281 259.005 128.854 259.098 128.378 259.098C127.939 259.098 127.564 259.026 127.251 258.881C126.943 258.736 126.67 258.531 126.432 258.265V261.401H125.186ZM128.343 252.791C127.937 252.791 127.58 252.884 127.272 253.071C126.969 253.258 126.689 253.521 126.432 253.862V257.292C126.661 257.6 126.91 257.817 127.181 257.943C127.456 258.069 127.762 258.132 128.098 258.132C128.756 258.132 129.262 257.896 129.617 257.425C129.972 256.954 130.149 256.282 130.149 255.409C130.149 254.947 130.107 254.55 130.023 254.219C129.944 253.888 129.827 253.617 129.673 253.407C129.519 253.192 129.33 253.036 129.106 252.938C128.882 252.84 128.628 252.791 128.343 252.791ZM135.718 251.797C136.142 251.797 136.534 251.869 136.894 252.014C137.253 252.154 137.563 252.359 137.825 252.63C138.086 252.896 138.289 253.227 138.434 253.624C138.583 254.016 138.658 254.464 138.658 254.968C138.658 255.164 138.637 255.295 138.595 255.36C138.553 255.425 138.473 255.458 138.357 255.458H133.639C133.648 255.906 133.709 256.296 133.821 256.627C133.933 256.958 134.087 257.236 134.283 257.46C134.479 257.679 134.712 257.845 134.983 257.957C135.253 258.064 135.557 258.118 135.893 258.118C136.205 258.118 136.474 258.083 136.698 258.013C136.926 257.938 137.122 257.859 137.286 257.775C137.449 257.691 137.584 257.614 137.692 257.544C137.804 257.469 137.899 257.432 137.979 257.432C138.081 257.432 138.161 257.472 138.217 257.551L138.567 258.006C138.413 258.193 138.228 258.356 138.014 258.496C137.799 258.631 137.568 258.743 137.321 258.832C137.078 258.921 136.826 258.986 136.565 259.028C136.303 259.075 136.044 259.098 135.788 259.098C135.298 259.098 134.845 259.016 134.43 258.853C134.019 258.685 133.662 258.442 133.359 258.125C133.06 257.803 132.827 257.406 132.659 256.935C132.491 256.464 132.407 255.922 132.407 255.311C132.407 254.816 132.481 254.354 132.631 253.925C132.785 253.496 133.004 253.125 133.289 252.812C133.573 252.495 133.921 252.247 134.332 252.07C134.742 251.888 135.204 251.797 135.718 251.797ZM135.746 252.714C135.144 252.714 134.67 252.889 134.325 253.239C133.979 253.584 133.765 254.065 133.681 254.681H137.538C137.538 254.392 137.498 254.128 137.419 253.89C137.339 253.647 137.223 253.44 137.069 253.267C136.915 253.09 136.726 252.954 136.502 252.861C136.282 252.763 136.03 252.714 135.746 252.714Z" fill="black"/>
<path d="M175.471 346H174.421C174.3 346 174.202 345.97 174.127 345.909C174.052 345.848 173.996 345.771 173.959 345.678L173.021 343.256H168.52L167.582 345.678C167.549 345.762 167.493 345.837 167.414 345.902C167.335 345.967 167.237 346 167.12 346H166.07L170.081 335.969H171.46L175.471 346ZM168.898 342.276H172.643L171.068 338.195C170.965 337.943 170.865 337.628 170.767 337.25C170.716 337.441 170.664 337.619 170.613 337.782C170.566 337.941 170.52 338.081 170.473 338.202L168.898 342.276ZM181.375 340.169C181.337 340.22 181.3 340.26 181.263 340.288C181.225 340.316 181.172 340.33 181.102 340.33C181.032 340.33 180.955 340.302 180.871 340.246C180.791 340.185 180.689 340.12 180.563 340.05C180.437 339.98 180.283 339.917 180.101 339.861C179.923 339.8 179.704 339.77 179.443 339.77C179.097 339.77 178.792 339.833 178.526 339.959C178.26 340.08 178.036 340.258 177.854 340.491C177.676 340.724 177.541 341.007 177.448 341.338C177.359 341.669 177.315 342.04 177.315 342.451C177.315 342.88 177.364 343.263 177.462 343.599C177.56 343.93 177.697 344.21 177.875 344.439C178.052 344.663 178.267 344.836 178.519 344.957C178.775 345.074 179.062 345.132 179.38 345.132C179.683 345.132 179.933 345.097 180.129 345.027C180.325 344.952 180.488 344.871 180.619 344.782C180.749 344.693 180.857 344.614 180.941 344.544C181.025 344.469 181.109 344.432 181.193 344.432C181.3 344.432 181.379 344.472 181.431 344.551L181.781 345.006C181.473 345.384 181.088 345.662 180.626 345.839C180.164 346.012 179.676 346.098 179.163 346.098C178.719 346.098 178.306 346.016 177.924 345.853C177.546 345.69 177.217 345.454 176.937 345.146C176.657 344.833 176.435 344.451 176.272 343.998C176.113 343.545 176.034 343.03 176.034 342.451C176.034 341.924 176.106 341.436 176.251 340.988C176.4 340.54 176.615 340.155 176.895 339.833C177.179 339.506 177.529 339.252 177.945 339.07C178.36 338.888 178.836 338.797 179.373 338.797C179.867 338.797 180.306 338.879 180.689 339.042C181.071 339.201 181.41 339.427 181.704 339.721L181.375 340.169ZM187.91 340.169C187.872 340.22 187.835 340.26 187.798 340.288C187.76 340.316 187.707 340.33 187.637 340.33C187.567 340.33 187.49 340.302 187.406 340.246C187.326 340.185 187.224 340.12 187.098 340.05C186.972 339.98 186.818 339.917 186.636 339.861C186.458 339.8 186.239 339.77 185.978 339.77C185.632 339.77 185.327 339.833 185.061 339.959C184.795 340.08 184.571 340.258 184.389 340.491C184.211 340.724 184.076 341.007 183.983 341.338C183.894 341.669 183.85 342.04 183.85 342.451C183.85 342.88 183.899 343.263 183.997 343.599C184.095 343.93 184.232 344.21 184.41 344.439C184.587 344.663 184.802 344.836 185.054 344.957C185.31 345.074 185.597 345.132 185.915 345.132C186.218 345.132 186.468 345.097 186.664 345.027C186.86 344.952 187.023 344.871 187.154 344.782C187.284 344.693 187.392 344.614 187.476 344.544C187.56 344.469 187.644 344.432 187.728 344.432C187.835 344.432 187.914 344.472 187.966 344.551L188.316 345.006C188.008 345.384 187.623 345.662 187.161 345.839C186.699 346.012 186.211 346.098 185.698 346.098C185.254 346.098 184.841 346.016 184.459 345.853C184.081 345.69 183.752 345.454 183.472 345.146C183.192 344.833 182.97 344.451 182.807 343.998C182.648 343.545 182.569 343.03 182.569 342.451C182.569 341.924 182.641 341.436 182.786 340.988C182.935 340.54 183.15 340.155 183.43 339.833C183.714 339.506 184.064 339.252 184.48 339.07C184.895 338.888 185.371 338.797 185.908 338.797C186.402 338.797 186.841 338.879 187.224 339.042C187.606 339.201 187.945 339.427 188.239 339.721L187.91 340.169ZM192.415 338.797C192.84 338.797 193.232 338.869 193.591 339.014C193.95 339.154 194.261 339.359 194.522 339.63C194.783 339.896 194.986 340.227 195.131 340.624C195.28 341.016 195.355 341.464 195.355 341.968C195.355 342.164 195.334 342.295 195.292 342.36C195.25 342.425 195.171 342.458 195.054 342.458H190.336C190.345 342.906 190.406 343.296 190.518 343.627C190.63 343.958 190.784 344.236 190.98 344.46C191.176 344.679 191.409 344.845 191.68 344.957C191.951 345.064 192.254 345.118 192.59 345.118C192.903 345.118 193.171 345.083 193.395 345.013C193.624 344.938 193.82 344.859 193.983 344.775C194.146 344.691 194.282 344.614 194.389 344.544C194.501 344.469 194.597 344.432 194.676 344.432C194.779 344.432 194.858 344.472 194.914 344.551L195.264 345.006C195.11 345.193 194.926 345.356 194.711 345.496C194.496 345.631 194.265 345.743 194.018 345.832C193.775 345.921 193.523 345.986 193.262 346.028C193.001 346.075 192.742 346.098 192.485 346.098C191.995 346.098 191.542 346.016 191.127 345.853C190.716 345.685 190.359 345.442 190.056 345.125C189.757 344.803 189.524 344.406 189.356 343.935C189.188 343.464 189.104 342.922 189.104 342.311C189.104 341.816 189.179 341.354 189.328 340.925C189.482 340.496 189.701 340.125 189.986 339.812C190.271 339.495 190.618 339.247 191.029 339.07C191.44 338.888 191.902 338.797 192.415 338.797ZM192.443 339.714C191.841 339.714 191.367 339.889 191.022 340.239C190.677 340.584 190.462 341.065 190.378 341.681H194.235C194.235 341.392 194.195 341.128 194.116 340.89C194.037 340.647 193.92 340.44 193.766 340.267C193.612 340.09 193.423 339.954 193.199 339.861C192.98 339.763 192.728 339.714 192.443 339.714ZM196.95 348.401V338.909H197.692C197.869 338.909 197.981 338.995 198.028 339.168L198.133 340.008C198.436 339.639 198.781 339.343 199.169 339.119C199.561 338.895 200.011 338.783 200.52 338.783C200.926 338.783 201.294 338.862 201.626 339.021C201.957 339.175 202.239 339.406 202.473 339.714C202.706 340.017 202.886 340.395 203.012 340.848C203.138 341.301 203.201 341.821 203.201 342.409C203.201 342.932 203.131 343.419 202.991 343.872C202.851 344.32 202.65 344.71 202.389 345.041C202.127 345.368 201.805 345.627 201.423 345.818C201.045 346.005 200.618 346.098 200.142 346.098C199.703 346.098 199.327 346.026 199.015 345.881C198.707 345.736 198.434 345.531 198.196 345.265V348.401H196.95ZM200.107 339.791C199.701 339.791 199.344 339.884 199.036 340.071C198.732 340.258 198.452 340.521 198.196 340.862V344.292C198.424 344.6 198.674 344.817 198.945 344.943C199.22 345.069 199.526 345.132 199.862 345.132C200.52 345.132 201.026 344.896 201.381 344.425C201.735 343.954 201.913 343.282 201.913 342.409C201.913 341.947 201.871 341.55 201.787 341.219C201.707 340.888 201.591 340.617 201.437 340.407C201.283 340.192 201.094 340.036 200.87 339.938C200.646 339.84 200.391 339.791 200.107 339.791ZM206.823 346.112C206.263 346.112 205.832 345.956 205.528 345.643C205.23 345.33 205.08 344.88 205.08 344.292V339.952H204.226C204.152 339.952 204.089 339.931 204.037 339.889C203.986 339.842 203.96 339.772 203.96 339.679V339.182L205.122 339.035L205.409 336.844C205.419 336.774 205.449 336.718 205.5 336.676C205.552 336.629 205.617 336.606 205.696 336.606H206.326V339.049H208.356V339.952H206.326V344.208C206.326 344.507 206.399 344.728 206.543 344.873C206.688 345.018 206.875 345.09 207.103 345.09C207.234 345.09 207.346 345.074 207.439 345.041C207.537 345.004 207.621 344.964 207.691 344.922C207.761 344.88 207.82 344.843 207.866 344.81C207.918 344.773 207.962 344.754 207.999 344.754C208.065 344.754 208.123 344.794 208.174 344.873L208.538 345.468C208.324 345.669 208.065 345.827 207.761 345.944C207.458 346.056 207.145 346.112 206.823 346.112ZM212.8 346V335.969H215.999C216.615 335.969 217.145 336.03 217.588 336.151C218.036 336.272 218.402 336.445 218.687 336.669C218.976 336.893 219.189 337.168 219.324 337.495C219.464 337.817 219.534 338.181 219.534 338.587C219.534 338.834 219.494 339.072 219.415 339.301C219.34 339.53 219.224 339.742 219.065 339.938C218.911 340.134 218.715 340.309 218.477 340.463C218.244 340.617 217.968 340.743 217.651 340.841C218.384 340.986 218.937 341.249 219.31 341.632C219.683 342.015 219.87 342.519 219.87 343.144C219.87 343.569 219.791 343.956 219.632 344.306C219.478 344.656 219.249 344.957 218.946 345.209C218.647 345.461 218.279 345.657 217.84 345.797C217.406 345.932 216.909 346 216.349 346H212.8ZM214.158 341.429V344.922H216.328C216.715 344.922 217.047 344.878 217.322 344.789C217.602 344.7 217.831 344.577 218.008 344.418C218.19 344.255 218.323 344.063 218.407 343.844C218.491 343.62 218.533 343.375 218.533 343.109C218.533 342.591 218.349 342.183 217.98 341.884C217.616 341.581 217.063 341.429 216.321 341.429H214.158ZM214.158 340.463H215.95C216.333 340.463 216.664 340.421 216.944 340.337C217.224 340.253 217.455 340.136 217.637 339.987C217.824 339.838 217.961 339.658 218.05 339.448C218.139 339.233 218.183 339 218.183 338.748C218.183 338.16 218.006 337.728 217.651 337.453C217.296 337.178 216.746 337.04 215.999 337.04H214.158V340.463ZM224.538 338.797C225.056 338.797 225.523 338.883 225.938 339.056C226.358 339.229 226.713 339.474 227.002 339.791C227.296 340.108 227.52 340.493 227.674 340.946C227.833 341.394 227.912 341.896 227.912 342.451C227.912 343.011 227.833 343.515 227.674 343.963C227.52 344.411 227.296 344.794 227.002 345.111C226.713 345.428 226.358 345.673 225.938 345.846C225.523 346.014 225.056 346.098 224.538 346.098C224.02 346.098 223.551 346.014 223.131 345.846C222.716 345.673 222.361 345.428 222.067 345.111C221.773 344.794 221.547 344.411 221.388 343.963C221.23 343.515 221.15 343.011 221.15 342.451C221.15 341.896 221.23 341.394 221.388 340.946C221.547 340.493 221.773 340.108 222.067 339.791C222.361 339.474 222.716 339.229 223.131 339.056C223.551 338.883 224.02 338.797 224.538 338.797ZM224.538 345.125C225.238 345.125 225.761 344.892 226.106 344.425C226.452 343.954 226.624 343.298 226.624 342.458C226.624 341.613 226.452 340.955 226.106 340.484C225.761 340.013 225.238 339.777 224.538 339.777C224.184 339.777 223.876 339.838 223.614 339.959C223.353 340.08 223.134 340.255 222.956 340.484C222.784 340.713 222.653 340.995 222.564 341.331C222.48 341.662 222.438 342.038 222.438 342.458C222.438 342.878 222.48 343.254 222.564 343.585C222.653 343.916 222.784 344.196 222.956 344.425C223.134 344.649 223.353 344.822 223.614 344.943C223.876 345.064 224.184 345.125 224.538 345.125ZM232.318 338.797C232.836 338.797 233.302 338.883 233.718 339.056C234.138 339.229 234.492 339.474 234.782 339.791C235.076 340.108 235.3 340.493 235.454 340.946C235.612 341.394 235.692 341.896 235.692 342.451C235.692 343.011 235.612 343.515 235.454 343.963C235.3 344.411 235.076 344.794 234.782 345.111C234.492 345.428 234.138 345.673 233.718 345.846C233.302 346.014 232.836 346.098 232.318 346.098C231.8 346.098 231.331 346.014 230.911 345.846C230.495 345.673 230.141 345.428 229.847 345.111C229.553 344.794 229.326 344.411 229.168 343.963C229.009 343.515 228.93 343.011 228.93 342.451C228.93 341.896 229.009 341.394 229.168 340.946C229.326 340.493 229.553 340.108 229.847 339.791C230.141 339.474 230.495 339.229 230.911 339.056C231.331 338.883 231.8 338.797 232.318 338.797ZM232.318 345.125C233.018 345.125 233.54 344.892 233.886 344.425C234.231 343.954 234.404 343.298 234.404 342.458C234.404 341.613 234.231 340.955 233.886 340.484C233.54 340.013 233.018 339.777 232.318 339.777C231.963 339.777 231.655 339.838 231.394 339.959C231.132 340.08 230.913 340.255 230.736 340.484C230.563 340.713 230.432 340.995 230.344 341.331C230.26 341.662 230.218 342.038 230.218 342.458C230.218 342.878 230.26 343.254 230.344 343.585C230.432 343.916 230.563 344.196 230.736 344.425C230.913 344.649 231.132 344.822 231.394 344.943C231.655 345.064 231.963 345.125 232.318 345.125ZM238.522 335.689V341.758H238.844C238.937 341.758 239.014 341.746 239.075 341.723C239.136 341.695 239.203 341.641 239.278 341.562L241.518 339.161C241.588 339.086 241.658 339.026 241.728 338.979C241.798 338.932 241.891 338.909 242.008 338.909H243.142L240.531 341.688C240.466 341.767 240.4 341.837 240.335 341.898C240.274 341.959 240.204 342.012 240.125 342.059C240.209 342.115 240.284 342.18 240.349 342.255C240.419 342.325 240.484 342.407 240.545 342.5L243.317 346H242.197C242.094 346 242.006 345.981 241.931 345.944C241.861 345.902 241.793 345.839 241.728 345.755L239.397 342.85C239.327 342.752 239.257 342.689 239.187 342.661C239.117 342.628 239.012 342.612 238.872 342.612H238.522V346H237.269V335.689H238.522ZM245.955 338.909V346H244.709V338.909H245.955ZM246.235 336.683C246.235 336.804 246.209 336.919 246.158 337.026C246.111 337.129 246.046 337.222 245.962 337.306C245.883 337.385 245.789 337.448 245.682 337.495C245.575 337.542 245.46 337.565 245.339 337.565C245.218 337.565 245.103 337.542 244.996 337.495C244.893 337.448 244.8 337.385 244.716 337.306C244.637 337.222 244.574 337.129 244.527 337.026C244.48 336.919 244.457 336.804 244.457 336.683C244.457 336.562 244.48 336.447 244.527 336.34C244.574 336.228 244.637 336.132 244.716 336.053C244.8 335.969 244.893 335.904 244.996 335.857C245.103 335.81 245.218 335.787 245.339 335.787C245.46 335.787 245.575 335.81 245.682 335.857C245.789 335.904 245.883 335.969 245.962 336.053C246.046 336.132 246.111 336.228 246.158 336.34C246.209 336.447 246.235 336.562 246.235 336.683ZM248.151 346V338.909H248.893C249.07 338.909 249.182 338.995 249.229 339.168L249.327 339.938C249.635 339.597 249.978 339.322 250.356 339.112C250.739 338.902 251.18 338.797 251.679 338.797C252.066 338.797 252.407 338.862 252.701 338.993C253 339.119 253.247 339.301 253.443 339.539C253.644 339.772 253.795 340.055 253.898 340.386C254.001 340.717 254.052 341.084 254.052 341.485V346H252.806V341.485C252.806 340.948 252.682 340.533 252.435 340.239C252.192 339.94 251.819 339.791 251.315 339.791C250.946 339.791 250.601 339.88 250.279 340.057C249.962 340.234 249.668 340.475 249.397 340.778V346H248.151ZM258.317 338.79C258.625 338.79 258.912 338.825 259.178 338.895C259.449 338.96 259.694 339.058 259.913 339.189H261.838V339.651C261.838 339.805 261.74 339.903 261.544 339.945L260.739 340.057C260.898 340.36 260.977 340.699 260.977 341.072C260.977 341.417 260.91 341.732 260.774 342.017C260.644 342.297 260.459 342.537 260.221 342.738C259.988 342.939 259.708 343.093 259.381 343.2C259.059 343.307 258.705 343.361 258.317 343.361C257.986 343.361 257.673 343.321 257.379 343.242C257.23 343.335 257.116 343.436 257.036 343.543C256.962 343.65 256.924 343.755 256.924 343.858C256.924 344.026 256.992 344.154 257.127 344.243C257.263 344.327 257.442 344.388 257.666 344.425C257.89 344.462 258.145 344.486 258.429 344.495C258.714 344.504 259.003 344.521 259.297 344.544C259.596 344.563 259.888 344.598 260.172 344.649C260.457 344.7 260.711 344.784 260.935 344.901C261.159 345.018 261.339 345.179 261.474 345.384C261.61 345.589 261.677 345.855 261.677 346.182C261.677 346.485 261.6 346.779 261.446 347.064C261.297 347.349 261.08 347.601 260.795 347.82C260.511 348.044 260.163 348.221 259.752 348.352C259.342 348.487 258.877 348.555 258.359 348.555C257.841 348.555 257.386 348.504 256.994 348.401C256.607 348.298 256.285 348.161 256.028 347.988C255.772 347.815 255.578 347.615 255.447 347.386C255.321 347.162 255.258 346.926 255.258 346.679C255.258 346.329 255.368 346.033 255.587 345.79C255.811 345.543 256.117 345.347 256.504 345.202C256.304 345.109 256.143 344.985 256.021 344.831C255.905 344.672 255.846 344.462 255.846 344.201C255.846 344.098 255.865 343.993 255.902 343.886C255.94 343.774 255.996 343.664 256.07 343.557C256.15 343.45 256.245 343.347 256.357 343.249C256.469 343.151 256.6 343.065 256.749 342.99C256.399 342.794 256.124 342.535 255.923 342.213C255.727 341.886 255.629 341.506 255.629 341.072C255.629 340.727 255.695 340.414 255.825 340.134C255.961 339.849 256.147 339.609 256.385 339.413C256.623 339.212 256.906 339.058 257.232 338.951C257.564 338.844 257.925 338.79 258.317 338.79ZM260.529 346.385C260.529 346.208 260.48 346.065 260.382 345.958C260.284 345.851 260.151 345.769 259.983 345.713C259.815 345.652 259.622 345.608 259.402 345.58C259.183 345.552 258.952 345.533 258.709 345.524C258.467 345.51 258.219 345.496 257.967 345.482C257.715 345.468 257.475 345.442 257.246 345.405C256.98 345.531 256.763 345.685 256.595 345.867C256.432 346.049 256.35 346.266 256.35 346.518C256.35 346.677 256.39 346.824 256.469 346.959C256.553 347.099 256.679 347.218 256.847 347.316C257.015 347.419 257.225 347.498 257.477 347.554C257.734 347.615 258.035 347.645 258.38 347.645C258.716 347.645 259.017 347.615 259.283 347.554C259.549 347.493 259.773 347.407 259.955 347.295C260.142 347.183 260.284 347.05 260.382 346.896C260.48 346.742 260.529 346.572 260.529 346.385ZM258.317 342.535C258.569 342.535 258.791 342.5 258.982 342.43C259.178 342.36 259.342 342.262 259.472 342.136C259.603 342.01 259.701 341.861 259.766 341.688C259.832 341.511 259.864 341.317 259.864 341.107C259.864 340.673 259.731 340.328 259.465 340.071C259.204 339.814 258.821 339.686 258.317 339.686C257.818 339.686 257.435 339.814 257.169 340.071C256.908 340.328 256.777 340.673 256.777 341.107C256.777 341.317 256.81 341.511 256.875 341.688C256.945 341.861 257.046 342.01 257.176 342.136C257.307 342.262 257.468 342.36 257.659 342.43C257.851 342.5 258.07 342.535 258.317 342.535ZM266.068 346V339.973L265.284 339.882C265.186 339.859 265.104 339.824 265.039 339.777C264.978 339.726 264.948 339.653 264.948 339.56V339.049H266.068V338.363C266.068 337.957 266.124 337.598 266.236 337.285C266.352 336.968 266.516 336.702 266.726 336.487C266.94 336.268 267.197 336.102 267.496 335.99C267.794 335.878 268.13 335.822 268.504 335.822C268.821 335.822 269.115 335.869 269.386 335.962L269.358 336.585C269.353 336.678 269.313 336.734 269.239 336.753C269.164 336.772 269.059 336.781 268.924 336.781H268.707C268.492 336.781 268.296 336.809 268.119 336.865C267.946 336.921 267.797 337.012 267.671 337.138C267.545 337.264 267.447 337.43 267.377 337.635C267.311 337.84 267.279 338.095 267.279 338.398V339.049H269.33V339.952H267.321V346H266.068ZM270.504 346V338.909H271.218C271.354 338.909 271.447 338.935 271.498 338.986C271.55 339.037 271.585 339.126 271.603 339.252L271.687 340.358C271.93 339.863 272.229 339.478 272.583 339.203C272.943 338.923 273.363 338.783 273.843 338.783C274.039 338.783 274.217 338.806 274.375 338.853C274.534 338.895 274.681 338.956 274.816 339.035L274.655 339.966C274.623 340.083 274.55 340.141 274.438 340.141C274.373 340.141 274.273 340.12 274.137 340.078C274.002 340.031 273.813 340.008 273.57 340.008C273.136 340.008 272.772 340.134 272.478 340.386C272.189 340.638 271.946 341.004 271.75 341.485V346H270.504ZM279.021 338.797C279.539 338.797 280.006 338.883 280.421 339.056C280.841 339.229 281.196 339.474 281.485 339.791C281.779 340.108 282.003 340.493 282.157 340.946C282.316 341.394 282.395 341.896 282.395 342.451C282.395 343.011 282.316 343.515 282.157 343.963C282.003 344.411 281.779 344.794 281.485 345.111C281.196 345.428 280.841 345.673 280.421 345.846C280.006 346.014 279.539 346.098 279.021 346.098C278.503 346.098 278.034 346.014 277.614 345.846C277.199 345.673 276.844 345.428 276.55 345.111C276.256 344.794 276.03 344.411 275.871 343.963C275.712 343.515 275.633 343.011 275.633 342.451C275.633 341.896 275.712 341.394 275.871 340.946C276.03 340.493 276.256 340.108 276.55 339.791C276.844 339.474 277.199 339.229 277.614 339.056C278.034 338.883 278.503 338.797 279.021 338.797ZM279.021 345.125C279.721 345.125 280.244 344.892 280.589 344.425C280.934 343.954 281.107 343.298 281.107 342.458C281.107 341.613 280.934 340.955 280.589 340.484C280.244 340.013 279.721 339.777 279.021 339.777C278.666 339.777 278.358 339.838 278.097 339.959C277.836 340.08 277.616 340.255 277.439 340.484C277.266 340.713 277.136 340.995 277.047 341.331C276.963 341.662 276.921 342.038 276.921 342.458C276.921 342.878 276.963 343.254 277.047 343.585C277.136 343.916 277.266 344.196 277.439 344.425C277.616 344.649 277.836 344.822 278.097 344.943C278.358 345.064 278.666 345.125 279.021 345.125ZM283.93 346V338.909H284.672C284.85 338.909 284.962 338.995 285.008 339.168L285.099 339.896C285.361 339.574 285.652 339.31 285.974 339.105C286.301 338.9 286.679 338.797 287.108 338.797C287.589 338.797 287.976 338.93 288.27 339.196C288.569 339.462 288.784 339.821 288.914 340.274C289.012 340.017 289.141 339.796 289.299 339.609C289.463 339.422 289.645 339.268 289.845 339.147C290.046 339.026 290.258 338.937 290.482 338.881C290.711 338.825 290.942 338.797 291.175 338.797C291.549 338.797 291.88 338.858 292.169 338.979C292.463 339.096 292.711 339.268 292.911 339.497C293.117 339.726 293.273 340.008 293.38 340.344C293.488 340.675 293.541 341.056 293.541 341.485V346H292.295V341.485C292.295 340.93 292.174 340.51 291.931 340.225C291.689 339.936 291.336 339.791 290.874 339.791C290.669 339.791 290.473 339.828 290.286 339.903C290.104 339.973 289.943 340.078 289.803 340.218C289.663 340.358 289.551 340.535 289.467 340.75C289.388 340.96 289.348 341.205 289.348 341.485V346H288.102V341.485C288.102 340.916 287.988 340.491 287.759 340.211C287.531 339.931 287.197 339.791 286.758 339.791C286.45 339.791 286.163 339.875 285.897 340.043C285.636 340.206 285.396 340.43 285.176 340.715V346H283.93ZM302.195 340.078C302.139 340.181 302.053 340.232 301.936 340.232C301.866 340.232 301.787 340.206 301.698 340.155C301.61 340.104 301.5 340.048 301.369 339.987C301.243 339.922 301.092 339.863 300.914 339.812C300.737 339.756 300.527 339.728 300.284 339.728C300.074 339.728 299.885 339.756 299.717 339.812C299.549 339.863 299.405 339.936 299.283 340.029C299.167 340.122 299.076 340.232 299.01 340.358C298.95 340.479 298.919 340.612 298.919 340.757C298.919 340.939 298.971 341.091 299.073 341.212C299.181 341.333 299.321 341.438 299.493 341.527C299.666 341.616 299.862 341.695 300.081 341.765C300.301 341.83 300.525 341.903 300.753 341.982C300.987 342.057 301.213 342.141 301.432 342.234C301.652 342.327 301.848 342.444 302.02 342.584C302.193 342.724 302.331 342.897 302.433 343.102C302.541 343.303 302.594 343.545 302.594 343.83C302.594 344.157 302.536 344.46 302.419 344.74C302.303 345.015 302.13 345.256 301.901 345.461C301.673 345.662 301.393 345.82 301.061 345.937C300.73 346.054 300.347 346.112 299.913 346.112C299.419 346.112 298.971 346.033 298.569 345.874C298.168 345.711 297.827 345.503 297.547 345.251L297.841 344.775C297.879 344.714 297.923 344.668 297.974 344.635C298.026 344.602 298.093 344.586 298.177 344.586C298.261 344.586 298.35 344.619 298.443 344.684C298.537 344.749 298.649 344.822 298.779 344.901C298.915 344.98 299.076 345.053 299.262 345.118C299.454 345.183 299.692 345.216 299.976 345.216C300.219 345.216 300.431 345.186 300.613 345.125C300.795 345.06 300.947 344.973 301.068 344.866C301.19 344.759 301.278 344.635 301.334 344.495C301.395 344.355 301.425 344.206 301.425 344.047C301.425 343.851 301.372 343.69 301.264 343.564C301.162 343.433 301.024 343.324 300.851 343.235C300.679 343.142 300.48 343.062 300.256 342.997C300.037 342.927 299.811 342.855 299.577 342.78C299.349 342.705 299.122 342.621 298.898 342.528C298.679 342.43 298.483 342.309 298.31 342.164C298.138 342.019 297.998 341.842 297.89 341.632C297.788 341.417 297.736 341.158 297.736 340.855C297.736 340.584 297.792 340.325 297.904 340.078C298.016 339.826 298.18 339.607 298.394 339.42C298.609 339.229 298.873 339.077 299.185 338.965C299.498 338.853 299.855 338.797 300.256 338.797C300.723 338.797 301.141 338.872 301.509 339.021C301.883 339.166 302.205 339.366 302.475 339.623L302.195 340.078ZM309.414 346H308.861C308.739 346 308.641 345.981 308.567 345.944C308.492 345.907 308.443 345.827 308.42 345.706L308.28 345.048C308.093 345.216 307.911 345.368 307.734 345.503C307.556 345.634 307.37 345.746 307.174 345.839C306.978 345.928 306.768 345.995 306.544 346.042C306.324 346.089 306.079 346.112 305.809 346.112C305.533 346.112 305.274 346.075 305.032 346C304.794 345.921 304.586 345.804 304.409 345.65C304.231 345.496 304.089 345.302 303.982 345.069C303.879 344.831 303.828 344.551 303.828 344.229C303.828 343.949 303.905 343.681 304.059 343.424C304.213 343.163 304.46 342.932 304.801 342.731C305.146 342.53 305.596 342.367 306.152 342.241C306.707 342.11 307.386 342.036 308.189 342.017V341.464C308.189 340.913 308.07 340.498 307.832 340.218C307.598 339.933 307.251 339.791 306.789 339.791C306.485 339.791 306.229 339.831 306.019 339.91C305.813 339.985 305.634 340.071 305.48 340.169C305.33 340.262 305.2 340.349 305.088 340.428C304.98 340.503 304.873 340.54 304.766 340.54C304.682 340.54 304.607 340.519 304.542 340.477C304.481 340.43 304.432 340.374 304.395 340.309L304.171 339.91C304.563 339.532 304.985 339.25 305.438 339.063C305.89 338.876 306.392 338.783 306.943 338.783C307.339 338.783 307.692 338.848 308 338.979C308.308 339.11 308.567 339.292 308.777 339.525C308.987 339.758 309.145 340.041 309.253 340.372C309.36 340.703 309.414 341.067 309.414 341.464V346ZM306.18 345.237C306.399 345.237 306.6 345.216 306.782 345.174C306.964 345.127 307.134 345.064 307.293 344.985C307.456 344.901 307.61 344.801 307.755 344.684C307.904 344.567 308.049 344.434 308.189 344.285V342.808C307.615 342.827 307.127 342.873 306.726 342.948C306.324 343.018 305.998 343.111 305.746 343.228C305.494 343.345 305.309 343.482 305.193 343.641C305.081 343.8 305.025 343.977 305.025 344.173C305.025 344.36 305.055 344.521 305.116 344.656C305.176 344.791 305.258 344.903 305.361 344.992C305.463 345.076 305.585 345.139 305.725 345.181C305.865 345.218 306.016 345.237 306.18 345.237ZM311.581 346V339.973L310.797 339.882C310.699 339.859 310.618 339.824 310.552 339.777C310.492 339.726 310.461 339.653 310.461 339.56V339.049H311.581V338.363C311.581 337.957 311.637 337.598 311.749 337.285C311.866 336.968 312.029 336.702 312.239 336.487C312.454 336.268 312.711 336.102 313.009 335.99C313.308 335.878 313.644 335.822 314.017 335.822C314.335 335.822 314.629 335.869 314.899 335.962L314.871 336.585C314.867 336.678 314.827 336.734 314.752 336.753C314.678 336.772 314.573 336.781 314.437 336.781H314.22C314.006 336.781 313.81 336.809 313.632 336.865C313.46 336.921 313.31 337.012 313.184 337.138C313.058 337.264 312.96 337.43 312.89 337.635C312.825 337.84 312.792 338.095 312.792 338.398V339.049H314.843V339.952H312.834V346H311.581ZM318.825 338.797C319.25 338.797 319.642 338.869 320.001 339.014C320.36 339.154 320.671 339.359 320.932 339.63C321.193 339.896 321.396 340.227 321.541 340.624C321.69 341.016 321.765 341.464 321.765 341.968C321.765 342.164 321.744 342.295 321.702 342.36C321.66 342.425 321.581 342.458 321.464 342.458H316.746C316.755 342.906 316.816 343.296 316.928 343.627C317.04 343.958 317.194 344.236 317.39 344.46C317.586 344.679 317.819 344.845 318.09 344.957C318.361 345.064 318.664 345.118 319 345.118C319.313 345.118 319.581 345.083 319.805 345.013C320.034 344.938 320.23 344.859 320.393 344.775C320.556 344.691 320.692 344.614 320.799 344.544C320.911 344.469 321.007 344.432 321.086 344.432C321.189 344.432 321.268 344.472 321.324 344.551L321.674 345.006C321.52 345.193 321.336 345.356 321.121 345.496C320.906 345.631 320.675 345.743 320.428 345.832C320.185 345.921 319.933 345.986 319.672 346.028C319.411 346.075 319.152 346.098 318.895 346.098C318.405 346.098 317.952 346.016 317.537 345.853C317.126 345.685 316.769 345.442 316.466 345.125C316.167 344.803 315.934 344.406 315.766 343.935C315.598 343.464 315.514 342.922 315.514 342.311C315.514 341.816 315.589 341.354 315.738 340.925C315.892 340.496 316.111 340.125 316.396 339.812C316.681 339.495 317.028 339.247 317.439 339.07C317.85 338.888 318.312 338.797 318.825 338.797ZM318.853 339.714C318.251 339.714 317.777 339.889 317.432 340.239C317.087 340.584 316.872 341.065 316.788 341.681H320.645C320.645 341.392 320.605 341.128 320.526 340.89C320.447 340.647 320.33 340.44 320.176 340.267C320.022 340.09 319.833 339.954 319.609 339.861C319.39 339.763 319.138 339.714 318.853 339.714Z" fill="black"/>
<path d="M114.583 57.986C114.691 57.986 114.781 57.992 114.853 58.004C114.925 58.01 114.988 58.028 115.042 58.058C115.102 58.082 115.159 58.121 115.213 58.175C115.267 58.223 115.327 58.289 115.393 58.373L122.224 67.076C122.2 66.866 122.182 66.662 122.17 66.464C122.164 66.26 122.161 66.071 122.161 65.897V57.986H124.294V71H123.043C122.851 71 122.692 70.97 122.566 70.91C122.44 70.85 122.317 70.742 122.197 70.586L115.393 61.919C115.411 62.111 115.423 62.303 115.429 62.495C115.441 62.681 115.447 62.852 115.447 63.008V71H113.314V57.986H114.583ZM130.609 61.622C131.191 61.622 131.725 61.715 132.211 61.901C132.703 62.087 133.126 62.36 133.48 62.72C133.834 63.074 134.11 63.512 134.308 64.034C134.506 64.55 134.605 65.141 134.605 65.807C134.605 65.975 134.596 66.116 134.578 66.23C134.566 66.338 134.539 66.425 134.497 66.491C134.461 66.551 134.41 66.596 134.344 66.626C134.278 66.65 134.194 66.662 134.092 66.662H128.386C128.452 67.61 128.707 68.306 129.151 68.75C129.595 69.194 130.183 69.416 130.915 69.416C131.275 69.416 131.584 69.374 131.842 69.29C132.106 69.206 132.334 69.113 132.526 69.011C132.724 68.909 132.895 68.816 133.039 68.732C133.189 68.648 133.333 68.606 133.471 68.606C133.561 68.606 133.639 68.624 133.705 68.66C133.771 68.696 133.828 68.747 133.876 68.813L134.524 69.623C134.278 69.911 134.002 70.154 133.696 70.352C133.39 70.544 133.069 70.7 132.733 70.82C132.403 70.934 132.064 71.015 131.716 71.063C131.374 71.111 131.041 71.135 130.717 71.135C130.075 71.135 129.478 71.03 128.926 70.82C128.374 70.604 127.894 70.289 127.486 69.875C127.078 69.455 126.757 68.939 126.523 68.327C126.289 67.709 126.172 66.995 126.172 66.185C126.172 65.555 126.274 64.964 126.478 64.412C126.682 63.854 126.973 63.371 127.351 62.963C127.735 62.549 128.2 62.222 128.746 61.982C129.298 61.742 129.919 61.622 130.609 61.622ZM130.654 63.215C130.006 63.215 129.499 63.398 129.133 63.764C128.767 64.13 128.533 64.649 128.431 65.321H132.607C132.607 65.033 132.568 64.763 132.49 64.511C132.412 64.253 132.292 64.028 132.13 63.836C131.968 63.644 131.764 63.494 131.518 63.386C131.272 63.272 130.984 63.215 130.654 63.215ZM135.284 61.766H137.048C137.216 61.766 137.357 61.805 137.471 61.883C137.585 61.961 137.657 62.06 137.687 62.18L139.01 67.112C139.082 67.382 139.139 67.646 139.181 67.904C139.229 68.162 139.274 68.42 139.316 68.678C139.382 68.42 139.451 68.162 139.523 67.904C139.601 67.646 139.682 67.382 139.766 67.112L141.296 62.162C141.332 62.042 141.404 61.943 141.512 61.865C141.62 61.787 141.746 61.748 141.89 61.748H142.871C143.033 61.748 143.168 61.787 143.276 61.865C143.384 61.943 143.456 62.042 143.492 62.162L145.004 67.202C145.082 67.46 145.151 67.712 145.211 67.958C145.277 68.198 145.34 68.441 145.4 68.687C145.442 68.429 145.487 68.171 145.535 67.913C145.589 67.655 145.655 67.388 145.733 67.112L147.101 62.18C147.131 62.06 147.203 61.961 147.317 61.883C147.431 61.805 147.563 61.766 147.713 61.766H149.396L146.471 71H144.68C144.488 71 144.35 70.868 144.266 70.604L142.601 65.267C142.547 65.093 142.496 64.919 142.448 64.745C142.406 64.565 142.37 64.388 142.34 64.214C142.304 64.394 142.265 64.574 142.223 64.754C142.181 64.928 142.133 65.105 142.079 65.285L140.396 70.604C140.312 70.868 140.15 71 139.91 71H138.209L135.284 61.766ZM162.461 57.986V59.912H156.692V63.521H161.237V65.384H156.692V69.065H162.461V71H154.253V57.986H162.461ZM166.615 66.239L163.582 61.766H165.724C165.886 61.766 166.006 61.79 166.084 61.838C166.162 61.88 166.231 61.952 166.291 62.054L168.226 65.141C168.256 65.039 168.292 64.937 168.334 64.835C168.382 64.733 168.439 64.631 168.505 64.529L170.062 62.099C170.134 61.985 170.209 61.901 170.287 61.847C170.365 61.793 170.461 61.766 170.575 61.766H172.618L169.576 66.14L172.744 71H170.602C170.44 71 170.308 70.958 170.206 70.874C170.11 70.79 170.029 70.694 169.963 70.586L168.001 67.373C167.947 67.589 167.872 67.769 167.776 67.913L166.048 70.586C165.982 70.688 165.901 70.784 165.805 70.874C165.709 70.958 165.589 71 165.445 71H163.456L166.615 66.239ZM174.149 74.015V61.766H175.508C175.652 61.766 175.775 61.799 175.877 61.865C175.979 61.931 176.045 62.033 176.075 62.171L176.255 63.026C176.627 62.6 177.053 62.255 177.533 61.991C178.019 61.727 178.586 61.595 179.234 61.595C179.738 61.595 180.197 61.7 180.611 61.91C181.031 62.12 181.391 62.426 181.691 62.828C181.997 63.224 182.231 63.716 182.393 64.304C182.561 64.886 182.645 65.555 182.645 66.311C182.645 67.001 182.552 67.64 182.366 68.228C182.18 68.816 181.913 69.326 181.565 69.758C181.223 70.19 180.806 70.529 180.314 70.775C179.828 71.015 179.282 71.135 178.676 71.135C178.154 71.135 177.71 71.057 177.344 70.901C176.984 70.739 176.66 70.517 176.372 70.235V74.015H174.149ZM178.469 63.35C178.007 63.35 177.611 63.449 177.281 63.647C176.957 63.839 176.654 64.112 176.372 64.466V68.606C176.624 68.918 176.897 69.137 177.191 69.263C177.491 69.383 177.812 69.443 178.154 69.443C178.49 69.443 178.793 69.38 179.063 69.254C179.339 69.128 179.57 68.936 179.756 68.678C179.948 68.42 180.095 68.096 180.197 67.706C180.299 67.31 180.35 66.845 180.35 66.311C180.35 65.771 180.305 65.315 180.215 64.943C180.131 64.565 180.008 64.259 179.846 64.025C179.684 63.791 179.486 63.62 179.252 63.512C179.024 63.404 178.763 63.35 178.469 63.35ZM188.143 61.622C188.725 61.622 189.259 61.715 189.745 61.901C190.237 62.087 190.66 62.36 191.014 62.72C191.368 63.074 191.644 63.512 191.842 64.034C192.04 64.55 192.139 65.141 192.139 65.807C192.139 65.975 192.13 66.116 192.112 66.23C192.1 66.338 192.073 66.425 192.031 66.491C191.995 66.551 191.944 66.596 191.878 66.626C191.812 66.65 191.728 66.662 191.626 66.662H185.92C185.986 67.61 186.241 68.306 186.685 68.75C187.129 69.194 187.717 69.416 188.449 69.416C188.809 69.416 189.118 69.374 189.376 69.29C189.64 69.206 189.868 69.113 190.06 69.011C190.258 68.909 190.429 68.816 190.573 68.732C190.723 68.648 190.867 68.606 191.005 68.606C191.095 68.606 191.173 68.624 191.239 68.66C191.305 68.696 191.362 68.747 191.41 68.813L192.058 69.623C191.812 69.911 191.536 70.154 191.23 70.352C190.924 70.544 190.603 70.7 190.267 70.82C189.937 70.934 189.598 71.015 189.25 71.063C188.908 71.111 188.575 71.135 188.251 71.135C187.609 71.135 187.012 71.03 186.46 70.82C185.908 70.604 185.428 70.289 185.02 69.875C184.612 69.455 184.291 68.939 184.057 68.327C183.823 67.709 183.706 66.995 183.706 66.185C183.706 65.555 183.808 64.964 184.012 64.412C184.216 63.854 184.507 63.371 184.885 62.963C185.269 62.549 185.734 62.222 186.28 61.982C186.832 61.742 187.453 61.622 188.143 61.622ZM188.188 63.215C187.54 63.215 187.033 63.398 186.667 63.764C186.301 64.13 186.067 64.649 185.965 65.321H190.141C190.141 65.033 190.102 64.763 190.024 64.511C189.946 64.253 189.826 64.028 189.664 63.836C189.502 63.644 189.298 63.494 189.052 63.386C188.806 63.272 188.518 63.215 188.188 63.215ZM193.942 71V61.766H195.301C195.589 61.766 195.778 61.901 195.868 62.171L196.021 62.9C196.207 62.708 196.402 62.534 196.606 62.378C196.816 62.222 197.035 62.087 197.263 61.973C197.497 61.859 197.746 61.772 198.01 61.712C198.274 61.652 198.562 61.622 198.874 61.622C199.378 61.622 199.825 61.709 200.215 61.883C200.605 62.051 200.929 62.291 201.187 62.603C201.451 62.909 201.649 63.278 201.781 63.71C201.919 64.136 201.988 64.607 201.988 65.123V71H199.765V65.123C199.765 64.559 199.633 64.124 199.369 63.818C199.111 63.506 198.721 63.35 198.199 63.35C197.815 63.35 197.455 63.437 197.119 63.611C196.783 63.785 196.465 64.022 196.165 64.322V71H193.942ZM209.653 63.566C209.593 63.662 209.53 63.731 209.464 63.773C209.398 63.809 209.314 63.827 209.212 63.827C209.104 63.827 208.987 63.797 208.861 63.737C208.741 63.677 208.6 63.611 208.438 63.539C208.276 63.461 208.09 63.392 207.88 63.332C207.676 63.272 207.433 63.242 207.151 63.242C206.713 63.242 206.368 63.335 206.116 63.521C205.864 63.707 205.738 63.95 205.738 64.25C205.738 64.448 205.801 64.616 205.927 64.754C206.059 64.886 206.23 65.003 206.44 65.105C206.656 65.207 206.899 65.3 207.169 65.384C207.439 65.462 207.715 65.549 207.997 65.645C208.279 65.741 208.555 65.852 208.825 65.978C209.095 66.098 209.335 66.254 209.545 66.446C209.761 66.632 209.932 66.857 210.058 67.121C210.19 67.385 210.256 67.703 210.256 68.075C210.256 68.519 210.175 68.93 210.013 69.308C209.851 69.68 209.614 70.004 209.302 70.28C208.99 70.55 208.603 70.763 208.141 70.919C207.685 71.069 207.16 71.144 206.566 71.144C206.248 71.144 205.936 71.114 205.63 71.054C205.33 71 205.039 70.922 204.757 70.82C204.481 70.718 204.223 70.598 203.983 70.46C203.749 70.322 203.542 70.172 203.362 70.01L203.875 69.164C203.941 69.062 204.019 68.984 204.109 68.93C204.199 68.876 204.313 68.849 204.451 68.849C204.589 68.849 204.718 68.888 204.838 68.966C204.964 69.044 205.108 69.128 205.27 69.218C205.432 69.308 205.621 69.392 205.837 69.47C206.059 69.548 206.338 69.587 206.674 69.587C206.938 69.587 207.163 69.557 207.349 69.497C207.541 69.431 207.697 69.347 207.817 69.245C207.943 69.143 208.033 69.026 208.087 68.894C208.147 68.756 208.177 68.615 208.177 68.471C208.177 68.255 208.111 68.078 207.979 67.94C207.853 67.802 207.682 67.682 207.466 67.58C207.256 67.478 207.013 67.388 206.737 67.31C206.467 67.226 206.188 67.136 205.9 67.04C205.618 66.944 205.339 66.833 205.063 66.707C204.793 66.575 204.55 66.41 204.334 66.212C204.124 66.014 203.953 65.771 203.821 65.483C203.695 65.195 203.632 64.847 203.632 64.439C203.632 64.061 203.707 63.701 203.857 63.359C204.007 63.017 204.226 62.72 204.514 62.468C204.808 62.21 205.171 62.006 205.603 61.856C206.041 61.7 206.545 61.622 207.115 61.622C207.751 61.622 208.33 61.727 208.852 61.937C209.374 62.147 209.809 62.423 210.157 62.765L209.653 63.566ZM215.846 61.622C216.428 61.622 216.962 61.715 217.448 61.901C217.94 62.087 218.363 62.36 218.717 62.72C219.071 63.074 219.347 63.512 219.545 64.034C219.743 64.55 219.842 65.141 219.842 65.807C219.842 65.975 219.833 66.116 219.815 66.23C219.803 66.338 219.776 66.425 219.734 66.491C219.698 66.551 219.647 66.596 219.581 66.626C219.515 66.65 219.431 66.662 219.329 66.662H213.623C213.689 67.61 213.944 68.306 214.388 68.75C214.832 69.194 215.42 69.416 216.152 69.416C216.512 69.416 216.821 69.374 217.079 69.29C217.343 69.206 217.571 69.113 217.763 69.011C217.961 68.909 218.132 68.816 218.276 68.732C218.426 68.648 218.57 68.606 218.708 68.606C218.798 68.606 218.876 68.624 218.942 68.66C219.008 68.696 219.065 68.747 219.113 68.813L219.761 69.623C219.515 69.911 219.239 70.154 218.933 70.352C218.627 70.544 218.306 70.7 217.97 70.82C217.64 70.934 217.301 71.015 216.953 71.063C216.611 71.111 216.278 71.135 215.954 71.135C215.312 71.135 214.715 71.03 214.163 70.82C213.611 70.604 213.131 70.289 212.723 69.875C212.315 69.455 211.994 68.939 211.76 68.327C211.526 67.709 211.409 66.995 211.409 66.185C211.409 65.555 211.511 64.964 211.715 64.412C211.919 63.854 212.21 63.371 212.588 62.963C212.972 62.549 213.437 62.222 213.983 61.982C214.535 61.742 215.156 61.622 215.846 61.622ZM215.891 63.215C215.243 63.215 214.736 63.398 214.37 63.764C214.004 64.13 213.77 64.649 213.668 65.321H217.844C217.844 65.033 217.805 64.763 217.727 64.511C217.649 64.253 217.529 64.028 217.367 63.836C217.205 63.644 217.001 63.494 216.755 63.386C216.509 63.272 216.221 63.215 215.891 63.215ZM236.691 71H234.819C234.609 71 234.435 70.949 234.297 70.847C234.165 70.739 234.069 70.607 234.009 70.451L233.037 67.796H227.646L226.674 70.451C226.626 70.589 226.53 70.715 226.386 70.829C226.248 70.943 226.077 71 225.873 71H223.992L229.104 57.986H231.579L236.691 71ZM228.267 66.086H232.416L230.832 61.757C230.76 61.565 230.679 61.34 230.589 61.082C230.505 60.818 230.421 60.533 230.337 60.227C230.253 60.533 230.169 60.818 230.085 61.082C230.007 61.346 229.929 61.577 229.851 61.775L228.267 66.086ZM244.394 63.719C244.328 63.803 244.262 63.869 244.196 63.917C244.136 63.965 244.046 63.989 243.926 63.989C243.812 63.989 243.701 63.956 243.593 63.89C243.485 63.818 243.356 63.74 243.206 63.656C243.056 63.566 242.876 63.488 242.666 63.422C242.462 63.35 242.207 63.314 241.901 63.314C241.511 63.314 241.169 63.386 240.875 63.53C240.581 63.668 240.335 63.869 240.137 64.133C239.945 64.397 239.801 64.718 239.705 65.096C239.609 65.468 239.561 65.891 239.561 66.365C239.561 66.857 239.612 67.295 239.714 67.679C239.822 68.063 239.975 68.387 240.173 68.651C240.371 68.909 240.611 69.107 240.893 69.245C241.175 69.377 241.493 69.443 241.847 69.443C242.201 69.443 242.486 69.401 242.702 69.317C242.924 69.227 243.11 69.131 243.26 69.029C243.41 68.921 243.539 68.825 243.647 68.741C243.761 68.651 243.887 68.606 244.025 68.606C244.205 68.606 244.34 68.675 244.43 68.813L245.069 69.623C244.823 69.911 244.556 70.154 244.268 70.352C243.98 70.544 243.68 70.7 243.368 70.82C243.062 70.934 242.744 71.015 242.414 71.063C242.084 71.111 241.757 71.135 241.433 71.135C240.863 71.135 240.326 71.03 239.822 70.82C239.318 70.604 238.877 70.292 238.499 69.884C238.127 69.476 237.83 68.978 237.608 68.39C237.392 67.796 237.284 67.121 237.284 66.365C237.284 65.687 237.38 65.06 237.572 64.484C237.77 63.902 238.058 63.401 238.436 62.981C238.814 62.555 239.282 62.222 239.84 61.982C240.398 61.742 241.04 61.622 241.766 61.622C242.456 61.622 243.059 61.733 243.575 61.955C244.097 62.177 244.565 62.495 244.979 62.909L244.394 63.719ZM252.972 63.719C252.906 63.803 252.84 63.869 252.774 63.917C252.714 63.965 252.624 63.989 252.504 63.989C252.39 63.989 252.279 63.956 252.171 63.89C252.063 63.818 251.934 63.74 251.784 63.656C251.634 63.566 251.454 63.488 251.244 63.422C251.04 63.35 250.785 63.314 250.479 63.314C250.089 63.314 249.747 63.386 249.453 63.53C249.159 63.668 248.913 63.869 248.715 64.133C248.523 64.397 248.379 64.718 248.283 65.096C248.187 65.468 248.139 65.891 248.139 66.365C248.139 66.857 248.19 67.295 248.292 67.679C248.4 68.063 248.553 68.387 248.751 68.651C248.949 68.909 249.189 69.107 249.471 69.245C249.753 69.377 250.071 69.443 250.425 69.443C250.779 69.443 251.064 69.401 251.28 69.317C251.502 69.227 251.688 69.131 251.838 69.029C251.988 68.921 252.117 68.825 252.225 68.741C252.339 68.651 252.465 68.606 252.603 68.606C252.783 68.606 252.918 68.675 253.008 68.813L253.647 69.623C253.401 69.911 253.134 70.154 252.846 70.352C252.558 70.544 252.258 70.7 251.946 70.82C251.64 70.934 251.322 71.015 250.992 71.063C250.662 71.111 250.335 71.135 250.011 71.135C249.441 71.135 248.904 71.03 248.4 70.82C247.896 70.604 247.455 70.292 247.077 69.884C246.705 69.476 246.408 68.978 246.186 68.39C245.97 67.796 245.862 67.121 245.862 66.365C245.862 65.687 245.958 65.06 246.15 64.484C246.348 63.902 246.636 63.401 247.014 62.981C247.392 62.555 247.86 62.222 248.418 61.982C248.976 61.742 249.618 61.622 250.344 61.622C251.034 61.622 251.637 61.733 252.153 61.955C252.675 62.177 253.143 62.495 253.557 62.909L252.972 63.719ZM259.003 61.622C259.693 61.622 260.317 61.733 260.875 61.955C261.439 62.177 261.919 62.492 262.315 62.9C262.711 63.308 263.017 63.806 263.233 64.394C263.449 64.982 263.557 65.639 263.557 66.365C263.557 67.097 263.449 67.757 263.233 68.345C263.017 68.933 262.711 69.434 262.315 69.848C261.919 70.262 261.439 70.58 260.875 70.802C260.317 71.024 259.693 71.135 259.003 71.135C258.313 71.135 257.686 71.024 257.122 70.802C256.558 70.58 256.075 70.262 255.673 69.848C255.277 69.434 254.968 68.933 254.746 68.345C254.53 67.757 254.422 67.097 254.422 66.365C254.422 65.639 254.53 64.982 254.746 64.394C254.968 63.806 255.277 63.308 255.673 62.9C256.075 62.492 256.558 62.177 257.122 61.955C257.686 61.733 258.313 61.622 259.003 61.622ZM259.003 69.425C259.771 69.425 260.338 69.167 260.704 68.651C261.076 68.135 261.262 67.379 261.262 66.383C261.262 65.387 261.076 64.628 260.704 64.106C260.338 63.584 259.771 63.323 259.003 63.323C258.223 63.323 257.647 63.587 257.275 64.115C256.903 64.637 256.717 65.393 256.717 66.383C256.717 67.373 256.903 68.129 257.275 68.651C257.647 69.167 258.223 69.425 259.003 69.425ZM267.326 61.766V67.634C267.326 68.198 267.455 68.636 267.713 68.948C267.977 69.254 268.37 69.407 268.892 69.407C269.276 69.407 269.636 69.323 269.972 69.155C270.308 68.981 270.626 68.744 270.926 68.444V61.766H273.149V71H271.79C271.502 71 271.313 70.865 271.223 70.595L271.07 69.857C270.878 70.049 270.68 70.226 270.476 70.388C270.272 70.544 270.053 70.679 269.819 70.793C269.591 70.901 269.342 70.985 269.072 71.045C268.808 71.111 268.523 71.144 268.217 71.144C267.713 71.144 267.266 71.06 266.876 70.892C266.492 70.718 266.168 70.475 265.904 70.163C265.64 69.851 265.439 69.482 265.301 69.056C265.169 68.624 265.103 68.15 265.103 67.634V61.766H267.326ZM275.522 71V61.766H276.881C277.169 61.766 277.358 61.901 277.448 62.171L277.601 62.9C277.787 62.708 277.982 62.534 278.186 62.378C278.396 62.222 278.615 62.087 278.843 61.973C279.077 61.859 279.326 61.772 279.59 61.712C279.854 61.652 280.142 61.622 280.454 61.622C280.958 61.622 281.405 61.709 281.795 61.883C282.185 62.051 282.509 62.291 282.767 62.603C283.031 62.909 283.229 63.278 283.361 63.71C283.499 64.136 283.568 64.607 283.568 65.123V71H281.345V65.123C281.345 64.559 281.213 64.124 280.949 63.818C280.691 63.506 280.301 63.35 279.779 63.35C279.395 63.35 279.035 63.437 278.699 63.611C278.363 63.785 278.045 64.022 277.745 64.322V71H275.522ZM288.785 71.144C287.987 71.144 287.372 70.919 286.94 70.469C286.508 70.013 286.292 69.386 286.292 68.588V63.431H285.356C285.236 63.431 285.131 63.392 285.041 63.314C284.957 63.236 284.915 63.119 284.915 62.963V62.081L286.4 61.838L286.868 59.318C286.892 59.198 286.946 59.105 287.03 59.039C287.12 58.973 287.231 58.94 287.363 58.94H288.515V61.847H290.945V63.431H288.515V68.435C288.515 68.723 288.587 68.948 288.731 69.11C288.875 69.272 289.067 69.353 289.307 69.353C289.445 69.353 289.559 69.338 289.649 69.308C289.745 69.272 289.826 69.236 289.892 69.2C289.964 69.164 290.027 69.131 290.081 69.101C290.135 69.065 290.189 69.047 290.243 69.047C290.309 69.047 290.363 69.065 290.405 69.101C290.447 69.131 290.492 69.179 290.54 69.245L291.206 70.325C290.882 70.595 290.51 70.799 290.09 70.937C289.67 71.075 289.235 71.144 288.785 71.144Z" fill="black"/>
<rect x="54" y="471" width="422" height="10" fill="#32B5A5"/>
<defs>
<filter id="filter0_d" x="49" y="25" width="431" height="429" filterUnits="userSpaceOnUse" color-interpolation-filters="sRGB">
<feFlood flood-opacity="0" result="BackgroundImageFix"/>
<feColorMatrix in="SourceAlpha" type="matrix" values="0 0 0 0 0 0 0 0 0 0 0 0 0 0 0 0 0 0 127 0"/>
<feOffset dy="4"/>
<feGaussianBlur stdDeviation="2"/>
<feColorMatrix type="matrix" values="0 0 0 0 0 0 0 0 0 0 0 0 0 0 0 0 0 0 0.25 0"/>
<feBlend mode="normal" in2="BackgroundImageFix" result="effect1_dropShadow"/>
<feBlend mode="normal" in="SourceGraphic" in2="effect1_dropShadow" result="shape"/>
</filter>
<filter id="filter1_d" x="371" y="391" width="65" height="40" filterUnits="userSpaceOnUse" color-interpolation-filters="sRGB">
<feFlood flood-opacity="0" result="BackgroundImageFix"/>
<feColorMatrix in="SourceAlpha" type="matrix" values="0 0 0 0 0 0 0 0 0 0 0 0 0 0 0 0 0 0 127 0"/>
<feOffset dy="1"/>
<feGaussianBlur stdDeviation="1"/>
<feColorMatrix type="matrix" values="0 0 0 0 0 0 0 0 0 0 0 0 0 0 0 0 0 0 0.5 0"/>
<feBlend mode="normal" in2="BackgroundImageFix" result="effect1_dropShadow"/>
<feBlend mode="normal" in="SourceGraphic" in2="effect1_dropShadow" result="shape"/>
</filter>
</defs>
</svg>
