<svg width="1000" height="581" viewBox="0 0 1000 581" fill="none" xmlns="http://www.w3.org/2000/svg">
<rect width="1000" height="581" fill="white"/>
<g filter="url(#filter0_d)">
<rect x="100" y="29" width="423" height="421" rx="2" fill="white"/>
</g>
<path d="M486.333 49L499.667 62" stroke="#979797" stroke-linecap="square"/>
<path d="M486.333 62L499.667 49" stroke="#979797" stroke-linecap="square"/>
<g filter="url(#filter1_d)">
<path d="M420 400C420 397.791 421.791 396 424 396H477C479.209 396 481 397.791 481 400V428C481 430.209 479.209 432 477 432H424C421.791 432 420 430.209 420 428V400Z" fill="#279FF6"/>
<path d="M442.356 411.037C442.314 411.107 442.27 411.161 442.223 411.198C442.176 411.231 442.116 411.247 442.041 411.247C441.962 411.247 441.868 411.207 441.761 411.128C441.658 411.049 441.525 410.962 441.362 410.869C441.203 410.771 441.01 410.682 440.781 410.603C440.557 410.524 440.284 410.484 439.962 410.484C439.659 410.484 439.39 410.526 439.157 410.61C438.924 410.689 438.728 410.799 438.569 410.939C438.415 411.079 438.298 411.245 438.219 411.436C438.14 411.623 438.1 411.826 438.1 412.045C438.1 412.325 438.168 412.558 438.303 412.745C438.443 412.927 438.625 413.083 438.849 413.214C439.078 413.345 439.334 413.459 439.619 413.557C439.908 413.65 440.202 413.748 440.501 413.851C440.804 413.954 441.098 414.07 441.383 414.201C441.672 414.327 441.929 414.488 442.153 414.684C442.382 414.88 442.564 415.12 442.699 415.405C442.839 415.69 442.909 416.04 442.909 416.455C442.909 416.894 442.834 417.307 442.685 417.694C442.536 418.077 442.316 418.41 442.027 418.695C441.742 418.98 441.39 419.204 440.97 419.367C440.555 419.53 440.081 419.612 439.549 419.612C438.9 419.612 438.308 419.495 437.771 419.262C437.239 419.024 436.784 418.704 436.406 418.303L436.798 417.659C436.835 417.608 436.88 417.566 436.931 417.533C436.987 417.496 437.048 417.477 437.113 417.477C437.211 417.477 437.323 417.531 437.449 417.638C437.575 417.741 437.731 417.855 437.918 417.981C438.109 418.107 438.338 418.224 438.604 418.331C438.875 418.434 439.204 418.485 439.591 418.485C439.913 418.485 440.2 418.441 440.452 418.352C440.704 418.263 440.916 418.14 441.089 417.981C441.266 417.818 441.402 417.624 441.495 417.4C441.588 417.176 441.635 416.926 441.635 416.651C441.635 416.348 441.565 416.1 441.425 415.909C441.29 415.713 441.11 415.55 440.886 415.419C440.662 415.288 440.405 415.179 440.116 415.09C439.831 414.997 439.537 414.903 439.234 414.81C438.935 414.712 438.641 414.6 438.352 414.474C438.067 414.348 437.813 414.185 437.589 413.984C437.365 413.783 437.183 413.534 437.043 413.235C436.908 412.932 436.84 412.558 436.84 412.115C436.84 411.76 436.908 411.417 437.043 411.086C437.183 410.755 437.384 410.461 437.645 410.204C437.906 409.947 438.228 409.742 438.611 409.588C438.998 409.434 439.442 409.357 439.941 409.357C440.501 409.357 441.012 409.446 441.474 409.623C441.936 409.8 442.34 410.057 442.685 410.393L442.356 411.037ZM449.654 419.5H449.101C448.979 419.5 448.881 419.481 448.807 419.444C448.732 419.407 448.683 419.327 448.66 419.206L448.52 418.548C448.333 418.716 448.151 418.868 447.974 419.003C447.796 419.134 447.61 419.246 447.414 419.339C447.218 419.428 447.008 419.495 446.784 419.542C446.564 419.589 446.319 419.612 446.049 419.612C445.773 419.612 445.514 419.575 445.272 419.5C445.034 419.421 444.826 419.304 444.649 419.15C444.471 418.996 444.329 418.802 444.222 418.569C444.119 418.331 444.068 418.051 444.068 417.729C444.068 417.449 444.145 417.181 444.299 416.924C444.453 416.663 444.7 416.432 445.041 416.231C445.386 416.03 445.836 415.867 446.392 415.741C446.947 415.61 447.626 415.536 448.429 415.517V414.964C448.429 414.413 448.31 413.998 448.072 413.718C447.838 413.433 447.491 413.291 447.029 413.291C446.725 413.291 446.469 413.331 446.259 413.41C446.053 413.485 445.874 413.571 445.72 413.669C445.57 413.762 445.44 413.849 445.328 413.928C445.22 414.003 445.113 414.04 445.006 414.04C444.922 414.04 444.847 414.019 444.782 413.977C444.721 413.93 444.672 413.874 444.635 413.809L444.411 413.41C444.803 413.032 445.225 412.75 445.678 412.563C446.13 412.376 446.632 412.283 447.183 412.283C447.579 412.283 447.932 412.348 448.24 412.479C448.548 412.61 448.807 412.792 449.017 413.025C449.227 413.258 449.385 413.541 449.493 413.872C449.6 414.203 449.654 414.567 449.654 414.964V419.5ZM446.42 418.737C446.639 418.737 446.84 418.716 447.022 418.674C447.204 418.627 447.374 418.564 447.533 418.485C447.696 418.401 447.85 418.301 447.995 418.184C448.144 418.067 448.289 417.934 448.429 417.785V416.308C447.855 416.327 447.367 416.373 446.966 416.448C446.564 416.518 446.238 416.611 445.986 416.728C445.734 416.845 445.549 416.982 445.433 417.141C445.321 417.3 445.265 417.477 445.265 417.673C445.265 417.86 445.295 418.021 445.356 418.156C445.416 418.291 445.498 418.403 445.601 418.492C445.703 418.576 445.825 418.639 445.965 418.681C446.105 418.718 446.256 418.737 446.42 418.737ZM450.427 412.409H451.449C451.547 412.409 451.628 412.435 451.694 412.486C451.759 412.537 451.806 412.598 451.834 412.668L453.633 417.232C453.698 417.4 453.749 417.568 453.787 417.736C453.824 417.904 453.859 418.07 453.892 418.233C453.929 418.07 453.969 417.904 454.011 417.736C454.053 417.568 454.106 417.4 454.172 417.232L455.992 412.668C456.02 412.593 456.064 412.533 456.125 412.486C456.19 412.435 456.269 412.409 456.363 412.409H457.336L454.445 419.5H453.318L450.427 412.409ZM461.116 412.297C461.541 412.297 461.933 412.369 462.292 412.514C462.651 412.654 462.962 412.859 463.223 413.13C463.484 413.396 463.687 413.727 463.832 414.124C463.981 414.516 464.056 414.964 464.056 415.468C464.056 415.664 464.035 415.795 463.993 415.86C463.951 415.925 463.872 415.958 463.755 415.958H459.037C459.046 416.406 459.107 416.796 459.219 417.127C459.331 417.458 459.485 417.736 459.681 417.96C459.877 418.179 460.11 418.345 460.381 418.457C460.652 418.564 460.955 418.618 461.291 418.618C461.604 418.618 461.872 418.583 462.096 418.513C462.325 418.438 462.521 418.359 462.684 418.275C462.847 418.191 462.983 418.114 463.09 418.044C463.202 417.969 463.298 417.932 463.377 417.932C463.48 417.932 463.559 417.972 463.615 418.051L463.965 418.506C463.811 418.693 463.627 418.856 463.412 418.996C463.197 419.131 462.966 419.243 462.719 419.332C462.476 419.421 462.224 419.486 461.963 419.528C461.702 419.575 461.443 419.598 461.186 419.598C460.696 419.598 460.243 419.516 459.828 419.353C459.417 419.185 459.06 418.942 458.757 418.625C458.458 418.303 458.225 417.906 458.057 417.435C457.889 416.964 457.805 416.422 457.805 415.811C457.805 415.316 457.88 414.854 458.029 414.425C458.183 413.996 458.402 413.625 458.687 413.312C458.972 412.995 459.319 412.747 459.73 412.57C460.141 412.388 460.603 412.297 461.116 412.297ZM461.144 413.214C460.542 413.214 460.068 413.389 459.723 413.739C459.378 414.084 459.163 414.565 459.079 415.181H462.936C462.936 414.892 462.896 414.628 462.817 414.39C462.738 414.147 462.621 413.94 462.467 413.767C462.313 413.59 462.124 413.454 461.9 413.361C461.681 413.263 461.429 413.214 461.144 413.214Z" fill="white"/>
</g>
<path d="M355.288 417.428C355.363 417.428 355.43 417.458 355.491 417.519L356.023 418.1C355.612 418.576 355.113 418.947 354.525 419.213C353.942 419.479 353.237 419.612 352.411 419.612C351.688 419.612 351.032 419.488 350.444 419.241C349.856 418.989 349.354 418.639 348.939 418.191C348.524 417.738 348.202 417.197 347.973 416.567C347.744 415.937 347.63 415.244 347.63 414.488C347.63 413.732 347.751 413.039 347.994 412.409C348.241 411.779 348.587 411.238 349.03 410.785C349.473 410.332 350.003 409.982 350.619 409.735C351.24 409.483 351.923 409.357 352.67 409.357C353.407 409.357 354.042 409.471 354.574 409.7C355.111 409.929 355.587 410.239 356.002 410.631L355.561 411.254C355.528 411.301 355.491 411.34 355.449 411.373C355.407 411.401 355.346 411.415 355.267 411.415C355.206 411.415 355.141 411.394 355.071 411.352C355.006 411.305 354.926 411.249 354.833 411.184C354.74 411.119 354.63 411.049 354.504 410.974C354.378 410.899 354.229 410.829 354.056 410.764C353.883 410.699 353.683 410.645 353.454 410.603C353.225 410.556 352.962 410.533 352.663 410.533C352.126 410.533 351.634 410.626 351.186 410.813C350.743 410.995 350.36 411.256 350.038 411.597C349.716 411.938 349.464 412.353 349.282 412.843C349.105 413.333 349.016 413.881 349.016 414.488C349.016 415.113 349.105 415.671 349.282 416.161C349.464 416.651 349.709 417.066 350.017 417.407C350.33 417.743 350.698 418 351.123 418.177C351.548 418.354 352.005 418.443 352.495 418.443C352.794 418.443 353.062 418.427 353.3 418.394C353.538 418.357 353.757 418.301 353.958 418.226C354.163 418.151 354.352 418.058 354.525 417.946C354.702 417.829 354.88 417.692 355.057 417.533C355.136 417.463 355.213 417.428 355.288 417.428ZM362.814 419.5H362.261C362.14 419.5 362.042 419.481 361.967 419.444C361.892 419.407 361.843 419.327 361.82 419.206L361.68 418.548C361.493 418.716 361.311 418.868 361.134 419.003C360.957 419.134 360.77 419.246 360.574 419.339C360.378 419.428 360.168 419.495 359.944 419.542C359.725 419.589 359.48 419.612 359.209 419.612C358.934 419.612 358.675 419.575 358.432 419.5C358.194 419.421 357.986 419.304 357.809 419.15C357.632 418.996 357.489 418.802 357.382 418.569C357.279 418.331 357.228 418.051 357.228 417.729C357.228 417.449 357.305 417.181 357.459 416.924C357.613 416.663 357.86 416.432 358.201 416.231C358.546 416.03 358.997 415.867 359.552 415.741C360.107 415.61 360.786 415.536 361.589 415.517V414.964C361.589 414.413 361.47 413.998 361.232 413.718C360.999 413.433 360.651 413.291 360.189 413.291C359.886 413.291 359.629 413.331 359.419 413.41C359.214 413.485 359.034 413.571 358.88 413.669C358.731 413.762 358.6 413.849 358.488 413.928C358.381 414.003 358.273 414.04 358.166 414.04C358.082 414.04 358.007 414.019 357.942 413.977C357.881 413.93 357.832 413.874 357.795 413.809L357.571 413.41C357.963 413.032 358.385 412.75 358.838 412.563C359.291 412.376 359.792 412.283 360.343 412.283C360.74 412.283 361.092 412.348 361.4 412.479C361.708 412.61 361.967 412.792 362.177 413.025C362.387 413.258 362.546 413.541 362.653 413.872C362.76 414.203 362.814 414.567 362.814 414.964V419.5ZM359.58 418.737C359.799 418.737 360 418.716 360.182 418.674C360.364 418.627 360.534 418.564 360.693 418.485C360.856 418.401 361.01 418.301 361.155 418.184C361.304 418.067 361.449 417.934 361.589 417.785V416.308C361.015 416.327 360.527 416.373 360.126 416.448C359.725 416.518 359.398 416.611 359.146 416.728C358.894 416.845 358.71 416.982 358.593 417.141C358.481 417.3 358.425 417.477 358.425 417.673C358.425 417.86 358.455 418.021 358.516 418.156C358.577 418.291 358.658 418.403 358.761 418.492C358.864 418.576 358.985 418.639 359.125 418.681C359.265 418.718 359.417 418.737 359.58 418.737ZM364.702 419.5V412.409H365.444C365.621 412.409 365.733 412.495 365.78 412.668L365.878 413.438C366.186 413.097 366.529 412.822 366.907 412.612C367.289 412.402 367.73 412.297 368.23 412.297C368.617 412.297 368.958 412.362 369.252 412.493C369.55 412.619 369.798 412.801 369.994 413.039C370.194 413.272 370.346 413.555 370.449 413.886C370.551 414.217 370.603 414.584 370.603 414.985V419.5H369.357V414.985C369.357 414.448 369.233 414.033 368.986 413.739C368.743 413.44 368.37 413.291 367.866 413.291C367.497 413.291 367.152 413.38 366.83 413.557C366.512 413.734 366.218 413.975 365.948 414.278V419.5H364.702ZM377.318 413.669C377.281 413.72 377.243 413.76 377.206 413.788C377.169 413.816 377.115 413.83 377.045 413.83C376.975 413.83 376.898 413.802 376.814 413.746C376.735 413.685 376.632 413.62 376.506 413.55C376.38 413.48 376.226 413.417 376.044 413.361C375.867 413.3 375.647 413.27 375.386 413.27C375.041 413.27 374.735 413.333 374.469 413.459C374.203 413.58 373.979 413.758 373.797 413.991C373.62 414.224 373.484 414.507 373.391 414.838C373.302 415.169 373.258 415.54 373.258 415.951C373.258 416.38 373.307 416.763 373.405 417.099C373.503 417.43 373.641 417.71 373.818 417.939C373.995 418.163 374.21 418.336 374.462 418.457C374.719 418.574 375.006 418.632 375.323 418.632C375.626 418.632 375.876 418.597 376.072 418.527C376.268 418.452 376.431 418.371 376.562 418.282C376.693 418.193 376.8 418.114 376.884 418.044C376.968 417.969 377.052 417.932 377.136 417.932C377.243 417.932 377.323 417.972 377.374 418.051L377.724 418.506C377.416 418.884 377.031 419.162 376.569 419.339C376.107 419.512 375.619 419.598 375.106 419.598C374.663 419.598 374.25 419.516 373.867 419.353C373.489 419.19 373.16 418.954 372.88 418.646C372.6 418.333 372.378 417.951 372.215 417.498C372.056 417.045 371.977 416.53 371.977 415.951C371.977 415.424 372.049 414.936 372.194 414.488C372.343 414.04 372.558 413.655 372.838 413.333C373.123 413.006 373.473 412.752 373.888 412.57C374.303 412.388 374.779 412.297 375.316 412.297C375.811 412.297 376.249 412.379 376.632 412.542C377.015 412.701 377.353 412.927 377.647 413.221L377.318 413.669ZM381.823 412.297C382.248 412.297 382.64 412.369 382.999 412.514C383.358 412.654 383.669 412.859 383.93 413.13C384.191 413.396 384.394 413.727 384.539 414.124C384.688 414.516 384.763 414.964 384.763 415.468C384.763 415.664 384.742 415.795 384.7 415.86C384.658 415.925 384.579 415.958 384.462 415.958H379.744C379.753 416.406 379.814 416.796 379.926 417.127C380.038 417.458 380.192 417.736 380.388 417.96C380.584 418.179 380.817 418.345 381.088 418.457C381.359 418.564 381.662 418.618 381.998 418.618C382.311 418.618 382.579 418.583 382.803 418.513C383.032 418.438 383.228 418.359 383.391 418.275C383.554 418.191 383.69 418.114 383.797 418.044C383.909 417.969 384.005 417.932 384.084 417.932C384.187 417.932 384.266 417.972 384.322 418.051L384.672 418.506C384.518 418.693 384.334 418.856 384.119 418.996C383.904 419.131 383.673 419.243 383.426 419.332C383.183 419.421 382.931 419.486 382.67 419.528C382.409 419.575 382.15 419.598 381.893 419.598C381.403 419.598 380.95 419.516 380.535 419.353C380.124 419.185 379.767 418.942 379.464 418.625C379.165 418.303 378.932 417.906 378.764 417.435C378.596 416.964 378.512 416.422 378.512 415.811C378.512 415.316 378.587 414.854 378.736 414.425C378.89 413.996 379.109 413.625 379.394 413.312C379.679 412.995 380.026 412.747 380.437 412.57C380.848 412.388 381.31 412.297 381.823 412.297ZM381.851 413.214C381.249 413.214 380.775 413.389 380.43 413.739C380.085 414.084 379.87 414.565 379.786 415.181H383.643C383.643 414.892 383.603 414.628 383.524 414.39C383.445 414.147 383.328 413.94 383.174 413.767C383.02 413.59 382.831 413.454 382.607 413.361C382.388 413.263 382.136 413.214 381.851 413.214ZM387.744 409.189V419.5H386.498V409.189H387.744Z" fill="#279FF6"/>
<path d="M335 397H401V395H335V397ZM404 400V428H406V400H404ZM401 431H335V433H401V431ZM332 428V400H330V428H332ZM335 431C333.343 431 332 429.657 332 428H330C330 430.761 332.239 433 335 433V431ZM404 428C404 429.657 402.657 431 401 431V433C403.761 433 406 430.761 406 428H404ZM401 397C402.657 397 404 398.343 404 400H406C406 397.239 403.761 395 401 395V397ZM335 395C332.239 395 330 397.239 330 400H332C332 398.343 333.343 397 335 397V395Z" fill="#279FF6"/>
<rect x="158.5" y="135.5" width="255" height="35" rx="3.5" stroke="#A7ABB1"/>
<rect x="158.5" y="203.5" width="255" height="35" rx="3.5" stroke="#A7ABB1"/>
<path d="M181.399 287.969V289.075H176.583V292.407H180.482V293.471H176.583V296.894H181.399V298H175.218V287.969H181.399ZM184.816 294.367L182.429 290.909H183.626C183.728 290.909 183.803 290.925 183.85 290.958C183.896 290.991 183.938 291.037 183.976 291.098L185.712 293.758C185.754 293.627 185.814 293.497 185.894 293.366L187.42 291.126C187.466 291.061 187.513 291.009 187.56 290.972C187.606 290.93 187.665 290.909 187.735 290.909H188.883L186.496 294.297L188.981 298H187.784C187.681 298 187.599 297.974 187.539 297.923C187.483 297.867 187.436 297.806 187.399 297.741L185.614 294.962C185.581 295.097 185.532 295.219 185.467 295.326L183.815 297.741C183.768 297.806 183.717 297.867 183.661 297.923C183.609 297.974 183.537 298 183.444 298H182.331L184.816 294.367ZM190.211 300.401V290.909H190.953C191.131 290.909 191.243 290.995 191.289 291.168L191.394 292.008C191.698 291.639 192.043 291.343 192.43 291.119C192.822 290.895 193.273 290.783 193.781 290.783C194.187 290.783 194.556 290.862 194.887 291.021C195.219 291.175 195.501 291.406 195.734 291.714C195.968 292.017 196.147 292.395 196.273 292.848C196.399 293.301 196.462 293.821 196.462 294.409C196.462 294.932 196.392 295.419 196.252 295.872C196.112 296.32 195.912 296.71 195.65 297.041C195.389 297.368 195.067 297.627 194.684 297.818C194.306 298.005 193.879 298.098 193.403 298.098C192.965 298.098 192.589 298.026 192.276 297.881C191.968 297.736 191.695 297.531 191.457 297.265V300.401H190.211ZM193.368 291.791C192.962 291.791 192.605 291.884 192.297 292.071C191.994 292.258 191.714 292.521 191.457 292.862V296.292C191.686 296.6 191.936 296.817 192.206 296.943C192.482 297.069 192.787 297.132 193.123 297.132C193.781 297.132 194.288 296.896 194.642 296.425C194.997 295.954 195.174 295.282 195.174 294.409C195.174 293.947 195.132 293.55 195.048 293.219C194.969 292.888 194.852 292.617 194.698 292.407C194.544 292.192 194.355 292.036 194.131 291.938C193.907 291.84 193.653 291.791 193.368 291.791ZM200.743 290.797C201.168 290.797 201.56 290.869 201.919 291.014C202.278 291.154 202.589 291.359 202.85 291.63C203.111 291.896 203.314 292.227 203.459 292.624C203.608 293.016 203.683 293.464 203.683 293.968C203.683 294.164 203.662 294.295 203.62 294.36C203.578 294.425 203.499 294.458 203.382 294.458H198.664C198.673 294.906 198.734 295.296 198.846 295.627C198.958 295.958 199.112 296.236 199.308 296.46C199.504 296.679 199.737 296.845 200.008 296.957C200.279 297.064 200.582 297.118 200.918 297.118C201.231 297.118 201.499 297.083 201.723 297.013C201.952 296.938 202.148 296.859 202.311 296.775C202.474 296.691 202.61 296.614 202.717 296.544C202.829 296.469 202.925 296.432 203.004 296.432C203.107 296.432 203.186 296.472 203.242 296.551L203.592 297.006C203.438 297.193 203.254 297.356 203.039 297.496C202.824 297.631 202.593 297.743 202.346 297.832C202.103 297.921 201.851 297.986 201.59 298.028C201.329 298.075 201.07 298.098 200.813 298.098C200.323 298.098 199.87 298.016 199.455 297.853C199.044 297.685 198.687 297.442 198.384 297.125C198.085 296.803 197.852 296.406 197.684 295.935C197.516 295.464 197.432 294.922 197.432 294.311C197.432 293.816 197.507 293.354 197.656 292.925C197.81 292.496 198.029 292.125 198.314 291.812C198.599 291.495 198.946 291.247 199.357 291.07C199.768 290.888 200.23 290.797 200.743 290.797ZM200.771 291.714C200.169 291.714 199.695 291.889 199.35 292.239C199.005 292.584 198.79 293.065 198.706 293.681H202.563C202.563 293.392 202.523 293.128 202.444 292.89C202.365 292.647 202.248 292.44 202.094 292.267C201.94 292.09 201.751 291.954 201.527 291.861C201.308 291.763 201.056 291.714 200.771 291.714ZM205.278 298V290.909H206.02C206.197 290.909 206.309 290.995 206.356 291.168L206.454 291.938C206.762 291.597 207.105 291.322 207.483 291.112C207.866 290.902 208.307 290.797 208.806 290.797C209.193 290.797 209.534 290.862 209.828 290.993C210.127 291.119 210.374 291.301 210.57 291.539C210.771 291.772 210.922 292.055 211.025 292.386C211.128 292.717 211.179 293.084 211.179 293.485V298H209.933V293.485C209.933 292.948 209.809 292.533 209.562 292.239C209.319 291.94 208.946 291.791 208.442 291.791C208.073 291.791 207.728 291.88 207.406 292.057C207.089 292.234 206.795 292.475 206.524 292.778V298H205.278ZM217.117 292.078C217.061 292.181 216.975 292.232 216.858 292.232C216.788 292.232 216.709 292.206 216.62 292.155C216.531 292.104 216.422 292.048 216.291 291.987C216.165 291.922 216.013 291.863 215.836 291.812C215.659 291.756 215.449 291.728 215.206 291.728C214.996 291.728 214.807 291.756 214.639 291.812C214.471 291.863 214.326 291.936 214.205 292.029C214.088 292.122 213.997 292.232 213.932 292.358C213.871 292.479 213.841 292.612 213.841 292.757C213.841 292.939 213.892 293.091 213.995 293.212C214.102 293.333 214.242 293.438 214.415 293.527C214.588 293.616 214.784 293.695 215.003 293.765C215.222 293.83 215.446 293.903 215.675 293.982C215.908 294.057 216.135 294.141 216.354 294.234C216.573 294.327 216.769 294.444 216.942 294.584C217.115 294.724 217.252 294.897 217.355 295.102C217.462 295.303 217.516 295.545 217.516 295.83C217.516 296.157 217.458 296.46 217.341 296.74C217.224 297.015 217.052 297.256 216.823 297.461C216.594 297.662 216.314 297.82 215.983 297.937C215.652 298.054 215.269 298.112 214.835 298.112C214.34 298.112 213.892 298.033 213.491 297.874C213.09 297.711 212.749 297.503 212.469 297.251L212.763 296.775C212.8 296.714 212.845 296.668 212.896 296.635C212.947 296.602 213.015 296.586 213.099 296.586C213.183 296.586 213.272 296.619 213.365 296.684C213.458 296.749 213.57 296.822 213.701 296.901C213.836 296.98 213.997 297.053 214.184 297.118C214.375 297.183 214.613 297.216 214.898 297.216C215.141 297.216 215.353 297.186 215.535 297.125C215.717 297.06 215.869 296.973 215.99 296.866C216.111 296.759 216.2 296.635 216.256 296.495C216.317 296.355 216.347 296.206 216.347 296.047C216.347 295.851 216.293 295.69 216.186 295.564C216.083 295.433 215.946 295.324 215.773 295.235C215.6 295.142 215.402 295.062 215.178 294.997C214.959 294.927 214.732 294.855 214.499 294.78C214.27 294.705 214.044 294.621 213.82 294.528C213.601 294.43 213.405 294.309 213.232 294.164C213.059 294.019 212.919 293.842 212.812 293.632C212.709 293.417 212.658 293.158 212.658 292.855C212.658 292.584 212.714 292.325 212.826 292.078C212.938 291.826 213.101 291.607 213.316 291.42C213.531 291.229 213.794 291.077 214.107 290.965C214.42 290.853 214.777 290.797 215.178 290.797C215.645 290.797 216.062 290.872 216.431 291.021C216.804 291.166 217.126 291.366 217.397 291.623L217.117 292.078ZM221.934 290.797C222.359 290.797 222.751 290.869 223.11 291.014C223.47 291.154 223.78 291.359 224.041 291.63C224.303 291.896 224.506 292.227 224.65 292.624C224.8 293.016 224.874 293.464 224.874 293.968C224.874 294.164 224.853 294.295 224.811 294.36C224.769 294.425 224.69 294.458 224.573 294.458H219.855C219.865 294.906 219.925 295.296 220.037 295.627C220.149 295.958 220.303 296.236 220.499 296.46C220.695 296.679 220.929 296.845 221.199 296.957C221.47 297.064 221.773 297.118 222.109 297.118C222.422 297.118 222.69 297.083 222.914 297.013C223.143 296.938 223.339 296.859 223.502 296.775C223.666 296.691 223.801 296.614 223.908 296.544C224.02 296.469 224.116 296.432 224.195 296.432C224.298 296.432 224.377 296.472 224.433 296.551L224.783 297.006C224.629 297.193 224.445 297.356 224.23 297.496C224.016 297.631 223.785 297.743 223.537 297.832C223.295 297.921 223.043 297.986 222.781 298.028C222.52 298.075 222.261 298.098 222.004 298.098C221.514 298.098 221.062 298.016 220.646 297.853C220.236 297.685 219.879 297.442 219.575 297.125C219.277 296.803 219.043 296.406 218.875 295.935C218.707 295.464 218.623 294.922 218.623 294.311C218.623 293.816 218.698 293.354 218.847 292.925C219.001 292.496 219.221 292.125 219.505 291.812C219.79 291.495 220.138 291.247 220.548 291.07C220.959 290.888 221.421 290.797 221.934 290.797ZM221.962 291.714C221.36 291.714 220.887 291.889 220.541 292.239C220.196 292.584 219.981 293.065 219.897 293.681H223.754C223.754 293.392 223.715 293.128 223.635 292.89C223.556 292.647 223.439 292.44 223.285 292.267C223.131 292.09 222.942 291.954 222.718 291.861C222.499 291.763 222.247 291.714 221.962 291.714Z" fill="#6E737A"/>
<path d="M309.41 288.59L314 293.17L318.59 288.59L320 290L314 296L308 290L309.41 288.59Z" fill="#9B9B9B"/>
<rect x="158.5" y="274.5" width="175" height="35" rx="3.5" stroke="#A7ABB1"/>
<rect x="159" y="336" width="40" height="20" rx="10" fill="#279FF6"/>
<path fill-rule="evenodd" clip-rule="evenodd" d="M189 355C193.971 355 198 350.971 198 346C198 341.029 193.971 337 189 337C184.029 337 180 341.029 180 346C180 350.971 184.029 355 189 355Z" fill="white"/>
<path d="M159.918 115.969C160.039 115.969 160.128 115.985 160.184 116.018C160.245 116.046 160.312 116.107 160.387 116.2L166.197 123.76C166.183 123.639 166.174 123.522 166.169 123.41C166.164 123.293 166.162 123.181 166.162 123.074V115.969H167.352V126H166.666C166.559 126 166.468 125.981 166.393 125.944C166.323 125.907 166.253 125.844 166.183 125.755L160.38 118.202C160.389 118.319 160.396 118.433 160.401 118.545C160.406 118.657 160.408 118.76 160.408 118.853V126H159.218V115.969H159.918ZM174.812 126H174.259C174.138 126 174.04 125.981 173.965 125.944C173.89 125.907 173.841 125.827 173.818 125.706L173.678 125.048C173.491 125.216 173.309 125.368 173.132 125.503C172.955 125.634 172.768 125.746 172.572 125.839C172.376 125.928 172.166 125.995 171.942 126.042C171.723 126.089 171.478 126.112 171.207 126.112C170.932 126.112 170.673 126.075 170.43 126C170.192 125.921 169.984 125.804 169.807 125.65C169.63 125.496 169.487 125.302 169.38 125.069C169.277 124.831 169.226 124.551 169.226 124.229C169.226 123.949 169.303 123.681 169.457 123.424C169.611 123.163 169.858 122.932 170.199 122.731C170.544 122.53 170.995 122.367 171.55 122.241C172.105 122.11 172.784 122.036 173.587 122.017V121.464C173.587 120.913 173.468 120.498 173.23 120.218C172.997 119.933 172.649 119.791 172.187 119.791C171.884 119.791 171.627 119.831 171.417 119.91C171.212 119.985 171.032 120.071 170.878 120.169C170.729 120.262 170.598 120.349 170.486 120.428C170.379 120.503 170.271 120.54 170.164 120.54C170.08 120.54 170.005 120.519 169.94 120.477C169.879 120.43 169.83 120.374 169.793 120.309L169.569 119.91C169.961 119.532 170.383 119.25 170.836 119.063C171.289 118.876 171.79 118.783 172.341 118.783C172.738 118.783 173.09 118.848 173.398 118.979C173.706 119.11 173.965 119.292 174.175 119.525C174.385 119.758 174.544 120.041 174.651 120.372C174.758 120.703 174.812 121.067 174.812 121.464V126ZM171.578 125.237C171.797 125.237 171.998 125.216 172.18 125.174C172.362 125.127 172.532 125.064 172.691 124.985C172.854 124.901 173.008 124.801 173.153 124.684C173.302 124.567 173.447 124.434 173.587 124.285V122.808C173.013 122.827 172.525 122.873 172.124 122.948C171.723 123.018 171.396 123.111 171.144 123.228C170.892 123.345 170.708 123.482 170.591 123.641C170.479 123.8 170.423 123.977 170.423 124.173C170.423 124.36 170.453 124.521 170.514 124.656C170.575 124.791 170.656 124.903 170.759 124.992C170.862 125.076 170.983 125.139 171.123 125.181C171.263 125.218 171.415 125.237 171.578 125.237ZM176.7 126V118.909H177.442C177.619 118.909 177.731 118.995 177.778 119.168L177.869 119.896C178.13 119.574 178.422 119.31 178.744 119.105C179.07 118.9 179.448 118.797 179.878 118.797C180.358 118.797 180.746 118.93 181.04 119.196C181.338 119.462 181.553 119.821 181.684 120.274C181.782 120.017 181.91 119.796 182.069 119.609C182.232 119.422 182.414 119.268 182.615 119.147C182.815 119.026 183.028 118.937 183.252 118.881C183.48 118.825 183.711 118.797 183.945 118.797C184.318 118.797 184.649 118.858 184.939 118.979C185.233 119.096 185.48 119.268 185.681 119.497C185.886 119.726 186.042 120.008 186.15 120.344C186.257 120.675 186.311 121.056 186.311 121.485V126H185.065V121.485C185.065 120.93 184.943 120.51 184.701 120.225C184.458 119.936 184.106 119.791 183.644 119.791C183.438 119.791 183.242 119.828 183.056 119.903C182.874 119.973 182.713 120.078 182.573 120.218C182.433 120.358 182.321 120.535 182.237 120.75C182.157 120.96 182.118 121.205 182.118 121.485V126H180.872V121.485C180.872 120.916 180.757 120.491 180.529 120.211C180.3 119.931 179.966 119.791 179.528 119.791C179.22 119.791 178.933 119.875 178.667 120.043C178.405 120.206 178.165 120.43 177.946 120.715V126H176.7ZM191.005 118.797C191.429 118.797 191.821 118.869 192.181 119.014C192.54 119.154 192.85 119.359 193.112 119.63C193.373 119.896 193.576 120.227 193.721 120.624C193.87 121.016 193.945 121.464 193.945 121.968C193.945 122.164 193.924 122.295 193.882 122.36C193.84 122.425 193.76 122.458 193.644 122.458H188.926C188.935 122.906 188.996 123.296 189.108 123.627C189.22 123.958 189.374 124.236 189.57 124.46C189.766 124.679 189.999 124.845 190.27 124.957C190.54 125.064 190.844 125.118 191.18 125.118C191.492 125.118 191.761 125.083 191.985 125.013C192.213 124.938 192.409 124.859 192.573 124.775C192.736 124.691 192.871 124.614 192.979 124.544C193.091 124.469 193.186 124.432 193.266 124.432C193.368 124.432 193.448 124.472 193.504 124.551L193.854 125.006C193.7 125.193 193.515 125.356 193.301 125.496C193.086 125.631 192.855 125.743 192.608 125.832C192.365 125.921 192.113 125.986 191.852 126.028C191.59 126.075 191.331 126.098 191.075 126.098C190.585 126.098 190.132 126.016 189.717 125.853C189.306 125.685 188.949 125.442 188.646 125.125C188.347 124.803 188.114 124.406 187.946 123.935C187.778 123.464 187.694 122.922 187.694 122.311C187.694 121.816 187.768 121.354 187.918 120.925C188.072 120.496 188.291 120.125 188.576 119.812C188.86 119.495 189.208 119.247 189.619 119.07C190.029 118.888 190.491 118.797 191.005 118.797ZM191.033 119.714C190.431 119.714 189.957 119.889 189.612 120.239C189.266 120.584 189.052 121.065 188.968 121.681H192.825C192.825 121.392 192.785 121.128 192.706 120.89C192.626 120.647 192.51 120.44 192.356 120.267C192.202 120.09 192.013 119.954 191.789 119.861C191.569 119.763 191.317 119.714 191.033 119.714Z" fill="black"/>
<path d="M167.471 194H166.421C166.3 194 166.202 193.97 166.127 193.909C166.052 193.848 165.996 193.771 165.959 193.678L165.021 191.256H160.52L159.582 193.678C159.549 193.762 159.493 193.837 159.414 193.902C159.335 193.967 159.237 194 159.12 194H158.07L162.081 183.969H163.46L167.471 194ZM160.898 190.276H164.643L163.068 186.195C162.965 185.943 162.865 185.628 162.767 185.25C162.716 185.441 162.664 185.619 162.613 185.782C162.566 185.941 162.52 186.081 162.473 186.202L160.898 190.276ZM173.375 188.169C173.337 188.22 173.3 188.26 173.263 188.288C173.225 188.316 173.172 188.33 173.102 188.33C173.032 188.33 172.955 188.302 172.871 188.246C172.791 188.185 172.689 188.12 172.563 188.05C172.437 187.98 172.283 187.917 172.101 187.861C171.923 187.8 171.704 187.77 171.443 187.77C171.097 187.77 170.792 187.833 170.526 187.959C170.26 188.08 170.036 188.258 169.854 188.491C169.676 188.724 169.541 189.007 169.448 189.338C169.359 189.669 169.315 190.04 169.315 190.451C169.315 190.88 169.364 191.263 169.462 191.599C169.56 191.93 169.697 192.21 169.875 192.439C170.052 192.663 170.267 192.836 170.519 192.957C170.775 193.074 171.062 193.132 171.38 193.132C171.683 193.132 171.933 193.097 172.129 193.027C172.325 192.952 172.488 192.871 172.619 192.782C172.749 192.693 172.857 192.614 172.941 192.544C173.025 192.469 173.109 192.432 173.193 192.432C173.3 192.432 173.379 192.472 173.431 192.551L173.781 193.006C173.473 193.384 173.088 193.662 172.626 193.839C172.164 194.012 171.676 194.098 171.163 194.098C170.719 194.098 170.306 194.016 169.924 193.853C169.546 193.69 169.217 193.454 168.937 193.146C168.657 192.833 168.435 192.451 168.272 191.998C168.113 191.545 168.034 191.03 168.034 190.451C168.034 189.924 168.106 189.436 168.251 188.988C168.4 188.54 168.615 188.155 168.895 187.833C169.179 187.506 169.529 187.252 169.945 187.07C170.36 186.888 170.836 186.797 171.373 186.797C171.867 186.797 172.306 186.879 172.689 187.042C173.071 187.201 173.41 187.427 173.704 187.721L173.375 188.169ZM179.91 188.169C179.872 188.22 179.835 188.26 179.798 188.288C179.76 188.316 179.707 188.33 179.637 188.33C179.567 188.33 179.49 188.302 179.406 188.246C179.326 188.185 179.224 188.12 179.098 188.05C178.972 187.98 178.818 187.917 178.636 187.861C178.458 187.8 178.239 187.77 177.978 187.77C177.632 187.77 177.327 187.833 177.061 187.959C176.795 188.08 176.571 188.258 176.389 188.491C176.211 188.724 176.076 189.007 175.983 189.338C175.894 189.669 175.85 190.04 175.85 190.451C175.85 190.88 175.899 191.263 175.997 191.599C176.095 191.93 176.232 192.21 176.41 192.439C176.587 192.663 176.802 192.836 177.054 192.957C177.31 193.074 177.597 193.132 177.915 193.132C178.218 193.132 178.468 193.097 178.664 193.027C178.86 192.952 179.023 192.871 179.154 192.782C179.284 192.693 179.392 192.614 179.476 192.544C179.56 192.469 179.644 192.432 179.728 192.432C179.835 192.432 179.914 192.472 179.966 192.551L180.316 193.006C180.008 193.384 179.623 193.662 179.161 193.839C178.699 194.012 178.211 194.098 177.698 194.098C177.254 194.098 176.841 194.016 176.459 193.853C176.081 193.69 175.752 193.454 175.472 193.146C175.192 192.833 174.97 192.451 174.807 191.998C174.648 191.545 174.569 191.03 174.569 190.451C174.569 189.924 174.641 189.436 174.786 188.988C174.935 188.54 175.15 188.155 175.43 187.833C175.714 187.506 176.064 187.252 176.48 187.07C176.895 186.888 177.371 186.797 177.908 186.797C178.402 186.797 178.841 186.879 179.224 187.042C179.606 187.201 179.945 187.427 180.239 187.721L179.91 188.169ZM184.478 186.797C184.996 186.797 185.463 186.883 185.878 187.056C186.298 187.229 186.653 187.474 186.942 187.791C187.236 188.108 187.46 188.493 187.614 188.946C187.773 189.394 187.852 189.896 187.852 190.451C187.852 191.011 187.773 191.515 187.614 191.963C187.46 192.411 187.236 192.794 186.942 193.111C186.653 193.428 186.298 193.673 185.878 193.846C185.463 194.014 184.996 194.098 184.478 194.098C183.96 194.098 183.491 194.014 183.071 193.846C182.656 193.673 182.301 193.428 182.007 193.111C181.713 192.794 181.487 192.411 181.328 191.963C181.169 191.515 181.09 191.011 181.09 190.451C181.09 189.896 181.169 189.394 181.328 188.946C181.487 188.493 181.713 188.108 182.007 187.791C182.301 187.474 182.656 187.229 183.071 187.056C183.491 186.883 183.96 186.797 184.478 186.797ZM184.478 193.125C185.178 193.125 185.701 192.892 186.046 192.425C186.391 191.954 186.564 191.298 186.564 190.458C186.564 189.613 186.391 188.955 186.046 188.484C185.701 188.013 185.178 187.777 184.478 187.777C184.123 187.777 183.815 187.838 183.554 187.959C183.293 188.08 183.073 188.255 182.896 188.484C182.723 188.713 182.593 188.995 182.504 189.331C182.42 189.662 182.378 190.038 182.378 190.458C182.378 190.878 182.42 191.254 182.504 191.585C182.593 191.916 182.723 192.196 182.896 192.425C183.073 192.649 183.293 192.822 183.554 192.943C183.815 193.064 184.123 193.125 184.478 193.125ZM190.465 186.909V191.431C190.465 191.968 190.589 192.383 190.836 192.677C191.084 192.971 191.457 193.118 191.956 193.118C192.32 193.118 192.663 193.032 192.985 192.859C193.307 192.686 193.604 192.446 193.874 192.138V186.909H195.12V194H194.378C194.201 194 194.089 193.914 194.042 193.741L193.944 192.978C193.636 193.319 193.291 193.594 192.908 193.804C192.526 194.009 192.087 194.112 191.592 194.112C191.205 194.112 190.862 194.049 190.563 193.923C190.269 193.792 190.022 193.61 189.821 193.377C189.621 193.144 189.469 192.861 189.366 192.53C189.268 192.199 189.219 191.832 189.219 191.431V186.909H190.465ZM197.167 194V186.909H197.909C198.086 186.909 198.198 186.995 198.245 187.168L198.343 187.938C198.651 187.597 198.994 187.322 199.372 187.112C199.754 186.902 200.195 186.797 200.695 186.797C201.082 186.797 201.423 186.862 201.717 186.993C202.015 187.119 202.263 187.301 202.459 187.539C202.659 187.772 202.811 188.055 202.914 188.386C203.016 188.717 203.068 189.084 203.068 189.485V194H201.822V189.485C201.822 188.948 201.698 188.533 201.451 188.239C201.208 187.94 200.835 187.791 200.331 187.791C199.962 187.791 199.617 187.88 199.295 188.057C198.977 188.234 198.683 188.475 198.413 188.778V194H197.167ZM207.095 194.112C206.535 194.112 206.103 193.956 205.8 193.643C205.501 193.33 205.352 192.88 205.352 192.292V187.952H204.498C204.423 187.952 204.36 187.931 204.309 187.889C204.257 187.842 204.232 187.772 204.232 187.679V187.182L205.394 187.035L205.681 184.844C205.69 184.774 205.72 184.718 205.772 184.676C205.823 184.629 205.888 184.606 205.968 184.606H206.598V187.049H208.628V187.952H206.598V192.208C206.598 192.507 206.67 192.728 206.815 192.873C206.959 193.018 207.146 193.09 207.375 193.09C207.505 193.09 207.617 193.074 207.711 193.041C207.809 193.004 207.893 192.964 207.963 192.922C208.033 192.88 208.091 192.843 208.138 192.81C208.189 192.773 208.233 192.754 208.271 192.754C208.336 192.754 208.394 192.794 208.446 192.873L208.81 193.468C208.595 193.669 208.336 193.827 208.033 193.944C207.729 194.056 207.417 194.112 207.095 194.112ZM214.43 192.859H218.77V194H213.072V183.969H214.43V192.859ZM225.275 194H224.722C224.601 194 224.503 193.981 224.428 193.944C224.353 193.907 224.304 193.827 224.281 193.706L224.141 193.048C223.954 193.216 223.772 193.368 223.595 193.503C223.418 193.634 223.231 193.746 223.035 193.839C222.839 193.928 222.629 193.995 222.405 194.042C222.186 194.089 221.941 194.112 221.67 194.112C221.395 194.112 221.136 194.075 220.893 194C220.655 193.921 220.447 193.804 220.27 193.65C220.093 193.496 219.95 193.302 219.843 193.069C219.74 192.831 219.689 192.551 219.689 192.229C219.689 191.949 219.766 191.681 219.92 191.424C220.074 191.163 220.321 190.932 220.662 190.731C221.007 190.53 221.458 190.367 222.013 190.241C222.568 190.11 223.247 190.036 224.05 190.017V189.464C224.05 188.913 223.931 188.498 223.693 188.218C223.46 187.933 223.112 187.791 222.65 187.791C222.347 187.791 222.09 187.831 221.88 187.91C221.675 187.985 221.495 188.071 221.341 188.169C221.192 188.262 221.061 188.349 220.949 188.428C220.842 188.503 220.734 188.54 220.627 188.54C220.543 188.54 220.468 188.519 220.403 188.477C220.342 188.43 220.293 188.374 220.256 188.309L220.032 187.91C220.424 187.532 220.846 187.25 221.299 187.063C221.752 186.876 222.253 186.783 222.804 186.783C223.201 186.783 223.553 186.848 223.861 186.979C224.169 187.11 224.428 187.292 224.638 187.525C224.848 187.758 225.007 188.041 225.114 188.372C225.221 188.703 225.275 189.067 225.275 189.464V194ZM222.041 193.237C222.26 193.237 222.461 193.216 222.643 193.174C222.825 193.127 222.995 193.064 223.154 192.985C223.317 192.901 223.471 192.801 223.616 192.684C223.765 192.567 223.91 192.434 224.05 192.285V190.808C223.476 190.827 222.988 190.873 222.587 190.948C222.186 191.018 221.859 191.111 221.607 191.228C221.355 191.345 221.171 191.482 221.054 191.641C220.942 191.8 220.886 191.977 220.886 192.173C220.886 192.36 220.916 192.521 220.977 192.656C221.038 192.791 221.119 192.903 221.222 192.992C221.325 193.076 221.446 193.139 221.586 193.181C221.726 193.218 221.878 193.237 222.041 193.237ZM227.205 194V183.689H228.458V187.931C228.752 187.59 229.088 187.317 229.466 187.112C229.848 186.902 230.285 186.797 230.775 186.797C231.185 186.797 231.556 186.874 231.888 187.028C232.219 187.182 232.501 187.413 232.735 187.721C232.968 188.024 233.148 188.402 233.274 188.855C233.4 189.303 233.463 189.821 233.463 190.409C233.463 190.932 233.393 191.419 233.253 191.872C233.113 192.32 232.91 192.71 232.644 193.041C232.382 193.368 232.06 193.627 231.678 193.818C231.3 194.005 230.873 194.098 230.397 194.098C229.939 194.098 229.55 194.009 229.228 193.832C228.91 193.655 228.633 193.407 228.395 193.09L228.332 193.734C228.294 193.911 228.187 194 228.01 194H227.205ZM230.369 187.791C229.963 187.791 229.606 187.884 229.298 188.071C228.994 188.258 228.714 188.521 228.458 188.862V192.292C228.682 192.6 228.929 192.817 229.2 192.943C229.475 193.069 229.781 193.132 230.117 193.132C230.779 193.132 231.288 192.896 231.643 192.425C231.997 191.954 232.175 191.282 232.175 190.409C232.175 189.947 232.133 189.55 232.049 189.219C231.969 188.888 231.853 188.617 231.699 188.407C231.545 188.192 231.356 188.036 231.132 187.938C230.908 187.84 230.653 187.791 230.369 187.791ZM237.79 186.797C238.215 186.797 238.607 186.869 238.966 187.014C239.325 187.154 239.636 187.359 239.897 187.63C240.158 187.896 240.361 188.227 240.506 188.624C240.655 189.016 240.73 189.464 240.73 189.968C240.73 190.164 240.709 190.295 240.667 190.36C240.625 190.425 240.546 190.458 240.429 190.458H235.711C235.72 190.906 235.781 191.296 235.893 191.627C236.005 191.958 236.159 192.236 236.355 192.46C236.551 192.679 236.784 192.845 237.055 192.957C237.326 193.064 237.629 193.118 237.965 193.118C238.278 193.118 238.546 193.083 238.77 193.013C238.999 192.938 239.195 192.859 239.358 192.775C239.521 192.691 239.657 192.614 239.764 192.544C239.876 192.469 239.972 192.432 240.051 192.432C240.154 192.432 240.233 192.472 240.289 192.551L240.639 193.006C240.485 193.193 240.301 193.356 240.086 193.496C239.871 193.631 239.64 193.743 239.393 193.832C239.15 193.921 238.898 193.986 238.637 194.028C238.376 194.075 238.117 194.098 237.86 194.098C237.37 194.098 236.917 194.016 236.502 193.853C236.091 193.685 235.734 193.442 235.431 193.125C235.132 192.803 234.899 192.406 234.731 191.935C234.563 191.464 234.479 190.922 234.479 190.311C234.479 189.816 234.554 189.354 234.703 188.925C234.857 188.496 235.076 188.125 235.361 187.812C235.646 187.495 235.993 187.247 236.404 187.07C236.815 186.888 237.277 186.797 237.79 186.797ZM237.818 187.714C237.216 187.714 236.742 187.889 236.397 188.239C236.052 188.584 235.837 189.065 235.753 189.681H239.61C239.61 189.392 239.57 189.128 239.491 188.89C239.412 188.647 239.295 188.44 239.141 188.267C238.987 188.09 238.798 187.954 238.574 187.861C238.355 187.763 238.103 187.714 237.818 187.714ZM243.711 183.689V194H242.465V183.689H243.711Z" fill="black"/>
<path d="M165.05 252.969V254.11H161.809V263H160.451V254.11H157.196V252.969H165.05ZM167.101 265.093C167.059 265.186 167.005 265.261 166.94 265.317C166.879 265.373 166.784 265.401 166.653 265.401H165.729L167.024 262.587L164.098 255.909H165.176C165.283 255.909 165.367 255.937 165.428 255.993C165.489 256.044 165.533 256.103 165.561 256.168L167.458 260.634C167.5 260.737 167.535 260.839 167.563 260.942C167.596 261.045 167.624 261.15 167.647 261.257C167.68 261.15 167.712 261.045 167.745 260.942C167.778 260.839 167.815 260.734 167.857 260.627L169.698 256.168C169.726 256.093 169.773 256.033 169.838 255.986C169.908 255.935 169.983 255.909 170.062 255.909H171.056L167.101 265.093ZM172.186 265.401V255.909H172.928C173.105 255.909 173.217 255.995 173.264 256.168L173.369 257.008C173.672 256.639 174.018 256.343 174.405 256.119C174.797 255.895 175.247 255.783 175.756 255.783C176.162 255.783 176.531 255.862 176.862 256.021C177.193 256.175 177.476 256.406 177.709 256.714C177.942 257.017 178.122 257.395 178.248 257.848C178.374 258.301 178.437 258.821 178.437 259.409C178.437 259.932 178.367 260.419 178.227 260.872C178.087 261.32 177.886 261.71 177.625 262.041C177.364 262.368 177.042 262.627 176.659 262.818C176.281 263.005 175.854 263.098 175.378 263.098C174.939 263.098 174.564 263.026 174.251 262.881C173.943 262.736 173.67 262.531 173.432 262.265V265.401H172.186ZM175.343 256.791C174.937 256.791 174.58 256.884 174.272 257.071C173.969 257.258 173.689 257.521 173.432 257.862V261.292C173.661 261.6 173.91 261.817 174.181 261.943C174.456 262.069 174.762 262.132 175.098 262.132C175.756 262.132 176.262 261.896 176.617 261.425C176.972 260.954 177.149 260.282 177.149 259.409C177.149 258.947 177.107 258.55 177.023 258.219C176.944 257.888 176.827 257.617 176.673 257.407C176.519 257.192 176.33 257.036 176.106 256.938C175.882 256.84 175.628 256.791 175.343 256.791ZM182.718 255.797C183.142 255.797 183.534 255.869 183.894 256.014C184.253 256.154 184.563 256.359 184.825 256.63C185.086 256.896 185.289 257.227 185.434 257.624C185.583 258.016 185.658 258.464 185.658 258.968C185.658 259.164 185.637 259.295 185.595 259.36C185.553 259.425 185.473 259.458 185.357 259.458H180.639C180.648 259.906 180.709 260.296 180.821 260.627C180.933 260.958 181.087 261.236 181.283 261.46C181.479 261.679 181.712 261.845 181.983 261.957C182.253 262.064 182.557 262.118 182.893 262.118C183.205 262.118 183.474 262.083 183.698 262.013C183.926 261.938 184.122 261.859 184.286 261.775C184.449 261.691 184.584 261.614 184.692 261.544C184.804 261.469 184.899 261.432 184.979 261.432C185.081 261.432 185.161 261.472 185.217 261.551L185.567 262.006C185.413 262.193 185.228 262.356 185.014 262.496C184.799 262.631 184.568 262.743 184.321 262.832C184.078 262.921 183.826 262.986 183.565 263.028C183.303 263.075 183.044 263.098 182.788 263.098C182.298 263.098 181.845 263.016 181.43 262.853C181.019 262.685 180.662 262.442 180.359 262.125C180.06 261.803 179.827 261.406 179.659 260.935C179.491 260.464 179.407 259.922 179.407 259.311C179.407 258.816 179.481 258.354 179.631 257.925C179.785 257.496 180.004 257.125 180.289 256.812C180.573 256.495 180.921 256.247 181.332 256.07C181.742 255.888 182.204 255.797 182.718 255.797ZM182.746 256.714C182.144 256.714 181.67 256.889 181.325 257.239C180.979 257.584 180.765 258.065 180.681 258.681H184.538C184.538 258.392 184.498 258.128 184.419 257.89C184.339 257.647 184.223 257.44 184.069 257.267C183.915 257.09 183.726 256.954 183.502 256.861C183.282 256.763 183.03 256.714 182.746 256.714Z" fill="black"/>
<path d="M222.471 350H221.421C221.3 350 221.202 349.97 221.127 349.909C221.052 349.848 220.996 349.771 220.959 349.678L220.021 347.256H215.52L214.582 349.678C214.549 349.762 214.493 349.837 214.414 349.902C214.335 349.967 214.237 350 214.12 350H213.07L217.081 339.969H218.46L222.471 350ZM215.898 346.276H219.643L218.068 342.195C217.965 341.943 217.865 341.628 217.767 341.25C217.716 341.441 217.664 341.619 217.613 341.782C217.566 341.941 217.52 342.081 217.473 342.202L215.898 346.276ZM228.375 344.169C228.337 344.22 228.3 344.26 228.263 344.288C228.225 344.316 228.172 344.33 228.102 344.33C228.032 344.33 227.955 344.302 227.871 344.246C227.791 344.185 227.689 344.12 227.563 344.05C227.437 343.98 227.283 343.917 227.101 343.861C226.923 343.8 226.704 343.77 226.443 343.77C226.097 343.77 225.792 343.833 225.526 343.959C225.26 344.08 225.036 344.258 224.854 344.491C224.676 344.724 224.541 345.007 224.448 345.338C224.359 345.669 224.315 346.04 224.315 346.451C224.315 346.88 224.364 347.263 224.462 347.599C224.56 347.93 224.697 348.21 224.875 348.439C225.052 348.663 225.267 348.836 225.519 348.957C225.775 349.074 226.062 349.132 226.38 349.132C226.683 349.132 226.933 349.097 227.129 349.027C227.325 348.952 227.488 348.871 227.619 348.782C227.749 348.693 227.857 348.614 227.941 348.544C228.025 348.469 228.109 348.432 228.193 348.432C228.3 348.432 228.379 348.472 228.431 348.551L228.781 349.006C228.473 349.384 228.088 349.662 227.626 349.839C227.164 350.012 226.676 350.098 226.163 350.098C225.719 350.098 225.306 350.016 224.924 349.853C224.546 349.69 224.217 349.454 223.937 349.146C223.657 348.833 223.435 348.451 223.272 347.998C223.113 347.545 223.034 347.03 223.034 346.451C223.034 345.924 223.106 345.436 223.251 344.988C223.4 344.54 223.615 344.155 223.895 343.833C224.179 343.506 224.529 343.252 224.945 343.07C225.36 342.888 225.836 342.797 226.373 342.797C226.867 342.797 227.306 342.879 227.689 343.042C228.071 343.201 228.41 343.427 228.704 343.721L228.375 344.169ZM234.91 344.169C234.872 344.22 234.835 344.26 234.798 344.288C234.76 344.316 234.707 344.33 234.637 344.33C234.567 344.33 234.49 344.302 234.406 344.246C234.326 344.185 234.224 344.12 234.098 344.05C233.972 343.98 233.818 343.917 233.636 343.861C233.458 343.8 233.239 343.77 232.978 343.77C232.632 343.77 232.327 343.833 232.061 343.959C231.795 344.08 231.571 344.258 231.389 344.491C231.211 344.724 231.076 345.007 230.983 345.338C230.894 345.669 230.85 346.04 230.85 346.451C230.85 346.88 230.899 347.263 230.997 347.599C231.095 347.93 231.232 348.21 231.41 348.439C231.587 348.663 231.802 348.836 232.054 348.957C232.31 349.074 232.597 349.132 232.915 349.132C233.218 349.132 233.468 349.097 233.664 349.027C233.86 348.952 234.023 348.871 234.154 348.782C234.284 348.693 234.392 348.614 234.476 348.544C234.56 348.469 234.644 348.432 234.728 348.432C234.835 348.432 234.914 348.472 234.966 348.551L235.316 349.006C235.008 349.384 234.623 349.662 234.161 349.839C233.699 350.012 233.211 350.098 232.698 350.098C232.254 350.098 231.841 350.016 231.459 349.853C231.081 349.69 230.752 349.454 230.472 349.146C230.192 348.833 229.97 348.451 229.807 347.998C229.648 347.545 229.569 347.03 229.569 346.451C229.569 345.924 229.641 345.436 229.786 344.988C229.935 344.54 230.15 344.155 230.43 343.833C230.714 343.506 231.064 343.252 231.48 343.07C231.895 342.888 232.371 342.797 232.908 342.797C233.402 342.797 233.841 342.879 234.224 343.042C234.606 343.201 234.945 343.427 235.239 343.721L234.91 344.169ZM239.415 342.797C239.84 342.797 240.232 342.869 240.591 343.014C240.95 343.154 241.261 343.359 241.522 343.63C241.783 343.896 241.986 344.227 242.131 344.624C242.28 345.016 242.355 345.464 242.355 345.968C242.355 346.164 242.334 346.295 242.292 346.36C242.25 346.425 242.171 346.458 242.054 346.458H237.336C237.345 346.906 237.406 347.296 237.518 347.627C237.63 347.958 237.784 348.236 237.98 348.46C238.176 348.679 238.409 348.845 238.68 348.957C238.951 349.064 239.254 349.118 239.59 349.118C239.903 349.118 240.171 349.083 240.395 349.013C240.624 348.938 240.82 348.859 240.983 348.775C241.146 348.691 241.282 348.614 241.389 348.544C241.501 348.469 241.597 348.432 241.676 348.432C241.779 348.432 241.858 348.472 241.914 348.551L242.264 349.006C242.11 349.193 241.926 349.356 241.711 349.496C241.496 349.631 241.265 349.743 241.018 349.832C240.775 349.921 240.523 349.986 240.262 350.028C240.001 350.075 239.742 350.098 239.485 350.098C238.995 350.098 238.542 350.016 238.127 349.853C237.716 349.685 237.359 349.442 237.056 349.125C236.757 348.803 236.524 348.406 236.356 347.935C236.188 347.464 236.104 346.922 236.104 346.311C236.104 345.816 236.179 345.354 236.328 344.925C236.482 344.496 236.701 344.125 236.986 343.812C237.271 343.495 237.618 343.247 238.029 343.07C238.44 342.888 238.902 342.797 239.415 342.797ZM239.443 343.714C238.841 343.714 238.367 343.889 238.022 344.239C237.677 344.584 237.462 345.065 237.378 345.681H241.235C241.235 345.392 241.195 345.128 241.116 344.89C241.037 344.647 240.92 344.44 240.766 344.267C240.612 344.09 240.423 343.954 240.199 343.861C239.98 343.763 239.728 343.714 239.443 343.714ZM243.95 352.401V342.909H244.692C244.869 342.909 244.981 342.995 245.028 343.168L245.133 344.008C245.436 343.639 245.781 343.343 246.169 343.119C246.561 342.895 247.011 342.783 247.52 342.783C247.926 342.783 248.294 342.862 248.626 343.021C248.957 343.175 249.239 343.406 249.473 343.714C249.706 344.017 249.886 344.395 250.012 344.848C250.138 345.301 250.201 345.821 250.201 346.409C250.201 346.932 250.131 347.419 249.991 347.872C249.851 348.32 249.65 348.71 249.389 349.041C249.127 349.368 248.805 349.627 248.423 349.818C248.045 350.005 247.618 350.098 247.142 350.098C246.703 350.098 246.327 350.026 246.015 349.881C245.707 349.736 245.434 349.531 245.196 349.265V352.401H243.95ZM247.107 343.791C246.701 343.791 246.344 343.884 246.036 344.071C245.732 344.258 245.452 344.521 245.196 344.862V348.292C245.424 348.6 245.674 348.817 245.945 348.943C246.22 349.069 246.526 349.132 246.862 349.132C247.52 349.132 248.026 348.896 248.381 348.425C248.735 347.954 248.913 347.282 248.913 346.409C248.913 345.947 248.871 345.55 248.787 345.219C248.707 344.888 248.591 344.617 248.437 344.407C248.283 344.192 248.094 344.036 247.87 343.938C247.646 343.84 247.391 343.791 247.107 343.791ZM253.823 350.112C253.263 350.112 252.832 349.956 252.528 349.643C252.23 349.33 252.08 348.88 252.08 348.292V343.952H251.226C251.152 343.952 251.089 343.931 251.037 343.889C250.986 343.842 250.96 343.772 250.96 343.679V343.182L252.122 343.035L252.409 340.844C252.419 340.774 252.449 340.718 252.5 340.676C252.552 340.629 252.617 340.606 252.696 340.606H253.326V343.049H255.356V343.952H253.326V348.208C253.326 348.507 253.399 348.728 253.543 348.873C253.688 349.018 253.875 349.09 254.103 349.09C254.234 349.09 254.346 349.074 254.439 349.041C254.537 349.004 254.621 348.964 254.691 348.922C254.761 348.88 254.82 348.843 254.866 348.81C254.918 348.773 254.962 348.754 254.999 348.754C255.065 348.754 255.123 348.794 255.174 348.873L255.538 349.468C255.324 349.669 255.065 349.827 254.761 349.944C254.458 350.056 254.145 350.112 253.823 350.112ZM259.8 350V339.969H262.999C263.615 339.969 264.145 340.03 264.588 340.151C265.036 340.272 265.402 340.445 265.687 340.669C265.976 340.893 266.189 341.168 266.324 341.495C266.464 341.817 266.534 342.181 266.534 342.587C266.534 342.834 266.494 343.072 266.415 343.301C266.34 343.53 266.224 343.742 266.065 343.938C265.911 344.134 265.715 344.309 265.477 344.463C265.244 344.617 264.968 344.743 264.651 344.841C265.384 344.986 265.937 345.249 266.31 345.632C266.683 346.015 266.87 346.519 266.87 347.144C266.87 347.569 266.791 347.956 266.632 348.306C266.478 348.656 266.249 348.957 265.946 349.209C265.647 349.461 265.279 349.657 264.84 349.797C264.406 349.932 263.909 350 263.349 350H259.8ZM261.158 345.429V348.922H263.328C263.715 348.922 264.047 348.878 264.322 348.789C264.602 348.7 264.831 348.577 265.008 348.418C265.19 348.255 265.323 348.063 265.407 347.844C265.491 347.62 265.533 347.375 265.533 347.109C265.533 346.591 265.349 346.183 264.98 345.884C264.616 345.581 264.063 345.429 263.321 345.429H261.158ZM261.158 344.463H262.95C263.333 344.463 263.664 344.421 263.944 344.337C264.224 344.253 264.455 344.136 264.637 343.987C264.824 343.838 264.961 343.658 265.05 343.448C265.139 343.233 265.183 343 265.183 342.748C265.183 342.16 265.006 341.728 264.651 341.453C264.296 341.178 263.746 341.04 262.999 341.04H261.158V344.463ZM271.538 342.797C272.056 342.797 272.523 342.883 272.938 343.056C273.358 343.229 273.713 343.474 274.002 343.791C274.296 344.108 274.52 344.493 274.674 344.946C274.833 345.394 274.912 345.896 274.912 346.451C274.912 347.011 274.833 347.515 274.674 347.963C274.52 348.411 274.296 348.794 274.002 349.111C273.713 349.428 273.358 349.673 272.938 349.846C272.523 350.014 272.056 350.098 271.538 350.098C271.02 350.098 270.551 350.014 270.131 349.846C269.716 349.673 269.361 349.428 269.067 349.111C268.773 348.794 268.547 348.411 268.388 347.963C268.23 347.515 268.15 347.011 268.15 346.451C268.15 345.896 268.23 345.394 268.388 344.946C268.547 344.493 268.773 344.108 269.067 343.791C269.361 343.474 269.716 343.229 270.131 343.056C270.551 342.883 271.02 342.797 271.538 342.797ZM271.538 349.125C272.238 349.125 272.761 348.892 273.106 348.425C273.452 347.954 273.624 347.298 273.624 346.458C273.624 345.613 273.452 344.955 273.106 344.484C272.761 344.013 272.238 343.777 271.538 343.777C271.184 343.777 270.876 343.838 270.614 343.959C270.353 344.08 270.134 344.255 269.956 344.484C269.784 344.713 269.653 344.995 269.564 345.331C269.48 345.662 269.438 346.038 269.438 346.458C269.438 346.878 269.48 347.254 269.564 347.585C269.653 347.916 269.784 348.196 269.956 348.425C270.134 348.649 270.353 348.822 270.614 348.943C270.876 349.064 271.184 349.125 271.538 349.125ZM279.318 342.797C279.836 342.797 280.302 342.883 280.718 343.056C281.138 343.229 281.492 343.474 281.782 343.791C282.076 344.108 282.3 344.493 282.454 344.946C282.612 345.394 282.692 345.896 282.692 346.451C282.692 347.011 282.612 347.515 282.454 347.963C282.3 348.411 282.076 348.794 281.782 349.111C281.492 349.428 281.138 349.673 280.718 349.846C280.302 350.014 279.836 350.098 279.318 350.098C278.8 350.098 278.331 350.014 277.911 349.846C277.495 349.673 277.141 349.428 276.847 349.111C276.553 348.794 276.326 348.411 276.168 347.963C276.009 347.515 275.93 347.011 275.93 346.451C275.93 345.896 276.009 345.394 276.168 344.946C276.326 344.493 276.553 344.108 276.847 343.791C277.141 343.474 277.495 343.229 277.911 343.056C278.331 342.883 278.8 342.797 279.318 342.797ZM279.318 349.125C280.018 349.125 280.54 348.892 280.886 348.425C281.231 347.954 281.404 347.298 281.404 346.458C281.404 345.613 281.231 344.955 280.886 344.484C280.54 344.013 280.018 343.777 279.318 343.777C278.963 343.777 278.655 343.838 278.394 343.959C278.132 344.08 277.913 344.255 277.736 344.484C277.563 344.713 277.432 344.995 277.344 345.331C277.26 345.662 277.218 346.038 277.218 346.458C277.218 346.878 277.26 347.254 277.344 347.585C277.432 347.916 277.563 348.196 277.736 348.425C277.913 348.649 278.132 348.822 278.394 348.943C278.655 349.064 278.963 349.125 279.318 349.125ZM285.522 339.689V345.758H285.844C285.937 345.758 286.014 345.746 286.075 345.723C286.136 345.695 286.203 345.641 286.278 345.562L288.518 343.161C288.588 343.086 288.658 343.026 288.728 342.979C288.798 342.932 288.891 342.909 289.008 342.909H290.142L287.531 345.688C287.466 345.767 287.4 345.837 287.335 345.898C287.274 345.959 287.204 346.012 287.125 346.059C287.209 346.115 287.284 346.18 287.349 346.255C287.419 346.325 287.484 346.407 287.545 346.5L290.317 350H289.197C289.094 350 289.006 349.981 288.931 349.944C288.861 349.902 288.793 349.839 288.728 349.755L286.397 346.85C286.327 346.752 286.257 346.689 286.187 346.661C286.117 346.628 286.012 346.612 285.872 346.612H285.522V350H284.269V339.689H285.522ZM292.955 342.909V350H291.709V342.909H292.955ZM293.235 340.683C293.235 340.804 293.209 340.919 293.158 341.026C293.111 341.129 293.046 341.222 292.962 341.306C292.883 341.385 292.789 341.448 292.682 341.495C292.575 341.542 292.46 341.565 292.339 341.565C292.218 341.565 292.103 341.542 291.996 341.495C291.893 341.448 291.8 341.385 291.716 341.306C291.637 341.222 291.574 341.129 291.527 341.026C291.48 340.919 291.457 340.804 291.457 340.683C291.457 340.562 291.48 340.447 291.527 340.34C291.574 340.228 291.637 340.132 291.716 340.053C291.8 339.969 291.893 339.904 291.996 339.857C292.103 339.81 292.218 339.787 292.339 339.787C292.46 339.787 292.575 339.81 292.682 339.857C292.789 339.904 292.883 339.969 292.962 340.053C293.046 340.132 293.111 340.228 293.158 340.34C293.209 340.447 293.235 340.562 293.235 340.683ZM295.151 350V342.909H295.893C296.07 342.909 296.182 342.995 296.229 343.168L296.327 343.938C296.635 343.597 296.978 343.322 297.356 343.112C297.739 342.902 298.18 342.797 298.679 342.797C299.066 342.797 299.407 342.862 299.701 342.993C300 343.119 300.247 343.301 300.443 343.539C300.644 343.772 300.795 344.055 300.898 344.386C301.001 344.717 301.052 345.084 301.052 345.485V350H299.806V345.485C299.806 344.948 299.682 344.533 299.435 344.239C299.192 343.94 298.819 343.791 298.315 343.791C297.946 343.791 297.601 343.88 297.279 344.057C296.962 344.234 296.668 344.475 296.397 344.778V350H295.151ZM305.317 342.79C305.625 342.79 305.912 342.825 306.178 342.895C306.449 342.96 306.694 343.058 306.913 343.189H308.838V343.651C308.838 343.805 308.74 343.903 308.544 343.945L307.739 344.057C307.898 344.36 307.977 344.699 307.977 345.072C307.977 345.417 307.91 345.732 307.774 346.017C307.644 346.297 307.459 346.537 307.221 346.738C306.988 346.939 306.708 347.093 306.381 347.2C306.059 347.307 305.705 347.361 305.317 347.361C304.986 347.361 304.673 347.321 304.379 347.242C304.23 347.335 304.116 347.436 304.036 347.543C303.962 347.65 303.924 347.755 303.924 347.858C303.924 348.026 303.992 348.154 304.127 348.243C304.263 348.327 304.442 348.388 304.666 348.425C304.89 348.462 305.145 348.486 305.429 348.495C305.714 348.504 306.003 348.521 306.297 348.544C306.596 348.563 306.888 348.598 307.172 348.649C307.457 348.7 307.711 348.784 307.935 348.901C308.159 349.018 308.339 349.179 308.474 349.384C308.61 349.589 308.677 349.855 308.677 350.182C308.677 350.485 308.6 350.779 308.446 351.064C308.297 351.349 308.08 351.601 307.795 351.82C307.511 352.044 307.163 352.221 306.752 352.352C306.342 352.487 305.877 352.555 305.359 352.555C304.841 352.555 304.386 352.504 303.994 352.401C303.607 352.298 303.285 352.161 303.028 351.988C302.772 351.815 302.578 351.615 302.447 351.386C302.321 351.162 302.258 350.926 302.258 350.679C302.258 350.329 302.368 350.033 302.587 349.79C302.811 349.543 303.117 349.347 303.504 349.202C303.304 349.109 303.143 348.985 303.021 348.831C302.905 348.672 302.846 348.462 302.846 348.201C302.846 348.098 302.865 347.993 302.902 347.886C302.94 347.774 302.996 347.664 303.07 347.557C303.15 347.45 303.245 347.347 303.357 347.249C303.469 347.151 303.6 347.065 303.749 346.99C303.399 346.794 303.124 346.535 302.923 346.213C302.727 345.886 302.629 345.506 302.629 345.072C302.629 344.727 302.695 344.414 302.825 344.134C302.961 343.849 303.147 343.609 303.385 343.413C303.623 343.212 303.906 343.058 304.232 342.951C304.564 342.844 304.925 342.79 305.317 342.79ZM307.529 350.385C307.529 350.208 307.48 350.065 307.382 349.958C307.284 349.851 307.151 349.769 306.983 349.713C306.815 349.652 306.622 349.608 306.402 349.58C306.183 349.552 305.952 349.533 305.709 349.524C305.467 349.51 305.219 349.496 304.967 349.482C304.715 349.468 304.475 349.442 304.246 349.405C303.98 349.531 303.763 349.685 303.595 349.867C303.432 350.049 303.35 350.266 303.35 350.518C303.35 350.677 303.39 350.824 303.469 350.959C303.553 351.099 303.679 351.218 303.847 351.316C304.015 351.419 304.225 351.498 304.477 351.554C304.734 351.615 305.035 351.645 305.38 351.645C305.716 351.645 306.017 351.615 306.283 351.554C306.549 351.493 306.773 351.407 306.955 351.295C307.142 351.183 307.284 351.05 307.382 350.896C307.48 350.742 307.529 350.572 307.529 350.385ZM305.317 346.535C305.569 346.535 305.791 346.5 305.982 346.43C306.178 346.36 306.342 346.262 306.472 346.136C306.603 346.01 306.701 345.861 306.766 345.688C306.832 345.511 306.864 345.317 306.864 345.107C306.864 344.673 306.731 344.328 306.465 344.071C306.204 343.814 305.821 343.686 305.317 343.686C304.818 343.686 304.435 343.814 304.169 344.071C303.908 344.328 303.777 344.673 303.777 345.107C303.777 345.317 303.81 345.511 303.875 345.688C303.945 345.861 304.046 346.01 304.176 346.136C304.307 346.262 304.468 346.36 304.659 346.43C304.851 346.5 305.07 346.535 305.317 346.535ZM313.068 350V343.973L312.284 343.882C312.186 343.859 312.104 343.824 312.039 343.777C311.978 343.726 311.948 343.653 311.948 343.56V343.049H313.068V342.363C313.068 341.957 313.124 341.598 313.236 341.285C313.352 340.968 313.516 340.702 313.726 340.487C313.94 340.268 314.197 340.102 314.496 339.99C314.794 339.878 315.13 339.822 315.504 339.822C315.821 339.822 316.115 339.869 316.386 339.962L316.358 340.585C316.353 340.678 316.313 340.734 316.239 340.753C316.164 340.772 316.059 340.781 315.924 340.781H315.707C315.492 340.781 315.296 340.809 315.119 340.865C314.946 340.921 314.797 341.012 314.671 341.138C314.545 341.264 314.447 341.43 314.377 341.635C314.311 341.84 314.279 342.095 314.279 342.398V343.049H316.33V343.952H314.321V350H313.068ZM317.504 350V342.909H318.218C318.354 342.909 318.447 342.935 318.498 342.986C318.55 343.037 318.585 343.126 318.603 343.252L318.687 344.358C318.93 343.863 319.229 343.478 319.583 343.203C319.943 342.923 320.363 342.783 320.843 342.783C321.039 342.783 321.217 342.806 321.375 342.853C321.534 342.895 321.681 342.956 321.816 343.035L321.655 343.966C321.623 344.083 321.55 344.141 321.438 344.141C321.373 344.141 321.273 344.12 321.137 344.078C321.002 344.031 320.813 344.008 320.57 344.008C320.136 344.008 319.772 344.134 319.478 344.386C319.189 344.638 318.946 345.004 318.75 345.485V350H317.504ZM326.021 342.797C326.539 342.797 327.006 342.883 327.421 343.056C327.841 343.229 328.196 343.474 328.485 343.791C328.779 344.108 329.003 344.493 329.157 344.946C329.316 345.394 329.395 345.896 329.395 346.451C329.395 347.011 329.316 347.515 329.157 347.963C329.003 348.411 328.779 348.794 328.485 349.111C328.196 349.428 327.841 349.673 327.421 349.846C327.006 350.014 326.539 350.098 326.021 350.098C325.503 350.098 325.034 350.014 324.614 349.846C324.199 349.673 323.844 349.428 323.55 349.111C323.256 348.794 323.03 348.411 322.871 347.963C322.712 347.515 322.633 347.011 322.633 346.451C322.633 345.896 322.712 345.394 322.871 344.946C323.03 344.493 323.256 344.108 323.55 343.791C323.844 343.474 324.199 343.229 324.614 343.056C325.034 342.883 325.503 342.797 326.021 342.797ZM326.021 349.125C326.721 349.125 327.244 348.892 327.589 348.425C327.934 347.954 328.107 347.298 328.107 346.458C328.107 345.613 327.934 344.955 327.589 344.484C327.244 344.013 326.721 343.777 326.021 343.777C325.666 343.777 325.358 343.838 325.097 343.959C324.836 344.08 324.616 344.255 324.439 344.484C324.266 344.713 324.136 344.995 324.047 345.331C323.963 345.662 323.921 346.038 323.921 346.458C323.921 346.878 323.963 347.254 324.047 347.585C324.136 347.916 324.266 348.196 324.439 348.425C324.616 348.649 324.836 348.822 325.097 348.943C325.358 349.064 325.666 349.125 326.021 349.125ZM330.93 350V342.909H331.672C331.85 342.909 331.962 342.995 332.008 343.168L332.099 343.896C332.361 343.574 332.652 343.31 332.974 343.105C333.301 342.9 333.679 342.797 334.108 342.797C334.589 342.797 334.976 342.93 335.27 343.196C335.569 343.462 335.784 343.821 335.914 344.274C336.012 344.017 336.141 343.796 336.299 343.609C336.463 343.422 336.645 343.268 336.845 343.147C337.046 343.026 337.258 342.937 337.482 342.881C337.711 342.825 337.942 342.797 338.175 342.797C338.549 342.797 338.88 342.858 339.169 342.979C339.463 343.096 339.711 343.268 339.911 343.497C340.117 343.726 340.273 344.008 340.38 344.344C340.488 344.675 340.541 345.056 340.541 345.485V350H339.295V345.485C339.295 344.93 339.174 344.51 338.931 344.225C338.689 343.936 338.336 343.791 337.874 343.791C337.669 343.791 337.473 343.828 337.286 343.903C337.104 343.973 336.943 344.078 336.803 344.218C336.663 344.358 336.551 344.535 336.467 344.75C336.388 344.96 336.348 345.205 336.348 345.485V350H335.102V345.485C335.102 344.916 334.988 344.491 334.759 344.211C334.531 343.931 334.197 343.791 333.758 343.791C333.45 343.791 333.163 343.875 332.897 344.043C332.636 344.206 332.396 344.43 332.176 344.715V350H330.93ZM349.195 344.078C349.139 344.181 349.053 344.232 348.936 344.232C348.866 344.232 348.787 344.206 348.698 344.155C348.61 344.104 348.5 344.048 348.369 343.987C348.243 343.922 348.092 343.863 347.914 343.812C347.737 343.756 347.527 343.728 347.284 343.728C347.074 343.728 346.885 343.756 346.717 343.812C346.549 343.863 346.405 343.936 346.283 344.029C346.167 344.122 346.076 344.232 346.01 344.358C345.95 344.479 345.919 344.612 345.919 344.757C345.919 344.939 345.971 345.091 346.073 345.212C346.181 345.333 346.321 345.438 346.493 345.527C346.666 345.616 346.862 345.695 347.081 345.765C347.301 345.83 347.525 345.903 347.753 345.982C347.987 346.057 348.213 346.141 348.432 346.234C348.652 346.327 348.848 346.444 349.02 346.584C349.193 346.724 349.331 346.897 349.433 347.102C349.541 347.303 349.594 347.545 349.594 347.83C349.594 348.157 349.536 348.46 349.419 348.74C349.303 349.015 349.13 349.256 348.901 349.461C348.673 349.662 348.393 349.82 348.061 349.937C347.73 350.054 347.347 350.112 346.913 350.112C346.419 350.112 345.971 350.033 345.569 349.874C345.168 349.711 344.827 349.503 344.547 349.251L344.841 348.775C344.879 348.714 344.923 348.668 344.974 348.635C345.026 348.602 345.093 348.586 345.177 348.586C345.261 348.586 345.35 348.619 345.443 348.684C345.537 348.749 345.649 348.822 345.779 348.901C345.915 348.98 346.076 349.053 346.262 349.118C346.454 349.183 346.692 349.216 346.976 349.216C347.219 349.216 347.431 349.186 347.613 349.125C347.795 349.06 347.947 348.973 348.068 348.866C348.19 348.759 348.278 348.635 348.334 348.495C348.395 348.355 348.425 348.206 348.425 348.047C348.425 347.851 348.372 347.69 348.264 347.564C348.162 347.433 348.024 347.324 347.851 347.235C347.679 347.142 347.48 347.062 347.256 346.997C347.037 346.927 346.811 346.855 346.577 346.78C346.349 346.705 346.122 346.621 345.898 346.528C345.679 346.43 345.483 346.309 345.31 346.164C345.138 346.019 344.998 345.842 344.89 345.632C344.788 345.417 344.736 345.158 344.736 344.855C344.736 344.584 344.792 344.325 344.904 344.078C345.016 343.826 345.18 343.607 345.394 343.42C345.609 343.229 345.873 343.077 346.185 342.965C346.498 342.853 346.855 342.797 347.256 342.797C347.723 342.797 348.141 342.872 348.509 343.021C348.883 343.166 349.205 343.366 349.475 343.623L349.195 344.078ZM356.414 350H355.861C355.739 350 355.641 349.981 355.567 349.944C355.492 349.907 355.443 349.827 355.42 349.706L355.28 349.048C355.093 349.216 354.911 349.368 354.734 349.503C354.556 349.634 354.37 349.746 354.174 349.839C353.978 349.928 353.768 349.995 353.544 350.042C353.324 350.089 353.079 350.112 352.809 350.112C352.533 350.112 352.274 350.075 352.032 350C351.794 349.921 351.586 349.804 351.409 349.65C351.231 349.496 351.089 349.302 350.982 349.069C350.879 348.831 350.828 348.551 350.828 348.229C350.828 347.949 350.905 347.681 351.059 347.424C351.213 347.163 351.46 346.932 351.801 346.731C352.146 346.53 352.596 346.367 353.152 346.241C353.707 346.11 354.386 346.036 355.189 346.017V345.464C355.189 344.913 355.07 344.498 354.832 344.218C354.598 343.933 354.251 343.791 353.789 343.791C353.485 343.791 353.229 343.831 353.019 343.91C352.813 343.985 352.634 344.071 352.48 344.169C352.33 344.262 352.2 344.349 352.088 344.428C351.98 344.503 351.873 344.54 351.766 344.54C351.682 344.54 351.607 344.519 351.542 344.477C351.481 344.43 351.432 344.374 351.395 344.309L351.171 343.91C351.563 343.532 351.985 343.25 352.438 343.063C352.89 342.876 353.392 342.783 353.943 342.783C354.339 342.783 354.692 342.848 355 342.979C355.308 343.11 355.567 343.292 355.777 343.525C355.987 343.758 356.145 344.041 356.253 344.372C356.36 344.703 356.414 345.067 356.414 345.464V350ZM353.18 349.237C353.399 349.237 353.6 349.216 353.782 349.174C353.964 349.127 354.134 349.064 354.293 348.985C354.456 348.901 354.61 348.801 354.755 348.684C354.904 348.567 355.049 348.434 355.189 348.285V346.808C354.615 346.827 354.127 346.873 353.726 346.948C353.324 347.018 352.998 347.111 352.746 347.228C352.494 347.345 352.309 347.482 352.193 347.641C352.081 347.8 352.025 347.977 352.025 348.173C352.025 348.36 352.055 348.521 352.116 348.656C352.176 348.791 352.258 348.903 352.361 348.992C352.463 349.076 352.585 349.139 352.725 349.181C352.865 349.218 353.016 349.237 353.18 349.237ZM358.581 350V343.973L357.797 343.882C357.699 343.859 357.618 343.824 357.552 343.777C357.492 343.726 357.461 343.653 357.461 343.56V343.049H358.581V342.363C358.581 341.957 358.637 341.598 358.749 341.285C358.866 340.968 359.029 340.702 359.239 340.487C359.454 340.268 359.711 340.102 360.009 339.99C360.308 339.878 360.644 339.822 361.017 339.822C361.335 339.822 361.629 339.869 361.899 339.962L361.871 340.585C361.867 340.678 361.827 340.734 361.752 340.753C361.678 340.772 361.573 340.781 361.437 340.781H361.22C361.006 340.781 360.81 340.809 360.632 340.865C360.46 340.921 360.31 341.012 360.184 341.138C360.058 341.264 359.96 341.43 359.89 341.635C359.825 341.84 359.792 342.095 359.792 342.398V343.049H361.843V343.952H359.834V350H358.581ZM365.825 342.797C366.25 342.797 366.642 342.869 367.001 343.014C367.36 343.154 367.671 343.359 367.932 343.63C368.193 343.896 368.396 344.227 368.541 344.624C368.69 345.016 368.765 345.464 368.765 345.968C368.765 346.164 368.744 346.295 368.702 346.36C368.66 346.425 368.581 346.458 368.464 346.458H363.746C363.755 346.906 363.816 347.296 363.928 347.627C364.04 347.958 364.194 348.236 364.39 348.46C364.586 348.679 364.819 348.845 365.09 348.957C365.361 349.064 365.664 349.118 366 349.118C366.313 349.118 366.581 349.083 366.805 349.013C367.034 348.938 367.23 348.859 367.393 348.775C367.556 348.691 367.692 348.614 367.799 348.544C367.911 348.469 368.007 348.432 368.086 348.432C368.189 348.432 368.268 348.472 368.324 348.551L368.674 349.006C368.52 349.193 368.336 349.356 368.121 349.496C367.906 349.631 367.675 349.743 367.428 349.832C367.185 349.921 366.933 349.986 366.672 350.028C366.411 350.075 366.152 350.098 365.895 350.098C365.405 350.098 364.952 350.016 364.537 349.853C364.126 349.685 363.769 349.442 363.466 349.125C363.167 348.803 362.934 348.406 362.766 347.935C362.598 347.464 362.514 346.922 362.514 346.311C362.514 345.816 362.589 345.354 362.738 344.925C362.892 344.496 363.111 344.125 363.396 343.812C363.681 343.495 364.028 343.247 364.439 343.07C364.85 342.888 365.312 342.797 365.825 342.797ZM365.853 343.714C365.251 343.714 364.777 343.889 364.432 344.239C364.087 344.584 363.872 345.065 363.788 345.681H367.645C367.645 345.392 367.605 345.128 367.526 344.89C367.447 344.647 367.33 344.44 367.176 344.267C367.022 344.09 366.833 343.954 366.609 343.861C366.39 343.763 366.138 343.714 365.853 343.714Z" fill="black"/>
<path d="M161.583 61.986C161.691 61.986 161.781 61.992 161.853 62.004C161.925 62.01 161.988 62.028 162.042 62.058C162.102 62.082 162.159 62.121 162.213 62.175C162.267 62.223 162.327 62.289 162.393 62.373L169.224 71.076C169.2 70.866 169.182 70.662 169.17 70.464C169.164 70.26 169.161 70.071 169.161 69.897V61.986H171.294V75H170.043C169.851 75 169.692 74.97 169.566 74.91C169.44 74.85 169.317 74.742 169.197 74.586L162.393 65.919C162.411 66.111 162.423 66.303 162.429 66.495C162.441 66.681 162.447 66.852 162.447 67.008V75H160.314V61.986H161.583ZM177.609 65.622C178.191 65.622 178.725 65.715 179.211 65.901C179.703 66.087 180.126 66.36 180.48 66.72C180.834 67.074 181.11 67.512 181.308 68.034C181.506 68.55 181.605 69.141 181.605 69.807C181.605 69.975 181.596 70.116 181.578 70.23C181.566 70.338 181.539 70.425 181.497 70.491C181.461 70.551 181.41 70.596 181.344 70.626C181.278 70.65 181.194 70.662 181.092 70.662H175.386C175.452 71.61 175.707 72.306 176.151 72.75C176.595 73.194 177.183 73.416 177.915 73.416C178.275 73.416 178.584 73.374 178.842 73.29C179.106 73.206 179.334 73.113 179.526 73.011C179.724 72.909 179.895 72.816 180.039 72.732C180.189 72.648 180.333 72.606 180.471 72.606C180.561 72.606 180.639 72.624 180.705 72.66C180.771 72.696 180.828 72.747 180.876 72.813L181.524 73.623C181.278 73.911 181.002 74.154 180.696 74.352C180.39 74.544 180.069 74.7 179.733 74.82C179.403 74.934 179.064 75.015 178.716 75.063C178.374 75.111 178.041 75.135 177.717 75.135C177.075 75.135 176.478 75.03 175.926 74.82C175.374 74.604 174.894 74.289 174.486 73.875C174.078 73.455 173.757 72.939 173.523 72.327C173.289 71.709 173.172 70.995 173.172 70.185C173.172 69.555 173.274 68.964 173.478 68.412C173.682 67.854 173.973 67.371 174.351 66.963C174.735 66.549 175.2 66.222 175.746 65.982C176.298 65.742 176.919 65.622 177.609 65.622ZM177.654 67.215C177.006 67.215 176.499 67.398 176.133 67.764C175.767 68.13 175.533 68.649 175.431 69.321H179.607C179.607 69.033 179.568 68.763 179.49 68.511C179.412 68.253 179.292 68.028 179.13 67.836C178.968 67.644 178.764 67.494 178.518 67.386C178.272 67.272 177.984 67.215 177.654 67.215ZM182.284 65.766H184.048C184.216 65.766 184.357 65.805 184.471 65.883C184.585 65.961 184.657 66.06 184.687 66.18L186.01 71.112C186.082 71.382 186.139 71.646 186.181 71.904C186.229 72.162 186.274 72.42 186.316 72.678C186.382 72.42 186.451 72.162 186.523 71.904C186.601 71.646 186.682 71.382 186.766 71.112L188.296 66.162C188.332 66.042 188.404 65.943 188.512 65.865C188.62 65.787 188.746 65.748 188.89 65.748H189.871C190.033 65.748 190.168 65.787 190.276 65.865C190.384 65.943 190.456 66.042 190.492 66.162L192.004 71.202C192.082 71.46 192.151 71.712 192.211 71.958C192.277 72.198 192.34 72.441 192.4 72.687C192.442 72.429 192.487 72.171 192.535 71.913C192.589 71.655 192.655 71.388 192.733 71.112L194.101 66.18C194.131 66.06 194.203 65.961 194.317 65.883C194.431 65.805 194.563 65.766 194.713 65.766H196.396L193.471 75H191.68C191.488 75 191.35 74.868 191.266 74.604L189.601 69.267C189.547 69.093 189.496 68.919 189.448 68.745C189.406 68.565 189.37 68.388 189.34 68.214C189.304 68.394 189.265 68.574 189.223 68.754C189.181 68.928 189.133 69.105 189.079 69.285L187.396 74.604C187.312 74.868 187.15 75 186.91 75H185.209L182.284 65.766ZM209.461 61.986V63.912H203.692V67.521H208.237V69.384H203.692V73.065H209.461V75H201.253V61.986H209.461ZM213.615 70.239L210.582 65.766H212.724C212.886 65.766 213.006 65.79 213.084 65.838C213.162 65.88 213.231 65.952 213.291 66.054L215.226 69.141C215.256 69.039 215.292 68.937 215.334 68.835C215.382 68.733 215.439 68.631 215.505 68.529L217.062 66.099C217.134 65.985 217.209 65.901 217.287 65.847C217.365 65.793 217.461 65.766 217.575 65.766H219.618L216.576 70.14L219.744 75H217.602C217.44 75 217.308 74.958 217.206 74.874C217.11 74.79 217.029 74.694 216.963 74.586L215.001 71.373C214.947 71.589 214.872 71.769 214.776 71.913L213.048 74.586C212.982 74.688 212.901 74.784 212.805 74.874C212.709 74.958 212.589 75 212.445 75H210.456L213.615 70.239ZM221.149 78.015V65.766H222.508C222.652 65.766 222.775 65.799 222.877 65.865C222.979 65.931 223.045 66.033 223.075 66.171L223.255 67.026C223.627 66.6 224.053 66.255 224.533 65.991C225.019 65.727 225.586 65.595 226.234 65.595C226.738 65.595 227.197 65.7 227.611 65.91C228.031 66.12 228.391 66.426 228.691 66.828C228.997 67.224 229.231 67.716 229.393 68.304C229.561 68.886 229.645 69.555 229.645 70.311C229.645 71.001 229.552 71.64 229.366 72.228C229.18 72.816 228.913 73.326 228.565 73.758C228.223 74.19 227.806 74.529 227.314 74.775C226.828 75.015 226.282 75.135 225.676 75.135C225.154 75.135 224.71 75.057 224.344 74.901C223.984 74.739 223.66 74.517 223.372 74.235V78.015H221.149ZM225.469 67.35C225.007 67.35 224.611 67.449 224.281 67.647C223.957 67.839 223.654 68.112 223.372 68.466V72.606C223.624 72.918 223.897 73.137 224.191 73.263C224.491 73.383 224.812 73.443 225.154 73.443C225.49 73.443 225.793 73.38 226.063 73.254C226.339 73.128 226.57 72.936 226.756 72.678C226.948 72.42 227.095 72.096 227.197 71.706C227.299 71.31 227.35 70.845 227.35 70.311C227.35 69.771 227.305 69.315 227.215 68.943C227.131 68.565 227.008 68.259 226.846 68.025C226.684 67.791 226.486 67.62 226.252 67.512C226.024 67.404 225.763 67.35 225.469 67.35ZM235.143 65.622C235.725 65.622 236.259 65.715 236.745 65.901C237.237 66.087 237.66 66.36 238.014 66.72C238.368 67.074 238.644 67.512 238.842 68.034C239.04 68.55 239.139 69.141 239.139 69.807C239.139 69.975 239.13 70.116 239.112 70.23C239.1 70.338 239.073 70.425 239.031 70.491C238.995 70.551 238.944 70.596 238.878 70.626C238.812 70.65 238.728 70.662 238.626 70.662H232.92C232.986 71.61 233.241 72.306 233.685 72.75C234.129 73.194 234.717 73.416 235.449 73.416C235.809 73.416 236.118 73.374 236.376 73.29C236.64 73.206 236.868 73.113 237.06 73.011C237.258 72.909 237.429 72.816 237.573 72.732C237.723 72.648 237.867 72.606 238.005 72.606C238.095 72.606 238.173 72.624 238.239 72.66C238.305 72.696 238.362 72.747 238.41 72.813L239.058 73.623C238.812 73.911 238.536 74.154 238.23 74.352C237.924 74.544 237.603 74.7 237.267 74.82C236.937 74.934 236.598 75.015 236.25 75.063C235.908 75.111 235.575 75.135 235.251 75.135C234.609 75.135 234.012 75.03 233.46 74.82C232.908 74.604 232.428 74.289 232.02 73.875C231.612 73.455 231.291 72.939 231.057 72.327C230.823 71.709 230.706 70.995 230.706 70.185C230.706 69.555 230.808 68.964 231.012 68.412C231.216 67.854 231.507 67.371 231.885 66.963C232.269 66.549 232.734 66.222 233.28 65.982C233.832 65.742 234.453 65.622 235.143 65.622ZM235.188 67.215C234.54 67.215 234.033 67.398 233.667 67.764C233.301 68.13 233.067 68.649 232.965 69.321H237.141C237.141 69.033 237.102 68.763 237.024 68.511C236.946 68.253 236.826 68.028 236.664 67.836C236.502 67.644 236.298 67.494 236.052 67.386C235.806 67.272 235.518 67.215 235.188 67.215ZM240.942 75V65.766H242.301C242.589 65.766 242.778 65.901 242.868 66.171L243.021 66.9C243.207 66.708 243.402 66.534 243.606 66.378C243.816 66.222 244.035 66.087 244.263 65.973C244.497 65.859 244.746 65.772 245.01 65.712C245.274 65.652 245.562 65.622 245.874 65.622C246.378 65.622 246.825 65.709 247.215 65.883C247.605 66.051 247.929 66.291 248.187 66.603C248.451 66.909 248.649 67.278 248.781 67.71C248.919 68.136 248.988 68.607 248.988 69.123V75H246.765V69.123C246.765 68.559 246.633 68.124 246.369 67.818C246.111 67.506 245.721 67.35 245.199 67.35C244.815 67.35 244.455 67.437 244.119 67.611C243.783 67.785 243.465 68.022 243.165 68.322V75H240.942ZM256.653 67.566C256.593 67.662 256.53 67.731 256.464 67.773C256.398 67.809 256.314 67.827 256.212 67.827C256.104 67.827 255.987 67.797 255.861 67.737C255.741 67.677 255.6 67.611 255.438 67.539C255.276 67.461 255.09 67.392 254.88 67.332C254.676 67.272 254.433 67.242 254.151 67.242C253.713 67.242 253.368 67.335 253.116 67.521C252.864 67.707 252.738 67.95 252.738 68.25C252.738 68.448 252.801 68.616 252.927 68.754C253.059 68.886 253.23 69.003 253.44 69.105C253.656 69.207 253.899 69.3 254.169 69.384C254.439 69.462 254.715 69.549 254.997 69.645C255.279 69.741 255.555 69.852 255.825 69.978C256.095 70.098 256.335 70.254 256.545 70.446C256.761 70.632 256.932 70.857 257.058 71.121C257.19 71.385 257.256 71.703 257.256 72.075C257.256 72.519 257.175 72.93 257.013 73.308C256.851 73.68 256.614 74.004 256.302 74.28C255.99 74.55 255.603 74.763 255.141 74.919C254.685 75.069 254.16 75.144 253.566 75.144C253.248 75.144 252.936 75.114 252.63 75.054C252.33 75 252.039 74.922 251.757 74.82C251.481 74.718 251.223 74.598 250.983 74.46C250.749 74.322 250.542 74.172 250.362 74.01L250.875 73.164C250.941 73.062 251.019 72.984 251.109 72.93C251.199 72.876 251.313 72.849 251.451 72.849C251.589 72.849 251.718 72.888 251.838 72.966C251.964 73.044 252.108 73.128 252.27 73.218C252.432 73.308 252.621 73.392 252.837 73.47C253.059 73.548 253.338 73.587 253.674 73.587C253.938 73.587 254.163 73.557 254.349 73.497C254.541 73.431 254.697 73.347 254.817 73.245C254.943 73.143 255.033 73.026 255.087 72.894C255.147 72.756 255.177 72.615 255.177 72.471C255.177 72.255 255.111 72.078 254.979 71.94C254.853 71.802 254.682 71.682 254.466 71.58C254.256 71.478 254.013 71.388 253.737 71.31C253.467 71.226 253.188 71.136 252.9 71.04C252.618 70.944 252.339 70.833 252.063 70.707C251.793 70.575 251.55 70.41 251.334 70.212C251.124 70.014 250.953 69.771 250.821 69.483C250.695 69.195 250.632 68.847 250.632 68.439C250.632 68.061 250.707 67.701 250.857 67.359C251.007 67.017 251.226 66.72 251.514 66.468C251.808 66.21 252.171 66.006 252.603 65.856C253.041 65.7 253.545 65.622 254.115 65.622C254.751 65.622 255.33 65.727 255.852 65.937C256.374 66.147 256.809 66.423 257.157 66.765L256.653 67.566ZM262.846 65.622C263.428 65.622 263.962 65.715 264.448 65.901C264.94 66.087 265.363 66.36 265.717 66.72C266.071 67.074 266.347 67.512 266.545 68.034C266.743 68.55 266.842 69.141 266.842 69.807C266.842 69.975 266.833 70.116 266.815 70.23C266.803 70.338 266.776 70.425 266.734 70.491C266.698 70.551 266.647 70.596 266.581 70.626C266.515 70.65 266.431 70.662 266.329 70.662H260.623C260.689 71.61 260.944 72.306 261.388 72.75C261.832 73.194 262.42 73.416 263.152 73.416C263.512 73.416 263.821 73.374 264.079 73.29C264.343 73.206 264.571 73.113 264.763 73.011C264.961 72.909 265.132 72.816 265.276 72.732C265.426 72.648 265.57 72.606 265.708 72.606C265.798 72.606 265.876 72.624 265.942 72.66C266.008 72.696 266.065 72.747 266.113 72.813L266.761 73.623C266.515 73.911 266.239 74.154 265.933 74.352C265.627 74.544 265.306 74.7 264.97 74.82C264.64 74.934 264.301 75.015 263.953 75.063C263.611 75.111 263.278 75.135 262.954 75.135C262.312 75.135 261.715 75.03 261.163 74.82C260.611 74.604 260.131 74.289 259.723 73.875C259.315 73.455 258.994 72.939 258.76 72.327C258.526 71.709 258.409 70.995 258.409 70.185C258.409 69.555 258.511 68.964 258.715 68.412C258.919 67.854 259.21 67.371 259.588 66.963C259.972 66.549 260.437 66.222 260.983 65.982C261.535 65.742 262.156 65.622 262.846 65.622ZM262.891 67.215C262.243 67.215 261.736 67.398 261.37 67.764C261.004 68.13 260.77 68.649 260.668 69.321H264.844C264.844 69.033 264.805 68.763 264.727 68.511C264.649 68.253 264.529 68.028 264.367 67.836C264.205 67.644 264.001 67.494 263.755 67.386C263.509 67.272 263.221 67.215 262.891 67.215ZM283.691 75H281.819C281.609 75 281.435 74.949 281.297 74.847C281.165 74.739 281.069 74.607 281.009 74.451L280.037 71.796H274.646L273.674 74.451C273.626 74.589 273.53 74.715 273.386 74.829C273.248 74.943 273.077 75 272.873 75H270.992L276.104 61.986H278.579L283.691 75ZM275.267 70.086H279.416L277.832 65.757C277.76 65.565 277.679 65.34 277.589 65.082C277.505 64.818 277.421 64.533 277.337 64.227C277.253 64.533 277.169 64.818 277.085 65.082C277.007 65.346 276.929 65.577 276.851 65.775L275.267 70.086ZM291.394 67.719C291.328 67.803 291.262 67.869 291.196 67.917C291.136 67.965 291.046 67.989 290.926 67.989C290.812 67.989 290.701 67.956 290.593 67.89C290.485 67.818 290.356 67.74 290.206 67.656C290.056 67.566 289.876 67.488 289.666 67.422C289.462 67.35 289.207 67.314 288.901 67.314C288.511 67.314 288.169 67.386 287.875 67.53C287.581 67.668 287.335 67.869 287.137 68.133C286.945 68.397 286.801 68.718 286.705 69.096C286.609 69.468 286.561 69.891 286.561 70.365C286.561 70.857 286.612 71.295 286.714 71.679C286.822 72.063 286.975 72.387 287.173 72.651C287.371 72.909 287.611 73.107 287.893 73.245C288.175 73.377 288.493 73.443 288.847 73.443C289.201 73.443 289.486 73.401 289.702 73.317C289.924 73.227 290.11 73.131 290.26 73.029C290.41 72.921 290.539 72.825 290.647 72.741C290.761 72.651 290.887 72.606 291.025 72.606C291.205 72.606 291.34 72.675 291.43 72.813L292.069 73.623C291.823 73.911 291.556 74.154 291.268 74.352C290.98 74.544 290.68 74.7 290.368 74.82C290.062 74.934 289.744 75.015 289.414 75.063C289.084 75.111 288.757 75.135 288.433 75.135C287.863 75.135 287.326 75.03 286.822 74.82C286.318 74.604 285.877 74.292 285.499 73.884C285.127 73.476 284.83 72.978 284.608 72.39C284.392 71.796 284.284 71.121 284.284 70.365C284.284 69.687 284.38 69.06 284.572 68.484C284.77 67.902 285.058 67.401 285.436 66.981C285.814 66.555 286.282 66.222 286.84 65.982C287.398 65.742 288.04 65.622 288.766 65.622C289.456 65.622 290.059 65.733 290.575 65.955C291.097 66.177 291.565 66.495 291.979 66.909L291.394 67.719ZM299.972 67.719C299.906 67.803 299.84 67.869 299.774 67.917C299.714 67.965 299.624 67.989 299.504 67.989C299.39 67.989 299.279 67.956 299.171 67.89C299.063 67.818 298.934 67.74 298.784 67.656C298.634 67.566 298.454 67.488 298.244 67.422C298.04 67.35 297.785 67.314 297.479 67.314C297.089 67.314 296.747 67.386 296.453 67.53C296.159 67.668 295.913 67.869 295.715 68.133C295.523 68.397 295.379 68.718 295.283 69.096C295.187 69.468 295.139 69.891 295.139 70.365C295.139 70.857 295.19 71.295 295.292 71.679C295.4 72.063 295.553 72.387 295.751 72.651C295.949 72.909 296.189 73.107 296.471 73.245C296.753 73.377 297.071 73.443 297.425 73.443C297.779 73.443 298.064 73.401 298.28 73.317C298.502 73.227 298.688 73.131 298.838 73.029C298.988 72.921 299.117 72.825 299.225 72.741C299.339 72.651 299.465 72.606 299.603 72.606C299.783 72.606 299.918 72.675 300.008 72.813L300.647 73.623C300.401 73.911 300.134 74.154 299.846 74.352C299.558 74.544 299.258 74.7 298.946 74.82C298.64 74.934 298.322 75.015 297.992 75.063C297.662 75.111 297.335 75.135 297.011 75.135C296.441 75.135 295.904 75.03 295.4 74.82C294.896 74.604 294.455 74.292 294.077 73.884C293.705 73.476 293.408 72.978 293.186 72.39C292.97 71.796 292.862 71.121 292.862 70.365C292.862 69.687 292.958 69.06 293.15 68.484C293.348 67.902 293.636 67.401 294.014 66.981C294.392 66.555 294.86 66.222 295.418 65.982C295.976 65.742 296.618 65.622 297.344 65.622C298.034 65.622 298.637 65.733 299.153 65.955C299.675 66.177 300.143 66.495 300.557 66.909L299.972 67.719ZM306.003 65.622C306.693 65.622 307.317 65.733 307.875 65.955C308.439 66.177 308.919 66.492 309.315 66.9C309.711 67.308 310.017 67.806 310.233 68.394C310.449 68.982 310.557 69.639 310.557 70.365C310.557 71.097 310.449 71.757 310.233 72.345C310.017 72.933 309.711 73.434 309.315 73.848C308.919 74.262 308.439 74.58 307.875 74.802C307.317 75.024 306.693 75.135 306.003 75.135C305.313 75.135 304.686 75.024 304.122 74.802C303.558 74.58 303.075 74.262 302.673 73.848C302.277 73.434 301.968 72.933 301.746 72.345C301.53 71.757 301.422 71.097 301.422 70.365C301.422 69.639 301.53 68.982 301.746 68.394C301.968 67.806 302.277 67.308 302.673 66.9C303.075 66.492 303.558 66.177 304.122 65.955C304.686 65.733 305.313 65.622 306.003 65.622ZM306.003 73.425C306.771 73.425 307.338 73.167 307.704 72.651C308.076 72.135 308.262 71.379 308.262 70.383C308.262 69.387 308.076 68.628 307.704 68.106C307.338 67.584 306.771 67.323 306.003 67.323C305.223 67.323 304.647 67.587 304.275 68.115C303.903 68.637 303.717 69.393 303.717 70.383C303.717 71.373 303.903 72.129 304.275 72.651C304.647 73.167 305.223 73.425 306.003 73.425ZM314.326 65.766V71.634C314.326 72.198 314.455 72.636 314.713 72.948C314.977 73.254 315.37 73.407 315.892 73.407C316.276 73.407 316.636 73.323 316.972 73.155C317.308 72.981 317.626 72.744 317.926 72.444V65.766H320.149V75H318.79C318.502 75 318.313 74.865 318.223 74.595L318.07 73.857C317.878 74.049 317.68 74.226 317.476 74.388C317.272 74.544 317.053 74.679 316.819 74.793C316.591 74.901 316.342 74.985 316.072 75.045C315.808 75.111 315.523 75.144 315.217 75.144C314.713 75.144 314.266 75.06 313.876 74.892C313.492 74.718 313.168 74.475 312.904 74.163C312.64 73.851 312.439 73.482 312.301 73.056C312.169 72.624 312.103 72.15 312.103 71.634V65.766H314.326ZM322.522 75V65.766H323.881C324.169 65.766 324.358 65.901 324.448 66.171L324.601 66.9C324.787 66.708 324.982 66.534 325.186 66.378C325.396 66.222 325.615 66.087 325.843 65.973C326.077 65.859 326.326 65.772 326.59 65.712C326.854 65.652 327.142 65.622 327.454 65.622C327.958 65.622 328.405 65.709 328.795 65.883C329.185 66.051 329.509 66.291 329.767 66.603C330.031 66.909 330.229 67.278 330.361 67.71C330.499 68.136 330.568 68.607 330.568 69.123V75H328.345V69.123C328.345 68.559 328.213 68.124 327.949 67.818C327.691 67.506 327.301 67.35 326.779 67.35C326.395 67.35 326.035 67.437 325.699 67.611C325.363 67.785 325.045 68.022 324.745 68.322V75H322.522ZM335.785 75.144C334.987 75.144 334.372 74.919 333.94 74.469C333.508 74.013 333.292 73.386 333.292 72.588V67.431H332.356C332.236 67.431 332.131 67.392 332.041 67.314C331.957 67.236 331.915 67.119 331.915 66.963V66.081L333.4 65.838L333.868 63.318C333.892 63.198 333.946 63.105 334.03 63.039C334.12 62.973 334.231 62.94 334.363 62.94H335.515V65.847H337.945V67.431H335.515V72.435C335.515 72.723 335.587 72.948 335.731 73.11C335.875 73.272 336.067 73.353 336.307 73.353C336.445 73.353 336.559 73.338 336.649 73.308C336.745 73.272 336.826 73.236 336.892 73.2C336.964 73.164 337.027 73.131 337.081 73.101C337.135 73.065 337.189 73.047 337.243 73.047C337.309 73.047 337.363 73.065 337.405 73.101C337.447 73.131 337.492 73.179 337.54 73.245L338.206 74.325C337.882 74.595 337.51 74.799 337.09 74.937C336.67 75.075 336.235 75.144 335.785 75.144Z" fill="black"/>
<rect x="101" y="475" width="422" height="10" fill="#32B5A5"/>
<defs>
<filter id="filter0_d" x="96" y="29" width="431" height="429" filterUnits="userSpaceOnUse" color-interpolation-filters="sRGB">
<feFlood flood-opacity="0" result="BackgroundImageFix"/>
<feColorMatrix in="SourceAlpha" type="matrix" values="0 0 0 0 0 0 0 0 0 0 0 0 0 0 0 0 0 0 127 0"/>
<feOffset dy="4"/>
<feGaussianBlur stdDeviation="2"/>
<feColorMatrix type="matrix" values="0 0 0 0 0 0 0 0 0 0 0 0 0 0 0 0 0 0 0.25 0"/>
<feBlend mode="normal" in2="BackgroundImageFix" result="effect1_dropShadow"/>
<feBlend mode="normal" in="SourceGraphic" in2="effect1_dropShadow" result="shape"/>
</filter>
<filter id="filter1_d" x="418" y="395" width="65" height="40" filterUnits="userSpaceOnUse" color-interpolation-filters="sRGB">
<feFlood flood-opacity="0" result="BackgroundImageFix"/>
<feColorMatrix in="SourceAlpha" type="matrix" values="0 0 0 0 0 0 0 0 0 0 0 0 0 0 0 0 0 0 127 0"/>
<feOffset dy="1"/>
<feGaussianBlur stdDeviation="1"/>
<feColorMatrix type="matrix" values="0 0 0 0 0 0 0 0 0 0 0 0 0 0 0 0 0 0 0.5 0"/>
<feBlend mode="normal" in2="BackgroundImageFix" result="effect1_dropShadow"/>
<feBlend mode="normal" in="SourceGraphic" in2="effect1_dropShadow" result="shape"/>
</filter>
</defs>
</svg>
