<svg width="1000" height="163" viewBox="0 0 1000 163" fill="none" xmlns="http://www.w3.org/2000/svg">
<rect width="1000" height="163" fill="white"/>
<rect opacity="0.2" x="53.5" y="51.5" width="348" height="67" rx="3.5" fill="#67C23A" stroke="#67C23A"/>
<path fill-rule="evenodd" clip-rule="evenodd" d="M106.539 78C101.06 81.2459 97.0895 85.3288 95.2999 87.3861L90.9353 84.0753L89 85.5745L96.5487 93C97.8542 89.7849 101.971 83.4964 107 79.0287L106.539 78ZM98 99C90.2685 99 84 92.7324 84 85C84 77.2676 90.2685 71 98 71C105.732 71 112 77.2676 112 85C112 92.7324 105.732 99 98 99V99Z" fill="#67C23A"/>
<path d="M140.356 82.537C140.314 82.607 140.27 82.6607 140.223 82.698C140.176 82.7307 140.116 82.747 140.041 82.747C139.962 82.747 139.868 82.7073 139.761 82.628C139.658 82.5487 139.525 82.4623 139.362 82.369C139.203 82.271 139.01 82.1823 138.781 82.103C138.557 82.0237 138.284 81.984 137.962 81.984C137.659 81.984 137.39 82.026 137.157 82.11C136.924 82.1893 136.728 82.299 136.569 82.439C136.415 82.579 136.298 82.7447 136.219 82.936C136.14 83.1227 136.1 83.3257 136.1 83.545C136.1 83.825 136.168 84.0583 136.303 84.245C136.443 84.427 136.625 84.5833 136.849 84.714C137.078 84.8447 137.334 84.959 137.619 85.057C137.908 85.1503 138.202 85.2483 138.501 85.351C138.804 85.4537 139.098 85.5703 139.383 85.701C139.672 85.827 139.929 85.988 140.153 86.184C140.382 86.38 140.564 86.6203 140.699 86.905C140.839 87.1897 140.909 87.5397 140.909 87.955C140.909 88.3937 140.834 88.8067 140.685 89.194C140.536 89.5767 140.316 89.9103 140.027 90.195C139.742 90.4797 139.39 90.7037 138.97 90.867C138.555 91.0303 138.081 91.112 137.549 91.112C136.9 91.112 136.308 90.9953 135.771 90.762C135.239 90.524 134.784 90.2043 134.406 89.803L134.798 89.159C134.835 89.1077 134.88 89.0657 134.931 89.033C134.987 88.9957 135.048 88.977 135.113 88.977C135.211 88.977 135.323 89.0307 135.449 89.138C135.575 89.2407 135.731 89.355 135.918 89.481C136.109 89.607 136.338 89.7237 136.604 89.831C136.875 89.9337 137.204 89.985 137.591 89.985C137.913 89.985 138.2 89.9407 138.452 89.852C138.704 89.7633 138.916 89.6397 139.089 89.481C139.266 89.3177 139.402 89.124 139.495 88.9C139.588 88.676 139.635 88.4263 139.635 88.151C139.635 87.8477 139.565 87.6003 139.425 87.409C139.29 87.213 139.11 87.0497 138.886 86.919C138.662 86.7883 138.405 86.6787 138.116 86.59C137.831 86.4967 137.537 86.4033 137.234 86.31C136.935 86.212 136.641 86.1 136.352 85.974C136.067 85.848 135.813 85.6847 135.589 85.484C135.365 85.2833 135.183 85.0337 135.043 84.735C134.908 84.4317 134.84 84.0583 134.84 83.615C134.84 83.2603 134.908 82.9173 135.043 82.586C135.183 82.2547 135.384 81.9607 135.645 81.704C135.906 81.4473 136.228 81.242 136.611 81.088C136.998 80.934 137.442 80.857 137.941 80.857C138.501 80.857 139.012 80.9457 139.474 81.123C139.936 81.3003 140.34 81.557 140.685 81.893L140.356 82.537ZM143.524 83.909V88.431C143.524 88.9677 143.647 89.383 143.895 89.677C144.142 89.971 144.515 90.118 145.015 90.118C145.379 90.118 145.722 90.0317 146.044 89.859C146.366 89.6863 146.662 89.446 146.933 89.138V83.909H148.179V91H147.437C147.259 91 147.147 90.9137 147.101 90.741L147.003 89.978C146.695 90.3187 146.349 90.594 145.967 90.804C145.584 91.0093 145.145 91.112 144.651 91.112C144.263 91.112 143.92 91.049 143.622 90.923C143.328 90.7923 143.08 90.6103 142.88 90.377C142.679 90.1437 142.527 89.8613 142.425 89.53C142.327 89.1987 142.278 88.8323 142.278 88.431V83.909H143.524ZM155.062 85.169C155.025 85.2203 154.987 85.26 154.95 85.288C154.913 85.316 154.859 85.33 154.789 85.33C154.719 85.33 154.642 85.302 154.558 85.246C154.479 85.1853 154.376 85.12 154.25 85.05C154.124 84.98 153.97 84.917 153.788 84.861C153.611 84.8003 153.391 84.77 153.13 84.77C152.785 84.77 152.479 84.833 152.213 84.959C151.947 85.0803 151.723 85.2577 151.541 85.491C151.364 85.7243 151.228 86.0067 151.135 86.338C151.046 86.6693 151.002 87.0403 151.002 87.451C151.002 87.8803 151.051 88.263 151.149 88.599C151.247 88.9303 151.385 89.2103 151.562 89.439C151.739 89.663 151.954 89.8357 152.206 89.957C152.463 90.0737 152.75 90.132 153.067 90.132C153.37 90.132 153.62 90.097 153.816 90.027C154.012 89.9523 154.175 89.8707 154.306 89.782C154.437 89.6933 154.544 89.614 154.628 89.544C154.712 89.4693 154.796 89.432 154.88 89.432C154.987 89.432 155.067 89.4717 155.118 89.551L155.468 90.006C155.16 90.384 154.775 90.6617 154.313 90.839C153.851 91.0117 153.363 91.098 152.85 91.098C152.407 91.098 151.994 91.0163 151.611 90.853C151.233 90.6897 150.904 90.454 150.624 90.146C150.344 89.8333 150.122 89.4507 149.959 88.998C149.8 88.5453 149.721 88.0297 149.721 87.451C149.721 86.9237 149.793 86.436 149.938 85.988C150.087 85.54 150.302 85.155 150.582 84.833C150.867 84.5063 151.217 84.252 151.632 84.07C152.047 83.888 152.523 83.797 153.06 83.797C153.555 83.797 153.993 83.8787 154.376 84.042C154.759 84.2007 155.097 84.427 155.391 84.721L155.062 85.169ZM161.597 85.169C161.56 85.2203 161.523 85.26 161.485 85.288C161.448 85.316 161.394 85.33 161.324 85.33C161.254 85.33 161.177 85.302 161.093 85.246C161.014 85.1853 160.911 85.12 160.785 85.05C160.659 84.98 160.505 84.917 160.323 84.861C160.146 84.8003 159.927 84.77 159.665 84.77C159.32 84.77 159.014 84.833 158.748 84.959C158.482 85.0803 158.258 85.2577 158.076 85.491C157.899 85.7243 157.764 86.0067 157.67 86.338C157.582 86.6693 157.537 87.0403 157.537 87.451C157.537 87.8803 157.586 88.263 157.684 88.599C157.782 88.9303 157.92 89.2103 158.097 89.439C158.275 89.663 158.489 89.8357 158.741 89.957C158.998 90.0737 159.285 90.132 159.602 90.132C159.906 90.132 160.155 90.097 160.351 90.027C160.547 89.9523 160.711 89.8707 160.841 89.782C160.972 89.6933 161.079 89.614 161.163 89.544C161.247 89.4693 161.331 89.432 161.415 89.432C161.523 89.432 161.602 89.4717 161.653 89.551L162.003 90.006C161.695 90.384 161.31 90.6617 160.848 90.839C160.386 91.0117 159.899 91.098 159.385 91.098C158.942 91.098 158.529 91.0163 158.146 90.853C157.768 90.6897 157.439 90.454 157.159 90.146C156.879 89.8333 156.658 89.4507 156.494 88.998C156.336 88.5453 156.256 88.0297 156.256 87.451C156.256 86.9237 156.329 86.436 156.473 85.988C156.623 85.54 156.837 85.155 157.117 84.833C157.402 84.5063 157.752 84.252 158.167 84.07C158.583 83.888 159.059 83.797 159.595 83.797C160.09 83.797 160.529 83.8787 160.911 84.042C161.294 84.2007 161.632 84.427 161.926 84.721L161.597 85.169ZM166.102 83.797C166.527 83.797 166.919 83.8693 167.278 84.014C167.638 84.154 167.948 84.3593 168.209 84.63C168.471 84.896 168.674 85.2273 168.818 85.624C168.968 86.016 169.042 86.464 169.042 86.968C169.042 87.164 169.021 87.2947 168.979 87.36C168.937 87.4253 168.858 87.458 168.741 87.458H164.023C164.033 87.906 164.093 88.2957 164.205 88.627C164.317 88.9583 164.471 89.236 164.667 89.46C164.863 89.6793 165.097 89.845 165.367 89.957C165.638 90.0643 165.941 90.118 166.277 90.118C166.59 90.118 166.858 90.083 167.082 90.013C167.311 89.9383 167.507 89.859 167.67 89.775C167.834 89.691 167.969 89.614 168.076 89.544C168.188 89.4693 168.284 89.432 168.363 89.432C168.466 89.432 168.545 89.4717 168.601 89.551L168.951 90.006C168.797 90.1927 168.613 90.356 168.398 90.496C168.184 90.6313 167.953 90.7433 167.705 90.832C167.463 90.9207 167.211 90.986 166.949 91.028C166.688 91.0747 166.429 91.098 166.172 91.098C165.682 91.098 165.23 91.0163 164.814 90.853C164.404 90.685 164.047 90.4423 163.743 90.125C163.445 89.803 163.211 89.4063 163.043 88.935C162.875 88.4637 162.791 87.9223 162.791 87.311C162.791 86.8163 162.866 86.3543 163.015 85.925C163.169 85.4957 163.389 85.1247 163.673 84.812C163.958 84.4947 164.306 84.2473 164.716 84.07C165.127 83.888 165.589 83.797 166.102 83.797ZM166.13 84.714C165.528 84.714 165.055 84.889 164.709 85.239C164.364 85.5843 164.149 86.065 164.065 86.681H167.922C167.922 86.3917 167.883 86.128 167.803 85.89C167.724 85.6473 167.607 85.4397 167.453 85.267C167.299 85.0897 167.11 84.9543 166.886 84.861C166.667 84.763 166.415 84.714 166.13 84.714ZM174.697 85.078C174.641 85.1807 174.555 85.232 174.438 85.232C174.368 85.232 174.289 85.2063 174.2 85.155C174.112 85.1037 174.002 85.0477 173.871 84.987C173.745 84.9217 173.594 84.8633 173.416 84.812C173.239 84.756 173.029 84.728 172.786 84.728C172.576 84.728 172.387 84.756 172.219 84.812C172.051 84.8633 171.907 84.9357 171.785 85.029C171.669 85.1223 171.578 85.232 171.512 85.358C171.452 85.4793 171.421 85.6123 171.421 85.757C171.421 85.939 171.473 86.0907 171.575 86.212C171.683 86.3333 171.823 86.4383 171.995 86.527C172.168 86.6157 172.364 86.695 172.583 86.765C172.803 86.8303 173.027 86.9027 173.255 86.982C173.489 87.0567 173.715 87.1407 173.934 87.234C174.154 87.3273 174.35 87.444 174.522 87.584C174.695 87.724 174.833 87.8967 174.935 88.102C175.043 88.3027 175.096 88.5453 175.096 88.83C175.096 89.1567 175.038 89.46 174.921 89.74C174.805 90.0153 174.632 90.2557 174.403 90.461C174.175 90.6617 173.895 90.8203 173.563 90.937C173.232 91.0537 172.849 91.112 172.415 91.112C171.921 91.112 171.473 91.0327 171.071 90.874C170.67 90.7107 170.329 90.503 170.049 90.251L170.343 89.775C170.381 89.7143 170.425 89.6677 170.476 89.635C170.528 89.6023 170.595 89.586 170.679 89.586C170.763 89.586 170.852 89.6187 170.945 89.684C171.039 89.7493 171.151 89.8217 171.281 89.901C171.417 89.9803 171.578 90.0527 171.764 90.118C171.956 90.1833 172.194 90.216 172.478 90.216C172.721 90.216 172.933 90.1857 173.115 90.125C173.297 90.0597 173.449 89.9733 173.57 89.866C173.692 89.7587 173.78 89.635 173.836 89.495C173.897 89.355 173.927 89.2057 173.927 89.047C173.927 88.851 173.874 88.69 173.766 88.564C173.664 88.4333 173.526 88.3237 173.353 88.235C173.181 88.1417 172.982 88.0623 172.758 87.997C172.539 87.927 172.313 87.8547 172.079 87.78C171.851 87.7053 171.624 87.6213 171.4 87.528C171.181 87.43 170.985 87.3087 170.812 87.164C170.64 87.0193 170.5 86.842 170.392 86.632C170.29 86.4173 170.238 86.1583 170.238 85.855C170.238 85.5843 170.294 85.3253 170.406 85.078C170.518 84.826 170.682 84.6067 170.896 84.42C171.111 84.2287 171.375 84.077 171.687 83.965C172 83.853 172.357 83.797 172.758 83.797C173.225 83.797 173.643 83.8717 174.011 84.021C174.385 84.1657 174.707 84.3663 174.977 84.623L174.697 85.078ZM180.768 85.078C180.712 85.1807 180.625 85.232 180.509 85.232C180.439 85.232 180.359 85.2063 180.271 85.155C180.182 85.1037 180.072 85.0477 179.942 84.987C179.816 84.9217 179.664 84.8633 179.487 84.812C179.309 84.756 179.099 84.728 178.857 84.728C178.647 84.728 178.458 84.756 178.29 84.812C178.122 84.8633 177.977 84.9357 177.856 85.029C177.739 85.1223 177.648 85.232 177.583 85.358C177.522 85.4793 177.492 85.6123 177.492 85.757C177.492 85.939 177.543 86.0907 177.646 86.212C177.753 86.3333 177.893 86.4383 178.066 86.527C178.238 86.6157 178.434 86.695 178.654 86.765C178.873 86.8303 179.097 86.9027 179.326 86.982C179.559 87.0567 179.785 87.1407 180.005 87.234C180.224 87.3273 180.42 87.444 180.593 87.584C180.765 87.724 180.903 87.8967 181.006 88.102C181.113 88.3027 181.167 88.5453 181.167 88.83C181.167 89.1567 181.108 89.46 180.992 89.74C180.875 90.0153 180.702 90.2557 180.474 90.461C180.245 90.6617 179.965 90.8203 179.634 90.937C179.302 91.0537 178.92 91.112 178.486 91.112C177.991 91.112 177.543 91.0327 177.142 90.874C176.74 90.7107 176.4 90.503 176.12 90.251L176.414 89.775C176.451 89.7143 176.495 89.6677 176.547 89.635C176.598 89.6023 176.666 89.586 176.75 89.586C176.834 89.586 176.922 89.6187 177.016 89.684C177.109 89.7493 177.221 89.8217 177.352 89.901C177.487 89.9803 177.648 90.0527 177.835 90.118C178.026 90.1833 178.264 90.216 178.549 90.216C178.791 90.216 179.004 90.1857 179.186 90.125C179.368 90.0597 179.519 89.9733 179.641 89.866C179.762 89.7587 179.851 89.635 179.907 89.495C179.967 89.355 179.998 89.2057 179.998 89.047C179.998 88.851 179.944 88.69 179.837 88.564C179.734 88.4333 179.596 88.3237 179.424 88.235C179.251 88.1417 179.053 88.0623 178.829 87.997C178.609 87.927 178.383 87.8547 178.15 87.78C177.921 87.7053 177.695 87.6213 177.471 87.528C177.251 87.43 177.055 87.3087 176.883 87.164C176.71 87.0193 176.57 86.842 176.463 86.632C176.36 86.4173 176.309 86.1583 176.309 85.855C176.309 85.5843 176.365 85.3253 176.477 85.078C176.589 84.826 176.752 84.6067 176.967 84.42C177.181 84.2287 177.445 84.077 177.758 83.965C178.07 83.853 178.427 83.797 178.829 83.797C179.295 83.797 179.713 83.8717 180.082 84.021C180.455 84.1657 180.777 84.3663 181.048 84.623L180.768 85.078ZM193.934 91H192.884C192.763 91 192.665 90.9697 192.59 90.909C192.515 90.8483 192.459 90.7713 192.422 90.678L191.484 88.256H186.983L186.045 90.678C186.012 90.762 185.956 90.8367 185.877 90.902C185.798 90.9673 185.7 91 185.583 91H184.533L188.544 80.969H189.923L193.934 91ZM187.361 87.276H191.106L189.531 83.195C189.428 82.943 189.328 82.628 189.23 82.25C189.179 82.4413 189.127 82.6187 189.076 82.782C189.029 82.9407 188.983 83.0807 188.936 83.202L187.361 87.276ZM196.387 80.689V91H195.141V80.689H196.387ZM201.39 83.797C201.814 83.797 202.206 83.8693 202.566 84.014C202.925 84.154 203.235 84.3593 203.497 84.63C203.758 84.896 203.961 85.2273 204.106 85.624C204.255 86.016 204.33 86.464 204.33 86.968C204.33 87.164 204.309 87.2947 204.267 87.36C204.225 87.4253 204.145 87.458 204.029 87.458H199.311C199.32 87.906 199.381 88.2957 199.493 88.627C199.605 88.9583 199.759 89.236 199.955 89.46C200.151 89.6793 200.384 89.845 200.655 89.957C200.925 90.0643 201.229 90.118 201.565 90.118C201.877 90.118 202.146 90.083 202.37 90.013C202.598 89.9383 202.794 89.859 202.958 89.775C203.121 89.691 203.256 89.614 203.364 89.544C203.476 89.4693 203.571 89.432 203.651 89.432C203.753 89.432 203.833 89.4717 203.889 89.551L204.239 90.006C204.085 90.1927 203.9 90.356 203.686 90.496C203.471 90.6313 203.24 90.7433 202.993 90.832C202.75 90.9207 202.498 90.986 202.237 91.028C201.975 91.0747 201.716 91.098 201.46 91.098C200.97 91.098 200.517 91.0163 200.102 90.853C199.691 90.685 199.334 90.4423 199.031 90.125C198.732 89.803 198.499 89.4063 198.331 88.935C198.163 88.4637 198.079 87.9223 198.079 87.311C198.079 86.8163 198.153 86.3543 198.303 85.925C198.457 85.4957 198.676 85.1247 198.961 84.812C199.245 84.4947 199.593 84.2473 200.004 84.07C200.414 83.888 200.876 83.797 201.39 83.797ZM201.418 84.714C200.816 84.714 200.342 84.889 199.997 85.239C199.651 85.5843 199.437 86.065 199.353 86.681H203.21C203.21 86.3917 203.17 86.128 203.091 85.89C203.011 85.6473 202.895 85.4397 202.741 85.267C202.587 85.0897 202.398 84.9543 202.174 84.861C201.954 84.763 201.702 84.714 201.418 84.714ZM205.924 91V83.909H206.638C206.774 83.909 206.867 83.9347 206.918 83.986C206.97 84.0373 207.005 84.126 207.023 84.252L207.107 85.358C207.35 84.8633 207.649 84.4783 208.003 84.203C208.363 83.923 208.783 83.783 209.263 83.783C209.459 83.783 209.637 83.8063 209.795 83.853C209.954 83.895 210.101 83.9557 210.236 84.035L210.075 84.966C210.043 85.0827 209.97 85.141 209.858 85.141C209.793 85.141 209.693 85.12 209.557 85.078C209.422 85.0313 209.233 85.008 208.99 85.008C208.556 85.008 208.192 85.134 207.898 85.386C207.609 85.638 207.366 86.0043 207.17 86.485V91H205.924ZM213.72 91.112C213.16 91.112 212.728 90.9557 212.425 90.643C212.126 90.3303 211.977 89.88 211.977 89.292V84.952H211.123C211.048 84.952 210.985 84.931 210.934 84.889C210.882 84.8423 210.857 84.7723 210.857 84.679V84.182L212.019 84.035L212.306 81.844C212.315 81.774 212.345 81.718 212.397 81.676C212.448 81.6293 212.513 81.606 212.593 81.606H213.223V84.049H215.253V84.952H213.223V89.208C213.223 89.5067 213.295 89.7283 213.44 89.873C213.584 90.0177 213.771 90.09 214 90.09C214.13 90.09 214.242 90.0737 214.336 90.041C214.434 90.0037 214.518 89.964 214.588 89.922C214.658 89.88 214.716 89.8427 214.763 89.81C214.814 89.7727 214.858 89.754 214.896 89.754C214.961 89.754 215.019 89.7937 215.071 89.873L215.435 90.468C215.22 90.6687 214.961 90.8273 214.658 90.944C214.354 91.056 214.042 91.112 213.72 91.112Z" fill="black"/>
<path d="M382 80.41L380.59 79L375 84.59L369.41 79L368 80.41L373.59 86L368 91.59L369.41 93L375 87.41L380.59 93L382 91.59L376.41 86L382 80.41Z" fill="#6E737A"/>
</svg>
