<svg width="1000" height="163" viewBox="0 0 1000 163" fill="none" xmlns="http://www.w3.org/2000/svg">
<g clip-path="url(#clip0)">
<rect width="1000" height="163" fill="white"/>
<path opacity="0.2" d="M57 49.5H398C399.933 49.5 401.5 51.067 401.5 53V113C401.5 114.933 399.933 116.5 398 116.5H57C55.067 116.5 53.5 114.933 53.5 113V53C53.5 51.067 55.067 49.5 57 49.5Z" fill="#FC6681" stroke="#FC6681"/>
<path d="M141.399 78.969V80.075H136.583V83.407H140.482V84.471H136.583V87.894H141.399V89H135.218V78.969H141.399ZM143.157 89V81.909H143.871C144.006 81.909 144.099 81.9347 144.151 81.986C144.202 82.0373 144.237 82.126 144.256 82.252L144.34 83.358C144.582 82.8633 144.881 82.4783 145.236 82.203C145.595 81.923 146.015 81.783 146.496 81.783C146.692 81.783 146.869 81.8063 147.028 81.853C147.186 81.895 147.333 81.9557 147.469 82.035L147.308 82.966C147.275 83.0827 147.203 83.141 147.091 83.141C147.025 83.141 146.925 83.12 146.79 83.078C146.654 83.0313 146.465 83.008 146.223 83.008C145.789 83.008 145.425 83.134 145.131 83.386C144.841 83.638 144.599 84.0043 144.403 84.485V89H143.157ZM148.803 89V81.909H149.517C149.653 81.909 149.746 81.9347 149.797 81.986C149.849 82.0373 149.884 82.126 149.902 82.252L149.986 83.358C150.229 82.8633 150.528 82.4783 150.882 82.203C151.242 81.923 151.662 81.783 152.142 81.783C152.338 81.783 152.516 81.8063 152.674 81.853C152.833 81.895 152.98 81.9557 153.115 82.035L152.954 82.966C152.922 83.0827 152.849 83.141 152.737 83.141C152.672 83.141 152.572 83.12 152.436 83.078C152.301 83.0313 152.112 83.008 151.869 83.008C151.435 83.008 151.071 83.134 150.777 83.386C150.488 83.638 150.245 84.0043 150.049 84.485V89H148.803ZM157.32 81.797C157.838 81.797 158.304 81.8833 158.72 82.056C159.14 82.2287 159.494 82.4737 159.784 82.791C160.078 83.1083 160.302 83.4933 160.456 83.946C160.614 84.394 160.694 84.8957 160.694 85.451C160.694 86.011 160.614 86.515 160.456 86.963C160.302 87.411 160.078 87.7937 159.784 88.111C159.494 88.4283 159.14 88.6733 158.72 88.846C158.304 89.014 157.838 89.098 157.32 89.098C156.802 89.098 156.333 89.014 155.913 88.846C155.497 88.6733 155.143 88.4283 154.849 88.111C154.555 87.7937 154.328 87.411 154.17 86.963C154.011 86.515 153.932 86.011 153.932 85.451C153.932 84.8957 154.011 84.394 154.17 83.946C154.328 83.4933 154.555 83.1083 154.849 82.791C155.143 82.4737 155.497 82.2287 155.913 82.056C156.333 81.8833 156.802 81.797 157.32 81.797ZM157.32 88.125C158.02 88.125 158.542 87.8917 158.888 87.425C159.233 86.9537 159.406 86.298 159.406 85.458C159.406 84.6133 159.233 83.9553 158.888 83.484C158.542 83.0127 158.02 82.777 157.32 82.777C156.965 82.777 156.657 82.8377 156.396 82.959C156.134 83.0803 155.915 83.2553 155.738 83.484C155.565 83.7127 155.434 83.995 155.346 84.331C155.262 84.6623 155.22 85.038 155.22 85.458C155.22 85.878 155.262 86.2537 155.346 86.585C155.434 86.9163 155.565 87.1963 155.738 87.425C155.915 87.649 156.134 87.8217 156.396 87.943C156.657 88.0643 156.965 88.125 157.32 88.125ZM162.229 89V81.909H162.943C163.078 81.909 163.172 81.9347 163.223 81.986C163.274 82.0373 163.309 82.126 163.328 82.252L163.412 83.358C163.655 82.8633 163.953 82.4783 164.308 82.203C164.667 81.923 165.087 81.783 165.568 81.783C165.764 81.783 165.941 81.8063 166.1 81.853C166.259 81.895 166.406 81.9557 166.541 82.035L166.38 82.966C166.347 83.0827 166.275 83.141 166.163 83.141C166.098 83.141 165.997 83.12 165.862 83.078C165.727 83.0313 165.538 83.008 165.295 83.008C164.861 83.008 164.497 83.134 164.203 83.386C163.914 83.638 163.671 84.0043 163.475 84.485V89H162.229ZM179.032 89H177.982C177.86 89 177.762 88.9697 177.688 88.909C177.613 88.8483 177.557 88.7713 177.52 88.678L176.582 86.256H172.081L171.143 88.678C171.11 88.762 171.054 88.8367 170.975 88.902C170.895 88.9673 170.797 89 170.681 89H169.631L173.642 78.969H175.021L179.032 89ZM172.459 85.276H176.204L174.629 81.195C174.526 80.943 174.426 80.628 174.328 80.25C174.276 80.4413 174.225 80.6187 174.174 80.782C174.127 80.9407 174.08 81.0807 174.034 81.202L172.459 85.276ZM181.484 78.689V89H180.238V78.689H181.484ZM186.487 81.797C186.912 81.797 187.304 81.8693 187.663 82.014C188.023 82.154 188.333 82.3593 188.594 82.63C188.856 82.896 189.059 83.2273 189.203 83.624C189.353 84.016 189.427 84.464 189.427 84.968C189.427 85.164 189.406 85.2947 189.364 85.36C189.322 85.4253 189.243 85.458 189.126 85.458H184.408C184.418 85.906 184.478 86.2957 184.59 86.627C184.702 86.9583 184.856 87.236 185.052 87.46C185.248 87.6793 185.482 87.845 185.752 87.957C186.023 88.0643 186.326 88.118 186.662 88.118C186.975 88.118 187.243 88.083 187.467 88.013C187.696 87.9383 187.892 87.859 188.055 87.775C188.219 87.691 188.354 87.614 188.461 87.544C188.573 87.4693 188.669 87.432 188.748 87.432C188.851 87.432 188.93 87.4717 188.986 87.551L189.336 88.006C189.182 88.1927 188.998 88.356 188.783 88.496C188.569 88.6313 188.338 88.7433 188.09 88.832C187.848 88.9207 187.596 88.986 187.334 89.028C187.073 89.0747 186.814 89.098 186.557 89.098C186.067 89.098 185.615 89.0163 185.199 88.853C184.789 88.685 184.432 88.4423 184.128 88.125C183.83 87.803 183.596 87.4063 183.428 86.935C183.26 86.4637 183.176 85.9223 183.176 85.311C183.176 84.8163 183.251 84.3543 183.4 83.925C183.554 83.4957 183.774 83.1247 184.058 82.812C184.343 82.4947 184.691 82.2473 185.101 82.07C185.512 81.888 185.974 81.797 186.487 81.797ZM186.515 82.714C185.913 82.714 185.44 82.889 185.094 83.239C184.749 83.5843 184.534 84.065 184.45 84.681H188.307C188.307 84.3917 188.268 84.128 188.188 83.89C188.109 83.6473 187.992 83.4397 187.838 83.267C187.684 83.0897 187.495 82.9543 187.271 82.861C187.052 82.763 186.8 82.714 186.515 82.714ZM191.022 89V81.909H191.736C191.871 81.909 191.965 81.9347 192.016 81.986C192.067 82.0373 192.102 82.126 192.121 82.252L192.205 83.358C192.448 82.8633 192.746 82.4783 193.101 82.203C193.46 81.923 193.88 81.783 194.361 81.783C194.557 81.783 194.734 81.8063 194.893 81.853C195.052 81.895 195.199 81.9557 195.334 82.035L195.173 82.966C195.14 83.0827 195.068 83.141 194.956 83.141C194.891 83.141 194.79 83.12 194.655 83.078C194.52 83.0313 194.331 83.008 194.088 83.008C193.654 83.008 193.29 83.134 192.996 83.386C192.707 83.638 192.464 84.0043 192.268 84.485V89H191.022ZM198.817 89.112C198.257 89.112 197.826 88.9557 197.522 88.643C197.224 88.3303 197.074 87.88 197.074 87.292V82.952H196.22C196.146 82.952 196.083 82.931 196.031 82.889C195.98 82.8423 195.954 82.7723 195.954 82.679V82.182L197.116 82.035L197.403 79.844C197.413 79.774 197.443 79.718 197.494 79.676C197.546 79.6293 197.611 79.606 197.69 79.606H198.32V82.049H200.35V82.952H198.32V87.208C198.32 87.5067 198.393 87.7283 198.537 87.873C198.682 88.0177 198.869 88.09 199.097 88.09C199.228 88.09 199.34 88.0737 199.433 88.041C199.531 88.0037 199.615 87.964 199.685 87.922C199.755 87.88 199.814 87.8427 199.86 87.81C199.912 87.7727 199.956 87.754 199.993 87.754C200.059 87.754 200.117 87.7937 200.168 87.873L200.532 88.468C200.318 88.6687 200.059 88.8273 199.755 88.944C199.452 89.056 199.139 89.112 198.817 89.112Z" fill="black"/>
<path d="M382 78.41L380.59 77L375 82.59L369.41 77L368 78.41L373.59 84L368 89.59L369.41 91L375 85.41L380.59 91L382 89.59L376.41 84L382 78.41Z" fill="#6E737A"/>
<path d="M98.0002 68.834C105.834 68.834 112.167 75.1665 112.167 83.0007C112.167 90.8348 105.834 97.1673 98.0002 97.1673C90.166 97.1673 83.8335 90.8348 83.8335 83.0007C83.8335 75.1665 90.166 68.834 98.0002 68.834ZM103.086 75.9173L98.0002 81.0032L92.9143 75.9173L90.9168 77.9148L96.0027 83.0007L90.9168 88.0865L92.9143 90.084L98.0002 84.9982L103.086 90.084L105.083 88.0865L99.9977 83.0007L105.083 77.9148L103.086 75.9173Z" fill="#FC6681"/>
</g>
<defs>
<clipPath id="clip0">
<rect width="1000" height="163" fill="white"/>
</clipPath>
</defs>
</svg>
