<svg width="1000" height="360" viewBox="0 0 1000 360" fill="none" xmlns="http://www.w3.org/2000/svg">
<g clip-path="url(#clip0)">
<rect width="1000" height="360" fill="white"/>
<rect opacity="0.2" x="53.5" y="38.5" width="348" height="67" rx="3.5" fill="#67C23A" stroke="#67C23A"/>
<path opacity="0.2" d="M57 129.5H398C399.933 129.5 401.5 131.067 401.5 133V193C401.5 194.933 399.933 196.5 398 196.5H57C55.067 196.5 53.5 194.933 53.5 193V133C53.5 131.067 55.067 129.5 57 129.5Z" fill="#FFD037" stroke="#FFD037"/>
<path opacity="0.2" d="M57 230.5H398C399.933 230.5 401.5 232.067 401.5 234V294C401.5 295.933 399.933 297.5 398 297.5H57C55.067 297.5 53.5 295.933 53.5 294V234C53.5 232.067 55.067 230.5 57 230.5Z" fill="#FC6681" stroke="#FC6681"/>
<path fill-rule="evenodd" clip-rule="evenodd" d="M106.539 65C101.06 68.2459 97.0895 72.3288 95.2999 74.3861L90.9353 71.0753L89 72.5745L96.5487 80C97.8542 76.7849 101.971 70.4964 107 66.0287L106.539 65ZM98 86C90.2685 86 84 79.7324 84 72C84 64.2676 90.2685 58 98 58C105.732 58 112 64.2676 112 72C112 79.7324 105.732 86 98 86Z" fill="#67C23A"/>
<path fill-rule="evenodd" clip-rule="evenodd" d="M84 163C84 170.732 90.2685 177 98 177C105.732 177 112 170.732 112 163C112 155.268 105.732 149 98 149C90.2685 149 84 155.268 84 163ZM98.8 162.26V156.54H96.47V162.26C96.47 162.867 96.5 163.463 96.56 164.05C96.62 164.63 96.7 165.247 96.8 165.9H98.47C98.57 165.247 98.65 164.63 98.71 164.05C98.77 163.463 98.8 162.867 98.8 162.26ZM96.2 169.05C96.1267 169.237 96.09 169.433 96.09 169.64C96.09 169.853 96.1267 170.053 96.2 170.24C96.28 170.42 96.3867 170.577 96.52 170.71C96.66 170.843 96.8233 170.947 97.01 171.02C97.1967 171.1 97.3967 171.14 97.61 171.14C97.8167 171.14 98.0133 171.1 98.2 171.02C98.3867 170.947 98.5467 170.843 98.68 170.71C98.8133 170.577 98.92 170.42 99 170.24C99.08 170.053 99.12 169.853 99.12 169.64C99.12 169.433 99.08 169.237 99 169.05C98.92 168.863 98.8133 168.703 98.68 168.57C98.5467 168.437 98.3867 168.33 98.2 168.25C98.0133 168.17 97.8167 168.13 97.61 168.13C97.3967 168.13 97.1967 168.17 97.01 168.25C96.8233 168.33 96.66 168.437 96.52 168.57C96.3867 168.703 96.28 168.863 96.2 169.05Z" fill="#F0A964"/>
<path d="M140.356 69.537C140.314 69.607 140.27 69.6607 140.223 69.698C140.176 69.7307 140.116 69.747 140.041 69.747C139.962 69.747 139.868 69.7073 139.761 69.628C139.658 69.5487 139.525 69.4623 139.362 69.369C139.203 69.271 139.01 69.1823 138.781 69.103C138.557 69.0237 138.284 68.984 137.962 68.984C137.659 68.984 137.39 69.026 137.157 69.11C136.924 69.1893 136.728 69.299 136.569 69.439C136.415 69.579 136.298 69.7447 136.219 69.936C136.14 70.1227 136.1 70.3257 136.1 70.545C136.1 70.825 136.168 71.0583 136.303 71.245C136.443 71.427 136.625 71.5833 136.849 71.714C137.078 71.8447 137.334 71.959 137.619 72.057C137.908 72.1503 138.202 72.2483 138.501 72.351C138.804 72.4537 139.098 72.5703 139.383 72.701C139.672 72.827 139.929 72.988 140.153 73.184C140.382 73.38 140.564 73.6203 140.699 73.905C140.839 74.1897 140.909 74.5397 140.909 74.955C140.909 75.3937 140.834 75.8067 140.685 76.194C140.536 76.5767 140.316 76.9103 140.027 77.195C139.742 77.4797 139.39 77.7037 138.97 77.867C138.555 78.0303 138.081 78.112 137.549 78.112C136.9 78.112 136.308 77.9953 135.771 77.762C135.239 77.524 134.784 77.2043 134.406 76.803L134.798 76.159C134.835 76.1077 134.88 76.0657 134.931 76.033C134.987 75.9957 135.048 75.977 135.113 75.977C135.211 75.977 135.323 76.0307 135.449 76.138C135.575 76.2407 135.731 76.355 135.918 76.481C136.109 76.607 136.338 76.7237 136.604 76.831C136.875 76.9337 137.204 76.985 137.591 76.985C137.913 76.985 138.2 76.9407 138.452 76.852C138.704 76.7633 138.916 76.6397 139.089 76.481C139.266 76.3177 139.402 76.124 139.495 75.9C139.588 75.676 139.635 75.4263 139.635 75.151C139.635 74.8477 139.565 74.6003 139.425 74.409C139.29 74.213 139.11 74.0497 138.886 73.919C138.662 73.7883 138.405 73.6787 138.116 73.59C137.831 73.4967 137.537 73.4033 137.234 73.31C136.935 73.212 136.641 73.1 136.352 72.974C136.067 72.848 135.813 72.6847 135.589 72.484C135.365 72.2833 135.183 72.0337 135.043 71.735C134.908 71.4317 134.84 71.0583 134.84 70.615C134.84 70.2603 134.908 69.9173 135.043 69.586C135.183 69.2547 135.384 68.9607 135.645 68.704C135.906 68.4473 136.228 68.242 136.611 68.088C136.998 67.934 137.442 67.857 137.941 67.857C138.501 67.857 139.012 67.9457 139.474 68.123C139.936 68.3003 140.34 68.557 140.685 68.893L140.356 69.537ZM143.524 70.909V75.431C143.524 75.9677 143.647 76.383 143.895 76.677C144.142 76.971 144.515 77.118 145.015 77.118C145.379 77.118 145.722 77.0317 146.044 76.859C146.366 76.6863 146.662 76.446 146.933 76.138V70.909H148.179V78H147.437C147.259 78 147.147 77.9137 147.101 77.741L147.003 76.978C146.695 77.3187 146.349 77.594 145.967 77.804C145.584 78.0093 145.145 78.112 144.651 78.112C144.263 78.112 143.92 78.049 143.622 77.923C143.328 77.7923 143.08 77.6103 142.88 77.377C142.679 77.1437 142.527 76.8613 142.425 76.53C142.327 76.1987 142.278 75.8323 142.278 75.431V70.909H143.524ZM155.062 72.169C155.025 72.2203 154.987 72.26 154.95 72.288C154.913 72.316 154.859 72.33 154.789 72.33C154.719 72.33 154.642 72.302 154.558 72.246C154.479 72.1853 154.376 72.12 154.25 72.05C154.124 71.98 153.97 71.917 153.788 71.861C153.611 71.8003 153.391 71.77 153.13 71.77C152.785 71.77 152.479 71.833 152.213 71.959C151.947 72.0803 151.723 72.2577 151.541 72.491C151.364 72.7243 151.228 73.0067 151.135 73.338C151.046 73.6693 151.002 74.0403 151.002 74.451C151.002 74.8803 151.051 75.263 151.149 75.599C151.247 75.9303 151.385 76.2103 151.562 76.439C151.739 76.663 151.954 76.8357 152.206 76.957C152.463 77.0737 152.75 77.132 153.067 77.132C153.37 77.132 153.62 77.097 153.816 77.027C154.012 76.9523 154.175 76.8707 154.306 76.782C154.437 76.6933 154.544 76.614 154.628 76.544C154.712 76.4693 154.796 76.432 154.88 76.432C154.987 76.432 155.067 76.4717 155.118 76.551L155.468 77.006C155.16 77.384 154.775 77.6617 154.313 77.839C153.851 78.0117 153.363 78.098 152.85 78.098C152.407 78.098 151.994 78.0163 151.611 77.853C151.233 77.6897 150.904 77.454 150.624 77.146C150.344 76.8333 150.122 76.4507 149.959 75.998C149.8 75.5453 149.721 75.0297 149.721 74.451C149.721 73.9237 149.793 73.436 149.938 72.988C150.087 72.54 150.302 72.155 150.582 71.833C150.867 71.5063 151.217 71.252 151.632 71.07C152.047 70.888 152.523 70.797 153.06 70.797C153.555 70.797 153.993 70.8787 154.376 71.042C154.759 71.2007 155.097 71.427 155.391 71.721L155.062 72.169ZM161.597 72.169C161.56 72.2203 161.523 72.26 161.485 72.288C161.448 72.316 161.394 72.33 161.324 72.33C161.254 72.33 161.177 72.302 161.093 72.246C161.014 72.1853 160.911 72.12 160.785 72.05C160.659 71.98 160.505 71.917 160.323 71.861C160.146 71.8003 159.927 71.77 159.665 71.77C159.32 71.77 159.014 71.833 158.748 71.959C158.482 72.0803 158.258 72.2577 158.076 72.491C157.899 72.7243 157.764 73.0067 157.67 73.338C157.582 73.6693 157.537 74.0403 157.537 74.451C157.537 74.8803 157.586 75.263 157.684 75.599C157.782 75.9303 157.92 76.2103 158.097 76.439C158.275 76.663 158.489 76.8357 158.741 76.957C158.998 77.0737 159.285 77.132 159.602 77.132C159.906 77.132 160.155 77.097 160.351 77.027C160.547 76.9523 160.711 76.8707 160.841 76.782C160.972 76.6933 161.079 76.614 161.163 76.544C161.247 76.4693 161.331 76.432 161.415 76.432C161.523 76.432 161.602 76.4717 161.653 76.551L162.003 77.006C161.695 77.384 161.31 77.6617 160.848 77.839C160.386 78.0117 159.899 78.098 159.385 78.098C158.942 78.098 158.529 78.0163 158.146 77.853C157.768 77.6897 157.439 77.454 157.159 77.146C156.879 76.8333 156.658 76.4507 156.494 75.998C156.336 75.5453 156.256 75.0297 156.256 74.451C156.256 73.9237 156.329 73.436 156.473 72.988C156.623 72.54 156.837 72.155 157.117 71.833C157.402 71.5063 157.752 71.252 158.167 71.07C158.583 70.888 159.059 70.797 159.595 70.797C160.09 70.797 160.529 70.8787 160.911 71.042C161.294 71.2007 161.632 71.427 161.926 71.721L161.597 72.169ZM166.102 70.797C166.527 70.797 166.919 70.8693 167.278 71.014C167.638 71.154 167.948 71.3593 168.209 71.63C168.471 71.896 168.674 72.2273 168.818 72.624C168.968 73.016 169.042 73.464 169.042 73.968C169.042 74.164 169.021 74.2947 168.979 74.36C168.937 74.4253 168.858 74.458 168.741 74.458H164.023C164.033 74.906 164.093 75.2957 164.205 75.627C164.317 75.9583 164.471 76.236 164.667 76.46C164.863 76.6793 165.097 76.845 165.367 76.957C165.638 77.0643 165.941 77.118 166.277 77.118C166.59 77.118 166.858 77.083 167.082 77.013C167.311 76.9383 167.507 76.859 167.67 76.775C167.834 76.691 167.969 76.614 168.076 76.544C168.188 76.4693 168.284 76.432 168.363 76.432C168.466 76.432 168.545 76.4717 168.601 76.551L168.951 77.006C168.797 77.1927 168.613 77.356 168.398 77.496C168.184 77.6313 167.953 77.7433 167.705 77.832C167.463 77.9207 167.211 77.986 166.949 78.028C166.688 78.0747 166.429 78.098 166.172 78.098C165.682 78.098 165.23 78.0163 164.814 77.853C164.404 77.685 164.047 77.4423 163.743 77.125C163.445 76.803 163.211 76.4063 163.043 75.935C162.875 75.4637 162.791 74.9223 162.791 74.311C162.791 73.8163 162.866 73.3543 163.015 72.925C163.169 72.4957 163.389 72.1247 163.673 71.812C163.958 71.4947 164.306 71.2473 164.716 71.07C165.127 70.888 165.589 70.797 166.102 70.797ZM166.13 71.714C165.528 71.714 165.055 71.889 164.709 72.239C164.364 72.5843 164.149 73.065 164.065 73.681H167.922C167.922 73.3917 167.883 73.128 167.803 72.89C167.724 72.6473 167.607 72.4397 167.453 72.267C167.299 72.0897 167.11 71.9543 166.886 71.861C166.667 71.763 166.415 71.714 166.13 71.714ZM174.697 72.078C174.641 72.1807 174.555 72.232 174.438 72.232C174.368 72.232 174.289 72.2063 174.2 72.155C174.112 72.1037 174.002 72.0477 173.871 71.987C173.745 71.9217 173.594 71.8633 173.416 71.812C173.239 71.756 173.029 71.728 172.786 71.728C172.576 71.728 172.387 71.756 172.219 71.812C172.051 71.8633 171.907 71.9357 171.785 72.029C171.669 72.1223 171.578 72.232 171.512 72.358C171.452 72.4793 171.421 72.6123 171.421 72.757C171.421 72.939 171.473 73.0907 171.575 73.212C171.683 73.3333 171.823 73.4383 171.995 73.527C172.168 73.6157 172.364 73.695 172.583 73.765C172.803 73.8303 173.027 73.9027 173.255 73.982C173.489 74.0567 173.715 74.1407 173.934 74.234C174.154 74.3273 174.35 74.444 174.522 74.584C174.695 74.724 174.833 74.8967 174.935 75.102C175.043 75.3027 175.096 75.5453 175.096 75.83C175.096 76.1567 175.038 76.46 174.921 76.74C174.805 77.0153 174.632 77.2557 174.403 77.461C174.175 77.6617 173.895 77.8203 173.563 77.937C173.232 78.0537 172.849 78.112 172.415 78.112C171.921 78.112 171.473 78.0327 171.071 77.874C170.67 77.7107 170.329 77.503 170.049 77.251L170.343 76.775C170.381 76.7143 170.425 76.6677 170.476 76.635C170.528 76.6023 170.595 76.586 170.679 76.586C170.763 76.586 170.852 76.6187 170.945 76.684C171.039 76.7493 171.151 76.8217 171.281 76.901C171.417 76.9803 171.578 77.0527 171.764 77.118C171.956 77.1833 172.194 77.216 172.478 77.216C172.721 77.216 172.933 77.1857 173.115 77.125C173.297 77.0597 173.449 76.9733 173.57 76.866C173.692 76.7587 173.78 76.635 173.836 76.495C173.897 76.355 173.927 76.2057 173.927 76.047C173.927 75.851 173.874 75.69 173.766 75.564C173.664 75.4333 173.526 75.3237 173.353 75.235C173.181 75.1417 172.982 75.0623 172.758 74.997C172.539 74.927 172.313 74.8547 172.079 74.78C171.851 74.7053 171.624 74.6213 171.4 74.528C171.181 74.43 170.985 74.3087 170.812 74.164C170.64 74.0193 170.5 73.842 170.392 73.632C170.29 73.4173 170.238 73.1583 170.238 72.855C170.238 72.5843 170.294 72.3253 170.406 72.078C170.518 71.826 170.682 71.6067 170.896 71.42C171.111 71.2287 171.375 71.077 171.687 70.965C172 70.853 172.357 70.797 172.758 70.797C173.225 70.797 173.643 70.8717 174.011 71.021C174.385 71.1657 174.707 71.3663 174.977 71.623L174.697 72.078ZM180.768 72.078C180.712 72.1807 180.625 72.232 180.509 72.232C180.439 72.232 180.359 72.2063 180.271 72.155C180.182 72.1037 180.072 72.0477 179.942 71.987C179.816 71.9217 179.664 71.8633 179.487 71.812C179.309 71.756 179.099 71.728 178.857 71.728C178.647 71.728 178.458 71.756 178.29 71.812C178.122 71.8633 177.977 71.9357 177.856 72.029C177.739 72.1223 177.648 72.232 177.583 72.358C177.522 72.4793 177.492 72.6123 177.492 72.757C177.492 72.939 177.543 73.0907 177.646 73.212C177.753 73.3333 177.893 73.4383 178.066 73.527C178.238 73.6157 178.434 73.695 178.654 73.765C178.873 73.8303 179.097 73.9027 179.326 73.982C179.559 74.0567 179.785 74.1407 180.005 74.234C180.224 74.3273 180.42 74.444 180.593 74.584C180.765 74.724 180.903 74.8967 181.006 75.102C181.113 75.3027 181.167 75.5453 181.167 75.83C181.167 76.1567 181.108 76.46 180.992 76.74C180.875 77.0153 180.702 77.2557 180.474 77.461C180.245 77.6617 179.965 77.8203 179.634 77.937C179.302 78.0537 178.92 78.112 178.486 78.112C177.991 78.112 177.543 78.0327 177.142 77.874C176.74 77.7107 176.4 77.503 176.12 77.251L176.414 76.775C176.451 76.7143 176.495 76.6677 176.547 76.635C176.598 76.6023 176.666 76.586 176.75 76.586C176.834 76.586 176.922 76.6187 177.016 76.684C177.109 76.7493 177.221 76.8217 177.352 76.901C177.487 76.9803 177.648 77.0527 177.835 77.118C178.026 77.1833 178.264 77.216 178.549 77.216C178.791 77.216 179.004 77.1857 179.186 77.125C179.368 77.0597 179.519 76.9733 179.641 76.866C179.762 76.7587 179.851 76.635 179.907 76.495C179.967 76.355 179.998 76.2057 179.998 76.047C179.998 75.851 179.944 75.69 179.837 75.564C179.734 75.4333 179.596 75.3237 179.424 75.235C179.251 75.1417 179.053 75.0623 178.829 74.997C178.609 74.927 178.383 74.8547 178.15 74.78C177.921 74.7053 177.695 74.6213 177.471 74.528C177.251 74.43 177.055 74.3087 176.883 74.164C176.71 74.0193 176.57 73.842 176.463 73.632C176.36 73.4173 176.309 73.1583 176.309 72.855C176.309 72.5843 176.365 72.3253 176.477 72.078C176.589 71.826 176.752 71.6067 176.967 71.42C177.181 71.2287 177.445 71.077 177.758 70.965C178.07 70.853 178.427 70.797 178.829 70.797C179.295 70.797 179.713 70.8717 180.082 71.021C180.455 71.1657 180.777 71.3663 181.048 71.623L180.768 72.078ZM193.934 78H192.884C192.763 78 192.665 77.9697 192.59 77.909C192.515 77.8483 192.459 77.7713 192.422 77.678L191.484 75.256H186.983L186.045 77.678C186.012 77.762 185.956 77.8367 185.877 77.902C185.798 77.9673 185.7 78 185.583 78H184.533L188.544 67.969H189.923L193.934 78ZM187.361 74.276H191.106L189.531 70.195C189.428 69.943 189.328 69.628 189.23 69.25C189.179 69.4413 189.127 69.6187 189.076 69.782C189.029 69.9407 188.983 70.0807 188.936 70.202L187.361 74.276ZM196.387 67.689V78H195.141V67.689H196.387ZM201.39 70.797C201.814 70.797 202.206 70.8693 202.566 71.014C202.925 71.154 203.235 71.3593 203.497 71.63C203.758 71.896 203.961 72.2273 204.106 72.624C204.255 73.016 204.33 73.464 204.33 73.968C204.33 74.164 204.309 74.2947 204.267 74.36C204.225 74.4253 204.145 74.458 204.029 74.458H199.311C199.32 74.906 199.381 75.2957 199.493 75.627C199.605 75.9583 199.759 76.236 199.955 76.46C200.151 76.6793 200.384 76.845 200.655 76.957C200.925 77.0643 201.229 77.118 201.565 77.118C201.877 77.118 202.146 77.083 202.37 77.013C202.598 76.9383 202.794 76.859 202.958 76.775C203.121 76.691 203.256 76.614 203.364 76.544C203.476 76.4693 203.571 76.432 203.651 76.432C203.753 76.432 203.833 76.4717 203.889 76.551L204.239 77.006C204.085 77.1927 203.9 77.356 203.686 77.496C203.471 77.6313 203.24 77.7433 202.993 77.832C202.75 77.9207 202.498 77.986 202.237 78.028C201.975 78.0747 201.716 78.098 201.46 78.098C200.97 78.098 200.517 78.0163 200.102 77.853C199.691 77.685 199.334 77.4423 199.031 77.125C198.732 76.803 198.499 76.4063 198.331 75.935C198.163 75.4637 198.079 74.9223 198.079 74.311C198.079 73.8163 198.153 73.3543 198.303 72.925C198.457 72.4957 198.676 72.1247 198.961 71.812C199.245 71.4947 199.593 71.2473 200.004 71.07C200.414 70.888 200.876 70.797 201.39 70.797ZM201.418 71.714C200.816 71.714 200.342 71.889 199.997 72.239C199.651 72.5843 199.437 73.065 199.353 73.681H203.21C203.21 73.3917 203.17 73.128 203.091 72.89C203.011 72.6473 202.895 72.4397 202.741 72.267C202.587 72.0897 202.398 71.9543 202.174 71.861C201.954 71.763 201.702 71.714 201.418 71.714ZM205.924 78V70.909H206.638C206.774 70.909 206.867 70.9347 206.918 70.986C206.97 71.0373 207.005 71.126 207.023 71.252L207.107 72.358C207.35 71.8633 207.649 71.4783 208.003 71.203C208.363 70.923 208.783 70.783 209.263 70.783C209.459 70.783 209.637 70.8063 209.795 70.853C209.954 70.895 210.101 70.9557 210.236 71.035L210.075 71.966C210.043 72.0827 209.97 72.141 209.858 72.141C209.793 72.141 209.693 72.12 209.557 72.078C209.422 72.0313 209.233 72.008 208.99 72.008C208.556 72.008 208.192 72.134 207.898 72.386C207.609 72.638 207.366 73.0043 207.17 73.485V78H205.924ZM213.72 78.112C213.16 78.112 212.728 77.9557 212.425 77.643C212.126 77.3303 211.977 76.88 211.977 76.292V71.952H211.123C211.048 71.952 210.985 71.931 210.934 71.889C210.882 71.8423 210.857 71.7723 210.857 71.679V71.182L212.019 71.035L212.306 68.844C212.315 68.774 212.345 68.718 212.397 68.676C212.448 68.6293 212.513 68.606 212.593 68.606H213.223V71.049H215.253V71.952H213.223V76.208C213.223 76.5067 213.295 76.7283 213.44 76.873C213.584 77.0177 213.771 77.09 214 77.09C214.13 77.09 214.242 77.0737 214.336 77.041C214.434 77.0037 214.518 76.964 214.588 76.922C214.658 76.88 214.716 76.8427 214.763 76.81C214.814 76.7727 214.858 76.754 214.896 76.754C214.961 76.754 215.019 76.7937 215.071 76.873L215.435 77.468C215.22 77.6687 214.961 77.8273 214.658 77.944C214.354 78.056 214.042 78.112 213.72 78.112Z" fill="black"/>
<path d="M134.098 158.969H135.225C135.346 158.969 135.447 158.999 135.526 159.06C135.605 159.121 135.659 159.198 135.687 159.291L137.759 166.263C137.796 166.389 137.829 166.524 137.857 166.669C137.89 166.814 137.92 166.965 137.948 167.124C137.981 166.965 138.013 166.814 138.046 166.669C138.079 166.52 138.116 166.384 138.158 166.263L140.517 159.291C140.545 159.212 140.599 159.139 140.678 159.074C140.762 159.004 140.862 158.969 140.979 158.969H141.371C141.492 158.969 141.59 158.999 141.665 159.06C141.744 159.121 141.8 159.198 141.833 159.291L144.178 166.263C144.262 166.506 144.337 166.783 144.402 167.096C144.43 166.942 144.456 166.795 144.479 166.655C144.502 166.515 144.533 166.384 144.57 166.263L146.649 159.291C146.672 159.207 146.724 159.132 146.803 159.067C146.887 159.002 146.987 158.969 147.104 158.969H148.161L145.032 169H143.814L141.273 161.349C141.222 161.204 141.175 161.036 141.133 160.845C141.11 160.938 141.086 161.029 141.063 161.118C141.044 161.202 141.023 161.279 141 161.349L138.445 169H137.227L134.098 158.969ZM153.875 169H153.322C153.2 169 153.102 168.981 153.028 168.944C152.953 168.907 152.904 168.827 152.881 168.706L152.741 168.048C152.554 168.216 152.372 168.368 152.195 168.503C152.017 168.634 151.831 168.746 151.635 168.839C151.439 168.928 151.229 168.995 151.005 169.042C150.785 169.089 150.54 169.112 150.27 169.112C149.994 169.112 149.735 169.075 149.493 169C149.255 168.921 149.047 168.804 148.87 168.65C148.692 168.496 148.55 168.302 148.443 168.069C148.34 167.831 148.289 167.551 148.289 167.229C148.289 166.949 148.366 166.681 148.52 166.424C148.674 166.163 148.921 165.932 149.262 165.731C149.607 165.53 150.057 165.367 150.613 165.241C151.168 165.11 151.847 165.036 152.65 165.017V164.464C152.65 163.913 152.531 163.498 152.293 163.218C152.059 162.933 151.712 162.791 151.25 162.791C150.946 162.791 150.69 162.831 150.48 162.91C150.274 162.985 150.095 163.071 149.941 163.169C149.791 163.262 149.661 163.349 149.549 163.428C149.441 163.503 149.334 163.54 149.227 163.54C149.143 163.54 149.068 163.519 149.003 163.477C148.942 163.43 148.893 163.374 148.856 163.309L148.632 162.91C149.024 162.532 149.446 162.25 149.899 162.063C150.351 161.876 150.853 161.783 151.404 161.783C151.8 161.783 152.153 161.848 152.461 161.979C152.769 162.11 153.028 162.292 153.238 162.525C153.448 162.758 153.606 163.041 153.714 163.372C153.821 163.703 153.875 164.067 153.875 164.464V169ZM150.641 168.237C150.86 168.237 151.061 168.216 151.243 168.174C151.425 168.127 151.595 168.064 151.754 167.985C151.917 167.901 152.071 167.801 152.216 167.684C152.365 167.567 152.51 167.434 152.65 167.285V165.808C152.076 165.827 151.588 165.873 151.187 165.948C150.785 166.018 150.459 166.111 150.207 166.228C149.955 166.345 149.77 166.482 149.654 166.641C149.542 166.8 149.486 166.977 149.486 167.173C149.486 167.36 149.516 167.521 149.577 167.656C149.637 167.791 149.719 167.903 149.822 167.992C149.924 168.076 150.046 168.139 150.186 168.181C150.326 168.218 150.477 168.237 150.641 168.237ZM155.762 169V161.909H156.476C156.612 161.909 156.705 161.935 156.756 161.986C156.808 162.037 156.843 162.126 156.861 162.252L156.945 163.358C157.188 162.863 157.487 162.478 157.841 162.203C158.201 161.923 158.621 161.783 159.101 161.783C159.297 161.783 159.475 161.806 159.633 161.853C159.792 161.895 159.939 161.956 160.074 162.035L159.913 162.966C159.881 163.083 159.808 163.141 159.696 163.141C159.631 163.141 159.531 163.12 159.395 163.078C159.26 163.031 159.071 163.008 158.828 163.008C158.394 163.008 158.03 163.134 157.736 163.386C157.447 163.638 157.204 164.004 157.008 164.485V169H155.762ZM161.409 169V161.909H162.151C162.328 161.909 162.44 161.995 162.487 162.168L162.585 162.938C162.893 162.597 163.236 162.322 163.614 162.112C163.996 161.902 164.437 161.797 164.937 161.797C165.324 161.797 165.665 161.862 165.959 161.993C166.257 162.119 166.505 162.301 166.701 162.539C166.901 162.772 167.053 163.055 167.156 163.386C167.258 163.717 167.31 164.084 167.31 164.485V169H166.064V164.485C166.064 163.948 165.94 163.533 165.693 163.239C165.45 162.94 165.077 162.791 164.573 162.791C164.204 162.791 163.859 162.88 163.537 163.057C163.219 163.234 162.925 163.475 162.655 163.778V169H161.409ZM170.574 161.909V169H169.328V161.909H170.574ZM170.854 159.683C170.854 159.804 170.828 159.919 170.777 160.026C170.73 160.129 170.665 160.222 170.581 160.306C170.502 160.385 170.408 160.448 170.301 160.495C170.194 160.542 170.079 160.565 169.958 160.565C169.837 160.565 169.722 160.542 169.615 160.495C169.512 160.448 169.419 160.385 169.335 160.306C169.256 160.222 169.193 160.129 169.146 160.026C169.099 159.919 169.076 159.804 169.076 159.683C169.076 159.562 169.099 159.447 169.146 159.34C169.193 159.228 169.256 159.132 169.335 159.053C169.419 158.969 169.512 158.904 169.615 158.857C169.722 158.81 169.837 158.787 169.958 158.787C170.079 158.787 170.194 158.81 170.301 158.857C170.408 158.904 170.502 158.969 170.581 159.053C170.665 159.132 170.73 159.228 170.777 159.34C170.828 159.447 170.854 159.562 170.854 159.683ZM172.77 169V161.909H173.512C173.689 161.909 173.801 161.995 173.848 162.168L173.946 162.938C174.254 162.597 174.597 162.322 174.975 162.112C175.358 161.902 175.799 161.797 176.298 161.797C176.685 161.797 177.026 161.862 177.32 161.993C177.619 162.119 177.866 162.301 178.062 162.539C178.263 162.772 178.414 163.055 178.517 163.386C178.62 163.717 178.671 164.084 178.671 164.485V169H177.425V164.485C177.425 163.948 177.301 163.533 177.054 163.239C176.811 162.94 176.438 162.791 175.934 162.791C175.565 162.791 175.22 162.88 174.898 163.057C174.581 163.234 174.287 163.475 174.016 163.778V169H172.77ZM182.936 161.79C183.244 161.79 183.531 161.825 183.797 161.895C184.068 161.96 184.313 162.058 184.532 162.189H186.457V162.651C186.457 162.805 186.359 162.903 186.163 162.945L185.358 163.057C185.517 163.36 185.596 163.699 185.596 164.072C185.596 164.417 185.529 164.732 185.393 165.017C185.263 165.297 185.078 165.537 184.84 165.738C184.607 165.939 184.327 166.093 184 166.2C183.678 166.307 183.324 166.361 182.936 166.361C182.605 166.361 182.292 166.321 181.998 166.242C181.849 166.335 181.735 166.436 181.655 166.543C181.581 166.65 181.543 166.755 181.543 166.858C181.543 167.026 181.611 167.154 181.746 167.243C181.882 167.327 182.061 167.388 182.285 167.425C182.509 167.462 182.764 167.486 183.048 167.495C183.333 167.504 183.622 167.521 183.916 167.544C184.215 167.563 184.507 167.598 184.791 167.649C185.076 167.7 185.33 167.784 185.554 167.901C185.778 168.018 185.958 168.179 186.093 168.384C186.229 168.589 186.296 168.855 186.296 169.182C186.296 169.485 186.219 169.779 186.065 170.064C185.916 170.349 185.699 170.601 185.414 170.82C185.13 171.044 184.782 171.221 184.371 171.352C183.961 171.487 183.496 171.555 182.978 171.555C182.46 171.555 182.005 171.504 181.613 171.401C181.226 171.298 180.904 171.161 180.647 170.988C180.391 170.815 180.197 170.615 180.066 170.386C179.94 170.162 179.877 169.926 179.877 169.679C179.877 169.329 179.987 169.033 180.206 168.79C180.43 168.543 180.736 168.347 181.123 168.202C180.923 168.109 180.762 167.985 180.64 167.831C180.524 167.672 180.465 167.462 180.465 167.201C180.465 167.098 180.484 166.993 180.521 166.886C180.559 166.774 180.615 166.664 180.689 166.557C180.769 166.45 180.864 166.347 180.976 166.249C181.088 166.151 181.219 166.065 181.368 165.99C181.018 165.794 180.743 165.535 180.542 165.213C180.346 164.886 180.248 164.506 180.248 164.072C180.248 163.727 180.314 163.414 180.444 163.134C180.58 162.849 180.766 162.609 181.004 162.413C181.242 162.212 181.525 162.058 181.851 161.951C182.183 161.844 182.544 161.79 182.936 161.79ZM185.148 169.385C185.148 169.208 185.099 169.065 185.001 168.958C184.903 168.851 184.77 168.769 184.602 168.713C184.434 168.652 184.241 168.608 184.021 168.58C183.802 168.552 183.571 168.533 183.328 168.524C183.086 168.51 182.838 168.496 182.586 168.482C182.334 168.468 182.094 168.442 181.865 168.405C181.599 168.531 181.382 168.685 181.214 168.867C181.051 169.049 180.969 169.266 180.969 169.518C180.969 169.677 181.009 169.824 181.088 169.959C181.172 170.099 181.298 170.218 181.466 170.316C181.634 170.419 181.844 170.498 182.096 170.554C182.353 170.615 182.654 170.645 182.999 170.645C183.335 170.645 183.636 170.615 183.902 170.554C184.168 170.493 184.392 170.407 184.574 170.295C184.761 170.183 184.903 170.05 185.001 169.896C185.099 169.742 185.148 169.572 185.148 169.385ZM182.936 165.535C183.188 165.535 183.41 165.5 183.601 165.43C183.797 165.36 183.961 165.262 184.091 165.136C184.222 165.01 184.32 164.861 184.385 164.688C184.451 164.511 184.483 164.317 184.483 164.107C184.483 163.673 184.35 163.328 184.084 163.071C183.823 162.814 183.44 162.686 182.936 162.686C182.437 162.686 182.054 162.814 181.788 163.071C181.527 163.328 181.396 163.673 181.396 164.107C181.396 164.317 181.429 164.511 181.494 164.688C181.564 164.861 181.665 165.01 181.795 165.136C181.926 165.262 182.087 165.36 182.278 165.43C182.47 165.5 182.689 165.535 182.936 165.535ZM198.856 169H197.806C197.684 169 197.586 168.97 197.512 168.909C197.437 168.848 197.381 168.771 197.344 168.678L196.406 166.256H191.905L190.967 168.678C190.934 168.762 190.878 168.837 190.799 168.902C190.719 168.967 190.621 169 190.505 169H189.455L193.466 158.969H194.845L198.856 169ZM192.283 165.276H196.028L194.453 161.195C194.35 160.943 194.25 160.628 194.152 160.25C194.1 160.441 194.049 160.619 193.998 160.782C193.951 160.941 193.904 161.081 193.858 161.202L192.283 165.276ZM201.308 158.689V169H200.062V158.689H201.308ZM206.311 161.797C206.736 161.797 207.128 161.869 207.487 162.014C207.847 162.154 208.157 162.359 208.418 162.63C208.68 162.896 208.883 163.227 209.027 163.624C209.177 164.016 209.251 164.464 209.251 164.968C209.251 165.164 209.23 165.295 209.188 165.36C209.146 165.425 209.067 165.458 208.95 165.458H204.232C204.242 165.906 204.302 166.296 204.414 166.627C204.526 166.958 204.68 167.236 204.876 167.46C205.072 167.679 205.306 167.845 205.576 167.957C205.847 168.064 206.15 168.118 206.486 168.118C206.799 168.118 207.067 168.083 207.291 168.013C207.52 167.938 207.716 167.859 207.879 167.775C208.043 167.691 208.178 167.614 208.285 167.544C208.397 167.469 208.493 167.432 208.572 167.432C208.675 167.432 208.754 167.472 208.81 167.551L209.16 168.006C209.006 168.193 208.822 168.356 208.607 168.496C208.393 168.631 208.162 168.743 207.914 168.832C207.672 168.921 207.42 168.986 207.158 169.028C206.897 169.075 206.638 169.098 206.381 169.098C205.891 169.098 205.439 169.016 205.023 168.853C204.613 168.685 204.256 168.442 203.952 168.125C203.654 167.803 203.42 167.406 203.252 166.935C203.084 166.464 203 165.922 203 165.311C203 164.816 203.075 164.354 203.224 163.925C203.378 163.496 203.598 163.125 203.882 162.812C204.167 162.495 204.515 162.247 204.925 162.07C205.336 161.888 205.798 161.797 206.311 161.797ZM206.339 162.714C205.737 162.714 205.264 162.889 204.918 163.239C204.573 163.584 204.358 164.065 204.274 164.681H208.131C208.131 164.392 208.092 164.128 208.012 163.89C207.933 163.647 207.816 163.44 207.662 163.267C207.508 163.09 207.319 162.954 207.095 162.861C206.876 162.763 206.624 162.714 206.339 162.714ZM210.846 169V161.909H211.56C211.696 161.909 211.789 161.935 211.84 161.986C211.892 162.037 211.927 162.126 211.945 162.252L212.029 163.358C212.272 162.863 212.571 162.478 212.925 162.203C213.285 161.923 213.705 161.783 214.185 161.783C214.381 161.783 214.559 161.806 214.717 161.853C214.876 161.895 215.023 161.956 215.158 162.035L214.997 162.966C214.965 163.083 214.892 163.141 214.78 163.141C214.715 163.141 214.615 163.12 214.479 163.078C214.344 163.031 214.155 163.008 213.912 163.008C213.478 163.008 213.114 163.134 212.82 163.386C212.531 163.638 212.288 164.004 212.092 164.485V169H210.846ZM218.642 169.112C218.082 169.112 217.65 168.956 217.347 168.643C217.048 168.33 216.899 167.88 216.899 167.292V162.952H216.045C215.97 162.952 215.907 162.931 215.856 162.889C215.804 162.842 215.779 162.772 215.779 162.679V162.182L216.941 162.035L217.228 159.844C217.237 159.774 217.267 159.718 217.319 159.676C217.37 159.629 217.435 159.606 217.515 159.606H218.145V162.049H220.175V162.952H218.145V167.208C218.145 167.507 218.217 167.728 218.362 167.873C218.506 168.018 218.693 168.09 218.922 168.09C219.052 168.09 219.164 168.074 219.258 168.041C219.356 168.004 219.44 167.964 219.51 167.922C219.58 167.88 219.638 167.843 219.685 167.81C219.736 167.773 219.78 167.754 219.818 167.754C219.883 167.754 219.941 167.794 219.993 167.873L220.357 168.468C220.142 168.669 219.883 168.827 219.58 168.944C219.276 169.056 218.964 169.112 218.642 169.112Z" fill="black"/>
<path d="M141.399 259.969V261.075H136.583V264.407H140.482V265.471H136.583V268.894H141.399V270H135.218V259.969H141.399ZM143.157 270V262.909H143.871C144.006 262.909 144.099 262.935 144.151 262.986C144.202 263.037 144.237 263.126 144.256 263.252L144.34 264.358C144.582 263.863 144.881 263.478 145.236 263.203C145.595 262.923 146.015 262.783 146.496 262.783C146.692 262.783 146.869 262.806 147.028 262.853C147.186 262.895 147.333 262.956 147.469 263.035L147.308 263.966C147.275 264.083 147.203 264.141 147.091 264.141C147.025 264.141 146.925 264.12 146.79 264.078C146.654 264.031 146.465 264.008 146.223 264.008C145.789 264.008 145.425 264.134 145.131 264.386C144.841 264.638 144.599 265.004 144.403 265.485V270H143.157ZM148.803 270V262.909H149.517C149.653 262.909 149.746 262.935 149.797 262.986C149.849 263.037 149.884 263.126 149.902 263.252L149.986 264.358C150.229 263.863 150.528 263.478 150.882 263.203C151.242 262.923 151.662 262.783 152.142 262.783C152.338 262.783 152.516 262.806 152.674 262.853C152.833 262.895 152.98 262.956 153.115 263.035L152.954 263.966C152.922 264.083 152.849 264.141 152.737 264.141C152.672 264.141 152.572 264.12 152.436 264.078C152.301 264.031 152.112 264.008 151.869 264.008C151.435 264.008 151.071 264.134 150.777 264.386C150.488 264.638 150.245 265.004 150.049 265.485V270H148.803ZM157.32 262.797C157.838 262.797 158.304 262.883 158.72 263.056C159.14 263.229 159.494 263.474 159.784 263.791C160.078 264.108 160.302 264.493 160.456 264.946C160.614 265.394 160.694 265.896 160.694 266.451C160.694 267.011 160.614 267.515 160.456 267.963C160.302 268.411 160.078 268.794 159.784 269.111C159.494 269.428 159.14 269.673 158.72 269.846C158.304 270.014 157.838 270.098 157.32 270.098C156.802 270.098 156.333 270.014 155.913 269.846C155.497 269.673 155.143 269.428 154.849 269.111C154.555 268.794 154.328 268.411 154.17 267.963C154.011 267.515 153.932 267.011 153.932 266.451C153.932 265.896 154.011 265.394 154.17 264.946C154.328 264.493 154.555 264.108 154.849 263.791C155.143 263.474 155.497 263.229 155.913 263.056C156.333 262.883 156.802 262.797 157.32 262.797ZM157.32 269.125C158.02 269.125 158.542 268.892 158.888 268.425C159.233 267.954 159.406 267.298 159.406 266.458C159.406 265.613 159.233 264.955 158.888 264.484C158.542 264.013 158.02 263.777 157.32 263.777C156.965 263.777 156.657 263.838 156.396 263.959C156.134 264.08 155.915 264.255 155.738 264.484C155.565 264.713 155.434 264.995 155.346 265.331C155.262 265.662 155.22 266.038 155.22 266.458C155.22 266.878 155.262 267.254 155.346 267.585C155.434 267.916 155.565 268.196 155.738 268.425C155.915 268.649 156.134 268.822 156.396 268.943C156.657 269.064 156.965 269.125 157.32 269.125ZM162.229 270V262.909H162.943C163.078 262.909 163.172 262.935 163.223 262.986C163.274 263.037 163.309 263.126 163.328 263.252L163.412 264.358C163.655 263.863 163.953 263.478 164.308 263.203C164.667 262.923 165.087 262.783 165.568 262.783C165.764 262.783 165.941 262.806 166.1 262.853C166.259 262.895 166.406 262.956 166.541 263.035L166.38 263.966C166.347 264.083 166.275 264.141 166.163 264.141C166.098 264.141 165.997 264.12 165.862 264.078C165.727 264.031 165.538 264.008 165.295 264.008C164.861 264.008 164.497 264.134 164.203 264.386C163.914 264.638 163.671 265.004 163.475 265.485V270H162.229ZM179.032 270H177.982C177.86 270 177.762 269.97 177.688 269.909C177.613 269.848 177.557 269.771 177.52 269.678L176.582 267.256H172.081L171.143 269.678C171.11 269.762 171.054 269.837 170.975 269.902C170.895 269.967 170.797 270 170.681 270H169.631L173.642 259.969H175.021L179.032 270ZM172.459 266.276H176.204L174.629 262.195C174.526 261.943 174.426 261.628 174.328 261.25C174.276 261.441 174.225 261.619 174.174 261.782C174.127 261.941 174.08 262.081 174.034 262.202L172.459 266.276ZM181.484 259.689V270H180.238V259.689H181.484ZM186.487 262.797C186.912 262.797 187.304 262.869 187.663 263.014C188.023 263.154 188.333 263.359 188.594 263.63C188.856 263.896 189.059 264.227 189.203 264.624C189.353 265.016 189.427 265.464 189.427 265.968C189.427 266.164 189.406 266.295 189.364 266.36C189.322 266.425 189.243 266.458 189.126 266.458H184.408C184.418 266.906 184.478 267.296 184.59 267.627C184.702 267.958 184.856 268.236 185.052 268.46C185.248 268.679 185.482 268.845 185.752 268.957C186.023 269.064 186.326 269.118 186.662 269.118C186.975 269.118 187.243 269.083 187.467 269.013C187.696 268.938 187.892 268.859 188.055 268.775C188.219 268.691 188.354 268.614 188.461 268.544C188.573 268.469 188.669 268.432 188.748 268.432C188.851 268.432 188.93 268.472 188.986 268.551L189.336 269.006C189.182 269.193 188.998 269.356 188.783 269.496C188.569 269.631 188.338 269.743 188.09 269.832C187.848 269.921 187.596 269.986 187.334 270.028C187.073 270.075 186.814 270.098 186.557 270.098C186.067 270.098 185.615 270.016 185.199 269.853C184.789 269.685 184.432 269.442 184.128 269.125C183.83 268.803 183.596 268.406 183.428 267.935C183.26 267.464 183.176 266.922 183.176 266.311C183.176 265.816 183.251 265.354 183.4 264.925C183.554 264.496 183.774 264.125 184.058 263.812C184.343 263.495 184.691 263.247 185.101 263.07C185.512 262.888 185.974 262.797 186.487 262.797ZM186.515 263.714C185.913 263.714 185.44 263.889 185.094 264.239C184.749 264.584 184.534 265.065 184.45 265.681H188.307C188.307 265.392 188.268 265.128 188.188 264.89C188.109 264.647 187.992 264.44 187.838 264.267C187.684 264.09 187.495 263.954 187.271 263.861C187.052 263.763 186.8 263.714 186.515 263.714ZM191.022 270V262.909H191.736C191.871 262.909 191.965 262.935 192.016 262.986C192.067 263.037 192.102 263.126 192.121 263.252L192.205 264.358C192.448 263.863 192.746 263.478 193.101 263.203C193.46 262.923 193.88 262.783 194.361 262.783C194.557 262.783 194.734 262.806 194.893 262.853C195.052 262.895 195.199 262.956 195.334 263.035L195.173 263.966C195.14 264.083 195.068 264.141 194.956 264.141C194.891 264.141 194.79 264.12 194.655 264.078C194.52 264.031 194.331 264.008 194.088 264.008C193.654 264.008 193.29 264.134 192.996 264.386C192.707 264.638 192.464 265.004 192.268 265.485V270H191.022ZM198.817 270.112C198.257 270.112 197.826 269.956 197.522 269.643C197.224 269.33 197.074 268.88 197.074 268.292V263.952H196.22C196.146 263.952 196.083 263.931 196.031 263.889C195.98 263.842 195.954 263.772 195.954 263.679V263.182L197.116 263.035L197.403 260.844C197.413 260.774 197.443 260.718 197.494 260.676C197.546 260.629 197.611 260.606 197.69 260.606H198.32V263.049H200.35V263.952H198.32V268.208C198.32 268.507 198.393 268.728 198.537 268.873C198.682 269.018 198.869 269.09 199.097 269.09C199.228 269.09 199.34 269.074 199.433 269.041C199.531 269.004 199.615 268.964 199.685 268.922C199.755 268.88 199.814 268.843 199.86 268.81C199.912 268.773 199.956 268.754 199.993 268.754C200.059 268.754 200.117 268.794 200.168 268.873L200.532 269.468C200.318 269.669 200.059 269.827 199.755 269.944C199.452 270.056 199.139 270.112 198.817 270.112Z" fill="black"/>
<path d="M382 67.41L380.59 66L375 71.59L369.41 66L368 67.41L373.59 73L368 78.59L369.41 80L375 74.41L380.59 80L382 78.59L376.41 73L382 67.41Z" fill="#6E737A"/>
<path d="M382 158.41L380.59 157L375 162.59L369.41 157L368 158.41L373.59 164L368 169.59L369.41 171L375 165.41L380.59 171L382 169.59L376.41 164L382 158.41Z" fill="#6E737A"/>
<path d="M382 259.41L380.59 258L375 263.59L369.41 258L368 259.41L373.59 265L368 270.59L369.41 272L375 266.41L380.59 272L382 270.59L376.41 265L382 259.41Z" fill="#6E737A"/>
<path d="M98.0002 249.834C105.834 249.834 112.167 256.166 112.167 264.001C112.167 271.835 105.834 278.167 98.0002 278.167C90.166 278.167 83.8335 271.835 83.8335 264.001C83.8335 256.166 90.166 249.834 98.0002 249.834ZM103.086 256.917L98.0002 262.003L92.9143 256.917L90.9168 258.915L96.0027 264.001L90.9168 269.086L92.9143 271.084L98.0002 265.998L103.086 271.084L105.083 269.086L99.9977 264.001L105.083 258.915L103.086 256.917Z" fill="#FC6681"/>
</g>
<defs>
<clipPath id="clip0">
<rect width="1000" height="360" fill="white"/>
</clipPath>
</defs>
</svg>
