<svg width="1000" height="163" viewBox="0 0 1000 163" fill="none" xmlns="http://www.w3.org/2000/svg">
<g clip-path="url(#clip0)">
<rect width="1000" height="163" fill="white"/>
<path opacity="0.2" d="M57 51.5H398C399.933 51.5 401.5 53.067 401.5 55V115C401.5 116.933 399.933 118.5 398 118.5H57C55.067 118.5 53.5 116.933 53.5 115V55C53.5 53.067 55.067 51.5 57 51.5Z" fill="#FFD037" stroke="#FFD037"/>
<path fill-rule="evenodd" clip-rule="evenodd" d="M84 85C84 92.7324 90.2685 99 98 99C105.732 99 112 92.7324 112 85C112 77.2676 105.732 71 98 71C90.2685 71 84 77.2676 84 85ZM98.8 84.26V78.54H96.47V84.26C96.47 84.8667 96.5 85.4633 96.56 86.05C96.62 86.63 96.7 87.2467 96.8 87.9H98.47C98.57 87.2467 98.65 86.63 98.71 86.05C98.77 85.4633 98.8 84.8667 98.8 84.26ZM96.2 91.05C96.1267 91.2367 96.09 91.4333 96.09 91.64C96.09 91.8533 96.1267 92.0533 96.2 92.24C96.28 92.42 96.3867 92.5767 96.52 92.71C96.66 92.8433 96.8233 92.9467 97.01 93.02C97.1967 93.1 97.3967 93.14 97.61 93.14C97.8167 93.14 98.0133 93.1 98.2 93.02C98.3867 92.9467 98.5467 92.8433 98.68 92.71C98.8133 92.5767 98.92 92.42 99 92.24C99.08 92.0533 99.12 91.8533 99.12 91.64C99.12 91.4333 99.08 91.2367 99 91.05C98.92 90.8633 98.8133 90.7033 98.68 90.57C98.5467 90.4367 98.3867 90.33 98.2 90.25C98.0133 90.17 97.8167 90.13 97.61 90.13C97.3967 90.13 97.1967 90.17 97.01 90.25C96.8233 90.33 96.66 90.4367 96.52 90.57C96.3867 90.7033 96.28 90.8633 96.2 91.05Z" fill="#F0A964"/>
<path d="M134.098 80.969H135.225C135.346 80.969 135.447 80.9993 135.526 81.06C135.605 81.1207 135.659 81.1977 135.687 81.291L137.759 88.263C137.796 88.389 137.829 88.5243 137.857 88.669C137.89 88.8137 137.92 88.9653 137.948 89.124C137.981 88.9653 138.013 88.8137 138.046 88.669C138.079 88.5197 138.116 88.3843 138.158 88.263L140.517 81.291C140.545 81.2117 140.599 81.1393 140.678 81.074C140.762 81.004 140.862 80.969 140.979 80.969H141.371C141.492 80.969 141.59 80.9993 141.665 81.06C141.744 81.1207 141.8 81.1977 141.833 81.291L144.178 88.263C144.262 88.5057 144.337 88.7833 144.402 89.096C144.43 88.942 144.456 88.795 144.479 88.655C144.502 88.515 144.533 88.3843 144.57 88.263L146.649 81.291C146.672 81.207 146.724 81.1323 146.803 81.067C146.887 81.0017 146.987 80.969 147.104 80.969H148.161L145.032 91H143.814L141.273 83.349C141.222 83.2043 141.175 83.0363 141.133 82.845C141.11 82.9383 141.086 83.0293 141.063 83.118C141.044 83.202 141.023 83.279 141 83.349L138.445 91H137.227L134.098 80.969ZM153.875 91H153.322C153.2 91 153.102 90.9813 153.028 90.944C152.953 90.9067 152.904 90.8273 152.881 90.706L152.741 90.048C152.554 90.216 152.372 90.3677 152.195 90.503C152.017 90.6337 151.831 90.7457 151.635 90.839C151.439 90.9277 151.229 90.9953 151.005 91.042C150.785 91.0887 150.54 91.112 150.27 91.112C149.994 91.112 149.735 91.0747 149.493 91C149.255 90.9207 149.047 90.804 148.87 90.65C148.692 90.496 148.55 90.3023 148.443 90.069C148.34 89.831 148.289 89.551 148.289 89.229C148.289 88.949 148.366 88.6807 148.52 88.424C148.674 88.1627 148.921 87.9317 149.262 87.731C149.607 87.5303 150.057 87.367 150.613 87.241C151.168 87.1103 151.847 87.0357 152.65 87.017V86.464C152.65 85.9133 152.531 85.498 152.293 85.218C152.059 84.9333 151.712 84.791 151.25 84.791C150.946 84.791 150.69 84.8307 150.48 84.91C150.274 84.9847 150.095 85.071 149.941 85.169C149.791 85.2623 149.661 85.3487 149.549 85.428C149.441 85.5027 149.334 85.54 149.227 85.54C149.143 85.54 149.068 85.519 149.003 85.477C148.942 85.4303 148.893 85.3743 148.856 85.309L148.632 84.91C149.024 84.532 149.446 84.2497 149.899 84.063C150.351 83.8763 150.853 83.783 151.404 83.783C151.8 83.783 152.153 83.8483 152.461 83.979C152.769 84.1097 153.028 84.2917 153.238 84.525C153.448 84.7583 153.606 85.0407 153.714 85.372C153.821 85.7033 153.875 86.0673 153.875 86.464V91ZM150.641 90.237C150.86 90.237 151.061 90.216 151.243 90.174C151.425 90.1273 151.595 90.0643 151.754 89.985C151.917 89.901 152.071 89.8007 152.216 89.684C152.365 89.5673 152.51 89.4343 152.65 89.285V87.808C152.076 87.8267 151.588 87.8733 151.187 87.948C150.785 88.018 150.459 88.1113 150.207 88.228C149.955 88.3447 149.77 88.4823 149.654 88.641C149.542 88.7997 149.486 88.977 149.486 89.173C149.486 89.3597 149.516 89.5207 149.577 89.656C149.637 89.7913 149.719 89.9033 149.822 89.992C149.924 90.076 150.046 90.139 150.186 90.181C150.326 90.2183 150.477 90.237 150.641 90.237ZM155.762 91V83.909H156.476C156.612 83.909 156.705 83.9347 156.756 83.986C156.808 84.0373 156.843 84.126 156.861 84.252L156.945 85.358C157.188 84.8633 157.487 84.4783 157.841 84.203C158.201 83.923 158.621 83.783 159.101 83.783C159.297 83.783 159.475 83.8063 159.633 83.853C159.792 83.895 159.939 83.9557 160.074 84.035L159.913 84.966C159.881 85.0827 159.808 85.141 159.696 85.141C159.631 85.141 159.531 85.12 159.395 85.078C159.26 85.0313 159.071 85.008 158.828 85.008C158.394 85.008 158.03 85.134 157.736 85.386C157.447 85.638 157.204 86.0043 157.008 86.485V91H155.762ZM161.409 91V83.909H162.151C162.328 83.909 162.44 83.9953 162.487 84.168L162.585 84.938C162.893 84.5973 163.236 84.322 163.614 84.112C163.996 83.902 164.437 83.797 164.937 83.797C165.324 83.797 165.665 83.8623 165.959 83.993C166.257 84.119 166.505 84.301 166.701 84.539C166.901 84.7723 167.053 85.0547 167.156 85.386C167.258 85.7173 167.31 86.0837 167.31 86.485V91H166.064V86.485C166.064 85.9483 165.94 85.533 165.693 85.239C165.45 84.9403 165.077 84.791 164.573 84.791C164.204 84.791 163.859 84.8797 163.537 85.057C163.219 85.2343 162.925 85.4747 162.655 85.778V91H161.409ZM170.574 83.909V91H169.328V83.909H170.574ZM170.854 81.683C170.854 81.8043 170.828 81.9187 170.777 82.026C170.73 82.1287 170.665 82.222 170.581 82.306C170.502 82.3853 170.408 82.4483 170.301 82.495C170.194 82.5417 170.079 82.565 169.958 82.565C169.837 82.565 169.722 82.5417 169.615 82.495C169.512 82.4483 169.419 82.3853 169.335 82.306C169.256 82.222 169.193 82.1287 169.146 82.026C169.099 81.9187 169.076 81.8043 169.076 81.683C169.076 81.5617 169.099 81.4473 169.146 81.34C169.193 81.228 169.256 81.1323 169.335 81.053C169.419 80.969 169.512 80.9037 169.615 80.857C169.722 80.8103 169.837 80.787 169.958 80.787C170.079 80.787 170.194 80.8103 170.301 80.857C170.408 80.9037 170.502 80.969 170.581 81.053C170.665 81.1323 170.73 81.228 170.777 81.34C170.828 81.4473 170.854 81.5617 170.854 81.683ZM172.77 91V83.909H173.512C173.689 83.909 173.801 83.9953 173.848 84.168L173.946 84.938C174.254 84.5973 174.597 84.322 174.975 84.112C175.358 83.902 175.799 83.797 176.298 83.797C176.685 83.797 177.026 83.8623 177.32 83.993C177.619 84.119 177.866 84.301 178.062 84.539C178.263 84.7723 178.414 85.0547 178.517 85.386C178.62 85.7173 178.671 86.0837 178.671 86.485V91H177.425V86.485C177.425 85.9483 177.301 85.533 177.054 85.239C176.811 84.9403 176.438 84.791 175.934 84.791C175.565 84.791 175.22 84.8797 174.898 85.057C174.581 85.2343 174.287 85.4747 174.016 85.778V91H172.77ZM182.936 83.79C183.244 83.79 183.531 83.825 183.797 83.895C184.068 83.9603 184.313 84.0583 184.532 84.189H186.457V84.651C186.457 84.805 186.359 84.903 186.163 84.945L185.358 85.057C185.517 85.3603 185.596 85.6987 185.596 86.072C185.596 86.4173 185.529 86.7323 185.393 87.017C185.263 87.297 185.078 87.5373 184.84 87.738C184.607 87.9387 184.327 88.0927 184 88.2C183.678 88.3073 183.324 88.361 182.936 88.361C182.605 88.361 182.292 88.3213 181.998 88.242C181.849 88.3353 181.735 88.4357 181.655 88.543C181.581 88.6503 181.543 88.7553 181.543 88.858C181.543 89.026 181.611 89.1543 181.746 89.243C181.882 89.327 182.061 89.3877 182.285 89.425C182.509 89.4623 182.764 89.4857 183.048 89.495C183.333 89.5043 183.622 89.5207 183.916 89.544C184.215 89.5627 184.507 89.5977 184.791 89.649C185.076 89.7003 185.33 89.7843 185.554 89.901C185.778 90.0177 185.958 90.1787 186.093 90.384C186.229 90.5893 186.296 90.8553 186.296 91.182C186.296 91.4853 186.219 91.7793 186.065 92.064C185.916 92.3487 185.699 92.6007 185.414 92.82C185.13 93.044 184.782 93.2213 184.371 93.352C183.961 93.4873 183.496 93.555 182.978 93.555C182.46 93.555 182.005 93.5037 181.613 93.401C181.226 93.2983 180.904 93.1607 180.647 92.988C180.391 92.8153 180.197 92.6147 180.066 92.386C179.94 92.162 179.877 91.9263 179.877 91.679C179.877 91.329 179.987 91.0327 180.206 90.79C180.43 90.5427 180.736 90.3467 181.123 90.202C180.923 90.1087 180.762 89.985 180.64 89.831C180.524 89.6723 180.465 89.4623 180.465 89.201C180.465 89.0983 180.484 88.9933 180.521 88.886C180.559 88.774 180.615 88.6643 180.689 88.557C180.769 88.4497 180.864 88.347 180.976 88.249C181.088 88.151 181.219 88.0647 181.368 87.99C181.018 87.794 180.743 87.535 180.542 87.213C180.346 86.8863 180.248 86.506 180.248 86.072C180.248 85.7267 180.314 85.414 180.444 85.134C180.58 84.8493 180.766 84.609 181.004 84.413C181.242 84.2123 181.525 84.0583 181.851 83.951C182.183 83.8437 182.544 83.79 182.936 83.79ZM185.148 91.385C185.148 91.2077 185.099 91.0653 185.001 90.958C184.903 90.8507 184.77 90.769 184.602 90.713C184.434 90.6523 184.241 90.608 184.021 90.58C183.802 90.552 183.571 90.5333 183.328 90.524C183.086 90.51 182.838 90.496 182.586 90.482C182.334 90.468 182.094 90.4423 181.865 90.405C181.599 90.531 181.382 90.685 181.214 90.867C181.051 91.049 180.969 91.266 180.969 91.518C180.969 91.6767 181.009 91.8237 181.088 91.959C181.172 92.099 181.298 92.218 181.466 92.316C181.634 92.4187 181.844 92.498 182.096 92.554C182.353 92.6147 182.654 92.645 182.999 92.645C183.335 92.645 183.636 92.6147 183.902 92.554C184.168 92.4933 184.392 92.407 184.574 92.295C184.761 92.183 184.903 92.05 185.001 91.896C185.099 91.742 185.148 91.5717 185.148 91.385ZM182.936 87.535C183.188 87.535 183.41 87.5 183.601 87.43C183.797 87.36 183.961 87.262 184.091 87.136C184.222 87.01 184.32 86.8607 184.385 86.688C184.451 86.5107 184.483 86.317 184.483 86.107C184.483 85.673 184.35 85.3277 184.084 85.071C183.823 84.8143 183.44 84.686 182.936 84.686C182.437 84.686 182.054 84.8143 181.788 85.071C181.527 85.3277 181.396 85.673 181.396 86.107C181.396 86.317 181.429 86.5107 181.494 86.688C181.564 86.8607 181.665 87.01 181.795 87.136C181.926 87.262 182.087 87.36 182.278 87.43C182.47 87.5 182.689 87.535 182.936 87.535ZM198.856 91H197.806C197.684 91 197.586 90.9697 197.512 90.909C197.437 90.8483 197.381 90.7713 197.344 90.678L196.406 88.256H191.905L190.967 90.678C190.934 90.762 190.878 90.8367 190.799 90.902C190.719 90.9673 190.621 91 190.505 91H189.455L193.466 80.969H194.845L198.856 91ZM192.283 87.276H196.028L194.453 83.195C194.35 82.943 194.25 82.628 194.152 82.25C194.1 82.4413 194.049 82.6187 193.998 82.782C193.951 82.9407 193.904 83.0807 193.858 83.202L192.283 87.276ZM201.308 80.689V91H200.062V80.689H201.308ZM206.311 83.797C206.736 83.797 207.128 83.8693 207.487 84.014C207.847 84.154 208.157 84.3593 208.418 84.63C208.68 84.896 208.883 85.2273 209.027 85.624C209.177 86.016 209.251 86.464 209.251 86.968C209.251 87.164 209.23 87.2947 209.188 87.36C209.146 87.4253 209.067 87.458 208.95 87.458H204.232C204.242 87.906 204.302 88.2957 204.414 88.627C204.526 88.9583 204.68 89.236 204.876 89.46C205.072 89.6793 205.306 89.845 205.576 89.957C205.847 90.0643 206.15 90.118 206.486 90.118C206.799 90.118 207.067 90.083 207.291 90.013C207.52 89.9383 207.716 89.859 207.879 89.775C208.043 89.691 208.178 89.614 208.285 89.544C208.397 89.4693 208.493 89.432 208.572 89.432C208.675 89.432 208.754 89.4717 208.81 89.551L209.16 90.006C209.006 90.1927 208.822 90.356 208.607 90.496C208.393 90.6313 208.162 90.7433 207.914 90.832C207.672 90.9207 207.42 90.986 207.158 91.028C206.897 91.0747 206.638 91.098 206.381 91.098C205.891 91.098 205.439 91.0163 205.023 90.853C204.613 90.685 204.256 90.4423 203.952 90.125C203.654 89.803 203.42 89.4063 203.252 88.935C203.084 88.4637 203 87.9223 203 87.311C203 86.8163 203.075 86.3543 203.224 85.925C203.378 85.4957 203.598 85.1247 203.882 84.812C204.167 84.4947 204.515 84.2473 204.925 84.07C205.336 83.888 205.798 83.797 206.311 83.797ZM206.339 84.714C205.737 84.714 205.264 84.889 204.918 85.239C204.573 85.5843 204.358 86.065 204.274 86.681H208.131C208.131 86.3917 208.092 86.128 208.012 85.89C207.933 85.6473 207.816 85.4397 207.662 85.267C207.508 85.0897 207.319 84.9543 207.095 84.861C206.876 84.763 206.624 84.714 206.339 84.714ZM210.846 91V83.909H211.56C211.696 83.909 211.789 83.9347 211.84 83.986C211.892 84.0373 211.927 84.126 211.945 84.252L212.029 85.358C212.272 84.8633 212.571 84.4783 212.925 84.203C213.285 83.923 213.705 83.783 214.185 83.783C214.381 83.783 214.559 83.8063 214.717 83.853C214.876 83.895 215.023 83.9557 215.158 84.035L214.997 84.966C214.965 85.0827 214.892 85.141 214.78 85.141C214.715 85.141 214.615 85.12 214.479 85.078C214.344 85.0313 214.155 85.008 213.912 85.008C213.478 85.008 213.114 85.134 212.82 85.386C212.531 85.638 212.288 86.0043 212.092 86.485V91H210.846ZM218.642 91.112C218.082 91.112 217.65 90.9557 217.347 90.643C217.048 90.3303 216.899 89.88 216.899 89.292V84.952H216.045C215.97 84.952 215.907 84.931 215.856 84.889C215.804 84.8423 215.779 84.7723 215.779 84.679V84.182L216.941 84.035L217.228 81.844C217.237 81.774 217.267 81.718 217.319 81.676C217.37 81.6293 217.435 81.606 217.515 81.606H218.145V84.049H220.175V84.952H218.145V89.208C218.145 89.5067 218.217 89.7283 218.362 89.873C218.506 90.0177 218.693 90.09 218.922 90.09C219.052 90.09 219.164 90.0737 219.258 90.041C219.356 90.0037 219.44 89.964 219.51 89.922C219.58 89.88 219.638 89.8427 219.685 89.81C219.736 89.7727 219.78 89.754 219.818 89.754C219.883 89.754 219.941 89.7937 219.993 89.873L220.357 90.468C220.142 90.6687 219.883 90.8273 219.58 90.944C219.276 91.056 218.964 91.112 218.642 91.112Z" fill="black"/>
<path d="M382 80.41L380.59 79L375 84.59L369.41 79L368 80.41L373.59 86L368 91.59L369.41 93L375 87.41L380.59 93L382 91.59L376.41 86L382 80.41Z" fill="#6E737A"/>
</g>
<defs>
<clipPath id="clip0">
<rect width="1000" height="163" fill="white"/>
</clipPath>
</defs>
</svg>
