<svg width="1000" height="491" viewBox="0 0 1000 491" fill="none" xmlns="http://www.w3.org/2000/svg">
<rect width="1000" height="491" fill="white"/>
<g filter="url(#filter0_d)">
<rect x="49" y="32" width="700" height="400" rx="4" fill="#E9EAEB"/>
<rect x="49" y="32" width="700" height="400" fill="white"/>
<path d="M710.333 56L723.667 69" stroke="#979797" stroke-linecap="square"/>
<path d="M710.333 69L723.667 56" stroke="#979797" stroke-linecap="square"/>
<path d="M82.104 64.8C82.1833 64.9493 82.2557 65.1057 82.321 65.269C82.391 65.4277 82.4587 65.5887 82.524 65.752C82.5893 65.584 82.657 65.4183 82.727 65.255C82.797 65.0917 82.8717 64.9353 82.951 64.786L85.947 59.179C85.9843 59.109 86.0217 59.053 86.059 59.011C86.101 58.969 86.1453 58.9387 86.192 58.92C86.2433 58.9013 86.2993 58.8897 86.36 58.885C86.4207 58.8803 86.493 58.878 86.577 58.878H87.998V69H86.339V62.462C86.339 62.3407 86.3413 62.2077 86.346 62.063C86.3553 61.9183 86.367 61.7713 86.381 61.622L83.322 67.362C83.252 67.4927 83.161 67.5953 83.049 67.67C82.937 67.74 82.8063 67.775 82.657 67.775H82.398C82.2487 67.775 82.118 67.74 82.006 67.67C81.894 67.5953 81.803 67.4927 81.733 67.362L78.632 61.601C78.6507 61.755 78.6623 61.9067 78.667 62.056C78.6763 62.2007 78.681 62.336 78.681 62.462V69H77.022V58.878H78.443C78.527 58.878 78.5993 58.8803 78.66 58.885C78.7207 58.8897 78.7743 58.9013 78.821 58.92C78.8723 58.9387 78.919 58.969 78.961 59.011C79.003 59.053 79.0427 59.109 79.08 59.179L82.104 64.8ZM92.4227 64.051H96.0487V65.493H92.4227V64.051ZM107.133 58.878V59.627C107.133 59.851 107.107 60.033 107.056 60.173C107.009 60.3083 106.963 60.4227 106.916 60.516L103.087 68.412C103.008 68.5753 102.896 68.7153 102.751 68.832C102.606 68.944 102.41 69 102.163 69H100.91L104.83 61.265C104.993 60.9477 105.175 60.6747 105.376 60.446H100.532C100.425 60.446 100.331 60.4063 100.252 60.327C100.173 60.2477 100.133 60.1543 100.133 60.047V58.878H107.133ZM115.352 63.939C115.352 64.821 115.256 65.5887 115.065 66.242C114.878 66.8907 114.617 67.4273 114.281 67.852C113.95 68.2767 113.555 68.594 113.098 68.804C112.645 69.0093 112.155 69.112 111.628 69.112C111.101 69.112 110.611 69.0093 110.158 68.804C109.71 68.594 109.32 68.2767 108.989 67.852C108.658 67.4273 108.399 66.8907 108.212 66.242C108.025 65.5887 107.932 64.821 107.932 63.939C107.932 63.0523 108.025 62.2847 108.212 61.636C108.399 60.9873 108.658 60.4507 108.989 60.026C109.32 59.6013 109.71 59.2863 110.158 59.081C110.611 58.871 111.101 58.766 111.628 58.766C112.155 58.766 112.645 58.871 113.098 59.081C113.555 59.2863 113.95 59.6013 114.281 60.026C114.617 60.4507 114.878 60.9873 115.065 61.636C115.256 62.2847 115.352 63.0523 115.352 63.939ZM113.567 63.939C113.567 63.2063 113.513 62.5997 113.406 62.119C113.299 61.6383 113.154 61.2557 112.972 60.971C112.795 60.6863 112.589 60.488 112.356 60.376C112.123 60.2593 111.88 60.201 111.628 60.201C111.381 60.201 111.14 60.2593 110.907 60.376C110.678 60.488 110.475 60.6863 110.298 60.971C110.121 61.2557 109.978 61.6383 109.871 62.119C109.768 62.5997 109.717 63.2063 109.717 63.939C109.717 64.6717 109.768 65.2783 109.871 65.759C109.978 66.2397 110.121 66.6223 110.298 66.907C110.475 67.1917 110.678 67.3923 110.907 67.509C111.14 67.621 111.381 67.677 111.628 67.677C111.88 67.677 112.123 67.621 112.356 67.509C112.589 67.3923 112.795 67.1917 112.972 66.907C113.154 66.6223 113.299 66.2397 113.406 65.759C113.513 65.2783 113.567 64.6717 113.567 63.939ZM123.473 63.939C123.473 64.821 123.377 65.5887 123.186 66.242C122.999 66.8907 122.738 67.4273 122.402 67.852C122.071 68.2767 121.676 68.594 121.219 68.804C120.766 69.0093 120.276 69.112 119.749 69.112C119.222 69.112 118.732 69.0093 118.279 68.804C117.831 68.594 117.441 68.2767 117.11 67.852C116.779 67.4273 116.52 66.8907 116.333 66.242C116.146 65.5887 116.053 64.821 116.053 63.939C116.053 63.0523 116.146 62.2847 116.333 61.636C116.52 60.9873 116.779 60.4507 117.11 60.026C117.441 59.6013 117.831 59.2863 118.279 59.081C118.732 58.871 119.222 58.766 119.749 58.766C120.276 58.766 120.766 58.871 121.219 59.081C121.676 59.2863 122.071 59.6013 122.402 60.026C122.738 60.4507 122.999 60.9873 123.186 61.636C123.377 62.2847 123.473 63.0523 123.473 63.939ZM121.688 63.939C121.688 63.2063 121.634 62.5997 121.527 62.119C121.42 61.6383 121.275 61.2557 121.093 60.971C120.916 60.6863 120.71 60.488 120.477 60.376C120.244 60.2593 120.001 60.201 119.749 60.201C119.502 60.201 119.261 60.2593 119.028 60.376C118.799 60.488 118.596 60.6863 118.419 60.971C118.242 61.2557 118.099 61.6383 117.992 62.119C117.889 62.5997 117.838 63.2063 117.838 63.939C117.838 64.6717 117.889 65.2783 117.992 65.759C118.099 66.2397 118.242 66.6223 118.419 66.907C118.596 67.1917 118.799 67.3923 119.028 67.509C119.261 67.621 119.502 67.677 119.749 67.677C120.001 67.677 120.244 67.621 120.477 67.509C120.71 67.3923 120.916 67.1917 121.093 66.907C121.275 66.6223 121.42 66.2397 121.527 65.759C121.634 65.2783 121.688 64.6717 121.688 63.939ZM129.156 65.297L126.797 61.818H128.463C128.589 61.818 128.683 61.8367 128.743 61.874C128.804 61.9067 128.858 61.9627 128.904 62.042L130.409 64.443C130.433 64.3637 130.461 64.2843 130.493 64.205C130.531 64.1257 130.575 64.0463 130.626 63.967L131.837 62.077C131.893 61.9883 131.952 61.923 132.012 61.881C132.073 61.839 132.148 61.818 132.236 61.818H133.825L131.459 65.22L133.923 69H132.257C132.131 69 132.029 68.9673 131.949 68.902C131.875 68.8367 131.812 68.762 131.76 68.678L130.234 66.179C130.192 66.347 130.134 66.487 130.059 66.599L128.715 68.678C128.664 68.7573 128.601 68.832 128.526 68.902C128.452 68.9673 128.358 69 128.246 69H126.699L129.156 65.297ZM143.393 65.185H144.667V66.186C144.667 66.2793 144.636 66.361 144.576 66.431C144.515 66.4963 144.426 66.529 144.31 66.529H143.393V69H141.881V66.529H137.611C137.494 66.529 137.391 66.494 137.303 66.424C137.214 66.3493 137.158 66.2583 137.135 66.151L136.96 65.276L141.755 58.871H143.393V65.185ZM141.881 61.874C141.881 61.7247 141.885 61.5637 141.895 61.391C141.904 61.2183 141.92 61.0387 141.944 60.852L138.801 65.185H141.881V61.874ZM152.69 63.939C152.69 64.821 152.594 65.5887 152.403 66.242C152.216 66.8907 151.955 67.4273 151.619 67.852C151.288 68.2767 150.893 68.594 150.436 68.804C149.983 69.0093 149.493 69.112 148.966 69.112C148.439 69.112 147.949 69.0093 147.496 68.804C147.048 68.594 146.658 68.2767 146.327 67.852C145.996 67.4273 145.737 66.8907 145.55 66.242C145.363 65.5887 145.27 64.821 145.27 63.939C145.27 63.0523 145.363 62.2847 145.55 61.636C145.737 60.9873 145.996 60.4507 146.327 60.026C146.658 59.6013 147.048 59.2863 147.496 59.081C147.949 58.871 148.439 58.766 148.966 58.766C149.493 58.766 149.983 58.871 150.436 59.081C150.893 59.2863 151.288 59.6013 151.619 60.026C151.955 60.4507 152.216 60.9873 152.403 61.636C152.594 62.2847 152.69 63.0523 152.69 63.939ZM150.905 63.939C150.905 63.2063 150.851 62.5997 150.744 62.119C150.637 61.6383 150.492 61.2557 150.31 60.971C150.133 60.6863 149.927 60.488 149.694 60.376C149.461 60.2593 149.218 60.201 148.966 60.201C148.719 60.201 148.478 60.2593 148.245 60.376C148.016 60.488 147.813 60.6863 147.636 60.971C147.459 61.2557 147.316 61.6383 147.209 62.119C147.106 62.5997 147.055 63.2063 147.055 63.939C147.055 64.6717 147.106 65.2783 147.209 65.759C147.316 66.2397 147.459 66.6223 147.636 66.907C147.813 67.1917 148.016 67.3923 148.245 67.509C148.478 67.621 148.719 67.677 148.966 67.677C149.218 67.677 149.461 67.621 149.694 67.509C149.927 67.3923 150.133 67.1917 150.31 66.907C150.492 66.6223 150.637 66.2397 150.744 65.759C150.851 65.2783 150.905 64.6717 150.905 63.939ZM160.811 63.939C160.811 64.821 160.715 65.5887 160.524 66.242C160.337 66.8907 160.076 67.4273 159.74 67.852C159.409 68.2767 159.014 68.594 158.557 68.804C158.104 69.0093 157.614 69.112 157.087 69.112C156.56 69.112 156.07 69.0093 155.617 68.804C155.169 68.594 154.779 68.2767 154.448 67.852C154.117 67.4273 153.858 66.8907 153.671 66.242C153.484 65.5887 153.391 64.821 153.391 63.939C153.391 63.0523 153.484 62.2847 153.671 61.636C153.858 60.9873 154.117 60.4507 154.448 60.026C154.779 59.6013 155.169 59.2863 155.617 59.081C156.07 58.871 156.56 58.766 157.087 58.766C157.614 58.766 158.104 58.871 158.557 59.081C159.014 59.2863 159.409 59.6013 159.74 60.026C160.076 60.4507 160.337 60.9873 160.524 61.636C160.715 62.2847 160.811 63.0523 160.811 63.939ZM159.026 63.939C159.026 63.2063 158.972 62.5997 158.865 62.119C158.758 61.6383 158.613 61.2557 158.431 60.971C158.254 60.6863 158.048 60.488 157.815 60.376C157.582 60.2593 157.339 60.201 157.087 60.201C156.84 60.201 156.599 60.2593 156.366 60.376C156.137 60.488 155.934 60.6863 155.757 60.971C155.58 61.2557 155.437 61.6383 155.33 62.119C155.227 62.5997 155.176 63.2063 155.176 63.939C155.176 64.6717 155.227 65.2783 155.33 65.759C155.437 66.2397 155.58 66.6223 155.757 66.907C155.934 67.1917 156.137 67.3923 156.366 67.509C156.599 67.621 156.84 67.677 157.087 67.677C157.339 67.677 157.582 67.621 157.815 67.509C158.048 67.3923 158.254 67.1917 158.431 66.907C158.613 66.6223 158.758 66.2397 158.865 65.759C158.972 65.2783 159.026 64.6717 159.026 63.939Z" fill="#A7ABB1"/>
<rect x="121.5" y="162.5" width="255" height="35" rx="3.5" stroke="#A7ABB1"/>
<rect x="121.5" y="251.5" width="255" height="35" rx="3.5" stroke="#A7ABB1"/>
<path d="M129.155 134.878V136.425H126.11V145H124.227V136.425H121.168V134.878H129.155ZM132.091 137.818V145H130.362V137.818H132.091ZM132.35 135.725C132.35 135.874 132.32 136.014 132.259 136.145C132.199 136.276 132.117 136.39 132.014 136.488C131.916 136.586 131.8 136.665 131.664 136.726C131.529 136.782 131.384 136.81 131.23 136.81C131.081 136.81 130.939 136.782 130.803 136.726C130.673 136.665 130.558 136.586 130.46 136.488C130.362 136.39 130.283 136.276 130.222 136.145C130.166 136.014 130.138 135.874 130.138 135.725C130.138 135.571 130.166 135.426 130.222 135.291C130.283 135.156 130.362 135.039 130.46 134.941C130.558 134.843 130.673 134.766 130.803 134.71C130.939 134.649 131.081 134.619 131.23 134.619C131.384 134.619 131.529 134.649 131.664 134.71C131.8 134.766 131.916 134.843 132.014 134.941C132.117 135.039 132.199 135.156 132.259 135.291C132.32 135.426 132.35 135.571 132.35 135.725ZM136.41 145.112C135.789 145.112 135.311 144.937 134.975 144.587C134.639 144.232 134.471 143.745 134.471 143.124V139.113H133.743C133.65 139.113 133.568 139.083 133.498 139.022C133.433 138.961 133.4 138.87 133.4 138.749V138.063L134.555 137.874L134.919 135.914C134.938 135.821 134.98 135.748 135.045 135.697C135.115 135.646 135.201 135.62 135.304 135.62H136.2V137.881H138.09V139.113H136.2V143.005C136.2 143.229 136.256 143.404 136.368 143.53C136.48 143.656 136.629 143.719 136.816 143.719C136.923 143.719 137.012 143.707 137.082 143.684C137.157 143.656 137.22 143.628 137.271 143.6C137.327 143.572 137.376 143.546 137.418 143.523C137.46 143.495 137.502 143.481 137.544 143.481C137.595 143.481 137.637 143.495 137.67 143.523C137.703 143.546 137.738 143.584 137.775 143.635L138.293 144.475C138.041 144.685 137.752 144.844 137.425 144.951C137.098 145.058 136.76 145.112 136.41 145.112ZM141.306 134.598V145H139.577V134.598H141.306ZM146.234 137.706C146.686 137.706 147.102 137.778 147.48 137.923C147.862 138.068 148.191 138.28 148.467 138.56C148.742 138.835 148.957 139.176 149.111 139.582C149.265 139.983 149.342 140.443 149.342 140.961C149.342 141.092 149.335 141.201 149.321 141.29C149.311 141.374 149.29 141.442 149.258 141.493C149.23 141.54 149.19 141.575 149.139 141.598C149.087 141.617 149.022 141.626 148.943 141.626H144.505C144.556 142.363 144.754 142.905 145.1 143.25C145.445 143.595 145.902 143.768 146.472 143.768C146.752 143.768 146.992 143.735 147.193 143.67C147.398 143.605 147.575 143.532 147.725 143.453C147.879 143.374 148.012 143.301 148.124 143.236C148.24 143.171 148.352 143.138 148.46 143.138C148.53 143.138 148.59 143.152 148.642 143.18C148.693 143.208 148.737 143.248 148.775 143.299L149.279 143.929C149.087 144.153 148.873 144.342 148.635 144.496C148.397 144.645 148.147 144.767 147.886 144.86C147.629 144.949 147.365 145.012 147.095 145.049C146.829 145.086 146.57 145.105 146.318 145.105C145.818 145.105 145.354 145.023 144.925 144.86C144.495 144.692 144.122 144.447 143.805 144.125C143.487 143.798 143.238 143.397 143.056 142.921C142.874 142.44 142.783 141.885 142.783 141.255C142.783 140.765 142.862 140.305 143.021 139.876C143.179 139.442 143.406 139.066 143.7 138.749C143.998 138.427 144.36 138.173 144.785 137.986C145.214 137.799 145.697 137.706 146.234 137.706ZM146.269 138.945C145.765 138.945 145.37 139.087 145.086 139.372C144.801 139.657 144.619 140.06 144.54 140.583H147.788C147.788 140.359 147.757 140.149 147.697 139.953C147.636 139.752 147.543 139.577 147.417 139.428C147.291 139.279 147.132 139.162 146.941 139.078C146.749 138.989 146.525 138.945 146.269 138.945Z" fill="black"/>
<path d="M129.155 224.878V226.425H126.11V235H124.227V226.425H121.168V224.878H129.155ZM132.091 227.818V235H130.362V227.818H132.091ZM132.35 225.725C132.35 225.874 132.32 226.014 132.259 226.145C132.199 226.276 132.117 226.39 132.014 226.488C131.916 226.586 131.8 226.665 131.664 226.726C131.529 226.782 131.384 226.81 131.23 226.81C131.081 226.81 130.939 226.782 130.803 226.726C130.673 226.665 130.558 226.586 130.46 226.488C130.362 226.39 130.283 226.276 130.222 226.145C130.166 226.014 130.138 225.874 130.138 225.725C130.138 225.571 130.166 225.426 130.222 225.291C130.283 225.156 130.362 225.039 130.46 224.941C130.558 224.843 130.673 224.766 130.803 224.71C130.939 224.649 131.081 224.619 131.23 224.619C131.384 224.619 131.529 224.649 131.664 224.71C131.8 224.766 131.916 224.843 132.014 224.941C132.117 225.039 132.199 225.156 132.259 225.291C132.32 225.426 132.35 225.571 132.35 225.725ZM136.41 235.112C135.789 235.112 135.311 234.937 134.975 234.587C134.639 234.232 134.471 233.745 134.471 233.124V229.113H133.743C133.65 229.113 133.568 229.083 133.498 229.022C133.433 228.961 133.4 228.87 133.4 228.749V228.063L134.555 227.874L134.919 225.914C134.938 225.821 134.98 225.748 135.045 225.697C135.115 225.646 135.201 225.62 135.304 225.62H136.2V227.881H138.09V229.113H136.2V233.005C136.2 233.229 136.256 233.404 136.368 233.53C136.48 233.656 136.629 233.719 136.816 233.719C136.923 233.719 137.012 233.707 137.082 233.684C137.157 233.656 137.22 233.628 137.271 233.6C137.327 233.572 137.376 233.546 137.418 233.523C137.46 233.495 137.502 233.481 137.544 233.481C137.595 233.481 137.637 233.495 137.67 233.523C137.703 233.546 137.738 233.584 137.775 233.635L138.293 234.475C138.041 234.685 137.752 234.844 137.425 234.951C137.098 235.058 136.76 235.112 136.41 235.112ZM141.306 224.598V235H139.577V224.598H141.306ZM146.234 227.706C146.686 227.706 147.102 227.778 147.48 227.923C147.862 228.068 148.191 228.28 148.467 228.56C148.742 228.835 148.957 229.176 149.111 229.582C149.265 229.983 149.342 230.443 149.342 230.961C149.342 231.092 149.335 231.201 149.321 231.29C149.311 231.374 149.29 231.442 149.258 231.493C149.23 231.54 149.19 231.575 149.139 231.598C149.087 231.617 149.022 231.626 148.943 231.626H144.505C144.556 232.363 144.754 232.905 145.1 233.25C145.445 233.595 145.902 233.768 146.472 233.768C146.752 233.768 146.992 233.735 147.193 233.67C147.398 233.605 147.575 233.532 147.725 233.453C147.879 233.374 148.012 233.301 148.124 233.236C148.24 233.171 148.352 233.138 148.46 233.138C148.53 233.138 148.59 233.152 148.642 233.18C148.693 233.208 148.737 233.248 148.775 233.299L149.279 233.929C149.087 234.153 148.873 234.342 148.635 234.496C148.397 234.645 148.147 234.767 147.886 234.86C147.629 234.949 147.365 235.012 147.095 235.049C146.829 235.086 146.57 235.105 146.318 235.105C145.818 235.105 145.354 235.023 144.925 234.86C144.495 234.692 144.122 234.447 143.805 234.125C143.487 233.798 143.238 233.397 143.056 232.921C142.874 232.44 142.783 231.885 142.783 231.255C142.783 230.765 142.862 230.305 143.021 229.876C143.179 229.442 143.406 229.066 143.7 228.749C143.998 228.427 144.36 228.173 144.785 227.986C145.214 227.799 145.697 227.706 146.234 227.706ZM146.269 228.945C145.765 228.945 145.37 229.087 145.086 229.372C144.801 229.657 144.619 230.06 144.54 230.583H147.788C147.788 230.359 147.757 230.149 147.697 229.953C147.636 229.752 147.543 229.577 147.417 229.428C147.291 229.279 147.132 229.162 146.941 229.078C146.749 228.989 146.525 228.945 146.269 228.945Z" fill="black"/>
<path d="M441.155 134.878V136.425H438.11V145H436.227V136.425H433.168V134.878H441.155ZM444.091 137.818V145H442.362V137.818H444.091ZM444.35 135.725C444.35 135.874 444.32 136.014 444.259 136.145C444.199 136.276 444.117 136.39 444.014 136.488C443.916 136.586 443.8 136.665 443.664 136.726C443.529 136.782 443.384 136.81 443.23 136.81C443.081 136.81 442.939 136.782 442.803 136.726C442.673 136.665 442.558 136.586 442.46 136.488C442.362 136.39 442.283 136.276 442.222 136.145C442.166 136.014 442.138 135.874 442.138 135.725C442.138 135.571 442.166 135.426 442.222 135.291C442.283 135.156 442.362 135.039 442.46 134.941C442.558 134.843 442.673 134.766 442.803 134.71C442.939 134.649 443.081 134.619 443.23 134.619C443.384 134.619 443.529 134.649 443.664 134.71C443.8 134.766 443.916 134.843 444.014 134.941C444.117 135.039 444.199 135.156 444.259 135.291C444.32 135.426 444.35 135.571 444.35 135.725ZM448.41 145.112C447.789 145.112 447.311 144.937 446.975 144.587C446.639 144.232 446.471 143.745 446.471 143.124V139.113H445.743C445.65 139.113 445.568 139.083 445.498 139.022C445.433 138.961 445.4 138.87 445.4 138.749V138.063L446.555 137.874L446.919 135.914C446.938 135.821 446.98 135.748 447.045 135.697C447.115 135.646 447.201 135.62 447.304 135.62H448.2V137.881H450.09V139.113H448.2V143.005C448.2 143.229 448.256 143.404 448.368 143.53C448.48 143.656 448.629 143.719 448.816 143.719C448.923 143.719 449.012 143.707 449.082 143.684C449.157 143.656 449.22 143.628 449.271 143.6C449.327 143.572 449.376 143.546 449.418 143.523C449.46 143.495 449.502 143.481 449.544 143.481C449.595 143.481 449.637 143.495 449.67 143.523C449.703 143.546 449.738 143.584 449.775 143.635L450.293 144.475C450.041 144.685 449.752 144.844 449.425 144.951C449.098 145.058 448.76 145.112 448.41 145.112ZM453.306 134.598V145H451.577V134.598H453.306ZM458.234 137.706C458.686 137.706 459.102 137.778 459.48 137.923C459.862 138.068 460.191 138.28 460.467 138.56C460.742 138.835 460.957 139.176 461.111 139.582C461.265 139.983 461.342 140.443 461.342 140.961C461.342 141.092 461.335 141.201 461.321 141.29C461.311 141.374 461.29 141.442 461.258 141.493C461.23 141.54 461.19 141.575 461.139 141.598C461.087 141.617 461.022 141.626 460.943 141.626H456.505C456.556 142.363 456.754 142.905 457.1 143.25C457.445 143.595 457.902 143.768 458.472 143.768C458.752 143.768 458.992 143.735 459.193 143.67C459.398 143.605 459.575 143.532 459.725 143.453C459.879 143.374 460.012 143.301 460.124 143.236C460.24 143.171 460.352 143.138 460.46 143.138C460.53 143.138 460.59 143.152 460.642 143.18C460.693 143.208 460.737 143.248 460.775 143.299L461.279 143.929C461.087 144.153 460.873 144.342 460.635 144.496C460.397 144.645 460.147 144.767 459.886 144.86C459.629 144.949 459.365 145.012 459.095 145.049C458.829 145.086 458.57 145.105 458.318 145.105C457.818 145.105 457.354 145.023 456.925 144.86C456.495 144.692 456.122 144.447 455.805 144.125C455.487 143.798 455.238 143.397 455.056 142.921C454.874 142.44 454.783 141.885 454.783 141.255C454.783 140.765 454.862 140.305 455.021 139.876C455.179 139.442 455.406 139.066 455.7 138.749C455.998 138.427 456.36 138.173 456.785 137.986C457.214 137.799 457.697 137.706 458.234 137.706ZM458.269 138.945C457.765 138.945 457.37 139.087 457.086 139.372C456.801 139.657 456.619 140.06 456.54 140.583H459.788C459.788 140.359 459.757 140.149 459.697 139.953C459.636 139.752 459.543 139.577 459.417 139.428C459.291 139.279 459.132 139.162 458.941 139.078C458.749 138.989 458.525 138.945 458.269 138.945Z" fill="black"/>
<path d="M473.971 267.337C473.92 267.402 473.868 267.454 473.817 267.491C473.77 267.528 473.7 267.547 473.607 267.547C473.518 267.547 473.432 267.521 473.348 267.47C473.264 267.414 473.164 267.353 473.047 267.288C472.93 267.218 472.79 267.157 472.627 267.106C472.468 267.05 472.27 267.022 472.032 267.022C471.729 267.022 471.463 267.078 471.234 267.19C471.005 267.297 470.814 267.454 470.66 267.659C470.511 267.864 470.399 268.114 470.324 268.408C470.249 268.697 470.212 269.026 470.212 269.395C470.212 269.778 470.252 270.118 470.331 270.417C470.415 270.716 470.534 270.968 470.688 271.173C470.842 271.374 471.029 271.528 471.248 271.635C471.467 271.738 471.715 271.789 471.99 271.789C472.265 271.789 472.487 271.756 472.655 271.691C472.828 271.621 472.972 271.546 473.089 271.467C473.206 271.383 473.306 271.308 473.39 271.243C473.479 271.173 473.577 271.138 473.684 271.138C473.824 271.138 473.929 271.192 473.999 271.299L474.496 271.929C474.305 272.153 474.097 272.342 473.873 272.496C473.649 272.645 473.416 272.767 473.173 272.86C472.935 272.949 472.688 273.012 472.431 273.049C472.174 273.086 471.92 273.105 471.668 273.105C471.225 273.105 470.807 273.023 470.415 272.86C470.023 272.692 469.68 272.449 469.386 272.132C469.097 271.815 468.866 271.427 468.693 270.97C468.525 270.508 468.441 269.983 468.441 269.395C468.441 268.868 468.516 268.38 468.665 267.932C468.819 267.479 469.043 267.09 469.337 266.763C469.631 266.432 469.995 266.173 470.429 265.986C470.863 265.799 471.362 265.706 471.927 265.706C472.464 265.706 472.933 265.792 473.334 265.965C473.74 266.138 474.104 266.385 474.426 266.707L473.971 267.337ZM475.596 273V262.598H477.325V266.595C477.605 266.329 477.913 266.114 478.249 265.951C478.585 265.788 478.979 265.706 479.432 265.706C479.824 265.706 480.172 265.774 480.475 265.909C480.778 266.04 481.03 266.226 481.231 266.469C481.436 266.707 481.59 266.994 481.693 267.33C481.8 267.661 481.854 268.028 481.854 268.429V273H480.125V268.429C480.125 267.99 480.022 267.652 479.817 267.414C479.616 267.171 479.313 267.05 478.907 267.05C478.608 267.05 478.328 267.118 478.067 267.253C477.806 267.388 477.558 267.573 477.325 267.806V273H475.596ZM486.521 265.706C486.974 265.706 487.389 265.778 487.767 265.923C488.15 266.068 488.479 266.28 488.754 266.56C489.029 266.835 489.244 267.176 489.398 267.582C489.552 267.983 489.629 268.443 489.629 268.961C489.629 269.092 489.622 269.201 489.608 269.29C489.599 269.374 489.578 269.442 489.545 269.493C489.517 269.54 489.477 269.575 489.426 269.598C489.375 269.617 489.309 269.626 489.23 269.626H484.792C484.843 270.363 485.042 270.905 485.387 271.25C485.732 271.595 486.19 271.768 486.759 271.768C487.039 271.768 487.279 271.735 487.48 271.67C487.685 271.605 487.863 271.532 488.012 271.453C488.166 271.374 488.299 271.301 488.411 271.236C488.528 271.171 488.64 271.138 488.747 271.138C488.817 271.138 488.878 271.152 488.929 271.18C488.98 271.208 489.025 271.248 489.062 271.299L489.566 271.929C489.375 272.153 489.16 272.342 488.922 272.496C488.684 272.645 488.434 272.767 488.173 272.86C487.916 272.949 487.653 273.012 487.382 273.049C487.116 273.086 486.857 273.105 486.605 273.105C486.106 273.105 485.641 273.023 485.212 272.86C484.783 272.692 484.409 272.447 484.092 272.125C483.775 271.798 483.525 271.397 483.343 270.921C483.161 270.44 483.07 269.885 483.07 269.255C483.07 268.765 483.149 268.305 483.308 267.876C483.467 267.442 483.693 267.066 483.987 266.749C484.286 266.427 484.647 266.173 485.072 265.986C485.501 265.799 485.984 265.706 486.521 265.706ZM486.556 266.945C486.052 266.945 485.658 267.087 485.373 267.372C485.088 267.657 484.906 268.06 484.827 268.583H488.075C488.075 268.359 488.045 268.149 487.984 267.953C487.923 267.752 487.83 267.577 487.704 267.428C487.578 267.279 487.419 267.162 487.228 267.078C487.037 266.989 486.813 266.945 486.556 266.945ZM496.078 267.337C496.027 267.402 495.976 267.454 495.924 267.491C495.878 267.528 495.808 267.547 495.714 267.547C495.626 267.547 495.539 267.521 495.455 267.47C495.371 267.414 495.271 267.353 495.154 267.288C495.038 267.218 494.898 267.157 494.734 267.106C494.576 267.05 494.377 267.022 494.139 267.022C493.836 267.022 493.57 267.078 493.341 267.19C493.113 267.297 492.921 267.454 492.767 267.659C492.618 267.864 492.506 268.114 492.431 268.408C492.357 268.697 492.319 269.026 492.319 269.395C492.319 269.778 492.359 270.118 492.438 270.417C492.522 270.716 492.641 270.968 492.795 271.173C492.949 271.374 493.136 271.528 493.355 271.635C493.575 271.738 493.822 271.789 494.097 271.789C494.373 271.789 494.594 271.756 494.762 271.691C494.935 271.621 495.08 271.546 495.196 271.467C495.313 271.383 495.413 271.308 495.497 271.243C495.586 271.173 495.684 271.138 495.791 271.138C495.931 271.138 496.036 271.192 496.106 271.299L496.603 271.929C496.412 272.153 496.204 272.342 495.98 272.496C495.756 272.645 495.523 272.767 495.28 272.86C495.042 272.949 494.795 273.012 494.538 273.049C494.282 273.086 494.027 273.105 493.775 273.105C493.332 273.105 492.914 273.023 492.522 272.86C492.13 272.692 491.787 272.449 491.493 272.132C491.204 271.815 490.973 271.427 490.8 270.97C490.632 270.508 490.548 269.983 490.548 269.395C490.548 268.868 490.623 268.38 490.772 267.932C490.926 267.479 491.15 267.09 491.444 266.763C491.738 266.432 492.102 266.173 492.536 265.986C492.97 265.799 493.47 265.706 494.034 265.706C494.571 265.706 495.04 265.792 495.441 265.965C495.847 266.138 496.211 266.385 496.533 266.707L496.078 267.337ZM499.453 262.598V268.555H499.775C499.892 268.555 499.983 268.539 500.048 268.506C500.114 268.473 500.184 268.413 500.258 268.324L502.043 266.119C502.123 266.026 502.207 265.953 502.295 265.902C502.384 265.846 502.501 265.818 502.645 265.818H504.227L501.994 268.485C501.915 268.583 501.833 268.674 501.749 268.758C501.665 268.837 501.574 268.907 501.476 268.968C501.574 269.038 501.661 269.12 501.735 269.213C501.81 269.306 501.885 269.407 501.959 269.514L504.353 273H502.792C502.657 273 502.543 272.977 502.449 272.93C502.356 272.883 502.272 272.804 502.197 272.692L500.37 269.969C500.3 269.862 500.23 269.792 500.16 269.759C500.09 269.726 499.985 269.71 499.845 269.71H499.453V273H497.724V262.598H499.453ZM505.449 273V262.598H507.178V266.7C507.463 266.397 507.785 266.156 508.144 265.979C508.503 265.797 508.923 265.706 509.404 265.706C509.796 265.706 510.153 265.788 510.475 265.951C510.802 266.11 511.082 266.343 511.315 266.651C511.553 266.959 511.735 267.339 511.861 267.792C511.992 268.245 512.057 268.765 512.057 269.353C512.057 269.89 511.985 270.387 511.84 270.844C511.695 271.301 511.488 271.698 511.217 272.034C510.951 272.37 510.627 272.634 510.244 272.825C509.866 273.012 509.441 273.105 508.97 273.105C508.751 273.105 508.55 273.082 508.368 273.035C508.186 272.993 508.02 272.932 507.871 272.853C507.722 272.774 507.582 272.678 507.451 272.566C507.325 272.449 507.204 272.321 507.087 272.181L507.01 272.664C506.982 272.785 506.933 272.872 506.863 272.923C506.798 272.974 506.707 273 506.59 273H505.449ZM508.809 267.05C508.45 267.05 508.142 267.127 507.885 267.281C507.633 267.43 507.397 267.643 507.178 267.918V271.138C507.374 271.381 507.586 271.551 507.815 271.649C508.048 271.742 508.3 271.789 508.571 271.789C508.832 271.789 509.068 271.74 509.278 271.642C509.488 271.544 509.665 271.395 509.81 271.194C509.959 270.993 510.074 270.741 510.153 270.438C510.232 270.13 510.272 269.768 510.272 269.353C510.272 268.933 510.237 268.578 510.167 268.289C510.102 267.995 510.006 267.757 509.88 267.575C509.754 267.393 509.6 267.26 509.418 267.176C509.241 267.092 509.038 267.05 508.809 267.05ZM516.478 265.706C517.015 265.706 517.5 265.792 517.934 265.965C518.373 266.138 518.746 266.383 519.054 266.7C519.362 267.017 519.6 267.405 519.768 267.862C519.936 268.319 520.02 268.83 520.02 269.395C520.02 269.964 519.936 270.478 519.768 270.935C519.6 271.392 519.362 271.782 519.054 272.104C518.746 272.426 518.373 272.673 517.934 272.846C517.5 273.019 517.015 273.105 516.478 273.105C515.942 273.105 515.454 273.019 515.015 272.846C514.577 272.673 514.201 272.426 513.888 272.104C513.58 271.782 513.34 271.392 513.167 270.935C512.999 270.478 512.915 269.964 512.915 269.395C512.915 268.83 512.999 268.319 513.167 267.862C513.34 267.405 513.58 267.017 513.888 266.7C514.201 266.383 514.577 266.138 515.015 265.965C515.454 265.792 515.942 265.706 516.478 265.706ZM516.478 271.775C517.076 271.775 517.517 271.574 517.801 271.173C518.091 270.772 518.235 270.184 518.235 269.409C518.235 268.634 518.091 268.044 517.801 267.638C517.517 267.232 517.076 267.029 516.478 267.029C515.872 267.029 515.424 267.234 515.134 267.645C514.845 268.051 514.7 268.639 514.7 269.409C514.7 270.179 514.845 270.767 515.134 271.173C515.424 271.574 515.872 271.775 516.478 271.775ZM522.646 269.297L520.287 265.818H521.953C522.079 265.818 522.173 265.837 522.233 265.874C522.294 265.907 522.348 265.963 522.394 266.042L523.899 268.443C523.923 268.364 523.951 268.284 523.983 268.205C524.021 268.126 524.065 268.046 524.116 267.967L525.327 266.077C525.383 265.988 525.442 265.923 525.502 265.881C525.563 265.839 525.638 265.818 525.726 265.818H527.315L524.949 269.22L527.413 273H525.747C525.621 273 525.519 272.967 525.439 272.902C525.365 272.837 525.302 272.762 525.25 272.678L523.724 270.179C523.682 270.347 523.624 270.487 523.549 270.599L522.205 272.678C522.154 272.757 522.091 272.832 522.016 272.902C521.942 272.967 521.848 273 521.736 273H520.189L522.646 269.297ZM533.572 273.112C532.951 273.112 532.473 272.937 532.137 272.587C531.801 272.232 531.633 271.745 531.633 271.124V267.113H530.905C530.812 267.113 530.73 267.083 530.66 267.022C530.595 266.961 530.562 266.87 530.562 266.749V266.063L531.717 265.874L532.081 263.914C532.1 263.821 532.142 263.748 532.207 263.697C532.277 263.646 532.363 263.62 532.466 263.62H533.362V265.881H535.252V267.113H533.362V271.005C533.362 271.229 533.418 271.404 533.53 271.53C533.642 271.656 533.791 271.719 533.978 271.719C534.085 271.719 534.174 271.707 534.244 271.684C534.319 271.656 534.382 271.628 534.433 271.6C534.489 271.572 534.538 271.546 534.58 271.523C534.622 271.495 534.664 271.481 534.706 271.481C534.757 271.481 534.799 271.495 534.832 271.523C534.865 271.546 534.9 271.584 534.937 271.635L535.455 272.475C535.203 272.685 534.914 272.844 534.587 272.951C534.26 273.058 533.922 273.112 533.572 273.112ZM538.468 265.818V273H536.739V265.818H538.468ZM538.727 263.725C538.727 263.874 538.697 264.014 538.636 264.145C538.575 264.276 538.494 264.39 538.391 264.488C538.293 264.586 538.176 264.665 538.041 264.726C537.906 264.782 537.761 264.81 537.607 264.81C537.458 264.81 537.315 264.782 537.18 264.726C537.049 264.665 536.935 264.586 536.837 264.488C536.739 264.39 536.66 264.276 536.599 264.145C536.543 264.014 536.515 263.874 536.515 263.725C536.515 263.571 536.543 263.426 536.599 263.291C536.66 263.156 536.739 263.039 536.837 262.941C536.935 262.843 537.049 262.766 537.18 262.71C537.315 262.649 537.458 262.619 537.607 262.619C537.761 262.619 537.906 262.649 538.041 262.71C538.176 262.766 538.293 262.843 538.391 262.941C538.494 263.039 538.575 263.156 538.636 263.291C538.697 263.426 538.727 263.571 538.727 263.725ZM542.787 273.112C542.166 273.112 541.688 272.937 541.352 272.587C541.016 272.232 540.848 271.745 540.848 271.124V267.113H540.12C540.027 267.113 539.945 267.083 539.875 267.022C539.81 266.961 539.777 266.87 539.777 266.749V266.063L540.932 265.874L541.296 263.914C541.315 263.821 541.357 263.748 541.422 263.697C541.492 263.646 541.578 263.62 541.681 263.62H542.577V265.881H544.467V267.113H542.577V271.005C542.577 271.229 542.633 271.404 542.745 271.53C542.857 271.656 543.006 271.719 543.193 271.719C543.3 271.719 543.389 271.707 543.459 271.684C543.534 271.656 543.597 271.628 543.648 271.6C543.704 271.572 543.753 271.546 543.795 271.523C543.837 271.495 543.879 271.481 543.921 271.481C543.972 271.481 544.014 271.495 544.047 271.523C544.08 271.546 544.115 271.584 544.152 271.635L544.67 272.475C544.418 272.685 544.129 272.844 543.802 272.951C543.475 273.058 543.137 273.112 542.787 273.112ZM547.683 262.598V273H545.954V262.598H547.683ZM552.611 265.706C553.063 265.706 553.479 265.778 553.857 265.923C554.239 266.068 554.568 266.28 554.844 266.56C555.119 266.835 555.334 267.176 555.488 267.582C555.642 267.983 555.719 268.443 555.719 268.961C555.719 269.092 555.712 269.201 555.698 269.29C555.688 269.374 555.667 269.442 555.635 269.493C555.607 269.54 555.567 269.575 555.516 269.598C555.464 269.617 555.399 269.626 555.32 269.626H550.882C550.933 270.363 551.131 270.905 551.477 271.25C551.822 271.595 552.279 271.768 552.849 271.768C553.129 271.768 553.369 271.735 553.57 271.67C553.775 271.605 553.952 271.532 554.102 271.453C554.256 271.374 554.389 271.301 554.501 271.236C554.617 271.171 554.729 271.138 554.837 271.138C554.907 271.138 554.967 271.152 555.019 271.18C555.07 271.208 555.114 271.248 555.152 271.299L555.656 271.929C555.464 272.153 555.25 272.342 555.012 272.496C554.774 272.645 554.524 272.767 554.263 272.86C554.006 272.949 553.742 273.012 553.472 273.049C553.206 273.086 552.947 273.105 552.695 273.105C552.195 273.105 551.731 273.023 551.302 272.86C550.872 272.692 550.499 272.447 550.182 272.125C549.864 271.798 549.615 271.397 549.433 270.921C549.251 270.44 549.16 269.885 549.16 269.255C549.16 268.765 549.239 268.305 549.398 267.876C549.556 267.442 549.783 267.066 550.077 266.749C550.375 266.427 550.737 266.173 551.162 265.986C551.591 265.799 552.074 265.706 552.611 265.706ZM552.646 266.945C552.142 266.945 551.747 267.087 551.463 267.372C551.178 267.657 550.996 268.06 550.917 268.583H554.165C554.165 268.359 554.134 268.149 554.074 267.953C554.013 267.752 553.92 267.577 553.794 267.428C553.668 267.279 553.509 267.162 553.318 267.078C553.126 266.989 552.902 266.945 552.646 266.945Z" fill="black"/>
<path d="M452 259H438C436.89 259 436 259.9 436 261V275C436 276.1 436.89 277 438 277H452C453.11 277 454 276.1 454 275V261C454 259.9 453.11 259 452 259ZM443 273L438 268L439.41 266.59L443 270.17L450.59 262.58L452 264L443 273Z" fill="#279FF6"/>
<path d="M456.399 174.969V176.075H451.583V179.407H455.482V180.471H451.583V183.894H456.399V185H450.218V174.969H456.399ZM459.816 181.367L457.429 177.909H458.626C458.728 177.909 458.803 177.925 458.85 177.958C458.896 177.991 458.938 178.037 458.976 178.098L460.712 180.758C460.754 180.627 460.814 180.497 460.894 180.366L462.42 178.126C462.466 178.061 462.513 178.009 462.56 177.972C462.606 177.93 462.665 177.909 462.735 177.909H463.883L461.496 181.297L463.981 185H462.784C462.681 185 462.599 184.974 462.539 184.923C462.483 184.867 462.436 184.806 462.399 184.741L460.614 181.962C460.581 182.097 460.532 182.219 460.467 182.326L458.815 184.741C458.768 184.806 458.717 184.867 458.661 184.923C458.609 184.974 458.537 185 458.444 185H457.331L459.816 181.367ZM467.36 185.112C466.8 185.112 466.369 184.956 466.065 184.643C465.767 184.33 465.617 183.88 465.617 183.292V178.952H464.763C464.689 178.952 464.626 178.931 464.574 178.889C464.523 178.842 464.497 178.772 464.497 178.679V178.182L465.659 178.035L465.946 175.844C465.956 175.774 465.986 175.718 466.037 175.676C466.089 175.629 466.154 175.606 466.233 175.606H466.863V178.049H468.893V178.952H466.863V183.208C466.863 183.507 466.936 183.728 467.08 183.873C467.225 184.018 467.412 184.09 467.64 184.09C467.771 184.09 467.883 184.074 467.976 184.041C468.074 184.004 468.158 183.964 468.228 183.922C468.298 183.88 468.357 183.843 468.403 183.81C468.455 183.773 468.499 183.754 468.536 183.754C468.602 183.754 468.66 183.794 468.711 183.873L469.075 184.468C468.861 184.669 468.602 184.827 468.298 184.944C467.995 185.056 467.682 185.112 467.36 185.112ZM470.434 185V177.909H471.148C471.283 177.909 471.377 177.935 471.428 177.986C471.479 178.037 471.514 178.126 471.533 178.252L471.617 179.358C471.86 178.863 472.158 178.478 472.513 178.203C472.872 177.923 473.292 177.783 473.773 177.783C473.969 177.783 474.146 177.806 474.305 177.853C474.464 177.895 474.611 177.956 474.746 178.035L474.585 178.966C474.552 179.083 474.48 179.141 474.368 179.141C474.303 179.141 474.202 179.12 474.067 179.078C473.932 179.031 473.743 179.008 473.5 179.008C473.066 179.008 472.702 179.134 472.408 179.386C472.119 179.638 471.876 180.004 471.68 180.485V185H470.434ZM481.029 185H480.476C480.354 185 480.256 184.981 480.182 184.944C480.107 184.907 480.058 184.827 480.035 184.706L479.895 184.048C479.708 184.216 479.526 184.368 479.349 184.503C479.171 184.634 478.985 184.746 478.789 184.839C478.593 184.928 478.383 184.995 478.159 185.042C477.939 185.089 477.694 185.112 477.424 185.112C477.148 185.112 476.889 185.075 476.647 185C476.409 184.921 476.201 184.804 476.024 184.65C475.846 184.496 475.704 184.302 475.597 184.069C475.494 183.831 475.443 183.551 475.443 183.229C475.443 182.949 475.52 182.681 475.674 182.424C475.828 182.163 476.075 181.932 476.416 181.731C476.761 181.53 477.211 181.367 477.767 181.241C478.322 181.11 479.001 181.036 479.804 181.017V180.464C479.804 179.913 479.685 179.498 479.447 179.218C479.213 178.933 478.866 178.791 478.404 178.791C478.1 178.791 477.844 178.831 477.634 178.91C477.428 178.985 477.249 179.071 477.095 179.169C476.945 179.262 476.815 179.349 476.703 179.428C476.595 179.503 476.488 179.54 476.381 179.54C476.297 179.54 476.222 179.519 476.157 179.477C476.096 179.43 476.047 179.374 476.01 179.309L475.786 178.91C476.178 178.532 476.6 178.25 477.053 178.063C477.505 177.876 478.007 177.783 478.558 177.783C478.954 177.783 479.307 177.848 479.615 177.979C479.923 178.11 480.182 178.292 480.392 178.525C480.602 178.758 480.76 179.041 480.868 179.372C480.975 179.703 481.029 180.067 481.029 180.464V185ZM477.795 184.237C478.014 184.237 478.215 184.216 478.397 184.174C478.579 184.127 478.749 184.064 478.908 183.985C479.071 183.901 479.225 183.801 479.37 183.684C479.519 183.567 479.664 183.434 479.804 183.285V181.808C479.23 181.827 478.742 181.873 478.341 181.948C477.939 182.018 477.613 182.111 477.361 182.228C477.109 182.345 476.924 182.482 476.808 182.641C476.696 182.8 476.64 182.977 476.64 183.173C476.64 183.36 476.67 183.521 476.731 183.656C476.791 183.791 476.873 183.903 476.976 183.992C477.078 184.076 477.2 184.139 477.34 184.181C477.48 184.218 477.631 184.237 477.795 184.237ZM487.178 183.859H491.518V185H485.82V174.969H487.178V183.859ZM495.439 177.797C495.957 177.797 496.424 177.883 496.839 178.056C497.259 178.229 497.614 178.474 497.903 178.791C498.197 179.108 498.421 179.493 498.575 179.946C498.734 180.394 498.813 180.896 498.813 181.451C498.813 182.011 498.734 182.515 498.575 182.963C498.421 183.411 498.197 183.794 497.903 184.111C497.614 184.428 497.259 184.673 496.839 184.846C496.424 185.014 495.957 185.098 495.439 185.098C494.921 185.098 494.452 185.014 494.032 184.846C493.617 184.673 493.262 184.428 492.968 184.111C492.674 183.794 492.448 183.411 492.289 182.963C492.13 182.515 492.051 182.011 492.051 181.451C492.051 180.896 492.13 180.394 492.289 179.946C492.448 179.493 492.674 179.108 492.968 178.791C493.262 178.474 493.617 178.229 494.032 178.056C494.452 177.883 494.921 177.797 495.439 177.797ZM495.439 184.125C496.139 184.125 496.662 183.892 497.007 183.425C497.352 182.954 497.525 182.298 497.525 181.458C497.525 180.613 497.352 179.955 497.007 179.484C496.662 179.013 496.139 178.777 495.439 178.777C495.084 178.777 494.776 178.838 494.515 178.959C494.254 179.08 494.034 179.255 493.857 179.484C493.684 179.713 493.554 179.995 493.465 180.331C493.381 180.662 493.339 181.038 493.339 181.458C493.339 181.878 493.381 182.254 493.465 182.585C493.554 182.916 493.684 183.196 493.857 183.425C494.034 183.649 494.254 183.822 494.515 183.943C494.776 184.064 495.084 184.125 495.439 184.125ZM500.348 185V177.909H501.09C501.268 177.909 501.38 177.995 501.426 178.168L501.524 178.938C501.832 178.597 502.175 178.322 502.553 178.112C502.936 177.902 503.377 177.797 503.876 177.797C504.264 177.797 504.604 177.862 504.898 177.993C505.197 178.119 505.444 178.301 505.64 178.539C505.841 178.772 505.993 179.055 506.095 179.386C506.198 179.717 506.249 180.084 506.249 180.485V185H505.003V180.485C505.003 179.948 504.88 179.533 504.632 179.239C504.39 178.94 504.016 178.791 503.512 178.791C503.144 178.791 502.798 178.88 502.476 179.057C502.159 179.234 501.865 179.475 501.594 179.778V185H500.348ZM510.514 177.79C510.822 177.79 511.109 177.825 511.375 177.895C511.646 177.96 511.891 178.058 512.11 178.189H514.035V178.651C514.035 178.805 513.937 178.903 513.741 178.945L512.936 179.057C513.095 179.36 513.174 179.699 513.174 180.072C513.174 180.417 513.107 180.732 512.971 181.017C512.841 181.297 512.656 181.537 512.418 181.738C512.185 181.939 511.905 182.093 511.578 182.2C511.256 182.307 510.902 182.361 510.514 182.361C510.183 182.361 509.87 182.321 509.576 182.242C509.427 182.335 509.313 182.436 509.233 182.543C509.159 182.65 509.121 182.755 509.121 182.858C509.121 183.026 509.189 183.154 509.324 183.243C509.46 183.327 509.639 183.388 509.863 183.425C510.087 183.462 510.342 183.486 510.626 183.495C510.911 183.504 511.2 183.521 511.494 183.544C511.793 183.563 512.085 183.598 512.369 183.649C512.654 183.7 512.908 183.784 513.132 183.901C513.356 184.018 513.536 184.179 513.671 184.384C513.807 184.589 513.874 184.855 513.874 185.182C513.874 185.485 513.797 185.779 513.643 186.064C513.494 186.349 513.277 186.601 512.992 186.82C512.708 187.044 512.36 187.221 511.949 187.352C511.539 187.487 511.074 187.555 510.556 187.555C510.038 187.555 509.583 187.504 509.191 187.401C508.804 187.298 508.482 187.161 508.225 186.988C507.969 186.815 507.775 186.615 507.644 186.386C507.518 186.162 507.455 185.926 507.455 185.679C507.455 185.329 507.565 185.033 507.784 184.79C508.008 184.543 508.314 184.347 508.701 184.202C508.501 184.109 508.34 183.985 508.218 183.831C508.102 183.672 508.043 183.462 508.043 183.201C508.043 183.098 508.062 182.993 508.099 182.886C508.137 182.774 508.193 182.664 508.267 182.557C508.347 182.45 508.442 182.347 508.554 182.249C508.666 182.151 508.797 182.065 508.946 181.99C508.596 181.794 508.321 181.535 508.12 181.213C507.924 180.886 507.826 180.506 507.826 180.072C507.826 179.727 507.892 179.414 508.022 179.134C508.158 178.849 508.344 178.609 508.582 178.413C508.82 178.212 509.103 178.058 509.429 177.951C509.761 177.844 510.122 177.79 510.514 177.79ZM512.726 185.385C512.726 185.208 512.677 185.065 512.579 184.958C512.481 184.851 512.348 184.769 512.18 184.713C512.012 184.652 511.819 184.608 511.599 184.58C511.38 184.552 511.149 184.533 510.906 184.524C510.664 184.51 510.416 184.496 510.164 184.482C509.912 184.468 509.672 184.442 509.443 184.405C509.177 184.531 508.96 184.685 508.792 184.867C508.629 185.049 508.547 185.266 508.547 185.518C508.547 185.677 508.587 185.824 508.666 185.959C508.75 186.099 508.876 186.218 509.044 186.316C509.212 186.419 509.422 186.498 509.674 186.554C509.931 186.615 510.232 186.645 510.577 186.645C510.913 186.645 511.214 186.615 511.48 186.554C511.746 186.493 511.97 186.407 512.152 186.295C512.339 186.183 512.481 186.05 512.579 185.896C512.677 185.742 512.726 185.572 512.726 185.385ZM510.514 181.535C510.766 181.535 510.988 181.5 511.179 181.43C511.375 181.36 511.539 181.262 511.669 181.136C511.8 181.01 511.898 180.861 511.963 180.688C512.029 180.511 512.061 180.317 512.061 180.107C512.061 179.673 511.928 179.328 511.662 179.071C511.401 178.814 511.018 178.686 510.514 178.686C510.015 178.686 509.632 178.814 509.366 179.071C509.105 179.328 508.974 179.673 508.974 180.107C508.974 180.317 509.007 180.511 509.072 180.688C509.142 180.861 509.243 181.01 509.373 181.136C509.504 181.262 509.665 181.36 509.856 181.43C510.048 181.5 510.267 181.535 510.514 181.535ZM519.672 181.248V185H518.321V174.969H521.282C521.917 174.969 522.467 175.044 522.934 175.193C523.405 175.338 523.795 175.545 524.103 175.816C524.411 176.087 524.64 176.413 524.789 176.796C524.943 177.179 525.02 177.606 525.02 178.077C525.02 178.544 524.938 178.971 524.775 179.358C524.612 179.745 524.371 180.079 524.054 180.359C523.741 180.639 523.352 180.858 522.885 181.017C522.418 181.171 521.884 181.248 521.282 181.248H519.672ZM519.672 180.17H521.282C521.669 180.17 522.01 180.119 522.304 180.016C522.603 179.913 522.852 179.771 523.053 179.589C523.254 179.402 523.405 179.181 523.508 178.924C523.611 178.667 523.662 178.385 523.662 178.077C523.662 177.438 523.464 176.938 523.067 176.579C522.675 176.22 522.08 176.04 521.282 176.04H519.672V180.17ZM527.929 174.689V185H526.683V174.689H527.929ZM535.334 185H534.781C534.659 185 534.561 184.981 534.487 184.944C534.412 184.907 534.363 184.827 534.34 184.706L534.2 184.048C534.013 184.216 533.831 184.368 533.654 184.503C533.476 184.634 533.29 184.746 533.094 184.839C532.898 184.928 532.688 184.995 532.464 185.042C532.244 185.089 531.999 185.112 531.729 185.112C531.453 185.112 531.194 185.075 530.952 185C530.714 184.921 530.506 184.804 530.329 184.65C530.151 184.496 530.009 184.302 529.902 184.069C529.799 183.831 529.748 183.551 529.748 183.229C529.748 182.949 529.825 182.681 529.979 182.424C530.133 182.163 530.38 181.932 530.721 181.731C531.066 181.53 531.516 181.367 532.072 181.241C532.627 181.11 533.306 181.036 534.109 181.017V180.464C534.109 179.913 533.99 179.498 533.752 179.218C533.518 178.933 533.171 178.791 532.709 178.791C532.405 178.791 532.149 178.831 531.939 178.91C531.733 178.985 531.554 179.071 531.4 179.169C531.25 179.262 531.12 179.349 531.008 179.428C530.9 179.503 530.793 179.54 530.686 179.54C530.602 179.54 530.527 179.519 530.462 179.477C530.401 179.43 530.352 179.374 530.315 179.309L530.091 178.91C530.483 178.532 530.905 178.25 531.358 178.063C531.81 177.876 532.312 177.783 532.863 177.783C533.259 177.783 533.612 177.848 533.92 177.979C534.228 178.11 534.487 178.292 534.697 178.525C534.907 178.758 535.065 179.041 535.173 179.372C535.28 179.703 535.334 180.067 535.334 180.464V185ZM532.1 184.237C532.319 184.237 532.52 184.216 532.702 184.174C532.884 184.127 533.054 184.064 533.213 183.985C533.376 183.901 533.53 183.801 533.675 183.684C533.824 183.567 533.969 183.434 534.109 183.285V181.808C533.535 181.827 533.047 181.873 532.646 181.948C532.244 182.018 531.918 182.111 531.666 182.228C531.414 182.345 531.229 182.482 531.113 182.641C531.001 182.8 530.945 182.977 530.945 183.173C530.945 183.36 530.975 183.521 531.036 183.656C531.096 183.791 531.178 183.903 531.281 183.992C531.383 184.076 531.505 184.139 531.645 184.181C531.785 184.218 531.936 184.237 532.1 184.237ZM542.058 179.169C542.021 179.22 541.984 179.26 541.946 179.288C541.909 179.316 541.855 179.33 541.785 179.33C541.715 179.33 541.638 179.302 541.554 179.246C541.475 179.185 541.372 179.12 541.246 179.05C541.12 178.98 540.966 178.917 540.784 178.861C540.607 178.8 540.388 178.77 540.126 178.77C539.781 178.77 539.475 178.833 539.209 178.959C538.943 179.08 538.719 179.258 538.537 179.491C538.36 179.724 538.225 180.007 538.131 180.338C538.043 180.669 537.998 181.04 537.998 181.451C537.998 181.88 538.047 182.263 538.145 182.599C538.243 182.93 538.381 183.21 538.558 183.439C538.736 183.663 538.95 183.836 539.202 183.957C539.459 184.074 539.746 184.132 540.063 184.132C540.367 184.132 540.616 184.097 540.812 184.027C541.008 183.952 541.172 183.871 541.302 183.782C541.433 183.693 541.54 183.614 541.624 183.544C541.708 183.469 541.792 183.432 541.876 183.432C541.984 183.432 542.063 183.472 542.114 183.551L542.464 184.006C542.156 184.384 541.771 184.662 541.309 184.839C540.847 185.012 540.36 185.098 539.846 185.098C539.403 185.098 538.99 185.016 538.607 184.853C538.229 184.69 537.9 184.454 537.62 184.146C537.34 183.833 537.119 183.451 536.955 182.998C536.797 182.545 536.717 182.03 536.717 181.451C536.717 180.924 536.79 180.436 536.934 179.988C537.084 179.54 537.298 179.155 537.578 178.833C537.863 178.506 538.213 178.252 538.628 178.07C539.044 177.888 539.52 177.797 540.056 177.797C540.551 177.797 540.99 177.879 541.372 178.042C541.755 178.201 542.093 178.427 542.387 178.721L542.058 179.169ZM546.563 177.797C546.988 177.797 547.38 177.869 547.739 178.014C548.099 178.154 548.409 178.359 548.67 178.63C548.932 178.896 549.135 179.227 549.279 179.624C549.429 180.016 549.503 180.464 549.503 180.968C549.503 181.164 549.482 181.295 549.44 181.36C549.398 181.425 549.319 181.458 549.202 181.458H544.484C544.494 181.906 544.554 182.296 544.666 182.627C544.778 182.958 544.932 183.236 545.128 183.46C545.324 183.679 545.558 183.845 545.828 183.957C546.099 184.064 546.402 184.118 546.738 184.118C547.051 184.118 547.319 184.083 547.543 184.013C547.772 183.938 547.968 183.859 548.131 183.775C548.295 183.691 548.43 183.614 548.537 183.544C548.649 183.469 548.745 183.432 548.824 183.432C548.927 183.432 549.006 183.472 549.062 183.551L549.412 184.006C549.258 184.193 549.074 184.356 548.859 184.496C548.645 184.631 548.414 184.743 548.166 184.832C547.924 184.921 547.672 184.986 547.41 185.028C547.149 185.075 546.89 185.098 546.633 185.098C546.143 185.098 545.691 185.016 545.275 184.853C544.865 184.685 544.508 184.442 544.204 184.125C543.906 183.803 543.672 183.406 543.504 182.935C543.336 182.464 543.252 181.922 543.252 181.311C543.252 180.816 543.327 180.354 543.476 179.925C543.63 179.496 543.85 179.125 544.134 178.812C544.419 178.495 544.767 178.247 545.177 178.07C545.588 177.888 546.05 177.797 546.563 177.797ZM546.591 178.714C545.989 178.714 545.516 178.889 545.17 179.239C544.825 179.584 544.61 180.065 544.526 180.681H548.383C548.383 180.392 548.344 180.128 548.264 179.89C548.185 179.647 548.068 179.44 547.914 179.267C547.76 179.09 547.571 178.954 547.347 178.861C547.128 178.763 546.876 178.714 546.591 178.714ZM551.098 185V174.689H552.344V178.861C552.648 178.539 552.984 178.282 553.352 178.091C553.721 177.895 554.146 177.797 554.626 177.797C555.014 177.797 555.354 177.862 555.648 177.993C555.947 178.119 556.194 178.301 556.39 178.539C556.591 178.772 556.743 179.055 556.845 179.386C556.948 179.717 556.999 180.084 556.999 180.485V185H555.753V180.485C555.753 179.948 555.63 179.533 555.382 179.239C555.14 178.94 554.766 178.791 554.262 178.791C553.894 178.791 553.548 178.88 553.226 179.057C552.909 179.234 552.615 179.475 552.344 179.778V185H551.098ZM561.747 177.797C562.265 177.797 562.732 177.883 563.147 178.056C563.567 178.229 563.922 178.474 564.211 178.791C564.505 179.108 564.729 179.493 564.883 179.946C565.042 180.394 565.121 180.896 565.121 181.451C565.121 182.011 565.042 182.515 564.883 182.963C564.729 183.411 564.505 183.794 564.211 184.111C563.922 184.428 563.567 184.673 563.147 184.846C562.732 185.014 562.265 185.098 561.747 185.098C561.229 185.098 560.76 185.014 560.34 184.846C559.925 184.673 559.57 184.428 559.276 184.111C558.982 183.794 558.756 183.411 558.597 182.963C558.439 182.515 558.359 182.011 558.359 181.451C558.359 180.896 558.439 180.394 558.597 179.946C558.756 179.493 558.982 179.108 559.276 178.791C559.57 178.474 559.925 178.229 560.34 178.056C560.76 177.883 561.229 177.797 561.747 177.797ZM561.747 184.125C562.447 184.125 562.97 183.892 563.315 183.425C563.661 182.954 563.833 182.298 563.833 181.458C563.833 180.613 563.661 179.955 563.315 179.484C562.97 179.013 562.447 178.777 561.747 178.777C561.393 178.777 561.085 178.838 560.823 178.959C560.562 179.08 560.343 179.255 560.165 179.484C559.993 179.713 559.862 179.995 559.773 180.331C559.689 180.662 559.647 181.038 559.647 181.458C559.647 181.878 559.689 182.254 559.773 182.585C559.862 182.916 559.993 183.196 560.165 183.425C560.343 183.649 560.562 183.822 560.823 183.943C561.085 184.064 561.393 184.125 561.747 184.125ZM568.043 174.689V185H566.797V174.689H568.043ZM575.23 185C575.052 185 574.94 184.914 574.894 184.741L574.782 183.88C574.478 184.249 574.131 184.545 573.739 184.769C573.351 184.988 572.906 185.098 572.402 185.098C571.996 185.098 571.627 185.021 571.296 184.867C570.964 184.708 570.682 184.477 570.449 184.174C570.215 183.871 570.036 183.493 569.91 183.04C569.784 182.587 569.721 182.067 569.721 181.479C569.721 180.956 569.791 180.471 569.931 180.023C570.071 179.57 570.271 179.178 570.533 178.847C570.799 178.516 571.121 178.257 571.499 178.07C571.877 177.879 572.306 177.783 572.787 177.783C573.221 177.783 573.592 177.858 573.9 178.007C574.208 178.152 574.483 178.357 574.726 178.623V174.689H575.972V185H575.23ZM572.815 184.09C573.221 184.09 573.575 183.997 573.879 183.81C574.187 183.623 574.469 183.36 574.726 183.019V179.589C574.497 179.281 574.245 179.066 573.97 178.945C573.699 178.819 573.398 178.756 573.067 178.756C572.404 178.756 571.895 178.992 571.541 179.463C571.186 179.934 571.009 180.606 571.009 181.479C571.009 181.941 571.048 182.338 571.128 182.669C571.207 182.996 571.324 183.266 571.478 183.481C571.632 183.691 571.821 183.845 572.045 183.943C572.269 184.041 572.525 184.09 572.815 184.09ZM580.866 177.797C581.291 177.797 581.683 177.869 582.042 178.014C582.401 178.154 582.712 178.359 582.973 178.63C583.234 178.896 583.437 179.227 583.582 179.624C583.731 180.016 583.806 180.464 583.806 180.968C583.806 181.164 583.785 181.295 583.743 181.36C583.701 181.425 583.622 181.458 583.505 181.458H578.787C578.796 181.906 578.857 182.296 578.969 182.627C579.081 182.958 579.235 183.236 579.431 183.46C579.627 183.679 579.86 183.845 580.131 183.957C580.402 184.064 580.705 184.118 581.041 184.118C581.354 184.118 581.622 184.083 581.846 184.013C582.075 183.938 582.271 183.859 582.434 183.775C582.597 183.691 582.733 183.614 582.84 183.544C582.952 183.469 583.048 183.432 583.127 183.432C583.23 183.432 583.309 183.472 583.365 183.551L583.715 184.006C583.561 184.193 583.377 184.356 583.162 184.496C582.947 184.631 582.716 184.743 582.469 184.832C582.226 184.921 581.974 184.986 581.713 185.028C581.452 185.075 581.193 185.098 580.936 185.098C580.446 185.098 579.993 185.016 579.578 184.853C579.167 184.685 578.81 184.442 578.507 184.125C578.208 183.803 577.975 183.406 577.807 182.935C577.639 182.464 577.555 181.922 577.555 181.311C577.555 180.816 577.63 180.354 577.779 179.925C577.933 179.496 578.152 179.125 578.437 178.812C578.722 178.495 579.069 178.247 579.48 178.07C579.891 177.888 580.353 177.797 580.866 177.797ZM580.894 178.714C580.292 178.714 579.818 178.889 579.473 179.239C579.128 179.584 578.913 180.065 578.829 180.681H582.686C582.686 180.392 582.646 180.128 582.567 179.89C582.488 179.647 582.371 179.44 582.217 179.267C582.063 179.09 581.874 178.954 581.65 178.861C581.431 178.763 581.179 178.714 580.894 178.714ZM585.401 185V177.909H586.115C586.25 177.909 586.344 177.935 586.395 177.986C586.446 178.037 586.481 178.126 586.5 178.252L586.584 179.358C586.827 178.863 587.125 178.478 587.48 178.203C587.839 177.923 588.259 177.783 588.74 177.783C588.936 177.783 589.113 177.806 589.272 177.853C589.431 177.895 589.578 177.956 589.713 178.035L589.552 178.966C589.519 179.083 589.447 179.141 589.335 179.141C589.27 179.141 589.169 179.12 589.034 179.078C588.899 179.031 588.71 179.008 588.467 179.008C588.033 179.008 587.669 179.134 587.375 179.386C587.086 179.638 586.843 180.004 586.647 180.485V185H585.401ZM596.939 174.857C597.364 174.857 597.761 174.92 598.129 175.046C598.498 175.172 598.815 175.356 599.081 175.599C599.352 175.837 599.564 176.129 599.718 176.474C599.872 176.819 599.949 177.211 599.949 177.65C599.949 178.023 599.893 178.369 599.781 178.686C599.669 179.003 599.518 179.309 599.326 179.603C599.135 179.892 598.913 180.175 598.661 180.45C598.414 180.721 598.15 180.998 597.87 181.283L595.231 183.985C595.418 183.934 595.607 183.894 595.798 183.866C595.99 183.833 596.174 183.817 596.351 183.817H599.711C599.847 183.817 599.954 183.857 600.033 183.936C600.113 184.015 600.152 184.118 600.152 184.244V185H593.46V184.573C593.46 184.484 593.477 184.393 593.509 184.3C593.547 184.207 593.605 184.12 593.684 184.041L596.897 180.814C597.163 180.543 597.406 180.284 597.625 180.037C597.845 179.785 598.031 179.533 598.185 179.281C598.344 179.029 598.465 178.775 598.549 178.518C598.633 178.257 598.675 177.979 598.675 177.685C598.675 177.391 598.629 177.134 598.535 176.915C598.442 176.691 598.314 176.507 598.15 176.362C597.987 176.217 597.796 176.11 597.576 176.04C597.357 175.965 597.121 175.928 596.869 175.928C596.617 175.928 596.384 175.965 596.169 176.04C595.955 176.115 595.763 176.22 595.595 176.355C595.432 176.486 595.292 176.642 595.175 176.824C595.063 177.006 594.984 177.207 594.937 177.426C594.9 177.561 594.844 177.659 594.769 177.72C594.695 177.781 594.597 177.811 594.475 177.811C594.452 177.811 594.426 177.811 594.398 177.811C594.375 177.806 594.347 177.802 594.314 177.797L593.663 177.685C593.729 177.228 593.855 176.824 594.041 176.474C594.228 176.119 594.464 175.823 594.748 175.585C595.038 175.347 595.367 175.167 595.735 175.046C596.109 174.92 596.51 174.857 596.939 174.857ZM608.554 179.988C608.554 180.865 608.458 181.626 608.267 182.27C608.08 182.909 607.823 183.439 607.497 183.859C607.17 184.279 606.783 184.592 606.335 184.797C605.891 185.002 605.415 185.105 604.907 185.105C604.393 185.105 603.915 185.002 603.472 184.797C603.033 184.592 602.65 184.279 602.324 183.859C601.997 183.439 601.74 182.909 601.554 182.27C601.367 181.626 601.274 180.865 601.274 179.988C601.274 179.111 601.367 178.35 601.554 177.706C601.74 177.062 601.997 176.53 602.324 176.11C602.65 175.685 603.033 175.37 603.472 175.165C603.915 174.96 604.393 174.857 604.907 174.857C605.415 174.857 605.891 174.96 606.335 175.165C606.783 175.37 607.17 175.685 607.497 176.11C607.823 176.53 608.08 177.062 608.267 177.706C608.458 178.35 608.554 179.111 608.554 179.988ZM607.259 179.988C607.259 179.223 607.193 178.581 607.063 178.063C606.937 177.54 606.764 177.12 606.545 176.803C606.33 176.486 606.08 176.259 605.796 176.124C605.511 175.984 605.215 175.914 604.907 175.914C604.599 175.914 604.302 175.984 604.018 176.124C603.733 176.259 603.483 176.486 603.269 176.803C603.054 177.12 602.881 177.54 602.751 178.063C602.625 178.581 602.562 179.223 602.562 179.988C602.562 180.753 602.625 181.395 602.751 181.913C602.881 182.431 603.054 182.849 603.269 183.166C603.483 183.483 603.733 183.712 604.018 183.852C604.302 183.987 604.599 184.055 604.907 184.055C605.215 184.055 605.511 183.987 605.796 183.852C606.08 183.712 606.33 183.483 606.545 183.166C606.764 182.849 606.937 182.431 607.063 181.913C607.193 181.395 607.259 180.753 607.259 179.988ZM616.675 179.988C616.675 180.865 616.579 181.626 616.388 182.27C616.201 182.909 615.944 183.439 615.618 183.859C615.291 184.279 614.904 184.592 614.456 184.797C614.012 185.002 613.536 185.105 613.028 185.105C612.514 185.105 612.036 185.002 611.593 184.797C611.154 184.592 610.771 184.279 610.445 183.859C610.118 183.439 609.861 182.909 609.675 182.27C609.488 181.626 609.395 180.865 609.395 179.988C609.395 179.111 609.488 178.35 609.675 177.706C609.861 177.062 610.118 176.53 610.445 176.11C610.771 175.685 611.154 175.37 611.593 175.165C612.036 174.96 612.514 174.857 613.028 174.857C613.536 174.857 614.012 174.96 614.456 175.165C614.904 175.37 615.291 175.685 615.618 176.11C615.944 176.53 616.201 177.062 616.388 177.706C616.579 178.35 616.675 179.111 616.675 179.988ZM615.38 179.988C615.38 179.223 615.314 178.581 615.184 178.063C615.058 177.54 614.885 177.12 614.666 176.803C614.451 176.486 614.201 176.259 613.917 176.124C613.632 175.984 613.336 175.914 613.028 175.914C612.72 175.914 612.423 175.984 612.139 176.124C611.854 176.259 611.604 176.486 611.39 176.803C611.175 177.12 611.002 177.54 610.872 178.063C610.746 178.581 610.683 179.223 610.683 179.988C610.683 180.753 610.746 181.395 610.872 181.913C611.002 182.431 611.175 182.849 611.39 183.166C611.604 183.483 611.854 183.712 612.139 183.852C612.423 183.987 612.72 184.055 613.028 184.055C613.336 184.055 613.632 183.987 613.917 183.852C614.201 183.712 614.451 183.483 614.666 183.166C614.885 182.849 615.058 182.431 615.184 181.913C615.314 181.395 615.38 180.753 615.38 179.988ZM618.118 187.401V177.909H618.86C619.037 177.909 619.149 177.995 619.196 178.168L619.301 179.008C619.604 178.639 619.949 178.343 620.337 178.119C620.729 177.895 621.179 177.783 621.688 177.783C622.094 177.783 622.462 177.862 622.794 178.021C623.125 178.175 623.407 178.406 623.641 178.714C623.874 179.017 624.054 179.395 624.18 179.848C624.306 180.301 624.369 180.821 624.369 181.409C624.369 181.932 624.299 182.419 624.159 182.872C624.019 183.32 623.818 183.71 623.557 184.041C623.295 184.368 622.973 184.627 622.591 184.818C622.213 185.005 621.786 185.098 621.31 185.098C620.871 185.098 620.495 185.026 620.183 184.881C619.875 184.736 619.602 184.531 619.364 184.265V187.401H618.118ZM621.275 178.791C620.869 178.791 620.512 178.884 620.204 179.071C619.9 179.258 619.62 179.521 619.364 179.862V183.292C619.592 183.6 619.842 183.817 620.113 183.943C620.388 184.069 620.694 184.132 621.03 184.132C621.688 184.132 622.194 183.896 622.549 183.425C622.903 182.954 623.081 182.282 623.081 181.409C623.081 180.947 623.039 180.55 622.955 180.219C622.875 179.888 622.759 179.617 622.605 179.407C622.451 179.192 622.262 179.036 622.038 178.938C621.814 178.84 621.559 178.791 621.275 178.791ZM627.077 181.367L624.69 177.909H625.887C625.99 177.909 626.065 177.925 626.111 177.958C626.158 177.991 626.2 178.037 626.237 178.098L627.973 180.758C628.015 180.627 628.076 180.497 628.155 180.366L629.681 178.126C629.728 178.061 629.775 178.009 629.821 177.972C629.868 177.93 629.926 177.909 629.996 177.909H631.144L628.757 181.297L631.242 185H630.045C629.943 185 629.861 184.974 629.8 184.923C629.744 184.867 629.698 184.806 629.66 184.741L627.875 181.962C627.843 182.097 627.794 182.219 627.728 182.326L626.076 184.741C626.03 184.806 625.978 184.867 625.922 184.923C625.871 184.974 625.799 185 625.705 185H624.592L627.077 181.367Z" fill="#6E737A"/>
<path d="M664.41 175.59L669 180.17L673.59 175.59L675 177L669 183L663 177L664.41 175.59Z" fill="#9B9B9B"/>
<rect x="433.5" y="161.5" width="255" height="35" rx="3.5" stroke="#A7ABB1"/>
<g filter="url(#filter1_d)">
<path d="M662 373C662 370.791 663.791 369 666 369H720C722.209 369 724 370.791 724 373V401C724 403.209 722.209 405 720 405H666C663.791 405 662 403.209 662 401V373Z" fill="#279FF6"/>
<path d="M684.447 384.219C684.396 384.322 684.335 384.394 684.265 384.436C684.2 384.478 684.12 384.499 684.027 384.499C683.934 384.499 683.829 384.464 683.712 384.394C683.595 384.319 683.458 384.238 683.299 384.149C683.14 384.06 682.954 383.981 682.739 383.911C682.529 383.836 682.279 383.799 681.99 383.799C681.729 383.799 681.5 383.832 681.304 383.897C681.113 383.958 680.949 384.044 680.814 384.156C680.683 384.268 680.585 384.403 680.52 384.562C680.455 384.716 680.422 384.886 680.422 385.073C680.422 385.311 680.487 385.509 680.618 385.668C680.753 385.827 680.931 385.962 681.15 386.074C681.369 386.186 681.619 386.286 681.899 386.375C682.179 386.464 682.464 386.559 682.753 386.662C683.047 386.76 683.334 386.877 683.614 387.012C683.894 387.143 684.144 387.311 684.363 387.516C684.582 387.717 684.757 387.964 684.888 388.258C685.023 388.552 685.091 388.909 685.091 389.329C685.091 389.786 685.012 390.216 684.853 390.617C684.699 391.014 684.47 391.361 684.167 391.66C683.868 391.954 683.502 392.187 683.068 392.36C682.634 392.528 682.137 392.612 681.577 392.612C681.255 392.612 680.938 392.579 680.625 392.514C680.312 392.453 680.011 392.365 679.722 392.248C679.437 392.131 679.169 391.991 678.917 391.828C678.67 391.665 678.448 391.483 678.252 391.282L678.798 390.379C678.849 390.314 678.91 390.26 678.98 390.218C679.055 390.171 679.136 390.148 679.225 390.148C679.342 390.148 679.468 390.197 679.603 390.295C679.738 390.388 679.897 390.493 680.079 390.61C680.266 390.727 680.483 390.834 680.73 390.932C680.982 391.025 681.283 391.072 681.633 391.072C682.17 391.072 682.585 390.946 682.879 390.694C683.173 390.437 683.32 390.071 683.32 389.595C683.32 389.329 683.252 389.112 683.117 388.944C682.986 388.776 682.811 388.636 682.592 388.524C682.373 388.407 682.123 388.309 681.843 388.23C681.563 388.151 681.278 388.064 680.989 387.971C680.7 387.878 680.415 387.766 680.135 387.635C679.855 387.504 679.605 387.334 679.386 387.124C679.167 386.914 678.989 386.653 678.854 386.34C678.723 386.023 678.658 385.633 678.658 385.171C678.658 384.802 678.73 384.443 678.875 384.093C679.024 383.743 679.239 383.433 679.519 383.162C679.804 382.891 680.151 382.674 680.562 382.511C680.973 382.348 681.442 382.266 681.969 382.266C682.566 382.266 683.117 382.359 683.621 382.546C684.125 382.733 684.554 382.994 684.909 383.33L684.447 384.219ZM692.058 392.5H691.281C691.118 392.5 690.989 392.477 690.896 392.43C690.803 392.379 690.733 392.278 690.686 392.129L690.532 391.618C690.35 391.781 690.17 391.926 689.993 392.052C689.82 392.173 689.641 392.276 689.454 392.36C689.267 392.444 689.069 392.507 688.859 392.549C688.649 392.591 688.416 392.612 688.159 392.612C687.856 392.612 687.576 392.572 687.319 392.493C687.062 392.409 686.841 392.285 686.654 392.122C686.472 391.959 686.33 391.756 686.227 391.513C686.124 391.27 686.073 390.988 686.073 390.666C686.073 390.395 686.143 390.129 686.283 389.868C686.428 389.602 686.666 389.364 686.997 389.154C687.328 388.939 687.769 388.762 688.32 388.622C688.871 388.482 689.554 388.403 690.371 388.384V387.964C690.371 387.483 690.268 387.129 690.063 386.9C689.862 386.667 689.568 386.55 689.181 386.55C688.901 386.55 688.668 386.583 688.481 386.648C688.294 386.713 688.131 386.788 687.991 386.872C687.856 386.951 687.73 387.024 687.613 387.089C687.496 387.154 687.368 387.187 687.228 387.187C687.111 387.187 687.011 387.157 686.927 387.096C686.843 387.035 686.775 386.961 686.724 386.872L686.409 386.319C687.235 385.563 688.231 385.185 689.398 385.185C689.818 385.185 690.191 385.255 690.518 385.395C690.849 385.53 691.129 385.722 691.358 385.969C691.587 386.212 691.759 386.503 691.876 386.844C691.997 387.185 692.058 387.558 692.058 387.964V392.5ZM688.698 391.422C688.875 391.422 689.039 391.406 689.188 391.373C689.337 391.34 689.477 391.291 689.608 391.226C689.743 391.161 689.872 391.081 689.993 390.988C690.119 390.89 690.245 390.776 690.371 390.645V389.434C689.867 389.457 689.445 389.502 689.104 389.567C688.768 389.628 688.497 389.707 688.292 389.805C688.087 389.903 687.94 390.017 687.851 390.148C687.767 390.279 687.725 390.421 687.725 390.575C687.725 390.878 687.814 391.095 687.991 391.226C688.173 391.357 688.409 391.422 688.698 391.422ZM697.11 392.5H695.542L692.686 385.318H694.121C694.247 385.318 694.352 385.348 694.436 385.409C694.525 385.47 694.585 385.547 694.618 385.64L696.004 389.476C696.083 389.7 696.149 389.919 696.2 390.134C696.256 390.349 696.305 390.563 696.347 390.778C696.389 390.563 696.436 390.349 696.487 390.134C696.543 389.919 696.613 389.7 696.697 389.476L698.118 385.64C698.151 385.547 698.209 385.47 698.293 385.409C698.377 385.348 698.477 385.318 698.594 385.318H699.959L697.11 392.5ZM703.712 385.206C704.165 385.206 704.58 385.278 704.958 385.423C705.341 385.568 705.67 385.78 705.945 386.06C706.221 386.335 706.435 386.676 706.589 387.082C706.743 387.483 706.82 387.943 706.82 388.461C706.82 388.592 706.813 388.701 706.799 388.79C706.79 388.874 706.769 388.942 706.736 388.993C706.708 389.04 706.669 389.075 706.617 389.098C706.566 389.117 706.501 389.126 706.421 389.126H701.983C702.035 389.863 702.233 390.405 702.578 390.75C702.924 391.095 703.381 391.268 703.95 391.268C704.23 391.268 704.471 391.235 704.671 391.17C704.877 391.105 705.054 391.032 705.203 390.953C705.357 390.874 705.49 390.801 705.602 390.736C705.719 390.671 705.831 390.638 705.938 390.638C706.008 390.638 706.069 390.652 706.12 390.68C706.172 390.708 706.216 390.748 706.253 390.799L706.757 391.429C706.566 391.653 706.351 391.842 706.113 391.996C705.875 392.145 705.626 392.267 705.364 392.36C705.108 392.449 704.844 392.512 704.573 392.549C704.307 392.586 704.048 392.605 703.796 392.605C703.297 392.605 702.833 392.523 702.403 392.36C701.974 392.192 701.601 391.947 701.283 391.625C700.966 391.298 700.716 390.897 700.534 390.421C700.352 389.94 700.261 389.385 700.261 388.755C700.261 388.265 700.341 387.805 700.499 387.376C700.658 386.942 700.884 386.566 701.178 386.249C701.477 385.927 701.839 385.673 702.263 385.486C702.693 385.299 703.176 385.206 703.712 385.206ZM703.747 386.445C703.243 386.445 702.849 386.587 702.564 386.872C702.28 387.157 702.098 387.56 702.018 388.083H705.266C705.266 387.859 705.236 387.649 705.175 387.453C705.115 387.252 705.021 387.077 704.895 386.928C704.769 386.779 704.611 386.662 704.419 386.578C704.228 386.489 704.004 386.445 703.747 386.445Z" fill="white"/>
</g>
<path d="M594.98 390.113C595.083 390.113 595.171 390.153 595.246 390.232L595.988 391.037C595.577 391.546 595.071 391.935 594.469 392.206C593.872 392.477 593.153 392.612 592.313 392.612C591.562 392.612 590.885 392.484 590.283 392.227C589.686 391.97 589.175 391.613 588.75 391.156C588.325 390.699 587.999 390.153 587.77 389.518C587.546 388.883 587.434 388.19 587.434 387.439C587.434 386.678 587.56 385.983 587.812 385.353C588.064 384.718 588.419 384.172 588.876 383.715C589.333 383.258 589.879 382.903 590.514 382.651C591.153 382.394 591.858 382.266 592.628 382.266C593.379 382.266 594.035 382.387 594.595 382.63C595.16 382.868 595.643 383.185 596.044 383.582L595.414 384.457C595.377 384.513 595.328 384.562 595.267 384.604C595.211 384.646 595.132 384.667 595.029 384.667C594.922 384.667 594.812 384.625 594.7 384.541C594.588 384.457 594.446 384.366 594.273 384.268C594.1 384.17 593.881 384.079 593.615 383.995C593.354 383.911 593.02 383.869 592.614 383.869C592.138 383.869 591.699 383.953 591.298 384.121C590.901 384.284 590.558 384.52 590.269 384.828C589.984 385.136 589.76 385.512 589.597 385.955C589.438 386.394 589.359 386.888 589.359 387.439C589.359 388.008 589.438 388.515 589.597 388.958C589.76 389.401 589.98 389.775 590.255 390.078C590.53 390.381 590.855 390.615 591.228 390.778C591.601 390.937 592.003 391.016 592.432 391.016C592.689 391.016 592.92 391.002 593.125 390.974C593.335 390.946 593.526 390.902 593.699 390.841C593.876 390.78 594.042 390.703 594.196 390.61C594.355 390.512 594.511 390.393 594.665 390.253C594.712 390.211 594.761 390.178 594.812 390.155C594.863 390.127 594.919 390.113 594.98 390.113ZM602.945 392.5H602.168C602.004 392.5 601.876 392.477 601.783 392.43C601.689 392.379 601.619 392.278 601.573 392.129L601.419 391.618C601.237 391.781 601.057 391.926 600.88 392.052C600.707 392.173 600.527 392.276 600.341 392.36C600.154 392.444 599.956 392.507 599.746 392.549C599.536 392.591 599.302 392.612 599.046 392.612C598.742 392.612 598.462 392.572 598.206 392.493C597.949 392.409 597.727 392.285 597.541 392.122C597.359 391.959 597.216 391.756 597.114 391.513C597.011 391.27 596.96 390.988 596.96 390.666C596.96 390.395 597.03 390.129 597.17 389.868C597.314 389.602 597.552 389.364 597.884 389.154C598.215 388.939 598.656 388.762 599.207 388.622C599.757 388.482 600.441 388.403 601.258 388.384V387.964C601.258 387.483 601.155 387.129 600.95 386.9C600.749 386.667 600.455 386.55 600.068 386.55C599.788 386.55 599.554 386.583 599.368 386.648C599.181 386.713 599.018 386.788 598.878 386.872C598.742 386.951 598.616 387.024 598.5 387.089C598.383 387.154 598.255 387.187 598.115 387.187C597.998 387.187 597.898 387.157 597.814 387.096C597.73 387.035 597.662 386.961 597.611 386.872L597.296 386.319C598.122 385.563 599.118 385.185 600.285 385.185C600.705 385.185 601.078 385.255 601.405 385.395C601.736 385.53 602.016 385.722 602.245 385.969C602.473 386.212 602.646 386.503 602.763 386.844C602.884 387.185 602.945 387.558 602.945 387.964V392.5ZM599.585 391.422C599.762 391.422 599.925 391.406 600.075 391.373C600.224 391.34 600.364 391.291 600.495 391.226C600.63 391.161 600.758 391.081 600.88 390.988C601.006 390.89 601.132 390.776 601.258 390.645V389.434C600.754 389.457 600.331 389.502 599.991 389.567C599.655 389.628 599.384 389.707 599.179 389.805C598.973 389.903 598.826 390.017 598.738 390.148C598.654 390.279 598.612 390.421 598.612 390.575C598.612 390.878 598.7 391.095 598.878 391.226C599.06 391.357 599.295 391.422 599.585 391.422ZM604.645 392.5V385.318H605.702C605.926 385.318 606.073 385.423 606.143 385.633L606.262 386.2C606.406 386.051 606.558 385.915 606.717 385.794C606.88 385.673 607.05 385.568 607.228 385.479C607.41 385.39 607.603 385.323 607.809 385.276C608.014 385.229 608.238 385.206 608.481 385.206C608.873 385.206 609.22 385.274 609.524 385.409C609.827 385.54 610.079 385.726 610.28 385.969C610.485 386.207 610.639 386.494 610.742 386.83C610.849 387.161 610.903 387.528 610.903 387.929V392.5H609.174V387.929C609.174 387.49 609.071 387.152 608.866 386.914C608.665 386.671 608.362 386.55 607.956 386.55C607.657 386.55 607.377 386.618 607.116 386.753C606.854 386.888 606.607 387.073 606.374 387.306V392.5H604.645ZM617.649 386.837C617.597 386.902 617.546 386.954 617.495 386.991C617.448 387.028 617.378 387.047 617.285 387.047C617.196 387.047 617.11 387.021 617.026 386.97C616.942 386.914 616.841 386.853 616.725 386.788C616.608 386.718 616.468 386.657 616.305 386.606C616.146 386.55 615.948 386.522 615.71 386.522C615.406 386.522 615.14 386.578 614.912 386.69C614.683 386.797 614.492 386.954 614.338 387.159C614.188 387.364 614.076 387.614 614.002 387.908C613.927 388.197 613.89 388.526 613.89 388.895C613.89 389.278 613.929 389.618 614.009 389.917C614.093 390.216 614.212 390.468 614.366 390.673C614.52 390.874 614.706 391.028 614.926 391.135C615.145 391.238 615.392 391.289 615.668 391.289C615.943 391.289 616.165 391.256 616.333 391.191C616.505 391.121 616.65 391.046 616.767 390.967C616.883 390.883 616.984 390.808 617.068 390.743C617.156 390.673 617.254 390.638 617.362 390.638C617.502 390.638 617.607 390.692 617.677 390.799L618.174 391.429C617.982 391.653 617.775 391.842 617.551 391.996C617.327 392.145 617.093 392.267 616.851 392.36C616.613 392.449 616.365 392.512 616.109 392.549C615.852 392.586 615.598 392.605 615.346 392.605C614.902 392.605 614.485 392.523 614.093 392.36C613.701 392.192 613.358 391.949 613.064 391.632C612.774 391.315 612.543 390.927 612.371 390.47C612.203 390.008 612.119 389.483 612.119 388.895C612.119 388.368 612.193 387.88 612.343 387.432C612.497 386.979 612.721 386.59 613.015 386.263C613.309 385.932 613.673 385.673 614.107 385.486C614.541 385.299 615.04 385.206 615.605 385.206C616.141 385.206 616.61 385.292 617.012 385.465C617.418 385.638 617.782 385.885 618.104 386.207L617.649 386.837ZM622.242 385.206C622.694 385.206 623.11 385.278 623.488 385.423C623.87 385.568 624.199 385.78 624.475 386.06C624.75 386.335 624.965 386.676 625.119 387.082C625.273 387.483 625.35 387.943 625.35 388.461C625.35 388.592 625.343 388.701 625.329 388.79C625.319 388.874 625.298 388.942 625.266 388.993C625.238 389.04 625.198 389.075 625.147 389.098C625.095 389.117 625.03 389.126 624.951 389.126H620.513C620.564 389.863 620.762 390.405 621.108 390.75C621.453 391.095 621.91 391.268 622.48 391.268C622.76 391.268 623 391.235 623.201 391.17C623.406 391.105 623.583 391.032 623.733 390.953C623.887 390.874 624.02 390.801 624.132 390.736C624.248 390.671 624.36 390.638 624.468 390.638C624.538 390.638 624.598 390.652 624.65 390.68C624.701 390.708 624.745 390.748 624.783 390.799L625.287 391.429C625.095 391.653 624.881 391.842 624.643 391.996C624.405 392.145 624.155 392.267 623.894 392.36C623.637 392.449 623.373 392.512 623.103 392.549C622.837 392.586 622.578 392.605 622.326 392.605C621.826 392.605 621.362 392.523 620.933 392.36C620.503 392.192 620.13 391.947 619.813 391.625C619.495 391.298 619.246 390.897 619.064 390.421C618.882 389.94 618.791 389.385 618.791 388.755C618.791 388.265 618.87 387.805 619.029 387.376C619.187 386.942 619.414 386.566 619.708 386.249C620.006 385.927 620.368 385.673 620.793 385.486C621.222 385.299 621.705 385.206 622.242 385.206ZM622.277 386.445C621.773 386.445 621.378 386.587 621.094 386.872C620.809 387.157 620.627 387.56 620.548 388.083H623.796C623.796 387.859 623.765 387.649 623.705 387.453C623.644 387.252 623.551 387.077 623.425 386.928C623.299 386.779 623.14 386.662 622.949 386.578C622.757 386.489 622.533 386.445 622.277 386.445ZM628.593 382.098V392.5H626.864V382.098H628.593Z" fill="#279FF6"/>
<path d="M575 370H642V368H575V370ZM645 373V401H647V373H645ZM642 404H575V406H642V404ZM572 401V373H570V401H572ZM575 404C573.343 404 572 402.657 572 401H570C570 403.761 572.239 406 575 406V404ZM645 401C645 402.657 643.657 404 642 404V406C644.761 406 647 403.761 647 401H645ZM642 370C643.657 370 645 371.343 645 373H647C647 370.239 644.761 368 642 368V370ZM575 368C572.239 368 570 370.239 570 373H572C572 371.343 573.343 370 575 370V368Z" fill="#279FF6"/>
<path d="M351.811 70.6C351.913 70.792 352.006 70.993 352.09 71.203C352.18 71.407 352.267 71.614 352.351 71.824C352.435 71.608 352.522 71.395 352.612 71.185C352.702 70.975 352.798 70.774 352.9 70.582L356.752 63.373C356.8 63.283 356.848 63.211 356.896 63.157C356.95 63.103 357.007 63.064 357.067 63.04C357.133 63.016 357.205 63.001 357.283 62.995C357.361 62.989 357.454 62.986 357.562 62.986H359.389V76H357.256V67.594C357.256 67.438 357.259 67.267 357.265 67.081C357.277 66.895 357.292 66.706 357.31 66.514L353.377 73.894C353.287 74.062 353.17 74.194 353.026 74.29C352.882 74.38 352.714 74.425 352.522 74.425H352.189C351.997 74.425 351.829 74.38 351.685 74.29C351.541 74.194 351.424 74.062 351.334 73.894L347.347 66.487C347.371 66.685 347.386 66.88 347.392 67.072C347.404 67.258 347.41 67.432 347.41 67.594V76H345.277V62.986H347.104C347.212 62.986 347.305 62.989 347.383 62.995C347.461 63.001 347.53 63.016 347.59 63.04C347.656 63.064 347.716 63.103 347.77 63.157C347.824 63.211 347.875 63.283 347.923 63.373L351.811 70.6ZM365.827 66.622C366.517 66.622 367.141 66.733 367.699 66.955C368.263 67.177 368.743 67.492 369.139 67.9C369.535 68.308 369.841 68.806 370.057 69.394C370.273 69.982 370.381 70.639 370.381 71.365C370.381 72.097 370.273 72.757 370.057 73.345C369.841 73.933 369.535 74.434 369.139 74.848C368.743 75.262 368.263 75.58 367.699 75.802C367.141 76.024 366.517 76.135 365.827 76.135C365.137 76.135 364.51 76.024 363.946 75.802C363.382 75.58 362.899 75.262 362.497 74.848C362.101 74.434 361.792 73.933 361.57 73.345C361.354 72.757 361.246 72.097 361.246 71.365C361.246 70.639 361.354 69.982 361.57 69.394C361.792 68.806 362.101 68.308 362.497 67.9C362.899 67.492 363.382 67.177 363.946 66.955C364.51 66.733 365.137 66.622 365.827 66.622ZM365.827 74.425C366.595 74.425 367.162 74.167 367.528 73.651C367.9 73.135 368.086 72.379 368.086 71.383C368.086 70.387 367.9 69.628 367.528 69.106C367.162 68.584 366.595 68.323 365.827 68.323C365.047 68.323 364.471 68.587 364.099 69.115C363.727 69.637 363.541 70.393 363.541 71.383C363.541 72.373 363.727 73.129 364.099 73.651C364.471 74.167 365.047 74.425 365.827 74.425ZM378.614 76C378.326 76 378.137 75.865 378.047 75.595L377.867 74.704C377.675 74.92 377.474 75.115 377.264 75.289C377.054 75.463 376.826 75.613 376.58 75.739C376.34 75.865 376.079 75.961 375.797 76.027C375.521 76.099 375.221 76.135 374.897 76.135C374.393 76.135 373.931 76.03 373.511 75.82C373.091 75.61 372.728 75.307 372.422 74.911C372.122 74.509 371.888 74.014 371.72 73.426C371.558 72.838 371.477 72.166 371.477 71.41C371.477 70.726 371.57 70.09 371.756 69.502C371.942 68.914 372.209 68.404 372.557 67.972C372.905 67.54 373.322 67.204 373.808 66.964C374.294 66.718 374.84 66.595 375.446 66.595C375.962 66.595 376.403 66.679 376.769 66.847C377.135 67.009 377.462 67.228 377.75 67.504V62.626H379.973V76H378.614ZM375.653 74.371C376.115 74.371 376.508 74.275 376.832 74.083C377.156 73.891 377.462 73.618 377.75 73.264V69.124C377.498 68.818 377.222 68.602 376.922 68.476C376.628 68.35 376.31 68.287 375.968 68.287C375.632 68.287 375.326 68.35 375.05 68.476C374.78 68.602 374.549 68.794 374.357 69.052C374.171 69.304 374.027 69.628 373.925 70.024C373.823 70.414 373.772 70.876 373.772 71.41C373.772 71.95 373.814 72.409 373.898 72.787C373.988 73.159 374.114 73.465 374.276 73.705C374.438 73.939 374.636 74.11 374.87 74.218C375.104 74.32 375.365 74.371 375.653 74.371ZM389.617 76H388.618C388.408 76 388.243 75.97 388.123 75.91C388.003 75.844 387.913 75.715 387.853 75.523L387.655 74.866C387.421 75.076 387.19 75.262 386.962 75.424C386.74 75.58 386.509 75.712 386.269 75.82C386.029 75.928 385.774 76.009 385.504 76.063C385.234 76.117 384.934 76.144 384.604 76.144C384.214 76.144 383.854 76.093 383.524 75.991C383.194 75.883 382.909 75.724 382.669 75.514C382.435 75.304 382.252 75.043 382.12 74.731C381.988 74.419 381.922 74.056 381.922 73.642C381.922 73.294 382.012 72.952 382.192 72.616C382.378 72.274 382.684 71.968 383.11 71.698C383.536 71.422 384.103 71.194 384.811 71.014C385.519 70.834 386.398 70.732 387.448 70.708V70.168C387.448 69.55 387.316 69.094 387.052 68.8C386.794 68.5 386.416 68.35 385.918 68.35C385.558 68.35 385.258 68.392 385.018 68.476C384.778 68.56 384.568 68.656 384.388 68.764C384.214 68.866 384.052 68.959 383.902 69.043C383.752 69.127 383.587 69.169 383.407 69.169C383.257 69.169 383.128 69.13 383.02 69.052C382.912 68.974 382.825 68.878 382.759 68.764L382.354 68.053C383.416 67.081 384.697 66.595 386.197 66.595C386.737 66.595 387.217 66.685 387.637 66.865C388.063 67.039 388.423 67.285 388.717 67.603C389.011 67.915 389.233 68.29 389.383 68.728C389.539 69.166 389.617 69.646 389.617 70.168V76ZM385.297 74.614C385.525 74.614 385.735 74.593 385.927 74.551C386.119 74.509 386.299 74.446 386.467 74.362C386.641 74.278 386.806 74.176 386.962 74.056C387.124 73.93 387.286 73.783 387.448 73.615V72.058C386.8 72.088 386.257 72.145 385.819 72.229C385.387 72.307 385.039 72.409 384.775 72.535C384.511 72.661 384.322 72.808 384.208 72.976C384.1 73.144 384.046 73.327 384.046 73.525C384.046 73.915 384.16 74.194 384.388 74.362C384.622 74.53 384.925 74.614 385.297 74.614ZM394.17 62.626V76H391.947V62.626H394.17ZM409.467 62.986V64.975H405.552V76H403.131V64.975H399.198V62.986H409.467ZM413.243 66.766V76H411.02V66.766H413.243ZM413.576 64.075C413.576 64.267 413.537 64.447 413.459 64.615C413.381 64.783 413.276 64.93 413.144 65.056C413.018 65.182 412.868 65.284 412.694 65.362C412.52 65.434 412.334 65.47 412.136 65.47C411.944 65.47 411.761 65.434 411.587 65.362C411.419 65.284 411.272 65.182 411.146 65.056C411.02 64.93 410.918 64.783 410.84 64.615C410.768 64.447 410.732 64.267 410.732 64.075C410.732 63.877 410.768 63.691 410.84 63.517C410.918 63.343 411.02 63.193 411.146 63.067C411.272 62.941 411.419 62.842 411.587 62.77C411.761 62.692 411.944 62.653 412.136 62.653C412.334 62.653 412.52 62.692 412.694 62.77C412.868 62.842 413.018 62.941 413.144 63.067C413.276 63.193 413.381 63.343 413.459 63.517C413.537 63.691 413.576 63.877 413.576 64.075ZM418.795 76.144C417.997 76.144 417.382 75.919 416.95 75.469C416.518 75.013 416.302 74.386 416.302 73.588V68.431H415.366C415.246 68.431 415.141 68.392 415.051 68.314C414.967 68.236 414.925 68.119 414.925 67.963V67.081L416.41 66.838L416.878 64.318C416.902 64.198 416.956 64.105 417.04 64.039C417.13 63.973 417.241 63.94 417.373 63.94H418.525V66.847H420.955V68.431H418.525V73.435C418.525 73.723 418.597 73.948 418.741 74.11C418.885 74.272 419.077 74.353 419.317 74.353C419.455 74.353 419.569 74.338 419.659 74.308C419.755 74.272 419.836 74.236 419.902 74.2C419.974 74.164 420.037 74.131 420.091 74.101C420.145 74.065 420.199 74.047 420.253 74.047C420.319 74.047 420.373 74.065 420.415 74.101C420.457 74.131 420.502 74.179 420.55 74.245L421.216 75.325C420.892 75.595 420.52 75.799 420.1 75.937C419.68 76.075 419.245 76.144 418.795 76.144ZM425.09 62.626V76H422.867V62.626H425.09ZM431.426 66.622C432.008 66.622 432.542 66.715 433.028 66.901C433.52 67.087 433.943 67.36 434.297 67.72C434.651 68.074 434.927 68.512 435.125 69.034C435.323 69.55 435.422 70.141 435.422 70.807C435.422 70.975 435.413 71.116 435.395 71.23C435.383 71.338 435.356 71.425 435.314 71.491C435.278 71.551 435.227 71.596 435.161 71.626C435.095 71.65 435.011 71.662 434.909 71.662H429.203C429.269 72.61 429.524 73.306 429.968 73.75C430.412 74.194 431 74.416 431.732 74.416C432.092 74.416 432.401 74.374 432.659 74.29C432.923 74.206 433.151 74.113 433.343 74.011C433.541 73.909 433.712 73.816 433.856 73.732C434.006 73.648 434.15 73.606 434.288 73.606C434.378 73.606 434.456 73.624 434.522 73.66C434.588 73.696 434.645 73.747 434.693 73.813L435.341 74.623C435.095 74.911 434.819 75.154 434.513 75.352C434.207 75.544 433.886 75.7 433.55 75.82C433.22 75.934 432.881 76.015 432.533 76.063C432.191 76.111 431.858 76.135 431.534 76.135C430.892 76.135 430.295 76.03 429.743 75.82C429.191 75.604 428.711 75.289 428.303 74.875C427.895 74.455 427.574 73.939 427.34 73.327C427.106 72.709 426.989 71.995 426.989 71.185C426.989 70.555 427.091 69.964 427.295 69.412C427.499 68.854 427.79 68.371 428.168 67.963C428.552 67.549 429.017 67.222 429.563 66.982C430.115 66.742 430.736 66.622 431.426 66.622ZM431.471 68.215C430.823 68.215 430.316 68.398 429.95 68.764C429.584 69.13 429.35 69.649 429.248 70.321H433.424C433.424 70.033 433.385 69.763 433.307 69.511C433.229 69.253 433.109 69.028 432.947 68.836C432.785 68.644 432.581 68.494 432.335 68.386C432.089 68.272 431.801 68.215 431.471 68.215Z" fill="black"/>
<rect x="49.5" y="32.5" width="699" height="399" rx="3.5" stroke="#E9EAEB"/>
</g>
<defs>
<filter id="filter0_d" x="45" y="32" width="708" height="408" filterUnits="userSpaceOnUse" color-interpolation-filters="sRGB">
<feFlood flood-opacity="0" result="BackgroundImageFix"/>
<feColorMatrix in="SourceAlpha" type="matrix" values="0 0 0 0 0 0 0 0 0 0 0 0 0 0 0 0 0 0 127 0"/>
<feOffset dy="4"/>
<feGaussianBlur stdDeviation="2"/>
<feColorMatrix type="matrix" values="0 0 0 0 0 0 0 0 0 0 0 0 0 0 0 0 0 0 0.25 0"/>
<feBlend mode="normal" in2="BackgroundImageFix" result="effect1_dropShadow"/>
<feBlend mode="normal" in="SourceGraphic" in2="effect1_dropShadow" result="shape"/>
</filter>
<filter id="filter1_d" x="660" y="368" width="66" height="40" filterUnits="userSpaceOnUse" color-interpolation-filters="sRGB">
<feFlood flood-opacity="0" result="BackgroundImageFix"/>
<feColorMatrix in="SourceAlpha" type="matrix" values="0 0 0 0 0 0 0 0 0 0 0 0 0 0 0 0 0 0 127 0"/>
<feOffset dy="1"/>
<feGaussianBlur stdDeviation="1"/>
<feColorMatrix type="matrix" values="0 0 0 0 0 0 0 0 0 0 0 0 0 0 0 0 0 0 0.5 0"/>
<feBlend mode="normal" in2="BackgroundImageFix" result="effect1_dropShadow"/>
<feBlend mode="normal" in="SourceGraphic" in2="effect1_dropShadow" result="shape"/>
</filter>
</defs>
</svg>
