<svg width="1000" height="614" viewBox="0 0 1000 614" fill="none" xmlns="http://www.w3.org/2000/svg">
<rect width="1000" height="614" fill="white"/>
<g filter="url(#filter0_d)">
<rect x="49" y="53" width="800" height="500" rx="4" fill="white"/>
<rect x="49" y="53" width="800" height="500" fill="white"/>
<path d="M799.333 83L812.667 96" stroke="#979797" stroke-linecap="square"/>
<path d="M799.333 96L812.667 83" stroke="#979797" stroke-linecap="square"/>
<path d="M88.905 95.446H92.958V97H87.022V86.878H88.905V95.446ZM96.6395 92.051H100.265V93.493H96.6395V92.051ZM107.738 97.112C107.215 97.112 106.737 97.042 106.303 96.902C105.873 96.762 105.505 96.5637 105.197 96.307C104.889 96.0503 104.648 95.74 104.476 95.376C104.308 95.012 104.224 94.606 104.224 94.158C104.224 93.5607 104.371 93.0567 104.665 92.646C104.959 92.2307 105.416 91.9227 106.037 91.722C105.542 91.5167 105.171 91.225 104.924 90.847C104.681 90.469 104.56 90.014 104.56 89.482C104.56 89.0993 104.637 88.7423 104.791 88.411C104.949 88.0797 105.169 87.7927 105.449 87.55C105.729 87.3027 106.062 87.1113 106.45 86.976C106.842 86.836 107.271 86.766 107.738 86.766C108.204 86.766 108.631 86.836 109.019 86.976C109.411 87.1113 109.747 87.3027 110.027 87.55C110.307 87.7927 110.524 88.0797 110.678 88.411C110.836 88.7423 110.916 89.0993 110.916 89.482C110.916 90.014 110.792 90.469 110.545 90.847C110.297 91.225 109.929 91.5167 109.439 91.722C110.059 91.9227 110.517 92.2307 110.811 92.646C111.105 93.0567 111.252 93.5607 111.252 94.158C111.252 94.606 111.165 95.012 110.993 95.376C110.825 95.74 110.587 96.0503 110.279 96.307C109.971 96.5637 109.6 96.762 109.166 96.902C108.736 97.042 108.26 97.112 107.738 97.112ZM107.738 95.761C108.022 95.761 108.272 95.7213 108.487 95.642C108.701 95.558 108.881 95.4437 109.026 95.299C109.175 95.1543 109.287 94.9817 109.362 94.781C109.436 94.5803 109.474 94.3633 109.474 94.13C109.474 93.5747 109.32 93.1547 109.012 92.87C108.704 92.5853 108.279 92.443 107.738 92.443C107.196 92.443 106.772 92.5853 106.464 92.87C106.156 93.1547 106.002 93.5747 106.002 94.13C106.002 94.3633 106.039 94.5803 106.114 94.781C106.188 94.9817 106.298 95.1543 106.443 95.299C106.592 95.4437 106.774 95.558 106.989 95.642C107.203 95.7213 107.453 95.761 107.738 95.761ZM107.738 91.085C108.018 91.085 108.253 91.0407 108.445 90.952C108.636 90.8633 108.79 90.7467 108.907 90.602C109.023 90.4527 109.105 90.2847 109.152 90.098C109.203 89.9067 109.229 89.7107 109.229 89.51C109.229 89.3187 109.198 89.1367 109.138 88.964C109.077 88.7913 108.986 88.6397 108.865 88.509C108.743 88.3737 108.589 88.2663 108.403 88.187C108.216 88.1077 107.994 88.068 107.738 88.068C107.481 88.068 107.259 88.1077 107.073 88.187C106.886 88.2663 106.73 88.3737 106.604 88.509C106.482 88.6397 106.391 88.7913 106.331 88.964C106.275 89.1367 106.247 89.3187 106.247 89.51C106.247 89.7107 106.27 89.9067 106.317 90.098C106.368 90.2847 106.452 90.4527 106.569 90.602C106.685 90.7467 106.839 90.8633 107.031 90.952C107.222 91.0407 107.458 91.085 107.738 91.085ZM119.569 91.939C119.569 92.821 119.473 93.5887 119.282 94.242C119.095 94.8907 118.834 95.4273 118.498 95.852C118.166 96.2767 117.772 96.594 117.315 96.804C116.862 97.0093 116.372 97.112 115.845 97.112C115.317 97.112 114.827 97.0093 114.375 96.804C113.927 96.594 113.537 96.2767 113.206 95.852C112.874 95.4273 112.615 94.8907 112.429 94.242C112.242 93.5887 112.149 92.821 112.149 91.939C112.149 91.0523 112.242 90.2847 112.429 89.636C112.615 88.9873 112.874 88.4507 113.206 88.026C113.537 87.6013 113.927 87.2863 114.375 87.081C114.827 86.871 115.317 86.766 115.845 86.766C116.372 86.766 116.862 86.871 117.315 87.081C117.772 87.2863 118.166 87.6013 118.498 88.026C118.834 88.4507 119.095 88.9873 119.282 89.636C119.473 90.2847 119.569 91.0523 119.569 91.939ZM117.784 91.939C117.784 91.2063 117.73 90.5997 117.623 90.119C117.515 89.6383 117.371 89.2557 117.189 88.971C117.011 88.6863 116.806 88.488 116.573 88.376C116.339 88.2593 116.097 88.201 115.845 88.201C115.597 88.201 115.357 88.2593 115.124 88.376C114.895 88.488 114.692 88.6863 114.515 88.971C114.337 89.2557 114.195 89.6383 114.088 90.119C113.985 90.5997 113.934 91.2063 113.934 91.939C113.934 92.6717 113.985 93.2783 114.088 93.759C114.195 94.2397 114.337 94.6223 114.515 94.907C114.692 95.1917 114.895 95.3923 115.124 95.509C115.357 95.621 115.597 95.677 115.845 95.677C116.097 95.677 116.339 95.621 116.573 95.509C116.806 95.3923 117.011 95.1917 117.189 94.907C117.371 94.6223 117.515 94.2397 117.623 93.759C117.73 93.2783 117.784 92.6717 117.784 91.939ZM127.69 91.939C127.69 92.821 127.594 93.5887 127.403 94.242C127.216 94.8907 126.955 95.4273 126.619 95.852C126.288 96.2767 125.893 96.594 125.436 96.804C124.983 97.0093 124.493 97.112 123.966 97.112C123.439 97.112 122.949 97.0093 122.496 96.804C122.048 96.594 121.658 96.2767 121.327 95.852C120.996 95.4273 120.737 94.8907 120.55 94.242C120.363 93.5887 120.27 92.821 120.27 91.939C120.27 91.0523 120.363 90.2847 120.55 89.636C120.737 88.9873 120.996 88.4507 121.327 88.026C121.658 87.6013 122.048 87.2863 122.496 87.081C122.949 86.871 123.439 86.766 123.966 86.766C124.493 86.766 124.983 86.871 125.436 87.081C125.893 87.2863 126.288 87.6013 126.619 88.026C126.955 88.4507 127.216 88.9873 127.403 89.636C127.594 90.2847 127.69 91.0523 127.69 91.939ZM125.905 91.939C125.905 91.2063 125.851 90.5997 125.744 90.119C125.637 89.6383 125.492 89.2557 125.31 88.971C125.133 88.6863 124.927 88.488 124.694 88.376C124.461 88.2593 124.218 88.201 123.966 88.201C123.719 88.201 123.478 88.2593 123.245 88.376C123.016 88.488 122.813 88.6863 122.636 88.971C122.459 89.2557 122.316 89.6383 122.209 90.119C122.106 90.5997 122.055 91.2063 122.055 91.939C122.055 92.6717 122.106 93.2783 122.209 93.759C122.316 94.2397 122.459 94.6223 122.636 94.907C122.813 95.1917 123.016 95.3923 123.245 95.509C123.478 95.621 123.719 95.677 123.966 95.677C124.218 95.677 124.461 95.621 124.694 95.509C124.927 95.3923 125.133 95.1917 125.31 94.907C125.492 94.6223 125.637 94.2397 125.744 93.759C125.851 93.2783 125.905 92.6717 125.905 91.939ZM133.373 93.297L131.014 89.818H132.68C132.806 89.818 132.899 89.8367 132.96 89.874C133.021 89.9067 133.074 89.9627 133.121 90.042L134.626 92.443C134.649 92.3637 134.677 92.2843 134.71 92.205C134.747 92.1257 134.792 92.0463 134.843 91.967L136.054 90.077C136.11 89.9883 136.168 89.923 136.229 89.881C136.29 89.839 136.364 89.818 136.453 89.818H138.042L135.676 93.22L138.14 97H136.474C136.348 97 136.245 96.9673 136.166 96.902C136.091 96.8367 136.028 96.762 135.977 96.678L134.451 94.179C134.409 94.347 134.351 94.487 134.276 94.599L132.932 96.678C132.881 96.7573 132.818 96.832 132.743 96.902C132.668 96.9673 132.575 97 132.463 97H130.916L133.373 93.297ZM147.939 87.613C147.939 87.8603 147.859 88.061 147.701 88.215C147.547 88.369 147.288 88.446 146.924 88.446H144.138L143.774 90.56C144.231 90.4667 144.649 90.42 145.027 90.42C145.559 90.42 146.025 90.4993 146.427 90.658C146.833 90.8167 147.173 91.036 147.449 91.316C147.724 91.596 147.932 91.925 148.072 92.303C148.212 92.6763 148.282 93.08 148.282 93.514C148.282 94.0507 148.186 94.5407 147.995 94.984C147.808 95.4273 147.547 95.8077 147.211 96.125C146.875 96.4377 146.476 96.6803 146.014 96.853C145.556 97.0257 145.057 97.112 144.516 97.112C144.198 97.112 143.897 97.0793 143.613 97.014C143.328 96.9487 143.06 96.8623 142.808 96.755C142.56 96.643 142.329 96.517 142.115 96.377C141.905 96.2323 141.716 96.0807 141.548 95.922L142.08 95.187C142.192 95.0283 142.341 94.949 142.528 94.949C142.644 94.949 142.761 94.9863 142.878 95.061C142.999 95.1357 143.139 95.2173 143.298 95.306C143.456 95.3947 143.641 95.4763 143.851 95.551C144.061 95.6257 144.315 95.663 144.614 95.663C144.931 95.663 145.211 95.6117 145.454 95.509C145.696 95.4063 145.897 95.264 146.056 95.082C146.219 94.8953 146.34 94.676 146.42 94.424C146.504 94.1673 146.546 93.8897 146.546 93.591C146.546 93.0403 146.385 92.611 146.063 92.303C145.745 91.9903 145.276 91.834 144.656 91.834C144.166 91.834 143.673 91.9227 143.179 92.1L142.101 91.792L142.941 86.878H147.939V87.613ZM156.907 91.939C156.907 92.821 156.811 93.5887 156.62 94.242C156.433 94.8907 156.172 95.4273 155.836 95.852C155.504 96.2767 155.11 96.594 154.653 96.804C154.2 97.0093 153.71 97.112 153.183 97.112C152.655 97.112 152.165 97.0093 151.713 96.804C151.265 96.594 150.875 96.2767 150.544 95.852C150.212 95.4273 149.953 94.8907 149.767 94.242C149.58 93.5887 149.487 92.821 149.487 91.939C149.487 91.0523 149.58 90.2847 149.767 89.636C149.953 88.9873 150.212 88.4507 150.544 88.026C150.875 87.6013 151.265 87.2863 151.713 87.081C152.165 86.871 152.655 86.766 153.183 86.766C153.71 86.766 154.2 86.871 154.653 87.081C155.11 87.2863 155.504 87.6013 155.836 88.026C156.172 88.4507 156.433 88.9873 156.62 89.636C156.811 90.2847 156.907 91.0523 156.907 91.939ZM155.122 91.939C155.122 91.2063 155.068 90.5997 154.961 90.119C154.853 89.6383 154.709 89.2557 154.527 88.971C154.349 88.6863 154.144 88.488 153.911 88.376C153.677 88.2593 153.435 88.201 153.183 88.201C152.935 88.201 152.695 88.2593 152.462 88.376C152.233 88.488 152.03 88.6863 151.853 88.971C151.675 89.2557 151.533 89.6383 151.426 90.119C151.323 90.5997 151.272 91.2063 151.272 91.939C151.272 92.6717 151.323 93.2783 151.426 93.759C151.533 94.2397 151.675 94.6223 151.853 94.907C152.03 95.1917 152.233 95.3923 152.462 95.509C152.695 95.621 152.935 95.677 153.183 95.677C153.435 95.677 153.677 95.621 153.911 95.509C154.144 95.3923 154.349 95.1917 154.527 94.907C154.709 94.6223 154.853 94.2397 154.961 93.759C155.068 93.2783 155.122 92.6717 155.122 91.939ZM165.028 91.939C165.028 92.821 164.932 93.5887 164.741 94.242C164.554 94.8907 164.293 95.4273 163.957 95.852C163.625 96.2767 163.231 96.594 162.774 96.804C162.321 97.0093 161.831 97.112 161.304 97.112C160.776 97.112 160.286 97.0093 159.834 96.804C159.386 96.594 158.996 96.2767 158.665 95.852C158.333 95.4273 158.074 94.8907 157.888 94.242C157.701 93.5887 157.608 92.821 157.608 91.939C157.608 91.0523 157.701 90.2847 157.888 89.636C158.074 88.9873 158.333 88.4507 158.665 88.026C158.996 87.6013 159.386 87.2863 159.834 87.081C160.286 86.871 160.776 86.766 161.304 86.766C161.831 86.766 162.321 86.871 162.774 87.081C163.231 87.2863 163.625 87.6013 163.957 88.026C164.293 88.4507 164.554 88.9873 164.741 89.636C164.932 90.2847 165.028 91.0523 165.028 91.939ZM163.243 91.939C163.243 91.2063 163.189 90.5997 163.082 90.119C162.974 89.6383 162.83 89.2557 162.648 88.971C162.47 88.6863 162.265 88.488 162.032 88.376C161.798 88.2593 161.556 88.201 161.304 88.201C161.056 88.201 160.816 88.2593 160.583 88.376C160.354 88.488 160.151 88.6863 159.974 88.971C159.796 89.2557 159.654 89.6383 159.547 90.119C159.444 90.5997 159.393 91.2063 159.393 91.939C159.393 92.6717 159.444 93.2783 159.547 93.759C159.654 94.2397 159.796 94.6223 159.974 94.907C160.151 95.1917 160.354 95.3923 160.583 95.509C160.816 95.621 161.056 95.677 161.304 95.677C161.556 95.677 161.798 95.621 162.032 95.509C162.265 95.3923 162.47 95.1917 162.648 94.907C162.83 94.6223 162.974 94.2397 163.082 93.759C163.189 93.2783 163.243 92.6717 163.243 91.939Z" fill="#A7ABB1"/>
<g filter="url(#filter1_d)">
<path d="M751 490C751 487.791 752.791 486 755 486H809C811.209 486 813 487.791 813 490V518C813 520.209 811.209 522 809 522H755C752.791 522 751 520.209 751 518V490Z" fill="#279FF6"/>
<path d="M773.447 501.219C773.396 501.322 773.335 501.394 773.265 501.436C773.2 501.478 773.12 501.499 773.027 501.499C772.934 501.499 772.829 501.464 772.712 501.394C772.595 501.319 772.458 501.238 772.299 501.149C772.14 501.06 771.954 500.981 771.739 500.911C771.529 500.836 771.279 500.799 770.99 500.799C770.729 500.799 770.5 500.832 770.304 500.897C770.113 500.958 769.949 501.044 769.814 501.156C769.683 501.268 769.585 501.403 769.52 501.562C769.455 501.716 769.422 501.886 769.422 502.073C769.422 502.311 769.487 502.509 769.618 502.668C769.753 502.827 769.931 502.962 770.15 503.074C770.369 503.186 770.619 503.286 770.899 503.375C771.179 503.464 771.464 503.559 771.753 503.662C772.047 503.76 772.334 503.877 772.614 504.012C772.894 504.143 773.144 504.311 773.363 504.516C773.582 504.717 773.757 504.964 773.888 505.258C774.023 505.552 774.091 505.909 774.091 506.329C774.091 506.786 774.012 507.216 773.853 507.617C773.699 508.014 773.47 508.361 773.167 508.66C772.868 508.954 772.502 509.187 772.068 509.36C771.634 509.528 771.137 509.612 770.577 509.612C770.255 509.612 769.938 509.579 769.625 509.514C769.312 509.453 769.011 509.365 768.722 509.248C768.437 509.131 768.169 508.991 767.917 508.828C767.67 508.665 767.448 508.483 767.252 508.282L767.798 507.379C767.849 507.314 767.91 507.26 767.98 507.218C768.055 507.171 768.136 507.148 768.225 507.148C768.342 507.148 768.468 507.197 768.603 507.295C768.738 507.388 768.897 507.493 769.079 507.61C769.266 507.727 769.483 507.834 769.73 507.932C769.982 508.025 770.283 508.072 770.633 508.072C771.17 508.072 771.585 507.946 771.879 507.694C772.173 507.437 772.32 507.071 772.32 506.595C772.32 506.329 772.252 506.112 772.117 505.944C771.986 505.776 771.811 505.636 771.592 505.524C771.373 505.407 771.123 505.309 770.843 505.23C770.563 505.151 770.278 505.064 769.989 504.971C769.7 504.878 769.415 504.766 769.135 504.635C768.855 504.504 768.605 504.334 768.386 504.124C768.167 503.914 767.989 503.653 767.854 503.34C767.723 503.023 767.658 502.633 767.658 502.171C767.658 501.802 767.73 501.443 767.875 501.093C768.024 500.743 768.239 500.433 768.519 500.162C768.804 499.891 769.151 499.674 769.562 499.511C769.973 499.348 770.442 499.266 770.969 499.266C771.566 499.266 772.117 499.359 772.621 499.546C773.125 499.733 773.554 499.994 773.909 500.33L773.447 501.219ZM781.058 509.5H780.281C780.118 509.5 779.989 509.477 779.896 509.43C779.803 509.379 779.733 509.278 779.686 509.129L779.532 508.618C779.35 508.781 779.17 508.926 778.993 509.052C778.82 509.173 778.641 509.276 778.454 509.36C778.267 509.444 778.069 509.507 777.859 509.549C777.649 509.591 777.416 509.612 777.159 509.612C776.856 509.612 776.576 509.572 776.319 509.493C776.062 509.409 775.841 509.285 775.654 509.122C775.472 508.959 775.33 508.756 775.227 508.513C775.124 508.27 775.073 507.988 775.073 507.666C775.073 507.395 775.143 507.129 775.283 506.868C775.428 506.602 775.666 506.364 775.997 506.154C776.328 505.939 776.769 505.762 777.32 505.622C777.871 505.482 778.554 505.403 779.371 505.384V504.964C779.371 504.483 779.268 504.129 779.063 503.9C778.862 503.667 778.568 503.55 778.181 503.55C777.901 503.55 777.668 503.583 777.481 503.648C777.294 503.713 777.131 503.788 776.991 503.872C776.856 503.951 776.73 504.024 776.613 504.089C776.496 504.154 776.368 504.187 776.228 504.187C776.111 504.187 776.011 504.157 775.927 504.096C775.843 504.035 775.775 503.961 775.724 503.872L775.409 503.319C776.235 502.563 777.231 502.185 778.398 502.185C778.818 502.185 779.191 502.255 779.518 502.395C779.849 502.53 780.129 502.722 780.358 502.969C780.587 503.212 780.759 503.503 780.876 503.844C780.997 504.185 781.058 504.558 781.058 504.964V509.5ZM777.698 508.422C777.875 508.422 778.039 508.406 778.188 508.373C778.337 508.34 778.477 508.291 778.608 508.226C778.743 508.161 778.872 508.081 778.993 507.988C779.119 507.89 779.245 507.776 779.371 507.645V506.434C778.867 506.457 778.445 506.502 778.104 506.567C777.768 506.628 777.497 506.707 777.292 506.805C777.087 506.903 776.94 507.017 776.851 507.148C776.767 507.279 776.725 507.421 776.725 507.575C776.725 507.878 776.814 508.095 776.991 508.226C777.173 508.357 777.409 508.422 777.698 508.422ZM786.11 509.5H784.542L781.686 502.318H783.121C783.247 502.318 783.352 502.348 783.436 502.409C783.525 502.47 783.585 502.547 783.618 502.64L785.004 506.476C785.083 506.7 785.149 506.919 785.2 507.134C785.256 507.349 785.305 507.563 785.347 507.778C785.389 507.563 785.436 507.349 785.487 507.134C785.543 506.919 785.613 506.7 785.697 506.476L787.118 502.64C787.151 502.547 787.209 502.47 787.293 502.409C787.377 502.348 787.477 502.318 787.594 502.318H788.959L786.11 509.5ZM792.712 502.206C793.165 502.206 793.58 502.278 793.958 502.423C794.341 502.568 794.67 502.78 794.945 503.06C795.221 503.335 795.435 503.676 795.589 504.082C795.743 504.483 795.82 504.943 795.82 505.461C795.82 505.592 795.813 505.701 795.799 505.79C795.79 505.874 795.769 505.942 795.736 505.993C795.708 506.04 795.669 506.075 795.617 506.098C795.566 506.117 795.501 506.126 795.421 506.126H790.983C791.035 506.863 791.233 507.405 791.578 507.75C791.924 508.095 792.381 508.268 792.95 508.268C793.23 508.268 793.471 508.235 793.671 508.17C793.877 508.105 794.054 508.032 794.203 507.953C794.357 507.874 794.49 507.801 794.602 507.736C794.719 507.671 794.831 507.638 794.938 507.638C795.008 507.638 795.069 507.652 795.12 507.68C795.172 507.708 795.216 507.748 795.253 507.799L795.757 508.429C795.566 508.653 795.351 508.842 795.113 508.996C794.875 509.145 794.626 509.267 794.364 509.36C794.108 509.449 793.844 509.512 793.573 509.549C793.307 509.586 793.048 509.605 792.796 509.605C792.297 509.605 791.833 509.523 791.403 509.36C790.974 509.192 790.601 508.947 790.283 508.625C789.966 508.298 789.716 507.897 789.534 507.421C789.352 506.94 789.261 506.385 789.261 505.755C789.261 505.265 789.341 504.805 789.499 504.376C789.658 503.942 789.884 503.566 790.178 503.249C790.477 502.927 790.839 502.673 791.263 502.486C791.693 502.299 792.176 502.206 792.712 502.206ZM792.747 503.445C792.243 503.445 791.849 503.587 791.564 503.872C791.28 504.157 791.098 504.56 791.018 505.083H794.266C794.266 504.859 794.236 504.649 794.175 504.453C794.115 504.252 794.021 504.077 793.895 503.928C793.769 503.779 793.611 503.662 793.419 503.578C793.228 503.489 793.004 503.445 792.747 503.445Z" fill="white"/>
</g>
<path d="M683.98 507.113C684.083 507.113 684.171 507.153 684.246 507.232L684.988 508.037C684.577 508.546 684.071 508.935 683.469 509.206C682.872 509.477 682.153 509.612 681.313 509.612C680.562 509.612 679.885 509.484 679.283 509.227C678.686 508.97 678.175 508.613 677.75 508.156C677.325 507.699 676.999 507.153 676.77 506.518C676.546 505.883 676.434 505.19 676.434 504.439C676.434 503.678 676.56 502.983 676.812 502.353C677.064 501.718 677.419 501.172 677.876 500.715C678.333 500.258 678.879 499.903 679.514 499.651C680.153 499.394 680.858 499.266 681.628 499.266C682.379 499.266 683.035 499.387 683.595 499.63C684.16 499.868 684.643 500.185 685.044 500.582L684.414 501.457C684.377 501.513 684.328 501.562 684.267 501.604C684.211 501.646 684.132 501.667 684.029 501.667C683.922 501.667 683.812 501.625 683.7 501.541C683.588 501.457 683.446 501.366 683.273 501.268C683.1 501.17 682.881 501.079 682.615 500.995C682.354 500.911 682.02 500.869 681.614 500.869C681.138 500.869 680.699 500.953 680.298 501.121C679.901 501.284 679.558 501.52 679.269 501.828C678.984 502.136 678.76 502.512 678.597 502.955C678.438 503.394 678.359 503.888 678.359 504.439C678.359 505.008 678.438 505.515 678.597 505.958C678.76 506.401 678.98 506.775 679.255 507.078C679.53 507.381 679.855 507.615 680.228 507.778C680.601 507.937 681.003 508.016 681.432 508.016C681.689 508.016 681.92 508.002 682.125 507.974C682.335 507.946 682.526 507.902 682.699 507.841C682.876 507.78 683.042 507.703 683.196 507.61C683.355 507.512 683.511 507.393 683.665 507.253C683.712 507.211 683.761 507.178 683.812 507.155C683.863 507.127 683.919 507.113 683.98 507.113ZM691.945 509.5H691.168C691.004 509.5 690.876 509.477 690.783 509.43C690.689 509.379 690.619 509.278 690.573 509.129L690.419 508.618C690.237 508.781 690.057 508.926 689.88 509.052C689.707 509.173 689.527 509.276 689.341 509.36C689.154 509.444 688.956 509.507 688.746 509.549C688.536 509.591 688.302 509.612 688.046 509.612C687.742 509.612 687.462 509.572 687.206 509.493C686.949 509.409 686.727 509.285 686.541 509.122C686.359 508.959 686.216 508.756 686.114 508.513C686.011 508.27 685.96 507.988 685.96 507.666C685.96 507.395 686.03 507.129 686.17 506.868C686.314 506.602 686.552 506.364 686.884 506.154C687.215 505.939 687.656 505.762 688.207 505.622C688.757 505.482 689.441 505.403 690.258 505.384V504.964C690.258 504.483 690.155 504.129 689.95 503.9C689.749 503.667 689.455 503.55 689.068 503.55C688.788 503.55 688.554 503.583 688.368 503.648C688.181 503.713 688.018 503.788 687.878 503.872C687.742 503.951 687.616 504.024 687.5 504.089C687.383 504.154 687.255 504.187 687.115 504.187C686.998 504.187 686.898 504.157 686.814 504.096C686.73 504.035 686.662 503.961 686.611 503.872L686.296 503.319C687.122 502.563 688.118 502.185 689.285 502.185C689.705 502.185 690.078 502.255 690.405 502.395C690.736 502.53 691.016 502.722 691.245 502.969C691.473 503.212 691.646 503.503 691.763 503.844C691.884 504.185 691.945 504.558 691.945 504.964V509.5ZM688.585 508.422C688.762 508.422 688.925 508.406 689.075 508.373C689.224 508.34 689.364 508.291 689.495 508.226C689.63 508.161 689.758 508.081 689.88 507.988C690.006 507.89 690.132 507.776 690.258 507.645V506.434C689.754 506.457 689.331 506.502 688.991 506.567C688.655 506.628 688.384 506.707 688.179 506.805C687.973 506.903 687.826 507.017 687.738 507.148C687.654 507.279 687.612 507.421 687.612 507.575C687.612 507.878 687.7 508.095 687.878 508.226C688.06 508.357 688.295 508.422 688.585 508.422ZM693.645 509.5V502.318H694.702C694.926 502.318 695.073 502.423 695.143 502.633L695.262 503.2C695.406 503.051 695.558 502.915 695.717 502.794C695.88 502.673 696.05 502.568 696.228 502.479C696.41 502.39 696.603 502.323 696.809 502.276C697.014 502.229 697.238 502.206 697.481 502.206C697.873 502.206 698.22 502.274 698.524 502.409C698.827 502.54 699.079 502.726 699.28 502.969C699.485 503.207 699.639 503.494 699.742 503.83C699.849 504.161 699.903 504.528 699.903 504.929V509.5H698.174V504.929C698.174 504.49 698.071 504.152 697.866 503.914C697.665 503.671 697.362 503.55 696.956 503.55C696.657 503.55 696.377 503.618 696.116 503.753C695.854 503.888 695.607 504.073 695.374 504.306V509.5H693.645ZM706.649 503.837C706.597 503.902 706.546 503.954 706.495 503.991C706.448 504.028 706.378 504.047 706.285 504.047C706.196 504.047 706.11 504.021 706.026 503.97C705.942 503.914 705.841 503.853 705.725 503.788C705.608 503.718 705.468 503.657 705.305 503.606C705.146 503.55 704.948 503.522 704.71 503.522C704.406 503.522 704.14 503.578 703.912 503.69C703.683 503.797 703.492 503.954 703.338 504.159C703.188 504.364 703.076 504.614 703.002 504.908C702.927 505.197 702.89 505.526 702.89 505.895C702.89 506.278 702.929 506.618 703.009 506.917C703.093 507.216 703.212 507.468 703.366 507.673C703.52 507.874 703.706 508.028 703.926 508.135C704.145 508.238 704.392 508.289 704.668 508.289C704.943 508.289 705.165 508.256 705.333 508.191C705.505 508.121 705.65 508.046 705.767 507.967C705.883 507.883 705.984 507.808 706.068 507.743C706.156 507.673 706.254 507.638 706.362 507.638C706.502 507.638 706.607 507.692 706.677 507.799L707.174 508.429C706.982 508.653 706.775 508.842 706.551 508.996C706.327 509.145 706.093 509.267 705.851 509.36C705.613 509.449 705.365 509.512 705.109 509.549C704.852 509.586 704.598 509.605 704.346 509.605C703.902 509.605 703.485 509.523 703.093 509.36C702.701 509.192 702.358 508.949 702.064 508.632C701.774 508.315 701.543 507.927 701.371 507.47C701.203 507.008 701.119 506.483 701.119 505.895C701.119 505.368 701.193 504.88 701.343 504.432C701.497 503.979 701.721 503.59 702.015 503.263C702.309 502.932 702.673 502.673 703.107 502.486C703.541 502.299 704.04 502.206 704.605 502.206C705.141 502.206 705.61 502.292 706.012 502.465C706.418 502.638 706.782 502.885 707.104 503.207L706.649 503.837ZM711.242 502.206C711.694 502.206 712.11 502.278 712.488 502.423C712.87 502.568 713.199 502.78 713.475 503.06C713.75 503.335 713.965 503.676 714.119 504.082C714.273 504.483 714.35 504.943 714.35 505.461C714.35 505.592 714.343 505.701 714.329 505.79C714.319 505.874 714.298 505.942 714.266 505.993C714.238 506.04 714.198 506.075 714.147 506.098C714.095 506.117 714.03 506.126 713.951 506.126H709.513C709.564 506.863 709.762 507.405 710.108 507.75C710.453 508.095 710.91 508.268 711.48 508.268C711.76 508.268 712 508.235 712.201 508.17C712.406 508.105 712.583 508.032 712.733 507.953C712.887 507.874 713.02 507.801 713.132 507.736C713.248 507.671 713.36 507.638 713.468 507.638C713.538 507.638 713.598 507.652 713.65 507.68C713.701 507.708 713.745 507.748 713.783 507.799L714.287 508.429C714.095 508.653 713.881 508.842 713.643 508.996C713.405 509.145 713.155 509.267 712.894 509.36C712.637 509.449 712.373 509.512 712.103 509.549C711.837 509.586 711.578 509.605 711.326 509.605C710.826 509.605 710.362 509.523 709.933 509.36C709.503 509.192 709.13 508.947 708.813 508.625C708.495 508.298 708.246 507.897 708.064 507.421C707.882 506.94 707.791 506.385 707.791 505.755C707.791 505.265 707.87 504.805 708.029 504.376C708.187 503.942 708.414 503.566 708.708 503.249C709.006 502.927 709.368 502.673 709.793 502.486C710.222 502.299 710.705 502.206 711.242 502.206ZM711.277 503.445C710.773 503.445 710.378 503.587 710.094 503.872C709.809 504.157 709.627 504.56 709.548 505.083H712.796C712.796 504.859 712.765 504.649 712.705 504.453C712.644 504.252 712.551 504.077 712.425 503.928C712.299 503.779 712.14 503.662 711.949 503.578C711.757 503.489 711.533 503.445 711.277 503.445ZM717.593 499.098V509.5H715.864V499.098H717.593Z" fill="#279FF6"/>
<path d="M664 487H731V485H664V487ZM734 490V518H736V490H734ZM731 521H664V523H731V521ZM661 518V490H659V518H661ZM664 521C662.343 521 661 519.657 661 518H659C659 520.761 661.239 523 664 523V521ZM734 518C734 519.657 732.657 521 731 521V523C733.761 523 736 520.761 736 518H734ZM731 487C732.657 487 734 488.343 734 490H736C736 487.239 733.761 485 731 485V487ZM664 485C661.239 485 659 487.239 659 490H661C661 488.343 662.343 487 664 487V485Z" fill="#279FF6"/>
<rect x="141.5" y="209.5" width="255" height="35" rx="3.5" stroke="#A7ABB1"/>
<rect x="488.5" y="209.5" width="255" height="35" rx="3.5" stroke="#A7ABB1"/>
<rect x="141.5" y="298.5" width="255" height="35" rx="3.5" stroke="#A7ABB1"/>
<rect x="488.5" y="298.5" width="255" height="35" rx="3.5" stroke="#A7ABB1"/>
<path d="M149.155 181.878V183.425H146.11V192H144.227V183.425H141.168V181.878H149.155ZM152.091 184.818V192H150.362V184.818H152.091ZM152.35 182.725C152.35 182.874 152.32 183.014 152.259 183.145C152.199 183.276 152.117 183.39 152.014 183.488C151.916 183.586 151.8 183.665 151.664 183.726C151.529 183.782 151.384 183.81 151.23 183.81C151.081 183.81 150.939 183.782 150.803 183.726C150.673 183.665 150.558 183.586 150.46 183.488C150.362 183.39 150.283 183.276 150.222 183.145C150.166 183.014 150.138 182.874 150.138 182.725C150.138 182.571 150.166 182.426 150.222 182.291C150.283 182.156 150.362 182.039 150.46 181.941C150.558 181.843 150.673 181.766 150.803 181.71C150.939 181.649 151.081 181.619 151.23 181.619C151.384 181.619 151.529 181.649 151.664 181.71C151.8 181.766 151.916 181.843 152.014 181.941C152.117 182.039 152.199 182.156 152.259 182.291C152.32 182.426 152.35 182.571 152.35 182.725ZM156.41 192.112C155.789 192.112 155.311 191.937 154.975 191.587C154.639 191.232 154.471 190.745 154.471 190.124V186.113H153.743C153.65 186.113 153.568 186.083 153.498 186.022C153.433 185.961 153.4 185.87 153.4 185.749V185.063L154.555 184.874L154.919 182.914C154.938 182.821 154.98 182.748 155.045 182.697C155.115 182.646 155.201 182.62 155.304 182.62H156.2V184.881H158.09V186.113H156.2V190.005C156.2 190.229 156.256 190.404 156.368 190.53C156.48 190.656 156.629 190.719 156.816 190.719C156.923 190.719 157.012 190.707 157.082 190.684C157.157 190.656 157.22 190.628 157.271 190.6C157.327 190.572 157.376 190.546 157.418 190.523C157.46 190.495 157.502 190.481 157.544 190.481C157.595 190.481 157.637 190.495 157.67 190.523C157.703 190.546 157.738 190.584 157.775 190.635L158.293 191.475C158.041 191.685 157.752 191.844 157.425 191.951C157.098 192.058 156.76 192.112 156.41 192.112ZM161.306 181.598V192H159.577V181.598H161.306ZM166.234 184.706C166.686 184.706 167.102 184.778 167.48 184.923C167.862 185.068 168.191 185.28 168.467 185.56C168.742 185.835 168.957 186.176 169.111 186.582C169.265 186.983 169.342 187.443 169.342 187.961C169.342 188.092 169.335 188.201 169.321 188.29C169.311 188.374 169.29 188.442 169.258 188.493C169.23 188.54 169.19 188.575 169.139 188.598C169.087 188.617 169.022 188.626 168.943 188.626H164.505C164.556 189.363 164.754 189.905 165.1 190.25C165.445 190.595 165.902 190.768 166.472 190.768C166.752 190.768 166.992 190.735 167.193 190.67C167.398 190.605 167.575 190.532 167.725 190.453C167.879 190.374 168.012 190.301 168.124 190.236C168.24 190.171 168.352 190.138 168.46 190.138C168.53 190.138 168.59 190.152 168.642 190.18C168.693 190.208 168.737 190.248 168.775 190.299L169.279 190.929C169.087 191.153 168.873 191.342 168.635 191.496C168.397 191.645 168.147 191.767 167.886 191.86C167.629 191.949 167.365 192.012 167.095 192.049C166.829 192.086 166.57 192.105 166.318 192.105C165.818 192.105 165.354 192.023 164.925 191.86C164.495 191.692 164.122 191.447 163.805 191.125C163.487 190.798 163.238 190.397 163.056 189.921C162.874 189.44 162.783 188.885 162.783 188.255C162.783 187.765 162.862 187.305 163.021 186.876C163.179 186.442 163.406 186.066 163.7 185.749C163.998 185.427 164.36 185.173 164.785 184.986C165.214 184.799 165.697 184.706 166.234 184.706ZM166.269 185.945C165.765 185.945 165.37 186.087 165.086 186.372C164.801 186.657 164.619 187.06 164.54 187.583H167.788C167.788 187.359 167.757 187.149 167.697 186.953C167.636 186.752 167.543 186.577 167.417 186.428C167.291 186.279 167.132 186.162 166.941 186.078C166.749 185.989 166.525 185.945 166.269 185.945Z" fill="black"/>
<path d="M496.155 181.878V183.425H493.11V192H491.227V183.425H488.168V181.878H496.155ZM499.091 184.818V192H497.362V184.818H499.091ZM499.35 182.725C499.35 182.874 499.32 183.014 499.259 183.145C499.199 183.276 499.117 183.39 499.014 183.488C498.916 183.586 498.8 183.665 498.664 183.726C498.529 183.782 498.384 183.81 498.23 183.81C498.081 183.81 497.939 183.782 497.803 183.726C497.673 183.665 497.558 183.586 497.46 183.488C497.362 183.39 497.283 183.276 497.222 183.145C497.166 183.014 497.138 182.874 497.138 182.725C497.138 182.571 497.166 182.426 497.222 182.291C497.283 182.156 497.362 182.039 497.46 181.941C497.558 181.843 497.673 181.766 497.803 181.71C497.939 181.649 498.081 181.619 498.23 181.619C498.384 181.619 498.529 181.649 498.664 181.71C498.8 181.766 498.916 181.843 499.014 181.941C499.117 182.039 499.199 182.156 499.259 182.291C499.32 182.426 499.35 182.571 499.35 182.725ZM503.41 192.112C502.789 192.112 502.311 191.937 501.975 191.587C501.639 191.232 501.471 190.745 501.471 190.124V186.113H500.743C500.65 186.113 500.568 186.083 500.498 186.022C500.433 185.961 500.4 185.87 500.4 185.749V185.063L501.555 184.874L501.919 182.914C501.938 182.821 501.98 182.748 502.045 182.697C502.115 182.646 502.201 182.62 502.304 182.62H503.2V184.881H505.09V186.113H503.2V190.005C503.2 190.229 503.256 190.404 503.368 190.53C503.48 190.656 503.629 190.719 503.816 190.719C503.923 190.719 504.012 190.707 504.082 190.684C504.157 190.656 504.22 190.628 504.271 190.6C504.327 190.572 504.376 190.546 504.418 190.523C504.46 190.495 504.502 190.481 504.544 190.481C504.595 190.481 504.637 190.495 504.67 190.523C504.703 190.546 504.738 190.584 504.775 190.635L505.293 191.475C505.041 191.685 504.752 191.844 504.425 191.951C504.098 192.058 503.76 192.112 503.41 192.112ZM508.306 181.598V192H506.577V181.598H508.306ZM513.234 184.706C513.686 184.706 514.102 184.778 514.48 184.923C514.862 185.068 515.191 185.28 515.467 185.56C515.742 185.835 515.957 186.176 516.111 186.582C516.265 186.983 516.342 187.443 516.342 187.961C516.342 188.092 516.335 188.201 516.321 188.29C516.311 188.374 516.29 188.442 516.258 188.493C516.23 188.54 516.19 188.575 516.139 188.598C516.087 188.617 516.022 188.626 515.943 188.626H511.505C511.556 189.363 511.754 189.905 512.1 190.25C512.445 190.595 512.902 190.768 513.472 190.768C513.752 190.768 513.992 190.735 514.193 190.67C514.398 190.605 514.575 190.532 514.725 190.453C514.879 190.374 515.012 190.301 515.124 190.236C515.24 190.171 515.352 190.138 515.46 190.138C515.53 190.138 515.59 190.152 515.642 190.18C515.693 190.208 515.737 190.248 515.775 190.299L516.279 190.929C516.087 191.153 515.873 191.342 515.635 191.496C515.397 191.645 515.147 191.767 514.886 191.86C514.629 191.949 514.365 192.012 514.095 192.049C513.829 192.086 513.57 192.105 513.318 192.105C512.818 192.105 512.354 192.023 511.925 191.86C511.495 191.692 511.122 191.447 510.805 191.125C510.487 190.798 510.238 190.397 510.056 189.921C509.874 189.44 509.783 188.885 509.783 188.255C509.783 187.765 509.862 187.305 510.021 186.876C510.179 186.442 510.406 186.066 510.7 185.749C510.998 185.427 511.36 185.173 511.785 184.986C512.214 184.799 512.697 184.706 513.234 184.706ZM513.269 185.945C512.765 185.945 512.37 186.087 512.086 186.372C511.801 186.657 511.619 187.06 511.54 187.583H514.788C514.788 187.359 514.757 187.149 514.697 186.953C514.636 186.752 514.543 186.577 514.417 186.428C514.291 186.279 514.132 186.162 513.941 186.078C513.749 185.989 513.525 185.945 513.269 185.945Z" fill="black"/>
<path d="M149.155 271.878V273.425H146.11V282H144.227V273.425H141.168V271.878H149.155ZM152.091 274.818V282H150.362V274.818H152.091ZM152.35 272.725C152.35 272.874 152.32 273.014 152.259 273.145C152.199 273.276 152.117 273.39 152.014 273.488C151.916 273.586 151.8 273.665 151.664 273.726C151.529 273.782 151.384 273.81 151.23 273.81C151.081 273.81 150.939 273.782 150.803 273.726C150.673 273.665 150.558 273.586 150.46 273.488C150.362 273.39 150.283 273.276 150.222 273.145C150.166 273.014 150.138 272.874 150.138 272.725C150.138 272.571 150.166 272.426 150.222 272.291C150.283 272.156 150.362 272.039 150.46 271.941C150.558 271.843 150.673 271.766 150.803 271.71C150.939 271.649 151.081 271.619 151.23 271.619C151.384 271.619 151.529 271.649 151.664 271.71C151.8 271.766 151.916 271.843 152.014 271.941C152.117 272.039 152.199 272.156 152.259 272.291C152.32 272.426 152.35 272.571 152.35 272.725ZM156.41 282.112C155.789 282.112 155.311 281.937 154.975 281.587C154.639 281.232 154.471 280.745 154.471 280.124V276.113H153.743C153.65 276.113 153.568 276.083 153.498 276.022C153.433 275.961 153.4 275.87 153.4 275.749V275.063L154.555 274.874L154.919 272.914C154.938 272.821 154.98 272.748 155.045 272.697C155.115 272.646 155.201 272.62 155.304 272.62H156.2V274.881H158.09V276.113H156.2V280.005C156.2 280.229 156.256 280.404 156.368 280.53C156.48 280.656 156.629 280.719 156.816 280.719C156.923 280.719 157.012 280.707 157.082 280.684C157.157 280.656 157.22 280.628 157.271 280.6C157.327 280.572 157.376 280.546 157.418 280.523C157.46 280.495 157.502 280.481 157.544 280.481C157.595 280.481 157.637 280.495 157.67 280.523C157.703 280.546 157.738 280.584 157.775 280.635L158.293 281.475C158.041 281.685 157.752 281.844 157.425 281.951C157.098 282.058 156.76 282.112 156.41 282.112ZM161.306 271.598V282H159.577V271.598H161.306ZM166.234 274.706C166.686 274.706 167.102 274.778 167.48 274.923C167.862 275.068 168.191 275.28 168.467 275.56C168.742 275.835 168.957 276.176 169.111 276.582C169.265 276.983 169.342 277.443 169.342 277.961C169.342 278.092 169.335 278.201 169.321 278.29C169.311 278.374 169.29 278.442 169.258 278.493C169.23 278.54 169.19 278.575 169.139 278.598C169.087 278.617 169.022 278.626 168.943 278.626H164.505C164.556 279.363 164.754 279.905 165.1 280.25C165.445 280.595 165.902 280.768 166.472 280.768C166.752 280.768 166.992 280.735 167.193 280.67C167.398 280.605 167.575 280.532 167.725 280.453C167.879 280.374 168.012 280.301 168.124 280.236C168.24 280.171 168.352 280.138 168.46 280.138C168.53 280.138 168.59 280.152 168.642 280.18C168.693 280.208 168.737 280.248 168.775 280.299L169.279 280.929C169.087 281.153 168.873 281.342 168.635 281.496C168.397 281.645 168.147 281.767 167.886 281.86C167.629 281.949 167.365 282.012 167.095 282.049C166.829 282.086 166.57 282.105 166.318 282.105C165.818 282.105 165.354 282.023 164.925 281.86C164.495 281.692 164.122 281.447 163.805 281.125C163.487 280.798 163.238 280.397 163.056 279.921C162.874 279.44 162.783 278.885 162.783 278.255C162.783 277.765 162.862 277.305 163.021 276.876C163.179 276.442 163.406 276.066 163.7 275.749C163.998 275.427 164.36 275.173 164.785 274.986C165.214 274.799 165.697 274.706 166.234 274.706ZM166.269 275.945C165.765 275.945 165.37 276.087 165.086 276.372C164.801 276.657 164.619 277.06 164.54 277.583H167.788C167.788 277.359 167.757 277.149 167.697 276.953C167.636 276.752 167.543 276.577 167.417 276.428C167.291 276.279 167.132 276.162 166.941 276.078C166.749 275.989 166.525 275.945 166.269 275.945Z" fill="black"/>
<path d="M181.971 400.337C181.92 400.402 181.868 400.454 181.817 400.491C181.77 400.528 181.7 400.547 181.607 400.547C181.518 400.547 181.432 400.521 181.348 400.47C181.264 400.414 181.164 400.353 181.047 400.288C180.93 400.218 180.79 400.157 180.627 400.106C180.468 400.05 180.27 400.022 180.032 400.022C179.729 400.022 179.463 400.078 179.234 400.19C179.005 400.297 178.814 400.454 178.66 400.659C178.511 400.864 178.399 401.114 178.324 401.408C178.249 401.697 178.212 402.026 178.212 402.395C178.212 402.778 178.252 403.118 178.331 403.417C178.415 403.716 178.534 403.968 178.688 404.173C178.842 404.374 179.029 404.528 179.248 404.635C179.467 404.738 179.715 404.789 179.99 404.789C180.265 404.789 180.487 404.756 180.655 404.691C180.828 404.621 180.972 404.546 181.089 404.467C181.206 404.383 181.306 404.308 181.39 404.243C181.479 404.173 181.577 404.138 181.684 404.138C181.824 404.138 181.929 404.192 181.999 404.299L182.496 404.929C182.305 405.153 182.097 405.342 181.873 405.496C181.649 405.645 181.416 405.767 181.173 405.86C180.935 405.949 180.688 406.012 180.431 406.049C180.174 406.086 179.92 406.105 179.668 406.105C179.225 406.105 178.807 406.023 178.415 405.86C178.023 405.692 177.68 405.449 177.386 405.132C177.097 404.815 176.866 404.427 176.693 403.97C176.525 403.508 176.441 402.983 176.441 402.395C176.441 401.868 176.516 401.38 176.665 400.932C176.819 400.479 177.043 400.09 177.337 399.763C177.631 399.432 177.995 399.173 178.429 398.986C178.863 398.799 179.362 398.706 179.927 398.706C180.464 398.706 180.933 398.792 181.334 398.965C181.74 399.138 182.104 399.385 182.426 399.707L181.971 400.337ZM183.596 406V395.598H185.325V399.595C185.605 399.329 185.913 399.114 186.249 398.951C186.585 398.788 186.979 398.706 187.432 398.706C187.824 398.706 188.172 398.774 188.475 398.909C188.778 399.04 189.03 399.226 189.231 399.469C189.436 399.707 189.59 399.994 189.693 400.33C189.8 400.661 189.854 401.028 189.854 401.429V406H188.125V401.429C188.125 400.99 188.022 400.652 187.817 400.414C187.616 400.171 187.313 400.05 186.907 400.05C186.608 400.05 186.328 400.118 186.067 400.253C185.806 400.388 185.558 400.573 185.325 400.806V406H183.596ZM194.521 398.706C194.974 398.706 195.389 398.778 195.767 398.923C196.15 399.068 196.479 399.28 196.754 399.56C197.029 399.835 197.244 400.176 197.398 400.582C197.552 400.983 197.629 401.443 197.629 401.961C197.629 402.092 197.622 402.201 197.608 402.29C197.599 402.374 197.578 402.442 197.545 402.493C197.517 402.54 197.477 402.575 197.426 402.598C197.375 402.617 197.309 402.626 197.23 402.626H192.792C192.843 403.363 193.042 403.905 193.387 404.25C193.732 404.595 194.19 404.768 194.759 404.768C195.039 404.768 195.279 404.735 195.48 404.67C195.685 404.605 195.863 404.532 196.012 404.453C196.166 404.374 196.299 404.301 196.411 404.236C196.528 404.171 196.64 404.138 196.747 404.138C196.817 404.138 196.878 404.152 196.929 404.18C196.98 404.208 197.025 404.248 197.062 404.299L197.566 404.929C197.375 405.153 197.16 405.342 196.922 405.496C196.684 405.645 196.434 405.767 196.173 405.86C195.916 405.949 195.653 406.012 195.382 406.049C195.116 406.086 194.857 406.105 194.605 406.105C194.106 406.105 193.641 406.023 193.212 405.86C192.783 405.692 192.409 405.447 192.092 405.125C191.775 404.798 191.525 404.397 191.343 403.921C191.161 403.44 191.07 402.885 191.07 402.255C191.07 401.765 191.149 401.305 191.308 400.876C191.467 400.442 191.693 400.066 191.987 399.749C192.286 399.427 192.647 399.173 193.072 398.986C193.501 398.799 193.984 398.706 194.521 398.706ZM194.556 399.945C194.052 399.945 193.658 400.087 193.373 400.372C193.088 400.657 192.906 401.06 192.827 401.583H196.075C196.075 401.359 196.045 401.149 195.984 400.953C195.923 400.752 195.83 400.577 195.704 400.428C195.578 400.279 195.419 400.162 195.228 400.078C195.037 399.989 194.813 399.945 194.556 399.945ZM204.078 400.337C204.027 400.402 203.976 400.454 203.924 400.491C203.878 400.528 203.808 400.547 203.714 400.547C203.626 400.547 203.539 400.521 203.455 400.47C203.371 400.414 203.271 400.353 203.154 400.288C203.038 400.218 202.898 400.157 202.734 400.106C202.576 400.05 202.377 400.022 202.139 400.022C201.836 400.022 201.57 400.078 201.341 400.19C201.113 400.297 200.921 400.454 200.767 400.659C200.618 400.864 200.506 401.114 200.431 401.408C200.357 401.697 200.319 402.026 200.319 402.395C200.319 402.778 200.359 403.118 200.438 403.417C200.522 403.716 200.641 403.968 200.795 404.173C200.949 404.374 201.136 404.528 201.355 404.635C201.575 404.738 201.822 404.789 202.097 404.789C202.373 404.789 202.594 404.756 202.762 404.691C202.935 404.621 203.08 404.546 203.196 404.467C203.313 404.383 203.413 404.308 203.497 404.243C203.586 404.173 203.684 404.138 203.791 404.138C203.931 404.138 204.036 404.192 204.106 404.299L204.603 404.929C204.412 405.153 204.204 405.342 203.98 405.496C203.756 405.645 203.523 405.767 203.28 405.86C203.042 405.949 202.795 406.012 202.538 406.049C202.282 406.086 202.027 406.105 201.775 406.105C201.332 406.105 200.914 406.023 200.522 405.86C200.13 405.692 199.787 405.449 199.493 405.132C199.204 404.815 198.973 404.427 198.8 403.97C198.632 403.508 198.548 402.983 198.548 402.395C198.548 401.868 198.623 401.38 198.772 400.932C198.926 400.479 199.15 400.09 199.444 399.763C199.738 399.432 200.102 399.173 200.536 398.986C200.97 398.799 201.47 398.706 202.034 398.706C202.571 398.706 203.04 398.792 203.441 398.965C203.847 399.138 204.211 399.385 204.533 399.707L204.078 400.337ZM207.453 395.598V401.555H207.775C207.892 401.555 207.983 401.539 208.048 401.506C208.114 401.473 208.184 401.413 208.258 401.324L210.043 399.119C210.123 399.026 210.207 398.953 210.295 398.902C210.384 398.846 210.501 398.818 210.645 398.818H212.227L209.994 401.485C209.915 401.583 209.833 401.674 209.749 401.758C209.665 401.837 209.574 401.907 209.476 401.968C209.574 402.038 209.661 402.12 209.735 402.213C209.81 402.306 209.885 402.407 209.959 402.514L212.353 406H210.792C210.657 406 210.543 405.977 210.449 405.93C210.356 405.883 210.272 405.804 210.197 405.692L208.37 402.969C208.3 402.862 208.23 402.792 208.16 402.759C208.09 402.726 207.985 402.71 207.845 402.71H207.453V406H205.724V395.598H207.453ZM213.449 406V395.598H215.178V399.7C215.463 399.397 215.785 399.156 216.144 398.979C216.503 398.797 216.923 398.706 217.404 398.706C217.796 398.706 218.153 398.788 218.475 398.951C218.802 399.11 219.082 399.343 219.315 399.651C219.553 399.959 219.735 400.339 219.861 400.792C219.992 401.245 220.057 401.765 220.057 402.353C220.057 402.89 219.985 403.387 219.84 403.844C219.695 404.301 219.488 404.698 219.217 405.034C218.951 405.37 218.627 405.634 218.244 405.825C217.866 406.012 217.441 406.105 216.97 406.105C216.751 406.105 216.55 406.082 216.368 406.035C216.186 405.993 216.02 405.932 215.871 405.853C215.722 405.774 215.582 405.678 215.451 405.566C215.325 405.449 215.204 405.321 215.087 405.181L215.01 405.664C214.982 405.785 214.933 405.872 214.863 405.923C214.798 405.974 214.707 406 214.59 406H213.449ZM216.809 400.05C216.45 400.05 216.142 400.127 215.885 400.281C215.633 400.43 215.397 400.643 215.178 400.918V404.138C215.374 404.381 215.586 404.551 215.815 404.649C216.048 404.742 216.3 404.789 216.571 404.789C216.832 404.789 217.068 404.74 217.278 404.642C217.488 404.544 217.665 404.395 217.81 404.194C217.959 403.993 218.074 403.741 218.153 403.438C218.232 403.13 218.272 402.768 218.272 402.353C218.272 401.933 218.237 401.578 218.167 401.289C218.102 400.995 218.006 400.757 217.88 400.575C217.754 400.393 217.6 400.26 217.418 400.176C217.241 400.092 217.038 400.05 216.809 400.05ZM224.478 398.706C225.015 398.706 225.5 398.792 225.934 398.965C226.373 399.138 226.746 399.383 227.054 399.7C227.362 400.017 227.6 400.405 227.768 400.862C227.936 401.319 228.02 401.83 228.02 402.395C228.02 402.964 227.936 403.478 227.768 403.935C227.6 404.392 227.362 404.782 227.054 405.104C226.746 405.426 226.373 405.673 225.934 405.846C225.5 406.019 225.015 406.105 224.478 406.105C223.942 406.105 223.454 406.019 223.015 405.846C222.577 405.673 222.201 405.426 221.888 405.104C221.58 404.782 221.34 404.392 221.167 403.935C220.999 403.478 220.915 402.964 220.915 402.395C220.915 401.83 220.999 401.319 221.167 400.862C221.34 400.405 221.58 400.017 221.888 399.7C222.201 399.383 222.577 399.138 223.015 398.965C223.454 398.792 223.942 398.706 224.478 398.706ZM224.478 404.775C225.076 404.775 225.517 404.574 225.801 404.173C226.091 403.772 226.235 403.184 226.235 402.409C226.235 401.634 226.091 401.044 225.801 400.638C225.517 400.232 225.076 400.029 224.478 400.029C223.872 400.029 223.424 400.234 223.134 400.645C222.845 401.051 222.7 401.639 222.7 402.409C222.7 403.179 222.845 403.767 223.134 404.173C223.424 404.574 223.872 404.775 224.478 404.775ZM230.646 402.297L228.287 398.818H229.953C230.079 398.818 230.173 398.837 230.233 398.874C230.294 398.907 230.348 398.963 230.394 399.042L231.899 401.443C231.923 401.364 231.951 401.284 231.983 401.205C232.021 401.126 232.065 401.046 232.116 400.967L233.327 399.077C233.383 398.988 233.442 398.923 233.502 398.881C233.563 398.839 233.638 398.818 233.726 398.818H235.315L232.949 402.22L235.413 406H233.747C233.621 406 233.519 405.967 233.439 405.902C233.365 405.837 233.302 405.762 233.25 405.678L231.724 403.179C231.682 403.347 231.624 403.487 231.549 403.599L230.205 405.678C230.154 405.757 230.091 405.832 230.016 405.902C229.942 405.967 229.848 406 229.736 406H228.189L230.646 402.297ZM241.572 406.112C240.951 406.112 240.473 405.937 240.137 405.587C239.801 405.232 239.633 404.745 239.633 404.124V400.113H238.905C238.812 400.113 238.73 400.083 238.66 400.022C238.595 399.961 238.562 399.87 238.562 399.749V399.063L239.717 398.874L240.081 396.914C240.1 396.821 240.142 396.748 240.207 396.697C240.277 396.646 240.363 396.62 240.466 396.62H241.362V398.881H243.252V400.113H241.362V404.005C241.362 404.229 241.418 404.404 241.53 404.53C241.642 404.656 241.791 404.719 241.978 404.719C242.085 404.719 242.174 404.707 242.244 404.684C242.319 404.656 242.382 404.628 242.433 404.6C242.489 404.572 242.538 404.546 242.58 404.523C242.622 404.495 242.664 404.481 242.706 404.481C242.757 404.481 242.799 404.495 242.832 404.523C242.865 404.546 242.9 404.584 242.937 404.635L243.455 405.475C243.203 405.685 242.914 405.844 242.587 405.951C242.26 406.058 241.922 406.112 241.572 406.112ZM246.468 398.818V406H244.739V398.818H246.468ZM246.727 396.725C246.727 396.874 246.697 397.014 246.636 397.145C246.575 397.276 246.494 397.39 246.391 397.488C246.293 397.586 246.176 397.665 246.041 397.726C245.906 397.782 245.761 397.81 245.607 397.81C245.458 397.81 245.315 397.782 245.18 397.726C245.049 397.665 244.935 397.586 244.837 397.488C244.739 397.39 244.66 397.276 244.599 397.145C244.543 397.014 244.515 396.874 244.515 396.725C244.515 396.571 244.543 396.426 244.599 396.291C244.66 396.156 244.739 396.039 244.837 395.941C244.935 395.843 245.049 395.766 245.18 395.71C245.315 395.649 245.458 395.619 245.607 395.619C245.761 395.619 245.906 395.649 246.041 395.71C246.176 395.766 246.293 395.843 246.391 395.941C246.494 396.039 246.575 396.156 246.636 396.291C246.697 396.426 246.727 396.571 246.727 396.725ZM250.787 406.112C250.166 406.112 249.688 405.937 249.352 405.587C249.016 405.232 248.848 404.745 248.848 404.124V400.113H248.12C248.027 400.113 247.945 400.083 247.875 400.022C247.81 399.961 247.777 399.87 247.777 399.749V399.063L248.932 398.874L249.296 396.914C249.315 396.821 249.357 396.748 249.422 396.697C249.492 396.646 249.578 396.62 249.681 396.62H250.577V398.881H252.467V400.113H250.577V404.005C250.577 404.229 250.633 404.404 250.745 404.53C250.857 404.656 251.006 404.719 251.193 404.719C251.3 404.719 251.389 404.707 251.459 404.684C251.534 404.656 251.597 404.628 251.648 404.6C251.704 404.572 251.753 404.546 251.795 404.523C251.837 404.495 251.879 404.481 251.921 404.481C251.972 404.481 252.014 404.495 252.047 404.523C252.08 404.546 252.115 404.584 252.152 404.635L252.67 405.475C252.418 405.685 252.129 405.844 251.802 405.951C251.475 406.058 251.137 406.112 250.787 406.112ZM255.683 395.598V406H253.954V395.598H255.683ZM260.611 398.706C261.063 398.706 261.479 398.778 261.857 398.923C262.239 399.068 262.568 399.28 262.844 399.56C263.119 399.835 263.334 400.176 263.488 400.582C263.642 400.983 263.719 401.443 263.719 401.961C263.719 402.092 263.712 402.201 263.698 402.29C263.688 402.374 263.667 402.442 263.635 402.493C263.607 402.54 263.567 402.575 263.516 402.598C263.464 402.617 263.399 402.626 263.32 402.626H258.882C258.933 403.363 259.131 403.905 259.477 404.25C259.822 404.595 260.279 404.768 260.849 404.768C261.129 404.768 261.369 404.735 261.57 404.67C261.775 404.605 261.952 404.532 262.102 404.453C262.256 404.374 262.389 404.301 262.501 404.236C262.617 404.171 262.729 404.138 262.837 404.138C262.907 404.138 262.967 404.152 263.019 404.18C263.07 404.208 263.114 404.248 263.152 404.299L263.656 404.929C263.464 405.153 263.25 405.342 263.012 405.496C262.774 405.645 262.524 405.767 262.263 405.86C262.006 405.949 261.742 406.012 261.472 406.049C261.206 406.086 260.947 406.105 260.695 406.105C260.195 406.105 259.731 406.023 259.302 405.86C258.872 405.692 258.499 405.447 258.182 405.125C257.864 404.798 257.615 404.397 257.433 403.921C257.251 403.44 257.16 402.885 257.16 402.255C257.16 401.765 257.239 401.305 257.398 400.876C257.556 400.442 257.783 400.066 258.077 399.749C258.375 399.427 258.737 399.173 259.162 398.986C259.591 398.799 260.074 398.706 260.611 398.706ZM260.646 399.945C260.142 399.945 259.747 400.087 259.463 400.372C259.178 400.657 258.996 401.06 258.917 401.583H262.165C262.165 401.359 262.134 401.149 262.074 400.953C262.013 400.752 261.92 400.577 261.794 400.428C261.668 400.279 261.509 400.162 261.318 400.078C261.126 399.989 260.902 399.945 260.646 399.945Z" fill="black"/>
<path d="M496.155 271.878V273.425H493.11V282H491.227V273.425H488.168V271.878H496.155ZM499.091 274.818V282H497.362V274.818H499.091ZM499.35 272.725C499.35 272.874 499.32 273.014 499.259 273.145C499.199 273.276 499.117 273.39 499.014 273.488C498.916 273.586 498.8 273.665 498.664 273.726C498.529 273.782 498.384 273.81 498.23 273.81C498.081 273.81 497.939 273.782 497.803 273.726C497.673 273.665 497.558 273.586 497.46 273.488C497.362 273.39 497.283 273.276 497.222 273.145C497.166 273.014 497.138 272.874 497.138 272.725C497.138 272.571 497.166 272.426 497.222 272.291C497.283 272.156 497.362 272.039 497.46 271.941C497.558 271.843 497.673 271.766 497.803 271.71C497.939 271.649 498.081 271.619 498.23 271.619C498.384 271.619 498.529 271.649 498.664 271.71C498.8 271.766 498.916 271.843 499.014 271.941C499.117 272.039 499.199 272.156 499.259 272.291C499.32 272.426 499.35 272.571 499.35 272.725ZM503.41 282.112C502.789 282.112 502.311 281.937 501.975 281.587C501.639 281.232 501.471 280.745 501.471 280.124V276.113H500.743C500.65 276.113 500.568 276.083 500.498 276.022C500.433 275.961 500.4 275.87 500.4 275.749V275.063L501.555 274.874L501.919 272.914C501.938 272.821 501.98 272.748 502.045 272.697C502.115 272.646 502.201 272.62 502.304 272.62H503.2V274.881H505.09V276.113H503.2V280.005C503.2 280.229 503.256 280.404 503.368 280.53C503.48 280.656 503.629 280.719 503.816 280.719C503.923 280.719 504.012 280.707 504.082 280.684C504.157 280.656 504.22 280.628 504.271 280.6C504.327 280.572 504.376 280.546 504.418 280.523C504.46 280.495 504.502 280.481 504.544 280.481C504.595 280.481 504.637 280.495 504.67 280.523C504.703 280.546 504.738 280.584 504.775 280.635L505.293 281.475C505.041 281.685 504.752 281.844 504.425 281.951C504.098 282.058 503.76 282.112 503.41 282.112ZM508.306 271.598V282H506.577V271.598H508.306ZM513.234 274.706C513.686 274.706 514.102 274.778 514.48 274.923C514.862 275.068 515.191 275.28 515.467 275.56C515.742 275.835 515.957 276.176 516.111 276.582C516.265 276.983 516.342 277.443 516.342 277.961C516.342 278.092 516.335 278.201 516.321 278.29C516.311 278.374 516.29 278.442 516.258 278.493C516.23 278.54 516.19 278.575 516.139 278.598C516.087 278.617 516.022 278.626 515.943 278.626H511.505C511.556 279.363 511.754 279.905 512.1 280.25C512.445 280.595 512.902 280.768 513.472 280.768C513.752 280.768 513.992 280.735 514.193 280.67C514.398 280.605 514.575 280.532 514.725 280.453C514.879 280.374 515.012 280.301 515.124 280.236C515.24 280.171 515.352 280.138 515.46 280.138C515.53 280.138 515.59 280.152 515.642 280.18C515.693 280.208 515.737 280.248 515.775 280.299L516.279 280.929C516.087 281.153 515.873 281.342 515.635 281.496C515.397 281.645 515.147 281.767 514.886 281.86C514.629 281.949 514.365 282.012 514.095 282.049C513.829 282.086 513.57 282.105 513.318 282.105C512.818 282.105 512.354 282.023 511.925 281.86C511.495 281.692 511.122 281.447 510.805 281.125C510.487 280.798 510.238 280.397 510.056 279.921C509.874 279.44 509.783 278.885 509.783 278.255C509.783 277.765 509.862 277.305 510.021 276.876C510.179 276.442 510.406 276.066 510.7 275.749C510.998 275.427 511.36 275.173 511.785 274.986C512.214 274.799 512.697 274.706 513.234 274.706ZM513.269 275.945C512.765 275.945 512.37 276.087 512.086 276.372C511.801 276.657 511.619 277.06 511.54 277.583H514.788C514.788 277.359 514.757 277.149 514.697 276.953C514.636 276.752 514.543 276.577 514.417 276.428C514.291 276.279 514.132 276.162 513.941 276.078C513.749 275.989 513.525 275.945 513.269 275.945Z" fill="black"/>
<path d="M160 392H146C144.89 392 144 392.9 144 394V408C144 409.1 144.89 410 146 410H160C161.11 410 162 409.1 162 408V394C162 392.9 161.11 392 160 392ZM151 406L146 401L147.41 399.59L151 403.17L158.59 395.58L160 397L151 406Z" fill="#279FF6"/>
<path d="M410.811 101.6C410.913 101.792 411.006 101.993 411.09 102.203C411.18 102.407 411.267 102.614 411.351 102.824C411.435 102.608 411.522 102.395 411.612 102.185C411.702 101.975 411.798 101.774 411.9 101.582L415.752 94.373C415.8 94.283 415.848 94.211 415.896 94.157C415.95 94.103 416.007 94.064 416.067 94.04C416.133 94.016 416.205 94.001 416.283 93.995C416.361 93.989 416.454 93.986 416.562 93.986H418.389V107H416.256V98.594C416.256 98.438 416.259 98.267 416.265 98.081C416.277 97.895 416.292 97.706 416.31 97.514L412.377 104.894C412.287 105.062 412.17 105.194 412.026 105.29C411.882 105.38 411.714 105.425 411.522 105.425H411.189C410.997 105.425 410.829 105.38 410.685 105.29C410.541 105.194 410.424 105.062 410.334 104.894L406.347 97.487C406.371 97.685 406.386 97.88 406.392 98.072C406.404 98.258 406.41 98.432 406.41 98.594V107H404.277V93.986H406.104C406.212 93.986 406.305 93.989 406.383 93.995C406.461 94.001 406.53 94.016 406.59 94.04C406.656 94.064 406.716 94.103 406.77 94.157C406.824 94.211 406.875 94.283 406.923 94.373L410.811 101.6ZM424.827 97.622C425.517 97.622 426.141 97.733 426.699 97.955C427.263 98.177 427.743 98.492 428.139 98.9C428.535 99.308 428.841 99.806 429.057 100.394C429.273 100.982 429.381 101.639 429.381 102.365C429.381 103.097 429.273 103.757 429.057 104.345C428.841 104.933 428.535 105.434 428.139 105.848C427.743 106.262 427.263 106.58 426.699 106.802C426.141 107.024 425.517 107.135 424.827 107.135C424.137 107.135 423.51 107.024 422.946 106.802C422.382 106.58 421.899 106.262 421.497 105.848C421.101 105.434 420.792 104.933 420.57 104.345C420.354 103.757 420.246 103.097 420.246 102.365C420.246 101.639 420.354 100.982 420.57 100.394C420.792 99.806 421.101 99.308 421.497 98.9C421.899 98.492 422.382 98.177 422.946 97.955C423.51 97.733 424.137 97.622 424.827 97.622ZM424.827 105.425C425.595 105.425 426.162 105.167 426.528 104.651C426.9 104.135 427.086 103.379 427.086 102.383C427.086 101.387 426.9 100.628 426.528 100.106C426.162 99.584 425.595 99.323 424.827 99.323C424.047 99.323 423.471 99.587 423.099 100.115C422.727 100.637 422.541 101.393 422.541 102.383C422.541 103.373 422.727 104.129 423.099 104.651C423.471 105.167 424.047 105.425 424.827 105.425ZM437.614 107C437.326 107 437.137 106.865 437.047 106.595L436.867 105.704C436.675 105.92 436.474 106.115 436.264 106.289C436.054 106.463 435.826 106.613 435.58 106.739C435.34 106.865 435.079 106.961 434.797 107.027C434.521 107.099 434.221 107.135 433.897 107.135C433.393 107.135 432.931 107.03 432.511 106.82C432.091 106.61 431.728 106.307 431.422 105.911C431.122 105.509 430.888 105.014 430.72 104.426C430.558 103.838 430.477 103.166 430.477 102.41C430.477 101.726 430.57 101.09 430.756 100.502C430.942 99.914 431.209 99.404 431.557 98.972C431.905 98.54 432.322 98.204 432.808 97.964C433.294 97.718 433.84 97.595 434.446 97.595C434.962 97.595 435.403 97.679 435.769 97.847C436.135 98.009 436.462 98.228 436.75 98.504V93.626H438.973V107H437.614ZM434.653 105.371C435.115 105.371 435.508 105.275 435.832 105.083C436.156 104.891 436.462 104.618 436.75 104.264V100.124C436.498 99.818 436.222 99.602 435.922 99.476C435.628 99.35 435.31 99.287 434.968 99.287C434.632 99.287 434.326 99.35 434.05 99.476C433.78 99.602 433.549 99.794 433.357 100.052C433.171 100.304 433.027 100.628 432.925 101.024C432.823 101.414 432.772 101.876 432.772 102.41C432.772 102.95 432.814 103.409 432.898 103.787C432.988 104.159 433.114 104.465 433.276 104.705C433.438 104.939 433.636 105.11 433.87 105.218C434.104 105.32 434.365 105.371 434.653 105.371ZM448.617 107H447.618C447.408 107 447.243 106.97 447.123 106.91C447.003 106.844 446.913 106.715 446.853 106.523L446.655 105.866C446.421 106.076 446.19 106.262 445.962 106.424C445.74 106.58 445.509 106.712 445.269 106.82C445.029 106.928 444.774 107.009 444.504 107.063C444.234 107.117 443.934 107.144 443.604 107.144C443.214 107.144 442.854 107.093 442.524 106.991C442.194 106.883 441.909 106.724 441.669 106.514C441.435 106.304 441.252 106.043 441.12 105.731C440.988 105.419 440.922 105.056 440.922 104.642C440.922 104.294 441.012 103.952 441.192 103.616C441.378 103.274 441.684 102.968 442.11 102.698C442.536 102.422 443.103 102.194 443.811 102.014C444.519 101.834 445.398 101.732 446.448 101.708V101.168C446.448 100.55 446.316 100.094 446.052 99.8C445.794 99.5 445.416 99.35 444.918 99.35C444.558 99.35 444.258 99.392 444.018 99.476C443.778 99.56 443.568 99.656 443.388 99.764C443.214 99.866 443.052 99.959 442.902 100.043C442.752 100.127 442.587 100.169 442.407 100.169C442.257 100.169 442.128 100.13 442.02 100.052C441.912 99.974 441.825 99.878 441.759 99.764L441.354 99.053C442.416 98.081 443.697 97.595 445.197 97.595C445.737 97.595 446.217 97.685 446.637 97.865C447.063 98.039 447.423 98.285 447.717 98.603C448.011 98.915 448.233 99.29 448.383 99.728C448.539 100.166 448.617 100.646 448.617 101.168V107ZM444.297 105.614C444.525 105.614 444.735 105.593 444.927 105.551C445.119 105.509 445.299 105.446 445.467 105.362C445.641 105.278 445.806 105.176 445.962 105.056C446.124 104.93 446.286 104.783 446.448 104.615V103.058C445.8 103.088 445.257 103.145 444.819 103.229C444.387 103.307 444.039 103.409 443.775 103.535C443.511 103.661 443.322 103.808 443.208 103.976C443.1 104.144 443.046 104.327 443.046 104.525C443.046 104.915 443.16 105.194 443.388 105.362C443.622 105.53 443.925 105.614 444.297 105.614ZM453.17 93.626V107H450.947V93.626H453.17ZM468.467 93.986V95.975H464.552V107H462.131V95.975H458.198V93.986H468.467ZM472.243 97.766V107H470.02V97.766H472.243ZM472.576 95.075C472.576 95.267 472.537 95.447 472.459 95.615C472.381 95.783 472.276 95.93 472.144 96.056C472.018 96.182 471.868 96.284 471.694 96.362C471.52 96.434 471.334 96.47 471.136 96.47C470.944 96.47 470.761 96.434 470.587 96.362C470.419 96.284 470.272 96.182 470.146 96.056C470.02 95.93 469.918 95.783 469.84 95.615C469.768 95.447 469.732 95.267 469.732 95.075C469.732 94.877 469.768 94.691 469.84 94.517C469.918 94.343 470.02 94.193 470.146 94.067C470.272 93.941 470.419 93.842 470.587 93.77C470.761 93.692 470.944 93.653 471.136 93.653C471.334 93.653 471.52 93.692 471.694 93.77C471.868 93.842 472.018 93.941 472.144 94.067C472.276 94.193 472.381 94.343 472.459 94.517C472.537 94.691 472.576 94.877 472.576 95.075ZM477.795 107.144C476.997 107.144 476.382 106.919 475.95 106.469C475.518 106.013 475.302 105.386 475.302 104.588V99.431H474.366C474.246 99.431 474.141 99.392 474.051 99.314C473.967 99.236 473.925 99.119 473.925 98.963V98.081L475.41 97.838L475.878 95.318C475.902 95.198 475.956 95.105 476.04 95.039C476.13 94.973 476.241 94.94 476.373 94.94H477.525V97.847H479.955V99.431H477.525V104.435C477.525 104.723 477.597 104.948 477.741 105.11C477.885 105.272 478.077 105.353 478.317 105.353C478.455 105.353 478.569 105.338 478.659 105.308C478.755 105.272 478.836 105.236 478.902 105.2C478.974 105.164 479.037 105.131 479.091 105.101C479.145 105.065 479.199 105.047 479.253 105.047C479.319 105.047 479.373 105.065 479.415 105.101C479.457 105.131 479.502 105.179 479.55 105.245L480.216 106.325C479.892 106.595 479.52 106.799 479.1 106.937C478.68 107.075 478.245 107.144 477.795 107.144ZM484.09 93.626V107H481.867V93.626H484.09ZM490.426 97.622C491.008 97.622 491.542 97.715 492.028 97.901C492.52 98.087 492.943 98.36 493.297 98.72C493.651 99.074 493.927 99.512 494.125 100.034C494.323 100.55 494.422 101.141 494.422 101.807C494.422 101.975 494.413 102.116 494.395 102.23C494.383 102.338 494.356 102.425 494.314 102.491C494.278 102.551 494.227 102.596 494.161 102.626C494.095 102.65 494.011 102.662 493.909 102.662H488.203C488.269 103.61 488.524 104.306 488.968 104.75C489.412 105.194 490 105.416 490.732 105.416C491.092 105.416 491.401 105.374 491.659 105.29C491.923 105.206 492.151 105.113 492.343 105.011C492.541 104.909 492.712 104.816 492.856 104.732C493.006 104.648 493.15 104.606 493.288 104.606C493.378 104.606 493.456 104.624 493.522 104.66C493.588 104.696 493.645 104.747 493.693 104.813L494.341 105.623C494.095 105.911 493.819 106.154 493.513 106.352C493.207 106.544 492.886 106.7 492.55 106.82C492.22 106.934 491.881 107.015 491.533 107.063C491.191 107.111 490.858 107.135 490.534 107.135C489.892 107.135 489.295 107.03 488.743 106.82C488.191 106.604 487.711 106.289 487.303 105.875C486.895 105.455 486.574 104.939 486.34 104.327C486.106 103.709 485.989 102.995 485.989 102.185C485.989 101.555 486.091 100.964 486.295 100.412C486.499 99.854 486.79 99.371 487.168 98.963C487.552 98.549 488.017 98.222 488.563 97.982C489.115 97.742 489.736 97.622 490.426 97.622ZM490.471 99.215C489.823 99.215 489.316 99.398 488.95 99.764C488.584 100.13 488.35 100.649 488.248 101.321H492.424C492.424 101.033 492.385 100.763 492.307 100.511C492.229 100.253 492.109 100.028 491.947 99.836C491.785 99.644 491.581 99.494 491.335 99.386C491.089 99.272 490.801 99.215 490.471 99.215Z" fill="black"/>
<rect x="49.5" y="53.5" width="799" height="499" rx="3.5" stroke="#E9EAEB"/>
</g>
<defs>
<filter id="filter0_d" x="45" y="53" width="808" height="508" filterUnits="userSpaceOnUse" color-interpolation-filters="sRGB">
<feFlood flood-opacity="0" result="BackgroundImageFix"/>
<feColorMatrix in="SourceAlpha" type="matrix" values="0 0 0 0 0 0 0 0 0 0 0 0 0 0 0 0 0 0 127 0"/>
<feOffset dy="4"/>
<feGaussianBlur stdDeviation="2"/>
<feColorMatrix type="matrix" values="0 0 0 0 0 0 0 0 0 0 0 0 0 0 0 0 0 0 0.25 0"/>
<feBlend mode="normal" in2="BackgroundImageFix" result="effect1_dropShadow"/>
<feBlend mode="normal" in="SourceGraphic" in2="effect1_dropShadow" result="shape"/>
</filter>
<filter id="filter1_d" x="749" y="485" width="66" height="40" filterUnits="userSpaceOnUse" color-interpolation-filters="sRGB">
<feFlood flood-opacity="0" result="BackgroundImageFix"/>
<feColorMatrix in="SourceAlpha" type="matrix" values="0 0 0 0 0 0 0 0 0 0 0 0 0 0 0 0 0 0 127 0"/>
<feOffset dy="1"/>
<feGaussianBlur stdDeviation="1"/>
<feColorMatrix type="matrix" values="0 0 0 0 0 0 0 0 0 0 0 0 0 0 0 0 0 0 0.5 0"/>
<feBlend mode="normal" in2="BackgroundImageFix" result="effect1_dropShadow"/>
<feBlend mode="normal" in="SourceGraphic" in2="effect1_dropShadow" result="shape"/>
</filter>
</defs>
</svg>
