<svg width="1000" height="286" viewBox="0 0 1000 286" fill="none" xmlns="http://www.w3.org/2000/svg">
<rect width="1000" height="286" fill="white"/>
<g filter="url(#filter0_d)">
<rect x="49" y="33" width="400" height="200" rx="4" fill="white"/>
<rect x="49" y="33" width="400" height="200" fill="white"/>
<path d="M411.333 56L424.667 69" stroke="#979797" stroke-linecap="square"/>
<path d="M411.333 69L424.667 56" stroke="#979797" stroke-linecap="square"/>
<path d="M76.447 60.719C76.3957 60.8217 76.335 60.894 76.265 60.936C76.1997 60.978 76.1203 60.999 76.027 60.999C75.9337 60.999 75.8287 60.964 75.712 60.894C75.5953 60.8193 75.4577 60.7377 75.299 60.649C75.1403 60.5603 74.9537 60.481 74.739 60.411C74.529 60.3363 74.2793 60.299 73.99 60.299C73.7287 60.299 73.5 60.3317 73.304 60.397C73.1127 60.4577 72.9493 60.544 72.814 60.656C72.6833 60.768 72.5853 60.9033 72.52 61.062C72.4547 61.216 72.422 61.3863 72.422 61.573C72.422 61.811 72.4873 62.0093 72.618 62.168C72.7533 62.3267 72.9307 62.462 73.15 62.574C73.3693 62.686 73.619 62.7863 73.899 62.875C74.179 62.9637 74.4637 63.0593 74.753 63.162C75.047 63.26 75.334 63.3767 75.614 63.512C75.894 63.6427 76.1437 63.8107 76.363 64.016C76.5823 64.2167 76.7573 64.464 76.888 64.758C77.0233 65.052 77.091 65.409 77.091 65.829C77.091 66.2863 77.0117 66.7157 76.853 67.117C76.699 67.5137 76.4703 67.8613 76.167 68.16C75.8683 68.454 75.502 68.6873 75.068 68.86C74.634 69.028 74.137 69.112 73.577 69.112C73.255 69.112 72.9377 69.0793 72.625 69.014C72.3123 68.9533 72.0113 68.8647 71.722 68.748C71.4373 68.6313 71.169 68.4913 70.917 68.328C70.6697 68.1647 70.448 67.9827 70.252 67.782L70.798 66.879C70.8493 66.8137 70.91 66.76 70.98 66.718C71.0547 66.6713 71.1363 66.648 71.225 66.648C71.3417 66.648 71.4677 66.697 71.603 66.795C71.7383 66.8883 71.897 66.9933 72.079 67.11C72.2657 67.2267 72.4827 67.334 72.73 67.432C72.982 67.5253 73.283 67.572 73.633 67.572C74.1697 67.572 74.585 67.446 74.879 67.194C75.173 66.9373 75.32 66.571 75.32 66.095C75.32 65.829 75.2523 65.612 75.117 65.444C74.9863 65.276 74.8113 65.136 74.592 65.024C74.3727 64.9073 74.123 64.8093 73.843 64.73C73.563 64.6507 73.2783 64.5643 72.989 64.471C72.6997 64.3777 72.415 64.2657 72.135 64.135C71.855 64.0043 71.6053 63.834 71.386 63.624C71.1667 63.414 70.9893 63.1527 70.854 62.84C70.7233 62.5227 70.658 62.133 70.658 61.671C70.658 61.3023 70.7303 60.943 70.875 60.593C71.0243 60.243 71.239 59.9327 71.519 59.662C71.8037 59.3913 72.1513 59.1743 72.562 59.011C72.9727 58.8477 73.4417 58.766 73.969 58.766C74.5663 58.766 75.117 58.8593 75.621 59.046C76.125 59.2327 76.5543 59.494 76.909 59.83L76.447 60.719ZM80.9129 64.051H84.5389V65.493H80.9129V64.051ZM94.5452 65.185H95.8192V66.186C95.8192 66.2793 95.7888 66.361 95.7282 66.431C95.6675 66.4963 95.5788 66.529 95.4622 66.529H94.5452V69H93.0332V66.529H88.7632C88.6465 66.529 88.5438 66.494 88.4552 66.424C88.3665 66.3493 88.3105 66.2583 88.2872 66.151L88.1122 65.276L92.9072 58.871H94.5452V65.185ZM93.0332 61.874C93.0332 61.7247 93.0378 61.5637 93.0472 61.391C93.0565 61.2183 93.0728 61.0387 93.0962 60.852L89.9532 65.185H93.0332V61.874ZM103.842 63.939C103.842 64.821 103.747 65.5887 103.555 66.242C103.369 66.8907 103.107 67.4273 102.771 67.852C102.44 68.2767 102.046 68.594 101.588 68.804C101.136 69.0093 100.646 69.112 100.118 69.112C99.5909 69.112 99.1009 69.0093 98.6483 68.804C98.2003 68.594 97.8106 68.2767 97.4793 67.852C97.1479 67.4273 96.8889 66.8907 96.7023 66.242C96.5156 65.5887 96.4223 64.821 96.4223 63.939C96.4223 63.0523 96.5156 62.2847 96.7023 61.636C96.8889 60.9873 97.1479 60.4507 97.4793 60.026C97.8106 59.6013 98.2003 59.2863 98.6483 59.081C99.1009 58.871 99.5909 58.766 100.118 58.766C100.646 58.766 101.136 58.871 101.588 59.081C102.046 59.2863 102.44 59.6013 102.771 60.026C103.107 60.4507 103.369 60.9873 103.555 61.636C103.747 62.2847 103.842 63.0523 103.842 63.939ZM102.057 63.939C102.057 63.2063 102.004 62.5997 101.896 62.119C101.789 61.6383 101.644 61.2557 101.462 60.971C101.285 60.6863 101.08 60.488 100.846 60.376C100.613 60.2593 100.37 60.201 100.118 60.201C99.8709 60.201 99.6306 60.2593 99.3973 60.376C99.1686 60.488 98.9656 60.6863 98.7883 60.971C98.6109 61.2557 98.4686 61.6383 98.3613 62.119C98.2586 62.5997 98.2073 63.2063 98.2073 63.939C98.2073 64.6717 98.2586 65.2783 98.3613 65.759C98.4686 66.2397 98.6109 66.6223 98.7883 66.907C98.9656 67.1917 99.1686 67.3923 99.3973 67.509C99.6306 67.621 99.8709 67.677 100.118 67.677C100.37 67.677 100.613 67.621 100.846 67.509C101.08 67.3923 101.285 67.1917 101.462 66.907C101.644 66.6223 101.789 66.2397 101.896 65.759C102.004 65.2783 102.057 64.6717 102.057 63.939ZM111.963 63.939C111.963 64.821 111.868 65.5887 111.676 66.242C111.49 66.8907 111.228 67.4273 110.892 67.852C110.561 68.2767 110.167 68.594 109.709 68.804C109.257 69.0093 108.767 69.112 108.239 69.112C107.712 69.112 107.222 69.0093 106.769 68.804C106.321 68.594 105.932 68.2767 105.6 67.852C105.269 67.4273 105.01 66.8907 104.823 66.242C104.637 65.5887 104.543 64.821 104.543 63.939C104.543 63.0523 104.637 62.2847 104.823 61.636C105.01 60.9873 105.269 60.4507 105.6 60.026C105.932 59.6013 106.321 59.2863 106.769 59.081C107.222 58.871 107.712 58.766 108.239 58.766C108.767 58.766 109.257 58.871 109.709 59.081C110.167 59.2863 110.561 59.6013 110.892 60.026C111.228 60.4507 111.49 60.9873 111.676 61.636C111.868 62.2847 111.963 63.0523 111.963 63.939ZM110.178 63.939C110.178 63.2063 110.125 62.5997 110.017 62.119C109.91 61.6383 109.765 61.2557 109.583 60.971C109.406 60.6863 109.201 60.488 108.967 60.376C108.734 60.2593 108.491 60.201 108.239 60.201C107.992 60.201 107.752 60.2593 107.518 60.376C107.29 60.488 107.087 60.6863 106.909 60.971C106.732 61.2557 106.59 61.6383 106.482 62.119C106.38 62.5997 106.328 63.2063 106.328 63.939C106.328 64.6717 106.38 65.2783 106.482 65.759C106.59 66.2397 106.732 66.6223 106.909 66.907C107.087 67.1917 107.29 67.3923 107.518 67.509C107.752 67.621 107.992 67.677 108.239 67.677C108.491 67.677 108.734 67.621 108.967 67.509C109.201 67.3923 109.406 67.1917 109.583 66.907C109.765 66.6223 109.91 66.2397 110.017 65.759C110.125 65.2783 110.178 64.6717 110.178 63.939ZM117.646 65.297L115.287 61.818H116.953C117.079 61.818 117.173 61.8367 117.233 61.874C117.294 61.9067 117.348 61.9627 117.394 62.042L118.899 64.443C118.923 64.3637 118.951 64.2843 118.983 64.205C119.021 64.1257 119.065 64.0463 119.116 63.967L120.327 62.077C120.383 61.9883 120.442 61.923 120.502 61.881C120.563 61.839 120.638 61.818 120.726 61.818H122.315L119.949 65.22L122.413 69H120.747C120.621 69 120.519 68.9673 120.439 68.902C120.365 68.8367 120.302 68.762 120.25 68.678L118.724 66.179C118.682 66.347 118.624 66.487 118.549 66.599L117.205 68.678C117.154 68.7573 117.091 68.832 117.016 68.902C116.942 68.9673 116.848 69 116.736 69H115.189L117.646 65.297ZM129.503 58.766C129.97 58.766 130.397 58.836 130.784 58.976C131.171 59.1113 131.503 59.305 131.778 59.557C132.053 59.809 132.268 60.1123 132.422 60.467C132.576 60.8217 132.653 61.216 132.653 61.65C132.653 62.0233 132.597 62.3687 132.485 62.686C132.378 63.0033 132.231 63.3067 132.044 63.596C131.862 63.8853 131.647 64.1653 131.4 64.436C131.153 64.7067 130.894 64.982 130.623 65.262L128.341 67.593C128.565 67.5277 128.784 67.4787 128.999 67.446C129.214 67.4087 129.419 67.39 129.615 67.39H132.212C132.399 67.39 132.546 67.4437 132.653 67.551C132.765 67.6537 132.821 67.7913 132.821 67.964V69H125.877V68.426C125.877 68.3093 125.9 68.188 125.947 68.062C125.998 67.936 126.078 67.8193 126.185 67.712L129.258 64.632C129.515 64.3707 129.743 64.121 129.944 63.883C130.149 63.645 130.32 63.4093 130.455 63.176C130.595 62.9427 130.7 62.707 130.77 62.469C130.845 62.2263 130.882 61.972 130.882 61.706C130.882 61.4633 130.847 61.251 130.777 61.069C130.707 60.8823 130.607 60.726 130.476 60.6C130.345 60.474 130.189 60.3807 130.007 60.32C129.83 60.2547 129.629 60.222 129.405 60.222C128.99 60.222 128.647 60.327 128.376 60.537C128.11 60.747 127.923 61.0293 127.816 61.384C127.765 61.5613 127.688 61.6897 127.585 61.769C127.482 61.8437 127.352 61.881 127.193 61.881C127.123 61.881 127.046 61.874 126.962 61.86L126.052 61.699C126.122 61.2137 126.257 60.789 126.458 60.425C126.659 60.0563 126.908 59.7507 127.207 59.508C127.51 59.2607 127.856 59.0763 128.243 58.955C128.635 58.829 129.055 58.766 129.503 58.766ZM141.18 63.939C141.18 64.821 141.084 65.5887 140.893 66.242C140.706 66.8907 140.445 67.4273 140.109 67.852C139.778 68.2767 139.383 68.594 138.926 68.804C138.473 69.0093 137.983 69.112 137.456 69.112C136.929 69.112 136.439 69.0093 135.986 68.804C135.538 68.594 135.148 68.2767 134.817 67.852C134.486 67.4273 134.227 66.8907 134.04 66.242C133.853 65.5887 133.76 64.821 133.76 63.939C133.76 63.0523 133.853 62.2847 134.04 61.636C134.227 60.9873 134.486 60.4507 134.817 60.026C135.148 59.6013 135.538 59.2863 135.986 59.081C136.439 58.871 136.929 58.766 137.456 58.766C137.983 58.766 138.473 58.871 138.926 59.081C139.383 59.2863 139.778 59.6013 140.109 60.026C140.445 60.4507 140.706 60.9873 140.893 61.636C141.084 62.2847 141.18 63.0523 141.18 63.939ZM139.395 63.939C139.395 63.2063 139.341 62.5997 139.234 62.119C139.127 61.6383 138.982 61.2557 138.8 60.971C138.623 60.6863 138.417 60.488 138.184 60.376C137.951 60.2593 137.708 60.201 137.456 60.201C137.209 60.201 136.968 60.2593 136.735 60.376C136.506 60.488 136.303 60.6863 136.126 60.971C135.949 61.2557 135.806 61.6383 135.699 62.119C135.596 62.5997 135.545 63.2063 135.545 63.939C135.545 64.6717 135.596 65.2783 135.699 65.759C135.806 66.2397 135.949 66.6223 136.126 66.907C136.303 67.1917 136.506 67.3923 136.735 67.509C136.968 67.621 137.209 67.677 137.456 67.677C137.708 67.677 137.951 67.621 138.184 67.509C138.417 67.3923 138.623 67.1917 138.8 66.907C138.982 66.6223 139.127 66.2397 139.234 65.759C139.341 65.2783 139.395 64.6717 139.395 63.939ZM149.301 63.939C149.301 64.821 149.206 65.5887 149.014 66.242C148.828 66.8907 148.566 67.4273 148.23 67.852C147.899 68.2767 147.505 68.594 147.047 68.804C146.595 69.0093 146.105 69.112 145.577 69.112C145.05 69.112 144.56 69.0093 144.107 68.804C143.659 68.594 143.27 68.2767 142.938 67.852C142.607 67.4273 142.348 66.8907 142.161 66.242C141.975 65.5887 141.881 64.821 141.881 63.939C141.881 63.0523 141.975 62.2847 142.161 61.636C142.348 60.9873 142.607 60.4507 142.938 60.026C143.27 59.6013 143.659 59.2863 144.107 59.081C144.56 58.871 145.05 58.766 145.577 58.766C146.105 58.766 146.595 58.871 147.047 59.081C147.505 59.2863 147.899 59.6013 148.23 60.026C148.566 60.4507 148.828 60.9873 149.014 61.636C149.206 62.2847 149.301 63.0523 149.301 63.939ZM147.516 63.939C147.516 63.2063 147.463 62.5997 147.355 62.119C147.248 61.6383 147.103 61.2557 146.921 60.971C146.744 60.6863 146.539 60.488 146.305 60.376C146.072 60.2593 145.829 60.201 145.577 60.201C145.33 60.201 145.09 60.2593 144.856 60.376C144.628 60.488 144.425 60.6863 144.247 60.971C144.07 61.2557 143.928 61.6383 143.82 62.119C143.718 62.5997 143.666 63.2063 143.666 63.939C143.666 64.6717 143.718 65.2783 143.82 65.759C143.928 66.2397 144.07 66.6223 144.247 66.907C144.425 67.1917 144.628 67.3923 144.856 67.509C145.09 67.621 145.33 67.677 145.577 67.677C145.829 67.677 146.072 67.621 146.305 67.509C146.539 67.3923 146.744 67.1917 146.921 66.907C147.103 66.6223 147.248 66.2397 147.355 65.759C147.463 65.2783 147.516 64.6717 147.516 63.939Z" fill="#A7ABB1"/>
<rect x="121.5" y="113.5" width="255" height="35" rx="3.5" stroke="#A7ABB1"/>
<path d="M129.155 85.878V87.425H126.11V96H124.227V87.425H121.168V85.878H129.155ZM132.091 88.818V96H130.362V88.818H132.091ZM132.35 86.725C132.35 86.8743 132.32 87.0143 132.259 87.145C132.199 87.2757 132.117 87.39 132.014 87.488C131.916 87.586 131.8 87.6653 131.664 87.726C131.529 87.782 131.384 87.81 131.23 87.81C131.081 87.81 130.939 87.782 130.803 87.726C130.673 87.6653 130.558 87.586 130.46 87.488C130.362 87.39 130.283 87.2757 130.222 87.145C130.166 87.0143 130.138 86.8743 130.138 86.725C130.138 86.571 130.166 86.4263 130.222 86.291C130.283 86.1557 130.362 86.039 130.46 85.941C130.558 85.843 130.673 85.766 130.803 85.71C130.939 85.6493 131.081 85.619 131.23 85.619C131.384 85.619 131.529 85.6493 131.664 85.71C131.8 85.766 131.916 85.843 132.014 85.941C132.117 86.039 132.199 86.1557 132.259 86.291C132.32 86.4263 132.35 86.571 132.35 86.725ZM136.41 96.112C135.789 96.112 135.311 95.937 134.975 95.587C134.639 95.2323 134.471 94.7447 134.471 94.124V90.113H133.743C133.65 90.113 133.568 90.0827 133.498 90.022C133.433 89.9613 133.4 89.8703 133.4 89.749V89.063L134.555 88.874L134.919 86.914C134.938 86.8207 134.98 86.7483 135.045 86.697C135.115 86.6457 135.201 86.62 135.304 86.62H136.2V88.881H138.09V90.113H136.2V94.005C136.2 94.229 136.256 94.404 136.368 94.53C136.48 94.656 136.629 94.719 136.816 94.719C136.923 94.719 137.012 94.7073 137.082 94.684C137.157 94.656 137.22 94.628 137.271 94.6C137.327 94.572 137.376 94.5463 137.418 94.523C137.46 94.495 137.502 94.481 137.544 94.481C137.595 94.481 137.637 94.495 137.67 94.523C137.703 94.5463 137.738 94.5837 137.775 94.635L138.293 95.475C138.041 95.685 137.752 95.8437 137.425 95.951C137.098 96.0583 136.76 96.112 136.41 96.112ZM141.306 85.598V96H139.577V85.598H141.306ZM146.234 88.706C146.686 88.706 147.102 88.7783 147.48 88.923C147.862 89.0677 148.191 89.28 148.467 89.56C148.742 89.8353 148.957 90.176 149.111 90.582C149.265 90.9833 149.342 91.443 149.342 91.961C149.342 92.0917 149.335 92.2013 149.321 92.29C149.311 92.374 149.29 92.4417 149.258 92.493C149.23 92.5397 149.19 92.5747 149.139 92.598C149.087 92.6167 149.022 92.626 148.943 92.626H144.505C144.556 93.3633 144.754 93.9047 145.1 94.25C145.445 94.5953 145.902 94.768 146.472 94.768C146.752 94.768 146.992 94.7353 147.193 94.67C147.398 94.6047 147.575 94.5323 147.725 94.453C147.879 94.3737 148.012 94.3013 148.124 94.236C148.24 94.1707 148.352 94.138 148.46 94.138C148.53 94.138 148.59 94.152 148.642 94.18C148.693 94.208 148.737 94.2477 148.775 94.299L149.279 94.929C149.087 95.153 148.873 95.342 148.635 95.496C148.397 95.6453 148.147 95.7667 147.886 95.86C147.629 95.9487 147.365 96.0117 147.095 96.049C146.829 96.0863 146.57 96.105 146.318 96.105C145.818 96.105 145.354 96.0233 144.925 95.86C144.495 95.692 144.122 95.447 143.805 95.125C143.487 94.7983 143.238 94.397 143.056 93.921C142.874 93.4403 142.783 92.885 142.783 92.255C142.783 91.765 142.862 91.3053 143.021 90.876C143.179 90.442 143.406 90.0663 143.7 89.749C143.998 89.427 144.36 89.1727 144.785 88.986C145.214 88.7993 145.697 88.706 146.234 88.706ZM146.269 89.945C145.765 89.945 145.37 90.0873 145.086 90.372C144.801 90.6567 144.619 91.0603 144.54 91.583H147.788C147.788 91.359 147.757 91.149 147.697 90.953C147.636 90.7523 147.543 90.5773 147.417 90.428C147.291 90.2787 147.132 90.162 146.941 90.078C146.749 89.9893 146.525 89.945 146.269 89.945Z" fill="black"/>
<g filter="url(#filter1_d)">
<path d="M363 182C363 179.791 364.791 178 367 178H421C423.209 178 425 179.791 425 182V210C425 212.209 423.209 214 421 214H367C364.791 214 363 212.209 363 210V182Z" fill="#279FF6"/>
<path d="M385.447 193.219C385.396 193.322 385.335 193.394 385.265 193.436C385.2 193.478 385.12 193.499 385.027 193.499C384.934 193.499 384.829 193.464 384.712 193.394C384.595 193.319 384.458 193.238 384.299 193.149C384.14 193.06 383.954 192.981 383.739 192.911C383.529 192.836 383.279 192.799 382.99 192.799C382.729 192.799 382.5 192.832 382.304 192.897C382.113 192.958 381.949 193.044 381.814 193.156C381.683 193.268 381.585 193.403 381.52 193.562C381.455 193.716 381.422 193.886 381.422 194.073C381.422 194.311 381.487 194.509 381.618 194.668C381.753 194.827 381.931 194.962 382.15 195.074C382.369 195.186 382.619 195.286 382.899 195.375C383.179 195.464 383.464 195.559 383.753 195.662C384.047 195.76 384.334 195.877 384.614 196.012C384.894 196.143 385.144 196.311 385.363 196.516C385.582 196.717 385.757 196.964 385.888 197.258C386.023 197.552 386.091 197.909 386.091 198.329C386.091 198.786 386.012 199.216 385.853 199.617C385.699 200.014 385.47 200.361 385.167 200.66C384.868 200.954 384.502 201.187 384.068 201.36C383.634 201.528 383.137 201.612 382.577 201.612C382.255 201.612 381.938 201.579 381.625 201.514C381.312 201.453 381.011 201.365 380.722 201.248C380.437 201.131 380.169 200.991 379.917 200.828C379.67 200.665 379.448 200.483 379.252 200.282L379.798 199.379C379.849 199.314 379.91 199.26 379.98 199.218C380.055 199.171 380.136 199.148 380.225 199.148C380.342 199.148 380.468 199.197 380.603 199.295C380.738 199.388 380.897 199.493 381.079 199.61C381.266 199.727 381.483 199.834 381.73 199.932C381.982 200.025 382.283 200.072 382.633 200.072C383.17 200.072 383.585 199.946 383.879 199.694C384.173 199.437 384.32 199.071 384.32 198.595C384.32 198.329 384.252 198.112 384.117 197.944C383.986 197.776 383.811 197.636 383.592 197.524C383.373 197.407 383.123 197.309 382.843 197.23C382.563 197.151 382.278 197.064 381.989 196.971C381.7 196.878 381.415 196.766 381.135 196.635C380.855 196.504 380.605 196.334 380.386 196.124C380.167 195.914 379.989 195.653 379.854 195.34C379.723 195.023 379.658 194.633 379.658 194.171C379.658 193.802 379.73 193.443 379.875 193.093C380.024 192.743 380.239 192.433 380.519 192.162C380.804 191.891 381.151 191.674 381.562 191.511C381.973 191.348 382.442 191.266 382.969 191.266C383.566 191.266 384.117 191.359 384.621 191.546C385.125 191.733 385.554 191.994 385.909 192.33L385.447 193.219ZM393.058 201.5H392.281C392.118 201.5 391.989 201.477 391.896 201.43C391.803 201.379 391.733 201.278 391.686 201.129L391.532 200.618C391.35 200.781 391.17 200.926 390.993 201.052C390.82 201.173 390.641 201.276 390.454 201.36C390.267 201.444 390.069 201.507 389.859 201.549C389.649 201.591 389.416 201.612 389.159 201.612C388.856 201.612 388.576 201.572 388.319 201.493C388.062 201.409 387.841 201.285 387.654 201.122C387.472 200.959 387.33 200.756 387.227 200.513C387.124 200.27 387.073 199.988 387.073 199.666C387.073 199.395 387.143 199.129 387.283 198.868C387.428 198.602 387.666 198.364 387.997 198.154C388.328 197.939 388.769 197.762 389.32 197.622C389.871 197.482 390.554 197.403 391.371 197.384V196.964C391.371 196.483 391.268 196.129 391.063 195.9C390.862 195.667 390.568 195.55 390.181 195.55C389.901 195.55 389.668 195.583 389.481 195.648C389.294 195.713 389.131 195.788 388.991 195.872C388.856 195.951 388.73 196.024 388.613 196.089C388.496 196.154 388.368 196.187 388.228 196.187C388.111 196.187 388.011 196.157 387.927 196.096C387.843 196.035 387.775 195.961 387.724 195.872L387.409 195.319C388.235 194.563 389.231 194.185 390.398 194.185C390.818 194.185 391.191 194.255 391.518 194.395C391.849 194.53 392.129 194.722 392.358 194.969C392.587 195.212 392.759 195.503 392.876 195.844C392.997 196.185 393.058 196.558 393.058 196.964V201.5ZM389.698 200.422C389.875 200.422 390.039 200.406 390.188 200.373C390.337 200.34 390.477 200.291 390.608 200.226C390.743 200.161 390.872 200.081 390.993 199.988C391.119 199.89 391.245 199.776 391.371 199.645V198.434C390.867 198.457 390.445 198.502 390.104 198.567C389.768 198.628 389.497 198.707 389.292 198.805C389.087 198.903 388.94 199.017 388.851 199.148C388.767 199.279 388.725 199.421 388.725 199.575C388.725 199.878 388.814 200.095 388.991 200.226C389.173 200.357 389.409 200.422 389.698 200.422ZM398.11 201.5H396.542L393.686 194.318H395.121C395.247 194.318 395.352 194.348 395.436 194.409C395.525 194.47 395.585 194.547 395.618 194.64L397.004 198.476C397.083 198.7 397.149 198.919 397.2 199.134C397.256 199.349 397.305 199.563 397.347 199.778C397.389 199.563 397.436 199.349 397.487 199.134C397.543 198.919 397.613 198.7 397.697 198.476L399.118 194.64C399.151 194.547 399.209 194.47 399.293 194.409C399.377 194.348 399.477 194.318 399.594 194.318H400.959L398.11 201.5ZM404.712 194.206C405.165 194.206 405.58 194.278 405.958 194.423C406.341 194.568 406.67 194.78 406.945 195.06C407.221 195.335 407.435 195.676 407.589 196.082C407.743 196.483 407.82 196.943 407.82 197.461C407.82 197.592 407.813 197.701 407.799 197.79C407.79 197.874 407.769 197.942 407.736 197.993C407.708 198.04 407.669 198.075 407.617 198.098C407.566 198.117 407.501 198.126 407.421 198.126H402.983C403.035 198.863 403.233 199.405 403.578 199.75C403.924 200.095 404.381 200.268 404.95 200.268C405.23 200.268 405.471 200.235 405.671 200.17C405.877 200.105 406.054 200.032 406.203 199.953C406.357 199.874 406.49 199.801 406.602 199.736C406.719 199.671 406.831 199.638 406.938 199.638C407.008 199.638 407.069 199.652 407.12 199.68C407.172 199.708 407.216 199.748 407.253 199.799L407.757 200.429C407.566 200.653 407.351 200.842 407.113 200.996C406.875 201.145 406.626 201.267 406.364 201.36C406.108 201.449 405.844 201.512 405.573 201.549C405.307 201.586 405.048 201.605 404.796 201.605C404.297 201.605 403.833 201.523 403.403 201.36C402.974 201.192 402.601 200.947 402.283 200.625C401.966 200.298 401.716 199.897 401.534 199.421C401.352 198.94 401.261 198.385 401.261 197.755C401.261 197.265 401.341 196.805 401.499 196.376C401.658 195.942 401.884 195.566 402.178 195.249C402.477 194.927 402.839 194.673 403.263 194.486C403.693 194.299 404.176 194.206 404.712 194.206ZM404.747 195.445C404.243 195.445 403.849 195.587 403.564 195.872C403.28 196.157 403.098 196.56 403.018 197.083H406.266C406.266 196.859 406.236 196.649 406.175 196.453C406.115 196.252 406.021 196.077 405.895 195.928C405.769 195.779 405.611 195.662 405.419 195.578C405.228 195.489 405.004 195.445 404.747 195.445Z" fill="white"/>
</g>
<path d="M295.98 199.113C296.083 199.113 296.171 199.153 296.246 199.232L296.988 200.037C296.577 200.546 296.071 200.935 295.469 201.206C294.872 201.477 294.153 201.612 293.313 201.612C292.562 201.612 291.885 201.484 291.283 201.227C290.686 200.97 290.175 200.613 289.75 200.156C289.325 199.699 288.999 199.153 288.77 198.518C288.546 197.883 288.434 197.19 288.434 196.439C288.434 195.678 288.56 194.983 288.812 194.353C289.064 193.718 289.419 193.172 289.876 192.715C290.333 192.258 290.879 191.903 291.514 191.651C292.153 191.394 292.858 191.266 293.628 191.266C294.379 191.266 295.035 191.387 295.595 191.63C296.16 191.868 296.643 192.185 297.044 192.582L296.414 193.457C296.377 193.513 296.328 193.562 296.267 193.604C296.211 193.646 296.132 193.667 296.029 193.667C295.922 193.667 295.812 193.625 295.7 193.541C295.588 193.457 295.446 193.366 295.273 193.268C295.1 193.17 294.881 193.079 294.615 192.995C294.354 192.911 294.02 192.869 293.614 192.869C293.138 192.869 292.699 192.953 292.298 193.121C291.901 193.284 291.558 193.52 291.269 193.828C290.984 194.136 290.76 194.512 290.597 194.955C290.438 195.394 290.359 195.888 290.359 196.439C290.359 197.008 290.438 197.515 290.597 197.958C290.76 198.401 290.98 198.775 291.255 199.078C291.53 199.381 291.855 199.615 292.228 199.778C292.601 199.937 293.003 200.016 293.432 200.016C293.689 200.016 293.92 200.002 294.125 199.974C294.335 199.946 294.526 199.902 294.699 199.841C294.876 199.78 295.042 199.703 295.196 199.61C295.355 199.512 295.511 199.393 295.665 199.253C295.712 199.211 295.761 199.178 295.812 199.155C295.863 199.127 295.919 199.113 295.98 199.113ZM303.945 201.5H303.168C303.004 201.5 302.876 201.477 302.783 201.43C302.689 201.379 302.619 201.278 302.573 201.129L302.419 200.618C302.237 200.781 302.057 200.926 301.88 201.052C301.707 201.173 301.527 201.276 301.341 201.36C301.154 201.444 300.956 201.507 300.746 201.549C300.536 201.591 300.302 201.612 300.046 201.612C299.742 201.612 299.462 201.572 299.206 201.493C298.949 201.409 298.727 201.285 298.541 201.122C298.359 200.959 298.216 200.756 298.114 200.513C298.011 200.27 297.96 199.988 297.96 199.666C297.96 199.395 298.03 199.129 298.17 198.868C298.314 198.602 298.552 198.364 298.884 198.154C299.215 197.939 299.656 197.762 300.207 197.622C300.757 197.482 301.441 197.403 302.258 197.384V196.964C302.258 196.483 302.155 196.129 301.95 195.9C301.749 195.667 301.455 195.55 301.068 195.55C300.788 195.55 300.554 195.583 300.368 195.648C300.181 195.713 300.018 195.788 299.878 195.872C299.742 195.951 299.616 196.024 299.5 196.089C299.383 196.154 299.255 196.187 299.115 196.187C298.998 196.187 298.898 196.157 298.814 196.096C298.73 196.035 298.662 195.961 298.611 195.872L298.296 195.319C299.122 194.563 300.118 194.185 301.285 194.185C301.705 194.185 302.078 194.255 302.405 194.395C302.736 194.53 303.016 194.722 303.245 194.969C303.473 195.212 303.646 195.503 303.763 195.844C303.884 196.185 303.945 196.558 303.945 196.964V201.5ZM300.585 200.422C300.762 200.422 300.925 200.406 301.075 200.373C301.224 200.34 301.364 200.291 301.495 200.226C301.63 200.161 301.758 200.081 301.88 199.988C302.006 199.89 302.132 199.776 302.258 199.645V198.434C301.754 198.457 301.331 198.502 300.991 198.567C300.655 198.628 300.384 198.707 300.179 198.805C299.973 198.903 299.826 199.017 299.738 199.148C299.654 199.279 299.612 199.421 299.612 199.575C299.612 199.878 299.7 200.095 299.878 200.226C300.06 200.357 300.295 200.422 300.585 200.422ZM305.645 201.5V194.318H306.702C306.926 194.318 307.073 194.423 307.143 194.633L307.262 195.2C307.406 195.051 307.558 194.915 307.717 194.794C307.88 194.673 308.05 194.568 308.228 194.479C308.41 194.39 308.603 194.323 308.809 194.276C309.014 194.229 309.238 194.206 309.481 194.206C309.873 194.206 310.22 194.274 310.524 194.409C310.827 194.54 311.079 194.726 311.28 194.969C311.485 195.207 311.639 195.494 311.742 195.83C311.849 196.161 311.903 196.528 311.903 196.929V201.5H310.174V196.929C310.174 196.49 310.071 196.152 309.866 195.914C309.665 195.671 309.362 195.55 308.956 195.55C308.657 195.55 308.377 195.618 308.116 195.753C307.854 195.888 307.607 196.073 307.374 196.306V201.5H305.645ZM318.649 195.837C318.597 195.902 318.546 195.954 318.495 195.991C318.448 196.028 318.378 196.047 318.285 196.047C318.196 196.047 318.11 196.021 318.026 195.97C317.942 195.914 317.841 195.853 317.725 195.788C317.608 195.718 317.468 195.657 317.305 195.606C317.146 195.55 316.948 195.522 316.71 195.522C316.406 195.522 316.14 195.578 315.912 195.69C315.683 195.797 315.492 195.954 315.338 196.159C315.188 196.364 315.076 196.614 315.002 196.908C314.927 197.197 314.89 197.526 314.89 197.895C314.89 198.278 314.929 198.618 315.009 198.917C315.093 199.216 315.212 199.468 315.366 199.673C315.52 199.874 315.706 200.028 315.926 200.135C316.145 200.238 316.392 200.289 316.668 200.289C316.943 200.289 317.165 200.256 317.333 200.191C317.505 200.121 317.65 200.046 317.767 199.967C317.883 199.883 317.984 199.808 318.068 199.743C318.156 199.673 318.254 199.638 318.362 199.638C318.502 199.638 318.607 199.692 318.677 199.799L319.174 200.429C318.982 200.653 318.775 200.842 318.551 200.996C318.327 201.145 318.093 201.267 317.851 201.36C317.613 201.449 317.365 201.512 317.109 201.549C316.852 201.586 316.598 201.605 316.346 201.605C315.902 201.605 315.485 201.523 315.093 201.36C314.701 201.192 314.358 200.949 314.064 200.632C313.774 200.315 313.543 199.927 313.371 199.47C313.203 199.008 313.119 198.483 313.119 197.895C313.119 197.368 313.193 196.88 313.343 196.432C313.497 195.979 313.721 195.59 314.015 195.263C314.309 194.932 314.673 194.673 315.107 194.486C315.541 194.299 316.04 194.206 316.605 194.206C317.141 194.206 317.61 194.292 318.012 194.465C318.418 194.638 318.782 194.885 319.104 195.207L318.649 195.837ZM323.242 194.206C323.694 194.206 324.11 194.278 324.488 194.423C324.87 194.568 325.199 194.78 325.475 195.06C325.75 195.335 325.965 195.676 326.119 196.082C326.273 196.483 326.35 196.943 326.35 197.461C326.35 197.592 326.343 197.701 326.329 197.79C326.319 197.874 326.298 197.942 326.266 197.993C326.238 198.04 326.198 198.075 326.147 198.098C326.095 198.117 326.03 198.126 325.951 198.126H321.513C321.564 198.863 321.762 199.405 322.108 199.75C322.453 200.095 322.91 200.268 323.48 200.268C323.76 200.268 324 200.235 324.201 200.17C324.406 200.105 324.583 200.032 324.733 199.953C324.887 199.874 325.02 199.801 325.132 199.736C325.248 199.671 325.36 199.638 325.468 199.638C325.538 199.638 325.598 199.652 325.65 199.68C325.701 199.708 325.745 199.748 325.783 199.799L326.287 200.429C326.095 200.653 325.881 200.842 325.643 200.996C325.405 201.145 325.155 201.267 324.894 201.36C324.637 201.449 324.373 201.512 324.103 201.549C323.837 201.586 323.578 201.605 323.326 201.605C322.826 201.605 322.362 201.523 321.933 201.36C321.503 201.192 321.13 200.947 320.813 200.625C320.495 200.298 320.246 199.897 320.064 199.421C319.882 198.94 319.791 198.385 319.791 197.755C319.791 197.265 319.87 196.805 320.029 196.376C320.187 195.942 320.414 195.566 320.708 195.249C321.006 194.927 321.368 194.673 321.793 194.486C322.222 194.299 322.705 194.206 323.242 194.206ZM323.277 195.445C322.773 195.445 322.378 195.587 322.094 195.872C321.809 196.157 321.627 196.56 321.548 197.083H324.796C324.796 196.859 324.765 196.649 324.705 196.453C324.644 196.252 324.551 196.077 324.425 195.928C324.299 195.779 324.14 195.662 323.949 195.578C323.757 195.489 323.533 195.445 323.277 195.445ZM329.593 191.098V201.5H327.864V191.098H329.593Z" fill="#279FF6"/>
<path d="M276 179H343V177H276V179ZM346 182V210H348V182H346ZM343 213H276V215H343V213ZM273 210V182H271V210H273ZM276 213C274.343 213 273 211.657 273 210H271C271 212.761 273.239 215 276 215V213ZM346 210C346 211.657 344.657 213 343 213V215C345.761 215 348 212.761 348 210H346ZM343 179C344.657 179 346 180.343 346 182H348C348 179.239 345.761 177 343 177V179ZM276 177C273.239 177 271 179.239 271 182H273C273 180.343 274.343 179 276 179V177Z" fill="#279FF6"/>
<path d="M203.811 67.6C203.913 67.792 204.006 67.993 204.09 68.203C204.18 68.407 204.267 68.614 204.351 68.824C204.435 68.608 204.522 68.395 204.612 68.185C204.702 67.975 204.798 67.774 204.9 67.582L208.752 60.373C208.8 60.283 208.848 60.211 208.896 60.157C208.95 60.103 209.007 60.064 209.067 60.04C209.133 60.016 209.205 60.001 209.283 59.995C209.361 59.989 209.454 59.986 209.562 59.986H211.389V73H209.256V64.594C209.256 64.438 209.259 64.267 209.265 64.081C209.277 63.895 209.292 63.706 209.31 63.514L205.377 70.894C205.287 71.062 205.17 71.194 205.026 71.29C204.882 71.38 204.714 71.425 204.522 71.425H204.189C203.997 71.425 203.829 71.38 203.685 71.29C203.541 71.194 203.424 71.062 203.334 70.894L199.347 63.487C199.371 63.685 199.386 63.88 199.392 64.072C199.404 64.258 199.41 64.432 199.41 64.594V73H197.277V59.986H199.104C199.212 59.986 199.305 59.989 199.383 59.995C199.461 60.001 199.53 60.016 199.59 60.04C199.656 60.064 199.716 60.103 199.77 60.157C199.824 60.211 199.875 60.283 199.923 60.373L203.811 67.6ZM217.827 63.622C218.517 63.622 219.141 63.733 219.699 63.955C220.263 64.177 220.743 64.492 221.139 64.9C221.535 65.308 221.841 65.806 222.057 66.394C222.273 66.982 222.381 67.639 222.381 68.365C222.381 69.097 222.273 69.757 222.057 70.345C221.841 70.933 221.535 71.434 221.139 71.848C220.743 72.262 220.263 72.58 219.699 72.802C219.141 73.024 218.517 73.135 217.827 73.135C217.137 73.135 216.51 73.024 215.946 72.802C215.382 72.58 214.899 72.262 214.497 71.848C214.101 71.434 213.792 70.933 213.57 70.345C213.354 69.757 213.246 69.097 213.246 68.365C213.246 67.639 213.354 66.982 213.57 66.394C213.792 65.806 214.101 65.308 214.497 64.9C214.899 64.492 215.382 64.177 215.946 63.955C216.51 63.733 217.137 63.622 217.827 63.622ZM217.827 71.425C218.595 71.425 219.162 71.167 219.528 70.651C219.9 70.135 220.086 69.379 220.086 68.383C220.086 67.387 219.9 66.628 219.528 66.106C219.162 65.584 218.595 65.323 217.827 65.323C217.047 65.323 216.471 65.587 216.099 66.115C215.727 66.637 215.541 67.393 215.541 68.383C215.541 69.373 215.727 70.129 216.099 70.651C216.471 71.167 217.047 71.425 217.827 71.425ZM230.614 73C230.326 73 230.137 72.865 230.047 72.595L229.867 71.704C229.675 71.92 229.474 72.115 229.264 72.289C229.054 72.463 228.826 72.613 228.58 72.739C228.34 72.865 228.079 72.961 227.797 73.027C227.521 73.099 227.221 73.135 226.897 73.135C226.393 73.135 225.931 73.03 225.511 72.82C225.091 72.61 224.728 72.307 224.422 71.911C224.122 71.509 223.888 71.014 223.72 70.426C223.558 69.838 223.477 69.166 223.477 68.41C223.477 67.726 223.57 67.09 223.756 66.502C223.942 65.914 224.209 65.404 224.557 64.972C224.905 64.54 225.322 64.204 225.808 63.964C226.294 63.718 226.84 63.595 227.446 63.595C227.962 63.595 228.403 63.679 228.769 63.847C229.135 64.009 229.462 64.228 229.75 64.504V59.626H231.973V73H230.614ZM227.653 71.371C228.115 71.371 228.508 71.275 228.832 71.083C229.156 70.891 229.462 70.618 229.75 70.264V66.124C229.498 65.818 229.222 65.602 228.922 65.476C228.628 65.35 228.31 65.287 227.968 65.287C227.632 65.287 227.326 65.35 227.05 65.476C226.78 65.602 226.549 65.794 226.357 66.052C226.171 66.304 226.027 66.628 225.925 67.024C225.823 67.414 225.772 67.876 225.772 68.41C225.772 68.95 225.814 69.409 225.898 69.787C225.988 70.159 226.114 70.465 226.276 70.705C226.438 70.939 226.636 71.11 226.87 71.218C227.104 71.32 227.365 71.371 227.653 71.371ZM241.617 73H240.618C240.408 73 240.243 72.97 240.123 72.91C240.003 72.844 239.913 72.715 239.853 72.523L239.655 71.866C239.421 72.076 239.19 72.262 238.962 72.424C238.74 72.58 238.509 72.712 238.269 72.82C238.029 72.928 237.774 73.009 237.504 73.063C237.234 73.117 236.934 73.144 236.604 73.144C236.214 73.144 235.854 73.093 235.524 72.991C235.194 72.883 234.909 72.724 234.669 72.514C234.435 72.304 234.252 72.043 234.12 71.731C233.988 71.419 233.922 71.056 233.922 70.642C233.922 70.294 234.012 69.952 234.192 69.616C234.378 69.274 234.684 68.968 235.11 68.698C235.536 68.422 236.103 68.194 236.811 68.014C237.519 67.834 238.398 67.732 239.448 67.708V67.168C239.448 66.55 239.316 66.094 239.052 65.8C238.794 65.5 238.416 65.35 237.918 65.35C237.558 65.35 237.258 65.392 237.018 65.476C236.778 65.56 236.568 65.656 236.388 65.764C236.214 65.866 236.052 65.959 235.902 66.043C235.752 66.127 235.587 66.169 235.407 66.169C235.257 66.169 235.128 66.13 235.02 66.052C234.912 65.974 234.825 65.878 234.759 65.764L234.354 65.053C235.416 64.081 236.697 63.595 238.197 63.595C238.737 63.595 239.217 63.685 239.637 63.865C240.063 64.039 240.423 64.285 240.717 64.603C241.011 64.915 241.233 65.29 241.383 65.728C241.539 66.166 241.617 66.646 241.617 67.168V73ZM237.297 71.614C237.525 71.614 237.735 71.593 237.927 71.551C238.119 71.509 238.299 71.446 238.467 71.362C238.641 71.278 238.806 71.176 238.962 71.056C239.124 70.93 239.286 70.783 239.448 70.615V69.058C238.8 69.088 238.257 69.145 237.819 69.229C237.387 69.307 237.039 69.409 236.775 69.535C236.511 69.661 236.322 69.808 236.208 69.976C236.1 70.144 236.046 70.327 236.046 70.525C236.046 70.915 236.16 71.194 236.388 71.362C236.622 71.53 236.925 71.614 237.297 71.614ZM246.17 59.626V73H243.947V59.626H246.17ZM261.467 59.986V61.975H257.552V73H255.131V61.975H251.198V59.986H261.467ZM265.243 63.766V73H263.02V63.766H265.243ZM265.576 61.075C265.576 61.267 265.537 61.447 265.459 61.615C265.381 61.783 265.276 61.93 265.144 62.056C265.018 62.182 264.868 62.284 264.694 62.362C264.52 62.434 264.334 62.47 264.136 62.47C263.944 62.47 263.761 62.434 263.587 62.362C263.419 62.284 263.272 62.182 263.146 62.056C263.02 61.93 262.918 61.783 262.84 61.615C262.768 61.447 262.732 61.267 262.732 61.075C262.732 60.877 262.768 60.691 262.84 60.517C262.918 60.343 263.02 60.193 263.146 60.067C263.272 59.941 263.419 59.842 263.587 59.77C263.761 59.692 263.944 59.653 264.136 59.653C264.334 59.653 264.52 59.692 264.694 59.77C264.868 59.842 265.018 59.941 265.144 60.067C265.276 60.193 265.381 60.343 265.459 60.517C265.537 60.691 265.576 60.877 265.576 61.075ZM270.795 73.144C269.997 73.144 269.382 72.919 268.95 72.469C268.518 72.013 268.302 71.386 268.302 70.588V65.431H267.366C267.246 65.431 267.141 65.392 267.051 65.314C266.967 65.236 266.925 65.119 266.925 64.963V64.081L268.41 63.838L268.878 61.318C268.902 61.198 268.956 61.105 269.04 61.039C269.13 60.973 269.241 60.94 269.373 60.94H270.525V63.847H272.955V65.431H270.525V70.435C270.525 70.723 270.597 70.948 270.741 71.11C270.885 71.272 271.077 71.353 271.317 71.353C271.455 71.353 271.569 71.338 271.659 71.308C271.755 71.272 271.836 71.236 271.902 71.2C271.974 71.164 272.037 71.131 272.091 71.101C272.145 71.065 272.199 71.047 272.253 71.047C272.319 71.047 272.373 71.065 272.415 71.101C272.457 71.131 272.502 71.179 272.55 71.245L273.216 72.325C272.892 72.595 272.52 72.799 272.1 72.937C271.68 73.075 271.245 73.144 270.795 73.144ZM277.09 59.626V73H274.867V59.626H277.09ZM283.426 63.622C284.008 63.622 284.542 63.715 285.028 63.901C285.52 64.087 285.943 64.36 286.297 64.72C286.651 65.074 286.927 65.512 287.125 66.034C287.323 66.55 287.422 67.141 287.422 67.807C287.422 67.975 287.413 68.116 287.395 68.23C287.383 68.338 287.356 68.425 287.314 68.491C287.278 68.551 287.227 68.596 287.161 68.626C287.095 68.65 287.011 68.662 286.909 68.662H281.203C281.269 69.61 281.524 70.306 281.968 70.75C282.412 71.194 283 71.416 283.732 71.416C284.092 71.416 284.401 71.374 284.659 71.29C284.923 71.206 285.151 71.113 285.343 71.011C285.541 70.909 285.712 70.816 285.856 70.732C286.006 70.648 286.15 70.606 286.288 70.606C286.378 70.606 286.456 70.624 286.522 70.66C286.588 70.696 286.645 70.747 286.693 70.813L287.341 71.623C287.095 71.911 286.819 72.154 286.513 72.352C286.207 72.544 285.886 72.7 285.55 72.82C285.22 72.934 284.881 73.015 284.533 73.063C284.191 73.111 283.858 73.135 283.534 73.135C282.892 73.135 282.295 73.03 281.743 72.82C281.191 72.604 280.711 72.289 280.303 71.875C279.895 71.455 279.574 70.939 279.34 70.327C279.106 69.709 278.989 68.995 278.989 68.185C278.989 67.555 279.091 66.964 279.295 66.412C279.499 65.854 279.79 65.371 280.168 64.963C280.552 64.549 281.017 64.222 281.563 63.982C282.115 63.742 282.736 63.622 283.426 63.622ZM283.471 65.215C282.823 65.215 282.316 65.398 281.95 65.764C281.584 66.13 281.35 66.649 281.248 67.321H285.424C285.424 67.033 285.385 66.763 285.307 66.511C285.229 66.253 285.109 66.028 284.947 65.836C284.785 65.644 284.581 65.494 284.335 65.386C284.089 65.272 283.801 65.215 283.471 65.215Z" fill="black"/>
<rect x="49.5" y="33.5" width="399" height="199" rx="3.5" stroke="#E9EAEB"/>
</g>
<defs>
<filter id="filter0_d" x="45" y="33" width="408" height="208" filterUnits="userSpaceOnUse" color-interpolation-filters="sRGB">
<feFlood flood-opacity="0" result="BackgroundImageFix"/>
<feColorMatrix in="SourceAlpha" type="matrix" values="0 0 0 0 0 0 0 0 0 0 0 0 0 0 0 0 0 0 127 0"/>
<feOffset dy="4"/>
<feGaussianBlur stdDeviation="2"/>
<feColorMatrix type="matrix" values="0 0 0 0 0 0 0 0 0 0 0 0 0 0 0 0 0 0 0.25 0"/>
<feBlend mode="normal" in2="BackgroundImageFix" result="effect1_dropShadow"/>
<feBlend mode="normal" in="SourceGraphic" in2="effect1_dropShadow" result="shape"/>
</filter>
<filter id="filter1_d" x="361" y="177" width="66" height="40" filterUnits="userSpaceOnUse" color-interpolation-filters="sRGB">
<feFlood flood-opacity="0" result="BackgroundImageFix"/>
<feColorMatrix in="SourceAlpha" type="matrix" values="0 0 0 0 0 0 0 0 0 0 0 0 0 0 0 0 0 0 127 0"/>
<feOffset dy="1"/>
<feGaussianBlur stdDeviation="1"/>
<feColorMatrix type="matrix" values="0 0 0 0 0 0 0 0 0 0 0 0 0 0 0 0 0 0 0.5 0"/>
<feBlend mode="normal" in2="BackgroundImageFix" result="effect1_dropShadow"/>
<feBlend mode="normal" in="SourceGraphic" in2="effect1_dropShadow" result="shape"/>
</filter>
</defs>
</svg>
