<svg width="1000" height="319" viewBox="0 0 1000 319" fill="none" xmlns="http://www.w3.org/2000/svg">
<rect width="1000" height="319" fill="white"/>
<path d="M109.95 165.74V176H107.48V165.74H109.95ZM110.32 162.75C110.32 162.963 110.277 163.163 110.19 163.35C110.103 163.537 109.987 163.7 109.84 163.84C109.7 163.98 109.533 164.093 109.34 164.18C109.147 164.26 108.94 164.3 108.72 164.3C108.507 164.3 108.303 164.26 108.11 164.18C107.923 164.093 107.76 163.98 107.62 163.84C107.48 163.7 107.367 163.537 107.28 163.35C107.2 163.163 107.16 162.963 107.16 162.75C107.16 162.53 107.2 162.323 107.28 162.13C107.367 161.937 107.48 161.77 107.62 161.63C107.76 161.49 107.923 161.38 108.11 161.3C108.303 161.213 108.507 161.17 108.72 161.17C108.94 161.17 109.147 161.213 109.34 161.3C109.533 161.38 109.7 161.49 109.84 161.63C109.987 161.77 110.103 161.937 110.19 162.13C110.277 162.323 110.32 162.53 110.32 162.75ZM115.67 170.91V176H112.98V161.54H117.69C118.656 161.54 119.493 161.653 120.2 161.88C120.906 162.107 121.49 162.423 121.95 162.83C122.41 163.237 122.75 163.723 122.97 164.29C123.19 164.857 123.3 165.477 123.3 166.15C123.3 166.85 123.183 167.493 122.95 168.08C122.716 168.66 122.366 169.16 121.9 169.58C121.433 170 120.85 170.327 120.15 170.56C119.45 170.793 118.63 170.91 117.69 170.91H115.67ZM115.67 168.81H117.69C118.183 168.81 118.613 168.75 118.98 168.63C119.346 168.503 119.65 168.327 119.89 168.1C120.13 167.867 120.31 167.587 120.43 167.26C120.55 166.927 120.61 166.557 120.61 166.15C120.61 165.763 120.55 165.413 120.43 165.1C120.31 164.787 120.13 164.52 119.89 164.3C119.65 164.08 119.346 163.913 118.98 163.8C118.613 163.68 118.183 163.62 117.69 163.62H115.67V168.81ZM132.782 176H131.672C131.439 176 131.255 175.967 131.122 175.9C130.989 175.827 130.889 175.683 130.822 175.47L130.602 174.74C130.342 174.973 130.085 175.18 129.832 175.36C129.585 175.533 129.329 175.68 129.062 175.8C128.795 175.92 128.512 176.01 128.212 176.07C127.912 176.13 127.579 176.16 127.212 176.16C126.779 176.16 126.379 176.103 126.012 175.99C125.645 175.87 125.329 175.693 125.062 175.46C124.802 175.227 124.599 174.937 124.452 174.59C124.305 174.243 124.232 173.84 124.232 173.38C124.232 172.993 124.332 172.613 124.532 172.24C124.739 171.86 125.079 171.52 125.552 171.22C126.025 170.913 126.655 170.66 127.442 170.46C128.229 170.26 129.205 170.147 130.372 170.12V169.52C130.372 168.833 130.225 168.327 129.932 168C129.645 167.667 129.225 167.5 128.672 167.5C128.272 167.5 127.939 167.547 127.672 167.64C127.405 167.733 127.172 167.84 126.972 167.96C126.779 168.073 126.599 168.177 126.432 168.27C126.265 168.363 126.082 168.41 125.882 168.41C125.715 168.41 125.572 168.367 125.452 168.28C125.332 168.193 125.235 168.087 125.162 167.96L124.712 167.17C125.892 166.09 127.315 165.55 128.982 165.55C129.582 165.55 130.115 165.65 130.582 165.85C131.055 166.043 131.455 166.317 131.782 166.67C132.109 167.017 132.355 167.433 132.522 167.92C132.695 168.407 132.782 168.94 132.782 169.52V176ZM127.982 174.46C128.235 174.46 128.469 174.437 128.682 174.39C128.895 174.343 129.095 174.273 129.282 174.18C129.475 174.087 129.659 173.973 129.832 173.84C130.012 173.7 130.192 173.537 130.372 173.35V171.62C129.652 171.653 129.049 171.717 128.562 171.81C128.082 171.897 127.695 172.01 127.402 172.15C127.109 172.29 126.899 172.453 126.772 172.64C126.652 172.827 126.592 173.03 126.592 173.25C126.592 173.683 126.719 173.993 126.972 174.18C127.232 174.367 127.569 174.46 127.982 174.46ZM142.431 176C142.111 176 141.901 175.85 141.801 175.55L141.601 174.56C141.387 174.8 141.164 175.017 140.931 175.21C140.697 175.403 140.444 175.57 140.171 175.71C139.904 175.85 139.614 175.957 139.301 176.03C138.994 176.11 138.661 176.15 138.301 176.15C137.741 176.15 137.227 176.033 136.761 175.8C136.294 175.567 135.891 175.23 135.551 174.79C135.217 174.343 134.957 173.793 134.771 173.14C134.591 172.487 134.501 171.74 134.501 170.9C134.501 170.14 134.604 169.433 134.811 168.78C135.017 168.127 135.314 167.56 135.701 167.08C136.087 166.6 136.551 166.227 137.091 165.96C137.631 165.687 138.237 165.55 138.911 165.55C139.484 165.55 139.974 165.643 140.381 165.83C140.787 166.01 141.151 166.253 141.471 166.56V161.14H143.941V176H142.431ZM139.141 174.19C139.654 174.19 140.091 174.083 140.451 173.87C140.811 173.657 141.151 173.353 141.471 172.96V168.36C141.191 168.02 140.884 167.78 140.551 167.64C140.224 167.5 139.871 167.43 139.491 167.43C139.117 167.43 138.777 167.5 138.471 167.64C138.171 167.78 137.914 167.993 137.701 168.28C137.494 168.56 137.334 168.92 137.221 169.36C137.107 169.793 137.051 170.307 137.051 170.9C137.051 171.5 137.097 172.01 137.191 172.43C137.291 172.843 137.431 173.183 137.611 173.45C137.791 173.71 138.011 173.9 138.271 174.02C138.531 174.133 138.821 174.19 139.141 174.19ZM157.884 170C157.997 170.213 158.101 170.437 158.194 170.67C158.294 170.897 158.391 171.127 158.484 171.36C158.577 171.12 158.674 170.883 158.774 170.65C158.874 170.417 158.981 170.193 159.094 169.98L163.374 161.97C163.427 161.87 163.481 161.79 163.534 161.73C163.594 161.67 163.657 161.627 163.724 161.6C163.797 161.573 163.877 161.557 163.964 161.55C164.051 161.543 164.154 161.54 164.274 161.54H166.304V176H163.934V166.66C163.934 166.487 163.937 166.297 163.944 166.09C163.957 165.883 163.974 165.673 163.994 165.46L159.624 173.66C159.524 173.847 159.394 173.993 159.234 174.1C159.074 174.2 158.887 174.25 158.674 174.25H158.304C158.091 174.25 157.904 174.2 157.744 174.1C157.584 173.993 157.454 173.847 157.354 173.66L152.924 165.43C152.951 165.65 152.967 165.867 152.974 166.08C152.987 166.287 152.994 166.48 152.994 166.66V176H150.624V161.54H152.654C152.774 161.54 152.877 161.543 152.964 161.55C153.051 161.557 153.127 161.573 153.194 161.6C153.267 161.627 153.334 161.67 153.394 161.73C153.454 161.79 153.511 161.87 153.564 161.97L157.884 170ZM171.708 165.74V176H169.238V165.74H171.708ZM172.078 162.75C172.078 162.963 172.034 163.163 171.948 163.35C171.861 163.537 171.744 163.7 171.598 163.84C171.458 163.98 171.291 164.093 171.098 164.18C170.904 164.26 170.698 164.3 170.478 164.3C170.264 164.3 170.061 164.26 169.868 164.18C169.681 164.093 169.518 163.98 169.378 163.84C169.238 163.7 169.124 163.537 169.038 163.35C168.958 163.163 168.918 162.963 168.918 162.75C168.918 162.53 168.958 162.323 169.038 162.13C169.124 161.937 169.238 161.77 169.378 161.63C169.518 161.49 169.681 161.38 169.868 161.3C170.061 161.213 170.264 161.17 170.478 161.17C170.698 161.17 170.904 161.213 171.098 161.3C171.291 161.38 171.458 161.49 171.598 161.63C171.744 161.77 171.861 161.937 171.948 162.13C172.034 162.323 172.078 162.53 172.078 162.75ZM174.507 176V165.74H176.018C176.338 165.74 176.548 165.89 176.648 166.19L176.818 167C177.024 166.787 177.241 166.593 177.468 166.42C177.701 166.247 177.944 166.097 178.198 165.97C178.458 165.843 178.734 165.747 179.028 165.68C179.321 165.613 179.641 165.58 179.988 165.58C180.548 165.58 181.044 165.677 181.478 165.87C181.911 166.057 182.271 166.323 182.558 166.67C182.851 167.01 183.071 167.42 183.218 167.9C183.371 168.373 183.448 168.897 183.448 169.47V176H180.978V169.47C180.978 168.843 180.831 168.36 180.538 168.02C180.251 167.673 179.818 167.5 179.238 167.5C178.811 167.5 178.411 167.597 178.038 167.79C177.664 167.983 177.311 168.247 176.978 168.58V176H174.507ZM188.505 165.74V176H186.035V165.74H188.505ZM188.875 162.75C188.875 162.963 188.831 163.163 188.745 163.35C188.658 163.537 188.541 163.7 188.395 163.84C188.255 163.98 188.088 164.093 187.895 164.18C187.701 164.26 187.495 164.3 187.275 164.3C187.061 164.3 186.858 164.26 186.665 164.18C186.478 164.093 186.315 163.98 186.175 163.84C186.035 163.7 185.921 163.537 185.835 163.35C185.755 163.163 185.715 162.963 185.715 162.75C185.715 162.53 185.755 162.323 185.835 162.13C185.921 161.937 186.035 161.77 186.175 161.63C186.315 161.49 186.478 161.38 186.665 161.3C186.858 161.213 187.061 161.17 187.275 161.17C187.495 161.17 187.701 161.213 187.895 161.3C188.088 161.38 188.255 161.49 188.395 161.63C188.541 161.77 188.658 161.937 188.745 162.13C188.831 162.323 188.875 162.53 188.875 162.75Z" fill="black"/>
<path d="M113.046 187.685V188.205C113.046 188.353 113.029 188.474 112.994 188.569C112.964 188.665 112.931 188.745 112.897 188.81L109.042 196.59C108.986 196.703 108.908 196.801 108.808 196.883C108.708 196.961 108.574 197 108.405 197H107.58L111.493 189.317C111.549 189.209 111.605 189.109 111.662 189.018C111.722 188.927 111.789 188.84 111.863 188.758H107.001C106.927 188.758 106.86 188.73 106.8 188.673C106.743 188.613 106.715 188.546 106.715 188.472V187.685H113.046ZM114.113 196.285C114.113 196.172 114.133 196.066 114.172 195.966C114.215 195.867 114.271 195.78 114.341 195.706C114.414 195.633 114.501 195.574 114.601 195.531C114.7 195.488 114.806 195.466 114.919 195.466C115.032 195.466 115.138 195.488 115.238 195.531C115.337 195.574 115.424 195.633 115.498 195.706C115.571 195.78 115.628 195.867 115.667 195.966C115.71 196.066 115.732 196.172 115.732 196.285C115.732 196.402 115.71 196.51 115.667 196.61C115.628 196.705 115.571 196.79 115.498 196.863C115.424 196.937 115.337 196.993 115.238 197.033C115.138 197.076 115.032 197.098 114.919 197.098C114.806 197.098 114.7 197.076 114.601 197.033C114.501 196.993 114.414 196.937 114.341 196.863C114.271 196.79 114.215 196.705 114.172 196.61C114.133 196.51 114.113 196.402 114.113 196.285ZM119.864 193.178C119.513 193.178 119.18 193.119 118.863 193.002C118.551 192.885 118.276 192.714 118.038 192.489C117.8 192.259 117.609 191.98 117.466 191.65C117.327 191.317 117.258 190.935 117.258 190.506C117.258 190.099 117.334 189.718 117.485 189.362C117.637 189.007 117.849 188.697 118.122 188.433C118.395 188.169 118.72 187.961 119.097 187.809C119.474 187.657 119.888 187.581 120.339 187.581C120.785 187.581 121.19 187.655 121.554 187.802C121.918 187.95 122.23 188.156 122.49 188.42C122.75 188.684 122.95 189.001 123.088 189.369C123.231 189.737 123.303 190.145 123.303 190.591C123.303 190.86 123.277 191.115 123.225 191.358C123.177 191.596 123.106 191.83 123.01 192.06C122.915 192.29 122.8 192.519 122.666 192.749C122.536 192.974 122.386 193.208 122.217 193.451L119.949 196.727C119.893 196.809 119.812 196.876 119.708 196.928C119.604 196.976 119.485 197 119.351 197H118.285L121.119 193.288C121.214 193.163 121.303 193.044 121.385 192.931C121.468 192.818 121.546 192.706 121.619 192.593C121.381 192.784 121.112 192.929 120.813 193.028C120.514 193.128 120.198 193.178 119.864 193.178ZM122.191 190.454C122.191 190.164 122.144 189.902 122.048 189.668C121.957 189.43 121.83 189.228 121.665 189.063C121.5 188.899 121.303 188.773 121.073 188.686C120.848 188.595 120.599 188.55 120.326 188.55C120.04 188.55 119.778 188.598 119.539 188.693C119.305 188.784 119.104 188.912 118.935 189.076C118.77 189.241 118.642 189.438 118.551 189.668C118.46 189.898 118.415 190.149 118.415 190.422C118.415 190.717 118.456 190.981 118.538 191.215C118.625 191.445 118.746 191.64 118.902 191.8C119.063 191.96 119.256 192.082 119.481 192.164C119.711 192.246 119.966 192.287 120.248 192.287C120.56 192.287 120.835 192.238 121.073 192.138C121.316 192.034 121.52 191.897 121.684 191.728C121.849 191.559 121.975 191.364 122.061 191.143C122.148 190.922 122.191 190.693 122.191 190.454ZM125.598 187.198C125.724 187.406 125.815 187.614 125.871 187.822C125.928 188.03 125.956 188.238 125.956 188.446C125.956 188.84 125.858 189.217 125.663 189.577C125.473 189.932 125.206 190.259 124.864 190.558L124.506 190.337C124.472 190.316 124.448 190.292 124.435 190.266C124.426 190.24 124.422 190.214 124.422 190.188C124.422 190.127 124.444 190.075 124.487 190.032C124.556 189.95 124.623 189.861 124.688 189.765C124.753 189.666 124.812 189.564 124.864 189.46C124.916 189.352 124.957 189.239 124.987 189.122C125.018 189.005 125.033 188.881 125.033 188.751C125.033 188.613 125.011 188.47 124.968 188.322C124.929 188.175 124.86 188.019 124.76 187.854C124.73 187.807 124.714 187.759 124.714 187.711C124.714 187.607 124.773 187.532 124.89 187.484L125.598 187.198ZM127.574 187.198C127.7 187.406 127.791 187.614 127.847 187.822C127.904 188.03 127.932 188.238 127.932 188.446C127.932 188.84 127.834 189.217 127.639 189.577C127.449 189.932 127.182 190.259 126.84 190.558L126.482 190.337C126.448 190.316 126.424 190.292 126.411 190.266C126.402 190.24 126.398 190.214 126.398 190.188C126.398 190.127 126.42 190.075 126.463 190.032C126.532 189.95 126.599 189.861 126.664 189.765C126.729 189.666 126.788 189.564 126.84 189.46C126.892 189.352 126.933 189.239 126.963 189.122C126.994 189.005 127.009 188.881 127.009 188.751C127.009 188.613 126.987 188.47 126.944 188.322C126.905 188.175 126.836 188.019 126.736 187.854C126.706 187.807 126.69 187.759 126.69 187.711C126.69 187.607 126.749 187.532 126.866 187.484L127.574 187.198Z" fill="#696B6F"/>
<path d="M461.579 174.804C461.284 174.804 461.02 174.735 460.786 174.596C460.556 174.457 460.396 174.234 460.305 173.926C460.049 174.238 459.779 174.462 459.493 174.596C459.207 174.73 458.899 174.797 458.57 174.797C458.297 174.797 458.058 174.75 457.855 174.654C457.655 174.559 457.486 174.429 457.348 174.264C457.213 174.095 457.111 173.898 457.042 173.673C456.977 173.443 456.945 173.194 456.945 172.925C456.945 172.678 456.975 172.429 457.036 172.178C457.101 171.922 457.196 171.677 457.322 171.443C457.447 171.205 457.603 170.984 457.79 170.78C457.98 170.572 458.203 170.393 458.459 170.241C458.715 170.085 459.001 169.964 459.317 169.877C459.633 169.786 459.984 169.74 460.37 169.74C460.704 169.74 460.99 169.766 461.228 169.818C461.466 169.87 461.696 169.944 461.917 170.039L461.293 172.451C461.224 172.728 461.189 172.96 461.189 173.146C461.189 173.276 461.204 173.385 461.235 173.471C461.269 173.558 461.313 173.627 461.365 173.679C461.421 173.731 461.488 173.768 461.566 173.79C461.644 173.807 461.729 173.816 461.82 173.816C462.002 173.816 462.173 173.76 462.333 173.647C462.498 173.53 462.641 173.367 462.762 173.159C462.883 172.951 462.979 172.704 463.048 172.419C463.122 172.132 463.159 171.82 463.159 171.482C463.159 170.919 463.07 170.423 462.892 169.994C462.719 169.565 462.474 169.207 462.158 168.921C461.846 168.631 461.471 168.414 461.033 168.271C460.595 168.124 460.117 168.05 459.597 168.05C459.029 168.05 458.5 168.159 458.011 168.375C457.525 168.588 457.103 168.88 456.743 169.253C456.388 169.626 456.108 170.065 455.905 170.572C455.705 171.079 455.606 171.625 455.606 172.21C455.606 172.921 455.716 173.547 455.937 174.089C456.158 174.626 456.461 175.077 456.847 175.441C457.233 175.801 457.686 176.072 458.206 176.254C458.73 176.436 459.295 176.527 459.902 176.527C460.236 176.527 460.548 176.507 460.838 176.468C461.128 176.433 461.395 176.384 461.638 176.319C461.88 176.258 462.101 176.186 462.301 176.104C462.5 176.026 462.678 175.941 462.834 175.85C462.92 175.803 462.994 175.779 463.055 175.779C463.18 175.779 463.269 175.848 463.321 175.987L463.542 176.566C463.091 176.86 462.565 177.101 461.963 177.287C461.36 177.473 460.673 177.567 459.902 177.567C459.118 177.567 458.392 177.443 457.725 177.196C457.057 176.949 456.479 176.594 455.989 176.13C455.504 175.671 455.122 175.109 454.845 174.446C454.572 173.783 454.436 173.038 454.436 172.21C454.436 171.747 454.494 171.296 454.611 170.858C454.732 170.421 454.904 170.011 455.125 169.63C455.346 169.244 455.612 168.891 455.924 168.57C456.236 168.25 456.583 167.975 456.964 167.745C457.345 167.515 457.757 167.338 458.199 167.212C458.645 167.082 459.111 167.017 459.597 167.017C460.212 167.017 460.801 167.121 461.365 167.329C461.932 167.533 462.433 167.827 462.866 168.213C463.304 168.594 463.653 169.062 463.913 169.617C464.173 170.167 464.303 170.789 464.303 171.482C464.303 171.946 464.233 172.382 464.095 172.789C463.96 173.192 463.77 173.543 463.523 173.842C463.28 174.141 462.992 174.377 462.658 174.55C462.329 174.719 461.969 174.804 461.579 174.804ZM458.888 173.764C459.001 173.764 459.113 173.747 459.226 173.712C459.343 173.677 459.454 173.617 459.558 173.53C459.662 173.439 459.757 173.32 459.844 173.172C459.93 173.025 460.002 172.841 460.058 172.62L460.532 170.787C460.394 170.761 460.251 170.748 460.104 170.748C459.835 170.748 459.584 170.806 459.35 170.923C459.116 171.04 458.912 171.199 458.739 171.398C458.57 171.597 458.435 171.827 458.336 172.087C458.236 172.343 458.186 172.609 458.186 172.886C458.186 173.164 458.245 173.38 458.362 173.536C458.483 173.688 458.658 173.764 458.888 173.764ZM468.602 166.497C469.036 166.497 469.432 166.562 469.792 166.692C470.152 166.818 470.459 166.997 470.715 167.231C470.971 167.465 471.17 167.747 471.313 168.076C471.456 168.406 471.527 168.772 471.527 169.175C471.527 169.522 471.475 169.842 471.371 170.137C471.272 170.432 471.135 170.713 470.962 170.982C470.793 171.251 470.594 171.511 470.364 171.762C470.134 172.013 469.894 172.269 469.642 172.529L467.523 174.693C467.731 174.633 467.935 174.587 468.134 174.557C468.334 174.522 468.524 174.505 468.706 174.505H471.118C471.291 174.505 471.428 174.555 471.527 174.654C471.631 174.75 471.683 174.878 471.683 175.038V176H465.235V175.467C465.235 175.359 465.257 175.246 465.3 175.129C465.348 175.012 465.422 174.904 465.521 174.804L468.375 171.944C468.613 171.701 468.826 171.469 469.012 171.248C469.203 171.027 469.361 170.809 469.486 170.592C469.616 170.375 469.714 170.156 469.779 169.935C469.848 169.71 469.883 169.474 469.883 169.227C469.883 169.002 469.85 168.804 469.785 168.635C469.72 168.462 469.627 168.317 469.506 168.2C469.385 168.083 469.239 167.996 469.07 167.94C468.906 167.879 468.719 167.849 468.511 167.849C468.126 167.849 467.807 167.946 467.556 168.141C467.309 168.336 467.136 168.599 467.036 168.928C466.988 169.093 466.917 169.212 466.821 169.286C466.726 169.355 466.605 169.389 466.457 169.389C466.392 169.389 466.321 169.383 466.243 169.37L465.398 169.22C465.463 168.77 465.589 168.375 465.775 168.037C465.961 167.695 466.193 167.411 466.47 167.186C466.752 166.956 467.073 166.785 467.432 166.672C467.796 166.555 468.186 166.497 468.602 166.497ZM474.668 172.561L472.477 169.331H474.024C474.141 169.331 474.228 169.348 474.284 169.383C474.341 169.413 474.391 169.465 474.434 169.539L475.831 171.768C475.853 171.695 475.879 171.621 475.909 171.547C475.944 171.474 475.985 171.4 476.033 171.326L477.157 169.571C477.209 169.489 477.264 169.428 477.32 169.389C477.376 169.35 477.446 169.331 477.528 169.331H479.003L476.806 172.49L479.094 176H477.547C477.43 176 477.335 175.97 477.261 175.909C477.192 175.848 477.134 175.779 477.086 175.701L475.669 173.38C475.63 173.536 475.576 173.666 475.506 173.77L474.258 175.701C474.211 175.775 474.152 175.844 474.083 175.909C474.014 175.97 473.927 176 473.823 176H472.386L474.668 172.561Z" fill="#1989FA"/>
<path d="M109.95 103.74V114H107.48V103.74H109.95ZM110.32 100.75C110.32 100.963 110.277 101.163 110.19 101.35C110.103 101.537 109.987 101.7 109.84 101.84C109.7 101.98 109.533 102.093 109.34 102.18C109.147 102.26 108.94 102.3 108.72 102.3C108.507 102.3 108.303 102.26 108.11 102.18C107.923 102.093 107.76 101.98 107.62 101.84C107.48 101.7 107.367 101.537 107.28 101.35C107.2 101.163 107.16 100.963 107.16 100.75C107.16 100.53 107.2 100.323 107.28 100.13C107.367 99.9367 107.48 99.77 107.62 99.63C107.76 99.49 107.923 99.38 108.11 99.3C108.303 99.2133 108.507 99.17 108.72 99.17C108.94 99.17 109.147 99.2133 109.34 99.3C109.533 99.38 109.7 99.49 109.84 99.63C109.987 99.77 110.103 99.9367 110.19 100.13C110.277 100.323 110.32 100.53 110.32 100.75ZM115.67 108.91V114H112.98V99.54H117.69C118.656 99.54 119.493 99.6533 120.2 99.88C120.906 100.107 121.49 100.423 121.95 100.83C122.41 101.237 122.75 101.723 122.97 102.29C123.19 102.857 123.3 103.477 123.3 104.15C123.3 104.85 123.183 105.493 122.95 106.08C122.716 106.66 122.366 107.16 121.9 107.58C121.433 108 120.85 108.327 120.15 108.56C119.45 108.793 118.63 108.91 117.69 108.91H115.67ZM115.67 106.81H117.69C118.183 106.81 118.613 106.75 118.98 106.63C119.346 106.503 119.65 106.327 119.89 106.1C120.13 105.867 120.31 105.587 120.43 105.26C120.55 104.927 120.61 104.557 120.61 104.15C120.61 103.763 120.55 103.413 120.43 103.1C120.31 102.787 120.13 102.52 119.89 102.3C119.65 102.08 119.346 101.913 118.98 101.8C118.613 101.68 118.183 101.62 117.69 101.62H115.67V106.81ZM132.782 114H131.672C131.439 114 131.255 113.967 131.122 113.9C130.989 113.827 130.889 113.683 130.822 113.47L130.602 112.74C130.342 112.973 130.085 113.18 129.832 113.36C129.585 113.533 129.329 113.68 129.062 113.8C128.795 113.92 128.512 114.01 128.212 114.07C127.912 114.13 127.579 114.16 127.212 114.16C126.779 114.16 126.379 114.103 126.012 113.99C125.645 113.87 125.329 113.693 125.062 113.46C124.802 113.227 124.599 112.937 124.452 112.59C124.305 112.243 124.232 111.84 124.232 111.38C124.232 110.993 124.332 110.613 124.532 110.24C124.739 109.86 125.079 109.52 125.552 109.22C126.025 108.913 126.655 108.66 127.442 108.46C128.229 108.26 129.205 108.147 130.372 108.12V107.52C130.372 106.833 130.225 106.327 129.932 106C129.645 105.667 129.225 105.5 128.672 105.5C128.272 105.5 127.939 105.547 127.672 105.64C127.405 105.733 127.172 105.84 126.972 105.96C126.779 106.073 126.599 106.177 126.432 106.27C126.265 106.363 126.082 106.41 125.882 106.41C125.715 106.41 125.572 106.367 125.452 106.28C125.332 106.193 125.235 106.087 125.162 105.96L124.712 105.17C125.892 104.09 127.315 103.55 128.982 103.55C129.582 103.55 130.115 103.65 130.582 103.85C131.055 104.043 131.455 104.317 131.782 104.67C132.109 105.017 132.355 105.433 132.522 105.92C132.695 106.407 132.782 106.94 132.782 107.52V114ZM127.982 112.46C128.235 112.46 128.469 112.437 128.682 112.39C128.895 112.343 129.095 112.273 129.282 112.18C129.475 112.087 129.659 111.973 129.832 111.84C130.012 111.7 130.192 111.537 130.372 111.35V109.62C129.652 109.653 129.049 109.717 128.562 109.81C128.082 109.897 127.695 110.01 127.402 110.15C127.109 110.29 126.899 110.453 126.772 110.64C126.652 110.827 126.592 111.03 126.592 111.25C126.592 111.683 126.719 111.993 126.972 112.18C127.232 112.367 127.569 112.46 127.982 112.46ZM142.431 114C142.111 114 141.901 113.85 141.801 113.55L141.601 112.56C141.387 112.8 141.164 113.017 140.931 113.21C140.697 113.403 140.444 113.57 140.171 113.71C139.904 113.85 139.614 113.957 139.301 114.03C138.994 114.11 138.661 114.15 138.301 114.15C137.741 114.15 137.227 114.033 136.761 113.8C136.294 113.567 135.891 113.23 135.551 112.79C135.217 112.343 134.957 111.793 134.771 111.14C134.591 110.487 134.501 109.74 134.501 108.9C134.501 108.14 134.604 107.433 134.811 106.78C135.017 106.127 135.314 105.56 135.701 105.08C136.087 104.6 136.551 104.227 137.091 103.96C137.631 103.687 138.237 103.55 138.911 103.55C139.484 103.55 139.974 103.643 140.381 103.83C140.787 104.01 141.151 104.253 141.471 104.56V99.14H143.941V114H142.431ZM139.141 112.19C139.654 112.19 140.091 112.083 140.451 111.87C140.811 111.657 141.151 111.353 141.471 110.96V106.36C141.191 106.02 140.884 105.78 140.551 105.64C140.224 105.5 139.871 105.43 139.491 105.43C139.117 105.43 138.777 105.5 138.471 105.64C138.171 105.78 137.914 105.993 137.701 106.28C137.494 106.56 137.334 106.92 137.221 107.36C137.107 107.793 137.051 108.307 137.051 108.9C137.051 109.5 137.097 110.01 137.191 110.43C137.291 110.843 137.431 111.183 137.611 111.45C137.791 111.71 138.011 111.9 138.271 112.02C138.531 112.133 138.821 112.19 139.141 112.19Z" fill="black"/>
<path d="M109.569 131.178C109.218 131.178 108.884 131.119 108.568 131.002C108.256 130.885 107.98 130.714 107.742 130.489C107.504 130.259 107.313 129.98 107.17 129.65C107.031 129.317 106.962 128.935 106.962 128.506C106.962 128.099 107.038 127.718 107.19 127.362C107.341 127.007 107.554 126.697 107.827 126.433C108.1 126.169 108.425 125.961 108.802 125.809C109.179 125.657 109.592 125.581 110.043 125.581C110.489 125.581 110.895 125.655 111.259 125.802C111.623 125.95 111.935 126.156 112.195 126.42C112.455 126.684 112.654 127.001 112.793 127.369C112.936 127.737 113.007 128.145 113.007 128.591C113.007 128.86 112.981 129.115 112.929 129.358C112.881 129.596 112.81 129.83 112.714 130.06C112.619 130.29 112.504 130.519 112.37 130.749C112.24 130.974 112.091 131.208 111.922 131.451L109.653 134.727C109.597 134.809 109.517 134.876 109.413 134.928C109.309 134.976 109.189 135 109.055 135H107.989L110.823 131.288C110.918 131.163 111.007 131.044 111.09 130.931C111.172 130.818 111.25 130.706 111.324 130.593C111.085 130.784 110.817 130.929 110.518 131.028C110.219 131.128 109.902 131.178 109.569 131.178ZM111.896 128.454C111.896 128.164 111.848 127.902 111.753 127.668C111.662 127.43 111.534 127.228 111.369 127.063C111.204 126.899 111.007 126.773 110.778 126.686C110.552 126.595 110.303 126.55 110.03 126.55C109.744 126.55 109.482 126.598 109.244 126.693C109.01 126.784 108.808 126.912 108.639 127.076C108.474 127.241 108.347 127.438 108.256 127.668C108.165 127.898 108.119 128.149 108.119 128.422C108.119 128.717 108.16 128.981 108.243 129.215C108.329 129.445 108.451 129.64 108.607 129.8C108.767 129.96 108.96 130.082 109.185 130.164C109.415 130.246 109.67 130.287 109.952 130.287C110.264 130.287 110.539 130.238 110.778 130.138C111.02 130.034 111.224 129.897 111.389 129.728C111.553 129.559 111.679 129.364 111.766 129.143C111.852 128.922 111.896 128.693 111.896 128.454ZM114.113 134.285C114.113 134.172 114.133 134.066 114.172 133.966C114.215 133.867 114.271 133.78 114.341 133.706C114.414 133.633 114.501 133.574 114.601 133.531C114.7 133.488 114.806 133.466 114.919 133.466C115.032 133.466 115.138 133.488 115.238 133.531C115.337 133.574 115.424 133.633 115.498 133.706C115.571 133.78 115.628 133.867 115.667 133.966C115.71 134.066 115.732 134.172 115.732 134.285C115.732 134.402 115.71 134.51 115.667 134.61C115.628 134.705 115.571 134.79 115.498 134.863C115.424 134.937 115.337 134.993 115.238 135.033C115.138 135.076 115.032 135.098 114.919 135.098C114.806 135.098 114.7 135.076 114.601 135.033C114.501 134.993 114.414 134.937 114.341 134.863C114.271 134.79 114.215 134.705 114.172 134.61C114.133 134.51 114.113 134.402 114.113 134.285ZM123.342 125.685V126.205C123.342 126.353 123.325 126.474 123.29 126.569C123.26 126.665 123.227 126.745 123.192 126.81L119.338 134.59C119.282 134.703 119.204 134.801 119.104 134.883C119.004 134.961 118.87 135 118.701 135H117.875L121.788 127.317C121.845 127.209 121.901 127.109 121.957 127.018C122.018 126.927 122.085 126.84 122.159 126.758H117.297C117.223 126.758 117.156 126.73 117.095 126.673C117.039 126.613 117.011 126.546 117.011 126.472V125.685H123.342ZM125.598 125.198C125.724 125.406 125.815 125.614 125.871 125.822C125.928 126.03 125.956 126.238 125.956 126.446C125.956 126.84 125.858 127.217 125.663 127.577C125.473 127.932 125.206 128.259 124.864 128.558L124.506 128.337C124.472 128.316 124.448 128.292 124.435 128.266C124.426 128.24 124.422 128.214 124.422 128.188C124.422 128.127 124.444 128.075 124.487 128.032C124.556 127.95 124.623 127.861 124.688 127.765C124.753 127.666 124.812 127.564 124.864 127.46C124.916 127.352 124.957 127.239 124.987 127.122C125.018 127.005 125.033 126.881 125.033 126.751C125.033 126.613 125.011 126.47 124.968 126.322C124.929 126.175 124.86 126.019 124.76 125.854C124.73 125.807 124.714 125.759 124.714 125.711C124.714 125.607 124.773 125.532 124.89 125.484L125.598 125.198ZM127.574 125.198C127.7 125.406 127.791 125.614 127.847 125.822C127.904 126.03 127.932 126.238 127.932 126.446C127.932 126.84 127.834 127.217 127.639 127.577C127.449 127.932 127.182 128.259 126.84 128.558L126.482 128.337C126.448 128.316 126.424 128.292 126.411 128.266C126.402 128.24 126.398 128.214 126.398 128.188C126.398 128.127 126.42 128.075 126.463 128.032C126.532 127.95 126.599 127.861 126.664 127.765C126.729 127.666 126.788 127.564 126.84 127.46C126.892 127.352 126.933 127.239 126.963 127.122C126.994 127.005 127.009 126.881 127.009 126.751C127.009 126.613 126.987 126.47 126.944 126.322C126.905 126.175 126.836 126.019 126.736 125.854C126.706 125.807 126.69 125.759 126.69 125.711C126.69 125.607 126.749 125.532 126.866 125.484L127.574 125.198Z" fill="#696B6F"/>
<path d="M461.579 112.804C461.284 112.804 461.02 112.735 460.786 112.596C460.556 112.457 460.396 112.234 460.305 111.926C460.049 112.238 459.779 112.462 459.493 112.596C459.207 112.73 458.899 112.797 458.57 112.797C458.297 112.797 458.058 112.75 457.855 112.654C457.655 112.559 457.486 112.429 457.348 112.264C457.213 112.095 457.111 111.898 457.042 111.673C456.977 111.443 456.945 111.194 456.945 110.925C456.945 110.678 456.975 110.429 457.036 110.178C457.101 109.922 457.196 109.677 457.322 109.443C457.447 109.205 457.603 108.984 457.79 108.78C457.98 108.572 458.203 108.393 458.459 108.241C458.715 108.085 459.001 107.964 459.317 107.877C459.633 107.786 459.984 107.74 460.37 107.74C460.704 107.74 460.99 107.766 461.228 107.818C461.466 107.87 461.696 107.944 461.917 108.039L461.293 110.451C461.224 110.728 461.189 110.96 461.189 111.146C461.189 111.276 461.204 111.385 461.235 111.471C461.269 111.558 461.313 111.627 461.365 111.679C461.421 111.731 461.488 111.768 461.566 111.79C461.644 111.807 461.729 111.816 461.82 111.816C462.002 111.816 462.173 111.76 462.333 111.647C462.498 111.53 462.641 111.367 462.762 111.159C462.883 110.951 462.979 110.704 463.048 110.419C463.122 110.132 463.159 109.82 463.159 109.482C463.159 108.919 463.07 108.423 462.892 107.994C462.719 107.565 462.474 107.207 462.158 106.921C461.846 106.631 461.471 106.414 461.033 106.271C460.595 106.124 460.117 106.05 459.597 106.05C459.029 106.05 458.5 106.159 458.011 106.375C457.525 106.588 457.103 106.88 456.743 107.253C456.388 107.626 456.108 108.065 455.905 108.572C455.705 109.079 455.606 109.625 455.606 110.21C455.606 110.921 455.716 111.547 455.937 112.089C456.158 112.626 456.461 113.077 456.847 113.441C457.233 113.801 457.686 114.072 458.206 114.254C458.73 114.436 459.295 114.527 459.902 114.527C460.236 114.527 460.548 114.507 460.838 114.468C461.128 114.433 461.395 114.384 461.638 114.319C461.88 114.258 462.101 114.186 462.301 114.104C462.5 114.026 462.678 113.941 462.834 113.85C462.92 113.803 462.994 113.779 463.055 113.779C463.18 113.779 463.269 113.848 463.321 113.987L463.542 114.566C463.091 114.86 462.565 115.101 461.963 115.287C461.36 115.473 460.673 115.567 459.902 115.567C459.118 115.567 458.392 115.443 457.725 115.196C457.057 114.949 456.479 114.594 455.989 114.13C455.504 113.671 455.122 113.109 454.845 112.446C454.572 111.783 454.436 111.038 454.436 110.21C454.436 109.747 454.494 109.296 454.611 108.858C454.732 108.421 454.904 108.011 455.125 107.63C455.346 107.244 455.612 106.891 455.924 106.57C456.236 106.25 456.583 105.975 456.964 105.745C457.345 105.515 457.757 105.338 458.199 105.212C458.645 105.082 459.111 105.017 459.597 105.017C460.212 105.017 460.801 105.121 461.365 105.329C461.932 105.533 462.433 105.827 462.866 106.213C463.304 106.594 463.653 107.062 463.913 107.617C464.173 108.167 464.303 108.789 464.303 109.482C464.303 109.946 464.233 110.382 464.095 110.789C463.96 111.192 463.77 111.543 463.523 111.842C463.28 112.141 462.992 112.377 462.658 112.55C462.329 112.719 461.969 112.804 461.579 112.804ZM458.888 111.764C459.001 111.764 459.113 111.747 459.226 111.712C459.343 111.677 459.454 111.617 459.558 111.53C459.662 111.439 459.757 111.32 459.844 111.172C459.93 111.025 460.002 110.841 460.058 110.62L460.532 108.787C460.394 108.761 460.251 108.748 460.104 108.748C459.835 108.748 459.584 108.806 459.35 108.923C459.116 109.04 458.912 109.199 458.739 109.398C458.57 109.597 458.435 109.827 458.336 110.087C458.236 110.343 458.186 110.609 458.186 110.886C458.186 111.164 458.245 111.38 458.362 111.536C458.483 111.688 458.658 111.764 458.888 111.764ZM468.602 104.497C469.036 104.497 469.432 104.562 469.792 104.692C470.152 104.818 470.459 104.997 470.715 105.231C470.971 105.465 471.17 105.747 471.313 106.076C471.456 106.406 471.527 106.772 471.527 107.175C471.527 107.522 471.475 107.842 471.371 108.137C471.272 108.432 471.135 108.713 470.962 108.982C470.793 109.251 470.594 109.511 470.364 109.762C470.134 110.013 469.894 110.269 469.642 110.529L467.523 112.693C467.731 112.633 467.935 112.587 468.134 112.557C468.334 112.522 468.524 112.505 468.706 112.505H471.118C471.291 112.505 471.428 112.555 471.527 112.654C471.631 112.75 471.683 112.878 471.683 113.038V114H465.235V113.467C465.235 113.359 465.257 113.246 465.3 113.129C465.348 113.012 465.422 112.904 465.521 112.804L468.375 109.944C468.613 109.701 468.826 109.469 469.012 109.248C469.203 109.027 469.361 108.809 469.486 108.592C469.616 108.375 469.714 108.156 469.779 107.935C469.848 107.71 469.883 107.474 469.883 107.227C469.883 107.002 469.85 106.804 469.785 106.635C469.72 106.462 469.627 106.317 469.506 106.2C469.385 106.083 469.239 105.996 469.07 105.94C468.906 105.879 468.719 105.849 468.511 105.849C468.126 105.849 467.807 105.946 467.556 106.141C467.309 106.336 467.136 106.599 467.036 106.928C466.988 107.093 466.917 107.212 466.821 107.286C466.726 107.355 466.605 107.389 466.457 107.389C466.392 107.389 466.321 107.383 466.243 107.37L465.398 107.22C465.463 106.77 465.589 106.375 465.775 106.037C465.961 105.695 466.193 105.411 466.47 105.186C466.752 104.956 467.073 104.785 467.432 104.672C467.796 104.555 468.186 104.497 468.602 104.497ZM474.668 110.561L472.477 107.331H474.024C474.141 107.331 474.228 107.348 474.284 107.383C474.341 107.413 474.391 107.465 474.434 107.539L475.831 109.768C475.853 109.695 475.879 109.621 475.909 109.547C475.944 109.474 475.985 109.4 476.033 109.326L477.157 107.571C477.209 107.489 477.264 107.428 477.32 107.389C477.376 107.35 477.446 107.331 477.528 107.331H479.003L476.806 110.49L479.094 114H477.547C477.43 114 477.335 113.97 477.261 113.909C477.192 113.848 477.134 113.779 477.086 113.701L475.669 111.38C475.63 111.536 475.576 111.666 475.506 111.77L474.258 113.701C474.211 113.775 474.152 113.844 474.083 113.909C474.014 113.97 473.927 114 473.823 114H472.386L474.668 110.561Z" fill="#1989FA"/>
<path d="M109.95 237.74V248H107.48V237.74H109.95ZM110.32 234.75C110.32 234.963 110.277 235.163 110.19 235.35C110.103 235.537 109.987 235.7 109.84 235.84C109.7 235.98 109.533 236.093 109.34 236.18C109.147 236.26 108.94 236.3 108.72 236.3C108.507 236.3 108.303 236.26 108.11 236.18C107.923 236.093 107.76 235.98 107.62 235.84C107.48 235.7 107.367 235.537 107.28 235.35C107.2 235.163 107.16 234.963 107.16 234.75C107.16 234.53 107.2 234.323 107.28 234.13C107.367 233.937 107.48 233.77 107.62 233.63C107.76 233.49 107.923 233.38 108.11 233.3C108.303 233.213 108.507 233.17 108.72 233.17C108.94 233.17 109.147 233.213 109.34 233.3C109.533 233.38 109.7 233.49 109.84 233.63C109.987 233.77 110.103 233.937 110.19 234.13C110.277 234.323 110.32 234.53 110.32 234.75ZM115.67 242.91V248H112.98V233.54H117.69C118.656 233.54 119.493 233.653 120.2 233.88C120.906 234.107 121.49 234.423 121.95 234.83C122.41 235.237 122.75 235.723 122.97 236.29C123.19 236.857 123.3 237.477 123.3 238.15C123.3 238.85 123.183 239.493 122.95 240.08C122.716 240.66 122.366 241.16 121.9 241.58C121.433 242 120.85 242.327 120.15 242.56C119.45 242.793 118.63 242.91 117.69 242.91H115.67ZM115.67 240.81H117.69C118.183 240.81 118.613 240.75 118.98 240.63C119.346 240.503 119.65 240.327 119.89 240.1C120.13 239.867 120.31 239.587 120.43 239.26C120.55 238.927 120.61 238.557 120.61 238.15C120.61 237.763 120.55 237.413 120.43 237.1C120.31 236.787 120.13 236.52 119.89 236.3C119.65 236.08 119.346 235.913 118.98 235.8C118.613 235.68 118.183 235.62 117.69 235.62H115.67V240.81ZM132.782 248H131.672C131.439 248 131.255 247.967 131.122 247.9C130.989 247.827 130.889 247.683 130.822 247.47L130.602 246.74C130.342 246.973 130.085 247.18 129.832 247.36C129.585 247.533 129.329 247.68 129.062 247.8C128.795 247.92 128.512 248.01 128.212 248.07C127.912 248.13 127.579 248.16 127.212 248.16C126.779 248.16 126.379 248.103 126.012 247.99C125.645 247.87 125.329 247.693 125.062 247.46C124.802 247.227 124.599 246.937 124.452 246.59C124.305 246.243 124.232 245.84 124.232 245.38C124.232 244.993 124.332 244.613 124.532 244.24C124.739 243.86 125.079 243.52 125.552 243.22C126.025 242.913 126.655 242.66 127.442 242.46C128.229 242.26 129.205 242.147 130.372 242.12V241.52C130.372 240.833 130.225 240.327 129.932 240C129.645 239.667 129.225 239.5 128.672 239.5C128.272 239.5 127.939 239.547 127.672 239.64C127.405 239.733 127.172 239.84 126.972 239.96C126.779 240.073 126.599 240.177 126.432 240.27C126.265 240.363 126.082 240.41 125.882 240.41C125.715 240.41 125.572 240.367 125.452 240.28C125.332 240.193 125.235 240.087 125.162 239.96L124.712 239.17C125.892 238.09 127.315 237.55 128.982 237.55C129.582 237.55 130.115 237.65 130.582 237.85C131.055 238.043 131.455 238.317 131.782 238.67C132.109 239.017 132.355 239.433 132.522 239.92C132.695 240.407 132.782 240.94 132.782 241.52V248ZM127.982 246.46C128.235 246.46 128.469 246.437 128.682 246.39C128.895 246.343 129.095 246.273 129.282 246.18C129.475 246.087 129.659 245.973 129.832 245.84C130.012 245.7 130.192 245.537 130.372 245.35V243.62C129.652 243.653 129.049 243.717 128.562 243.81C128.082 243.897 127.695 244.01 127.402 244.15C127.109 244.29 126.899 244.453 126.772 244.64C126.652 244.827 126.592 245.03 126.592 245.25C126.592 245.683 126.719 245.993 126.972 246.18C127.232 246.367 127.569 246.46 127.982 246.46ZM142.431 248C142.111 248 141.901 247.85 141.801 247.55L141.601 246.56C141.387 246.8 141.164 247.017 140.931 247.21C140.697 247.403 140.444 247.57 140.171 247.71C139.904 247.85 139.614 247.957 139.301 248.03C138.994 248.11 138.661 248.15 138.301 248.15C137.741 248.15 137.227 248.033 136.761 247.8C136.294 247.567 135.891 247.23 135.551 246.79C135.217 246.343 134.957 245.793 134.771 245.14C134.591 244.487 134.501 243.74 134.501 242.9C134.501 242.14 134.604 241.433 134.811 240.78C135.017 240.127 135.314 239.56 135.701 239.08C136.087 238.6 136.551 238.227 137.091 237.96C137.631 237.687 138.237 237.55 138.911 237.55C139.484 237.55 139.974 237.643 140.381 237.83C140.787 238.01 141.151 238.253 141.471 238.56V233.14H143.941V248H142.431ZM139.141 246.19C139.654 246.19 140.091 246.083 140.451 245.87C140.811 245.657 141.151 245.353 141.471 244.96V240.36C141.191 240.02 140.884 239.78 140.551 239.64C140.224 239.5 139.871 239.43 139.491 239.43C139.117 239.43 138.777 239.5 138.471 239.64C138.171 239.78 137.914 239.993 137.701 240.28C137.494 240.56 137.334 240.92 137.221 241.36C137.107 241.793 137.051 242.307 137.051 242.9C137.051 243.5 137.097 244.01 137.191 244.43C137.291 244.843 137.431 245.183 137.611 245.45C137.791 245.71 138.011 245.9 138.271 246.02C138.531 246.133 138.821 246.19 139.141 246.19ZM153.404 242.91V248H150.714V233.54H155.424C156.391 233.54 157.227 233.653 157.934 233.88C158.641 234.107 159.224 234.423 159.684 234.83C160.144 235.237 160.484 235.723 160.704 236.29C160.924 236.857 161.034 237.477 161.034 238.15C161.034 238.85 160.917 239.493 160.684 240.08C160.451 240.66 160.101 241.16 159.634 241.58C159.167 242 158.584 242.327 157.884 242.56C157.184 242.793 156.364 242.91 155.424 242.91H153.404ZM153.404 240.81H155.424C155.917 240.81 156.347 240.75 156.714 240.63C157.081 240.503 157.384 240.327 157.624 240.1C157.864 239.867 158.044 239.587 158.164 239.26C158.284 238.927 158.344 238.557 158.344 238.15C158.344 237.763 158.284 237.413 158.164 237.1C158.044 236.787 157.864 236.52 157.624 236.3C157.384 236.08 157.081 235.913 156.714 235.8C156.347 235.68 155.917 235.62 155.424 235.62H153.404V240.81ZM162.984 248V237.74H164.434C164.687 237.74 164.864 237.787 164.964 237.88C165.064 237.973 165.131 238.133 165.164 238.36L165.314 239.6C165.681 238.967 166.111 238.467 166.604 238.1C167.097 237.733 167.651 237.55 168.264 237.55C168.771 237.55 169.191 237.667 169.524 237.9L169.204 239.75C169.184 239.87 169.141 239.957 169.074 240.01C169.007 240.057 168.917 240.08 168.804 240.08C168.704 240.08 168.567 240.057 168.394 240.01C168.221 239.963 167.991 239.94 167.704 239.94C167.191 239.94 166.751 240.083 166.384 240.37C166.017 240.65 165.707 241.063 165.454 241.61V248H162.984ZM175.528 237.58C176.295 237.58 176.988 237.703 177.608 237.95C178.235 238.197 178.768 238.547 179.208 239C179.648 239.453 179.988 240.007 180.228 240.66C180.468 241.313 180.588 242.043 180.588 242.85C180.588 243.663 180.468 244.397 180.228 245.05C179.988 245.703 179.648 246.26 179.208 246.72C178.768 247.18 178.235 247.533 177.608 247.78C176.988 248.027 176.295 248.15 175.528 248.15C174.761 248.15 174.065 248.027 173.438 247.78C172.811 247.533 172.275 247.18 171.828 246.72C171.388 246.26 171.045 245.703 170.798 245.05C170.558 244.397 170.438 243.663 170.438 242.85C170.438 242.043 170.558 241.313 170.798 240.66C171.045 240.007 171.388 239.453 171.828 239C172.275 238.547 172.811 238.197 173.438 237.95C174.065 237.703 174.761 237.58 175.528 237.58ZM175.528 246.25C176.381 246.25 177.011 245.963 177.418 245.39C177.831 244.817 178.038 243.977 178.038 242.87C178.038 241.763 177.831 240.92 177.418 240.34C177.011 239.76 176.381 239.47 175.528 239.47C174.661 239.47 174.021 239.763 173.608 240.35C173.195 240.93 172.988 241.77 172.988 242.87C172.988 243.97 173.195 244.81 173.608 245.39C174.021 245.963 174.661 246.25 175.528 246.25Z" fill="black"/>
<path d="M107.866 269.116H109.868V262.765C109.868 262.575 109.874 262.382 109.887 262.187L108.223 263.61C108.18 263.645 108.136 263.671 108.093 263.688C108.05 263.701 108.009 263.708 107.97 263.708C107.905 263.708 107.846 263.695 107.794 263.669C107.742 263.639 107.703 263.604 107.677 263.565L107.313 263.064L110.082 260.666H111.025V269.116H112.858V270H107.866V269.116ZM120.691 265.346C120.691 266.161 120.602 266.867 120.425 267.465C120.251 268.059 120.013 268.55 119.71 268.94C119.406 269.33 119.047 269.621 118.631 269.811C118.219 270.002 117.777 270.098 117.305 270.098C116.828 270.098 116.384 270.002 115.972 269.811C115.565 269.621 115.209 269.33 114.906 268.94C114.603 268.55 114.364 268.059 114.191 267.465C114.018 266.867 113.931 266.161 113.931 265.346C113.931 264.531 114.018 263.825 114.191 263.227C114.364 262.629 114.603 262.135 114.906 261.745C115.209 261.351 115.565 261.058 115.972 260.867C116.384 260.677 116.828 260.581 117.305 260.581C117.777 260.581 118.219 260.677 118.631 260.867C119.047 261.058 119.406 261.351 119.71 261.745C120.013 262.135 120.251 262.629 120.425 263.227C120.602 263.825 120.691 264.531 120.691 265.346ZM119.489 265.346C119.489 264.635 119.428 264.039 119.307 263.558C119.19 263.073 119.029 262.683 118.826 262.388C118.626 262.094 118.394 261.884 118.13 261.758C117.866 261.628 117.591 261.563 117.305 261.563C117.019 261.563 116.743 261.628 116.479 261.758C116.215 261.884 115.983 262.094 115.784 262.388C115.584 262.683 115.424 263.073 115.303 263.558C115.186 264.039 115.127 264.635 115.127 265.346C115.127 266.057 115.186 266.652 115.303 267.133C115.424 267.614 115.584 268.002 115.784 268.297C115.983 268.592 116.215 268.804 116.479 268.934C116.743 269.06 117.019 269.122 117.305 269.122C117.591 269.122 117.866 269.06 118.13 268.934C118.394 268.804 118.626 268.592 118.826 268.297C119.029 268.002 119.19 267.614 119.307 267.133C119.428 266.652 119.489 266.057 119.489 265.346ZM121.654 269.285C121.654 269.172 121.674 269.066 121.713 268.966C121.756 268.867 121.812 268.78 121.882 268.706C121.955 268.633 122.042 268.574 122.142 268.531C122.241 268.488 122.347 268.466 122.46 268.466C122.573 268.466 122.679 268.488 122.779 268.531C122.878 268.574 122.965 268.633 123.039 268.706C123.112 268.78 123.169 268.867 123.208 268.966C123.251 269.066 123.273 269.172 123.273 269.285C123.273 269.402 123.251 269.51 123.208 269.61C123.169 269.705 123.112 269.79 123.039 269.863C122.965 269.937 122.878 269.993 122.779 270.033C122.679 270.076 122.573 270.098 122.46 270.098C122.347 270.098 122.241 270.076 122.142 270.033C122.042 269.993 121.955 269.937 121.882 269.863C121.812 269.79 121.756 269.705 121.713 269.61C121.674 269.51 121.654 269.402 121.654 269.285ZM130.194 261.192C130.194 261.357 130.142 261.494 130.038 261.602C129.934 261.706 129.758 261.758 129.511 261.758H126.586L126.157 264.202C126.643 264.098 127.091 264.046 127.503 264.046C127.988 264.046 128.415 264.117 128.783 264.26C129.156 264.403 129.468 264.601 129.719 264.852C129.971 265.103 130.159 265.4 130.285 265.742C130.415 266.085 130.48 266.457 130.48 266.86C130.48 267.354 130.393 267.801 130.22 268.199C130.047 268.598 129.808 268.94 129.505 269.226C129.206 269.508 128.853 269.725 128.445 269.876C128.038 270.028 127.598 270.104 127.126 270.104C126.853 270.104 126.591 270.076 126.339 270.02C126.088 269.967 125.854 269.896 125.637 269.805C125.421 269.714 125.219 269.61 125.033 269.493C124.847 269.376 124.682 269.252 124.539 269.122L124.89 268.628C124.968 268.516 125.072 268.459 125.202 268.459C125.284 268.459 125.38 268.494 125.488 268.563C125.601 268.628 125.735 268.702 125.891 268.784C126.047 268.867 126.229 268.943 126.437 269.012C126.649 269.077 126.901 269.109 127.191 269.109C127.516 269.109 127.808 269.057 128.068 268.953C128.328 268.849 128.549 268.702 128.731 268.511C128.918 268.316 129.061 268.085 129.16 267.816C129.26 267.547 129.31 267.246 129.31 266.912C129.31 266.622 129.267 266.36 129.18 266.126C129.098 265.892 128.97 265.693 128.796 265.528C128.627 265.363 128.415 265.235 128.159 265.144C127.904 265.053 127.605 265.008 127.262 265.008C127.028 265.008 126.786 265.027 126.534 265.066C126.283 265.105 126.023 265.168 125.754 265.255L125.026 265.04L125.78 260.685H130.194V261.192ZM133.139 260.198C133.265 260.406 133.356 260.614 133.412 260.822C133.469 261.03 133.497 261.238 133.497 261.446C133.497 261.84 133.399 262.217 133.204 262.577C133.014 262.932 132.747 263.259 132.405 263.558L132.047 263.337C132.013 263.316 131.989 263.292 131.976 263.266C131.967 263.24 131.963 263.214 131.963 263.188C131.963 263.127 131.985 263.075 132.028 263.032C132.097 262.95 132.164 262.861 132.229 262.765C132.294 262.666 132.353 262.564 132.405 262.46C132.457 262.352 132.498 262.239 132.528 262.122C132.559 262.005 132.574 261.881 132.574 261.751C132.574 261.613 132.552 261.47 132.509 261.322C132.47 261.175 132.401 261.019 132.301 260.854C132.271 260.807 132.255 260.759 132.255 260.711C132.255 260.607 132.314 260.532 132.431 260.484L133.139 260.198ZM135.115 260.198C135.241 260.406 135.332 260.614 135.388 260.822C135.445 261.03 135.473 261.238 135.473 261.446C135.473 261.84 135.375 262.217 135.18 262.577C134.99 262.932 134.723 263.259 134.381 263.558L134.023 263.337C133.989 263.316 133.965 263.292 133.952 263.266C133.943 263.24 133.939 263.214 133.939 263.188C133.939 263.127 133.961 263.075 134.004 263.032C134.073 262.95 134.14 262.861 134.205 262.765C134.27 262.666 134.329 262.564 134.381 262.46C134.433 262.352 134.474 262.239 134.504 262.122C134.535 262.005 134.55 261.881 134.55 261.751C134.55 261.613 134.528 261.47 134.485 261.322C134.446 261.175 134.377 261.019 134.277 260.854C134.247 260.807 134.231 260.759 134.231 260.711C134.231 260.607 134.29 260.532 134.407 260.484L135.115 260.198ZM140.122 260.035H141.019V272.23H140.122V260.035ZM146.904 269.116H148.906V262.765C148.906 262.575 148.912 262.382 148.925 262.187L147.261 263.61C147.218 263.645 147.174 263.671 147.131 263.688C147.088 263.701 147.047 263.708 147.008 263.708C146.943 263.708 146.884 263.695 146.832 263.669C146.78 263.639 146.741 263.604 146.715 263.565L146.351 263.064L149.12 260.666H150.063V269.116H151.896V270H146.904V269.116ZM154.445 269.116H156.447V262.765C156.447 262.575 156.453 262.382 156.466 262.187L154.802 263.61C154.759 263.645 154.715 263.671 154.672 263.688C154.629 263.701 154.588 263.708 154.549 263.708C154.484 263.708 154.425 263.695 154.373 263.669C154.321 263.639 154.282 263.604 154.256 263.565L153.892 263.064L156.661 260.666H157.604V269.116H159.437V270H154.445V269.116ZM161.882 260.198C162.007 260.406 162.098 260.614 162.155 260.822C162.211 261.03 162.239 261.238 162.239 261.446C162.239 261.84 162.142 262.217 161.947 262.577C161.756 262.932 161.489 263.259 161.147 263.558L160.79 263.337C160.755 263.316 160.731 263.292 160.718 263.266C160.709 263.24 160.705 263.214 160.705 263.188C160.705 263.127 160.727 263.075 160.77 263.032C160.839 262.95 160.907 262.861 160.972 262.765C161.037 262.666 161.095 262.564 161.147 262.46C161.199 262.352 161.24 262.239 161.271 262.122C161.301 262.005 161.316 261.881 161.316 261.751C161.316 261.613 161.294 261.47 161.251 261.322C161.212 261.175 161.143 261.019 161.043 260.854C161.013 260.807 160.998 260.759 160.998 260.711C160.998 260.607 161.056 260.532 161.173 260.484L161.882 260.198ZM163.858 260.198C163.983 260.406 164.074 260.614 164.131 260.822C164.187 261.03 164.215 261.238 164.215 261.446C164.215 261.84 164.118 262.217 163.923 262.577C163.732 262.932 163.465 263.259 163.123 263.558L162.766 263.337C162.731 263.316 162.707 263.292 162.694 263.266C162.685 263.24 162.681 263.214 162.681 263.188C162.681 263.127 162.703 263.075 162.746 263.032C162.815 262.95 162.883 262.861 162.948 262.765C163.013 262.666 163.071 262.564 163.123 262.46C163.175 262.352 163.216 262.239 163.247 262.122C163.277 262.005 163.292 261.881 163.292 261.751C163.292 261.613 163.27 261.47 163.227 261.322C163.188 261.175 163.119 261.019 163.019 260.854C162.989 260.807 162.974 260.759 162.974 260.711C162.974 260.607 163.032 260.532 163.149 260.484L163.858 260.198ZM168.864 260.035H169.761V272.23H168.864V260.035ZM175.646 269.116H177.648V262.765C177.648 262.575 177.654 262.382 177.667 262.187L176.003 263.61C175.96 263.645 175.917 263.671 175.873 263.688C175.83 263.701 175.789 263.708 175.75 263.708C175.685 263.708 175.626 263.695 175.574 263.669C175.522 263.639 175.483 263.604 175.457 263.565L175.093 263.064L177.862 260.666H178.805V269.116H180.638V270H175.646V269.116ZM185.228 260.581C185.622 260.581 185.99 260.64 186.333 260.757C186.675 260.874 186.97 261.045 187.217 261.27C187.468 261.491 187.665 261.762 187.808 262.083C187.951 262.404 188.023 262.768 188.023 263.175C188.023 263.522 187.971 263.842 187.867 264.137C187.763 264.432 187.622 264.715 187.444 264.988C187.267 265.257 187.061 265.519 186.827 265.775C186.597 266.026 186.352 266.284 186.092 266.548L183.642 269.057C183.815 269.01 183.991 268.973 184.168 268.947C184.346 268.917 184.517 268.901 184.682 268.901H187.802C187.927 268.901 188.027 268.938 188.101 269.012C188.174 269.086 188.211 269.181 188.211 269.298V270H181.997V269.603C181.997 269.521 182.012 269.437 182.043 269.35C182.077 269.263 182.132 269.183 182.205 269.109L185.189 266.113C185.436 265.862 185.661 265.621 185.865 265.391C186.068 265.157 186.242 264.923 186.385 264.689C186.532 264.455 186.645 264.219 186.723 263.981C186.801 263.738 186.84 263.48 186.84 263.207C186.84 262.934 186.796 262.696 186.71 262.492C186.623 262.284 186.504 262.113 186.352 261.979C186.201 261.845 186.023 261.745 185.819 261.68C185.616 261.611 185.397 261.576 185.163 261.576C184.929 261.576 184.712 261.611 184.513 261.68C184.313 261.749 184.136 261.847 183.98 261.972C183.828 262.094 183.698 262.239 183.59 262.408C183.486 262.577 183.412 262.763 183.369 262.967C183.334 263.093 183.282 263.184 183.213 263.24C183.143 263.296 183.052 263.324 182.94 263.324C182.918 263.324 182.894 263.324 182.868 263.324C182.847 263.32 182.821 263.316 182.79 263.311L182.186 263.207C182.246 262.783 182.363 262.408 182.537 262.083C182.71 261.754 182.929 261.478 183.193 261.257C183.462 261.036 183.767 260.87 184.11 260.757C184.456 260.64 184.829 260.581 185.228 260.581ZM189.434 269.285C189.434 269.172 189.454 269.066 189.493 268.966C189.536 268.867 189.592 268.78 189.662 268.706C189.735 268.633 189.822 268.574 189.922 268.531C190.021 268.488 190.128 268.466 190.24 268.466C190.353 268.466 190.459 268.488 190.559 268.531C190.658 268.574 190.745 268.633 190.819 268.706C190.892 268.78 190.949 268.867 190.988 268.966C191.031 269.066 191.053 269.172 191.053 269.285C191.053 269.402 191.031 269.51 190.988 269.61C190.949 269.705 190.892 269.79 190.819 269.863C190.745 269.937 190.658 269.993 190.559 270.033C190.459 270.076 190.353 270.098 190.24 270.098C190.128 270.098 190.021 270.076 189.922 270.033C189.822 269.993 189.735 269.937 189.662 269.863C189.592 269.79 189.536 269.705 189.493 269.61C189.454 269.51 189.434 269.402 189.434 269.285ZM195.186 266.178C194.835 266.178 194.501 266.119 194.185 266.002C193.873 265.885 193.598 265.714 193.359 265.489C193.121 265.259 192.93 264.98 192.787 264.65C192.649 264.317 192.579 263.935 192.579 263.506C192.579 263.099 192.655 262.718 192.807 262.362C192.958 262.007 193.171 261.697 193.444 261.433C193.717 261.169 194.042 260.961 194.419 260.809C194.796 260.657 195.21 260.581 195.66 260.581C196.107 260.581 196.512 260.655 196.876 260.802C197.24 260.95 197.552 261.156 197.812 261.42C198.072 261.684 198.271 262.001 198.41 262.369C198.553 262.737 198.624 263.145 198.624 263.591C198.624 263.86 198.598 264.115 198.546 264.358C198.499 264.596 198.427 264.83 198.332 265.06C198.236 265.29 198.122 265.519 197.987 265.749C197.857 265.974 197.708 266.208 197.539 266.451L195.27 269.727C195.214 269.809 195.134 269.876 195.03 269.928C194.926 269.976 194.807 270 194.672 270H193.606L196.44 266.288C196.536 266.163 196.624 266.044 196.707 265.931C196.789 265.818 196.867 265.706 196.941 265.593C196.702 265.784 196.434 265.929 196.135 266.028C195.836 266.128 195.519 266.178 195.186 266.178ZM197.513 263.454C197.513 263.164 197.465 262.902 197.37 262.668C197.279 262.43 197.151 262.228 196.986 262.063C196.822 261.899 196.624 261.773 196.395 261.686C196.169 261.595 195.92 261.55 195.647 261.55C195.361 261.55 195.099 261.598 194.861 261.693C194.627 261.784 194.425 261.912 194.256 262.076C194.092 262.241 193.964 262.438 193.873 262.668C193.782 262.898 193.736 263.149 193.736 263.422C193.736 263.717 193.777 263.981 193.86 264.215C193.946 264.445 194.068 264.64 194.224 264.8C194.384 264.96 194.577 265.082 194.802 265.164C195.032 265.246 195.288 265.287 195.569 265.287C195.881 265.287 196.156 265.238 196.395 265.138C196.637 265.034 196.841 264.897 197.006 264.728C197.17 264.559 197.296 264.364 197.383 264.143C197.469 263.922 197.513 263.693 197.513 263.454ZM200.92 260.198C201.045 260.406 201.136 260.614 201.193 260.822C201.249 261.03 201.277 261.238 201.277 261.446C201.277 261.84 201.18 262.217 200.985 262.577C200.794 262.932 200.528 263.259 200.185 263.558L199.828 263.337C199.793 263.316 199.769 263.292 199.756 263.266C199.748 263.24 199.743 263.214 199.743 263.188C199.743 263.127 199.765 263.075 199.808 263.032C199.878 262.95 199.945 262.861 200.01 262.765C200.075 262.666 200.133 262.564 200.185 262.46C200.237 262.352 200.278 262.239 200.309 262.122C200.339 262.005 200.354 261.881 200.354 261.751C200.354 261.613 200.333 261.47 200.289 261.322C200.25 261.175 200.181 261.019 200.081 260.854C200.051 260.807 200.036 260.759 200.036 260.711C200.036 260.607 200.094 260.532 200.211 260.484L200.92 260.198ZM202.896 260.198C203.021 260.406 203.112 260.614 203.169 260.822C203.225 261.03 203.253 261.238 203.253 261.446C203.253 261.84 203.156 262.217 202.961 262.577C202.77 262.932 202.504 263.259 202.161 263.558L201.804 263.337C201.769 263.316 201.745 263.292 201.732 263.266C201.724 263.24 201.719 263.214 201.719 263.188C201.719 263.127 201.741 263.075 201.784 263.032C201.854 262.95 201.921 262.861 201.986 262.765C202.051 262.666 202.109 262.564 202.161 262.46C202.213 262.352 202.254 262.239 202.285 262.122C202.315 262.005 202.33 261.881 202.33 261.751C202.33 261.613 202.309 261.47 202.265 261.322C202.226 261.175 202.157 261.019 202.057 260.854C202.027 260.807 202.012 260.759 202.012 260.711C202.012 260.607 202.07 260.532 202.187 260.484L202.896 260.198Z" fill="#696B6F"/>
<path d="M461.579 246.804C461.284 246.804 461.02 246.735 460.786 246.596C460.556 246.457 460.396 246.234 460.305 245.926C460.049 246.238 459.779 246.462 459.493 246.596C459.207 246.73 458.899 246.797 458.57 246.797C458.297 246.797 458.058 246.75 457.855 246.654C457.655 246.559 457.486 246.429 457.348 246.264C457.213 246.095 457.111 245.898 457.042 245.673C456.977 245.443 456.945 245.194 456.945 244.925C456.945 244.678 456.975 244.429 457.036 244.178C457.101 243.922 457.196 243.677 457.322 243.443C457.447 243.205 457.603 242.984 457.79 242.78C457.98 242.572 458.203 242.393 458.459 242.241C458.715 242.085 459.001 241.964 459.317 241.877C459.633 241.786 459.984 241.74 460.37 241.74C460.704 241.74 460.99 241.766 461.228 241.818C461.466 241.87 461.696 241.944 461.917 242.039L461.293 244.451C461.224 244.728 461.189 244.96 461.189 245.146C461.189 245.276 461.204 245.385 461.235 245.471C461.269 245.558 461.313 245.627 461.365 245.679C461.421 245.731 461.488 245.768 461.566 245.79C461.644 245.807 461.729 245.816 461.82 245.816C462.002 245.816 462.173 245.76 462.333 245.647C462.498 245.53 462.641 245.367 462.762 245.159C462.883 244.951 462.979 244.704 463.048 244.419C463.122 244.132 463.159 243.82 463.159 243.482C463.159 242.919 463.07 242.423 462.892 241.994C462.719 241.565 462.474 241.207 462.158 240.921C461.846 240.631 461.471 240.414 461.033 240.271C460.595 240.124 460.117 240.05 459.597 240.05C459.029 240.05 458.5 240.159 458.011 240.375C457.525 240.588 457.103 240.88 456.743 241.253C456.388 241.626 456.108 242.065 455.905 242.572C455.705 243.079 455.606 243.625 455.606 244.21C455.606 244.921 455.716 245.547 455.937 246.089C456.158 246.626 456.461 247.077 456.847 247.441C457.233 247.801 457.686 248.072 458.206 248.254C458.73 248.436 459.295 248.527 459.902 248.527C460.236 248.527 460.548 248.507 460.838 248.468C461.128 248.433 461.395 248.384 461.638 248.319C461.88 248.258 462.101 248.186 462.301 248.104C462.5 248.026 462.678 247.941 462.834 247.85C462.92 247.803 462.994 247.779 463.055 247.779C463.18 247.779 463.269 247.848 463.321 247.987L463.542 248.566C463.091 248.86 462.565 249.101 461.963 249.287C461.36 249.473 460.673 249.567 459.902 249.567C459.118 249.567 458.392 249.443 457.725 249.196C457.057 248.949 456.479 248.594 455.989 248.13C455.504 247.671 455.122 247.109 454.845 246.446C454.572 245.783 454.436 245.038 454.436 244.21C454.436 243.747 454.494 243.296 454.611 242.858C454.732 242.421 454.904 242.011 455.125 241.63C455.346 241.244 455.612 240.891 455.924 240.57C456.236 240.25 456.583 239.975 456.964 239.745C457.345 239.515 457.757 239.338 458.199 239.212C458.645 239.082 459.111 239.017 459.597 239.017C460.212 239.017 460.801 239.121 461.365 239.329C461.932 239.533 462.433 239.827 462.866 240.213C463.304 240.594 463.653 241.062 463.913 241.617C464.173 242.167 464.303 242.789 464.303 243.482C464.303 243.946 464.233 244.382 464.095 244.789C463.96 245.192 463.77 245.543 463.523 245.842C463.28 246.141 462.992 246.377 462.658 246.55C462.329 246.719 461.969 246.804 461.579 246.804ZM458.888 245.764C459.001 245.764 459.113 245.747 459.226 245.712C459.343 245.677 459.454 245.617 459.558 245.53C459.662 245.439 459.757 245.32 459.844 245.172C459.93 245.025 460.002 244.841 460.058 244.62L460.532 242.787C460.394 242.761 460.251 242.748 460.104 242.748C459.835 242.748 459.584 242.806 459.35 242.923C459.116 243.04 458.912 243.199 458.739 243.398C458.57 243.597 458.435 243.827 458.336 244.087C458.236 244.343 458.186 244.609 458.186 244.886C458.186 245.164 458.245 245.38 458.362 245.536C458.483 245.688 458.658 245.764 458.888 245.764ZM468.752 238.497C469.185 238.497 469.575 238.56 469.922 238.685C470.273 238.807 470.572 238.978 470.819 239.199C471.066 239.416 471.254 239.671 471.384 239.966C471.519 240.261 471.586 240.579 471.586 240.921C471.586 241.22 471.551 241.485 471.482 241.714C471.417 241.94 471.319 242.137 471.189 242.306C471.064 242.475 470.908 242.618 470.721 242.735C470.539 242.852 470.331 242.949 470.097 243.027C470.661 243.205 471.081 243.476 471.358 243.84C471.636 244.204 471.774 244.661 471.774 245.211C471.774 245.679 471.688 246.093 471.514 246.453C471.341 246.813 471.107 247.116 470.812 247.363C470.518 247.606 470.175 247.79 469.785 247.915C469.4 248.041 468.99 248.104 468.557 248.104C468.085 248.104 467.673 248.05 467.322 247.941C466.971 247.833 466.665 247.673 466.405 247.46C466.145 247.248 465.924 246.988 465.742 246.68C465.56 246.373 465.404 246.017 465.274 245.614L465.983 245.322C466.104 245.27 466.228 245.244 466.353 245.244C466.466 245.244 466.566 245.268 466.652 245.315C466.743 245.363 466.813 245.432 466.86 245.523C466.938 245.675 467.023 245.825 467.114 245.972C467.209 246.119 467.322 246.251 467.452 246.368C467.582 246.481 467.734 246.574 467.907 246.648C468.085 246.717 468.295 246.752 468.537 246.752C468.81 246.752 469.049 246.709 469.252 246.622C469.456 246.531 469.625 246.414 469.759 246.271C469.898 246.128 470 245.97 470.065 245.796C470.134 245.619 470.169 245.441 470.169 245.263C470.169 245.038 470.145 244.834 470.097 244.652C470.05 244.466 469.95 244.308 469.798 244.178C469.647 244.048 469.428 243.946 469.142 243.872C468.86 243.799 468.481 243.762 468.004 243.762V242.618C468.399 242.614 468.726 242.577 468.986 242.507C469.246 242.438 469.452 242.343 469.603 242.221C469.759 242.096 469.868 241.946 469.928 241.773C469.989 241.6 470.019 241.409 470.019 241.201C470.019 240.755 469.898 240.419 469.655 240.193C469.413 239.964 469.081 239.849 468.661 239.849C468.28 239.849 467.963 239.951 467.712 240.154C467.461 240.354 467.285 240.612 467.185 240.928C467.133 241.093 467.062 241.212 466.971 241.286C466.88 241.355 466.761 241.389 466.613 241.389C466.544 241.389 466.47 241.383 466.392 241.37L465.547 241.22C465.612 240.77 465.738 240.375 465.924 240.037C466.111 239.695 466.343 239.411 466.62 239.186C466.902 238.956 467.222 238.785 467.582 238.672C467.946 238.555 468.336 238.497 468.752 238.497ZM474.668 244.561L472.477 241.331H474.024C474.141 241.331 474.228 241.348 474.284 241.383C474.341 241.413 474.391 241.465 474.434 241.539L475.831 243.768C475.853 243.695 475.879 243.621 475.909 243.547C475.944 243.474 475.985 243.4 476.033 243.326L477.157 241.571C477.209 241.489 477.264 241.428 477.32 241.389C477.376 241.35 477.446 241.331 477.528 241.331H479.003L476.806 244.49L479.094 248H477.547C477.43 248 477.335 247.97 477.261 247.909C477.192 247.848 477.134 247.779 477.086 247.701L475.669 245.38C475.63 245.536 475.576 245.666 475.506 245.77L474.258 247.701C474.211 247.775 474.152 247.844 474.083 247.909C474.014 247.97 473.927 248 473.823 248H472.386L474.668 244.561Z" fill="#1989FA"/>
<path d="M113.788 56.062C113.788 56.6523 113.695 57.1895 113.508 57.6735C113.321 58.1575 113.057 58.5718 112.716 58.9165C112.375 59.2612 111.966 59.5288 111.489 59.7195C111.012 59.9065 110.484 60 109.905 60H106.957V52.1185H109.905C110.484 52.1185 111.012 52.2138 111.489 52.4045C111.966 52.5915 112.375 52.8592 112.716 53.2075C113.057 53.5522 113.321 53.9665 113.508 54.4505C113.695 54.9345 113.788 55.4717 113.788 56.062ZM112.694 56.062C112.694 55.578 112.628 55.1453 112.496 54.764C112.364 54.3827 112.177 54.06 111.934 53.796C111.693 53.532 111.399 53.3303 111.055 53.191C110.71 53.0517 110.327 52.982 109.905 52.982H108.03V59.1365H109.905C110.327 59.1365 110.71 59.0668 111.055 58.9275C111.399 58.7882 111.693 58.5883 111.934 58.328C112.177 58.064 112.364 57.7413 112.496 57.36C112.628 56.9787 112.694 56.546 112.694 56.062ZM120.096 52.1185V52.9875H116.312V55.6055H119.375V56.4415H116.312V59.131H120.096V60H115.239V52.1185H120.096ZM120.718 52.1185H121.57C121.666 52.1185 121.743 52.1423 121.801 52.19C121.86 52.2377 121.904 52.2982 121.933 52.3715L124.161 57.932C124.212 58.0567 124.258 58.1923 124.298 58.339C124.342 58.4857 124.384 58.6378 124.425 58.7955C124.458 58.6378 124.493 58.4857 124.529 58.339C124.57 58.1923 124.615 58.0567 124.667 57.932L126.883 52.3715C126.909 52.3092 126.953 52.2523 127.015 52.201C127.078 52.146 127.155 52.1185 127.246 52.1185H128.104L124.892 60H123.93L120.718 52.1185ZM130.372 60H129.305V52.1185H130.372V60ZM138.035 58.372C138.094 58.372 138.147 58.3958 138.195 58.4435L138.613 58.9C138.29 59.274 137.898 59.5655 137.436 59.7745C136.978 59.9835 136.424 60.088 135.775 60.088C135.207 60.088 134.691 59.9908 134.229 59.7965C133.767 59.5985 133.373 59.3235 133.047 58.9715C132.721 58.6158 132.468 58.1905 132.288 57.6955C132.108 57.2005 132.018 56.656 132.018 56.062C132.018 55.468 132.114 54.9235 132.304 54.4285C132.499 53.9335 132.77 53.5082 133.118 53.1525C133.467 52.7968 133.883 52.5218 134.367 52.3275C134.855 52.1295 135.392 52.0305 135.978 52.0305C136.558 52.0305 137.056 52.1203 137.474 52.3C137.896 52.4797 138.27 52.7235 138.596 53.0315L138.25 53.521C138.224 53.5577 138.195 53.5888 138.162 53.6145C138.129 53.6365 138.081 53.6475 138.019 53.6475C137.971 53.6475 137.92 53.631 137.865 53.598C137.814 53.5613 137.751 53.5173 137.678 53.466C137.605 53.4147 137.518 53.3597 137.419 53.301C137.32 53.2423 137.203 53.1873 137.067 53.136C136.932 53.0847 136.774 53.0425 136.594 53.0095C136.415 52.9728 136.208 52.9545 135.973 52.9545C135.551 52.9545 135.164 53.0278 134.812 53.1745C134.464 53.3175 134.163 53.5228 133.91 53.7905C133.657 54.0582 133.459 54.3845 133.316 54.7695C133.177 55.1545 133.107 55.5853 133.107 56.062C133.107 56.5533 133.177 56.9915 133.316 57.3765C133.459 57.7615 133.652 58.0878 133.894 58.3555C134.14 58.6195 134.429 58.8212 134.763 58.9605C135.097 59.0998 135.456 59.1695 135.841 59.1695C136.076 59.1695 136.286 59.1567 136.473 59.131C136.66 59.1017 136.833 59.0577 136.99 58.999C137.152 58.9403 137.3 58.867 137.436 58.779C137.575 58.6873 137.715 58.5792 137.854 58.4545C137.916 58.3995 137.977 58.372 138.035 58.372ZM144.867 52.1185V52.9875H141.083V55.6055H144.147V56.4415H141.083V59.131H144.867V60H140.011V52.1185H144.867Z" fill="#979797"/>
<path d="M461.442 60H460.617C460.521 60 460.444 59.9762 460.386 59.9285C460.327 59.8808 460.283 59.8203 460.254 59.747L459.517 57.844H455.98L455.243 59.747C455.217 59.813 455.173 59.8717 455.111 59.923C455.049 59.9743 454.972 60 454.88 60H454.055L457.207 52.1185H458.29L461.442 60ZM456.277 57.074H459.22L457.982 53.8675C457.901 53.6695 457.823 53.422 457.746 53.125C457.705 53.2753 457.665 53.4147 457.625 53.543C457.588 53.6677 457.551 53.7777 457.515 53.873L456.277 57.074ZM466.471 53.3505C466.438 53.4055 466.403 53.4477 466.366 53.477C466.329 53.5027 466.282 53.5155 466.223 53.5155C466.161 53.5155 466.087 53.4843 466.003 53.422C465.922 53.3597 465.818 53.2918 465.69 53.2185C465.565 53.1415 465.413 53.0718 465.233 53.0095C465.057 52.9472 464.843 52.916 464.59 52.916C464.351 52.916 464.14 52.949 463.957 53.015C463.774 53.0773 463.62 53.1635 463.495 53.2735C463.374 53.3835 463.282 53.5137 463.22 53.664C463.158 53.8107 463.127 53.9702 463.127 54.1425C463.127 54.3625 463.18 54.5458 463.286 54.6925C463.396 54.8355 463.539 54.9583 463.715 55.061C463.895 55.1637 464.096 55.2535 464.32 55.3305C464.547 55.4038 464.778 55.4808 465.013 55.5615C465.251 55.6422 465.482 55.7338 465.706 55.8365C465.933 55.9355 466.135 56.062 466.311 56.216C466.491 56.37 466.634 56.5588 466.74 56.7825C466.85 57.0062 466.905 57.2812 466.905 57.6075C466.905 57.9522 466.846 58.2767 466.729 58.581C466.612 58.8817 466.439 59.1438 466.212 59.3675C465.988 59.5912 465.712 59.7672 465.382 59.8955C465.055 60.0238 464.683 60.088 464.265 60.088C463.755 60.088 463.29 59.9963 462.868 59.813C462.45 59.626 462.093 59.3748 461.796 59.0595L462.104 58.5535C462.133 58.5132 462.168 58.4802 462.208 58.4545C462.252 58.4252 462.3 58.4105 462.351 58.4105C462.428 58.4105 462.516 58.4527 462.615 58.537C462.714 58.6177 462.837 58.7075 462.984 58.8065C463.134 58.9055 463.314 58.9972 463.523 59.0815C463.735 59.1622 463.994 59.2025 464.298 59.2025C464.551 59.2025 464.777 59.1677 464.975 59.098C465.173 59.0283 465.339 58.9312 465.475 58.8065C465.614 58.6782 465.721 58.526 465.794 58.35C465.867 58.174 465.904 57.9778 465.904 57.7615C465.904 57.5232 465.849 57.3288 465.739 57.1785C465.633 57.0245 465.492 56.8962 465.316 56.7935C465.14 56.6908 464.938 56.6047 464.711 56.535C464.487 56.4617 464.256 56.3883 464.018 56.315C463.783 56.238 463.552 56.15 463.325 56.051C463.101 55.952 462.901 55.8237 462.725 55.666C462.549 55.5083 462.406 55.3122 462.296 55.0775C462.19 54.8392 462.137 54.5458 462.137 54.1975C462.137 53.9188 462.19 53.6493 462.296 53.389C462.406 53.1287 462.564 52.8977 462.769 52.696C462.974 52.4943 463.227 52.333 463.528 52.212C463.832 52.091 464.181 52.0305 464.573 52.0305C465.013 52.0305 465.415 52.1002 465.778 52.2395C466.141 52.3788 466.458 52.5805 466.729 52.8445L466.471 53.3505ZM472.304 53.3505C472.271 53.4055 472.236 53.4477 472.199 53.477C472.162 53.5027 472.115 53.5155 472.056 53.5155C471.994 53.5155 471.92 53.4843 471.836 53.422C471.755 53.3597 471.651 53.2918 471.523 53.2185C471.398 53.1415 471.246 53.0718 471.066 53.0095C470.89 52.9472 470.676 52.916 470.423 52.916C470.184 52.916 469.973 52.949 469.79 53.015C469.607 53.0773 469.453 53.1635 469.328 53.2735C469.207 53.3835 469.115 53.5137 469.053 53.664C468.991 53.8107 468.96 53.9702 468.96 54.1425C468.96 54.3625 469.013 54.5458 469.119 54.6925C469.229 54.8355 469.372 54.9583 469.548 55.061C469.728 55.1637 469.929 55.2535 470.153 55.3305C470.38 55.4038 470.611 55.4808 470.846 55.5615C471.084 55.6422 471.315 55.7338 471.539 55.8365C471.766 55.9355 471.968 56.062 472.144 56.216C472.324 56.37 472.467 56.5588 472.573 56.7825C472.683 57.0062 472.738 57.2812 472.738 57.6075C472.738 57.9522 472.679 58.2767 472.562 58.581C472.445 58.8817 472.272 59.1438 472.045 59.3675C471.821 59.5912 471.545 59.7672 471.215 59.8955C470.888 60.0238 470.516 60.088 470.098 60.088C469.588 60.088 469.123 59.9963 468.701 59.813C468.283 59.626 467.926 59.3748 467.629 59.0595L467.937 58.5535C467.966 58.5132 468.001 58.4802 468.041 58.4545C468.085 58.4252 468.133 58.4105 468.184 58.4105C468.261 58.4105 468.349 58.4527 468.448 58.537C468.547 58.6177 468.67 58.7075 468.817 58.8065C468.967 58.9055 469.147 58.9972 469.356 59.0815C469.568 59.1622 469.827 59.2025 470.131 59.2025C470.384 59.2025 470.61 59.1677 470.808 59.098C471.006 59.0283 471.172 58.9312 471.308 58.8065C471.447 58.6782 471.554 58.526 471.627 58.35C471.7 58.174 471.737 57.9778 471.737 57.7615C471.737 57.5232 471.682 57.3288 471.572 57.1785C471.466 57.0245 471.325 56.8962 471.149 56.7935C470.973 56.6908 470.771 56.6047 470.544 56.535C470.32 56.4617 470.089 56.3883 469.851 56.315C469.616 56.238 469.385 56.15 469.158 56.051C468.934 55.952 468.734 55.8237 468.558 55.666C468.382 55.5083 468.239 55.3122 468.129 55.0775C468.023 54.8392 467.97 54.5458 467.97 54.1975C467.97 53.9188 468.023 53.6493 468.129 53.389C468.239 53.1287 468.397 52.8977 468.602 52.696C468.807 52.4943 469.06 52.333 469.361 52.212C469.665 52.091 470.014 52.0305 470.406 52.0305C470.846 52.0305 471.248 52.1002 471.611 52.2395C471.974 52.3788 472.291 52.5805 472.562 52.8445L472.304 53.3505ZM478.956 52.1185V52.9875H475.172V55.6055H478.236V56.4415H475.172V59.131H478.956V60H474.1V52.1185H478.956ZM485.859 52.1185V53.015H483.313V60H482.246V53.015H479.688V52.1185H485.859ZM490.278 56.711V60H489.216V52.1185H491.444C491.943 52.1185 492.373 52.1698 492.736 52.2725C493.099 52.3715 493.398 52.5163 493.633 52.707C493.871 52.8977 494.047 53.1287 494.161 53.4C494.275 53.6677 494.331 53.9683 494.331 54.302C494.331 54.5807 494.287 54.841 494.199 55.083C494.111 55.325 493.983 55.5432 493.814 55.7375C493.649 55.9282 493.446 56.0913 493.204 56.227C492.966 56.3627 492.694 56.4653 492.39 56.535C492.522 56.612 492.639 56.7238 492.742 56.8705L495.041 60H494.095C493.901 60 493.758 59.9248 493.666 59.7745L491.62 56.9585C491.558 56.8705 491.49 56.8082 491.416 56.7715C491.343 56.7312 491.233 56.711 491.086 56.711H490.278ZM490.278 55.9355H491.394C491.706 55.9355 491.979 55.8988 492.214 55.8255C492.452 55.7485 492.65 55.6422 492.808 55.5065C492.969 55.3672 493.09 55.2022 493.171 55.0115C493.252 54.8208 493.292 54.61 493.292 54.379C493.292 53.9097 493.136 53.5558 492.824 53.3175C492.516 53.0792 492.056 52.96 491.444 52.96H490.278V55.9355ZM501.042 52.1185V52.9875H497.258V55.6055H500.322V56.4415H497.258V59.131H501.042V60H496.186V52.1185H501.042ZM506.614 53.3505C506.581 53.4055 506.546 53.4477 506.51 53.477C506.473 53.5027 506.425 53.5155 506.367 53.5155C506.304 53.5155 506.231 53.4843 506.147 53.422C506.066 53.3597 505.961 53.2918 505.833 53.2185C505.708 53.1415 505.556 53.0718 505.377 53.0095C505.201 52.9472 504.986 52.916 504.733 52.916C504.495 52.916 504.284 52.949 504.101 53.015C503.917 53.0773 503.763 53.1635 503.639 53.2735C503.518 53.3835 503.426 53.5137 503.364 53.664C503.301 53.8107 503.27 53.9702 503.27 54.1425C503.27 54.3625 503.323 54.5458 503.43 54.6925C503.54 54.8355 503.683 54.9583 503.859 55.061C504.038 55.1637 504.24 55.2535 504.464 55.3305C504.691 55.4038 504.922 55.4808 505.157 55.5615C505.395 55.6422 505.626 55.7338 505.85 55.8365C506.077 55.9355 506.279 56.062 506.455 56.216C506.634 56.37 506.777 56.5588 506.884 56.7825C506.994 57.0062 507.049 57.2812 507.049 57.6075C507.049 57.9522 506.99 58.2767 506.873 58.581C506.755 58.8817 506.583 59.1438 506.356 59.3675C506.132 59.5912 505.855 59.7672 505.525 59.8955C505.199 60.0238 504.827 60.088 504.409 60.088C503.899 60.088 503.433 59.9963 503.012 59.813C502.594 59.626 502.236 59.3748 501.939 59.0595L502.247 58.5535C502.276 58.5132 502.311 58.4802 502.352 58.4545C502.396 58.4252 502.443 58.4105 502.495 58.4105C502.572 58.4105 502.66 58.4527 502.759 58.537C502.858 58.6177 502.98 58.7075 503.127 58.8065C503.277 58.9055 503.457 58.9972 503.666 59.0815C503.879 59.1622 504.137 59.2025 504.442 59.2025C504.695 59.2025 504.92 59.1677 505.118 59.098C505.316 59.0283 505.483 58.9312 505.619 58.8065C505.758 58.6782 505.864 58.526 505.938 58.35C506.011 58.174 506.048 57.9778 506.048 57.7615C506.048 57.5232 505.993 57.3288 505.883 57.1785C505.776 57.0245 505.635 56.8962 505.459 56.7935C505.283 56.6908 505.081 56.6047 504.854 56.535C504.63 56.4617 504.399 56.3883 504.161 56.315C503.926 56.238 503.695 56.15 503.468 56.051C503.244 55.952 503.045 55.8237 502.869 55.666C502.693 55.5083 502.55 55.3122 502.44 55.0775C502.333 54.8392 502.28 54.5458 502.28 54.1975C502.28 53.9188 502.333 53.6493 502.44 53.389C502.55 53.1287 502.707 52.8977 502.913 52.696C503.118 52.4943 503.371 52.333 503.672 52.212C503.976 52.091 504.324 52.0305 504.717 52.0305C505.157 52.0305 505.558 52.1002 505.921 52.2395C506.284 52.3788 506.601 52.5805 506.873 52.8445L506.614 53.3505ZM515.731 56.062C515.731 56.6523 515.637 57.195 515.45 57.69C515.263 58.1813 514.999 58.6048 514.658 58.9605C514.317 59.3162 513.906 59.593 513.426 59.791C512.949 59.9853 512.421 60.0825 511.842 60.0825C511.263 60.0825 510.735 59.9853 510.258 59.791C509.781 59.593 509.373 59.3162 509.032 58.9605C508.691 58.6048 508.427 58.1813 508.24 57.69C508.053 57.195 507.959 56.6523 507.959 56.062C507.959 55.4717 508.053 54.9308 508.24 54.4395C508.427 53.9445 508.691 53.5192 509.032 53.1635C509.373 52.8042 509.781 52.5255 510.258 52.3275C510.735 52.1295 511.263 52.0305 511.842 52.0305C512.421 52.0305 512.949 52.1295 513.426 52.3275C513.906 52.5255 514.317 52.8042 514.658 53.1635C514.999 53.5192 515.263 53.9445 515.45 54.4395C515.637 54.9308 515.731 55.4717 515.731 56.062ZM514.636 56.062C514.636 55.578 514.57 55.1435 514.438 54.7585C514.306 54.3735 514.119 54.049 513.877 53.785C513.635 53.5173 513.342 53.312 512.997 53.169C512.652 53.026 512.267 52.9545 511.842 52.9545C511.42 52.9545 511.037 53.026 510.693 53.169C510.348 53.312 510.053 53.5173 509.807 53.785C509.565 54.049 509.378 54.3735 509.246 54.7585C509.114 55.1435 509.048 55.578 509.048 56.062C509.048 56.546 509.114 56.9805 509.246 57.3655C509.378 57.7468 509.565 58.0713 509.807 58.339C510.053 58.603 510.348 58.8065 510.693 58.9495C511.037 59.0888 511.42 59.1585 511.842 59.1585C512.267 59.1585 512.652 59.0888 512.997 58.9495C513.342 58.8065 513.635 58.603 513.877 58.339C514.119 58.0713 514.306 57.7468 514.438 57.3655C514.57 56.9805 514.636 56.546 514.636 56.062ZM518.253 59.1035H521.663V60H517.186V52.1185H518.253V59.1035ZM525.9 59.153C526.227 59.153 526.518 59.098 526.775 58.988C527.032 58.878 527.248 58.724 527.424 58.526C527.604 58.328 527.739 58.0915 527.831 57.8165C527.926 57.5415 527.974 57.239 527.974 56.909V52.1185H529.035V56.909C529.035 57.3637 528.962 57.7853 528.815 58.174C528.672 58.5627 528.465 58.9 528.194 59.186C527.926 59.4683 527.598 59.6902 527.209 59.8515C526.821 60.0128 526.384 60.0935 525.9 60.0935C525.416 60.0935 524.98 60.0128 524.591 59.8515C524.203 59.6902 523.873 59.4683 523.601 59.186C523.33 58.9 523.121 58.5627 522.974 58.174C522.831 57.7853 522.76 57.3637 522.76 56.909V52.1185H523.821V56.9035C523.821 57.2335 523.867 57.536 523.959 57.811C524.054 58.086 524.19 58.3225 524.366 58.5205C524.546 58.7185 524.764 58.8743 525.02 58.988C525.281 59.098 525.574 59.153 525.9 59.153ZM536.24 52.1185V53.015H533.694V60H532.627V53.015H530.069V52.1185H536.24ZM538.625 60H537.558V52.1185H538.625V60ZM548.054 56.062C548.054 56.6523 547.96 57.195 547.773 57.69C547.586 58.1813 547.322 58.6048 546.981 58.9605C546.64 59.3162 546.23 59.593 545.749 59.791C545.273 59.9853 544.745 60.0825 544.165 60.0825C543.586 60.0825 543.058 59.9853 542.581 59.791C542.105 59.593 541.696 59.3162 541.355 58.9605C541.014 58.6048 540.75 58.1813 540.563 57.69C540.376 57.195 540.282 56.6523 540.282 56.062C540.282 55.4717 540.376 54.9308 540.563 54.4395C540.75 53.9445 541.014 53.5192 541.355 53.1635C541.696 52.8042 542.105 52.5255 542.581 52.3275C543.058 52.1295 543.586 52.0305 544.165 52.0305C544.745 52.0305 545.273 52.1295 545.749 52.3275C546.23 52.5255 546.64 52.8042 546.981 53.1635C547.322 53.5192 547.586 53.9445 547.773 54.4395C547.96 54.9308 548.054 55.4717 548.054 56.062ZM546.959 56.062C546.959 55.578 546.893 55.1435 546.761 54.7585C546.629 54.3735 546.442 54.049 546.2 53.785C545.958 53.5173 545.665 53.312 545.32 53.169C544.976 53.026 544.591 52.9545 544.165 52.9545C543.744 52.9545 543.361 53.026 543.016 53.169C542.671 53.312 542.376 53.5173 542.13 53.785C541.888 54.049 541.701 54.3735 541.569 54.7585C541.437 55.1435 541.371 55.578 541.371 56.062C541.371 56.546 541.437 56.9805 541.569 57.3655C541.701 57.7468 541.888 58.0713 542.13 58.339C542.376 58.603 542.671 58.8065 543.016 58.9495C543.361 59.0888 543.744 59.1585 544.165 59.1585C544.591 59.1585 544.976 59.0888 545.32 58.9495C545.665 58.8065 545.958 58.603 546.2 58.339C546.442 58.0713 546.629 57.7468 546.761 57.3655C546.893 56.9805 546.959 56.546 546.959 56.062ZM550.06 52.1185C550.155 52.1185 550.225 52.1313 550.269 52.157C550.316 52.179 550.37 52.2267 550.428 52.3L554.993 58.24C554.982 58.1447 554.975 58.053 554.971 57.965C554.968 57.8733 554.966 57.7853 554.966 57.701V52.1185H555.901V60H555.362C555.277 60 555.206 59.9853 555.147 59.956C555.092 59.9267 555.037 59.8772 554.982 59.8075L550.423 53.873C550.43 53.9647 550.436 54.0545 550.439 54.1425C550.443 54.2305 550.445 54.3112 550.445 54.3845V60H549.51V52.1185H550.06Z" fill="#979797"/>
<path d="M106 77.5H620.388" stroke="#979797" stroke-linecap="square"/>
</svg>
