<svg width="1000" height="278" viewBox="0 0 1000 278" fill="none" xmlns="http://www.w3.org/2000/svg">
<rect width="1000" height="278" fill="white"/>
<rect x="59" y="60" width="224" height="34" rx="5" fill="#279FF6"/>
<path d="M163.42 70.986V84H162.178C161.986 84 161.824 83.97 161.692 83.91C161.566 83.844 161.443 83.736 161.323 83.586L154.528 74.91C154.564 75.306 154.582 75.672 154.582 76.008V84H152.449V70.986H153.718C153.82 70.986 153.907 70.992 153.979 71.004C154.057 71.01 154.123 71.028 154.177 71.058C154.237 71.082 154.294 71.121 154.348 71.175C154.402 71.223 154.462 71.289 154.528 71.373L161.35 80.085C161.332 79.875 161.317 79.668 161.305 79.464C161.293 79.26 161.287 79.071 161.287 78.897V70.986H163.42ZM172.197 78.321C172.197 78.033 172.155 77.763 172.071 77.511C171.993 77.253 171.873 77.028 171.711 76.836C171.549 76.644 171.342 76.494 171.09 76.386C170.844 76.272 170.556 76.215 170.226 76.215C169.584 76.215 169.077 76.398 168.705 76.764C168.339 77.13 168.105 77.649 168.003 78.321H172.197ZM167.958 79.662C167.994 80.136 168.078 80.547 168.21 80.895C168.342 81.237 168.516 81.522 168.732 81.75C168.948 81.972 169.203 82.14 169.497 82.254C169.797 82.362 170.127 82.416 170.487 82.416C170.847 82.416 171.156 82.374 171.414 82.29C171.678 82.206 171.906 82.113 172.098 82.011C172.296 81.909 172.467 81.816 172.611 81.732C172.761 81.648 172.905 81.606 173.043 81.606C173.229 81.606 173.367 81.675 173.457 81.813L174.096 82.623C173.85 82.911 173.574 83.154 173.268 83.352C172.962 83.544 172.641 83.7 172.305 83.82C171.975 83.934 171.636 84.015 171.288 84.063C170.946 84.111 170.613 84.135 170.289 84.135C169.647 84.135 169.05 84.03 168.498 83.82C167.946 83.604 167.466 83.289 167.058 82.875C166.65 82.455 166.329 81.939 166.095 81.327C165.861 80.709 165.744 79.995 165.744 79.185C165.744 78.555 165.846 77.964 166.05 77.412C166.254 76.854 166.545 76.371 166.923 75.963C167.307 75.549 167.772 75.222 168.318 74.982C168.87 74.742 169.491 74.622 170.181 74.622C170.763 74.622 171.3 74.715 171.792 74.901C172.284 75.087 172.707 75.36 173.061 75.72C173.415 76.074 173.691 76.512 173.889 77.034C174.093 77.55 174.195 78.141 174.195 78.807C174.195 79.143 174.159 79.371 174.087 79.491C174.015 79.605 173.877 79.662 173.673 79.662H167.958ZM189.488 74.766L186.554 84H184.772C184.568 84 184.427 83.868 184.349 83.604L182.693 78.267C182.639 78.087 182.588 77.91 182.54 77.736C182.498 77.556 182.462 77.376 182.432 77.196C182.396 77.376 182.354 77.559 182.306 77.745C182.264 77.925 182.216 78.105 182.162 78.285L180.479 83.604C180.407 83.868 180.248 84 180.002 84H178.292L175.367 74.766H177.14C177.302 74.766 177.44 74.805 177.554 74.883C177.668 74.961 177.743 75.06 177.779 75.18L179.102 80.112C179.168 80.382 179.225 80.646 179.273 80.904C179.327 81.162 179.372 81.42 179.408 81.678C179.474 81.42 179.543 81.162 179.615 80.904C179.693 80.646 179.774 80.382 179.858 80.112L181.388 75.162C181.424 75.042 181.493 74.943 181.595 74.865C181.703 74.787 181.832 74.748 181.982 74.748H182.963C183.119 74.748 183.251 74.787 183.359 74.865C183.473 74.943 183.548 75.042 183.584 75.162L185.069 80.112C185.147 80.382 185.219 80.649 185.285 80.913C185.357 81.171 185.426 81.429 185.492 81.687C185.57 81.177 185.681 80.652 185.825 80.112L187.184 75.18C187.226 75.06 187.301 74.961 187.409 74.883C187.517 74.805 187.646 74.766 187.796 74.766H189.488Z" fill="white"/>
<rect x="315.5" y="60.5" width="223" height="33" rx="4.5" fill="white" stroke="#279FF6"/>
<path d="M415.072 82.002V84H407.449V70.986H409.87V82.002H415.072ZM420.623 74.622C421.307 74.622 421.928 74.733 422.486 74.955C423.05 75.177 423.53 75.492 423.926 75.9C424.328 76.308 424.637 76.806 424.853 77.394C425.069 77.982 425.177 78.639 425.177 79.365C425.177 80.097 425.069 80.757 424.853 81.345C424.637 81.933 424.328 82.434 423.926 82.848C423.53 83.262 423.05 83.58 422.486 83.802C421.928 84.024 421.307 84.135 420.623 84.135C419.933 84.135 419.306 84.024 418.742 83.802C418.178 83.58 417.695 83.262 417.293 82.848C416.897 82.434 416.588 81.933 416.366 81.345C416.15 80.757 416.042 80.097 416.042 79.365C416.042 78.639 416.15 77.982 416.366 77.394C416.588 76.806 416.897 76.308 417.293 75.9C417.695 75.492 418.178 75.177 418.742 74.955C419.306 74.733 419.933 74.622 420.623 74.622ZM420.623 82.425C421.391 82.425 421.958 82.167 422.324 81.651C422.696 81.135 422.882 80.379 422.882 79.383C422.882 78.387 422.696 77.628 422.324 77.106C421.958 76.584 421.391 76.323 420.623 76.323C419.843 76.323 419.264 76.587 418.886 77.115C418.514 77.637 418.328 78.393 418.328 79.383C418.328 80.373 418.514 81.129 418.886 81.651C419.264 82.167 419.843 82.425 420.623 82.425ZM432.314 80.058C431.672 80.088 431.132 80.145 430.694 80.229C430.256 80.307 429.905 80.409 429.641 80.535C429.377 80.661 429.188 80.808 429.074 80.976C428.96 81.144 428.903 81.327 428.903 81.525C428.903 81.915 429.017 82.194 429.245 82.362C429.479 82.53 429.782 82.614 430.154 82.614C430.61 82.614 431.003 82.533 431.333 82.371C431.669 82.203 431.996 81.951 432.314 81.615V80.058ZM427.22 76.053C428.282 75.081 429.56 74.595 431.054 74.595C431.594 74.595 432.077 74.685 432.503 74.865C432.929 75.039 433.289 75.285 433.583 75.603C433.877 75.915 434.099 76.29 434.249 76.728C434.405 77.166 434.483 77.646 434.483 78.168V84H433.475C433.265 84 433.103 83.97 432.989 83.91C432.875 83.844 432.785 83.715 432.719 83.523L432.521 82.857C432.287 83.067 432.059 83.253 431.837 83.415C431.615 83.571 431.384 83.703 431.144 83.811C430.904 83.919 430.646 84 430.37 84.054C430.1 84.114 429.8 84.144 429.47 84.144C429.08 84.144 428.72 84.093 428.39 83.991C428.06 83.883 427.775 83.724 427.535 83.514C427.295 83.304 427.109 83.043 426.977 82.731C426.845 82.419 426.779 82.056 426.779 81.642C426.779 81.408 426.818 81.177 426.896 80.949C426.974 80.715 427.1 80.493 427.274 80.283C427.454 80.073 427.685 79.875 427.967 79.689C428.249 79.503 428.594 79.341 429.002 79.203C429.416 79.065 429.896 78.954 430.442 78.87C430.988 78.78 431.612 78.726 432.314 78.708V78.168C432.314 77.55 432.182 77.094 431.918 76.8C431.654 76.5 431.273 76.35 430.775 76.35C430.415 76.35 430.115 76.392 429.875 76.476C429.641 76.56 429.434 76.656 429.254 76.764C429.074 76.866 428.909 76.959 428.759 77.043C428.615 77.127 428.453 77.169 428.273 77.169C428.117 77.169 427.985 77.13 427.877 77.052C427.769 76.968 427.682 76.872 427.616 76.764L427.22 76.053ZM442.935 77.124C442.683 76.818 442.407 76.602 442.107 76.476C441.813 76.35 441.495 76.287 441.153 76.287C440.817 76.287 440.514 76.35 440.244 76.476C439.974 76.602 439.743 76.794 439.551 77.052C439.359 77.304 439.212 77.628 439.11 78.024C439.008 78.414 438.957 78.876 438.957 79.41C438.957 79.95 438.999 80.409 439.083 80.787C439.173 81.159 439.299 81.465 439.461 81.705C439.623 81.939 439.821 82.11 440.055 82.218C440.289 82.32 440.55 82.371 440.838 82.371C441.3 82.371 441.693 82.275 442.017 82.083C442.341 81.891 442.647 81.618 442.935 81.264V77.124ZM445.158 70.626V84H443.799C443.505 84 443.319 83.865 443.241 83.595L443.052 82.704C442.68 83.13 442.251 83.475 441.765 83.739C441.285 84.003 440.724 84.135 440.082 84.135C439.578 84.135 439.116 84.03 438.696 83.82C438.276 83.61 437.913 83.307 437.607 82.911C437.307 82.509 437.073 82.014 436.905 81.426C436.743 80.838 436.662 80.166 436.662 79.41C436.662 78.726 436.755 78.09 436.941 77.502C437.127 76.914 437.394 76.404 437.742 75.972C438.09 75.54 438.507 75.204 438.993 74.964C439.479 74.718 440.025 74.595 440.631 74.595C441.147 74.595 441.588 74.676 441.954 74.838C442.32 75 442.647 75.219 442.935 75.495V70.626H445.158Z" fill="#279FF6"/>
<rect x="59" y="167" width="246" height="35" rx="5" fill="#279FF6"/>
<path d="M130.32 185.216C130.32 186.064 130.179 186.851 129.896 187.576C129.619 188.296 129.224 188.92 128.712 189.448C128.2 189.976 127.584 190.389 126.864 190.688C126.144 190.981 125.344 191.128 124.464 191.128C123.589 191.128 122.792 190.981 122.072 190.688C121.352 190.389 120.733 189.976 120.216 189.448C119.704 188.92 119.307 188.296 119.024 187.576C118.741 186.851 118.6 186.064 118.6 185.216C118.6 184.368 118.741 183.584 119.024 182.864C119.307 182.139 119.704 181.512 120.216 180.984C120.733 180.456 121.352 180.045 122.072 179.752C122.792 179.453 123.589 179.304 124.464 179.304C125.051 179.304 125.603 179.373 126.12 179.512C126.637 179.645 127.112 179.837 127.544 180.088C127.976 180.333 128.363 180.635 128.704 180.992C129.051 181.344 129.344 181.739 129.584 182.176C129.824 182.613 130.005 183.088 130.128 183.6C130.256 184.112 130.32 184.651 130.32 185.216ZM128.12 185.216C128.12 184.581 128.035 184.013 127.864 183.512C127.693 183.005 127.451 182.576 127.136 182.224C126.821 181.872 126.437 181.603 125.984 181.416C125.536 181.229 125.029 181.136 124.464 181.136C123.899 181.136 123.389 181.229 122.936 181.416C122.488 181.603 122.104 181.872 121.784 182.224C121.469 182.576 121.227 183.005 121.056 183.512C120.885 184.013 120.8 184.581 120.8 185.216C120.8 185.851 120.885 186.421 121.056 186.928C121.227 187.429 121.469 187.856 121.784 188.208C122.104 188.555 122.488 188.821 122.936 189.008C123.389 189.195 123.899 189.288 124.464 189.288C125.029 189.288 125.536 189.195 125.984 189.008C126.437 188.821 126.821 188.555 127.136 188.208C127.451 187.856 127.693 187.429 127.864 186.928C128.035 186.421 128.12 185.851 128.12 185.216ZM133.733 188.872C133.957 189.144 134.2 189.336 134.461 189.448C134.728 189.56 135.016 189.616 135.325 189.616C135.624 189.616 135.893 189.56 136.133 189.448C136.373 189.336 136.576 189.165 136.741 188.936C136.912 188.707 137.043 188.419 137.133 188.072C137.224 187.72 137.269 187.307 137.269 186.832C137.269 186.352 137.229 185.947 137.149 185.616C137.075 185.28 136.965 185.008 136.821 184.8C136.677 184.592 136.501 184.44 136.293 184.344C136.091 184.248 135.859 184.2 135.597 184.2C135.187 184.2 134.837 184.288 134.549 184.464C134.261 184.635 133.989 184.877 133.733 185.192V188.872ZM133.629 183.912C133.965 183.533 134.347 183.227 134.773 182.992C135.2 182.757 135.701 182.64 136.277 182.64C136.725 182.64 137.133 182.733 137.501 182.92C137.875 183.107 138.195 183.379 138.461 183.736C138.733 184.088 138.941 184.525 139.085 185.048C139.235 185.565 139.309 186.16 139.309 186.832C139.309 187.445 139.227 188.013 139.061 188.536C138.896 189.059 138.659 189.512 138.349 189.896C138.045 190.28 137.675 190.581 137.237 190.8C136.805 191.013 136.32 191.12 135.781 191.12C135.323 191.12 134.931 191.051 134.605 190.912C134.28 190.768 133.989 190.571 133.733 190.32V193.68H131.757V182.792H132.965C133.221 182.792 133.389 182.912 133.469 183.152L133.629 183.912ZM146.139 185.952C146.139 185.696 146.102 185.456 146.027 185.232C145.958 185.003 145.851 184.803 145.707 184.632C145.563 184.461 145.379 184.328 145.155 184.232C144.936 184.131 144.68 184.08 144.387 184.08C143.816 184.08 143.366 184.243 143.035 184.568C142.71 184.893 142.502 185.355 142.411 185.952H146.139ZM142.371 187.144C142.403 187.565 142.478 187.931 142.595 188.24C142.712 188.544 142.867 188.797 143.059 189C143.251 189.197 143.478 189.347 143.739 189.448C144.006 189.544 144.299 189.592 144.619 189.592C144.939 189.592 145.214 189.555 145.443 189.48C145.678 189.405 145.88 189.323 146.051 189.232C146.227 189.141 146.379 189.059 146.507 188.984C146.64 188.909 146.768 188.872 146.891 188.872C147.056 188.872 147.179 188.933 147.259 189.056L147.827 189.776C147.608 190.032 147.363 190.248 147.091 190.424C146.819 190.595 146.534 190.733 146.235 190.84C145.942 190.941 145.64 191.013 145.331 191.056C145.027 191.099 144.731 191.12 144.443 191.12C143.872 191.12 143.342 191.027 142.851 190.84C142.36 190.648 141.934 190.368 141.571 190C141.208 189.627 140.923 189.168 140.715 188.624C140.507 188.075 140.403 187.44 140.403 186.72C140.403 186.16 140.494 185.635 140.675 185.144C140.856 184.648 141.115 184.219 141.451 183.856C141.792 183.488 142.206 183.197 142.691 182.984C143.182 182.771 143.734 182.664 144.347 182.664C144.864 182.664 145.342 182.747 145.779 182.912C146.216 183.077 146.592 183.32 146.907 183.64C147.222 183.955 147.467 184.344 147.643 184.808C147.824 185.267 147.915 185.792 147.915 186.384C147.915 186.683 147.883 186.885 147.819 186.992C147.755 187.093 147.632 187.144 147.451 187.144H142.371ZM151.246 183.8C151.411 183.635 151.585 183.483 151.766 183.344C151.953 183.2 152.147 183.08 152.35 182.984C152.558 182.883 152.779 182.805 153.014 182.752C153.249 182.693 153.505 182.664 153.782 182.664C154.23 182.664 154.627 182.741 154.974 182.896C155.321 183.045 155.609 183.259 155.838 183.536C156.073 183.808 156.249 184.136 156.366 184.52C156.489 184.899 156.55 185.317 156.55 185.776V191H154.574V185.776C154.574 185.275 154.459 184.888 154.23 184.616C154.001 184.339 153.651 184.2 153.182 184.2C152.841 184.2 152.521 184.277 152.222 184.432C151.923 184.587 151.641 184.797 151.374 185.064V191H149.398V182.792H150.606C150.862 182.792 151.03 182.912 151.11 183.152L151.246 183.8ZM168.792 181.536C168.728 181.648 168.658 181.731 168.584 181.784C168.514 181.832 168.426 181.856 168.32 181.856C168.208 181.856 168.085 181.816 167.952 181.736C167.824 181.651 167.669 181.557 167.488 181.456C167.306 181.355 167.093 181.264 166.848 181.184C166.608 181.099 166.322 181.056 165.992 181.056C165.693 181.056 165.432 181.093 165.208 181.168C164.984 181.237 164.794 181.336 164.64 181.464C164.49 181.592 164.378 181.747 164.304 181.928C164.229 182.104 164.192 182.299 164.192 182.512C164.192 182.784 164.266 183.011 164.416 183.192C164.57 183.373 164.773 183.528 165.024 183.656C165.274 183.784 165.56 183.899 165.88 184C166.2 184.101 166.528 184.211 166.864 184.328C167.2 184.44 167.528 184.573 167.848 184.728C168.168 184.877 168.453 185.069 168.704 185.304C168.954 185.533 169.154 185.816 169.304 186.152C169.458 186.488 169.536 186.896 169.536 187.376C169.536 187.899 169.445 188.389 169.264 188.848C169.088 189.301 168.826 189.699 168.48 190.04C168.138 190.376 167.72 190.643 167.224 190.84C166.728 191.032 166.16 191.128 165.52 191.128C165.152 191.128 164.789 191.091 164.432 191.016C164.074 190.947 163.73 190.845 163.4 190.712C163.074 190.579 162.768 190.419 162.48 190.232C162.192 190.045 161.936 189.837 161.712 189.608L162.344 188.576C162.397 188.501 162.466 188.44 162.552 188.392C162.637 188.339 162.728 188.312 162.824 188.312C162.957 188.312 163.101 188.368 163.256 188.48C163.41 188.587 163.594 188.707 163.808 188.84C164.021 188.973 164.269 189.096 164.552 189.208C164.84 189.315 165.184 189.368 165.584 189.368C166.197 189.368 166.672 189.224 167.008 188.936C167.344 188.643 167.512 188.224 167.512 187.68C167.512 187.376 167.434 187.128 167.28 186.936C167.13 186.744 166.93 186.584 166.68 186.456C166.429 186.323 166.144 186.211 165.824 186.12C165.504 186.029 165.178 185.931 164.848 185.824C164.517 185.717 164.192 185.589 163.872 185.44C163.552 185.291 163.266 185.096 163.016 184.856C162.765 184.616 162.562 184.317 162.408 183.96C162.258 183.597 162.184 183.152 162.184 182.624C162.184 182.203 162.266 181.792 162.432 181.392C162.602 180.992 162.848 180.637 163.168 180.328C163.488 180.019 163.882 179.771 164.352 179.584C164.821 179.397 165.36 179.304 165.968 179.304C166.65 179.304 167.28 179.411 167.856 179.624C168.432 179.837 168.922 180.136 169.328 180.52L168.792 181.536ZM175.328 187.496C174.757 187.523 174.277 187.573 173.888 187.648C173.498 187.717 173.186 187.808 172.952 187.92C172.717 188.032 172.549 188.163 172.448 188.312C172.346 188.461 172.296 188.624 172.296 188.8C172.296 189.147 172.397 189.395 172.6 189.544C172.808 189.693 173.077 189.768 173.408 189.768C173.813 189.768 174.162 189.696 174.456 189.552C174.754 189.403 175.045 189.179 175.328 188.88V187.496ZM170.8 183.936C171.744 183.072 172.88 182.64 174.208 182.64C174.688 182.64 175.117 182.72 175.496 182.88C175.874 183.035 176.194 183.253 176.456 183.536C176.717 183.813 176.914 184.147 177.048 184.536C177.186 184.925 177.256 185.352 177.256 185.816V191H176.36C176.173 191 176.029 190.973 175.928 190.92C175.826 190.861 175.746 190.747 175.688 190.576L175.512 189.984C175.304 190.171 175.101 190.336 174.904 190.48C174.706 190.619 174.501 190.736 174.288 190.832C174.074 190.928 173.845 191 173.6 191.048C173.36 191.101 173.093 191.128 172.8 191.128C172.453 191.128 172.133 191.083 171.84 190.992C171.546 190.896 171.293 190.755 171.08 190.568C170.866 190.381 170.701 190.149 170.584 189.872C170.466 189.595 170.408 189.272 170.408 188.904C170.408 188.696 170.442 188.491 170.512 188.288C170.581 188.08 170.693 187.883 170.848 187.696C171.008 187.509 171.213 187.333 171.464 187.168C171.714 187.003 172.021 186.859 172.384 186.736C172.752 186.613 173.178 186.515 173.664 186.44C174.149 186.36 174.704 186.312 175.328 186.296V185.816C175.328 185.267 175.21 184.861 174.976 184.6C174.741 184.333 174.402 184.2 173.96 184.2C173.64 184.2 173.373 184.237 173.16 184.312C172.952 184.387 172.768 184.472 172.608 184.568C172.448 184.659 172.301 184.741 172.168 184.816C172.04 184.891 171.896 184.928 171.736 184.928C171.597 184.928 171.48 184.893 171.384 184.824C171.288 184.749 171.21 184.664 171.152 184.568L170.8 183.936ZM186.329 182.792L183.073 191H181.281L178.025 182.792H179.657C179.806 182.792 179.929 182.827 180.025 182.896C180.126 182.965 180.193 183.053 180.225 183.16L181.809 187.544C181.894 187.8 181.969 188.051 182.033 188.296C182.097 188.541 182.153 188.787 182.201 189.032C182.254 188.787 182.313 188.541 182.377 188.296C182.441 188.051 182.518 187.8 182.609 187.544L184.225 183.16C184.262 183.053 184.329 182.965 184.425 182.896C184.521 182.827 184.636 182.792 184.769 182.792H186.329ZM192.42 185.952C192.42 185.696 192.383 185.456 192.308 185.232C192.239 185.003 192.132 184.803 191.988 184.632C191.844 184.461 191.66 184.328 191.436 184.232C191.218 184.131 190.962 184.08 190.668 184.08C190.098 184.08 189.647 184.243 189.316 184.568C188.991 184.893 188.783 185.355 188.692 185.952H192.42ZM188.652 187.144C188.684 187.565 188.759 187.931 188.876 188.24C188.994 188.544 189.148 188.797 189.34 189C189.532 189.197 189.759 189.347 190.02 189.448C190.287 189.544 190.58 189.592 190.9 189.592C191.22 189.592 191.495 189.555 191.724 189.48C191.959 189.405 192.162 189.323 192.332 189.232C192.508 189.141 192.66 189.059 192.788 188.984C192.922 188.909 193.05 188.872 193.172 188.872C193.338 188.872 193.46 188.933 193.54 189.056L194.108 189.776C193.89 190.032 193.644 190.248 193.372 190.424C193.1 190.595 192.815 190.733 192.516 190.84C192.223 190.941 191.922 191.013 191.612 191.056C191.308 191.099 191.012 191.12 190.724 191.12C190.154 191.12 189.623 191.027 189.132 190.84C188.642 190.648 188.215 190.368 187.852 190C187.49 189.627 187.204 189.168 186.996 188.624C186.788 188.075 186.684 187.44 186.684 186.72C186.684 186.16 186.775 185.635 186.956 185.144C187.138 184.648 187.396 184.219 187.732 183.856C188.074 183.488 188.487 183.197 188.972 182.984C189.463 182.771 190.015 182.664 190.628 182.664C191.146 182.664 191.623 182.747 192.06 182.912C192.498 183.077 192.874 183.32 193.188 183.64C193.503 183.955 193.748 184.344 193.924 184.808C194.106 185.267 194.196 185.792 194.196 186.384C194.196 186.683 194.164 186.885 194.1 186.992C194.036 187.093 193.914 187.144 193.732 187.144H188.652ZM200.831 184.888C200.607 184.616 200.362 184.424 200.095 184.312C199.834 184.2 199.551 184.144 199.247 184.144C198.948 184.144 198.679 184.2 198.439 184.312C198.199 184.424 197.994 184.595 197.823 184.824C197.652 185.048 197.522 185.336 197.431 185.688C197.34 186.035 197.295 186.445 197.295 186.92C197.295 187.4 197.332 187.808 197.407 188.144C197.487 188.475 197.599 188.747 197.743 188.96C197.887 189.168 198.063 189.32 198.271 189.416C198.479 189.507 198.711 189.552 198.967 189.552C199.378 189.552 199.727 189.467 200.015 189.296C200.303 189.125 200.575 188.883 200.831 188.568V184.888ZM202.807 179.112V191H201.599C201.338 191 201.172 190.88 201.103 190.64L200.935 189.848C200.604 190.227 200.223 190.533 199.791 190.768C199.364 191.003 198.866 191.12 198.295 191.12C197.847 191.12 197.436 191.027 197.063 190.84C196.69 190.653 196.367 190.384 196.095 190.032C195.828 189.675 195.62 189.235 195.471 188.712C195.327 188.189 195.255 187.592 195.255 186.92C195.255 186.312 195.338 185.747 195.503 185.224C195.668 184.701 195.906 184.248 196.215 183.864C196.524 183.48 196.895 183.181 197.327 182.968C197.759 182.749 198.244 182.64 198.783 182.64C199.242 182.64 199.634 182.712 199.959 182.856C200.284 183 200.575 183.195 200.831 183.44V179.112H202.807ZM216.904 188.272C217.021 188.272 217.125 188.317 217.216 188.408L218.064 189.328C217.595 189.909 217.016 190.355 216.328 190.664C215.645 190.973 214.824 191.128 213.864 191.128C213.005 191.128 212.232 190.981 211.544 190.688C210.861 190.395 210.277 189.987 209.792 189.464C209.307 188.941 208.933 188.317 208.672 187.592C208.416 186.867 208.288 186.075 208.288 185.216C208.288 184.347 208.427 183.552 208.704 182.832C208.981 182.107 209.371 181.483 209.872 180.96C210.379 180.437 210.981 180.032 211.68 179.744C212.379 179.451 213.152 179.304 214 179.304C214.843 179.304 215.589 179.443 216.24 179.72C216.896 179.997 217.453 180.36 217.912 180.808L217.192 181.808C217.149 181.872 217.093 181.928 217.024 181.976C216.96 182.024 216.869 182.048 216.752 182.048C216.672 182.048 216.589 182.027 216.504 181.984C216.419 181.936 216.325 181.88 216.224 181.816C216.123 181.747 216.005 181.672 215.872 181.592C215.739 181.512 215.584 181.44 215.408 181.376C215.232 181.307 215.027 181.251 214.792 181.208C214.563 181.16 214.296 181.136 213.992 181.136C213.475 181.136 213 181.229 212.568 181.416C212.141 181.597 211.773 181.864 211.464 182.216C211.155 182.563 210.915 182.989 210.744 183.496C210.573 183.997 210.488 184.571 210.488 185.216C210.488 185.867 210.579 186.445 210.76 186.952C210.947 187.459 211.197 187.885 211.512 188.232C211.827 188.579 212.197 188.845 212.624 189.032C213.051 189.213 213.509 189.304 214 189.304C214.293 189.304 214.557 189.288 214.792 189.256C215.032 189.224 215.251 189.173 215.448 189.104C215.651 189.035 215.84 188.947 216.016 188.84C216.197 188.728 216.376 188.592 216.552 188.432C216.605 188.384 216.661 188.347 216.72 188.32C216.779 188.288 216.84 188.272 216.904 188.272ZM223.562 187.496C222.991 187.523 222.511 187.573 222.122 187.648C221.733 187.717 221.421 187.808 221.186 187.92C220.951 188.032 220.783 188.163 220.682 188.312C220.581 188.461 220.53 188.624 220.53 188.8C220.53 189.147 220.631 189.395 220.834 189.544C221.042 189.693 221.311 189.768 221.642 189.768C222.047 189.768 222.397 189.696 222.69 189.552C222.989 189.403 223.279 189.179 223.562 188.88V187.496ZM219.034 183.936C219.978 183.072 221.114 182.64 222.442 182.64C222.922 182.64 223.351 182.72 223.73 182.88C224.109 183.035 224.429 183.253 224.69 183.536C224.951 183.813 225.149 184.147 225.282 184.536C225.421 184.925 225.49 185.352 225.49 185.816V191H224.594C224.407 191 224.263 190.973 224.162 190.92C224.061 190.861 223.981 190.747 223.922 190.576L223.746 189.984C223.538 190.171 223.335 190.336 223.138 190.48C222.941 190.619 222.735 190.736 222.522 190.832C222.309 190.928 222.079 191 221.834 191.048C221.594 191.101 221.327 191.128 221.034 191.128C220.687 191.128 220.367 191.083 220.074 190.992C219.781 190.896 219.527 190.755 219.314 190.568C219.101 190.381 218.935 190.149 218.818 189.872C218.701 189.595 218.642 189.272 218.642 188.904C218.642 188.696 218.677 188.491 218.746 188.288C218.815 188.08 218.927 187.883 219.082 187.696C219.242 187.509 219.447 187.333 219.698 187.168C219.949 187.003 220.255 186.859 220.618 186.736C220.986 186.613 221.413 186.515 221.898 186.44C222.383 186.36 222.938 186.312 223.562 186.296V185.816C223.562 185.267 223.445 184.861 223.21 184.6C222.975 184.333 222.637 184.2 222.194 184.2C221.874 184.2 221.607 184.237 221.394 184.312C221.186 184.387 221.002 184.472 220.842 184.568C220.682 184.659 220.535 184.741 220.402 184.816C220.274 184.891 220.13 184.928 219.97 184.928C219.831 184.928 219.714 184.893 219.618 184.824C219.522 184.749 219.445 184.664 219.386 184.568L219.034 183.936ZM229.215 184.216C229.471 183.725 229.775 183.341 230.127 183.064C230.479 182.781 230.895 182.64 231.375 182.64C231.754 182.64 232.058 182.723 232.287 182.888L232.159 184.368C232.132 184.464 232.092 184.533 232.039 184.576C231.991 184.613 231.924 184.632 231.839 184.632C231.759 184.632 231.639 184.619 231.479 184.592C231.324 184.565 231.172 184.552 231.023 184.552C230.804 184.552 230.61 184.584 230.439 184.648C230.268 184.712 230.114 184.805 229.975 184.928C229.842 185.045 229.722 185.189 229.615 185.36C229.514 185.531 229.418 185.725 229.327 185.944V191H227.351V182.792H228.511C228.714 182.792 228.855 182.829 228.935 182.904C229.015 182.973 229.068 183.101 229.095 183.288L229.215 184.216ZM236.056 191.128C235.341 191.128 234.792 190.928 234.408 190.528C234.029 190.123 233.84 189.565 233.84 188.856V184.272H233C232.893 184.272 232.802 184.237 232.728 184.168C232.653 184.099 232.616 183.995 232.616 183.856V183.072L233.936 182.856L234.352 180.616C234.378 180.509 234.429 180.427 234.504 180.368C234.578 180.309 234.674 180.28 234.792 180.28H235.816V182.864H238.008V184.272H235.816V188.72C235.816 188.976 235.877 189.176 236 189.32C236.128 189.464 236.301 189.536 236.52 189.536C236.642 189.536 236.744 189.523 236.824 189.496C236.909 189.464 236.981 189.432 237.04 189.4C237.104 189.368 237.16 189.339 237.208 189.312C237.256 189.28 237.304 189.264 237.352 189.264C237.41 189.264 237.458 189.28 237.496 189.312C237.533 189.339 237.573 189.381 237.616 189.44L238.208 190.4C237.92 190.64 237.589 190.821 237.216 190.944C236.842 191.067 236.456 191.128 236.056 191.128ZM244.281 184.392C244.228 184.477 244.172 184.539 244.113 184.576C244.054 184.608 243.98 184.624 243.889 184.624C243.793 184.624 243.689 184.597 243.577 184.544C243.47 184.491 243.345 184.432 243.201 184.368C243.057 184.299 242.892 184.237 242.705 184.184C242.524 184.131 242.308 184.104 242.057 184.104C241.668 184.104 241.361 184.187 241.137 184.352C240.918 184.517 240.809 184.733 240.809 185C240.809 185.176 240.865 185.325 240.977 185.448C241.094 185.565 241.246 185.669 241.433 185.76C241.625 185.851 241.841 185.933 242.081 186.008C242.321 186.077 242.564 186.155 242.809 186.24C243.06 186.325 243.305 186.424 243.545 186.536C243.785 186.643 243.998 186.781 244.185 186.952C244.377 187.117 244.529 187.317 244.641 187.552C244.758 187.787 244.817 188.069 244.817 188.4C244.817 188.795 244.745 189.16 244.601 189.496C244.462 189.827 244.254 190.115 243.977 190.36C243.7 190.6 243.356 190.789 242.945 190.928C242.54 191.061 242.07 191.128 241.537 191.128C241.254 191.128 240.977 191.101 240.705 191.048C240.438 191 240.18 190.931 239.929 190.84C239.684 190.749 239.454 190.643 239.241 190.52C239.033 190.397 238.849 190.264 238.689 190.12L239.145 189.368C239.204 189.277 239.273 189.208 239.353 189.16C239.433 189.112 239.534 189.088 239.657 189.088C239.78 189.088 239.894 189.123 240.001 189.192C240.113 189.261 240.241 189.336 240.385 189.416C240.529 189.496 240.697 189.571 240.889 189.64C241.086 189.709 241.334 189.744 241.633 189.744C241.868 189.744 242.068 189.717 242.233 189.664C242.404 189.605 242.542 189.531 242.649 189.44C242.761 189.349 242.841 189.245 242.889 189.128C242.942 189.005 242.969 188.88 242.969 188.752C242.969 188.56 242.91 188.403 242.793 188.28C242.681 188.157 242.529 188.051 242.337 187.96C242.15 187.869 241.934 187.789 241.689 187.72C241.449 187.645 241.201 187.565 240.945 187.48C240.694 187.395 240.446 187.296 240.201 187.184C239.961 187.067 239.745 186.92 239.553 186.744C239.366 186.568 239.214 186.352 239.097 186.096C238.985 185.84 238.929 185.531 238.929 185.168C238.929 184.832 238.996 184.512 239.129 184.208C239.262 183.904 239.457 183.64 239.713 183.416C239.974 183.187 240.297 183.005 240.681 182.872C241.07 182.733 241.518 182.664 242.025 182.664C242.59 182.664 243.105 182.757 243.569 182.944C244.033 183.131 244.42 183.376 244.729 183.68L244.281 184.392Z" fill="white"/>
<path d="M65.9 33.402V34.38H63.122V42H61.958V34.38H59.168V33.402H65.9ZM68.1421 35.922V42H67.0741V35.922H68.1421ZM68.3821 34.014C68.3821 34.118 68.3601 34.216 68.3161 34.308C68.2761 34.396 68.2201 34.476 68.1481 34.548C68.0801 34.616 68.0001 34.67 67.9081 34.71C67.8161 34.75 67.7181 34.77 67.6141 34.77C67.5101 34.77 67.4121 34.75 67.3201 34.71C67.2321 34.67 67.1521 34.616 67.0801 34.548C67.0121 34.476 66.9581 34.396 66.9181 34.308C66.8781 34.216 66.8581 34.118 66.8581 34.014C66.8581 33.91 66.8781 33.812 66.9181 33.72C66.9581 33.624 67.0121 33.542 67.0801 33.474C67.1521 33.402 67.2321 33.346 67.3201 33.306C67.4121 33.266 67.5101 33.246 67.6141 33.246C67.7181 33.246 67.8161 33.266 67.9081 33.306C68.0001 33.346 68.0801 33.402 68.1481 33.474C68.2201 33.542 68.2761 33.624 68.3161 33.72C68.3601 33.812 68.3821 33.91 68.3821 34.014ZM71.2124 33.162V42H70.1444V33.162H71.2124ZM75.5008 35.826C75.8648 35.826 76.2008 35.888 76.5088 36.012C76.8168 36.132 77.0828 36.308 77.3068 36.54C77.5308 36.768 77.7048 37.052 77.8288 37.392C77.9568 37.728 78.0208 38.112 78.0208 38.544C78.0208 38.712 78.0028 38.824 77.9668 38.88C77.9308 38.936 77.8628 38.964 77.7628 38.964H73.7188C73.7268 39.348 73.7788 39.682 73.8748 39.966C73.9708 40.25 74.1028 40.488 74.2708 40.68C74.4388 40.868 74.6388 41.01 74.8708 41.106C75.1028 41.198 75.3628 41.244 75.6508 41.244C75.9188 41.244 76.1488 41.214 76.3408 41.154C76.5368 41.09 76.7048 41.022 76.8448 40.95C76.9848 40.878 77.1008 40.812 77.1928 40.752C77.2888 40.688 77.3708 40.656 77.4388 40.656C77.5268 40.656 77.5948 40.69 77.6428 40.758L77.9428 41.148C77.8108 41.308 77.6528 41.448 77.4688 41.568C77.2848 41.684 77.0868 41.78 76.8748 41.856C76.6668 41.932 76.4508 41.988 76.2268 42.024C76.0028 42.064 75.7808 42.084 75.5608 42.084C75.1408 42.084 74.7528 42.014 74.3968 41.874C74.0448 41.73 73.7388 41.522 73.4788 41.25C73.2228 40.974 73.0228 40.634 72.8788 40.23C72.7348 39.826 72.6628 39.362 72.6628 38.838C72.6628 38.414 72.7268 38.018 72.8548 37.65C72.9868 37.282 73.1748 36.964 73.4188 36.696C73.6628 36.424 73.9608 36.212 74.3128 36.06C74.6648 35.904 75.0608 35.826 75.5008 35.826ZM75.5247 36.612C75.0088 36.612 74.6028 36.762 74.3068 37.062C74.0108 37.358 73.8268 37.77 73.7548 38.298H77.0608C77.0608 38.05 77.0268 37.824 76.9588 37.62C76.8908 37.412 76.7908 37.234 76.6588 37.086C76.5268 36.934 76.3648 36.818 76.1728 36.738C75.9848 36.654 75.7688 36.612 75.5247 36.612ZM82.8677 36.924C82.8197 37.012 82.7457 37.056 82.6457 37.056C82.5857 37.056 82.5177 37.034 82.4417 36.99C82.3657 36.946 82.2717 36.898 82.1597 36.846C82.0517 36.79 81.9217 36.74 81.7697 36.696C81.6177 36.648 81.4377 36.624 81.2297 36.624C81.0497 36.624 80.8877 36.648 80.7437 36.696C80.5997 36.74 80.4757 36.802 80.3717 36.882C80.2717 36.962 80.1937 37.056 80.1377 37.164C80.0857 37.268 80.0597 37.382 80.0597 37.506C80.0597 37.662 80.1037 37.792 80.1917 37.896C80.2837 38 80.4037 38.09 80.5517 38.166C80.6997 38.242 80.8677 38.31 81.0557 38.37C81.2437 38.426 81.4357 38.488 81.6317 38.556C81.8317 38.62 82.0257 38.692 82.2137 38.772C82.4017 38.852 82.5697 38.952 82.7177 39.072C82.8657 39.192 82.9837 39.34 83.0717 39.516C83.1637 39.688 83.2097 39.896 83.2097 40.14C83.2097 40.42 83.1597 40.68 83.0597 40.92C82.9597 41.156 82.8117 41.362 82.6157 41.538C82.4197 41.71 82.1797 41.846 81.8957 41.946C81.6117 42.046 81.2837 42.096 80.9117 42.096C80.4877 42.096 80.1037 42.028 79.7597 41.892C79.4157 41.752 79.1237 41.574 78.8837 41.358L79.1357 40.95C79.1677 40.898 79.2057 40.858 79.2497 40.83C79.2937 40.802 79.3517 40.788 79.4237 40.788C79.4957 40.788 79.5717 40.816 79.6517 40.872C79.7317 40.928 79.8277 40.99 79.9397 41.058C80.0557 41.126 80.1937 41.188 80.3537 41.244C80.5177 41.3 80.7217 41.328 80.9657 41.328C81.1737 41.328 81.3557 41.302 81.5117 41.25C81.6677 41.194 81.7977 41.12 81.9017 41.028C82.0057 40.936 82.0817 40.83 82.1297 40.71C82.1817 40.59 82.2077 40.462 82.2077 40.326C82.2077 40.158 82.1617 40.02 82.0697 39.912C81.9817 39.8 81.8637 39.706 81.7157 39.63C81.5677 39.55 81.3977 39.482 81.2057 39.426C81.0177 39.366 80.8237 39.304 80.6237 39.24C80.4277 39.176 80.2337 39.104 80.0417 39.024C79.8537 38.94 79.6857 38.836 79.5377 38.712C79.3897 38.588 79.2697 38.436 79.1777 38.256C79.0897 38.072 79.0457 37.85 79.0457 37.59C79.0457 37.358 79.0937 37.136 79.1897 36.924C79.2857 36.708 79.4257 36.52 79.6097 36.36C79.7937 36.196 80.0197 36.066 80.2877 35.97C80.5557 35.874 80.8617 35.826 81.2057 35.826C81.6057 35.826 81.9637 35.89 82.2797 36.018C82.5997 36.142 82.8757 36.314 83.1077 36.534L82.8677 36.924ZM86.9968 35.826C87.3608 35.826 87.6968 35.888 88.0048 36.012C88.3128 36.132 88.5788 36.308 88.8028 36.54C89.0268 36.768 89.2008 37.052 89.3248 37.392C89.4528 37.728 89.5168 38.112 89.5168 38.544C89.5168 38.712 89.4988 38.824 89.4628 38.88C89.4268 38.936 89.3588 38.964 89.2588 38.964H85.2148C85.2228 39.348 85.2748 39.682 85.3708 39.966C85.4668 40.25 85.5988 40.488 85.7668 40.68C85.9348 40.868 86.1348 41.01 86.3668 41.106C86.5988 41.198 86.8588 41.244 87.1468 41.244C87.4148 41.244 87.6448 41.214 87.8368 41.154C88.0328 41.09 88.2008 41.022 88.3408 40.95C88.4808 40.878 88.5968 40.812 88.6888 40.752C88.7848 40.688 88.8668 40.656 88.9348 40.656C89.0228 40.656 89.0908 40.69 89.1388 40.758L89.4388 41.148C89.3068 41.308 89.1488 41.448 88.9648 41.568C88.7808 41.684 88.5828 41.78 88.3708 41.856C88.1628 41.932 87.9468 41.988 87.7228 42.024C87.4988 42.064 87.2768 42.084 87.0568 42.084C86.6368 42.084 86.2488 42.014 85.8928 41.874C85.5408 41.73 85.2348 41.522 84.9748 41.25C84.7188 40.974 84.5188 40.634 84.3748 40.23C84.2308 39.826 84.1588 39.362 84.1588 38.838C84.1588 38.414 84.2228 38.018 84.3508 37.65C84.4828 37.282 84.6708 36.964 84.9148 36.696C85.1588 36.424 85.4568 36.212 85.8088 36.06C86.1608 35.904 86.5568 35.826 86.9968 35.826ZM87.0208 36.612C86.5048 36.612 86.0988 36.762 85.8028 37.062C85.5068 37.358 85.3228 37.77 85.2508 38.298H88.5568C88.5568 38.05 88.5228 37.824 88.4548 37.62C88.3868 37.412 88.2868 37.234 88.1548 37.086C88.0228 36.934 87.8608 36.818 87.6688 36.738C87.4808 36.654 87.2648 36.612 87.0208 36.612ZM92.7258 42.096C92.2458 42.096 91.8758 41.962 91.6158 41.694C91.3598 41.426 91.2318 41.04 91.2318 40.536V36.816H90.4998C90.4358 36.816 90.3818 36.798 90.3378 36.762C90.2938 36.722 90.2718 36.662 90.2718 36.582V36.156L91.2678 36.03L91.5138 34.152C91.5218 34.092 91.5478 34.044 91.5918 34.008C91.6358 33.968 91.6918 33.948 91.7598 33.948H92.2998V36.042H94.0398V36.816H92.2998V40.464C92.2998 40.72 92.3618 40.91 92.4858 41.034C92.6098 41.158 92.7698 41.22 92.9658 41.22C93.0778 41.22 93.1738 41.206 93.2538 41.178C93.3378 41.146 93.4098 41.112 93.4698 41.076C93.5298 41.04 93.5798 41.008 93.6198 40.98C93.6638 40.948 93.7018 40.932 93.7338 40.932C93.7898 40.932 93.8398 40.966 93.8838 41.034L94.1958 41.544C94.0118 41.716 93.7898 41.852 93.5298 41.952C93.2698 42.048 93.0018 42.096 92.7258 42.096Z" fill="#979797"/>
<path d="M66.104 149.224C66.168 149.224 66.226 149.25 66.278 149.302L66.734 149.8C66.382 150.208 65.954 150.526 65.45 150.754C64.95 150.982 64.346 151.096 63.638 151.096C63.018 151.096 62.456 150.99 61.952 150.778C61.448 150.562 61.018 150.262 60.662 149.878C60.306 149.49 60.03 149.026 59.834 148.486C59.638 147.946 59.54 147.352 59.54 146.704C59.54 146.056 59.644 145.462 59.852 144.922C60.064 144.382 60.36 143.918 60.74 143.53C61.12 143.142 61.574 142.842 62.102 142.63C62.634 142.414 63.22 142.306 63.86 142.306C64.492 142.306 65.036 142.404 65.492 142.6C65.952 142.796 66.36 143.062 66.716 143.398L66.338 143.932C66.31 143.972 66.278 144.006 66.242 144.034C66.206 144.058 66.154 144.07 66.086 144.07C66.034 144.07 65.978 144.052 65.918 144.016C65.862 143.976 65.794 143.928 65.714 143.872C65.634 143.816 65.54 143.756 65.432 143.692C65.324 143.628 65.196 143.568 65.048 143.512C64.9 143.456 64.728 143.41 64.532 143.374C64.336 143.334 64.11 143.314 63.854 143.314C63.394 143.314 62.972 143.394 62.588 143.554C62.208 143.71 61.88 143.934 61.604 144.226C61.328 144.518 61.112 144.874 60.956 145.294C60.804 145.714 60.728 146.184 60.728 146.704C60.728 147.24 60.804 147.718 60.956 148.138C61.112 148.558 61.322 148.914 61.586 149.206C61.854 149.494 62.17 149.714 62.534 149.866C62.898 150.018 63.29 150.094 63.71 150.094C63.966 150.094 64.196 150.08 64.4 150.052C64.604 150.02 64.792 149.972 64.964 149.908C65.14 149.844 65.302 149.764 65.45 149.668C65.602 149.568 65.754 149.45 65.906 149.314C65.974 149.254 66.04 149.224 66.104 149.224ZM72.5548 151H72.0808C71.9768 151 71.8928 150.984 71.8288 150.952C71.7648 150.92 71.7228 150.852 71.7028 150.748L71.5828 150.184C71.4228 150.328 71.2668 150.458 71.1148 150.574C70.9628 150.686 70.8028 150.782 70.6348 150.862C70.4668 150.938 70.2868 150.996 70.0948 151.036C69.9068 151.076 69.6968 151.096 69.4648 151.096C69.2288 151.096 69.0068 151.064 68.7988 151C68.5948 150.932 68.4168 150.832 68.2648 150.7C68.1128 150.568 67.9908 150.402 67.8988 150.202C67.8108 149.998 67.7668 149.758 67.7668 149.482C67.7668 149.242 67.8328 149.012 67.9648 148.792C68.0968 148.568 68.3088 148.37 68.6008 148.198C68.8968 148.026 69.2828 147.886 69.7588 147.778C70.2348 147.666 70.8168 147.602 71.5048 147.586V147.112C71.5048 146.64 71.4028 146.284 71.1988 146.044C70.9988 145.8 70.7008 145.678 70.3048 145.678C70.0448 145.678 69.8248 145.712 69.6448 145.78C69.4688 145.844 69.3148 145.918 69.1828 146.002C69.0548 146.082 68.9428 146.156 68.8468 146.224C68.7548 146.288 68.6628 146.32 68.5708 146.32C68.4988 146.32 68.4348 146.302 68.3788 146.266C68.3268 146.226 68.2848 146.178 68.2528 146.122L68.0608 145.78C68.3968 145.456 68.7588 145.214 69.1468 145.054C69.5348 144.894 69.9648 144.814 70.4368 144.814C70.7768 144.814 71.0788 144.87 71.3428 144.982C71.6068 145.094 71.8288 145.25 72.0088 145.45C72.1888 145.65 72.3248 145.892 72.4168 146.176C72.5088 146.46 72.5548 146.772 72.5548 147.112V151ZM69.7828 150.346C69.9708 150.346 70.1428 150.328 70.2988 150.292C70.4548 150.252 70.6008 150.198 70.7368 150.13C70.8768 150.058 71.0088 149.972 71.1328 149.872C71.2608 149.772 71.3848 149.658 71.5048 149.53V148.264C71.0128 148.28 70.5948 148.32 70.2508 148.384C69.9068 148.444 69.6268 148.524 69.4108 148.624C69.1948 148.724 69.0368 148.842 68.9368 148.978C68.8408 149.114 68.7928 149.266 68.7928 149.434C68.7928 149.594 68.8188 149.732 68.8708 149.848C68.9228 149.964 68.9928 150.06 69.0808 150.136C69.1688 150.208 69.2728 150.262 69.3928 150.298C69.5128 150.33 69.6428 150.346 69.7828 150.346ZM74.1729 151V144.922H74.7849C74.9009 144.922 74.9809 144.944 75.0249 144.988C75.0689 145.032 75.0989 145.108 75.1149 145.216L75.1869 146.164C75.3949 145.74 75.6509 145.41 75.9549 145.174C76.2629 144.934 76.6229 144.814 77.0349 144.814C77.2029 144.814 77.3549 144.834 77.4909 144.874C77.6269 144.91 77.7529 144.962 77.8689 145.03L77.7309 145.828C77.7029 145.928 77.6409 145.978 77.5449 145.978C77.4889 145.978 77.4029 145.96 77.2869 145.924C77.1709 145.884 77.0089 145.864 76.8009 145.864C76.4289 145.864 76.1169 145.972 75.8649 146.188C75.6169 146.404 75.4089 146.718 75.2409 147.13V151H74.1729ZM80.8547 151.096C80.3747 151.096 80.0047 150.962 79.7447 150.694C79.4887 150.426 79.3607 150.04 79.3607 149.536V145.816H78.6287C78.5647 145.816 78.5107 145.798 78.4667 145.762C78.4227 145.722 78.4007 145.662 78.4007 145.582V145.156L79.3967 145.03L79.6427 143.152C79.6507 143.092 79.6767 143.044 79.7207 143.008C79.7647 142.968 79.8207 142.948 79.8887 142.948H80.4287V145.042H82.1687V145.816H80.4287V149.464C80.4287 149.72 80.4907 149.91 80.6147 150.034C80.7387 150.158 80.8987 150.22 81.0947 150.22C81.2067 150.22 81.3027 150.206 81.3827 150.178C81.4667 150.146 81.5387 150.112 81.5987 150.076C81.6587 150.04 81.7087 150.008 81.7487 149.98C81.7927 149.948 81.8307 149.932 81.8627 149.932C81.9187 149.932 81.9687 149.966 82.0127 150.034L82.3247 150.544C82.1407 150.716 81.9187 150.852 81.6587 150.952C81.3987 151.048 81.1307 151.096 80.8547 151.096Z" fill="#979797"/>
</svg>
