<svg width="1000" height="278" viewBox="0 0 1000 278" fill="none" xmlns="http://www.w3.org/2000/svg">
<rect width="1000" height="278" fill="white"/>
<path d="M66.104 55.224C66.168 55.224 66.226 55.25 66.278 55.302L66.734 55.8C66.382 56.208 65.954 56.526 65.45 56.754C64.95 56.982 64.346 57.096 63.638 57.096C63.018 57.096 62.456 56.99 61.952 56.778C61.448 56.562 61.018 56.262 60.662 55.878C60.306 55.49 60.03 55.026 59.834 54.486C59.638 53.946 59.54 53.352 59.54 52.704C59.54 52.056 59.644 51.462 59.852 50.922C60.064 50.382 60.36 49.918 60.74 49.53C61.12 49.142 61.574 48.842 62.102 48.63C62.634 48.414 63.22 48.306 63.86 48.306C64.492 48.306 65.036 48.404 65.492 48.6C65.952 48.796 66.36 49.062 66.716 49.398L66.338 49.932C66.31 49.972 66.278 50.006 66.242 50.034C66.206 50.058 66.154 50.07 66.086 50.07C66.034 50.07 65.978 50.052 65.918 50.016C65.862 49.976 65.794 49.928 65.714 49.872C65.634 49.816 65.54 49.756 65.432 49.692C65.324 49.628 65.196 49.568 65.048 49.512C64.9 49.456 64.728 49.41 64.532 49.374C64.336 49.334 64.11 49.314 63.854 49.314C63.394 49.314 62.972 49.394 62.588 49.554C62.208 49.71 61.88 49.934 61.604 50.226C61.328 50.518 61.112 50.874 60.956 51.294C60.804 51.714 60.728 52.184 60.728 52.704C60.728 53.24 60.804 53.718 60.956 54.138C61.112 54.558 61.322 54.914 61.586 55.206C61.854 55.494 62.17 55.714 62.534 55.866C62.898 56.018 63.29 56.094 63.71 56.094C63.966 56.094 64.196 56.08 64.4 56.052C64.604 56.02 64.792 55.972 64.964 55.908C65.14 55.844 65.302 55.764 65.45 55.668C65.602 55.568 65.754 55.45 65.906 55.314C65.974 55.254 66.04 55.224 66.104 55.224ZM70.5508 50.826C70.9948 50.826 71.3948 50.9 71.7508 51.048C72.1108 51.196 72.4148 51.406 72.6628 51.678C72.9148 51.95 73.1068 52.28 73.2388 52.668C73.3748 53.052 73.4428 53.482 73.4428 53.958C73.4428 54.438 73.3748 54.87 73.2388 55.254C73.1068 55.638 72.9148 55.966 72.6628 56.238C72.4148 56.51 72.1108 56.72 71.7508 56.868C71.3948 57.012 70.9948 57.084 70.5508 57.084C70.1068 57.084 69.7048 57.012 69.3448 56.868C68.9888 56.72 68.6848 56.51 68.4328 56.238C68.1808 55.966 67.9868 55.638 67.8508 55.254C67.7148 54.87 67.6468 54.438 67.6468 53.958C67.6468 53.482 67.7148 53.052 67.8508 52.668C67.9868 52.28 68.1808 51.95 68.4328 51.678C68.6848 51.406 68.9888 51.196 69.3448 51.048C69.7048 50.9 70.1068 50.826 70.5508 50.826ZM70.5508 56.25C71.1508 56.25 71.5988 56.05 71.8948 55.65C72.1908 55.246 72.3388 54.684 72.3388 53.964C72.3388 53.24 72.1908 52.676 71.8948 52.272C71.5988 51.868 71.1508 51.666 70.5508 51.666C70.2468 51.666 69.9828 51.718 69.7588 51.822C69.5348 51.926 69.3468 52.076 69.1948 52.272C69.0468 52.468 68.9348 52.71 68.8588 52.998C68.7868 53.282 68.7508 53.604 68.7508 53.964C68.7508 54.324 68.7868 54.646 68.8588 54.93C68.9348 55.214 69.0468 55.454 69.1948 55.65C69.3468 55.842 69.5348 55.99 69.7588 56.094C69.9828 56.198 70.2468 56.25 70.5508 56.25ZM75.6828 50.922V54.798C75.6828 55.258 75.7888 55.614 76.0008 55.866C76.2128 56.118 76.5328 56.244 76.9608 56.244C77.2728 56.244 77.5668 56.17 77.8428 56.022C78.1188 55.874 78.3728 55.668 78.6048 55.404V50.922H79.6728V57H79.0368C78.8848 57 78.7888 56.926 78.7488 56.778L78.6648 56.124C78.4008 56.416 78.1048 56.652 77.7768 56.832C77.4488 57.008 77.0728 57.096 76.6488 57.096C76.3168 57.096 76.0228 57.042 75.7668 56.934C75.5148 56.822 75.3028 56.666 75.1308 56.466C74.9588 56.266 74.8288 56.024 74.7408 55.74C74.6568 55.456 74.6148 55.142 74.6148 54.798V50.922H75.6828ZM81.4268 57V50.922H82.0628C82.2148 50.922 82.3108 50.996 82.3508 51.144L82.4348 51.804C82.6988 51.512 82.9928 51.276 83.3168 51.096C83.6448 50.916 84.0228 50.826 84.4508 50.826C84.7828 50.826 85.0748 50.882 85.3268 50.994C85.5828 51.102 85.7948 51.258 85.9628 51.462C86.1348 51.662 86.2648 51.904 86.3528 52.188C86.4408 52.472 86.4848 52.786 86.4848 53.13V57H85.4168V53.13C85.4168 52.67 85.3108 52.314 85.0988 52.062C84.8908 51.806 84.5708 51.678 84.1388 51.678C83.8228 51.678 83.5268 51.754 83.2508 51.906C82.9788 52.058 82.7268 52.264 82.4948 52.524V57H81.4268ZM89.9368 57.096C89.4568 57.096 89.0868 56.962 88.8268 56.694C88.5708 56.426 88.4428 56.04 88.4428 55.536V51.816H87.7108C87.6468 51.816 87.5928 51.798 87.5488 51.762C87.5048 51.722 87.4828 51.662 87.4828 51.582V51.156L88.4788 51.03L88.7248 49.152C88.7328 49.092 88.7588 49.044 88.8027 49.008C88.8468 48.968 88.9028 48.948 88.9708 48.948H89.5108V51.042H91.2508V51.816H89.5108V55.464C89.5108 55.72 89.5728 55.91 89.6968 56.034C89.8208 56.158 89.9808 56.22 90.1768 56.22C90.2888 56.22 90.3848 56.206 90.4648 56.178C90.5488 56.146 90.6208 56.112 90.6808 56.076C90.7408 56.04 90.7908 56.008 90.8308 55.98C90.8748 55.948 90.9128 55.932 90.9448 55.932C91.0008 55.932 91.0508 55.966 91.0948 56.034L91.4068 56.544C91.2228 56.716 91.0008 56.852 90.7408 56.952C90.4808 57.048 90.2128 57.096 89.9368 57.096ZM93.7593 50.922V57H92.6913V50.922H93.7593ZM93.9993 49.014C93.9993 49.118 93.9773 49.216 93.9333 49.308C93.8933 49.396 93.8373 49.476 93.7653 49.548C93.6973 49.616 93.6173 49.67 93.5253 49.71C93.4333 49.75 93.3353 49.77 93.2313 49.77C93.1273 49.77 93.0293 49.75 92.9373 49.71C92.8493 49.67 92.7693 49.616 92.6973 49.548C92.6293 49.476 92.5753 49.396 92.5353 49.308C92.4953 49.216 92.4753 49.118 92.4753 49.014C92.4753 48.91 92.4953 48.812 92.5353 48.72C92.5753 48.624 92.6293 48.542 92.6973 48.474C92.7693 48.402 92.8493 48.346 92.9373 48.306C93.0293 48.266 93.1273 48.246 93.2313 48.246C93.3353 48.246 93.4333 48.266 93.5253 48.306C93.6173 48.346 93.6973 48.402 93.7653 48.474C93.8373 48.542 93.8933 48.624 93.9333 48.72C93.9773 48.812 93.9993 48.91 93.9993 49.014ZM95.6416 57V50.922H96.2776C96.4296 50.922 96.5256 50.996 96.5656 51.144L96.6496 51.804C96.9136 51.512 97.2076 51.276 97.5316 51.096C97.8596 50.916 98.2376 50.826 98.6656 50.826C98.9976 50.826 99.2896 50.882 99.5416 50.994C99.7976 51.102 100.01 51.258 100.178 51.462C100.35 51.662 100.48 51.904 100.568 52.188C100.656 52.472 100.7 52.786 100.7 53.13V57H99.6316V53.13C99.6316 52.67 99.5256 52.314 99.3136 52.062C99.1056 51.806 98.7856 51.678 98.3536 51.678C98.0376 51.678 97.7416 51.754 97.4656 51.906C97.1936 52.058 96.9416 52.264 96.7096 52.524V57H95.6416ZM104.356 50.82C104.62 50.82 104.866 50.85 105.094 50.91C105.326 50.966 105.536 51.05 105.724 51.162H107.374V51.558C107.374 51.69 107.29 51.774 107.122 51.81L106.432 51.906C106.568 52.166 106.636 52.456 106.636 52.776C106.636 53.072 106.578 53.342 106.462 53.586C106.35 53.826 106.192 54.032 105.988 54.204C105.788 54.376 105.548 54.508 105.268 54.6C104.992 54.692 104.688 54.738 104.356 54.738C104.072 54.738 103.804 54.704 103.552 54.636C103.424 54.716 103.326 54.802 103.258 54.894C103.194 54.986 103.162 55.076 103.162 55.164C103.162 55.308 103.22 55.418 103.336 55.494C103.452 55.566 103.606 55.618 103.798 55.65C103.99 55.682 104.208 55.702 104.452 55.71C104.696 55.718 104.944 55.732 105.196 55.752C105.452 55.768 105.702 55.798 105.946 55.842C106.19 55.886 106.408 55.958 106.6 56.058C106.792 56.158 106.946 56.296 107.062 56.472C107.178 56.648 107.236 56.876 107.236 57.156C107.236 57.416 107.17 57.668 107.038 57.912C106.91 58.156 106.724 58.372 106.48 58.56C106.236 58.752 105.938 58.904 105.586 59.016C105.234 59.132 104.836 59.19 104.392 59.19C103.948 59.19 103.558 59.146 103.222 59.058C102.89 58.97 102.614 58.852 102.394 58.704C102.174 58.556 102.008 58.384 101.896 58.188C101.788 57.996 101.734 57.794 101.734 57.582C101.734 57.282 101.828 57.028 102.016 56.82C102.208 56.608 102.47 56.44 102.802 56.316C102.63 56.236 102.492 56.13 102.388 55.998C102.288 55.862 102.238 55.682 102.238 55.458C102.238 55.37 102.254 55.28 102.286 55.188C102.318 55.092 102.366 54.998 102.43 54.906C102.498 54.814 102.58 54.726 102.676 54.642C102.772 54.558 102.884 54.484 103.012 54.42C102.712 54.252 102.476 54.03 102.304 53.754C102.136 53.474 102.052 53.148 102.052 52.776C102.052 52.48 102.108 52.212 102.22 51.972C102.336 51.728 102.496 51.522 102.7 51.354C102.904 51.182 103.146 51.05 103.426 50.958C103.71 50.866 104.02 50.82 104.356 50.82ZM106.252 57.33C106.252 57.178 106.21 57.056 106.126 56.964C106.042 56.872 105.928 56.802 105.784 56.754C105.64 56.702 105.474 56.664 105.286 56.64C105.098 56.616 104.9 56.6 104.692 56.592C104.484 56.58 104.272 56.568 104.056 56.556C103.84 56.544 103.634 56.522 103.438 56.49C103.21 56.598 103.024 56.73 102.88 56.886C102.74 57.042 102.67 57.228 102.67 57.444C102.67 57.58 102.704 57.706 102.772 57.822C102.844 57.942 102.952 58.044 103.096 58.128C103.24 58.216 103.42 58.284 103.636 58.332C103.856 58.384 104.114 58.41 104.41 58.41C104.698 58.41 104.956 58.384 105.184 58.332C105.412 58.28 105.604 58.206 105.76 58.11C105.92 58.014 106.042 57.9 106.126 57.768C106.21 57.636 106.252 57.49 106.252 57.33ZM104.356 54.03C104.572 54.03 104.762 54 104.926 53.94C105.094 53.88 105.234 53.796 105.346 53.688C105.458 53.58 105.542 53.452 105.598 53.304C105.654 53.152 105.682 52.986 105.682 52.806C105.682 52.434 105.568 52.138 105.34 51.918C105.116 51.698 104.788 51.588 104.356 51.588C103.928 51.588 103.6 51.698 103.372 51.918C103.148 52.138 103.036 52.434 103.036 52.806C103.036 52.986 103.064 53.152 103.12 53.304C103.18 53.452 103.266 53.58 103.378 53.688C103.49 53.796 103.628 53.88 103.792 53.94C103.956 54 104.144 54.03 104.356 54.03ZM110.759 57V48.162H111.827V51.738C112.087 51.462 112.375 51.242 112.691 51.078C113.007 50.91 113.371 50.826 113.783 50.826C114.115 50.826 114.407 50.882 114.659 50.994C114.915 51.102 115.127 51.258 115.295 51.462C115.467 51.662 115.597 51.904 115.685 52.188C115.773 52.472 115.817 52.786 115.817 53.13V57H114.749V53.13C114.749 52.67 114.643 52.314 114.431 52.062C114.223 51.806 113.903 51.678 113.471 51.678C113.155 51.678 112.859 51.754 112.583 51.906C112.311 52.058 112.059 52.264 111.827 52.524V57H110.759ZM119.833 50.826C120.197 50.826 120.533 50.888 120.841 51.012C121.149 51.132 121.415 51.308 121.639 51.54C121.863 51.768 122.037 52.052 122.161 52.392C122.289 52.728 122.353 53.112 122.353 53.544C122.353 53.712 122.335 53.824 122.299 53.88C122.263 53.936 122.195 53.964 122.095 53.964H118.051C118.059 54.348 118.111 54.682 118.207 54.966C118.303 55.25 118.435 55.488 118.603 55.68C118.771 55.868 118.971 56.01 119.203 56.106C119.435 56.198 119.695 56.244 119.983 56.244C120.251 56.244 120.481 56.214 120.673 56.154C120.869 56.09 121.037 56.022 121.177 55.95C121.317 55.878 121.433 55.812 121.525 55.752C121.621 55.688 121.703 55.656 121.771 55.656C121.859 55.656 121.927 55.69 121.975 55.758L122.275 56.148C122.143 56.308 121.985 56.448 121.801 56.568C121.617 56.684 121.419 56.78 121.207 56.856C120.999 56.932 120.783 56.988 120.559 57.024C120.335 57.064 120.113 57.084 119.893 57.084C119.473 57.084 119.085 57.014 118.729 56.874C118.377 56.73 118.071 56.522 117.811 56.25C117.555 55.974 117.355 55.634 117.211 55.23C117.067 54.826 116.995 54.362 116.995 53.838C116.995 53.414 117.059 53.018 117.187 52.65C117.319 52.282 117.507 51.964 117.751 51.696C117.995 51.424 118.293 51.212 118.645 51.06C118.997 50.904 119.393 50.826 119.833 50.826ZM119.857 51.612C119.341 51.612 118.935 51.762 118.639 52.062C118.343 52.358 118.159 52.77 118.087 53.298H121.393C121.393 53.05 121.359 52.824 121.291 52.62C121.223 52.412 121.123 52.234 120.991 52.086C120.859 51.934 120.697 51.818 120.505 51.738C120.317 51.654 120.101 51.612 119.857 51.612ZM124.908 48.162V57H123.84V48.162H124.908ZM126.79 59.058V50.922H127.426C127.578 50.922 127.674 50.996 127.714 51.144L127.804 51.864C128.064 51.548 128.36 51.294 128.692 51.102C129.028 50.91 129.414 50.814 129.85 50.814C130.198 50.814 130.514 50.882 130.798 51.018C131.082 51.15 131.324 51.348 131.524 51.612C131.724 51.872 131.878 52.196 131.986 52.584C132.094 52.972 132.148 53.418 132.148 53.922C132.148 54.37 132.088 54.788 131.968 55.176C131.848 55.56 131.676 55.894 131.452 56.178C131.228 56.458 130.952 56.68 130.624 56.844C130.3 57.004 129.934 57.084 129.526 57.084C129.15 57.084 128.828 57.022 128.56 56.898C128.296 56.774 128.062 56.598 127.858 56.37V59.058H126.79ZM129.496 51.678C129.148 51.678 128.842 51.758 128.578 51.918C128.318 52.078 128.078 52.304 127.858 52.596V55.536C128.054 55.8 128.268 55.986 128.5 56.094C128.736 56.202 128.998 56.256 129.286 56.256C129.85 56.256 130.284 56.054 130.588 55.65C130.892 55.246 131.044 54.67 131.044 53.922C131.044 53.526 131.008 53.186 130.936 52.902C130.868 52.618 130.768 52.386 130.636 52.206C130.504 52.022 130.342 51.888 130.15 51.804C129.958 51.72 129.74 51.678 129.496 51.678ZM135.817 50.826C136.181 50.826 136.517 50.888 136.825 51.012C137.133 51.132 137.399 51.308 137.623 51.54C137.847 51.768 138.021 52.052 138.145 52.392C138.273 52.728 138.337 53.112 138.337 53.544C138.337 53.712 138.319 53.824 138.283 53.88C138.247 53.936 138.179 53.964 138.079 53.964H134.035C134.043 54.348 134.095 54.682 134.191 54.966C134.287 55.25 134.419 55.488 134.587 55.68C134.755 55.868 134.955 56.01 135.187 56.106C135.419 56.198 135.679 56.244 135.967 56.244C136.235 56.244 136.465 56.214 136.657 56.154C136.853 56.09 137.021 56.022 137.161 55.95C137.301 55.878 137.417 55.812 137.509 55.752C137.605 55.688 137.687 55.656 137.755 55.656C137.843 55.656 137.911 55.69 137.959 55.758L138.259 56.148C138.127 56.308 137.969 56.448 137.785 56.568C137.601 56.684 137.403 56.78 137.191 56.856C136.983 56.932 136.767 56.988 136.543 57.024C136.319 57.064 136.097 57.084 135.877 57.084C135.457 57.084 135.069 57.014 134.713 56.874C134.361 56.73 134.055 56.522 133.795 56.25C133.539 55.974 133.339 55.634 133.195 55.23C133.051 54.826 132.979 54.362 132.979 53.838C132.979 53.414 133.043 53.018 133.171 52.65C133.303 52.282 133.491 51.964 133.735 51.696C133.979 51.424 134.277 51.212 134.629 51.06C134.981 50.904 135.377 50.826 135.817 50.826ZM135.841 51.612C135.325 51.612 134.919 51.762 134.623 52.062C134.327 52.358 134.143 52.77 134.071 53.298H137.377C137.377 53.05 137.343 52.824 137.275 52.62C137.207 52.412 137.107 52.234 136.975 52.086C136.843 51.934 136.681 51.818 136.489 51.738C136.301 51.654 136.085 51.612 135.841 51.612ZM139.704 57V50.922H140.316C140.432 50.922 140.512 50.944 140.556 50.988C140.6 51.032 140.63 51.108 140.646 51.216L140.718 52.164C140.926 51.74 141.182 51.41 141.486 51.174C141.794 50.934 142.154 50.814 142.566 50.814C142.734 50.814 142.886 50.834 143.022 50.874C143.158 50.91 143.284 50.962 143.4 51.03L143.262 51.828C143.234 51.928 143.172 51.978 143.076 51.978C143.02 51.978 142.934 51.96 142.818 51.924C142.702 51.884 142.54 51.864 142.332 51.864C141.96 51.864 141.648 51.972 141.396 52.188C141.148 52.404 140.94 52.718 140.772 53.13V57H139.704Z" fill="#979797"/>
<rect x="60.25" y="145.25" width="128.5" height="49.5" rx="1.75" fill="white" stroke="#9B9B9B" stroke-width="0.5"/>
<path d="M107.207 165.857C107.632 165.857 108.028 165.92 108.397 166.046C108.766 166.172 109.083 166.356 109.349 166.599C109.62 166.837 109.832 167.129 109.986 167.474C110.14 167.819 110.217 168.211 110.217 168.65C110.217 169.023 110.161 169.369 110.049 169.686C109.937 170.003 109.785 170.309 109.594 170.603C109.403 170.892 109.181 171.175 108.929 171.45C108.682 171.721 108.418 171.998 108.138 172.283L105.499 174.985C105.686 174.934 105.875 174.894 106.066 174.866C106.257 174.833 106.442 174.817 106.619 174.817H109.979C110.114 174.817 110.222 174.857 110.301 174.936C110.38 175.015 110.42 175.118 110.42 175.244V176H103.728V175.573C103.728 175.484 103.744 175.393 103.777 175.3C103.814 175.207 103.873 175.12 103.952 175.041L107.165 171.814C107.431 171.543 107.674 171.284 107.893 171.037C108.112 170.785 108.299 170.533 108.453 170.281C108.612 170.029 108.733 169.775 108.817 169.518C108.901 169.257 108.943 168.979 108.943 168.685C108.943 168.391 108.896 168.134 108.803 167.915C108.71 167.691 108.581 167.507 108.418 167.362C108.255 167.217 108.063 167.11 107.844 167.04C107.625 166.965 107.389 166.928 107.137 166.928C106.885 166.928 106.652 166.965 106.437 167.04C106.222 167.115 106.031 167.22 105.863 167.355C105.7 167.486 105.56 167.642 105.443 167.824C105.331 168.006 105.252 168.207 105.205 168.426C105.168 168.561 105.112 168.659 105.037 168.72C104.962 168.781 104.864 168.811 104.743 168.811C104.72 168.811 104.694 168.811 104.666 168.811C104.643 168.806 104.615 168.802 104.582 168.797L103.931 168.685C103.996 168.228 104.122 167.824 104.309 167.474C104.496 167.119 104.731 166.823 105.016 166.585C105.305 166.347 105.634 166.167 106.003 166.046C106.376 165.92 106.778 165.857 107.207 165.857ZM111.779 175.139C111.779 175.032 111.798 174.931 111.835 174.838C111.877 174.74 111.933 174.656 112.003 174.586C112.078 174.511 112.166 174.453 112.269 174.411C112.372 174.369 112.484 174.348 112.605 174.348C112.745 174.348 112.869 174.374 112.976 174.425C113.088 174.476 113.179 174.549 113.249 174.642C113.324 174.731 113.38 174.836 113.417 174.957C113.454 175.074 113.473 175.202 113.473 175.342C113.473 175.552 113.443 175.771 113.382 176C113.321 176.224 113.235 176.446 113.123 176.665C113.011 176.889 112.871 177.106 112.703 177.316C112.54 177.526 112.353 177.72 112.143 177.897L111.933 177.694C111.872 177.638 111.842 177.573 111.842 177.498C111.842 177.437 111.875 177.374 111.94 177.309C111.987 177.258 112.045 177.188 112.115 177.099C112.19 177.015 112.264 176.917 112.339 176.805C112.414 176.693 112.481 176.569 112.542 176.434C112.607 176.299 112.654 176.154 112.682 176H112.591C112.47 176 112.36 175.979 112.262 175.937C112.164 175.895 112.078 175.837 112.003 175.762C111.933 175.683 111.877 175.592 111.835 175.489C111.798 175.382 111.779 175.265 111.779 175.139ZM121.676 165.969V166.529C121.676 166.688 121.657 166.818 121.62 166.921C121.587 167.024 121.552 167.11 121.515 167.18L117.364 175.559C117.303 175.68 117.219 175.785 117.112 175.874C117.005 175.958 116.86 176 116.678 176H115.789L120.003 167.726C120.064 167.609 120.124 167.502 120.185 167.404C120.25 167.306 120.323 167.213 120.402 167.124H115.166C115.087 167.124 115.014 167.094 114.949 167.033C114.888 166.968 114.858 166.895 114.858 166.816V165.969H121.676ZM126.052 171.884C125.674 171.884 125.315 171.821 124.974 171.695C124.638 171.569 124.342 171.385 124.085 171.142C123.828 170.895 123.623 170.594 123.469 170.239C123.32 169.88 123.245 169.469 123.245 169.007C123.245 168.568 123.327 168.158 123.49 167.775C123.653 167.392 123.882 167.059 124.176 166.774C124.47 166.489 124.82 166.265 125.226 166.102C125.632 165.939 126.078 165.857 126.563 165.857C127.044 165.857 127.48 165.936 127.872 166.095C128.264 166.254 128.6 166.475 128.88 166.76C129.16 167.045 129.375 167.385 129.524 167.782C129.678 168.179 129.755 168.617 129.755 169.098C129.755 169.387 129.727 169.663 129.671 169.924C129.62 170.181 129.543 170.433 129.44 170.68C129.337 170.927 129.214 171.175 129.069 171.422C128.929 171.665 128.768 171.917 128.586 172.178L126.143 175.706C126.082 175.795 125.996 175.867 125.884 175.923C125.772 175.974 125.644 176 125.499 176H124.351L127.403 172.003C127.506 171.868 127.601 171.739 127.69 171.618C127.779 171.497 127.863 171.375 127.942 171.254C127.685 171.459 127.396 171.616 127.074 171.723C126.752 171.83 126.411 171.884 126.052 171.884ZM128.558 168.951C128.558 168.638 128.507 168.356 128.404 168.104C128.306 167.847 128.168 167.63 127.991 167.453C127.814 167.276 127.601 167.14 127.354 167.047C127.111 166.949 126.843 166.9 126.549 166.9C126.241 166.9 125.959 166.951 125.702 167.054C125.45 167.152 125.233 167.29 125.051 167.467C124.874 167.644 124.736 167.857 124.638 168.104C124.54 168.351 124.491 168.622 124.491 168.916C124.491 169.233 124.535 169.518 124.624 169.77C124.717 170.017 124.848 170.227 125.016 170.4C125.189 170.573 125.396 170.703 125.639 170.792C125.886 170.881 126.162 170.925 126.465 170.925C126.801 170.925 127.097 170.871 127.354 170.764C127.615 170.652 127.835 170.505 128.012 170.323C128.189 170.141 128.325 169.931 128.418 169.693C128.511 169.455 128.558 169.208 128.558 168.951ZM133.275 169.707H134.304C134.397 169.119 134.554 168.589 134.773 168.118C134.997 167.642 135.272 167.238 135.599 166.907C135.93 166.571 136.311 166.314 136.74 166.137C137.169 165.96 137.636 165.871 138.14 165.871C138.765 165.871 139.3 165.988 139.743 166.221C140.186 166.454 140.571 166.776 140.898 167.187L140.471 167.663C140.434 167.705 140.396 167.742 140.359 167.775C140.322 167.803 140.27 167.817 140.205 167.817C140.126 167.817 140.042 167.773 139.953 167.684C139.869 167.595 139.755 167.497 139.61 167.39C139.465 167.283 139.279 167.185 139.05 167.096C138.826 167.007 138.539 166.963 138.189 166.963C137.508 166.963 136.941 167.196 136.488 167.663C136.04 168.13 135.741 168.811 135.592 169.707H139.421V170.092C139.421 170.176 139.388 170.253 139.323 170.323C139.262 170.388 139.176 170.421 139.064 170.421H135.508C135.503 170.514 135.499 170.608 135.494 170.701C135.494 170.794 135.494 170.89 135.494 170.988C135.494 171.063 135.494 171.135 135.494 171.205C135.494 171.275 135.496 171.345 135.501 171.415H138.77V171.807C138.77 171.886 138.737 171.961 138.672 172.031C138.607 172.096 138.518 172.129 138.406 172.129H135.564C135.695 173.09 135.984 173.811 136.432 174.292C136.88 174.773 137.445 175.013 138.126 175.013C138.378 175.013 138.6 174.99 138.791 174.943C138.982 174.892 139.148 174.829 139.288 174.754C139.428 174.679 139.547 174.6 139.645 174.516C139.748 174.427 139.836 174.346 139.911 174.271C139.986 174.196 140.051 174.136 140.107 174.089C140.168 174.038 140.226 174.012 140.282 174.012C140.319 174.012 140.352 174.021 140.38 174.04C140.408 174.054 140.441 174.077 140.478 174.11L141.003 174.6C140.676 175.076 140.27 175.447 139.785 175.713C139.3 175.974 138.723 176.105 138.056 176.105C137.515 176.105 137.027 176.014 136.593 175.832C136.159 175.645 135.783 175.382 135.466 175.041C135.149 174.696 134.887 174.278 134.682 173.788C134.481 173.293 134.344 172.74 134.269 172.129H133.275V171.415H134.213C134.208 171.345 134.206 171.275 134.206 171.205C134.206 171.135 134.206 171.063 134.206 170.988C134.206 170.895 134.206 170.801 134.206 170.708C134.211 170.61 134.215 170.514 134.22 170.421H133.275V169.707Z" fill="black"/>
<rect x="194.25" y="145.25" width="129.5" height="49.5" rx="1.75" fill="white" stroke="#9B9B9B" stroke-width="0.5"/>
<path d="M234.009 175.048H236.165V168.209C236.165 168.004 236.172 167.796 236.186 167.586L234.394 169.119C234.347 169.156 234.301 169.184 234.254 169.203C234.207 169.217 234.163 169.224 234.121 169.224C234.051 169.224 233.988 169.21 233.932 169.182C233.876 169.149 233.834 169.112 233.806 169.07L233.414 168.531L236.396 165.948H237.411V175.048H239.385V176H234.009V175.048ZM244.461 165.857C244.886 165.857 245.278 165.918 245.637 166.039C245.996 166.16 246.304 166.333 246.561 166.557C246.822 166.781 247.025 167.052 247.17 167.369C247.315 167.686 247.387 168.039 247.387 168.426C247.387 168.743 247.345 169.028 247.261 169.28C247.182 169.527 247.065 169.747 246.911 169.938C246.762 170.125 246.58 170.283 246.365 170.414C246.15 170.545 245.91 170.65 245.644 170.729C246.297 170.902 246.787 171.191 247.114 171.597C247.445 172.003 247.611 172.512 247.611 173.123C247.611 173.585 247.522 174 247.345 174.369C247.172 174.738 246.934 175.053 246.631 175.314C246.328 175.571 245.973 175.769 245.567 175.909C245.166 176.044 244.734 176.112 244.272 176.112C243.74 176.112 243.285 176.047 242.907 175.916C242.529 175.781 242.209 175.596 241.948 175.363C241.687 175.13 241.472 174.854 241.304 174.537C241.136 174.215 240.994 173.867 240.877 173.494L241.409 173.27C241.507 173.228 241.605 173.207 241.703 173.207C241.796 173.207 241.878 173.228 241.948 173.27C242.023 173.307 242.079 173.368 242.116 173.452C242.125 173.471 242.135 173.492 242.144 173.515C242.153 173.534 242.163 173.555 242.172 173.578C242.237 173.713 242.317 173.867 242.41 174.04C242.503 174.208 242.629 174.367 242.788 174.516C242.947 174.665 243.143 174.791 243.376 174.894C243.614 174.997 243.908 175.048 244.258 175.048C244.608 175.048 244.914 174.992 245.175 174.88C245.441 174.763 245.66 174.614 245.833 174.432C246.01 174.25 246.143 174.047 246.232 173.823C246.321 173.599 246.365 173.377 246.365 173.158C246.365 172.887 246.328 172.64 246.253 172.416C246.183 172.192 246.052 171.998 245.861 171.835C245.674 171.672 245.413 171.543 245.077 171.45C244.746 171.357 244.319 171.31 243.796 171.31V170.407C244.221 170.402 244.582 170.356 244.881 170.267C245.184 170.178 245.432 170.057 245.623 169.903C245.814 169.749 245.952 169.565 246.036 169.35C246.125 169.135 246.169 168.897 246.169 168.636C246.169 168.347 246.122 168.095 246.029 167.88C245.94 167.665 245.817 167.488 245.658 167.348C245.499 167.208 245.31 167.103 245.091 167.033C244.876 166.963 244.643 166.928 244.391 166.928C244.139 166.928 243.906 166.965 243.691 167.04C243.476 167.115 243.285 167.22 243.117 167.355C242.954 167.486 242.816 167.644 242.704 167.831C242.592 168.013 242.508 168.211 242.452 168.426C242.415 168.561 242.359 168.659 242.284 168.72C242.209 168.781 242.114 168.811 241.997 168.811C241.974 168.811 241.948 168.811 241.92 168.811C241.897 168.806 241.869 168.802 241.836 168.797L241.185 168.685C241.25 168.228 241.376 167.824 241.563 167.474C241.75 167.119 241.985 166.823 242.27 166.585C242.559 166.347 242.888 166.167 243.257 166.046C243.63 165.92 244.032 165.857 244.461 165.857ZM250.251 175.048H252.407V168.209C252.407 168.004 252.414 167.796 252.428 167.586L250.636 169.119C250.59 169.156 250.543 169.184 250.496 169.203C250.45 169.217 250.405 169.224 250.363 169.224C250.293 169.224 250.23 169.21 250.174 169.182C250.118 169.149 250.076 169.112 250.048 169.07L249.656 168.531L252.638 165.948H253.653V175.048H255.627V176H250.251V175.048ZM257.021 175.139C257.021 175.032 257.04 174.931 257.077 174.838C257.119 174.74 257.175 174.656 257.245 174.586C257.32 174.511 257.409 174.453 257.511 174.411C257.614 174.369 257.726 174.348 257.847 174.348C257.987 174.348 258.111 174.374 258.218 174.425C258.33 174.476 258.421 174.549 258.491 174.642C258.566 174.731 258.622 174.836 258.659 174.957C258.697 175.074 258.715 175.202 258.715 175.342C258.715 175.552 258.685 175.771 258.624 176C258.564 176.224 258.477 176.446 258.365 176.665C258.253 176.889 258.113 177.106 257.945 177.316C257.782 177.526 257.595 177.72 257.385 177.897L257.175 177.694C257.115 177.638 257.084 177.573 257.084 177.498C257.084 177.437 257.117 177.374 257.182 177.309C257.229 177.258 257.287 177.188 257.357 177.099C257.432 177.015 257.507 176.917 257.581 176.805C257.656 176.693 257.724 176.569 257.784 176.434C257.85 176.299 257.896 176.154 257.924 176H257.833C257.712 176 257.602 175.979 257.504 175.937C257.406 175.895 257.32 175.837 257.245 175.762C257.175 175.683 257.119 175.592 257.077 175.489C257.04 175.382 257.021 175.265 257.021 175.139ZM267.03 170.988C267.03 171.865 266.934 172.626 266.743 173.27C266.556 173.909 266.3 174.439 265.973 174.859C265.646 175.279 265.259 175.592 264.811 175.797C264.368 176.002 263.892 176.105 263.383 176.105C262.87 176.105 262.391 176.002 261.948 175.797C261.509 175.592 261.127 175.279 260.8 174.859C260.473 174.439 260.217 173.909 260.03 173.27C259.843 172.626 259.75 171.865 259.75 170.988C259.75 170.111 259.843 169.35 260.03 168.706C260.217 168.062 260.473 167.53 260.8 167.11C261.127 166.685 261.509 166.37 261.948 166.165C262.391 165.96 262.87 165.857 263.383 165.857C263.892 165.857 264.368 165.96 264.811 166.165C265.259 166.37 265.646 166.685 265.973 167.11C266.3 167.53 266.556 168.062 266.743 168.706C266.934 169.35 267.03 170.111 267.03 170.988ZM265.735 170.988C265.735 170.223 265.67 169.581 265.539 169.063C265.413 168.54 265.24 168.12 265.021 167.803C264.806 167.486 264.557 167.259 264.272 167.124C263.987 166.984 263.691 166.914 263.383 166.914C263.075 166.914 262.779 166.984 262.494 167.124C262.209 167.259 261.96 167.486 261.745 167.803C261.53 168.12 261.358 168.54 261.227 169.063C261.101 169.581 261.038 170.223 261.038 170.988C261.038 171.753 261.101 172.395 261.227 172.913C261.358 173.431 261.53 173.849 261.745 174.166C261.96 174.483 262.209 174.712 262.494 174.852C262.779 174.987 263.075 175.055 263.383 175.055C263.691 175.055 263.987 174.987 264.272 174.852C264.557 174.712 264.806 174.483 265.021 174.166C265.24 173.849 265.413 173.431 265.539 172.913C265.67 172.395 265.735 171.753 265.735 170.988ZM275.151 170.988C275.151 171.865 275.056 172.626 274.864 173.27C274.678 173.909 274.421 174.439 274.094 174.859C273.768 175.279 273.38 175.592 272.932 175.797C272.489 176.002 272.013 176.105 271.504 176.105C270.991 176.105 270.513 176.002 270.069 175.797C269.631 175.592 269.248 175.279 268.921 174.859C268.595 174.439 268.338 173.909 268.151 173.27C267.965 172.626 267.871 171.865 267.871 170.988C267.871 170.111 267.965 169.35 268.151 168.706C268.338 168.062 268.595 167.53 268.921 167.11C269.248 166.685 269.631 166.37 270.069 166.165C270.513 165.96 270.991 165.857 271.504 165.857C272.013 165.857 272.489 165.96 272.932 166.165C273.38 166.37 273.768 166.685 274.094 167.11C274.421 167.53 274.678 168.062 274.864 168.706C275.056 169.35 275.151 170.111 275.151 170.988ZM273.856 170.988C273.856 170.223 273.791 169.581 273.66 169.063C273.534 168.54 273.362 168.12 273.142 167.803C272.928 167.486 272.678 167.259 272.393 167.124C272.109 166.984 271.812 166.914 271.504 166.914C271.196 166.914 270.9 166.984 270.615 167.124C270.331 167.259 270.081 167.486 269.866 167.803C269.652 168.12 269.479 168.54 269.348 169.063C269.222 169.581 269.159 170.223 269.159 170.988C269.159 171.753 269.222 172.395 269.348 172.913C269.479 173.431 269.652 173.849 269.866 174.166C270.081 174.483 270.331 174.712 270.615 174.852C270.9 174.987 271.196 175.055 271.504 175.055C271.812 175.055 272.109 174.987 272.393 174.852C272.678 174.712 272.928 174.483 273.142 174.166C273.362 173.849 273.534 173.431 273.66 172.913C273.791 172.395 273.856 171.753 273.856 170.988ZM278.517 169.707H279.546C279.64 169.119 279.796 168.589 280.015 168.118C280.239 167.642 280.515 167.238 280.841 166.907C281.173 166.571 281.553 166.314 281.982 166.137C282.412 165.96 282.878 165.871 283.382 165.871C284.008 165.871 284.542 165.988 284.985 166.221C285.429 166.454 285.814 166.776 286.14 167.187L285.713 167.663C285.676 167.705 285.639 167.742 285.601 167.775C285.564 167.803 285.513 167.817 285.447 167.817C285.368 167.817 285.284 167.773 285.195 167.684C285.111 167.595 284.997 167.497 284.852 167.39C284.708 167.283 284.521 167.185 284.292 167.096C284.068 167.007 283.781 166.963 283.431 166.963C282.75 166.963 282.183 167.196 281.73 167.663C281.282 168.13 280.984 168.811 280.834 169.707H284.663V170.092C284.663 170.176 284.631 170.253 284.565 170.323C284.505 170.388 284.418 170.421 284.306 170.421H280.75C280.746 170.514 280.741 170.608 280.736 170.701C280.736 170.794 280.736 170.89 280.736 170.988C280.736 171.063 280.736 171.135 280.736 171.205C280.736 171.275 280.739 171.345 280.743 171.415H284.012V171.807C284.012 171.886 283.98 171.961 283.914 172.031C283.849 172.096 283.76 172.129 283.648 172.129H280.806C280.937 173.09 281.226 173.811 281.674 174.292C282.122 174.773 282.687 175.013 283.368 175.013C283.62 175.013 283.842 174.99 284.033 174.943C284.225 174.892 284.39 174.829 284.53 174.754C284.67 174.679 284.789 174.6 284.887 174.516C284.99 174.427 285.079 174.346 285.153 174.271C285.228 174.196 285.293 174.136 285.349 174.089C285.41 174.038 285.468 174.012 285.524 174.012C285.562 174.012 285.594 174.021 285.622 174.04C285.65 174.054 285.683 174.077 285.72 174.11L286.245 174.6C285.919 175.076 285.513 175.447 285.027 175.713C284.542 175.974 283.966 176.105 283.298 176.105C282.757 176.105 282.269 176.014 281.835 175.832C281.401 175.645 281.026 175.382 280.708 175.041C280.391 174.696 280.13 174.278 279.924 173.788C279.724 173.293 279.586 172.74 279.511 172.129H278.517V171.415H279.455C279.451 171.345 279.448 171.275 279.448 171.205C279.448 171.135 279.448 171.063 279.448 170.988C279.448 170.895 279.448 170.801 279.448 170.708C279.453 170.61 279.458 170.514 279.462 170.421H278.517V169.707Z" fill="black"/>
<rect x="328.25" y="145.25" width="129.5" height="49.5" rx="1.75" fill="white" stroke="#9B9B9B" stroke-width="0.5"/>
<path d="M368.009 175.048H370.165V168.209C370.165 168.004 370.172 167.796 370.186 167.586L368.394 169.119C368.347 169.156 368.301 169.184 368.254 169.203C368.207 169.217 368.163 169.224 368.121 169.224C368.051 169.224 367.988 169.21 367.932 169.182C367.876 169.149 367.834 169.112 367.806 169.07L367.414 168.531L370.396 165.948H371.411V175.048H373.385V176H368.009V175.048ZM378.461 165.857C378.886 165.857 379.278 165.918 379.637 166.039C379.996 166.16 380.304 166.333 380.561 166.557C380.822 166.781 381.025 167.052 381.17 167.369C381.315 167.686 381.387 168.039 381.387 168.426C381.387 168.743 381.345 169.028 381.261 169.28C381.182 169.527 381.065 169.747 380.911 169.938C380.762 170.125 380.58 170.283 380.365 170.414C380.15 170.545 379.91 170.65 379.644 170.729C380.297 170.902 380.787 171.191 381.114 171.597C381.445 172.003 381.611 172.512 381.611 173.123C381.611 173.585 381.522 174 381.345 174.369C381.172 174.738 380.934 175.053 380.631 175.314C380.328 175.571 379.973 175.769 379.567 175.909C379.166 176.044 378.734 176.112 378.272 176.112C377.74 176.112 377.285 176.047 376.907 175.916C376.529 175.781 376.209 175.596 375.948 175.363C375.687 175.13 375.472 174.854 375.304 174.537C375.136 174.215 374.994 173.867 374.877 173.494L375.409 173.27C375.507 173.228 375.605 173.207 375.703 173.207C375.796 173.207 375.878 173.228 375.948 173.27C376.023 173.307 376.079 173.368 376.116 173.452C376.125 173.471 376.135 173.492 376.144 173.515C376.153 173.534 376.163 173.555 376.172 173.578C376.237 173.713 376.317 173.867 376.41 174.04C376.503 174.208 376.629 174.367 376.788 174.516C376.947 174.665 377.143 174.791 377.376 174.894C377.614 174.997 377.908 175.048 378.258 175.048C378.608 175.048 378.914 174.992 379.175 174.88C379.441 174.763 379.66 174.614 379.833 174.432C380.01 174.25 380.143 174.047 380.232 173.823C380.321 173.599 380.365 173.377 380.365 173.158C380.365 172.887 380.328 172.64 380.253 172.416C380.183 172.192 380.052 171.998 379.861 171.835C379.674 171.672 379.413 171.543 379.077 171.45C378.746 171.357 378.319 171.31 377.796 171.31V170.407C378.221 170.402 378.582 170.356 378.881 170.267C379.184 170.178 379.432 170.057 379.623 169.903C379.814 169.749 379.952 169.565 380.036 169.35C380.125 169.135 380.169 168.897 380.169 168.636C380.169 168.347 380.122 168.095 380.029 167.88C379.94 167.665 379.817 167.488 379.658 167.348C379.499 167.208 379.31 167.103 379.091 167.033C378.876 166.963 378.643 166.928 378.391 166.928C378.139 166.928 377.906 166.965 377.691 167.04C377.476 167.115 377.285 167.22 377.117 167.355C376.954 167.486 376.816 167.644 376.704 167.831C376.592 168.013 376.508 168.211 376.452 168.426C376.415 168.561 376.359 168.659 376.284 168.72C376.209 168.781 376.114 168.811 375.997 168.811C375.974 168.811 375.948 168.811 375.92 168.811C375.897 168.806 375.869 168.802 375.836 168.797L375.185 168.685C375.25 168.228 375.376 167.824 375.563 167.474C375.75 167.119 375.985 166.823 376.27 166.585C376.559 166.347 376.888 166.167 377.257 166.046C377.63 165.92 378.032 165.857 378.461 165.857ZM386.449 165.857C386.874 165.857 387.271 165.92 387.639 166.046C388.008 166.172 388.325 166.356 388.591 166.599C388.862 166.837 389.074 167.129 389.228 167.474C389.382 167.819 389.459 168.211 389.459 168.65C389.459 169.023 389.403 169.369 389.291 169.686C389.179 170.003 389.028 170.309 388.836 170.603C388.645 170.892 388.423 171.175 388.171 171.45C387.924 171.721 387.66 171.998 387.38 172.283L384.741 174.985C384.928 174.934 385.117 174.894 385.308 174.866C385.5 174.833 385.684 174.817 385.861 174.817H389.221C389.357 174.817 389.464 174.857 389.543 174.936C389.623 175.015 389.662 175.118 389.662 175.244V176H382.97V175.573C382.97 175.484 382.987 175.393 383.019 175.3C383.057 175.207 383.115 175.12 383.194 175.041L386.407 171.814C386.673 171.543 386.916 171.284 387.135 171.037C387.355 170.785 387.541 170.533 387.695 170.281C387.854 170.029 387.975 169.775 388.059 169.518C388.143 169.257 388.185 168.979 388.185 168.685C388.185 168.391 388.139 168.134 388.045 167.915C387.952 167.691 387.824 167.507 387.66 167.362C387.497 167.217 387.306 167.11 387.086 167.04C386.867 166.965 386.631 166.928 386.379 166.928C386.127 166.928 385.894 166.965 385.679 167.04C385.465 167.115 385.273 167.22 385.105 167.355C384.942 167.486 384.802 167.642 384.685 167.824C384.573 168.006 384.494 168.207 384.447 168.426C384.41 168.561 384.354 168.659 384.279 168.72C384.205 168.781 384.107 168.811 383.985 168.811C383.962 168.811 383.936 168.811 383.908 168.811C383.885 168.806 383.857 168.802 383.824 168.797L383.173 168.685C383.239 168.228 383.365 167.824 383.551 167.474C383.738 167.119 383.974 166.823 384.258 166.585C384.548 166.347 384.877 166.167 385.245 166.046C385.619 165.92 386.02 165.857 386.449 165.857ZM391.021 175.139C391.021 175.032 391.04 174.931 391.077 174.838C391.119 174.74 391.175 174.656 391.245 174.586C391.32 174.511 391.409 174.453 391.511 174.411C391.614 174.369 391.726 174.348 391.847 174.348C391.987 174.348 392.111 174.374 392.218 174.425C392.33 174.476 392.421 174.549 392.491 174.642C392.566 174.731 392.622 174.836 392.659 174.957C392.697 175.074 392.715 175.202 392.715 175.342C392.715 175.552 392.685 175.771 392.624 176C392.564 176.224 392.477 176.446 392.365 176.665C392.253 176.889 392.113 177.106 391.945 177.316C391.782 177.526 391.595 177.72 391.385 177.897L391.175 177.694C391.115 177.638 391.084 177.573 391.084 177.498C391.084 177.437 391.117 177.374 391.182 177.309C391.229 177.258 391.287 177.188 391.357 177.099C391.432 177.015 391.507 176.917 391.581 176.805C391.656 176.693 391.724 176.569 391.784 176.434C391.85 176.299 391.896 176.154 391.924 176H391.833C391.712 176 391.602 175.979 391.504 175.937C391.406 175.895 391.32 175.837 391.245 175.762C391.175 175.683 391.119 175.592 391.077 175.489C391.04 175.382 391.021 175.265 391.021 175.139ZM401.03 170.988C401.03 171.865 400.934 172.626 400.743 173.27C400.556 173.909 400.3 174.439 399.973 174.859C399.646 175.279 399.259 175.592 398.811 175.797C398.368 176.002 397.892 176.105 397.383 176.105C396.87 176.105 396.391 176.002 395.948 175.797C395.509 175.592 395.127 175.279 394.8 174.859C394.473 174.439 394.217 173.909 394.03 173.27C393.843 172.626 393.75 171.865 393.75 170.988C393.75 170.111 393.843 169.35 394.03 168.706C394.217 168.062 394.473 167.53 394.8 167.11C395.127 166.685 395.509 166.37 395.948 166.165C396.391 165.96 396.87 165.857 397.383 165.857C397.892 165.857 398.368 165.96 398.811 166.165C399.259 166.37 399.646 166.685 399.973 167.11C400.3 167.53 400.556 168.062 400.743 168.706C400.934 169.35 401.03 170.111 401.03 170.988ZM399.735 170.988C399.735 170.223 399.67 169.581 399.539 169.063C399.413 168.54 399.24 168.12 399.021 167.803C398.806 167.486 398.557 167.259 398.272 167.124C397.987 166.984 397.691 166.914 397.383 166.914C397.075 166.914 396.779 166.984 396.494 167.124C396.209 167.259 395.96 167.486 395.745 167.803C395.53 168.12 395.358 168.54 395.227 169.063C395.101 169.581 395.038 170.223 395.038 170.988C395.038 171.753 395.101 172.395 395.227 172.913C395.358 173.431 395.53 173.849 395.745 174.166C395.96 174.483 396.209 174.712 396.494 174.852C396.779 174.987 397.075 175.055 397.383 175.055C397.691 175.055 397.987 174.987 398.272 174.852C398.557 174.712 398.806 174.483 399.021 174.166C399.24 173.849 399.413 173.431 399.539 172.913C399.67 172.395 399.735 171.753 399.735 170.988ZM409.151 170.988C409.151 171.865 409.056 172.626 408.864 173.27C408.678 173.909 408.421 174.439 408.094 174.859C407.768 175.279 407.38 175.592 406.932 175.797C406.489 176.002 406.013 176.105 405.504 176.105C404.991 176.105 404.513 176.002 404.069 175.797C403.631 175.592 403.248 175.279 402.921 174.859C402.595 174.439 402.338 173.909 402.151 173.27C401.965 172.626 401.871 171.865 401.871 170.988C401.871 170.111 401.965 169.35 402.151 168.706C402.338 168.062 402.595 167.53 402.921 167.11C403.248 166.685 403.631 166.37 404.069 166.165C404.513 165.96 404.991 165.857 405.504 165.857C406.013 165.857 406.489 165.96 406.932 166.165C407.38 166.37 407.768 166.685 408.094 167.11C408.421 167.53 408.678 168.062 408.864 168.706C409.056 169.35 409.151 170.111 409.151 170.988ZM407.856 170.988C407.856 170.223 407.791 169.581 407.66 169.063C407.534 168.54 407.362 168.12 407.142 167.803C406.928 167.486 406.678 167.259 406.393 167.124C406.109 166.984 405.812 166.914 405.504 166.914C405.196 166.914 404.9 166.984 404.615 167.124C404.331 167.259 404.081 167.486 403.866 167.803C403.652 168.12 403.479 168.54 403.348 169.063C403.222 169.581 403.159 170.223 403.159 170.988C403.159 171.753 403.222 172.395 403.348 172.913C403.479 173.431 403.652 173.849 403.866 174.166C404.081 174.483 404.331 174.712 404.615 174.852C404.9 174.987 405.196 175.055 405.504 175.055C405.812 175.055 406.109 174.987 406.393 174.852C406.678 174.712 406.928 174.483 407.142 174.166C407.362 173.849 407.534 173.431 407.66 172.913C407.791 172.395 407.856 171.753 407.856 170.988ZM412.517 169.707H413.546C413.64 169.119 413.796 168.589 414.015 168.118C414.239 167.642 414.515 167.238 414.841 166.907C415.173 166.571 415.553 166.314 415.982 166.137C416.412 165.96 416.878 165.871 417.382 165.871C418.008 165.871 418.542 165.988 418.985 166.221C419.429 166.454 419.814 166.776 420.14 167.187L419.713 167.663C419.676 167.705 419.639 167.742 419.601 167.775C419.564 167.803 419.513 167.817 419.447 167.817C419.368 167.817 419.284 167.773 419.195 167.684C419.111 167.595 418.997 167.497 418.852 167.39C418.708 167.283 418.521 167.185 418.292 167.096C418.068 167.007 417.781 166.963 417.431 166.963C416.75 166.963 416.183 167.196 415.73 167.663C415.282 168.13 414.984 168.811 414.834 169.707H418.663V170.092C418.663 170.176 418.631 170.253 418.565 170.323C418.505 170.388 418.418 170.421 418.306 170.421H414.75C414.746 170.514 414.741 170.608 414.736 170.701C414.736 170.794 414.736 170.89 414.736 170.988C414.736 171.063 414.736 171.135 414.736 171.205C414.736 171.275 414.739 171.345 414.743 171.415H418.012V171.807C418.012 171.886 417.98 171.961 417.914 172.031C417.849 172.096 417.76 172.129 417.648 172.129H414.806C414.937 173.09 415.226 173.811 415.674 174.292C416.122 174.773 416.687 175.013 417.368 175.013C417.62 175.013 417.842 174.99 418.033 174.943C418.225 174.892 418.39 174.829 418.53 174.754C418.67 174.679 418.789 174.6 418.887 174.516C418.99 174.427 419.079 174.346 419.153 174.271C419.228 174.196 419.293 174.136 419.349 174.089C419.41 174.038 419.468 174.012 419.524 174.012C419.562 174.012 419.594 174.021 419.622 174.04C419.65 174.054 419.683 174.077 419.72 174.11L420.245 174.6C419.919 175.076 419.513 175.447 419.027 175.713C418.542 175.974 417.966 176.105 417.298 176.105C416.757 176.105 416.269 176.014 415.835 175.832C415.401 175.645 415.026 175.382 414.708 175.041C414.391 174.696 414.13 174.278 413.924 173.788C413.724 173.293 413.586 172.74 413.511 172.129H412.517V171.415H413.455C413.451 171.345 413.448 171.275 413.448 171.205C413.448 171.135 413.448 171.063 413.448 170.988C413.448 170.895 413.448 170.801 413.448 170.708C413.453 170.61 413.458 170.514 413.462 170.421H412.517V169.707Z" fill="black"/>
<rect x="462.25" y="145.25" width="129.5" height="49.5" rx="1.75" fill="white" stroke="#9B9B9B" stroke-width="0.5"/>
<path d="M502.009 175.048H504.165V168.209C504.165 168.004 504.172 167.796 504.186 167.586L502.394 169.119C502.347 169.156 502.301 169.184 502.254 169.203C502.207 169.217 502.163 169.224 502.121 169.224C502.051 169.224 501.988 169.21 501.932 169.182C501.876 169.149 501.834 169.112 501.806 169.07L501.414 168.531L504.396 165.948H505.411V175.048H507.385V176H502.009V175.048ZM512.461 165.857C512.886 165.857 513.278 165.918 513.637 166.039C513.996 166.16 514.304 166.333 514.561 166.557C514.822 166.781 515.025 167.052 515.17 167.369C515.315 167.686 515.387 168.039 515.387 168.426C515.387 168.743 515.345 169.028 515.261 169.28C515.182 169.527 515.065 169.747 514.911 169.938C514.762 170.125 514.58 170.283 514.365 170.414C514.15 170.545 513.91 170.65 513.644 170.729C514.297 170.902 514.787 171.191 515.114 171.597C515.445 172.003 515.611 172.512 515.611 173.123C515.611 173.585 515.522 174 515.345 174.369C515.172 174.738 514.934 175.053 514.631 175.314C514.328 175.571 513.973 175.769 513.567 175.909C513.166 176.044 512.734 176.112 512.272 176.112C511.74 176.112 511.285 176.047 510.907 175.916C510.529 175.781 510.209 175.596 509.948 175.363C509.687 175.13 509.472 174.854 509.304 174.537C509.136 174.215 508.994 173.867 508.877 173.494L509.409 173.27C509.507 173.228 509.605 173.207 509.703 173.207C509.796 173.207 509.878 173.228 509.948 173.27C510.023 173.307 510.079 173.368 510.116 173.452C510.125 173.471 510.135 173.492 510.144 173.515C510.153 173.534 510.163 173.555 510.172 173.578C510.237 173.713 510.317 173.867 510.41 174.04C510.503 174.208 510.629 174.367 510.788 174.516C510.947 174.665 511.143 174.791 511.376 174.894C511.614 174.997 511.908 175.048 512.258 175.048C512.608 175.048 512.914 174.992 513.175 174.88C513.441 174.763 513.66 174.614 513.833 174.432C514.01 174.25 514.143 174.047 514.232 173.823C514.321 173.599 514.365 173.377 514.365 173.158C514.365 172.887 514.328 172.64 514.253 172.416C514.183 172.192 514.052 171.998 513.861 171.835C513.674 171.672 513.413 171.543 513.077 171.45C512.746 171.357 512.319 171.31 511.796 171.31V170.407C512.221 170.402 512.582 170.356 512.881 170.267C513.184 170.178 513.432 170.057 513.623 169.903C513.814 169.749 513.952 169.565 514.036 169.35C514.125 169.135 514.169 168.897 514.169 168.636C514.169 168.347 514.122 168.095 514.029 167.88C513.94 167.665 513.817 167.488 513.658 167.348C513.499 167.208 513.31 167.103 513.091 167.033C512.876 166.963 512.643 166.928 512.391 166.928C512.139 166.928 511.906 166.965 511.691 167.04C511.476 167.115 511.285 167.22 511.117 167.355C510.954 167.486 510.816 167.644 510.704 167.831C510.592 168.013 510.508 168.211 510.452 168.426C510.415 168.561 510.359 168.659 510.284 168.72C510.209 168.781 510.114 168.811 509.997 168.811C509.974 168.811 509.948 168.811 509.92 168.811C509.897 168.806 509.869 168.802 509.836 168.797L509.185 168.685C509.25 168.228 509.376 167.824 509.563 167.474C509.75 167.119 509.985 166.823 510.27 166.585C510.559 166.347 510.888 166.167 511.257 166.046C511.63 165.92 512.032 165.857 512.461 165.857ZM523.088 166.515C523.088 166.692 523.032 166.839 522.92 166.956C522.808 167.068 522.619 167.124 522.353 167.124H519.203L518.741 169.756C519.264 169.644 519.747 169.588 520.19 169.588C520.713 169.588 521.173 169.665 521.569 169.819C521.971 169.973 522.307 170.185 522.577 170.456C522.848 170.727 523.051 171.046 523.186 171.415C523.326 171.784 523.396 172.185 523.396 172.619C523.396 173.151 523.303 173.632 523.116 174.061C522.93 174.49 522.673 174.859 522.346 175.167C522.024 175.47 521.644 175.704 521.205 175.867C520.767 176.03 520.293 176.112 519.784 176.112C519.49 176.112 519.208 176.082 518.937 176.021C518.667 175.965 518.415 175.888 518.181 175.79C517.948 175.692 517.731 175.58 517.53 175.454C517.33 175.328 517.152 175.195 516.998 175.055L517.376 174.523C517.46 174.402 517.572 174.341 517.712 174.341C517.801 174.341 517.904 174.378 518.02 174.453C518.142 174.523 518.286 174.602 518.454 174.691C518.622 174.78 518.818 174.861 519.042 174.936C519.271 175.006 519.542 175.041 519.854 175.041C520.204 175.041 520.519 174.985 520.799 174.873C521.079 174.761 521.317 174.602 521.513 174.397C521.714 174.187 521.868 173.937 521.975 173.648C522.083 173.359 522.136 173.034 522.136 172.675C522.136 172.362 522.09 172.08 521.996 171.828C521.908 171.576 521.77 171.361 521.583 171.184C521.401 171.007 521.173 170.869 520.897 170.771C520.622 170.673 520.3 170.624 519.931 170.624C519.679 170.624 519.418 170.645 519.147 170.687C518.877 170.729 518.597 170.797 518.307 170.89L517.523 170.659L518.335 165.969H523.088V166.515ZM525.021 175.139C525.021 175.032 525.04 174.931 525.077 174.838C525.119 174.74 525.175 174.656 525.245 174.586C525.32 174.511 525.409 174.453 525.511 174.411C525.614 174.369 525.726 174.348 525.847 174.348C525.987 174.348 526.111 174.374 526.218 174.425C526.33 174.476 526.421 174.549 526.491 174.642C526.566 174.731 526.622 174.836 526.659 174.957C526.697 175.074 526.715 175.202 526.715 175.342C526.715 175.552 526.685 175.771 526.624 176C526.564 176.224 526.477 176.446 526.365 176.665C526.253 176.889 526.113 177.106 525.945 177.316C525.782 177.526 525.595 177.72 525.385 177.897L525.175 177.694C525.115 177.638 525.084 177.573 525.084 177.498C525.084 177.437 525.117 177.374 525.182 177.309C525.229 177.258 525.287 177.188 525.357 177.099C525.432 177.015 525.507 176.917 525.581 176.805C525.656 176.693 525.724 176.569 525.784 176.434C525.85 176.299 525.896 176.154 525.924 176H525.833C525.712 176 525.602 175.979 525.504 175.937C525.406 175.895 525.32 175.837 525.245 175.762C525.175 175.683 525.119 175.592 525.077 175.489C525.04 175.382 525.021 175.265 525.021 175.139ZM535.03 170.988C535.03 171.865 534.934 172.626 534.743 173.27C534.556 173.909 534.3 174.439 533.973 174.859C533.646 175.279 533.259 175.592 532.811 175.797C532.368 176.002 531.892 176.105 531.383 176.105C530.87 176.105 530.391 176.002 529.948 175.797C529.509 175.592 529.127 175.279 528.8 174.859C528.473 174.439 528.217 173.909 528.03 173.27C527.843 172.626 527.75 171.865 527.75 170.988C527.75 170.111 527.843 169.35 528.03 168.706C528.217 168.062 528.473 167.53 528.8 167.11C529.127 166.685 529.509 166.37 529.948 166.165C530.391 165.96 530.87 165.857 531.383 165.857C531.892 165.857 532.368 165.96 532.811 166.165C533.259 166.37 533.646 166.685 533.973 167.11C534.3 167.53 534.556 168.062 534.743 168.706C534.934 169.35 535.03 170.111 535.03 170.988ZM533.735 170.988C533.735 170.223 533.67 169.581 533.539 169.063C533.413 168.54 533.24 168.12 533.021 167.803C532.806 167.486 532.557 167.259 532.272 167.124C531.987 166.984 531.691 166.914 531.383 166.914C531.075 166.914 530.779 166.984 530.494 167.124C530.209 167.259 529.96 167.486 529.745 167.803C529.53 168.12 529.358 168.54 529.227 169.063C529.101 169.581 529.038 170.223 529.038 170.988C529.038 171.753 529.101 172.395 529.227 172.913C529.358 173.431 529.53 173.849 529.745 174.166C529.96 174.483 530.209 174.712 530.494 174.852C530.779 174.987 531.075 175.055 531.383 175.055C531.691 175.055 531.987 174.987 532.272 174.852C532.557 174.712 532.806 174.483 533.021 174.166C533.24 173.849 533.413 173.431 533.539 172.913C533.67 172.395 533.735 171.753 533.735 170.988ZM543.151 170.988C543.151 171.865 543.056 172.626 542.864 173.27C542.678 173.909 542.421 174.439 542.094 174.859C541.768 175.279 541.38 175.592 540.932 175.797C540.489 176.002 540.013 176.105 539.504 176.105C538.991 176.105 538.513 176.002 538.069 175.797C537.631 175.592 537.248 175.279 536.921 174.859C536.595 174.439 536.338 173.909 536.151 173.27C535.965 172.626 535.871 171.865 535.871 170.988C535.871 170.111 535.965 169.35 536.151 168.706C536.338 168.062 536.595 167.53 536.921 167.11C537.248 166.685 537.631 166.37 538.069 166.165C538.513 165.96 538.991 165.857 539.504 165.857C540.013 165.857 540.489 165.96 540.932 166.165C541.38 166.37 541.768 166.685 542.094 167.11C542.421 167.53 542.678 168.062 542.864 168.706C543.056 169.35 543.151 170.111 543.151 170.988ZM541.856 170.988C541.856 170.223 541.791 169.581 541.66 169.063C541.534 168.54 541.362 168.12 541.142 167.803C540.928 167.486 540.678 167.259 540.393 167.124C540.109 166.984 539.812 166.914 539.504 166.914C539.196 166.914 538.9 166.984 538.615 167.124C538.331 167.259 538.081 167.486 537.866 167.803C537.652 168.12 537.479 168.54 537.348 169.063C537.222 169.581 537.159 170.223 537.159 170.988C537.159 171.753 537.222 172.395 537.348 172.913C537.479 173.431 537.652 173.849 537.866 174.166C538.081 174.483 538.331 174.712 538.615 174.852C538.9 174.987 539.196 175.055 539.504 175.055C539.812 175.055 540.109 174.987 540.393 174.852C540.678 174.712 540.928 174.483 541.142 174.166C541.362 173.849 541.534 173.431 541.66 172.913C541.791 172.395 541.856 171.753 541.856 170.988ZM546.517 169.707H547.546C547.64 169.119 547.796 168.589 548.015 168.118C548.239 167.642 548.515 167.238 548.841 166.907C549.173 166.571 549.553 166.314 549.982 166.137C550.412 165.96 550.878 165.871 551.382 165.871C552.008 165.871 552.542 165.988 552.985 166.221C553.429 166.454 553.814 166.776 554.14 167.187L553.713 167.663C553.676 167.705 553.639 167.742 553.601 167.775C553.564 167.803 553.513 167.817 553.447 167.817C553.368 167.817 553.284 167.773 553.195 167.684C553.111 167.595 552.997 167.497 552.852 167.39C552.708 167.283 552.521 167.185 552.292 167.096C552.068 167.007 551.781 166.963 551.431 166.963C550.75 166.963 550.183 167.196 549.73 167.663C549.282 168.13 548.984 168.811 548.834 169.707H552.663V170.092C552.663 170.176 552.631 170.253 552.565 170.323C552.505 170.388 552.418 170.421 552.306 170.421H548.75C548.746 170.514 548.741 170.608 548.736 170.701C548.736 170.794 548.736 170.89 548.736 170.988C548.736 171.063 548.736 171.135 548.736 171.205C548.736 171.275 548.739 171.345 548.743 171.415H552.012V171.807C552.012 171.886 551.98 171.961 551.914 172.031C551.849 172.096 551.76 172.129 551.648 172.129H548.806C548.937 173.09 549.226 173.811 549.674 174.292C550.122 174.773 550.687 175.013 551.368 175.013C551.62 175.013 551.842 174.99 552.033 174.943C552.225 174.892 552.39 174.829 552.53 174.754C552.67 174.679 552.789 174.6 552.887 174.516C552.99 174.427 553.079 174.346 553.153 174.271C553.228 174.196 553.293 174.136 553.349 174.089C553.41 174.038 553.468 174.012 553.524 174.012C553.562 174.012 553.594 174.021 553.622 174.04C553.65 174.054 553.683 174.077 553.72 174.11L554.245 174.6C553.919 175.076 553.513 175.447 553.027 175.713C552.542 175.974 551.966 176.105 551.298 176.105C550.757 176.105 550.269 176.014 549.835 175.832C549.401 175.645 549.026 175.382 548.708 175.041C548.391 174.696 548.13 174.278 547.924 173.788C547.724 173.293 547.586 172.74 547.511 172.129H546.517V171.415H547.455C547.451 171.345 547.448 171.275 547.448 171.205C547.448 171.135 547.448 171.063 547.448 170.988C547.448 170.895 547.448 170.801 547.448 170.708C547.453 170.61 547.458 170.514 547.462 170.421H546.517V169.707Z" fill="black"/>
<rect x="596.25" y="145.25" width="129.5" height="49.5" rx="1.75" fill="white" stroke="#9B9B9B" stroke-width="0.5"/>
<path d="M636.009 175.048H638.165V168.209C638.165 168.004 638.172 167.796 638.186 167.586L636.394 169.119C636.347 169.156 636.301 169.184 636.254 169.203C636.207 169.217 636.163 169.224 636.121 169.224C636.051 169.224 635.988 169.21 635.932 169.182C635.876 169.149 635.834 169.112 635.806 169.07L635.414 168.531L638.396 165.948H639.411V175.048H641.385V176H636.009V175.048ZM648.442 172.381H649.961V173.095C649.961 173.17 649.938 173.233 649.891 173.284C649.849 173.335 649.781 173.361 649.688 173.361H648.442V176H647.343V173.361H642.898C642.805 173.361 642.723 173.335 642.653 173.284C642.588 173.228 642.546 173.16 642.527 173.081L642.401 172.444L647.28 165.969H648.442V172.381ZM647.343 168.244C647.343 168.123 647.345 167.992 647.35 167.852C647.359 167.712 647.376 167.567 647.399 167.418L643.752 172.381H647.343V168.244ZM657.942 170.988C657.942 171.865 657.847 172.626 657.655 173.27C657.469 173.909 657.212 174.439 656.885 174.859C656.559 175.279 656.171 175.592 655.723 175.797C655.28 176.002 654.804 176.105 654.295 176.105C653.782 176.105 653.304 176.002 652.86 175.797C652.422 175.592 652.039 175.279 651.712 174.859C651.386 174.439 651.129 173.909 650.942 173.27C650.756 172.626 650.662 171.865 650.662 170.988C650.662 170.111 650.756 169.35 650.942 168.706C651.129 168.062 651.386 167.53 651.712 167.11C652.039 166.685 652.422 166.37 652.86 166.165C653.304 165.96 653.782 165.857 654.295 165.857C654.804 165.857 655.28 165.96 655.723 166.165C656.171 166.37 656.559 166.685 656.885 167.11C657.212 167.53 657.469 168.062 657.655 168.706C657.847 169.35 657.942 170.111 657.942 170.988ZM656.647 170.988C656.647 170.223 656.582 169.581 656.451 169.063C656.325 168.54 656.153 168.12 655.933 167.803C655.719 167.486 655.469 167.259 655.184 167.124C654.9 166.984 654.603 166.914 654.295 166.914C653.987 166.914 653.691 166.984 653.406 167.124C653.122 167.259 652.872 167.486 652.657 167.803C652.443 168.12 652.27 168.54 652.139 169.063C652.013 169.581 651.95 170.223 651.95 170.988C651.95 171.753 652.013 172.395 652.139 172.913C652.27 173.431 652.443 173.849 652.657 174.166C652.872 174.483 653.122 174.712 653.406 174.852C653.691 174.987 653.987 175.055 654.295 175.055C654.603 175.055 654.9 174.987 655.184 174.852C655.469 174.712 655.719 174.483 655.933 174.166C656.153 173.849 656.325 173.431 656.451 172.913C656.582 172.395 656.647 171.753 656.647 170.988ZM659.021 175.139C659.021 175.032 659.04 174.931 659.077 174.838C659.119 174.74 659.175 174.656 659.245 174.586C659.32 174.511 659.409 174.453 659.511 174.411C659.614 174.369 659.726 174.348 659.847 174.348C659.987 174.348 660.111 174.374 660.218 174.425C660.33 174.476 660.421 174.549 660.491 174.642C660.566 174.731 660.622 174.836 660.659 174.957C660.697 175.074 660.715 175.202 660.715 175.342C660.715 175.552 660.685 175.771 660.624 176C660.564 176.224 660.477 176.446 660.365 176.665C660.253 176.889 660.113 177.106 659.945 177.316C659.782 177.526 659.595 177.72 659.385 177.897L659.175 177.694C659.115 177.638 659.084 177.573 659.084 177.498C659.084 177.437 659.117 177.374 659.182 177.309C659.229 177.258 659.287 177.188 659.357 177.099C659.432 177.015 659.507 176.917 659.581 176.805C659.656 176.693 659.724 176.569 659.784 176.434C659.85 176.299 659.896 176.154 659.924 176H659.833C659.712 176 659.602 175.979 659.504 175.937C659.406 175.895 659.32 175.837 659.245 175.762C659.175 175.683 659.119 175.592 659.077 175.489C659.04 175.382 659.021 175.265 659.021 175.139ZM669.03 170.988C669.03 171.865 668.934 172.626 668.743 173.27C668.556 173.909 668.3 174.439 667.973 174.859C667.646 175.279 667.259 175.592 666.811 175.797C666.368 176.002 665.892 176.105 665.383 176.105C664.87 176.105 664.391 176.002 663.948 175.797C663.509 175.592 663.127 175.279 662.8 174.859C662.473 174.439 662.217 173.909 662.03 173.27C661.843 172.626 661.75 171.865 661.75 170.988C661.75 170.111 661.843 169.35 662.03 168.706C662.217 168.062 662.473 167.53 662.8 167.11C663.127 166.685 663.509 166.37 663.948 166.165C664.391 165.96 664.87 165.857 665.383 165.857C665.892 165.857 666.368 165.96 666.811 166.165C667.259 166.37 667.646 166.685 667.973 167.11C668.3 167.53 668.556 168.062 668.743 168.706C668.934 169.35 669.03 170.111 669.03 170.988ZM667.735 170.988C667.735 170.223 667.67 169.581 667.539 169.063C667.413 168.54 667.24 168.12 667.021 167.803C666.806 167.486 666.557 167.259 666.272 167.124C665.987 166.984 665.691 166.914 665.383 166.914C665.075 166.914 664.779 166.984 664.494 167.124C664.209 167.259 663.96 167.486 663.745 167.803C663.53 168.12 663.358 168.54 663.227 169.063C663.101 169.581 663.038 170.223 663.038 170.988C663.038 171.753 663.101 172.395 663.227 172.913C663.358 173.431 663.53 173.849 663.745 174.166C663.96 174.483 664.209 174.712 664.494 174.852C664.779 174.987 665.075 175.055 665.383 175.055C665.691 175.055 665.987 174.987 666.272 174.852C666.557 174.712 666.806 174.483 667.021 174.166C667.24 173.849 667.413 173.431 667.539 172.913C667.67 172.395 667.735 171.753 667.735 170.988ZM677.151 170.988C677.151 171.865 677.056 172.626 676.864 173.27C676.678 173.909 676.421 174.439 676.094 174.859C675.768 175.279 675.38 175.592 674.932 175.797C674.489 176.002 674.013 176.105 673.504 176.105C672.991 176.105 672.513 176.002 672.069 175.797C671.631 175.592 671.248 175.279 670.921 174.859C670.595 174.439 670.338 173.909 670.151 173.27C669.965 172.626 669.871 171.865 669.871 170.988C669.871 170.111 669.965 169.35 670.151 168.706C670.338 168.062 670.595 167.53 670.921 167.11C671.248 166.685 671.631 166.37 672.069 166.165C672.513 165.96 672.991 165.857 673.504 165.857C674.013 165.857 674.489 165.96 674.932 166.165C675.38 166.37 675.768 166.685 676.094 167.11C676.421 167.53 676.678 168.062 676.864 168.706C677.056 169.35 677.151 170.111 677.151 170.988ZM675.856 170.988C675.856 170.223 675.791 169.581 675.66 169.063C675.534 168.54 675.362 168.12 675.142 167.803C674.928 167.486 674.678 167.259 674.393 167.124C674.109 166.984 673.812 166.914 673.504 166.914C673.196 166.914 672.9 166.984 672.615 167.124C672.331 167.259 672.081 167.486 671.866 167.803C671.652 168.12 671.479 168.54 671.348 169.063C671.222 169.581 671.159 170.223 671.159 170.988C671.159 171.753 671.222 172.395 671.348 172.913C671.479 173.431 671.652 173.849 671.866 174.166C672.081 174.483 672.331 174.712 672.615 174.852C672.9 174.987 673.196 175.055 673.504 175.055C673.812 175.055 674.109 174.987 674.393 174.852C674.678 174.712 674.928 174.483 675.142 174.166C675.362 173.849 675.534 173.431 675.66 172.913C675.791 172.395 675.856 171.753 675.856 170.988ZM680.517 169.707H681.546C681.64 169.119 681.796 168.589 682.015 168.118C682.239 167.642 682.515 167.238 682.841 166.907C683.173 166.571 683.553 166.314 683.982 166.137C684.412 165.96 684.878 165.871 685.382 165.871C686.008 165.871 686.542 165.988 686.985 166.221C687.429 166.454 687.814 166.776 688.14 167.187L687.713 167.663C687.676 167.705 687.639 167.742 687.601 167.775C687.564 167.803 687.513 167.817 687.447 167.817C687.368 167.817 687.284 167.773 687.195 167.684C687.111 167.595 686.997 167.497 686.852 167.39C686.708 167.283 686.521 167.185 686.292 167.096C686.068 167.007 685.781 166.963 685.431 166.963C684.75 166.963 684.183 167.196 683.73 167.663C683.282 168.13 682.984 168.811 682.834 169.707H686.663V170.092C686.663 170.176 686.631 170.253 686.565 170.323C686.505 170.388 686.418 170.421 686.306 170.421H682.75C682.746 170.514 682.741 170.608 682.736 170.701C682.736 170.794 682.736 170.89 682.736 170.988C682.736 171.063 682.736 171.135 682.736 171.205C682.736 171.275 682.739 171.345 682.743 171.415H686.012V171.807C686.012 171.886 685.98 171.961 685.914 172.031C685.849 172.096 685.76 172.129 685.648 172.129H682.806C682.937 173.09 683.226 173.811 683.674 174.292C684.122 174.773 684.687 175.013 685.368 175.013C685.62 175.013 685.842 174.99 686.033 174.943C686.225 174.892 686.39 174.829 686.53 174.754C686.67 174.679 686.789 174.6 686.887 174.516C686.99 174.427 687.079 174.346 687.153 174.271C687.228 174.196 687.293 174.136 687.349 174.089C687.41 174.038 687.468 174.012 687.524 174.012C687.562 174.012 687.594 174.021 687.622 174.04C687.65 174.054 687.683 174.077 687.72 174.11L688.245 174.6C687.919 175.076 687.513 175.447 687.027 175.713C686.542 175.974 685.966 176.105 685.298 176.105C684.757 176.105 684.269 176.014 683.835 175.832C683.401 175.645 683.026 175.382 682.708 175.041C682.391 174.696 682.13 174.278 681.924 173.788C681.724 173.293 681.586 172.74 681.511 172.129H680.517V171.415H681.455C681.451 171.345 681.448 171.275 681.448 171.205C681.448 171.135 681.448 171.063 681.448 170.988C681.448 170.895 681.448 170.801 681.448 170.708C681.453 170.61 681.458 170.514 681.462 170.421H680.517V169.707Z" fill="black"/>
<rect x="731.25" y="145.25" width="129.5" height="49.5" rx="1.75" fill="white" stroke="#9B9B9B" stroke-width="0.5"/>
<path d="M765.288 173.928C765.363 173.928 765.43 173.958 765.491 174.019L766.023 174.6C765.612 175.076 765.113 175.447 764.525 175.713C763.942 175.979 763.237 176.112 762.411 176.112C761.688 176.112 761.032 175.988 760.444 175.741C759.856 175.489 759.354 175.139 758.939 174.691C758.524 174.238 758.202 173.697 757.973 173.067C757.744 172.437 757.63 171.744 757.63 170.988C757.63 170.232 757.751 169.539 757.994 168.909C758.241 168.279 758.587 167.738 759.03 167.285C759.473 166.832 760.003 166.482 760.619 166.235C761.24 165.983 761.923 165.857 762.67 165.857C763.407 165.857 764.042 165.971 764.574 166.2C765.111 166.429 765.587 166.739 766.002 167.131L765.561 167.754C765.528 167.801 765.491 167.84 765.449 167.873C765.407 167.901 765.346 167.915 765.267 167.915C765.206 167.915 765.141 167.894 765.071 167.852C765.006 167.805 764.926 167.749 764.833 167.684C764.74 167.619 764.63 167.549 764.504 167.474C764.378 167.399 764.229 167.329 764.056 167.264C763.883 167.199 763.683 167.145 763.454 167.103C763.225 167.056 762.962 167.033 762.663 167.033C762.126 167.033 761.634 167.126 761.186 167.313C760.743 167.495 760.36 167.756 760.038 168.097C759.716 168.438 759.464 168.853 759.282 169.343C759.105 169.833 759.016 170.381 759.016 170.988C759.016 171.613 759.105 172.171 759.282 172.661C759.464 173.151 759.709 173.566 760.017 173.907C760.33 174.243 760.698 174.5 761.123 174.677C761.548 174.854 762.005 174.943 762.495 174.943C762.794 174.943 763.062 174.927 763.3 174.894C763.538 174.857 763.757 174.801 763.958 174.726C764.163 174.651 764.352 174.558 764.525 174.446C764.702 174.329 764.88 174.192 765.057 174.033C765.136 173.963 765.213 173.928 765.288 173.928ZM768.684 168.909V173.431C768.684 173.968 768.808 174.383 769.055 174.677C769.302 174.971 769.676 175.118 770.175 175.118C770.539 175.118 770.882 175.032 771.204 174.859C771.526 174.686 771.822 174.446 772.093 174.138V168.909H773.339V176H772.597C772.42 176 772.308 175.914 772.261 175.741L772.163 174.978C771.855 175.319 771.51 175.594 771.127 175.804C770.744 176.009 770.306 176.112 769.811 176.112C769.424 176.112 769.081 176.049 768.782 175.923C768.488 175.792 768.241 175.61 768.04 175.377C767.839 175.144 767.688 174.861 767.585 174.53C767.487 174.199 767.438 173.832 767.438 173.431V168.909H768.684ZM779.445 170.078C779.389 170.181 779.303 170.232 779.186 170.232C779.116 170.232 779.037 170.206 778.948 170.155C778.86 170.104 778.75 170.048 778.619 169.987C778.493 169.922 778.342 169.863 778.164 169.812C777.987 169.756 777.777 169.728 777.534 169.728C777.324 169.728 777.135 169.756 776.967 169.812C776.799 169.863 776.655 169.936 776.533 170.029C776.417 170.122 776.326 170.232 776.26 170.358C776.2 170.479 776.169 170.612 776.169 170.757C776.169 170.939 776.221 171.091 776.323 171.212C776.431 171.333 776.571 171.438 776.743 171.527C776.916 171.616 777.112 171.695 777.331 171.765C777.551 171.83 777.775 171.903 778.003 171.982C778.237 172.057 778.463 172.141 778.682 172.234C778.902 172.327 779.098 172.444 779.27 172.584C779.443 172.724 779.581 172.897 779.683 173.102C779.791 173.303 779.844 173.545 779.844 173.83C779.844 174.157 779.786 174.46 779.669 174.74C779.553 175.015 779.38 175.256 779.151 175.461C778.923 175.662 778.643 175.82 778.311 175.937C777.98 176.054 777.597 176.112 777.163 176.112C776.669 176.112 776.221 176.033 775.819 175.874C775.418 175.711 775.077 175.503 774.797 175.251L775.091 174.775C775.129 174.714 775.173 174.668 775.224 174.635C775.276 174.602 775.343 174.586 775.427 174.586C775.511 174.586 775.6 174.619 775.693 174.684C775.787 174.749 775.899 174.822 776.029 174.901C776.165 174.98 776.326 175.053 776.512 175.118C776.704 175.183 776.942 175.216 777.226 175.216C777.469 175.216 777.681 175.186 777.863 175.125C778.045 175.06 778.197 174.973 778.318 174.866C778.44 174.759 778.528 174.635 778.584 174.495C778.645 174.355 778.675 174.206 778.675 174.047C778.675 173.851 778.622 173.69 778.514 173.564C778.412 173.433 778.274 173.324 778.101 173.235C777.929 173.142 777.73 173.062 777.506 172.997C777.287 172.927 777.061 172.855 776.827 172.78C776.599 172.705 776.372 172.621 776.148 172.528C775.929 172.43 775.733 172.309 775.56 172.164C775.388 172.019 775.248 171.842 775.14 171.632C775.038 171.417 774.986 171.158 774.986 170.855C774.986 170.584 775.042 170.325 775.154 170.078C775.266 169.826 775.43 169.607 775.644 169.42C775.859 169.229 776.123 169.077 776.435 168.965C776.748 168.853 777.105 168.797 777.506 168.797C777.973 168.797 778.391 168.872 778.759 169.021C779.133 169.166 779.455 169.366 779.725 169.623L779.445 170.078ZM783.605 176.112C783.045 176.112 782.613 175.956 782.31 175.643C782.011 175.33 781.862 174.88 781.862 174.292V169.952H781.008C780.933 169.952 780.87 169.931 780.819 169.889C780.767 169.842 780.742 169.772 780.742 169.679V169.182L781.904 169.035L782.191 166.844C782.2 166.774 782.23 166.718 782.282 166.676C782.333 166.629 782.398 166.606 782.478 166.606H783.108V169.049H785.138V169.952H783.108V174.208C783.108 174.507 783.18 174.728 783.325 174.873C783.469 175.018 783.656 175.09 783.885 175.09C784.015 175.09 784.127 175.074 784.221 175.041C784.319 175.004 784.403 174.964 784.473 174.922C784.543 174.88 784.601 174.843 784.648 174.81C784.699 174.773 784.743 174.754 784.781 174.754C784.846 174.754 784.904 174.794 784.956 174.873L785.32 175.468C785.105 175.669 784.846 175.827 784.543 175.944C784.239 176.056 783.927 176.112 783.605 176.112ZM789.548 168.797C790.066 168.797 790.533 168.883 790.948 169.056C791.368 169.229 791.723 169.474 792.012 169.791C792.306 170.108 792.53 170.493 792.684 170.946C792.843 171.394 792.922 171.896 792.922 172.451C792.922 173.011 792.843 173.515 792.684 173.963C792.53 174.411 792.306 174.794 792.012 175.111C791.723 175.428 791.368 175.673 790.948 175.846C790.533 176.014 790.066 176.098 789.548 176.098C789.03 176.098 788.561 176.014 788.141 175.846C787.726 175.673 787.371 175.428 787.077 175.111C786.783 174.794 786.557 174.411 786.398 173.963C786.24 173.515 786.16 173.011 786.16 172.451C786.16 171.896 786.24 171.394 786.398 170.946C786.557 170.493 786.783 170.108 787.077 169.791C787.371 169.474 787.726 169.229 788.141 169.056C788.561 168.883 789.03 168.797 789.548 168.797ZM789.548 175.125C790.248 175.125 790.771 174.892 791.116 174.425C791.462 173.954 791.634 173.298 791.634 172.458C791.634 171.613 791.462 170.955 791.116 170.484C790.771 170.013 790.248 169.777 789.548 169.777C789.194 169.777 788.886 169.838 788.624 169.959C788.363 170.08 788.144 170.255 787.966 170.484C787.794 170.713 787.663 170.995 787.574 171.331C787.49 171.662 787.448 172.038 787.448 172.458C787.448 172.878 787.49 173.254 787.574 173.585C787.663 173.916 787.794 174.196 787.966 174.425C788.144 174.649 788.363 174.822 788.624 174.943C788.886 175.064 789.194 175.125 789.548 175.125ZM794.458 176V168.909H795.2C795.377 168.909 795.489 168.995 795.536 169.168L795.627 169.896C795.888 169.574 796.18 169.31 796.502 169.105C796.828 168.9 797.206 168.797 797.636 168.797C798.116 168.797 798.504 168.93 798.798 169.196C799.096 169.462 799.311 169.821 799.442 170.274C799.54 170.017 799.668 169.796 799.827 169.609C799.99 169.422 800.172 169.268 800.373 169.147C800.573 169.026 800.786 168.937 801.01 168.881C801.238 168.825 801.469 168.797 801.703 168.797C802.076 168.797 802.407 168.858 802.697 168.979C802.991 169.096 803.238 169.268 803.439 169.497C803.644 169.726 803.8 170.008 803.908 170.344C804.015 170.675 804.069 171.056 804.069 171.485V176H802.823V171.485C802.823 170.93 802.701 170.51 802.459 170.225C802.216 169.936 801.864 169.791 801.402 169.791C801.196 169.791 801 169.828 800.814 169.903C800.632 169.973 800.471 170.078 800.331 170.218C800.191 170.358 800.079 170.535 799.995 170.75C799.915 170.96 799.876 171.205 799.876 171.485V176H798.63V171.485C798.63 170.916 798.515 170.491 798.287 170.211C798.058 169.931 797.724 169.791 797.286 169.791C796.978 169.791 796.691 169.875 796.425 170.043C796.163 170.206 795.923 170.43 795.704 170.715V176H794.458ZM813.5 170.169C813.462 170.22 813.425 170.26 813.388 170.288C813.35 170.316 813.297 170.33 813.227 170.33C813.157 170.33 813.08 170.302 812.996 170.246C812.916 170.185 812.814 170.12 812.688 170.05C812.562 169.98 812.408 169.917 812.226 169.861C812.048 169.8 811.829 169.77 811.568 169.77C811.222 169.77 810.917 169.833 810.651 169.959C810.385 170.08 810.161 170.258 809.979 170.491C809.801 170.724 809.666 171.007 809.573 171.338C809.484 171.669 809.44 172.04 809.44 172.451C809.44 172.88 809.489 173.263 809.587 173.599C809.685 173.93 809.822 174.21 810 174.439C810.177 174.663 810.392 174.836 810.644 174.957C810.9 175.074 811.187 175.132 811.505 175.132C811.808 175.132 812.058 175.097 812.254 175.027C812.45 174.952 812.613 174.871 812.744 174.782C812.874 174.693 812.982 174.614 813.066 174.544C813.15 174.469 813.234 174.432 813.318 174.432C813.425 174.432 813.504 174.472 813.556 174.551L813.906 175.006C813.598 175.384 813.213 175.662 812.751 175.839C812.289 176.012 811.801 176.098 811.288 176.098C810.844 176.098 810.431 176.016 810.049 175.853C809.671 175.69 809.342 175.454 809.062 175.146C808.782 174.833 808.56 174.451 808.397 173.998C808.238 173.545 808.159 173.03 808.159 172.451C808.159 171.924 808.231 171.436 808.376 170.988C808.525 170.54 808.74 170.155 809.02 169.833C809.304 169.506 809.654 169.252 810.07 169.07C810.485 168.888 810.961 168.797 811.498 168.797C811.992 168.797 812.431 168.879 812.814 169.042C813.196 169.201 813.535 169.427 813.829 169.721L813.5 170.169ZM820.406 176H819.853C819.731 176 819.633 175.981 819.559 175.944C819.484 175.907 819.435 175.827 819.412 175.706L819.272 175.048C819.085 175.216 818.903 175.368 818.726 175.503C818.548 175.634 818.362 175.746 818.166 175.839C817.97 175.928 817.76 175.995 817.536 176.042C817.316 176.089 817.071 176.112 816.801 176.112C816.525 176.112 816.266 176.075 816.024 176C815.786 175.921 815.578 175.804 815.401 175.65C815.223 175.496 815.081 175.302 814.974 175.069C814.871 174.831 814.82 174.551 814.82 174.229C814.82 173.949 814.897 173.681 815.051 173.424C815.205 173.163 815.452 172.932 815.793 172.731C816.138 172.53 816.588 172.367 817.144 172.241C817.699 172.11 818.378 172.036 819.181 172.017V171.464C819.181 170.913 819.062 170.498 818.824 170.218C818.59 169.933 818.243 169.791 817.781 169.791C817.477 169.791 817.221 169.831 817.011 169.91C816.805 169.985 816.626 170.071 816.472 170.169C816.322 170.262 816.192 170.349 816.08 170.428C815.972 170.503 815.865 170.54 815.758 170.54C815.674 170.54 815.599 170.519 815.534 170.477C815.473 170.43 815.424 170.374 815.387 170.309L815.163 169.91C815.555 169.532 815.977 169.25 816.43 169.063C816.882 168.876 817.384 168.783 817.935 168.783C818.331 168.783 818.684 168.848 818.992 168.979C819.3 169.11 819.559 169.292 819.769 169.525C819.979 169.758 820.137 170.041 820.245 170.372C820.352 170.703 820.406 171.067 820.406 171.464V176ZM817.172 175.237C817.391 175.237 817.592 175.216 817.774 175.174C817.956 175.127 818.126 175.064 818.285 174.985C818.448 174.901 818.602 174.801 818.747 174.684C818.896 174.567 819.041 174.434 819.181 174.285V172.808C818.607 172.827 818.119 172.873 817.718 172.948C817.316 173.018 816.99 173.111 816.738 173.228C816.486 173.345 816.301 173.482 816.185 173.641C816.073 173.8 816.017 173.977 816.017 174.173C816.017 174.36 816.047 174.521 816.108 174.656C816.168 174.791 816.25 174.903 816.353 174.992C816.455 175.076 816.577 175.139 816.717 175.181C816.857 175.218 817.008 175.237 817.172 175.237ZM826.353 170.078C826.297 170.181 826.211 170.232 826.094 170.232C826.024 170.232 825.945 170.206 825.856 170.155C825.768 170.104 825.658 170.048 825.527 169.987C825.401 169.922 825.25 169.863 825.072 169.812C824.895 169.756 824.685 169.728 824.442 169.728C824.232 169.728 824.043 169.756 823.875 169.812C823.707 169.863 823.563 169.936 823.441 170.029C823.325 170.122 823.234 170.232 823.168 170.358C823.108 170.479 823.077 170.612 823.077 170.757C823.077 170.939 823.129 171.091 823.231 171.212C823.339 171.333 823.479 171.438 823.651 171.527C823.824 171.616 824.02 171.695 824.239 171.765C824.459 171.83 824.683 171.903 824.911 171.982C825.145 172.057 825.371 172.141 825.59 172.234C825.81 172.327 826.006 172.444 826.178 172.584C826.351 172.724 826.489 172.897 826.591 173.102C826.699 173.303 826.752 173.545 826.752 173.83C826.752 174.157 826.694 174.46 826.577 174.74C826.461 175.015 826.288 175.256 826.059 175.461C825.831 175.662 825.551 175.82 825.219 175.937C824.888 176.054 824.505 176.112 824.071 176.112C823.577 176.112 823.129 176.033 822.727 175.874C822.326 175.711 821.985 175.503 821.705 175.251L821.999 174.775C822.037 174.714 822.081 174.668 822.132 174.635C822.184 174.602 822.251 174.586 822.335 174.586C822.419 174.586 822.508 174.619 822.601 174.684C822.695 174.749 822.807 174.822 822.937 174.901C823.073 174.98 823.234 175.053 823.42 175.118C823.612 175.183 823.85 175.216 824.134 175.216C824.377 175.216 824.589 175.186 824.771 175.125C824.953 175.06 825.105 174.973 825.226 174.866C825.348 174.759 825.436 174.635 825.492 174.495C825.553 174.355 825.583 174.206 825.583 174.047C825.583 173.851 825.53 173.69 825.422 173.564C825.32 173.433 825.182 173.324 825.009 173.235C824.837 173.142 824.638 173.062 824.414 172.997C824.195 172.927 823.969 172.855 823.735 172.78C823.507 172.705 823.28 172.621 823.056 172.528C822.837 172.43 822.641 172.309 822.468 172.164C822.296 172.019 822.156 171.842 822.048 171.632C821.946 171.417 821.894 171.158 821.894 170.855C821.894 170.584 821.95 170.325 822.062 170.078C822.174 169.826 822.338 169.607 822.552 169.42C822.767 169.229 823.031 169.077 823.343 168.965C823.656 168.853 824.013 168.797 824.414 168.797C824.881 168.797 825.299 168.872 825.667 169.021C826.041 169.166 826.363 169.366 826.633 169.623L826.353 170.078ZM828.364 176V165.689H829.61V169.861C829.913 169.539 830.249 169.282 830.618 169.091C830.986 168.895 831.411 168.797 831.892 168.797C832.279 168.797 832.62 168.862 832.914 168.993C833.212 169.119 833.46 169.301 833.656 169.539C833.856 169.772 834.008 170.055 834.111 170.386C834.213 170.717 834.265 171.084 834.265 171.485V176H833.019V171.485C833.019 170.948 832.895 170.533 832.648 170.239C832.405 169.94 832.032 169.791 831.528 169.791C831.159 169.791 830.814 169.88 830.492 170.057C830.174 170.234 829.88 170.475 829.61 170.778V176H828.364Z" fill="black"/>
<rect x="60.25" y="88.25" width="196.5" height="49.5" rx="1.75" fill="white" stroke="#9B9B9B" stroke-width="0.5"/>
<path d="M143.909 117.817C144.044 117.817 144.152 117.857 144.231 117.936C144.31 118.015 144.35 118.118 144.35 118.244V119H137.658V118.573C137.658 118.484 137.677 118.393 137.714 118.3C137.751 118.207 137.81 118.12 137.889 118.041L141.102 114.814C141.368 114.543 141.611 114.284 141.83 114.037C142.049 113.785 142.236 113.533 142.39 113.281C142.544 113.029 142.663 112.775 142.747 112.518C142.831 112.257 142.873 111.979 142.873 111.685C142.873 111.391 142.826 111.134 142.733 110.915C142.64 110.691 142.511 110.507 142.348 110.362C142.189 110.217 142 110.11 141.781 110.04C141.562 109.965 141.326 109.928 141.074 109.928C140.817 109.928 140.582 109.965 140.367 110.04C140.152 110.115 139.961 110.22 139.793 110.355C139.63 110.486 139.492 110.642 139.38 110.824C139.268 111.006 139.189 111.207 139.142 111.426C139.086 111.589 139.009 111.699 138.911 111.755C138.818 111.806 138.685 111.82 138.512 111.797L137.861 111.685C137.926 111.228 138.052 110.824 138.239 110.474C138.43 110.119 138.668 109.823 138.953 109.585C139.242 109.347 139.571 109.167 139.94 109.046C140.309 108.92 140.708 108.857 141.137 108.857C141.562 108.857 141.958 108.92 142.327 109.046C142.696 109.172 143.015 109.356 143.286 109.599C143.557 109.837 143.769 110.129 143.923 110.474C144.077 110.819 144.154 111.211 144.154 111.65C144.154 112.023 144.098 112.371 143.986 112.693C143.874 113.01 143.722 113.314 143.531 113.603C143.34 113.892 143.118 114.175 142.866 114.45C142.619 114.725 142.355 115.003 142.075 115.283L139.429 117.985C139.616 117.934 139.805 117.894 139.996 117.866C140.187 117.833 140.372 117.817 140.549 117.817H143.909ZM146.031 120.694C145.994 120.661 145.968 120.631 145.954 120.603C145.94 120.575 145.933 120.54 145.933 120.498C145.933 120.465 145.942 120.433 145.961 120.4C145.984 120.367 146.01 120.337 146.038 120.309C146.085 120.258 146.143 120.19 146.213 120.106C146.288 120.022 146.362 119.922 146.437 119.805C146.512 119.693 146.579 119.567 146.64 119.427C146.705 119.292 146.752 119.147 146.78 118.993C146.766 118.998 146.75 119 146.731 119C146.717 119 146.703 119 146.689 119C146.446 119 146.248 118.921 146.094 118.762C145.945 118.599 145.87 118.391 145.87 118.139C145.87 117.92 145.945 117.733 146.094 117.579C146.248 117.425 146.451 117.348 146.703 117.348C146.843 117.348 146.967 117.374 147.074 117.425C147.181 117.476 147.27 117.549 147.34 117.642C147.415 117.731 147.471 117.836 147.508 117.957C147.545 118.074 147.564 118.202 147.564 118.342C147.564 118.552 147.534 118.771 147.473 119C147.417 119.224 147.331 119.446 147.214 119.665C147.102 119.889 146.964 120.106 146.801 120.316C146.638 120.526 146.451 120.72 146.241 120.897L146.031 120.694ZM155.86 108.969V109.529C155.86 109.688 155.841 109.818 155.804 109.921C155.771 110.024 155.739 110.11 155.706 110.18L151.548 118.559C151.487 118.68 151.403 118.785 151.296 118.874C151.189 118.958 151.046 119 150.869 119H149.973L154.187 110.726C154.248 110.609 154.311 110.502 154.376 110.404C154.441 110.306 154.511 110.213 154.586 110.124H149.35C149.271 110.124 149.201 110.094 149.14 110.033C149.079 109.968 149.049 109.895 149.049 109.816V108.969H155.86ZM158.395 111.916C158.395 112.233 158.439 112.518 158.528 112.77C158.621 113.017 158.752 113.227 158.92 113.4C159.093 113.573 159.3 113.703 159.543 113.792C159.79 113.881 160.066 113.925 160.369 113.925C160.705 113.925 161.001 113.871 161.258 113.764C161.519 113.652 161.739 113.505 161.916 113.323C162.093 113.141 162.229 112.931 162.322 112.693C162.415 112.455 162.462 112.208 162.462 111.951C162.462 111.638 162.411 111.356 162.308 111.104C162.21 110.847 162.072 110.63 161.895 110.453C161.718 110.276 161.505 110.14 161.258 110.047C161.015 109.949 160.747 109.9 160.453 109.9C160.145 109.9 159.865 109.951 159.613 110.054C159.361 110.152 159.144 110.29 158.962 110.467C158.78 110.644 158.64 110.857 158.542 111.104C158.444 111.351 158.395 111.622 158.395 111.916ZM161.307 115.003C161.41 114.868 161.505 114.739 161.594 114.618C161.683 114.497 161.767 114.375 161.846 114.254C161.589 114.459 161.3 114.616 160.978 114.723C160.656 114.83 160.315 114.884 159.956 114.884C159.578 114.884 159.219 114.821 158.878 114.695C158.542 114.569 158.246 114.385 157.989 114.142C157.732 113.895 157.527 113.594 157.373 113.239C157.224 112.88 157.149 112.469 157.149 112.007C157.149 111.568 157.231 111.158 157.394 110.775C157.557 110.392 157.786 110.059 158.08 109.774C158.374 109.489 158.724 109.265 159.13 109.102C159.536 108.939 159.982 108.857 160.467 108.857C160.948 108.857 161.384 108.936 161.776 109.095C162.168 109.254 162.504 109.475 162.784 109.76C163.064 110.045 163.279 110.385 163.428 110.782C163.582 111.179 163.659 111.617 163.659 112.098C163.659 112.387 163.631 112.663 163.575 112.924C163.524 113.181 163.447 113.435 163.344 113.687C163.246 113.934 163.125 114.182 162.98 114.429C162.835 114.672 162.672 114.921 162.49 115.178L160.047 118.706C159.986 118.795 159.9 118.867 159.788 118.923C159.676 118.974 159.548 119 159.403 119H158.255L161.307 115.003ZM168.278 112.707H169.307C169.401 112.119 169.557 111.589 169.776 111.118C170 110.642 170.276 110.238 170.602 109.907C170.934 109.571 171.312 109.314 171.736 109.137C172.166 108.96 172.632 108.871 173.136 108.871C173.449 108.871 173.738 108.901 174.004 108.962C174.27 109.023 174.515 109.109 174.739 109.221C174.968 109.333 175.178 109.471 175.369 109.634C175.561 109.797 175.738 109.982 175.901 110.187L175.467 110.663C175.435 110.705 175.397 110.742 175.355 110.775C175.318 110.803 175.267 110.817 175.201 110.817C175.122 110.817 175.038 110.773 174.949 110.684C174.865 110.595 174.751 110.497 174.606 110.39C174.462 110.283 174.277 110.185 174.053 110.096C173.829 110.007 173.542 109.963 173.192 109.963C172.511 109.963 171.944 110.196 171.491 110.663C171.043 111.13 170.745 111.811 170.595 112.707H174.424V113.092C174.424 113.176 174.392 113.253 174.326 113.323C174.266 113.388 174.177 113.421 174.06 113.421H170.511C170.507 113.514 170.502 113.608 170.497 113.701C170.497 113.794 170.497 113.89 170.497 113.988C170.497 114.063 170.497 114.135 170.497 114.205C170.497 114.275 170.5 114.345 170.504 114.415H173.773V114.807C173.773 114.886 173.738 114.961 173.668 115.031C173.603 115.096 173.517 115.129 173.409 115.129H170.567C170.698 116.09 170.985 116.811 171.428 117.292C171.876 117.773 172.441 118.013 173.122 118.013C173.374 118.013 173.596 117.99 173.787 117.943C173.979 117.892 174.144 117.829 174.284 117.754C174.424 117.679 174.543 117.6 174.641 117.516C174.744 117.427 174.833 117.346 174.907 117.271C174.982 117.196 175.047 117.136 175.103 117.089C175.164 117.038 175.222 117.012 175.278 117.012C175.32 117.012 175.355 117.019 175.383 117.033C175.411 117.047 175.444 117.073 175.481 117.11L176.006 117.6C175.675 118.071 175.267 118.44 174.781 118.706C174.296 118.972 173.722 119.105 173.059 119.105C172.518 119.105 172.03 119.014 171.596 118.832C171.162 118.645 170.784 118.382 170.462 118.041C170.145 117.696 169.886 117.278 169.685 116.788C169.485 116.293 169.347 115.74 169.272 115.129H168.278V114.415H169.216C169.212 114.345 169.209 114.275 169.209 114.205C169.209 114.135 169.209 114.063 169.209 113.988C169.209 113.895 169.209 113.801 169.209 113.708C169.214 113.61 169.219 113.514 169.223 113.421H168.278V112.707Z" fill="black"/>
</svg>
