<svg width="1000" height="278" viewBox="0 0 1000 278" fill="none" xmlns="http://www.w3.org/2000/svg">
<rect width="1000" height="278" fill="white"/>
<path d="M59.048 48.402H59.978C60.082 48.402 60.166 48.428 60.23 48.48C60.294 48.532 60.342 48.598 60.374 48.678L62.804 54.744C62.86 54.88 62.91 55.028 62.954 55.188C63.002 55.348 63.048 55.514 63.092 55.686C63.128 55.514 63.166 55.348 63.206 55.188C63.25 55.028 63.3 54.88 63.356 54.744L65.774 48.678C65.802 48.61 65.85 48.548 65.918 48.492C65.986 48.432 66.07 48.402 66.17 48.402H67.106L63.602 57H62.552L59.048 48.402ZM71.8048 57H71.3308C71.2268 57 71.1428 56.984 71.0788 56.952C71.0148 56.92 70.9728 56.852 70.9528 56.748L70.8328 56.184C70.6728 56.328 70.5168 56.458 70.3648 56.574C70.2128 56.686 70.0528 56.782 69.8848 56.862C69.7168 56.938 69.5368 56.996 69.3448 57.036C69.1568 57.076 68.9468 57.096 68.7148 57.096C68.4788 57.096 68.2568 57.064 68.0488 57C67.8448 56.932 67.6668 56.832 67.5148 56.7C67.3628 56.568 67.2408 56.402 67.1488 56.202C67.0608 55.998 67.0168 55.758 67.0168 55.482C67.0168 55.242 67.0828 55.012 67.2148 54.792C67.3468 54.568 67.5588 54.37 67.8508 54.198C68.1468 54.026 68.5328 53.886 69.0088 53.778C69.4848 53.666 70.0668 53.602 70.7548 53.586V53.112C70.7548 52.64 70.6528 52.284 70.4488 52.044C70.2488 51.8 69.9508 51.678 69.5548 51.678C69.2948 51.678 69.0748 51.712 68.8948 51.78C68.7188 51.844 68.5648 51.918 68.4328 52.002C68.3048 52.082 68.1928 52.156 68.0968 52.224C68.0048 52.288 67.9128 52.32 67.8208 52.32C67.7488 52.32 67.6848 52.302 67.6288 52.266C67.5768 52.226 67.5348 52.178 67.5028 52.122L67.3108 51.78C67.6468 51.456 68.0088 51.214 68.3968 51.054C68.7848 50.894 69.2148 50.814 69.6868 50.814C70.0268 50.814 70.3288 50.87 70.5928 50.982C70.8568 51.094 71.0788 51.25 71.2588 51.45C71.4388 51.65 71.5748 51.892 71.6668 52.176C71.7588 52.46 71.8048 52.772 71.8048 53.112V57ZM69.0328 56.346C69.2208 56.346 69.3928 56.328 69.5488 56.292C69.7048 56.252 69.8508 56.198 69.9868 56.13C70.1268 56.058 70.2588 55.972 70.3828 55.872C70.5108 55.772 70.6348 55.658 70.7548 55.53V54.264C70.2628 54.28 69.8448 54.32 69.5008 54.384C69.1568 54.444 68.8768 54.524 68.6608 54.624C68.4448 54.724 68.2868 54.842 68.1868 54.978C68.0908 55.114 68.0428 55.266 68.0428 55.434C68.0428 55.594 68.0688 55.732 68.1208 55.848C68.1728 55.964 68.2428 56.06 68.3308 56.136C68.4188 56.208 68.5228 56.262 68.6428 56.298C68.7628 56.33 68.8928 56.346 69.0328 56.346ZM73.4229 57V50.922H74.0349C74.1509 50.922 74.2309 50.944 74.2749 50.988C74.3189 51.032 74.3489 51.108 74.3649 51.216L74.4369 52.164C74.6449 51.74 74.9009 51.41 75.2049 51.174C75.5129 50.934 75.8729 50.814 76.2849 50.814C76.4529 50.814 76.6049 50.834 76.7409 50.874C76.8769 50.91 77.0029 50.962 77.1189 51.03L76.9809 51.828C76.9529 51.928 76.8909 51.978 76.7949 51.978C76.7389 51.978 76.6529 51.96 76.5369 51.924C76.4209 51.884 76.2589 51.864 76.0509 51.864C75.6789 51.864 75.3669 51.972 75.1149 52.188C74.8669 52.404 74.6589 52.718 74.4909 53.13V57H73.4229ZM79.4507 50.922V57H78.3827V50.922H79.4507ZM79.6907 49.014C79.6907 49.118 79.6687 49.216 79.6247 49.308C79.5847 49.396 79.5287 49.476 79.4567 49.548C79.3887 49.616 79.3087 49.67 79.2167 49.71C79.1247 49.75 79.0267 49.77 78.9227 49.77C78.8187 49.77 78.7207 49.75 78.6287 49.71C78.5407 49.67 78.4607 49.616 78.3887 49.548C78.3207 49.476 78.2667 49.396 78.2267 49.308C78.1867 49.216 78.1667 49.118 78.1667 49.014C78.1667 48.91 78.1867 48.812 78.2267 48.72C78.2667 48.624 78.3207 48.542 78.3887 48.474C78.4607 48.402 78.5407 48.346 78.6287 48.306C78.7207 48.266 78.8187 48.246 78.9227 48.246C79.0267 48.246 79.1247 48.266 79.2167 48.306C79.3087 48.346 79.3887 48.402 79.4567 48.474C79.5287 48.542 79.5847 48.624 79.6247 48.72C79.6687 48.812 79.6907 48.91 79.6907 49.014ZM85.797 57H85.323C85.219 57 85.135 56.984 85.071 56.952C85.007 56.92 84.965 56.852 84.945 56.748L84.825 56.184C84.665 56.328 84.509 56.458 84.357 56.574C84.205 56.686 84.045 56.782 83.877 56.862C83.709 56.938 83.529 56.996 83.337 57.036C83.149 57.076 82.939 57.096 82.707 57.096C82.471 57.096 82.249 57.064 82.041 57C81.837 56.932 81.659 56.832 81.507 56.7C81.355 56.568 81.233 56.402 81.141 56.202C81.053 55.998 81.009 55.758 81.009 55.482C81.009 55.242 81.075 55.012 81.207 54.792C81.339 54.568 81.551 54.37 81.843 54.198C82.139 54.026 82.525 53.886 83.001 53.778C83.477 53.666 84.059 53.602 84.747 53.586V53.112C84.747 52.64 84.645 52.284 84.441 52.044C84.241 51.8 83.943 51.678 83.547 51.678C83.287 51.678 83.067 51.712 82.887 51.78C82.711 51.844 82.557 51.918 82.425 52.002C82.297 52.082 82.185 52.156 82.089 52.224C81.997 52.288 81.905 52.32 81.813 52.32C81.741 52.32 81.677 52.302 81.621 52.266C81.569 52.226 81.527 52.178 81.495 52.122L81.303 51.78C81.639 51.456 82.001 51.214 82.389 51.054C82.777 50.894 83.207 50.814 83.679 50.814C84.019 50.814 84.321 50.87 84.585 50.982C84.849 51.094 85.071 51.25 85.251 51.45C85.431 51.65 85.567 51.892 85.659 52.176C85.751 52.46 85.797 52.772 85.797 53.112V57ZM83.025 56.346C83.213 56.346 83.385 56.328 83.541 56.292C83.697 56.252 83.843 56.198 83.979 56.13C84.119 56.058 84.251 55.972 84.375 55.872C84.503 55.772 84.627 55.658 84.747 55.53V54.264C84.255 54.28 83.837 54.32 83.493 54.384C83.149 54.444 82.869 54.524 82.653 54.624C82.437 54.724 82.279 54.842 82.179 54.978C82.083 55.114 82.035 55.266 82.035 55.434C82.035 55.594 82.061 55.732 82.113 55.848C82.165 55.964 82.235 56.06 82.323 56.136C82.411 56.208 82.515 56.262 82.635 56.298C82.755 56.33 82.885 56.346 83.025 56.346ZM87.4151 57V50.922H88.0511C88.2031 50.922 88.2991 50.996 88.3391 51.144L88.4231 51.804C88.6871 51.512 88.9811 51.276 89.3051 51.096C89.6331 50.916 90.0111 50.826 90.4391 50.826C90.7711 50.826 91.0631 50.882 91.3151 50.994C91.5711 51.102 91.7831 51.258 91.9511 51.462C92.1231 51.662 92.2531 51.904 92.3411 52.188C92.4291 52.472 92.4731 52.786 92.4731 53.13V57H91.4051V53.13C91.4051 52.67 91.2991 52.314 91.0871 52.062C90.8791 51.806 90.5591 51.678 90.1271 51.678C89.8111 51.678 89.5151 51.754 89.2391 51.906C88.9671 52.058 88.7151 52.264 88.4831 52.524V57H87.4151ZM95.925 57.096C95.445 57.096 95.075 56.962 94.815 56.694C94.559 56.426 94.431 56.04 94.431 55.536V51.816H93.699C93.635 51.816 93.581 51.798 93.537 51.762C93.493 51.722 93.471 51.662 93.471 51.582V51.156L94.467 51.03L94.713 49.152C94.721 49.092 94.747 49.044 94.791 49.008C94.835 48.968 94.891 48.948 94.959 48.948H95.499V51.042H97.239V51.816H95.499V55.464C95.499 55.72 95.561 55.91 95.685 56.034C95.809 56.158 95.969 56.22 96.165 56.22C96.277 56.22 96.373 56.206 96.453 56.178C96.537 56.146 96.609 56.112 96.669 56.076C96.729 56.04 96.779 56.008 96.819 55.98C96.863 55.948 96.901 55.932 96.933 55.932C96.989 55.932 97.039 55.966 97.083 56.034L97.395 56.544C97.211 56.716 96.989 56.852 96.729 56.952C96.469 57.048 96.201 57.096 95.925 57.096ZM102.04 51.924C101.992 52.012 101.918 52.056 101.818 52.056C101.758 52.056 101.69 52.034 101.614 51.99C101.538 51.946 101.444 51.898 101.332 51.846C101.224 51.79 101.094 51.74 100.942 51.696C100.79 51.648 100.61 51.624 100.402 51.624C100.222 51.624 100.06 51.648 99.9156 51.696C99.7716 51.74 99.6476 51.802 99.5436 51.882C99.4436 51.962 99.3656 52.056 99.3096 52.164C99.2576 52.268 99.2316 52.382 99.2316 52.506C99.2316 52.662 99.2756 52.792 99.3636 52.896C99.4556 53 99.5756 53.09 99.7236 53.166C99.8716 53.242 100.04 53.31 100.228 53.37C100.416 53.426 100.608 53.488 100.804 53.556C101.004 53.62 101.198 53.692 101.386 53.772C101.574 53.852 101.742 53.952 101.89 54.072C102.038 54.192 102.156 54.34 102.244 54.516C102.336 54.688 102.382 54.896 102.382 55.14C102.382 55.42 102.332 55.68 102.232 55.92C102.132 56.156 101.984 56.362 101.788 56.538C101.592 56.71 101.352 56.846 101.068 56.946C100.784 57.046 100.456 57.096 100.084 57.096C99.6596 57.096 99.2756 57.028 98.9316 56.892C98.5876 56.752 98.2956 56.574 98.0556 56.358L98.3076 55.95C98.3396 55.898 98.3776 55.858 98.4216 55.83C98.4656 55.802 98.5236 55.788 98.5956 55.788C98.6676 55.788 98.7436 55.816 98.8236 55.872C98.9036 55.928 98.9996 55.99 99.1116 56.058C99.2276 56.126 99.3656 56.188 99.5256 56.244C99.6896 56.3 99.8936 56.328 100.138 56.328C100.346 56.328 100.528 56.302 100.684 56.25C100.84 56.194 100.97 56.12 101.074 56.028C101.178 55.936 101.254 55.83 101.302 55.71C101.354 55.59 101.38 55.462 101.38 55.326C101.38 55.158 101.334 55.02 101.242 54.912C101.154 54.8 101.036 54.706 100.888 54.63C100.74 54.55 100.57 54.482 100.378 54.426C100.19 54.366 99.9956 54.304 99.7956 54.24C99.5996 54.176 99.4056 54.104 99.2136 54.024C99.0256 53.94 98.8576 53.836 98.7096 53.712C98.5616 53.588 98.4416 53.436 98.3496 53.256C98.2616 53.072 98.2176 52.85 98.2176 52.59C98.2176 52.358 98.2656 52.136 98.3616 51.924C98.4576 51.708 98.5976 51.52 98.7816 51.36C98.9656 51.196 99.1916 51.066 99.4596 50.97C99.7276 50.874 100.034 50.826 100.378 50.826C100.778 50.826 101.136 50.89 101.452 51.018C101.772 51.142 102.048 51.314 102.28 51.534L102.04 51.924Z" fill="#979797"/>
<rect x="59.5" y="89.5" width="219" height="99" rx="4.5" fill="white" stroke="#A7ABB1"/>
<path d="M160.752 134.536V146H159.976C159.853 146 159.749 145.979 159.664 145.936C159.584 145.893 159.504 145.821 159.424 145.72L152.792 137.08C152.803 137.213 152.811 137.344 152.816 137.472C152.821 137.6 152.824 137.72 152.824 137.832V146H151.464V134.536H152.264C152.333 134.536 152.392 134.541 152.44 134.552C152.488 134.557 152.531 134.571 152.568 134.592C152.605 134.608 152.643 134.635 152.68 134.672C152.717 134.704 152.757 134.747 152.8 134.8L159.432 143.432C159.421 143.293 159.411 143.16 159.4 143.032C159.395 142.899 159.392 142.773 159.392 142.656V134.536H160.752ZM166.513 137.768C167.105 137.768 167.638 137.867 168.113 138.064C168.587 138.261 168.993 138.541 169.329 138.904C169.665 139.267 169.921 139.707 170.097 140.224C170.278 140.736 170.369 141.309 170.369 141.944C170.369 142.584 170.278 143.16 170.097 143.672C169.921 144.184 169.665 144.621 169.329 144.984C168.993 145.347 168.587 145.627 168.113 145.824C167.638 146.016 167.105 146.112 166.513 146.112C165.915 146.112 165.377 146.016 164.897 145.824C164.422 145.627 164.017 145.347 163.681 144.984C163.345 144.621 163.086 144.184 162.905 143.672C162.729 143.16 162.641 142.584 162.641 141.944C162.641 141.309 162.729 140.736 162.905 140.224C163.086 139.707 163.345 139.267 163.681 138.904C164.017 138.541 164.422 138.261 164.897 138.064C165.377 137.867 165.915 137.768 166.513 137.768ZM166.513 145C167.313 145 167.91 144.733 168.305 144.2C168.699 143.661 168.897 142.912 168.897 141.952C168.897 140.987 168.699 140.235 168.305 139.696C167.91 139.157 167.313 138.888 166.513 138.888C166.107 138.888 165.753 138.957 165.449 139.096C165.15 139.235 164.899 139.435 164.697 139.696C164.499 139.957 164.35 140.28 164.249 140.664C164.153 141.043 164.105 141.472 164.105 141.952C164.105 142.912 164.302 143.661 164.697 144.2C165.097 144.733 165.702 145 166.513 145ZM173.519 139.072C173.695 138.875 173.882 138.696 174.079 138.536C174.276 138.376 174.484 138.24 174.703 138.128C174.927 138.011 175.162 137.923 175.407 137.864C175.658 137.8 175.927 137.768 176.215 137.768C176.658 137.768 177.047 137.843 177.383 137.992C177.724 138.136 178.007 138.344 178.231 138.616C178.46 138.883 178.634 139.205 178.751 139.584C178.868 139.963 178.927 140.381 178.927 140.84V146H177.495V140.84C177.495 140.227 177.354 139.752 177.071 139.416C176.794 139.075 176.37 138.904 175.799 138.904C175.378 138.904 174.983 139.005 174.615 139.208C174.252 139.411 173.916 139.685 173.607 140.032V146H172.175V137.896H173.031C173.234 137.896 173.359 137.995 173.407 138.192L173.519 139.072ZM186.521 141.064C186.521 140.733 186.473 140.432 186.377 140.16C186.286 139.883 186.15 139.645 185.969 139.448C185.793 139.245 185.577 139.091 185.321 138.984C185.065 138.872 184.774 138.816 184.449 138.816C183.766 138.816 183.225 139.016 182.825 139.416C182.43 139.811 182.185 140.36 182.089 141.064H186.521ZM187.673 144.864C187.497 145.077 187.286 145.264 187.041 145.424C186.795 145.579 186.531 145.707 186.249 145.808C185.971 145.909 185.683 145.984 185.385 146.032C185.086 146.085 184.79 146.112 184.497 146.112C183.937 146.112 183.419 146.019 182.945 145.832C182.475 145.64 182.067 145.363 181.721 145C181.379 144.632 181.113 144.179 180.921 143.64C180.729 143.101 180.633 142.483 180.633 141.784C180.633 141.219 180.718 140.691 180.889 140.2C181.065 139.709 181.315 139.285 181.641 138.928C181.966 138.565 182.363 138.283 182.833 138.08C183.302 137.872 183.83 137.768 184.417 137.768C184.902 137.768 185.35 137.851 185.761 138.016C186.177 138.176 186.534 138.411 186.833 138.72C187.137 139.024 187.374 139.403 187.545 139.856C187.715 140.304 187.801 140.816 187.801 141.392C187.801 141.616 187.777 141.765 187.729 141.84C187.681 141.915 187.59 141.952 187.457 141.952H182.041C182.057 142.464 182.126 142.909 182.249 143.288C182.377 143.667 182.553 143.984 182.777 144.24C183.001 144.491 183.267 144.68 183.577 144.808C183.886 144.931 184.233 144.992 184.617 144.992C184.974 144.992 185.281 144.952 185.537 144.872C185.798 144.787 186.022 144.696 186.209 144.6C186.395 144.504 186.55 144.416 186.673 144.336C186.801 144.251 186.91 144.208 187.001 144.208C187.118 144.208 187.209 144.253 187.273 144.344L187.673 144.864Z" fill="#232E3D"/>
<rect x="289.5" y="89.5" width="219" height="99" rx="4.5" fill="white" stroke="#279FF6"/>
<path d="M388.488 144.768C388.931 144.768 389.312 144.717 389.632 144.616C389.952 144.515 390.213 144.373 390.416 144.192C390.624 144.005 390.776 143.787 390.872 143.536C390.968 143.28 391.016 143 391.016 142.696C391.016 142.104 390.805 141.637 390.384 141.296C389.963 140.949 389.331 140.776 388.488 140.776H386.008V144.768H388.488ZM386.008 135.76V139.672H388.056C388.493 139.672 388.872 139.624 389.192 139.528C389.517 139.432 389.784 139.299 389.992 139.128C390.205 138.957 390.363 138.752 390.464 138.512C390.565 138.267 390.616 138 390.616 137.712C390.616 137.035 390.413 136.541 390.008 136.232C389.603 135.917 388.973 135.76 388.12 135.76H386.008ZM388.12 134.536C388.824 134.536 389.429 134.605 389.936 134.744C390.448 134.883 390.867 135.08 391.192 135.336C391.523 135.592 391.765 135.907 391.92 136.28C392.075 136.648 392.152 137.064 392.152 137.528C392.152 137.811 392.107 138.083 392.016 138.344C391.931 138.6 391.8 138.84 391.624 139.064C391.448 139.288 391.224 139.491 390.952 139.672C390.685 139.848 390.371 139.992 390.008 140.104C390.851 140.264 391.483 140.565 391.904 141.008C392.331 141.445 392.544 142.021 392.544 142.736C392.544 143.221 392.453 143.664 392.272 144.064C392.096 144.464 391.835 144.808 391.488 145.096C391.147 145.384 390.725 145.608 390.224 145.768C389.723 145.923 389.152 146 388.512 146H384.464V134.536H388.12ZM395.788 134.216V146H394.363V134.216H395.788ZM404.761 137.896V146H403.913C403.71 146 403.582 145.901 403.529 145.704L403.417 144.832C403.065 145.221 402.67 145.536 402.233 145.776C401.795 146.011 401.294 146.128 400.729 146.128C400.286 146.128 399.894 146.056 399.553 145.912C399.217 145.763 398.934 145.555 398.705 145.288C398.475 145.021 398.302 144.699 398.185 144.32C398.073 143.941 398.017 143.523 398.017 143.064V137.896H399.441V143.064C399.441 143.677 399.579 144.152 399.857 144.488C400.139 144.824 400.569 144.992 401.145 144.992C401.566 144.992 401.958 144.893 402.321 144.696C402.689 144.493 403.027 144.216 403.337 143.864V137.896H404.761ZM412.443 141.064C412.443 140.733 412.395 140.432 412.299 140.16C412.208 139.883 412.072 139.645 411.891 139.448C411.715 139.245 411.499 139.091 411.243 138.984C410.987 138.872 410.696 138.816 410.371 138.816C409.688 138.816 409.147 139.016 408.747 139.416C408.352 139.811 408.107 140.36 408.011 141.064H412.443ZM413.595 144.864C413.419 145.077 413.208 145.264 412.963 145.424C412.717 145.579 412.453 145.707 412.171 145.808C411.893 145.909 411.605 145.984 411.307 146.032C411.008 146.085 410.712 146.112 410.419 146.112C409.859 146.112 409.341 146.019 408.867 145.832C408.397 145.64 407.989 145.363 407.643 145C407.301 144.632 407.035 144.179 406.843 143.64C406.651 143.101 406.555 142.483 406.555 141.784C406.555 141.219 406.64 140.691 406.811 140.2C406.987 139.709 407.237 139.285 407.563 138.928C407.888 138.565 408.285 138.283 408.755 138.08C409.224 137.872 409.752 137.768 410.339 137.768C410.824 137.768 411.272 137.851 411.683 138.016C412.099 138.176 412.456 138.411 412.755 138.72C413.059 139.024 413.296 139.403 413.467 139.856C413.637 140.304 413.723 140.816 413.723 141.392C413.723 141.616 413.699 141.765 413.651 141.84C413.603 141.915 413.512 141.952 413.379 141.952H407.963C407.979 142.464 408.048 142.909 408.171 143.288C408.299 143.667 408.475 143.984 408.699 144.24C408.923 144.491 409.189 144.68 409.499 144.808C409.808 144.931 410.155 144.992 410.539 144.992C410.896 144.992 411.203 144.952 411.459 144.872C411.72 144.787 411.944 144.696 412.131 144.6C412.317 144.504 412.472 144.416 412.595 144.336C412.723 144.251 412.832 144.208 412.923 144.208C413.04 144.208 413.131 144.253 413.195 144.344L413.595 144.864Z" fill="#232E3D"/>
<path d="M483.909 169.817C484.044 169.817 484.152 169.857 484.231 169.936C484.31 170.015 484.35 170.118 484.35 170.244V171H477.658V170.573C477.658 170.484 477.677 170.393 477.714 170.3C477.751 170.207 477.81 170.12 477.889 170.041L481.102 166.814C481.368 166.543 481.611 166.284 481.83 166.037C482.049 165.785 482.236 165.533 482.39 165.281C482.544 165.029 482.663 164.775 482.747 164.518C482.831 164.257 482.873 163.979 482.873 163.685C482.873 163.391 482.826 163.134 482.733 162.915C482.64 162.691 482.511 162.507 482.348 162.362C482.189 162.217 482 162.11 481.781 162.04C481.562 161.965 481.326 161.928 481.074 161.928C480.817 161.928 480.582 161.965 480.367 162.04C480.152 162.115 479.961 162.22 479.793 162.355C479.63 162.486 479.492 162.642 479.38 162.824C479.268 163.006 479.189 163.207 479.142 163.426C479.086 163.589 479.009 163.699 478.911 163.755C478.818 163.806 478.685 163.82 478.512 163.797L477.861 163.685C477.926 163.228 478.052 162.824 478.239 162.474C478.43 162.119 478.668 161.823 478.953 161.585C479.242 161.347 479.571 161.167 479.94 161.046C480.309 160.92 480.708 160.857 481.137 160.857C481.562 160.857 481.958 160.92 482.327 161.046C482.696 161.172 483.015 161.356 483.286 161.599C483.557 161.837 483.769 162.129 483.923 162.474C484.077 162.819 484.154 163.211 484.154 163.65C484.154 164.023 484.098 164.371 483.986 164.693C483.874 165.01 483.722 165.314 483.531 165.603C483.34 165.892 483.118 166.175 482.866 166.45C482.619 166.725 482.355 167.003 482.075 167.283L479.429 169.985C479.616 169.934 479.805 169.894 479.996 169.866C480.187 169.833 480.372 169.817 480.549 169.817H483.909ZM490.231 167.381V163.244C490.231 163.123 490.236 162.99 490.245 162.845C490.254 162.7 490.268 162.553 490.287 162.404L486.633 167.381H490.231ZM492.842 167.381V168.095C492.842 168.17 492.819 168.233 492.772 168.284C492.73 168.335 492.662 168.361 492.569 168.361H491.323V171H490.231V168.361H485.779C485.686 168.361 485.604 168.335 485.534 168.284C485.469 168.228 485.427 168.16 485.408 168.081L485.282 167.444L490.161 160.969H491.323V167.381H492.842Z" fill="black"/>
</svg>
