<?xml version="1.0" encoding="UTF-8"?>
<svg width="1920px" height="1080px" viewBox="0 0 1920 1080" version="1.1" xmlns="http://www.w3.org/2000/svg" xmlns:xlink="http://www.w3.org/1999/xlink">
    <!-- Generator: Sketch 55.2 (78181) - https://sketchapp.com -->
    <title>Artwork Design System1x</title>
    <desc>Created with Sketch.</desc>
    <defs>
        <linearGradient x1="50%" y1="100%" x2="50%" y2="0%" id="linearGradient-1">
            <stop stop-color="#808080" stop-opacity="0.25" offset="0%"></stop>
            <stop stop-color="#808080" stop-opacity="0.12" offset="54%"></stop>
            <stop stop-color="#808080" stop-opacity="0.1" offset="100%"></stop>
        </linearGradient>
        <linearGradient x1="50.002554%" y1="100%" x2="50.002554%" y2="-0.0063934531%" id="linearGradient-2">
            <stop stop-color="#808080" stop-opacity="0.25" offset="0%"></stop>
            <stop stop-color="#808080" stop-opacity="0.12" offset="54%"></stop>
            <stop stop-color="#808080" stop-opacity="0.1" offset="100%"></stop>
        </linearGradient>
        <linearGradient x1="49.9985323%" y1="100%" x2="49.9985323%" y2="0.00663724156%" id="linearGradient-3">
            <stop stop-color="#808080" stop-opacity="0.25" offset="0%"></stop>
            <stop stop-color="#808080" stop-opacity="0.12" offset="54%"></stop>
            <stop stop-color="#808080" stop-opacity="0.1" offset="100%"></stop>
        </linearGradient>
        <linearGradient x1="49.9869589%" y1="100%" x2="49.9869589%" y2="-0.0133994372%" id="linearGradient-4">
            <stop stop-color="#808080" stop-opacity="0.25" offset="0%"></stop>
            <stop stop-color="#808080" stop-opacity="0.12" offset="54%"></stop>
            <stop stop-color="#808080" stop-opacity="0.1" offset="100%"></stop>
        </linearGradient>
        <linearGradient x1="94.2456963%" y1="69.2523669%" x2="4.52906957%" y2="31.2656617%" id="linearGradient-5">
            <stop stop-color="#808080" stop-opacity="0.25" offset="0%"></stop>
            <stop stop-color="#808080" stop-opacity="0.12" offset="54%"></stop>
            <stop stop-color="#808080" stop-opacity="0.1" offset="100%"></stop>
        </linearGradient>
    </defs>
    <g id="Artwork-Design-System" stroke="none" stroke-width="1" fill="none" fill-rule="evenodd">
        <rect id="Rectangle" fill="#F6F6F6" x="0" y="0" width="1440" height="1024"></rect>
        <rect id="Rectangle" fill-opacity="0.9" fill="#232E3D" x="0" y="0" width="1920" height="1080"></rect>
        <g id="undraw_startman1_h7l9" transform="translate(0.000000, 22.000000)">
            <circle id="Oval" fill="url(#linearGradient-1)" fill-rule="nonzero" cx="357.5" cy="332.5" r="203.5"></circle>
            <circle id="Oval" fill="#279FF6" fill-rule="nonzero" cx="357.5" cy="332.5" r="198.5"></circle>
            <circle id="Oval" fill="#000000" fill-rule="nonzero" opacity="0.05" cx="293.5" cy="217.5" r="24.5"></circle>
            <circle id="Oval" fill="#000000" fill-rule="nonzero" opacity="0.05" cx="368.5" cy="481.5" r="24.5"></circle>
            <circle id="Oval" fill="#000000" fill-rule="nonzero" opacity="0.05" cx="393.5" cy="304.5" r="50.5"></circle>
            <path d="M436.985568,391 C411.983473,391 385.369964,389.809539 358.164764,387.416086 C297.692678,382.102871 241.324661,371.495237 199.453076,357.554312 C157.27935,343.500607 134.744733,327.623617 136.054007,312.84937 C136.714938,305.368263 143.336843,298.68915 155.724588,293 L156.354046,294.409756 C144.507636,299.848283 138.194166,306.095071 137.583591,312.987213 C136.973016,319.879356 142.210112,327.297807 153.162691,334.803977 C163.926433,342.178569 179.656603,349.333866 199.92517,356.106962 C241.689747,370.016559 297.925577,380.592865 358.284361,385.893549 C418.643145,391.194233 475.87352,390.586471 519.42576,384.176779 C540.562979,381.043987 557.312872,376.758327 569.209639,371.376191 C581.320423,365.90007 587.772373,359.584362 588.389243,352.610767 C589.094236,344.672272 581.886935,335.969375 567.554163,327.448181 L568.353576,326.113612 C583.460582,335.092194 590.718239,344.051979 589.944005,352.748609 C588.634731,367.529122 563.670404,379.233233 519.658659,385.705581 C495.695171,389.220574 467.51431,390.993734 436.985568,391 Z" id="Path" fill="url(#linearGradient-2)" fill-rule="nonzero"></path>
            <path d="M567.75732,325.233496 C582.037679,333.779612 589.709206,342.659511 588.948341,351.262307 C586.313612,381.157968 483.018386,396.449029 358.230308,385.415282 C233.442231,374.381535 134.41665,341.204719 137.05138,311.309058 C137.680193,303.921737 144.502822,297.453896 156.249062,292" id="Path" stroke="#BDBDBD" stroke-width="3" opacity="0.5"></path>
            <path d="M383.382158,421 C365.338652,413.219162 346.923179,404.536654 328.652711,395.185776 C274.515887,367.49255 226.191821,336.413334 192.582481,307.660804 C158.714656,278.69389 143.810795,255.420735 150.607056,242.122689 C154.049319,235.388544 162.718019,231.649454 176.360978,231 L176.436632,232.557429 C163.386297,233.187967 155.165217,236.630704 151.994049,242.828892 C148.82288,249.02708 150.884455,257.917665 158.222904,269.034049 C165.428958,279.954966 177.331872,292.553115 193.597507,306.462782 C227.11228,335.152258 275.329169,366.162115 329.358816,393.798593 C347.604066,403.130555 365.981712,411.800451 384,419.568679 L383.382158,421 Z" id="Path" fill="url(#linearGradient-3)" fill-rule="nonzero"></path>
            <path d="M385,420 C367.359887,412.384922 349.085509,403.782587 330.528538,394.281032 C219.14275,337.240258 139.89726,269.364819 153.524545,242.690036 C156.890547,236.099943 165.613266,232.628826 178.524648,232" id="Path" stroke="#BDBDBD" stroke-width="3"></path>
            <path d="M528.676939,465 C512.294659,465 489.189342,459.646925 458,448.902988 L458.510371,447.429318 C518.028457,467.922149 547.472456,468.75345 556.961577,450.206619 C560.609785,443.077583 557.207311,432.264371 547.125908,418.938363 L548.386083,418 C559.009362,432.031355 562.367729,443.109071 558.366672,450.918263 C553.546501,460.295592 544.044779,464.993702 528.676939,465 Z" id="Path" fill="url(#linearGradient-4)" fill-rule="nonzero"></path>
            <path d="M548.543243,417 C558.630492,430.350749 562.41321,441.518556 558.460269,449.269584 C549.38805,467.068474 522.776628,468.884429 459,446.865183" id="Path" stroke="#BDBDBD" stroke-width="3"></path>
            <g id="Group" opacity="0.5" transform="translate(170.000000, 516.000000)" fill="#47E6B1" fill-rule="nonzero">
                <rect id="Rectangle" x="5.447" y="0.442105263" width="2.093" height="11.5136842"></rect>
                <polygon id="Rectangle" transform="translate(6.490250, 6.202105) rotate(90.000000) translate(-6.490250, -6.202105) " points="5.47340789 0.277355263 7.50709211 0.277355263 7.50709211 12.1268553 5.47340789 12.1268553"></polygon>
            </g>
            <g id="Group" opacity="0.5" transform="translate(583.000000, 102.000000)" fill="#47E6B1" fill-rule="nonzero">
                <rect id="Rectangle" x="4.78105263" y="0.138947368" width="2.03368421" height="11.5136842"></rect>
                <polygon id="Rectangle" transform="translate(5.794737, 5.898947) rotate(90.000000) translate(-5.794737, -5.898947) " points="4.77789474 0.142105263 6.81157895 0.142105263 6.81157895 11.6557895 4.77789474 11.6557895"></polygon>
            </g>
            <g id="Group" opacity="0.5" transform="translate(626.000000, 415.000000)" fill="#47E6B1" fill-rule="nonzero">
                <rect id="Rectangle" x="5.22947368" y="0.5395" width="2.03368421" height="11.8495"></rect>
                <polygon id="Rectangle" transform="translate(6.243158, 6.467500) rotate(90.000000) translate(-6.243158, -6.467500) " points="5.19665789 0.710657895 7.28965789 0.710657895 7.28965789 12.2243421 5.19665789 12.2243421"></polygon>
            </g>
            <g id="Group" opacity="0.5" transform="translate(177.000000, 130.000000)" fill="#47E6B1" fill-rule="nonzero">
                <rect id="Rectangle" x="5.11578947" y="0.12" width="2.03368421" height="11.5136842"></rect>
                <polygon id="Rectangle" transform="translate(6.135789, 5.880000) rotate(90.000000) translate(-6.135789, -5.880000) " points="5.11894737 0.123157895 7.15263158 0.123157895 7.15263158 11.6368421 5.11894737 11.6368421"></polygon>
            </g>
            <path d="M242.288485,555.57577 C241.129194,555.072254 240.5317,553.779494 240.899374,552.570238 C240.929291,552.480218 240.948368,552.386953 240.956201,552.292416 L240.956201,552.292416 C240.968815,551.752899 240.637196,551.26499 240.130903,551.07816 C239.62461,550.891331 239.055547,551.046876 238.714681,551.465263 L238.714681,551.465263 C238.658783,551.541553 238.612152,551.624216 238.57577,551.711515 C238.072254,552.870806 236.779494,553.4683 235.570238,553.100626 C235.480218,553.070709 235.386953,553.051632 235.292416,553.043799 L235.292416,553.043799 C234.752899,553.031185 234.26499,553.362804 234.07816,553.869097 C233.891331,554.37539 234.046876,554.944453 234.465263,555.285319 L234.465263,555.285319 C234.541553,555.341217 234.624216,555.387848 234.711515,555.42423 C235.870806,555.927746 236.4683,557.220506 236.100626,558.429762 C236.070709,558.519782 236.051632,558.613047 236.043799,558.707584 L236.043799,558.707584 C236.031185,559.247101 236.362804,559.73501 236.869097,559.92184 C237.37539,560.108669 237.944453,559.953124 238.285319,559.534737 L238.285319,559.534737 C238.341217,559.458447 238.387848,559.375784 238.42423,559.288485 C238.927746,558.129194 240.220506,557.5317 241.429762,557.899374 C241.519782,557.929291 241.613047,557.948368 241.707584,557.956201 L241.707584,557.956201 C242.247101,557.968815 242.73501,557.637196 242.92184,557.130903 C243.108669,556.62461 242.953124,556.055547 242.534737,555.714681 L242.534737,555.714681 C242.458447,555.658783 242.375784,555.612152 242.288485,555.57577 L242.288485,555.57577 Z" id="Path" fill="#4D8AF0" fill-rule="nonzero" opacity="0.5"></path>
            <path d="M366.288485,563.57577 C365.129194,563.072254 364.5317,561.779494 364.899374,560.570238 C364.929291,560.480218 364.948368,560.386953 364.956201,560.292416 L364.956201,560.292416 C364.968815,559.752899 364.637196,559.26499 364.130903,559.07816 C363.62461,558.891331 363.055547,559.046876 362.714681,559.465263 L362.714681,559.465263 C362.658783,559.541553 362.612152,559.624216 362.57577,559.711515 C362.072254,560.870806 360.779494,561.4683 359.570238,561.100626 C359.480218,561.070709 359.386953,561.051632 359.292416,561.043799 L359.292416,561.043799 C358.752899,561.031185 358.26499,561.362804 358.07816,561.869097 C357.891331,562.37539 358.046876,562.944453 358.465263,563.285319 L358.465263,563.285319 C358.541553,563.341217 358.624216,563.387848 358.711515,563.42423 C359.870806,563.927746 360.4683,565.220506 360.100626,566.429762 C360.070709,566.519782 360.051632,566.613047 360.043799,566.707584 L360.043799,566.707584 C360.031185,567.247101 360.362804,567.73501 360.869097,567.92184 C361.37539,568.108669 361.944453,567.953124 362.285319,567.534737 L362.285319,567.534737 C362.341217,567.458447 362.387848,567.375784 362.42423,567.288485 C362.927746,566.129194 364.220506,565.5317 365.429762,565.899374 C365.519782,565.929291 365.613047,565.948368 365.707584,565.956201 L365.707584,565.956201 C366.247101,565.968815 366.73501,565.637196 366.92184,565.130903 C367.108669,564.62461 366.953124,564.055547 366.534737,563.714681 L366.534737,563.714681 C366.458447,563.658783 366.375784,563.612152 366.288485,563.57577 Z" id="Path" fill="#4D8AF0" fill-rule="nonzero" opacity="0.5"></path>
            <path d="M608.899374,235.570238 C608.929291,235.480218 608.948368,235.386953 608.956201,235.292416 C608.968815,234.752899 608.637196,234.26499 608.130903,234.07816 C607.62461,233.891331 607.055547,234.046876 606.714681,234.465263 C606.658783,234.541553 606.612152,234.624216 606.57577,234.711515 C606.072254,235.870806 604.779494,236.4683 603.570238,236.100626 C603.480218,236.070709 603.386953,236.051632 603.292416,236.043799 C602.752899,236.031185 602.26499,236.362804 602.07816,236.869097 C601.891331,237.37539 602.046876,237.944453 602.465263,238.285319 C602.541553,238.341217 602.624216,238.387848 602.711515,238.42423 C603.870806,238.927746 604.4683,240.220506 604.100626,241.429762 C604.070709,241.519782 604.051632,241.613047 604.043799,241.707584 C604.031185,242.247101 604.362804,242.73501 604.869097,242.92184 C605.37539,243.108669 605.944453,242.953124 606.285319,242.534737 C606.341217,242.458447 606.387848,242.375784 606.42423,242.288485 C606.927746,241.129194 608.220506,240.5317 609.429762,240.899374 C609.519782,240.929291 609.613047,240.948368 609.707584,240.956201 C610.247101,240.968815 610.73501,240.637196 610.92184,240.130903 C611.108669,239.62461 610.953124,239.055547 610.534737,238.714681 C610.458447,238.658783 610.375784,238.612152 610.288485,238.57577 C609.129194,238.072254 608.5317,236.779494 608.899374,235.570238 Z" id="Path" fill="#4D8AF0" fill-rule="nonzero" opacity="0.5"></path>
            <g id="Group" opacity="0.5" transform="translate(767.000000, 451.000000) rotate(-140.000000) translate(-767.000000, -451.000000) translate(756.000000, 440.000000)" fill="#47E6B1" fill-rule="nonzero">
                <rect id="Rectangle" x="9" y="0" width="4" height="21"></rect>
                <polygon id="Rectangle" transform="translate(11.000000, 10.500000) rotate(90.000000) translate(-11.000000, -10.500000) " points="9 0 13 0 13 21 9 21"></polygon>
            </g>
            <path d="M1092.7864,326.235728 C1089.17972,324.669234 1087.32085,320.647314 1088.46472,316.885185 C1088.55779,316.605124 1088.61715,316.314964 1088.64152,316.020849 L1088.64152,316.020849 C1088.68076,314.342352 1087.64905,312.824412 1086.07392,312.243165 C1084.49879,311.661919 1082.72837,312.145836 1081.6679,313.447486 L1081.6679,313.447486 C1081.49399,313.68483 1081.34892,313.942007 1081.23573,314.213602 C1079.66923,317.820284 1075.64731,319.679154 1071.88519,318.535281 C1071.60512,318.442206 1071.31496,318.382855 1071.02085,318.358485 L1071.02085,318.358485 C1069.34235,318.319241 1067.82441,319.350946 1067.24317,320.92608 C1066.66192,322.501214 1067.14584,324.271631 1068.44749,325.332104 L1068.44749,325.332104 C1068.68483,325.506009 1068.94201,325.651083 1069.2136,325.764272 C1072.82028,327.330766 1074.67915,331.352686 1073.53528,335.114815 C1073.44221,335.394876 1073.38285,335.685036 1073.35848,335.979151 L1073.35848,335.979151 C1073.31924,337.657648 1074.35095,339.175588 1075.92608,339.756835 C1077.50121,340.338081 1079.27163,339.854164 1080.3321,338.552514 L1080.3321,338.552514 C1080.50601,338.31517 1080.65108,338.057993 1080.76427,337.786398 C1082.33077,334.179716 1086.35269,332.320846 1090.11481,333.464719 C1090.39488,333.557794 1090.68504,333.617145 1090.97915,333.641515 L1090.97915,333.641515 C1092.65765,333.680759 1094.17559,332.649054 1094.75683,331.07392 C1095.33808,329.498786 1094.85416,327.728369 1093.55251,326.667896 L1093.55251,326.667896 C1093.31517,326.493991 1093.05799,326.348917 1092.7864,326.235728 L1092.7864,326.235728 Z" id="Path" fill="#279FF6" fill-rule="nonzero" opacity="0.5" transform="translate(1081.000000, 326.000000) rotate(-140.000000) translate(-1081.000000, -326.000000) "></path>
            <g id="Group" opacity="0.5" transform="translate(156.000000, 802.000000)" fill="#47E6B1" fill-rule="nonzero">
                <polygon id="Rectangle" transform="translate(13.550049, 13.333768) rotate(-140.000000) translate(-13.550049, -13.333768) " points="10.6238046 -1.51668338 16.2585984 -1.47521779 16.4762927 28.1842202 10.841499 28.1427546"></polygon>
                <polygon id="Rectangle" transform="translate(13.550049, 13.333768) rotate(-50.000000) translate(-13.550049, -13.333768) " points="10.8341875 -1.43683241 16.4836042 -1.478298 16.2659099 28.1043692 10.6164931 28.1458348"></polygon>
            </g>
            <g id="Group" opacity="0.5" transform="translate(1757.000000, 423.000000)" fill="#47E6B1" fill-rule="nonzero">
                <polygon id="Rectangle" transform="translate(13.550049, 13.333768) rotate(-140.000000) translate(-13.550049, -13.333768) " points="10.6238046 -1.51668338 16.2585984 -1.47521779 16.4762927 28.1842202 10.841499 28.1427546"></polygon>
                <polygon id="Rectangle" transform="translate(13.550049, 13.333768) rotate(-50.000000) translate(-13.550049, -13.333768) " points="10.8341875 -1.43683241 16.4836042 -1.478298 16.2659099 28.1043692 10.6164931 28.1458348"></polygon>
            </g>
            <path d="M922.603389,897.491637 C923.995188,900.280324 923.074752,903.669414 920.463473,905.370914 C920.264273,905.493541 920.080405,905.639482 919.915762,905.805646 L919.915762,905.805646 C919.036766,906.804801 918.88983,908.252098 919.550083,909.407524 C920.210335,910.56295 921.531844,911.171124 922.83891,910.921083 L922.83891,910.921083 C923.065424,910.865574 923.284537,910.783335 923.491637,910.676096 C926.280324,909.284298 929.669414,910.204733 931.370914,912.816012 C931.493541,913.015212 931.639482,913.199081 931.805646,913.363724 L931.805646,913.363724 C932.804801,914.242719 934.252098,914.389655 935.407524,913.729403 C936.56295,913.06915 937.171124,911.747642 936.921083,910.440576 L936.921083,910.440576 C936.865574,910.214061 936.783335,909.994948 936.676096,909.787849 C935.284298,906.999161 936.204733,903.610072 938.816012,901.908571 C939.015212,901.785944 939.199081,901.640004 939.363724,901.473839 L939.363724,901.473839 C940.242719,900.474685 940.389655,899.027387 939.729403,897.871962 C939.06915,896.716536 937.747642,896.108361 936.440576,896.358402 L936.440576,896.358402 C936.214061,896.413911 935.994948,896.496151 935.787849,896.603389 C932.999161,897.995188 929.610072,897.074752 927.908571,894.463473 C927.785944,894.264273 927.640004,894.080405 927.473839,893.915762 L927.473839,893.915762 C926.474685,893.036766 925.027387,892.88983 923.871962,893.550083 C922.716536,894.210335 922.108361,895.531844 922.358402,896.83891 L922.358402,896.83891 C922.413911,897.065424 922.496151,897.284537 922.603389,897.491637 L922.603389,897.491637 Z" id="Path" fill="#279FF6" fill-rule="nonzero" opacity="0.5"></path>
            <path d="M286.463646,4.3518937 C287.855445,7.14058151 286.93501,10.5296708 284.323731,12.2311716 C284.124531,12.3537984 283.940662,12.4997392 283.776019,12.6659035 L283.776019,12.6659035 C282.897024,13.6650579 282.750087,15.1123555 283.41034,16.2677812 C284.070593,17.4232069 285.392101,18.0313816 286.699167,17.7813406 L286.699167,17.7813406 C286.925682,17.7258315 287.144795,17.6435921 287.351894,17.5363536 C290.140582,16.1445551 293.529671,17.0649904 295.231172,19.6762694 C295.353798,19.8754695 295.499739,20.0593379 295.665903,20.2239812 L295.665903,20.2239812 C296.665058,21.1029764 298.112355,21.2499125 299.267781,20.58966 C300.423207,19.9294074 301.031382,18.6078991 300.781341,17.3008331 L300.781341,17.3008331 C300.725831,17.0743184 300.643592,16.8552055 300.536354,16.6481063 C299.144555,13.8594185 300.06499,10.4703292 302.676269,8.76882845 C302.875469,8.64620157 303.059338,8.50026085 303.223981,8.33409654 L303.223981,8.33409654 C304.102976,7.33494214 304.249913,5.88764452 303.58966,4.7322188 C302.929407,3.57679309 301.607899,2.96861838 300.300833,3.2186594 L300.300833,3.2186594 C300.074318,3.27416852 299.855205,3.35640786 299.648106,3.46364636 C296.859418,4.85544493 293.470329,3.93500961 291.768828,1.32373059 C291.646202,1.12453054 291.500261,0.940662146 291.334097,0.776018793 L291.334097,0.776018793 C290.334942,-0.102976386 288.887645,-0.249912518 287.732219,0.410340046 C286.576793,1.07059261 285.968618,2.3921009 286.218659,3.6991669 L286.218659,3.6991669 C286.274169,3.92568158 286.356408,4.14479453 286.463646,4.3518937 L286.463646,4.3518937 Z" id="Path" fill="#279FF6" fill-rule="nonzero" opacity="0.5"></path>
            <path d="M129.288485,416.57577 C128.129194,416.072254 127.5317,414.779494 127.899374,413.570238 C127.929291,413.480218 127.948368,413.386953 127.956201,413.292416 L127.956201,413.292416 C127.968815,412.752899 127.637196,412.26499 127.130903,412.07816 C126.62461,411.891331 126.055547,412.046876 125.714681,412.465263 L125.714681,412.465263 C125.658783,412.541553 125.612152,412.624216 125.57577,412.711515 C125.072254,413.870806 123.779494,414.4683 122.570238,414.100626 C122.480218,414.070709 122.386953,414.051632 122.292416,414.043799 L122.292416,414.043799 C121.752899,414.031185 121.26499,414.362804 121.07816,414.869097 C120.891331,415.37539 121.046876,415.944453 121.465263,416.285319 L121.465263,416.285319 C121.541553,416.341217 121.624216,416.387848 121.711515,416.42423 C122.870806,416.927746 123.4683,418.220506 123.100626,419.429762 C123.070709,419.519782 123.051632,419.613047 123.043799,419.707584 L123.043799,419.707584 C123.031185,420.247101 123.362804,420.73501 123.869097,420.92184 C124.37539,421.108669 124.944453,420.953124 125.285319,420.534737 L125.285319,420.534737 C125.341217,420.458447 125.387848,420.375784 125.42423,420.288485 C125.927746,419.129194 127.220506,418.5317 128.429762,418.899374 C128.519782,418.929291 128.613047,418.948368 128.707584,418.956201 L128.707584,418.956201 C129.247101,418.968815 129.73501,418.637196 129.92184,418.130903 C130.108669,417.62461 129.953124,417.055547 129.534737,416.714681 L129.534737,416.714681 C129.458447,416.658783 129.375784,416.612152 129.288485,416.57577 L129.288485,416.57577 Z" id="Path" fill="#4D8AF0" fill-rule="nonzero" opacity="0.5"></path>
            <circle id="Oval" fill="#F55F44" fill-rule="nonzero" opacity="0.5" cx="120" cy="250" r="4"></circle>
            <circle id="Oval" fill="#4D8AF0" fill-rule="nonzero" opacity="0.5" cx="450" cy="115" r="4"></circle>
            <circle id="Oval" fill="#47E6B1" fill-rule="nonzero" opacity="0.5" cx="228" cy="104" r="4"></circle>
            <circle id="Oval" fill="#F55F44" fill-rule="nonzero" opacity="0.5" cx="527" cy="535" r="4"></circle>
            <ellipse id="Oval" fill="#F55F44" fill-rule="nonzero" opacity="0.5" cx="786" cy="604.5" rx="7" ry="6.5"></ellipse>
            <circle id="Oval" fill="#F55F44" fill-rule="nonzero" opacity="0.5" transform="translate(1402.590533, 956.544483) rotate(-214.000000) translate(-1402.590533, -956.544483) " cx="1402.59053" cy="956.544483" r="4"></circle>
            <circle id="Oval" fill="#4D8AF0" fill-rule="nonzero" opacity="0.5" transform="translate(1244.899750, 636.765470) rotate(-214.000000) translate(-1244.899750, -636.765470) " cx="1244.89975" cy="636.76547" r="4"></circle>
            <circle id="Oval" fill="#47E6B1" fill-rule="nonzero" opacity="0.5" transform="translate(1249.412483, 858.992011) rotate(-214.000000) translate(-1249.412483, -858.992011) " cx="1249.41248" cy="858.992011" r="4"></circle>
            <circle id="Oval" fill="#F55F44" fill-rule="nonzero" opacity="0.5" transform="translate(1658.505403, 530.655319) rotate(-214.000000) translate(-1658.505403, -530.655319) " cx="1658.5054" cy="530.655319" r="4"></circle>
            <ellipse id="Oval" fill="#32B5A5" fill-rule="nonzero" opacity="0.5" transform="translate(1709.769177, 267.438155) rotate(-214.000000) translate(-1709.769177, -267.438155) " cx="1709.76918" cy="267.438155" rx="7" ry="6.5"></ellipse>
            <ellipse id="Oval" fill="#4D8AF0" fill-rule="nonzero" opacity="0.5" cx="1693.5" cy="382" rx="6.5" ry="7"></ellipse>
            <ellipse id="Oval" fill="#47E6B1" fill-rule="nonzero" opacity="0.5" cx="957.5" cy="257" rx="6.5" ry="7"></ellipse>
            <circle id="Oval" fill="#F55F44" fill-rule="nonzero" opacity="0.5" cx="1629" cy="850" r="7"></circle>
            <path d="M432.225139,407.949466 C429.877426,406.736255 426.986991,407.647497 425.767296,409.985375 L425.276827,410.925026 L424.157552,410.342442 L414.153241,405.1681 L411.97757,404.04052 C411.673434,403.883607 411.332155,403.812143 410.990344,403.833797 C401.413621,400.701628 393.729606,406.734184 388.774611,416.237183 L388.774611,416.237183 C387.01048,419.48842 385.841521,423.026607 385.322463,426.686097 L385.209278,426.629718 C384.655929,430.544929 385.17155,434.21583 387.095698,437.322941 L387.259187,437.00346 C388.221722,438.580895 389.461365,439.972883 390.918841,441.112865 C391.017585,441.523476 391.290696,441.871008 391.667121,442.065044 L405.362526,449.150009 L404.318707,451.148332 C403.100901,453.487187 404.015595,456.366714 406.362328,457.581806 L406.362328,457.581806 L409.613258,451.317469 L426.503,460.056219 L427.609699,457.938873 L428.716399,455.821528 L430.37016,452.645509 L430.426753,452.645509 L426.591033,459.99984 L434.671196,464.234532 C444.50573,469.321173 452.019967,462.78747 457.478007,452.664302 L457.478007,452.607923 L457.811275,451.981489 L457.811275,451.981489 L457.811275,451.981489 L457.811275,451.92511 L457.811275,451.92511 L457.811275,451.92511 L458.094238,451.367584 L458.094238,451.367584 C463.313332,441.06275 464.382303,431.190155 454.497465,426.084721 L446.442454,421.950259 L441.996792,430.482285 L441.940199,430.482285 L444.210191,426.128571 L445.254009,424.130248 L446.417301,421.893879 L429.527559,413.123808 L432.225139,407.949466 L432.225139,407.949466 Z" id="Shape" fill="url(#linearGradient-5)" fill-rule="nonzero"></path>
            <polygon id="Rectangle" fill="#4F617D" fill-rule="nonzero" transform="translate(427.409736, 436.902318) rotate(-62.550000) translate(-427.409736, -436.902318) " points="409.381082 427.883945 445.435606 427.889515 445.438391 445.920692 409.383867 445.915121"></polygon>
            <path d="M455.078796,451.671329 L455.078796,451.614202 C449.975399,461.643137 442.882858,468.276198 433.527666,463.318857 L426,459.326326 L444.51147,423 L452.03292,426.992532 C461.388112,431.95622 460.182194,441.642394 455.078796,451.671329 Z" id="Path" fill="#32B5A5" fill-rule="nonzero"></path>
            <g id="Group" transform="translate(0.000000, 52.000000)"></g>
            <path d="M449.910798,460 C452.266896,457.418067 454.239244,454.490723 455.763693,451.313179 C457.174236,448.599271 458.26091,445.719283 459,442.736073 L455.763693,441 L447,458.425272 L449.910798,460 Z" id="Path" fill="#4A5C81" fill-rule="nonzero"></path>
            <path d="M424.8206,440.647772 L448.483842,440.65143 L448.483842,441.312027 C448.483842,442.032856 448.197774,442.724118 447.68826,443.233742 C447.178747,443.743366 446.487636,444.029607 445.766963,444.029496 L427.52584,444.026678 C426.025118,444.026446 424.808354,442.809418 424.80802,441.30837 L424.80802,440.647772 L424.8206,440.647772 Z" id="Path" fill="#4A5C81" fill-rule="nonzero" transform="translate(436.645931, 442.338634) rotate(-62.550000) translate(-436.645931, -442.338634) "></path>
            <path d="M411.461142,429.071722 L412.341748,429.071722 L412.347666,467.386535 L407.843995,467.385839 L407.838631,432.701305 C407.836819,431.73911 408.217654,430.815811 408.897186,430.13495 C409.576718,429.45409 410.499154,429.071722 411.461142,429.071722 L411.461142,429.071722 Z" id="Path" fill="#32B5A5" fill-rule="nonzero" transform="translate(410.093148, 448.229128) rotate(-62.550000) translate(-410.093148, -448.229128) "></path>
            <path d="M424.522149,396.961291 L425.402755,396.961291 C427.403718,396.961736 429.02607,398.58444 429.026379,400.585838 L429.031737,435.276664 L424.528067,435.275968 L424.522149,396.961291 Z" id="Path" fill="#32B5A5" fill-rule="nonzero" transform="translate(426.776943, 416.118977) rotate(-62.550000) translate(-426.776943, -416.118977) "></path>
            <path d="M424,411.94279 L405.161041,448 L395.652818,443.104586 C385.174756,437.69254 385.231805,427.473285 390.429634,417.518647 L390.429634,417.518647 C395.633801,407.564009 404.013715,401.64163 414.517132,407.047376 L424,411.94279 Z" id="Path" fill="#32B5A5" fill-rule="nonzero"></path>
            <path d="M389.052861,437 L393,429.839352 L387.217441,427 C386.651684,430.66127 387.164812,434.092154 389.052861,437 Z" id="Path" fill="#FFF6D5" fill-rule="nonzero"></path>
            <path d="M406,405 L402.348884,412 L397,409.224348 C399.659229,406.746957 402.6714,405.20087 406,405 Z" id="Path" fill="#FFF6D5" fill-rule="nonzero"></path>
            <path d="M406.902262,450.393578 L410.047283,450.394064 L410.047979,454.898712 L403.279893,454.897667 L403.279735,454.029452 C403.276266,453.066168 403.656361,452.141251 404.336075,451.459028 C405.015789,450.776805 405.939182,450.393423 406.902262,450.393578 L406.902262,450.393578 Z" id="Path" fill="#32B5A5" fill-rule="nonzero" transform="translate(406.663857, 452.646145) rotate(-62.550000) translate(-406.663857, -452.646145) "></path>
            <path d="M424.495126,409.426469 L431.256921,409.427515 L431.257617,413.932163 L428.112596,413.931677 C426.111633,413.931368 424.489281,412.308664 424.488972,410.307266 L424.488836,409.426469 L424.495126,409.426469 Z" id="Path" fill="#32B5A5" fill-rule="nonzero" transform="translate(427.873226, 411.679316) rotate(117.450000) translate(-427.873226, -411.679316) "></path>
            <path d="M426,417.296753 L410.53169,447 L397.104252,435.024386 C394.955569,433.106882 394.382033,429.981572 395.710486,427.429488 L401.45977,416.397031 C402.793776,413.834221 405.704508,412.504353 408.52193,413.17044 L426,417.296753 Z" id="Path" fill="#53678B" fill-rule="nonzero"></path>
            <path d="M410.9196,446 C404.261574,442.603589 402.019069,433.885926 405.910288,426.52186 C409.801507,419.157794 418.34829,415.966285 425,419.350278" id="Path" fill="#658BC8" fill-rule="nonzero"></path>
            <polygon id="Path" fill="#FF656A" fill-rule="nonzero" points="428 417.581822 412.068043 448 409 446.418178 411.161137 444.772573 424.250169 419.788718 424.931957 416"></polygon>
            <polygon id="Path" fill="#32B5A5" fill-rule="nonzero" points="412.068043 448 409 446.418178 411.161137 444.772573 424.250169 419.788718 424.931957 416 428 417.581822"></polygon>
            <polygon id="Rectangle" fill="#53678B" fill-rule="nonzero" transform="translate(420.448698, 435.761282) rotate(-62.550000) translate(-420.448698, -435.761282) " points="418.196514 433.50861 422.700185 433.509306 422.700881 438.013955 418.19721 438.013259"></polygon>
            <ellipse id="Oval" fill="#53678B" fill-rule="nonzero" transform="translate(422.458092, 436.795514) rotate(-62.550000) translate(-422.458092, -436.795514) " cx="422.458092" cy="436.795514" rx="4.50367043" ry="1.12616233"></ellipse>
            <path d="M433,457.587819 C434.764721,458.854225 436.948066,459.294581 439.031808,458.804367 C441.11555,458.314154 442.913896,456.93708 444,455" id="Path" fill="#000000" fill-rule="nonzero" opacity="0.05"></path>
            <path d="M447,431 C448.997672,431.725728 450.594013,433.211193 451.411168,435.104784 C452.228322,436.998374 452.193655,439.131772 451.315371,441" id="Path" fill="#000000" fill-rule="nonzero" opacity="0.05"></path>
            <path d="M399.027127,431 C399.027127,431 398.17663,422.920899 406,417" id="Path" fill="#000000" fill-rule="nonzero" opacity="0.05"></path>
            <path d="M403.027127,433 C403.027127,433 402.17663,424.920899 410,419" id="Path" fill="#000000" fill-rule="nonzero" opacity="0.05"></path>
            <ellipse id="Oval" fill="#4A77BE" fill-rule="nonzero" transform="translate(410.373344, 435.602066) rotate(-62.550000) translate(-410.373344, -435.602066) " cx="410.373344" cy="435.602066" rx="3.37775282" ry="3.37848633"></ellipse>
            <ellipse id="Oval" fill="#4A77BE" fill-rule="nonzero" transform="translate(415.088603, 424.087704) rotate(-62.550000) translate(-415.088603, -424.087704) " cx="415.088603" cy="424.087704" rx="2.25183522" ry="2.25232422"></ellipse>
            <path d="M426.971027,426.063468 L427.631571,426.063468 C428.382033,426.063468 428.990358,426.671949 428.990302,427.422672 L428.989755,434.817037 C428.989728,435.185892 428.843226,435.539651 428.582477,435.80049 C428.321728,436.061329 427.968093,436.207882 427.599366,436.20791 L425.605153,436.208057 L425.605805,427.39775 C425.619615,426.654419 426.227837,426.060003 426.971027,426.063468 Z" id="Path" fill="#CDEFFF" fill-rule="nonzero" transform="translate(427.297728, 431.135763) rotate(-101.534621) translate(-427.297728, -431.135763) "></path>
            <path d="M427.931968,427.940504 L431.3095,427.940256 L431.309203,431.973312 C431.309093,433.474459 430.092507,434.691468 428.591883,434.691626 L427.931472,434.691626 L427.931968,427.940504 Z" id="Path" fill="#000000" fill-rule="nonzero" opacity="0.05" transform="translate(429.620486, 431.315941) rotate(-101.450000) translate(-429.620486, -431.315941) "></path>
            <path d="M422.839834,444.504615 L428.746184,444.505527 L428.747265,451.501574 L422.840915,451.500661 C421.295032,451.500422 420.041652,450.246771 420.041413,448.700552 L420.041202,447.335316 C420.032684,446.587359 420.32376,445.867187 420.849519,445.335404 C421.375278,444.803621 422.091993,444.504452 422.839834,444.504615 Z" id="Path" fill="#CDEFFF" fill-rule="nonzero" transform="translate(424.394143, 448.003094) rotate(-62.550000) translate(-424.394143, -448.003094) "></path>
            <path d="M427,450.900041 L425.8539,453.153083 C424.611758,455.047287 421.602445,455.564957 419.009313,454.329607 L416,452.894248 L417.632712,450 L427,450.900041 Z" id="Path" fill="#CDEFFF" fill-rule="nonzero"></path>
            <path d="M413.497012,445.917554 L414.176336,445.917659 C414.951015,445.917779 415.579113,446.546013 415.579233,447.32086 L415.580093,452.888756 L412.095409,452.888218 L412.094549,447.320321 C412.094429,446.545475 412.722333,445.917434 413.497012,445.917554 Z" id="Path" fill="#CDEFFF" fill-rule="nonzero" transform="translate(413.837321, 449.403155) rotate(-62.550000) translate(-413.837321, -449.403155) "></path>
            <path d="M425.525,446.338096 C426.543039,446.938856 427.708444,447.138332 428.8375,446.905076 L429,446.543626 L423,443 C423.428254,444.441787 424.333563,445.638622 425.525,446.338096 Z" id="Path" fill="#000000" fill-rule="nonzero" opacity="0.05"></path>
            <path d="M430.113415,430.340297 L436.013475,430.341208 L436.014552,437.312089 L430.108202,437.311176 C429.365843,437.311062 428.653843,437.015986 428.128835,436.490864 C427.603826,435.965742 427.308815,435.253587 427.3087,434.511067 L427.30849,433.145831 C427.308375,432.403311 427.603166,431.691248 428.128012,431.166288 C428.652858,430.641328 429.364767,430.346472 430.107126,430.346587 L430.113415,430.340297 Z" id="Path" fill="#CDEFFF" fill-rule="nonzero" transform="translate(431.661521, 433.826193) rotate(117.450000) translate(-431.661521, -433.826193) "></path>
            <path d="M430.742394,436.529425 C431.736537,437.00486 432.530945,437.773213 433,438.712986 L432.841785,439 L427,436.186133 C428.248619,435.849584 429.589589,435.972592 430.742394,436.529425 Z" id="Path" fill="#000000" fill-rule="nonzero" opacity="0.05"></path>
            <ellipse id="Oval" fill="#CDEFFF" fill-rule="nonzero" transform="translate(428.381180, 440.930607) rotate(-62.550000) translate(-428.381180, -440.930607) " cx="428.38118" cy="440.930607" rx="5.22702532" ry="5.2281604"></ellipse>
            <ellipse id="Oval" fill="#CDEFFF" fill-rule="nonzero" transform="translate(428.120924, 441.008450) rotate(-62.550000) translate(-428.120924, -441.008450) " cx="428.120924" cy="441.00845" rx="5.22702532" ry="5.2281604"></ellipse>
            <path d="M423.608517,438.796238 C422.718399,440.447488 422.810071,442.431722 423.848932,444 C425.772809,443.914465 427.50383,442.846663 428.391809,441.19767 C429.279788,439.548676 429.190284,437.568153 428.156915,436 C426.231957,436.081178 424.498112,437.147102 423.608517,438.796238 Z" id="Path" fill="#658BC8" fill-rule="nonzero"></path>
        </g>
        <path d="M1183,172.49396 C1183.00107,185.95067 1172.54251,197.092119 1159.10915,197.944712 C1158.57456,197.981571 1158.03382,198 1157.49308,198 C1146.77356,197.993656 1137.20182,191.287546 1133.53768,181.216477 C1129.87354,171.145409 1132.89894,159.858609 1141.10943,152.968767 C1149.31991,146.078926 1160.96331,145.056376 1170.2496,150.409612 L1170.2496,150.409612 C1173.20471,152.125313 1175.78862,154.411973 1177.85066,157.136277 L1177.85066,157.136277 C1181.19948,161.55552 1183.00813,166.949767 1183,172.49396 Z" id="Path" fill="#279FF6" fill-rule="nonzero" opacity="0.2"></path>
        <path d="M1151.2594,156.218232 C1149.93877,156.800019 1148.66428,157.485483 1147.4474,158.268462 C1146.63476,158.72872 1145.93717,159.374399 1145.40899,160.155177 C1144.88209,160.954999 1144.86282,161.99585 1145.35973,162.815446 C1145.97556,163.683335 1147.20722,163.821694 1148.23567,163.878295 C1150.15998,164.295653 1152.15531,163.622834 1153.45793,162.117361 L1155.65645,160.079709 C1156.42008,159.375335 1157.25762,158.400532 1156.92507,157.406863 C1156.67257,156.645887 1155.83504,156.274833 1155.07757,156.149052 C1153.18798,155.769268 1151.22761,156.121239 1149.57818,157.136433" id="Path" fill="#F55F44" fill-rule="nonzero" opacity="0.05"></path>
        <circle id="Oval" fill="#F55F44" fill-rule="nonzero" opacity="0.05" cx="1170" cy="174" r="5"></circle>
        <path d="M1178,157.570282 L1178,157.570282 C1177.94754,161.050832 1175.18532,163.877866 1171.72144,163.996165 C1168.25756,164.114463 1165.31051,161.482413 1165.02276,158.013481 C1164.73501,154.544549 1167.20778,151.459005 1170.6434,151 L1170.6434,151 C1173.50623,152.67696 1176.00723,154.910637 1178,157.570282 L1178,157.570282 Z" id="Path" fill="#F55F44" fill-rule="nonzero" opacity="0.05"></path>
        <path d="M1178,187.353495 C1173.62162,193.608202 1166.6485,197.525519 1159.04842,198 C1159.01816,197.653624 1159,197.301171 1159,196.948718 C1159.00164,192.433231 1161.53773,188.304082 1165.55575,186.274934 C1169.57377,184.245786 1174.38782,184.663027 1178,187.353495 L1178,187.353495 Z" id="Path" fill="#F55F44" fill-rule="nonzero" opacity="0.05"></path>
        <path d="M886,366.024326 C885.99975,372.357021 881.076315,377.599602 874.753244,378 C874.504263,378 874.24921,378 873.994156,378 C868.949745,377.994883 864.446539,374.838531 862.723065,370.099955 C860.999591,365.361379 862.423479,360.051352 866.28692,356.809469 C870.150361,353.567586 875.629253,353.085364 880.000061,355.602515 L880.000061,355.602515 C881.389959,356.409662 882.605729,357.484553 883.576883,358.76487 L883.576883,358.76487 C885.159589,360.853408 886.011015,363.404323 886,366.024326 L886,366.024326 Z" id="Path" fill="#279FF6" fill-rule="nonzero" opacity="0.2"></path>
        <path d="M871.15563,359.146127 C870.482584,359.43441 869.832835,359.776073 869.212384,360.16796 C868.8058,360.393959 868.455651,360.711981 868.188941,361.097499 C867.93702,361.499604 867.93702,362.01389 868.188941,362.415994 C868.569961,362.7965 869.095023,362.98907 869.626943,362.943392 C870.582454,363.142506 871.569819,362.808379 872.217938,362.066593 L873.319111,361.051352 C873.701282,360.695358 874.122319,360.214108 873.966859,359.732857 C873.790193,359.362578 873.436714,359.112749 873.034101,359.073609 C872.087964,358.885212 871.106797,359.061433 870.281169,359.568045" id="Path" fill="#F55F44" fill-rule="nonzero" opacity="0.1"></path>
        <circle id="Oval" fill="#F55F44" fill-rule="nonzero" opacity="0.1" cx="879.5" cy="367.5" r="2.5"></circle>
        <path d="M884,359.024912 L884,359.024912 C883.979678,360.632062 882.707105,361.940299 881.107941,361.998023 C879.508776,362.055747 878.145991,360.842638 878.010865,359.2411 C877.875739,357.639562 879.015841,356.213403 880.601871,356 L880.601871,356 C881.922866,356.772289 883.077935,357.800498 884,359.024912 L884,359.024912 Z" id="Path" fill="#F55F44" fill-rule="nonzero" opacity="0.1"></path>
        <path d="M883.946,373.102686 C881.880055,375.978942 878.588315,377.780947 875,378 C875,377.841644 875,377.677422 875,377.513201 C874.993188,375.427414 876.194899,373.517621 878.102396,372.582835 C880.009893,371.64805 882.294348,371.849416 884,373.102686 L883.946,373.102686 Z" id="Path" fill="#F55F44" fill-rule="nonzero" opacity="0.1"></path>
        <path d="M1599,534.612506 C1598.99884,563.901224 1576.22796,588.148159 1546.98375,590 C1545.83222,590 1544.6526,590 1543.47297,590 C1520.14257,589.976335 1499.31524,575.378208 1491.34418,553.462293 C1483.37311,531.546379 1489.95859,506.987504 1507.82701,491.993795 C1525.69542,477.000085 1551.0353,474.76981 1571.25028,486.411631 L1571.25028,486.411631 C1577.67856,490.144687 1583.3015,495.116059 1587.79309,501.037523 L1587.79309,501.037523 C1595.1131,510.697011 1599.05095,522.494995 1599,534.612506 L1599,534.612506 Z" id="Path" fill="#279FF6" fill-rule="nonzero" opacity="0.2"></path>
        <path d="M1530.72627,502.694102 C1527.58539,504.063449 1524.55323,505.686347 1521.65779,507.547812 C1519.7604,508.621304 1518.12637,510.131908 1516.88172,511.963122 C1515.70609,513.87312 1515.70609,516.315976 1516.88172,518.225974 C1518.65982,520.033373 1521.11011,520.948082 1523.5924,520.731114 C1528.05145,521.676902 1532.65915,520.089801 1535.68371,516.566318 L1540.82252,511.743922 C1542.60598,510.052952 1544.57082,507.767012 1543.84534,505.481071 C1543.0209,503.722246 1541.37133,502.535556 1539.49247,502.349645 C1535.07717,501.454758 1530.49839,502.291807 1526.64546,504.698214" id="Path" fill="#F55F44" fill-rule="nonzero" opacity="0.1"></path>
        <circle id="Oval" fill="#F55F44" fill-rule="nonzero" opacity="0.1" cx="1568.5" cy="541.5" r="11.5"></circle>
        <path d="M1590,502.116258 L1590,502.116258 C1589.90516,509.616288 1583.96649,515.721394 1576.50372,515.990774 C1569.04095,516.260154 1562.68129,510.598976 1562.0507,503.125131 C1561.42012,495.651287 1566.74059,488.995881 1574.14206,488 L1574.14206,488 C1580.30671,491.604016 1585.69703,496.402322 1590,502.116258 L1590,502.116258 Z" id="Path" fill="#F55F44" fill-rule="nonzero" opacity="0.1"></path>
        <path d="M1589.748,567.145867 C1580.10692,580.568396 1564.74547,588.977751 1548,590 C1548,589.261004 1548,588.494638 1548,587.728272 C1547.96821,577.994598 1553.5762,569.082231 1562.47785,564.719898 C1571.3795,560.357566 1582.04029,561.297273 1590,567.145867 L1589.748,567.145867 Z" id="Path" fill="#F55F44" fill-rule="nonzero" opacity="0.1"></path>
        <path d="M573.441153,841.935112 C573.442228,855.391823 562.983662,866.533272 549.550303,867.385865 C549.015709,867.422723 548.47497,867.441153 547.934232,867.441153 C537.214717,867.434809 527.642975,860.728699 523.978831,850.65763 C520.314688,840.586561 523.340095,829.299762 531.55058,822.40992 C539.761065,815.520078 551.404461,814.497529 560.690751,819.850764 L560.690751,819.850764 C563.645865,821.566466 566.229769,823.853126 568.291817,826.577429 L568.291817,826.577429 C571.640634,830.996673 573.449282,836.39092 573.441153,841.935112 Z" id="Path" fill="#279FF6" fill-rule="nonzero" opacity="0.2" transform="translate(547.941153, 841.941153) rotate(-179.000000) translate(-547.941153, -841.941153) "></path>
        <path d="M554.481412,850.770921 C553.160774,851.352708 551.886287,852.038172 550.669407,852.821152 C549.856767,853.281409 549.159176,853.927088 548.631,854.707867 C548.104099,855.507688 548.084823,856.54854 548.581734,857.368135 C549.197566,858.236024 550.429232,858.374383 551.457673,858.430985 C553.381991,858.848343 555.377317,858.175524 556.679935,856.670051 L558.878458,854.632398 C559.64209,853.928025 560.479623,852.953222 560.147073,851.959552 C559.894582,851.198577 559.057049,850.827523 558.299575,850.701742 C556.409985,850.321957 554.449621,850.673929 552.800188,851.689123" id="Path" fill="#F55F44" fill-rule="nonzero" opacity="0.05" transform="translate(554.222008, 854.552689) rotate(-179.000000) translate(-554.222008, -854.552689) "></path>
        <circle id="Oval" fill="#F55F44" fill-rule="nonzero" opacity="0.05" transform="translate(535.469235, 840.223226) rotate(-179.000000) translate(-535.469235, -840.223226) " cx="535.469235" cy="840.223226" r="5"></circle>
        <path d="M540.181499,856.764816 L540.181499,856.764816 C540.129038,860.245367 537.366817,863.0724 533.902936,863.190699 C530.439055,863.308998 527.492005,860.676947 527.204256,857.208016 C526.916506,853.739084 529.389278,850.653539 532.824897,850.194534 L532.824897,850.194534 C535.687732,851.871494 538.188732,854.105171 540.181499,856.764816 L540.181499,856.764816 Z" id="Path" fill="#F55F44" fill-rule="nonzero" opacity="0.05" transform="translate(533.681499, 856.694534) rotate(-179.000000) translate(-533.681499, -856.694534) "></path>
        <path d="M1154.78312,893.79463 C1150.40474,900.049337 1143.43162,903.966654 1135.83154,904.441135 C1135.80127,904.094759 1135.78312,903.742306 1135.78312,903.389853 C1135.78475,898.874366 1138.32084,894.745217 1142.33887,892.716069 C1146.35689,890.686921 1151.17094,891.104162 1154.78312,893.79463 L1154.78312,893.79463 Z" id="Path" fill="#F55F44" fill-rule="nonzero" opacity="0.05" transform="translate(1145.283116, 897.941135) rotate(-179.000000) translate(-1145.283116, -897.941135) "></path>
        <path d="M463.775015,766.231927 C463.774765,772.564623 458.85133,777.807203 452.528259,778.207601 C452.279278,778.207601 452.024225,778.207601 451.769171,778.207601 C446.72476,778.202484 442.221554,775.046133 440.49808,770.307557 C438.774606,765.56898 440.198494,760.258954 444.061935,757.01707 C447.925376,753.775187 453.404268,753.292966 457.775075,755.810116 L457.775075,755.810116 C459.164974,756.617263 460.380744,757.692155 461.351898,758.972471 L461.351898,758.972471 C462.934604,761.061009 463.78603,763.611925 463.775015,766.231927 L463.775015,766.231927 Z" id="Path" fill="#279FF6" fill-rule="nonzero" opacity="0.2" transform="translate(451.775015, 766.207601) rotate(-179.000000) translate(-451.775015, -766.207601) "></path>
        <path d="M454.842926,769.405324 C454.16988,769.693607 453.520131,770.03527 452.89968,770.427157 C452.493096,770.653156 452.142947,770.971178 451.876237,771.356696 C451.624316,771.758801 451.624316,772.273087 451.876237,772.675191 C452.257257,773.055696 452.782319,773.248267 453.314239,773.202589 C454.26975,773.401703 455.257114,773.067576 455.905234,772.32579 L457.006406,771.310549 C457.388578,770.954555 457.809615,770.473305 457.654155,769.992054 C457.477489,769.621775 457.12401,769.371946 456.721397,769.332806 C455.77526,769.144409 454.794093,769.32063 453.968465,769.827242" id="Path" fill="#F55F44" fill-rule="nonzero" opacity="0.1" transform="translate(454.687296, 771.259197) rotate(-179.000000) translate(-454.687296, -771.259197) "></path>
        <circle id="Oval" fill="#F55F44" fill-rule="nonzero" opacity="0.1" transform="translate(446.302031, 764.611841) rotate(-179.000000) translate(-446.302031, -764.611841) " cx="446.302031" cy="764.611841" r="2.5"></circle>
        <path d="M447.653914,773.109281 L447.653914,773.109281 C447.633592,774.71643 446.361019,776.024667 444.761855,776.082391 C443.16269,776.140116 441.799906,774.927006 441.664779,773.325468 C441.529653,771.72393 442.669755,770.297771 444.255785,770.084368 L444.255785,770.084368 C445.57678,770.856657 446.73185,771.884866 447.653914,773.109281 L447.653914,773.109281 Z" id="Path" fill="#F55F44" fill-rule="nonzero" opacity="0.1" transform="translate(444.653914, 773.084368) rotate(-179.000000) translate(-444.653914, -773.084368) "></path>
        <path d="M450.878924,755.21567 C448.812979,758.091926 445.52124,759.89393 441.932924,760.112984 C441.932924,759.954627 441.932924,759.790406 441.932924,759.626185 C441.926112,757.540398 443.127823,755.630605 445.03532,754.695819 C446.942817,753.761034 449.227273,753.962399 450.932924,755.21567 L450.878924,755.21567 Z" id="Path" fill="#F55F44" fill-rule="nonzero" opacity="0.1" transform="translate(446.432924, 757.112984) rotate(-179.000000) translate(-446.432924, -757.112984) "></path>
        <path d="M-34.4172443,644.25598 C-33.8132217,609.711379 -6.44470926,581.582094 28.1008972,580 C29.459683,580.023707 30.8516099,580.047993 32.2435369,580.072278 C59.7723714,580.580502 84.0474535,598.227062 93.0017305,624.239918 C101.956007,650.252775 93.6794654,679.083192 72.2863425,696.399678 C50.8932197,713.716163 20.9468281,715.824982 -2.66659262,701.677847 L-2.66659262,701.677847 C-10.1749222,697.142549 -16.7074595,691.163296 -21.8854677,684.086748 L-21.8854677,684.086748 C-30.3239586,672.543152 -34.7275258,658.546935 -34.4172443,644.25598 L-34.4172443,644.25598 Z" id="Path" fill="#279FF6" fill-rule="nonzero" opacity="0.2"></path>
        <path d="M45.0530271,682.359533 C48.7627063,680.964339 52.350023,679.297781 55.7818552,677.375247 C58.0278045,676.270832 59.9737949,674.697164 61.4697453,672.775608 C62.8863735,670.76907 62.9354849,668.174365 61.5956542,666.123455 C59.5474793,664.170153 56.6933238,663.152345 53.7788937,663.335956 C48.5704284,662.24723 43.1367794,663.846033 39.520166,667.531461 L33.3988419,672.556643 C31.2740343,674.319069 28.9246403,676.710026 29.7291834,679.151753 C30.6603397,681.035465 32.5703222,682.327049 34.7692284,682.559973 C39.9274312,683.593809 45.3120991,682.791135 49.8773799,680.307853" id="Path" fill="#F55F44" fill-rule="nonzero" opacity="0.1"></path>
        <path d="M2.81174652,624.002098 C-4.91903812,623.871976 -11.2954689,629.809708 -11.4304102,637.264393 C-11.5653516,644.719078 -5.40770396,650.86778 2.32308067,650.997902 C10.0538653,651.128024 16.4302961,645.190292 16.5652374,637.735607 C16.7001788,630.280922 10.5425312,624.13222 2.81174652,624.002098 Z" id="Oval" fill="#F55F44" fill-rule="nonzero" opacity="0.1"></path>
        <path d="M-23.4325864,683.057602 L-23.4325864,683.057602 C-23.1665132,674.231095 -16.0414653,667.166656 -7.24014232,667.002899 C1.56118065,666.839141 8.94034723,673.633713 9.52981389,682.444302 C10.1192805,691.254891 3.71153052,698.979802 -5.03249286,700 L-5.03249286,700 C-12.2241278,695.630968 -18.4785674,689.872018 -23.4325864,683.057602 L-23.4325864,683.057602 Z" id="Path" fill="#F55F44" fill-rule="nonzero" opacity="0.1"></path>
        <path d="M-23.1294655,605.702763 C-11.2507322,590.305511 7.40357728,580.847981 27.5674136,580 C27.5518976,580.85848 27.5358069,581.748756 27.5197162,582.639032 C27.3537512,593.947139 20.4209756,604.186785 9.62190244,609.073938 C-1.17717072,613.961092 -13.980933,612.653277 -23.4325864,605.697653 L-23.1294655,605.702763 Z" id="Path" fill="#F55F44" fill-rule="nonzero" opacity="0.1"></path>
    </g>
</svg>